<?xml version="1.0" standalone="no"?>
<!DOCTYPE svg PUBLIC "-//W3C//DTD SVG 1.1//EN"
"http://www.w3.org/Graphics/SVG/1.1/DTD/svg11.dtd">
<svg width="185.386" height="374.362" viewBox="0 0 3862.2 7799.21" version="1.1"
xmlns="http://www.w3.org/2000/svg"
xmlns:xlink="http://www.w3.org/1999/xlink">
<circle cx="159.449" cy="159.449" r="19.685" style=""/>
<circle cx="2279.53" cy="927.638" r="19.685" style=""/>
<circle cx="2524.41" cy="831.181" r="19.685" style=""/>
<circle cx="2796.54" cy="2835.43" r="19.685" style=""/>
<circle cx="2247.72" cy="3234.8" r="19.685" style=""/>
<circle cx="2003.46" cy="3054.72" r="19.685" style=""/>
<circle cx="1273.07" cy="3542.44" r="19.685" style=""/>
<circle cx="1244.17" cy="3671.73" r="19.685" style=""/>
<circle cx="1051.97" cy="3638.58" r="19.685" style=""/>
<circle cx="947.559" cy="3459.37" r="19.685" style=""/>
<circle cx="718.346" cy="2984.33" r="19.685" style=""/>
<circle cx="631.732" cy="4564.33" r="19.685" style=""/>
<circle cx="1939.92" cy="5360.08" r="19.685" style=""/>
<circle cx="2227.4" cy="5588.35" r="19.685" style=""/>
<circle cx="2587.8" cy="5865.51" r="19.685" style=""/>
<circle cx="2947.24" cy="4492.99" r="19.685" style=""/>
<circle cx="3179.06" cy="4052.36" r="19.685" style=""/>
<circle cx="2673.15" cy="3814.25" r="19.685" style=""/>
<circle cx="855.512" cy="474.409" r="31.4961" style=""/>
<circle cx="1041.34" cy="946.85" r="31.4961" style=""/>
<circle cx="1041.34" cy="1146.85" r="31.4961" style=""/>
<circle cx="1041.34" cy="1346.85" r="31.4961" style=""/>
<circle cx="1041.34" cy="1546.85" r="31.4961" style=""/>
<circle cx="1041.34" cy="1746.85" r="31.4961" style=""/>
<circle cx="1041.34" cy="1946.85" r="31.4961" style=""/>
<circle cx="1041.34" cy="2146.85" r="31.4961" style=""/>
<circle cx="1041.34" cy="2346.85" r="31.4961" style=""/>
<circle cx="1041.34" cy="2546.85" r="31.4961" style=""/>
<circle cx="1041.34" cy="2746.85" r="31.4961" style=""/>
<circle cx="1641.34" cy="2346.85" r="31.4961" style=""/>
<circle cx="1641.34" cy="2546.85" r="31.4961" style=""/>
<circle cx="1641.34" cy="2746.85" r="31.4961" style=""/>
<circle cx="2049.21" cy="2346.85" r="31.4961" style=""/>
<circle cx="2049.21" cy="2546.85" r="31.4961" style=""/>
<circle cx="2049.21" cy="2746.85" r="31.4961" style=""/>
<circle cx="2649.21" cy="2346.85" r="31.4961" style=""/>
<circle cx="2649.21" cy="2546.85" r="31.4961" style=""/>
<circle cx="2649.21" cy="2746.85" r="31.4961" style=""/>
<circle cx="2049.21" cy="2146.85" r="31.4961" style=""/>
<circle cx="2049.21" cy="1946.85" r="31.4961" style=""/>
<circle cx="2049.21" cy="1746.85" r="31.4961" style=""/>
<circle cx="2049.21" cy="1546.85" r="31.4961" style=""/>
<circle cx="2049.21" cy="1346.85" r="31.4961" style=""/>
<circle cx="2049.21" cy="1146.85" r="31.4961" style=""/>
<circle cx="2049.21" cy="946.85" r="31.4961" style=""/>
<circle cx="1641.34" cy="946.85" r="31.4961" style=""/>
<circle cx="1641.34" cy="1146.85" r="31.4961" style=""/>
<circle cx="1641.34" cy="1346.85" r="31.4961" style=""/>
<circle cx="1641.34" cy="1546.85" r="31.4961" style=""/>
<circle cx="1641.34" cy="1746.85" r="31.4961" style=""/>
<circle cx="1641.34" cy="1946.85" r="31.4961" style=""/>
<circle cx="1641.34" cy="2146.85" r="31.4961" style=""/>
<circle cx="2649.21" cy="1146.85" r="31.4961" style=""/>
<circle cx="2649.21" cy="946.85" r="31.4961" style=""/>
<circle cx="2649.21" cy="1346.85" r="31.4961" style=""/>
<circle cx="2649.21" cy="1546.85" r="31.4961" style=""/>
<circle cx="2649.21" cy="1746.85" r="31.4961" style=""/>
<circle cx="2649.21" cy="1946.85" r="31.4961" style=""/>
<circle cx="2649.21" cy="2146.85" r="31.4961" style=""/>
<circle cx="1655.51" cy="474.409" r="31.4961" style=""/>
<circle cx="2049.21" cy="474.409" r="31.4961" style=""/>
<circle cx="2849.21" cy="474.409" r="31.4961" style=""/>
<circle cx="1261.81" cy="4175.2" r="31.4961" style=""/>
<circle cx="1261.81" cy="4375.2" r="31.4961" style=""/>
<circle cx="1261.81" cy="4575.2" r="31.4961" style=""/>
<circle cx="1261.81" cy="4775.2" r="31.4961" style=""/>
<circle cx="1261.81" cy="4975.2" r="31.4961" style=""/>
<circle cx="1261.81" cy="5175.2" r="31.4961" style=""/>
<circle cx="1261.81" cy="5375.2" r="31.4961" style=""/>
<circle cx="1261.81" cy="5575.2" r="31.4961" style=""/>
<circle cx="1261.81" cy="5775.2" r="31.4961" style=""/>
<circle cx="1261.81" cy="5975.2" r="31.4961" style=""/>
<circle cx="1261.81" cy="6175.2" r="31.4961" style=""/>
<circle cx="1261.81" cy="6375.2" r="31.4961" style=""/>
<circle cx="1261.81" cy="6575.2" r="31.4961" style=""/>
<circle cx="1261.81" cy="6775.2" r="31.4961" style=""/>
<circle cx="1261.81" cy="6975.2" r="31.4961" style=""/>
<circle cx="1261.81" cy="7175.2" r="31.4961" style=""/>
<circle cx="2461.81" cy="5975.2" r="31.4961" style=""/>
<circle cx="2461.81" cy="6175.2" r="31.4961" style=""/>
<circle cx="2461.81" cy="6375.2" r="31.4961" style=""/>
<circle cx="2461.81" cy="6575.2" r="31.4961" style=""/>
<circle cx="2461.81" cy="6775.2" r="31.4961" style=""/>
<circle cx="2461.81" cy="6975.2" r="31.4961" style=""/>
<circle cx="2461.81" cy="7175.2" r="31.4961" style=""/>
<circle cx="2461.81" cy="5775.2" r="31.4961" style=""/>
<circle cx="2461.81" cy="5575.2" r="31.4961" style=""/>
<circle cx="2461.81" cy="5375.2" r="31.4961" style=""/>
<circle cx="2461.81" cy="5175.2" r="31.4961" style=""/>
<circle cx="2461.81" cy="4975.2" r="31.4961" style=""/>
<circle cx="2461.81" cy="4775.2" r="31.4961" style=""/>
<circle cx="2461.81" cy="4575.2" r="31.4961" style=""/>
<circle cx="2461.81" cy="4375.2" r="31.4961" style=""/>
<circle cx="2461.81" cy="4175.2" r="31.4961" style=""/>
<circle cx="2776.77" cy="4175.2" r="31.4961" style=""/>
<circle cx="2776.77" cy="4975.2" r="31.4961" style=""/>
<circle cx="474.409" cy="474.409" r="39.3701" style=""/>
<circle cx="474.409" cy="674.409" r="39.3701" style=""/>
<circle cx="474.409" cy="874.409" r="39.3701" style=""/>
<circle cx="474.409" cy="1074.41" r="39.3701" style=""/>
<circle cx="474.409" cy="1274.41" r="39.3701" style=""/>
<circle cx="474.409" cy="1474.41" r="39.3701" style=""/>
<circle cx="474.409" cy="1674.41" r="39.3701" style=""/>
<circle cx="474.409" cy="1874.41" r="39.3701" style=""/>
<circle cx="474.409" cy="2074.41" r="39.3701" style=""/>
<circle cx="474.409" cy="2274.41" r="39.3701" style=""/>
<circle cx="474.409" cy="2474.41" r="39.3701" style=""/>
<circle cx="474.409" cy="2674.41" r="39.3701" style=""/>
<circle cx="474.409" cy="2874.41" r="39.3701" style=""/>
<circle cx="474.409" cy="3074.41" r="39.3701" style=""/>
<circle cx="474.409" cy="3274.41" r="39.3701" style=""/>
<circle cx="474.409" cy="3474.41" r="39.3701" style=""/>
<circle cx="474.409" cy="3674.41" r="39.3701" style=""/>
<circle cx="474.409" cy="3874.41" r="39.3701" style=""/>
<circle cx="474.409" cy="4074.41" r="39.3701" style=""/>
<circle cx="474.409" cy="4274.41" r="39.3701" style=""/>
<circle cx="474.409" cy="4474.41" r="39.3701" style=""/>
<circle cx="474.409" cy="4674.41" r="39.3701" style=""/>
<circle cx="474.409" cy="4874.41" r="39.3701" style=""/>
<circle cx="474.409" cy="5074.41" r="39.3701" style=""/>
<circle cx="3387.8" cy="2274.41" r="39.3701" style=""/>
<circle cx="3387.8" cy="2474.41" r="39.3701" style=""/>
<circle cx="3387.8" cy="2674.41" r="39.3701" style=""/>
<circle cx="3387.8" cy="2874.41" r="39.3701" style=""/>
<circle cx="3387.8" cy="3074.41" r="39.3701" style=""/>
<circle cx="3387.8" cy="3274.41" r="39.3701" style=""/>
<circle cx="3387.8" cy="3474.41" r="39.3701" style=""/>
<circle cx="3387.8" cy="3674.41" r="39.3701" style=""/>
<circle cx="3387.8" cy="3874.41" r="39.3701" style=""/>
<circle cx="3387.8" cy="2074.41" r="39.3701" style=""/>
<circle cx="3387.8" cy="1874.41" r="39.3701" style=""/>
<circle cx="3387.8" cy="1674.41" r="39.3701" style=""/>
<circle cx="3387.8" cy="1474.41" r="39.3701" style=""/>
<circle cx="3387.8" cy="1274.41" r="39.3701" style=""/>
<circle cx="3387.8" cy="1074.41" r="39.3701" style=""/>
<circle cx="3387.8" cy="874.409" r="39.3701" style=""/>
<circle cx="3387.8" cy="674.409" r="39.3701" style=""/>
<circle cx="3387.8" cy="474.409" r="39.3701" style=""/>
</svg>
