<?xml version="1.0" standalone="no"?>
<!DOCTYPE svg PUBLIC "-//W3C//DTD SVG 1.1//EN"
"http://www.w3.org/Graphics/SVG/1.1/DTD/svg11.dtd">
<svg width="185.386" height="374.362" viewBox="0 0 3862.2 7799.21" version="1.1"
xmlns="http://www.w3.org/2000/svg"
xmlns:xlink="http://www.w3.org/1999/xlink">
<polyline points="76.7728,7639.76 78.3608,7655.89 83.0668,7671.4 90.7068,7685.69 100.989,7698.22 113.517,7708.5 127.811,7716.14 143.321,7720.85 159.449,7722.44 3702.75,7722.44 3718.88,7720.85 3734.39,7716.14 3748.69,7708.5 3761.21,7698.22 3771.5,7685.69 3779.14,7671.4 3783.84,7655.89 3785.43,7639.76 3785.43,159.449 3783.84,143.321 3779.14,127.811 3771.5,113.517 3761.21,100.989 3748.69,90.7068 3734.39,83.0668 3718.88,78.3608 3702.75,76.7728 159.449,76.7728 143.321,78.3608 127.811,83.0668 113.517,90.7068 100.989,100.989 90.7068,113.517 83.0668,127.811 78.3608,143.321 76.7728,159.449 76.7728,7639.76" style="stroke:rgb(103,198,105);stroke-width:157.480315;fill:none;stroke-opacity:0.5;stroke-linecap:round;stroke-linejoin:round;;fill:none"/>
<polyline points="76.7728,7639.76 78.3608,7655.89 83.0668,7671.4 90.7068,7685.69 100.989,7698.22 113.517,7708.5 127.811,7716.14 143.321,7720.85 159.449,7722.44 3702.75,7722.44 3718.88,7720.85 3734.39,7716.14 3748.69,7708.5 3761.21,7698.22 3771.5,7685.69 3779.14,7671.4 3783.84,7655.89 3785.43,7639.76 3785.43,159.449 3783.84,143.321 3779.14,127.811 3771.5,113.517 3761.21,100.989 3748.69,90.7068 3734.39,83.0668 3718.88,78.3608 3702.75,76.7728 159.449,76.7728 143.321,78.3608 127.811,83.0668 113.517,90.7068 100.989,100.989 90.7068,113.517 83.0668,127.811 78.3608,143.321 76.7728,159.449 76.7728,7639.76" style="stroke:rgb(0,0,0);stroke-width:1px;fill:none;stroke-opacity:1;stroke-linecap:round;stroke-linejoin:round;;fill:none"/>
</svg>
