%TF.GenerationSoftware,KiCad,Pcbnew,7.0.2*%
%TF.CreationDate,2023-06-04T09:33:39+01:00*%
%TF.ProjectId,SPI-Z80-BUS_ZXspectrum_impl,5350492d-5a38-4302-9d42-55535f5a5873,rev?*%
%TF.SameCoordinates,PX3473bc0PY19bfcc0*%
%TF.FileFunction,Copper,L1,Top*%
%TF.FilePolarity,Positive*%
%FSLAX46Y46*%
G04 Gerber Fmt 4.6, Leading zero omitted, Abs format (unit mm)*
G04 Created by KiCad (PCBNEW 7.0.2) date 2023-06-04 09:33:39*
%MOMM*%
%LPD*%
G01*
G04 APERTURE LIST*
%TA.AperFunction,ComponentPad*%
%ADD10R,1.700000X1.700000*%
%TD*%
%TA.AperFunction,ComponentPad*%
%ADD11O,1.700000X1.700000*%
%TD*%
%TA.AperFunction,ComponentPad*%
%ADD12R,1.600000X1.600000*%
%TD*%
%TA.AperFunction,ComponentPad*%
%ADD13O,1.600000X1.600000*%
%TD*%
%TA.AperFunction,ComponentPad*%
%ADD14R,2.000000X2.000000*%
%TD*%
%TA.AperFunction,ComponentPad*%
%ADD15O,2.000000X2.000000*%
%TD*%
%TA.AperFunction,ComponentPad*%
%ADD16C,1.600000*%
%TD*%
%TA.AperFunction,ViaPad*%
%ADD17C,1.000000*%
%TD*%
%TA.AperFunction,Conductor*%
%ADD18C,0.400000*%
%TD*%
G04 APERTURE END LIST*
D10*
%TO.P,LOCAL_CONTROL1,1,Pin_1*%
%TO.N,/SPI-Z80-BUS/LOCAL_CONTROL.RD*%
X120000000Y-50000000D03*
D11*
%TO.P,LOCAL_CONTROL1,2,Pin_2*%
%TO.N,/SPI-Z80-BUS/LOCAL_CONTROL.WR*%
X122540000Y-50000000D03*
%TO.P,LOCAL_CONTROL1,3,Pin_3*%
%TO.N,/SPI-Z80-BUS/LOCAL_CONTROL.IORQ*%
X125080000Y-50000000D03*
%TO.P,LOCAL_CONTROL1,4,Pin_4*%
%TO.N,/SPI-Z80-BUS/LOCAL_CONTROL.MEMRQ*%
X127620000Y-50000000D03*
%TD*%
D12*
%TO.P,ZX80_CONTROL.RD1,1,~{PL}*%
%TO.N,/SPI-Z80-BUS/ESP_SPI_INT.PL*%
X52220000Y-48635000D03*
D13*
%TO.P,ZX80_CONTROL.RD1,2,CP*%
%TO.N,/SPI-Z80-BUS/ESP_SPI_INT.SCK*%
X54760000Y-48635000D03*
%TO.P,ZX80_CONTROL.RD1,3,D4*%
%TO.N,/SPI-Z80-BUS/Z80_CONTROL.BUSRQ*%
X57300000Y-48635000D03*
%TO.P,ZX80_CONTROL.RD1,4,D5*%
%TO.N,/SPI-Z80-BUS/Z80_CONTROL.WAIT*%
X59840000Y-48635000D03*
%TO.P,ZX80_CONTROL.RD1,5,D6*%
%TO.N,/SPI-Z80-BUS/Z80_CONTROL.BUSACK*%
X62380000Y-48635000D03*
%TO.P,ZX80_CONTROL.RD1,6,D7*%
%TO.N,/SPI-Z80-BUS/Z80_CONTROL.NMI*%
X64920000Y-48635000D03*
%TO.P,ZX80_CONTROL.RD1,7,~{Q7}*%
%TO.N,Net-(LOCAL_A-L.RD1-DS)*%
X67460000Y-48635000D03*
%TO.P,ZX80_CONTROL.RD1,8,GND*%
%TO.N,GND*%
X70000000Y-48635000D03*
%TO.P,ZX80_CONTROL.RD1,9,Q7*%
%TO.N,unconnected-(ZX80_CONTROL.RD1-Q7-Pad9)*%
X70000000Y-41015000D03*
%TO.P,ZX80_CONTROL.RD1,10,DS*%
%TO.N,Net-(LOCAL_D.RD1-~{Q7})*%
X67460000Y-41015000D03*
%TO.P,ZX80_CONTROL.RD1,11,D0*%
%TO.N,/SPI-Z80-BUS/Z80_CONTROL.RD*%
X64920000Y-41015000D03*
%TO.P,ZX80_CONTROL.RD1,12,D1*%
%TO.N,/SPI-Z80-BUS/Z80_CONTROL.WR*%
X62380000Y-41015000D03*
%TO.P,ZX80_CONTROL.RD1,13,D2*%
%TO.N,/SPI-Z80-BUS/Z80_CONTROL.IORQ*%
X59840000Y-41015000D03*
%TO.P,ZX80_CONTROL.RD1,14,D3*%
%TO.N,/SPI-Z80-BUS/Z80_CONTROL.MEMRQ*%
X57300000Y-41015000D03*
%TO.P,ZX80_CONTROL.RD1,15,~{CE}*%
%TO.N,/SPI-Z80-BUS/ESP_SPI_INT.CE*%
X54760000Y-41015000D03*
%TO.P,ZX80_CONTROL.RD1,16,VCC*%
%TO.N,+5V*%
X52220000Y-41015000D03*
%TD*%
D14*
%TO.P,D5,1,K*%
%TO.N,/SPI-Z80-BUS/ESP_CONTROL.ROMCS*%
X105000000Y-39920000D03*
D15*
%TO.P,D5,2,A*%
%TO.N,/SPI-Z80-BUS/Z80_CONTROL.ROMCS*%
X105000000Y-45000000D03*
%TD*%
D12*
%TO.P,IC1,1*%
%TO.N,/SPI-Z80-BUS/ESP_PULSE*%
X19375000Y-49800000D03*
D13*
%TO.P,IC1,2*%
%TO.N,/SPI-Z80-BUS/ESP_CONTROL.WR*%
X21915000Y-49800000D03*
%TO.P,IC1,3*%
%TO.N,Net-(CONTROL.SELECT1-1A1)*%
X24455000Y-49800000D03*
%TO.P,IC1,4*%
%TO.N,GND*%
X26995000Y-49800000D03*
%TO.P,IC1,5*%
X29535000Y-49800000D03*
%TO.P,IC1,6*%
%TO.N,unconnected-(IC1-Pad6)*%
X32075000Y-49800000D03*
%TO.P,IC1,7,GND*%
%TO.N,GND*%
X34615000Y-49800000D03*
%TO.P,IC1,8*%
%TO.N,unconnected-(IC1-Pad8)*%
X34615000Y-42180000D03*
%TO.P,IC1,9*%
%TO.N,GND*%
X32075000Y-42180000D03*
%TO.P,IC1,10*%
X29535000Y-42180000D03*
%TO.P,IC1,11*%
%TO.N,unconnected-(IC1-Pad11)*%
X26995000Y-42180000D03*
%TO.P,IC1,12*%
%TO.N,GND*%
X24455000Y-42180000D03*
%TO.P,IC1,13*%
X21915000Y-42180000D03*
%TO.P,IC1,14,VCC*%
%TO.N,+5V*%
X19375000Y-42180000D03*
%TD*%
D10*
%TO.P,J6,1,Pin_1*%
%TO.N,/SPI-Z80-BUS/LOCAL_A0*%
X120000000Y-12000000D03*
D11*
%TO.P,J6,2,Pin_2*%
%TO.N,/SPI-Z80-BUS/LOCAL_A1*%
X120000000Y-14540000D03*
%TO.P,J6,3,Pin_3*%
%TO.N,/SPI-Z80-BUS/LOCAL_A2*%
X120000000Y-17080000D03*
%TO.P,J6,4,Pin_4*%
%TO.N,/SPI-Z80-BUS/LOCAL_A3*%
X120000000Y-19620000D03*
%TO.P,J6,5,Pin_5*%
%TO.N,/SPI-Z80-BUS/LOCAL_A4*%
X120000000Y-22160000D03*
%TO.P,J6,6,Pin_6*%
%TO.N,/SPI-Z80-BUS/LOCAL_A5*%
X120000000Y-24700000D03*
%TO.P,J6,7,Pin_7*%
%TO.N,/SPI-Z80-BUS/LOCAL_A6*%
X120000000Y-27240000D03*
%TO.P,J6,8,Pin_8*%
%TO.N,/SPI-Z80-BUS/LOCAL_A7*%
X120000000Y-29780000D03*
%TD*%
D14*
%TO.P,D3,1,K*%
%TO.N,/SPI-Z80-BUS/ESP_CONTROL.BUSRQ*%
X97000000Y-40000000D03*
D15*
%TO.P,D3,2,A*%
%TO.N,/SPI-Z80-BUS/Z80_CONTROL.BUSRQ*%
X97000000Y-45080000D03*
%TD*%
D12*
%TO.P,RN1,1,common*%
%TO.N,Net-(D7-K)*%
X143000000Y-42000000D03*
D13*
%TO.P,RN1,2,R1*%
%TO.N,/SPI-Z80-BUS/LOCAL_CONTROL.MEMRQ*%
X140460000Y-42000000D03*
%TO.P,RN1,3,R2*%
%TO.N,/SPI-Z80-BUS/LOCAL_CONTROL.IORQ*%
X137920000Y-42000000D03*
%TO.P,RN1,4,R3*%
%TO.N,/SPI-Z80-BUS/LOCAL_CONTROL.WR*%
X135380000Y-42000000D03*
%TO.P,RN1,5,R4*%
%TO.N,/SPI-Z80-BUS/LOCAL_CONTROL.RD*%
X132840000Y-42000000D03*
%TO.P,RN1,6,R5*%
%TO.N,unconnected-(RN1-R5-Pad6)*%
X130300000Y-42000000D03*
%TO.P,RN1,7,R6*%
%TO.N,unconnected-(RN1-R6-Pad7)*%
X127760000Y-42000000D03*
%TO.P,RN1,8,R7*%
%TO.N,unconnected-(RN1-R7-Pad8)*%
X125220000Y-42000000D03*
%TO.P,RN1,9,R8*%
%TO.N,unconnected-(RN1-R8-Pad9)*%
X122680000Y-42000000D03*
%TD*%
D14*
%TO.P,D7,1,K*%
%TO.N,Net-(D7-K)*%
X143460000Y-47000000D03*
D15*
%TO.P,D7,2,A*%
%TO.N,+5V*%
X148540000Y-47000000D03*
%TD*%
D14*
%TO.P,D1,1,K*%
%TO.N,Net-(D1-K)*%
X88000000Y-8000000D03*
D15*
%TO.P,D1,2,A*%
%TO.N,+5V*%
X93080000Y-8000000D03*
%TD*%
D12*
%TO.P,LOCAL_D.WR1,1,QB*%
%TO.N,/SPI-Z80-BUS/LOCAL_D1*%
X13260000Y-15000000D03*
D13*
%TO.P,LOCAL_D.WR1,2,QC*%
%TO.N,/SPI-Z80-BUS/LOCAL_D2*%
X15800000Y-15000000D03*
%TO.P,LOCAL_D.WR1,3,QD*%
%TO.N,/SPI-Z80-BUS/LOCAL_D3*%
X18340000Y-15000000D03*
%TO.P,LOCAL_D.WR1,4,QE*%
%TO.N,/SPI-Z80-BUS/LOCAL_D4*%
X20880000Y-15000000D03*
%TO.P,LOCAL_D.WR1,5,QF*%
%TO.N,/SPI-Z80-BUS/LOCAL_D5*%
X23420000Y-15000000D03*
%TO.P,LOCAL_D.WR1,6,QG*%
%TO.N,/SPI-Z80-BUS/LOCAL_D6*%
X25960000Y-15000000D03*
%TO.P,LOCAL_D.WR1,7,QH*%
%TO.N,/SPI-Z80-BUS/LOCAL_D7*%
X28500000Y-15000000D03*
%TO.P,LOCAL_D.WR1,8,GND*%
%TO.N,GND*%
X31040000Y-15000000D03*
%TO.P,LOCAL_D.WR1,9,QH'*%
%TO.N,Net-(ESP_CONTROL.WR1-SER)*%
X31040000Y-7380000D03*
%TO.P,LOCAL_D.WR1,10,~{SRCLR}*%
%TO.N,/SPI-Z80-BUS/ESP_SPI_INT.MR*%
X28500000Y-7380000D03*
%TO.P,LOCAL_D.WR1,11,SRCLK*%
%TO.N,/SPI-Z80-BUS/ESP_SPI_INT.SCK*%
X25960000Y-7380000D03*
%TO.P,LOCAL_D.WR1,12,RCLK*%
%TO.N,/SPI-Z80-BUS/ESP_SPI_INT.STC*%
X23420000Y-7380000D03*
%TO.P,LOCAL_D.WR1,13,~{OE}*%
%TO.N,/SPI-Z80-BUS/ESP_CONTROL.WR*%
X20880000Y-7380000D03*
%TO.P,LOCAL_D.WR1,14,SER*%
%TO.N,/SPI-Z80-BUS/ESP_SPI_INT.MOSI*%
X18340000Y-7380000D03*
%TO.P,LOCAL_D.WR1,15,QA*%
%TO.N,/SPI-Z80-BUS/LOCAL_D0*%
X15800000Y-7380000D03*
%TO.P,LOCAL_D.WR1,16,VCC*%
%TO.N,+5V*%
X13260000Y-7380000D03*
%TD*%
D12*
%TO.P,LOCAL_D.RD1,1,~{PL}*%
%TO.N,/SPI-Z80-BUS/ESP_SPI_INT.PL*%
X13220000Y-30500000D03*
D13*
%TO.P,LOCAL_D.RD1,2,CP*%
%TO.N,/SPI-Z80-BUS/ESP_SPI_INT.SCK*%
X15760000Y-30500000D03*
%TO.P,LOCAL_D.RD1,3,D4*%
%TO.N,/SPI-Z80-BUS/LOCAL_D4*%
X18300000Y-30500000D03*
%TO.P,LOCAL_D.RD1,4,D5*%
%TO.N,/SPI-Z80-BUS/LOCAL_D5*%
X20840000Y-30500000D03*
%TO.P,LOCAL_D.RD1,5,D6*%
%TO.N,/SPI-Z80-BUS/LOCAL_D6*%
X23380000Y-30500000D03*
%TO.P,LOCAL_D.RD1,6,D7*%
%TO.N,/SPI-Z80-BUS/LOCAL_D7*%
X25920000Y-30500000D03*
%TO.P,LOCAL_D.RD1,7,~{Q7}*%
%TO.N,Net-(LOCAL_D.RD1-~{Q7})*%
X28460000Y-30500000D03*
%TO.P,LOCAL_D.RD1,8,GND*%
%TO.N,GND*%
X31000000Y-30500000D03*
%TO.P,LOCAL_D.RD1,9,Q7*%
%TO.N,unconnected-(LOCAL_D.RD1-Q7-Pad9)*%
X31000000Y-22880000D03*
%TO.P,LOCAL_D.RD1,10,DS*%
%TO.N,GND*%
X28460000Y-22880000D03*
%TO.P,LOCAL_D.RD1,11,D0*%
%TO.N,/SPI-Z80-BUS/LOCAL_D0*%
X25920000Y-22880000D03*
%TO.P,LOCAL_D.RD1,12,D1*%
%TO.N,/SPI-Z80-BUS/LOCAL_D1*%
X23380000Y-22880000D03*
%TO.P,LOCAL_D.RD1,13,D2*%
%TO.N,/SPI-Z80-BUS/LOCAL_D2*%
X20840000Y-22880000D03*
%TO.P,LOCAL_D.RD1,14,D3*%
%TO.N,/SPI-Z80-BUS/LOCAL_D3*%
X18300000Y-22880000D03*
%TO.P,LOCAL_D.RD1,15,~{CE}*%
%TO.N,/SPI-Z80-BUS/ESP_SPI_INT.CE*%
X15760000Y-22880000D03*
%TO.P,LOCAL_D.RD1,16,VCC*%
%TO.N,+5V*%
X13220000Y-22880000D03*
%TD*%
D12*
%TO.P,ESP_CONTROL.WR1,1,QB*%
%TO.N,/SPI-Z80-BUS/ESP_CONTROL.WR*%
X52220000Y-15635000D03*
D13*
%TO.P,ESP_CONTROL.WR1,2,QC*%
%TO.N,/SPI-Z80-BUS/ESP_CONTROL.IORQ*%
X54760000Y-15635000D03*
%TO.P,ESP_CONTROL.WR1,3,QD*%
%TO.N,/SPI-Z80-BUS/ESP_CONTROL.MEMRQ*%
X57300000Y-15635000D03*
%TO.P,ESP_CONTROL.WR1,4,QE*%
%TO.N,/SPI-Z80-BUS/ESP_CONTROL.BUSRQ*%
X59840000Y-15635000D03*
%TO.P,ESP_CONTROL.WR1,5,QF*%
%TO.N,/SPI-Z80-BUS/ESP_CONTROL.WAIT*%
X62380000Y-15635000D03*
%TO.P,ESP_CONTROL.WR1,6,QG*%
%TO.N,/SPI-Z80-BUS/ESP_CONTROL.ROMCS*%
X64920000Y-15635000D03*
%TO.P,ESP_CONTROL.WR1,7,QH*%
%TO.N,/SPI-Z80-BUS/ESP_CONTROL.NMI*%
X67460000Y-15635000D03*
%TO.P,ESP_CONTROL.WR1,8,GND*%
%TO.N,GND*%
X70000000Y-15635000D03*
%TO.P,ESP_CONTROL.WR1,9,QH'*%
%TO.N,Net-(ESP_CONTROL.WR1-QH')*%
X70000000Y-8015000D03*
%TO.P,ESP_CONTROL.WR1,10,~{SRCLR}*%
%TO.N,/SPI-Z80-BUS/ESP_SPI_INT.MR*%
X67460000Y-8015000D03*
%TO.P,ESP_CONTROL.WR1,11,SRCLK*%
%TO.N,/SPI-Z80-BUS/ESP_SPI_INT.SCK*%
X64920000Y-8015000D03*
%TO.P,ESP_CONTROL.WR1,12,RCLK*%
%TO.N,/SPI-Z80-BUS/ESP_SPI_INT.STC*%
X62380000Y-8015000D03*
%TO.P,ESP_CONTROL.WR1,13,~{OE}*%
%TO.N,/SPI-Z80-BUS/ESP_SPI_INT.OE*%
X59840000Y-8015000D03*
%TO.P,ESP_CONTROL.WR1,14,SER*%
%TO.N,Net-(ESP_CONTROL.WR1-SER)*%
X57300000Y-8015000D03*
%TO.P,ESP_CONTROL.WR1,15,QA*%
%TO.N,/SPI-Z80-BUS/ESP_CONTROL.RD*%
X54760000Y-8015000D03*
%TO.P,ESP_CONTROL.WR1,16,VCC*%
%TO.N,+5V*%
X52220000Y-8015000D03*
%TD*%
D10*
%TO.P,J3,1,Pin_1*%
%TO.N,/SPI-Z80-BUS/ESP_SPI_INT.MOSI*%
X4000000Y-12000000D03*
D11*
%TO.P,J3,2,Pin_2*%
%TO.N,/SPI-Z80-BUS/ESP_SPI_INT.MISO*%
X4000000Y-14540000D03*
%TO.P,J3,3,Pin_3*%
%TO.N,/SPI-Z80-BUS/ESP_SPI_INT.SCK*%
X4000000Y-17080000D03*
%TO.P,J3,4,Pin_4*%
%TO.N,/SPI-Z80-BUS/ESP_SPI_INT.STC*%
X4000000Y-19620000D03*
%TO.P,J3,5,Pin_5*%
%TO.N,/SPI-Z80-BUS/ESP_SPI_INT.PL*%
X4000000Y-22160000D03*
%TO.P,J3,6,Pin_6*%
%TO.N,/SPI-Z80-BUS/ESP_SPI_INT.CE*%
X4000000Y-24700000D03*
%TO.P,J3,7,Pin_7*%
%TO.N,/SPI-Z80-BUS/ESP_SPI_INT.OE*%
X4000000Y-27240000D03*
%TO.P,J3,8,Pin_8*%
%TO.N,/SPI-Z80-BUS/ESP_SPI_INT.MR*%
X4000000Y-29780000D03*
%TD*%
D12*
%TO.P,CONTROL.SELECT1,1,1OE*%
%TO.N,/SPI-Z80-BUS/ESP_CONTROL.BUSRQ*%
X52000000Y-31620000D03*
D13*
%TO.P,CONTROL.SELECT1,2,1A0*%
%TO.N,/SPI-Z80-BUS/ESP_CONTROL.RD*%
X54540000Y-31620000D03*
%TO.P,CONTROL.SELECT1,3,2Y0*%
%TO.N,/SPI-Z80-BUS/Z80_CONTROL.RD*%
X57080000Y-31620000D03*
%TO.P,CONTROL.SELECT1,4,1A1*%
%TO.N,Net-(CONTROL.SELECT1-1A1)*%
X59620000Y-31620000D03*
%TO.P,CONTROL.SELECT1,5,2Y1*%
%TO.N,/SPI-Z80-BUS/Z80_CONTROL.WR*%
X62160000Y-31620000D03*
%TO.P,CONTROL.SELECT1,6,1A2*%
%TO.N,/SPI-Z80-BUS/ESP_CONTROL.IORQ*%
X64700000Y-31620000D03*
%TO.P,CONTROL.SELECT1,7,2Y2*%
%TO.N,/SPI-Z80-BUS/Z80_CONTROL.IORQ*%
X67240000Y-31620000D03*
%TO.P,CONTROL.SELECT1,8,1A3*%
%TO.N,/SPI-Z80-BUS/ESP_CONTROL.MEMRQ*%
X69780000Y-31620000D03*
%TO.P,CONTROL.SELECT1,9,2Y3*%
%TO.N,/SPI-Z80-BUS/Z80_CONTROL.MEMRQ*%
X72320000Y-31620000D03*
%TO.P,CONTROL.SELECT1,10,GND*%
%TO.N,GND*%
X74860000Y-31620000D03*
%TO.P,CONTROL.SELECT1,11,2A3*%
%TO.N,/SPI-Z80-BUS/ESP_CONTROL.MEMRQ*%
X74860000Y-24000000D03*
%TO.P,CONTROL.SELECT1,12,1Y3*%
%TO.N,/SPI-Z80-BUS/LOCAL_CONTROL.MEMRQ*%
X72320000Y-24000000D03*
%TO.P,CONTROL.SELECT1,13,2A2*%
%TO.N,/SPI-Z80-BUS/ESP_CONTROL.IORQ*%
X69780000Y-24000000D03*
%TO.P,CONTROL.SELECT1,14,1Y2*%
%TO.N,/SPI-Z80-BUS/LOCAL_CONTROL.IORQ*%
X67240000Y-24000000D03*
%TO.P,CONTROL.SELECT1,15,2A1*%
%TO.N,Net-(CONTROL.SELECT1-1A1)*%
X64700000Y-24000000D03*
%TO.P,CONTROL.SELECT1,16,1Y1*%
%TO.N,/SPI-Z80-BUS/LOCAL_CONTROL.WR*%
X62160000Y-24000000D03*
%TO.P,CONTROL.SELECT1,17,2A0*%
%TO.N,/SPI-Z80-BUS/ESP_CONTROL.RD*%
X59620000Y-24000000D03*
%TO.P,CONTROL.SELECT1,18,1Y0*%
%TO.N,/SPI-Z80-BUS/LOCAL_CONTROL.RD*%
X57080000Y-24000000D03*
%TO.P,CONTROL.SELECT1,19,2OE*%
%TO.N,/SPI-Z80-BUS/!ESP_HARDLOCK*%
X54540000Y-24000000D03*
%TO.P,CONTROL.SELECT1,20,VCC*%
%TO.N,+5V*%
X52000000Y-24000000D03*
%TD*%
D14*
%TO.P,D4,1,K*%
%TO.N,/SPI-Z80-BUS/ESP_CONTROL.WAIT*%
X101000000Y-40000000D03*
D15*
%TO.P,D4,2,A*%
%TO.N,/SPI-Z80-BUS/Z80_CONTROL.WAIT*%
X101000000Y-45080000D03*
%TD*%
D10*
%TO.P,J1,1,Pin_1*%
%TO.N,+5V*%
X4000000Y-50000000D03*
D11*
%TO.P,J1,2,Pin_2*%
%TO.N,/SPI-Z80-BUS/ESP_PULSE*%
X6540000Y-50000000D03*
%TO.P,J1,3,Pin_3*%
%TO.N,/SPI-Z80-BUS/!ESP_HARDLOCK*%
X9080000Y-50000000D03*
%TO.P,J1,4,Pin_4*%
%TO.N,GND*%
X11620000Y-50000000D03*
%TD*%
D10*
%TO.P,J7,1,Pin_1*%
%TO.N,/SPI-Z80-BUS/LOCAL_A8*%
X150000000Y-12000000D03*
D11*
%TO.P,J7,2,Pin_2*%
%TO.N,/SPI-Z80-BUS/LOCAL_A9*%
X150000000Y-14540000D03*
%TO.P,J7,3,Pin_3*%
%TO.N,/SPI-Z80-BUS/LOCAL_A10*%
X150000000Y-17080000D03*
%TO.P,J7,4,Pin_4*%
%TO.N,/SPI-Z80-BUS/LOCAL_A11*%
X150000000Y-19620000D03*
%TO.P,J7,5,Pin_5*%
%TO.N,/SPI-Z80-BUS/LOCAL_A12*%
X150000000Y-22160000D03*
%TO.P,J7,6,Pin_6*%
%TO.N,/SPI-Z80-BUS/LOCAL_A13*%
X150000000Y-24700000D03*
%TO.P,J7,7,Pin_7*%
%TO.N,/SPI-Z80-BUS/LOCAL_A14*%
X150000000Y-27240000D03*
%TO.P,J7,8,Pin_8*%
%TO.N,/SPI-Z80-BUS/LOCAL_A15*%
X150000000Y-29780000D03*
%TD*%
D12*
%TO.P,LOCAL_ADDR-H.WR1,1,QB*%
%TO.N,/SPI-Z80-BUS/LOCAL_A9*%
X126220000Y-14620000D03*
D13*
%TO.P,LOCAL_ADDR-H.WR1,2,QC*%
%TO.N,/SPI-Z80-BUS/LOCAL_A10*%
X128760000Y-14620000D03*
%TO.P,LOCAL_ADDR-H.WR1,3,QD*%
%TO.N,/SPI-Z80-BUS/LOCAL_A11*%
X131300000Y-14620000D03*
%TO.P,LOCAL_ADDR-H.WR1,4,QE*%
%TO.N,/SPI-Z80-BUS/LOCAL_A12*%
X133840000Y-14620000D03*
%TO.P,LOCAL_ADDR-H.WR1,5,QF*%
%TO.N,/SPI-Z80-BUS/LOCAL_A13*%
X136380000Y-14620000D03*
%TO.P,LOCAL_ADDR-H.WR1,6,QG*%
%TO.N,/SPI-Z80-BUS/LOCAL_A14*%
X138920000Y-14620000D03*
%TO.P,LOCAL_ADDR-H.WR1,7,QH*%
%TO.N,/SPI-Z80-BUS/LOCAL_A15*%
X141460000Y-14620000D03*
%TO.P,LOCAL_ADDR-H.WR1,8,GND*%
%TO.N,GND*%
X144000000Y-14620000D03*
%TO.P,LOCAL_ADDR-H.WR1,9,QH'*%
%TO.N,unconnected-(LOCAL_ADDR-H.WR1-QH'-Pad9)*%
X144000000Y-7000000D03*
%TO.P,LOCAL_ADDR-H.WR1,10,~{SRCLR}*%
%TO.N,/SPI-Z80-BUS/ESP_SPI_INT.MR*%
X141460000Y-7000000D03*
%TO.P,LOCAL_ADDR-H.WR1,11,SRCLK*%
%TO.N,/SPI-Z80-BUS/ESP_SPI_INT.SCK*%
X138920000Y-7000000D03*
%TO.P,LOCAL_ADDR-H.WR1,12,RCLK*%
%TO.N,/SPI-Z80-BUS/ESP_SPI_INT.STC*%
X136380000Y-7000000D03*
%TO.P,LOCAL_ADDR-H.WR1,13,~{OE}*%
%TO.N,/SPI-Z80-BUS/ESP_SPI_INT.OE*%
X133840000Y-7000000D03*
%TO.P,LOCAL_ADDR-H.WR1,14,SER*%
%TO.N,Net-(LOCAL_ADDR-H.WR1-SER)*%
X131300000Y-7000000D03*
%TO.P,LOCAL_ADDR-H.WR1,15,QA*%
%TO.N,/SPI-Z80-BUS/LOCAL_A8*%
X128760000Y-7000000D03*
%TO.P,LOCAL_ADDR-H.WR1,16,VCC*%
%TO.N,+5V*%
X126220000Y-7000000D03*
%TD*%
D12*
%TO.P,LOCAL_ADDR-L.WR1,1,QB*%
%TO.N,/SPI-Z80-BUS/LOCAL_A1*%
X96220000Y-15000000D03*
D13*
%TO.P,LOCAL_ADDR-L.WR1,2,QC*%
%TO.N,/SPI-Z80-BUS/LOCAL_A2*%
X98760000Y-15000000D03*
%TO.P,LOCAL_ADDR-L.WR1,3,QD*%
%TO.N,/SPI-Z80-BUS/LOCAL_A3*%
X101300000Y-15000000D03*
%TO.P,LOCAL_ADDR-L.WR1,4,QE*%
%TO.N,/SPI-Z80-BUS/LOCAL_A4*%
X103840000Y-15000000D03*
%TO.P,LOCAL_ADDR-L.WR1,5,QF*%
%TO.N,/SPI-Z80-BUS/LOCAL_A5*%
X106380000Y-15000000D03*
%TO.P,LOCAL_ADDR-L.WR1,6,QG*%
%TO.N,/SPI-Z80-BUS/LOCAL_A6*%
X108920000Y-15000000D03*
%TO.P,LOCAL_ADDR-L.WR1,7,QH*%
%TO.N,/SPI-Z80-BUS/LOCAL_A7*%
X111460000Y-15000000D03*
%TO.P,LOCAL_ADDR-L.WR1,8,GND*%
%TO.N,GND*%
X114000000Y-15000000D03*
%TO.P,LOCAL_ADDR-L.WR1,9,QH'*%
%TO.N,Net-(LOCAL_ADDR-H.WR1-SER)*%
X114000000Y-7380000D03*
%TO.P,LOCAL_ADDR-L.WR1,10,~{SRCLR}*%
%TO.N,/SPI-Z80-BUS/ESP_SPI_INT.MR*%
X111460000Y-7380000D03*
%TO.P,LOCAL_ADDR-L.WR1,11,SRCLK*%
%TO.N,/SPI-Z80-BUS/ESP_SPI_INT.SCK*%
X108920000Y-7380000D03*
%TO.P,LOCAL_ADDR-L.WR1,12,RCLK*%
%TO.N,/SPI-Z80-BUS/ESP_SPI_INT.STC*%
X106380000Y-7380000D03*
%TO.P,LOCAL_ADDR-L.WR1,13,~{OE}*%
%TO.N,/SPI-Z80-BUS/ESP_SPI_INT.OE*%
X103840000Y-7380000D03*
%TO.P,LOCAL_ADDR-L.WR1,14,SER*%
%TO.N,Net-(ESP_CONTROL.WR1-QH')*%
X101300000Y-7380000D03*
%TO.P,LOCAL_ADDR-L.WR1,15,QA*%
%TO.N,/SPI-Z80-BUS/LOCAL_A0*%
X98760000Y-7380000D03*
%TO.P,LOCAL_ADDR-L.WR1,16,VCC*%
%TO.N,+5V*%
X96220000Y-7380000D03*
%TD*%
D14*
%TO.P,D6,1,K*%
%TO.N,/SPI-Z80-BUS/ESP_CONTROL.NMI*%
X109000000Y-39920000D03*
D15*
%TO.P,D6,2,A*%
%TO.N,/SPI-Z80-BUS/Z80_CONTROL.NMI*%
X109000000Y-45000000D03*
%TD*%
D12*
%TO.P,LOCAL_A-H.RD1,1,~{PL}*%
%TO.N,/SPI-Z80-BUS/ESP_SPI_INT.PL*%
X126220000Y-30000000D03*
D13*
%TO.P,LOCAL_A-H.RD1,2,CP*%
%TO.N,/SPI-Z80-BUS/ESP_SPI_INT.SCK*%
X128760000Y-30000000D03*
%TO.P,LOCAL_A-H.RD1,3,D4*%
%TO.N,/SPI-Z80-BUS/LOCAL_A12*%
X131300000Y-30000000D03*
%TO.P,LOCAL_A-H.RD1,4,D5*%
%TO.N,/SPI-Z80-BUS/LOCAL_A13*%
X133840000Y-30000000D03*
%TO.P,LOCAL_A-H.RD1,5,D6*%
%TO.N,/SPI-Z80-BUS/LOCAL_A14*%
X136380000Y-30000000D03*
%TO.P,LOCAL_A-H.RD1,6,D7*%
%TO.N,/SPI-Z80-BUS/LOCAL_A15*%
X138920000Y-30000000D03*
%TO.P,LOCAL_A-H.RD1,7,~{Q7}*%
%TO.N,/SPI-Z80-BUS/ESP_SPI_INT.MISO*%
X141460000Y-30000000D03*
%TO.P,LOCAL_A-H.RD1,8,GND*%
%TO.N,GND*%
X144000000Y-30000000D03*
%TO.P,LOCAL_A-H.RD1,9,Q7*%
%TO.N,unconnected-(LOCAL_A-H.RD1-Q7-Pad9)*%
X144000000Y-22380000D03*
%TO.P,LOCAL_A-H.RD1,10,DS*%
%TO.N,Net-(LOCAL_A-H.RD1-DS)*%
X141460000Y-22380000D03*
%TO.P,LOCAL_A-H.RD1,11,D0*%
%TO.N,/SPI-Z80-BUS/LOCAL_A8*%
X138920000Y-22380000D03*
%TO.P,LOCAL_A-H.RD1,12,D1*%
%TO.N,/SPI-Z80-BUS/LOCAL_A9*%
X136380000Y-22380000D03*
%TO.P,LOCAL_A-H.RD1,13,D2*%
%TO.N,/SPI-Z80-BUS/LOCAL_A10*%
X133840000Y-22380000D03*
%TO.P,LOCAL_A-H.RD1,14,D3*%
%TO.N,/SPI-Z80-BUS/LOCAL_A11*%
X131300000Y-22380000D03*
%TO.P,LOCAL_A-H.RD1,15,~{CE}*%
%TO.N,/SPI-Z80-BUS/ESP_SPI_INT.CE*%
X128760000Y-22380000D03*
%TO.P,LOCAL_A-H.RD1,16,VCC*%
%TO.N,+5V*%
X126220000Y-22380000D03*
%TD*%
D12*
%TO.P,ESP_CONTROL.Bias1,1,common*%
%TO.N,Net-(D1-K)*%
X84000000Y-9000000D03*
D13*
%TO.P,ESP_CONTROL.Bias1,2,R1*%
%TO.N,/SPI-Z80-BUS/ESP_CONTROL.RD*%
X84000000Y-11540000D03*
%TO.P,ESP_CONTROL.Bias1,3,R2*%
%TO.N,/SPI-Z80-BUS/ESP_CONTROL.WR*%
X84000000Y-14080000D03*
%TO.P,ESP_CONTROL.Bias1,4,R3*%
%TO.N,/SPI-Z80-BUS/ESP_CONTROL.IORQ*%
X84000000Y-16620000D03*
%TO.P,ESP_CONTROL.Bias1,5,R4*%
%TO.N,/SPI-Z80-BUS/ESP_CONTROL.MEMRQ*%
X84000000Y-19160000D03*
%TO.P,ESP_CONTROL.Bias1,6,R5*%
%TO.N,/SPI-Z80-BUS/ESP_CONTROL.BUSRQ*%
X84000000Y-21700000D03*
%TO.P,ESP_CONTROL.Bias1,7,R6*%
%TO.N,/SPI-Z80-BUS/ESP_CONTROL.WAIT*%
X84000000Y-24240000D03*
%TO.P,ESP_CONTROL.Bias1,8,R7*%
%TO.N,/SPI-Z80-BUS/ESP_CONTROL.ROMCS*%
X84000000Y-26780000D03*
%TO.P,ESP_CONTROL.Bias1,9,R8*%
%TO.N,/SPI-Z80-BUS/ESP_CONTROL.NMI*%
X84000000Y-29320000D03*
%TD*%
D14*
%TO.P,D2,1,K*%
%TO.N,Net-(D2-K)*%
X43000000Y-8000000D03*
D15*
%TO.P,D2,2,A*%
%TO.N,+5V*%
X48080000Y-8000000D03*
%TD*%
D12*
%TO.P,LOCAL_A-L.RD1,1,~{PL}*%
%TO.N,/SPI-Z80-BUS/ESP_SPI_INT.PL*%
X96220000Y-30000000D03*
D13*
%TO.P,LOCAL_A-L.RD1,2,CP*%
%TO.N,/SPI-Z80-BUS/ESP_SPI_INT.SCK*%
X98760000Y-30000000D03*
%TO.P,LOCAL_A-L.RD1,3,D4*%
%TO.N,/SPI-Z80-BUS/LOCAL_A4*%
X101300000Y-30000000D03*
%TO.P,LOCAL_A-L.RD1,4,D5*%
%TO.N,/SPI-Z80-BUS/LOCAL_A5*%
X103840000Y-30000000D03*
%TO.P,LOCAL_A-L.RD1,5,D6*%
%TO.N,/SPI-Z80-BUS/LOCAL_A6*%
X106380000Y-30000000D03*
%TO.P,LOCAL_A-L.RD1,6,D7*%
%TO.N,/SPI-Z80-BUS/LOCAL_A7*%
X108920000Y-30000000D03*
%TO.P,LOCAL_A-L.RD1,7,~{Q7}*%
%TO.N,Net-(LOCAL_A-H.RD1-DS)*%
X111460000Y-30000000D03*
%TO.P,LOCAL_A-L.RD1,8,GND*%
%TO.N,GND*%
X114000000Y-30000000D03*
%TO.P,LOCAL_A-L.RD1,9,Q7*%
%TO.N,unconnected-(LOCAL_A-L.RD1-Q7-Pad9)*%
X114000000Y-22380000D03*
%TO.P,LOCAL_A-L.RD1,10,DS*%
%TO.N,Net-(LOCAL_A-L.RD1-DS)*%
X111460000Y-22380000D03*
%TO.P,LOCAL_A-L.RD1,11,D0*%
%TO.N,/SPI-Z80-BUS/LOCAL_A0*%
X108920000Y-22380000D03*
%TO.P,LOCAL_A-L.RD1,12,D1*%
%TO.N,/SPI-Z80-BUS/LOCAL_A1*%
X106380000Y-22380000D03*
%TO.P,LOCAL_A-L.RD1,13,D2*%
%TO.N,/SPI-Z80-BUS/LOCAL_A2*%
X103840000Y-22380000D03*
%TO.P,LOCAL_A-L.RD1,14,D3*%
%TO.N,/SPI-Z80-BUS/LOCAL_A3*%
X101300000Y-22380000D03*
%TO.P,LOCAL_A-L.RD1,15,~{CE}*%
%TO.N,/SPI-Z80-BUS/ESP_SPI_INT.CE*%
X98760000Y-22380000D03*
%TO.P,LOCAL_A-L.RD1,16,VCC*%
%TO.N,+5V*%
X96220000Y-22380000D03*
%TD*%
D10*
%TO.P,J2,1,Pin_1*%
%TO.N,/SPI-Z80-BUS/LOCAL_D0*%
X43000000Y-12000000D03*
D11*
%TO.P,J2,2,Pin_2*%
%TO.N,/SPI-Z80-BUS/LOCAL_D1*%
X43000000Y-14540000D03*
%TO.P,J2,3,Pin_3*%
%TO.N,/SPI-Z80-BUS/LOCAL_D2*%
X43000000Y-17080000D03*
%TO.P,J2,4,Pin_4*%
%TO.N,/SPI-Z80-BUS/LOCAL_D3*%
X43000000Y-19620000D03*
%TO.P,J2,5,Pin_5*%
%TO.N,/SPI-Z80-BUS/LOCAL_D4*%
X43000000Y-22160000D03*
%TO.P,J2,6,Pin_6*%
%TO.N,/SPI-Z80-BUS/LOCAL_D5*%
X43000000Y-24700000D03*
%TO.P,J2,7,Pin_7*%
%TO.N,/SPI-Z80-BUS/LOCAL_D6*%
X43000000Y-27240000D03*
%TO.P,J2,8,Pin_8*%
%TO.N,/SPI-Z80-BUS/LOCAL_D7*%
X43000000Y-29780000D03*
%TD*%
D10*
%TO.P,J5,1,Pin_1*%
%TO.N,/SPI-Z80-BUS/Z80_CONTROL.RD*%
X88000000Y-50000000D03*
D11*
%TO.P,J5,2,Pin_2*%
%TO.N,/SPI-Z80-BUS/Z80_CONTROL.WR*%
X90540000Y-50000000D03*
%TO.P,J5,3,Pin_3*%
%TO.N,/SPI-Z80-BUS/Z80_CONTROL.IORQ*%
X93080000Y-50000000D03*
%TO.P,J5,4,Pin_4*%
%TO.N,/SPI-Z80-BUS/Z80_CONTROL.MEMRQ*%
X95620000Y-50000000D03*
%TO.P,J5,5,Pin_5*%
%TO.N,/SPI-Z80-BUS/Z80_CONTROL.BUSRQ*%
X98160000Y-50000000D03*
%TO.P,J5,6,Pin_6*%
%TO.N,/SPI-Z80-BUS/Z80_CONTROL.WAIT*%
X100700000Y-50000000D03*
%TO.P,J5,7,Pin_7*%
%TO.N,/SPI-Z80-BUS/Z80_CONTROL.ROMCS*%
X103240000Y-50000000D03*
%TO.P,J5,8,Pin_8*%
%TO.N,/SPI-Z80-BUS/Z80_CONTROL.BUSACK*%
X105780000Y-50000000D03*
%TO.P,J5,9,Pin_9*%
%TO.N,/SPI-Z80-BUS/Z80_CONTROL.NMI*%
X108320000Y-50000000D03*
%TO.P,J5,10,Pin_10*%
%TO.N,/SPI-Z80-BUS/Z80_CONTROL.RESET*%
X110860000Y-50000000D03*
%TD*%
D16*
%TO.P,R1,1*%
%TO.N,/SPI-Z80-BUS/ESP_SPI_INT.MR*%
X4000000Y-41000000D03*
D13*
%TO.P,R1,2*%
%TO.N,+5V*%
X14160000Y-41000000D03*
%TD*%
D12*
%TO.P,LOCAL_D.Bias1,1,common*%
%TO.N,Net-(D2-K)*%
X39000000Y-9000000D03*
D13*
%TO.P,LOCAL_D.Bias1,2,R1*%
%TO.N,/SPI-Z80-BUS/LOCAL_D0*%
X39000000Y-11540000D03*
%TO.P,LOCAL_D.Bias1,3,R2*%
%TO.N,/SPI-Z80-BUS/LOCAL_D1*%
X39000000Y-14080000D03*
%TO.P,LOCAL_D.Bias1,4,R3*%
%TO.N,/SPI-Z80-BUS/LOCAL_D2*%
X39000000Y-16620000D03*
%TO.P,LOCAL_D.Bias1,5,R4*%
%TO.N,/SPI-Z80-BUS/LOCAL_D3*%
X39000000Y-19160000D03*
%TO.P,LOCAL_D.Bias1,6,R5*%
%TO.N,/SPI-Z80-BUS/LOCAL_D4*%
X39000000Y-21700000D03*
%TO.P,LOCAL_D.Bias1,7,R6*%
%TO.N,/SPI-Z80-BUS/LOCAL_D5*%
X39000000Y-24240000D03*
%TO.P,LOCAL_D.Bias1,8,R7*%
%TO.N,/SPI-Z80-BUS/LOCAL_D6*%
X39000000Y-26780000D03*
%TO.P,LOCAL_D.Bias1,9,R8*%
%TO.N,/SPI-Z80-BUS/LOCAL_D7*%
X39000000Y-29320000D03*
%TD*%
D10*
%TO.P,J4,1,Pin_1*%
%TO.N,/SPI-Z80-BUS/ESP_CONTROL.RD*%
X88000000Y-12000000D03*
D11*
%TO.P,J4,2,Pin_2*%
%TO.N,/SPI-Z80-BUS/ESP_CONTROL.WR*%
X88000000Y-14540000D03*
%TO.P,J4,3,Pin_3*%
%TO.N,/SPI-Z80-BUS/ESP_CONTROL.IORQ*%
X88000000Y-17080000D03*
%TO.P,J4,4,Pin_4*%
%TO.N,/SPI-Z80-BUS/ESP_CONTROL.MEMRQ*%
X88000000Y-19620000D03*
%TO.P,J4,5,Pin_5*%
%TO.N,/SPI-Z80-BUS/ESP_CONTROL.BUSRQ*%
X88000000Y-22160000D03*
%TO.P,J4,6,Pin_6*%
%TO.N,/SPI-Z80-BUS/ESP_CONTROL.WAIT*%
X88000000Y-24700000D03*
%TO.P,J4,7,Pin_7*%
%TO.N,/SPI-Z80-BUS/ESP_CONTROL.ROMCS*%
X88000000Y-27240000D03*
%TO.P,J4,8,Pin_8*%
%TO.N,/SPI-Z80-BUS/ESP_CONTROL.NMI*%
X88000000Y-29780000D03*
%TD*%
D17*
%TO.N,*%
X0Y0D03*
%TO.N,/SPI-Z80-BUS/ESP_CONTROL.BUSRQ*%
X76103100Y-16414800D03*
%TO.N,/SPI-Z80-BUS/ESP_CONTROL.RD*%
X70684000Y-19411500D03*
%TO.N,/SPI-Z80-BUS/Z80_CONTROL.RD*%
X58519200Y-39414800D03*
%TO.N,Net-(CONTROL.SELECT1-1A1)*%
X44516900Y-34996600D03*
X57690000Y-34996600D03*
%TO.N,/SPI-Z80-BUS/Z80_CONTROL.IORQ*%
X62903800Y-37740000D03*
X60303500Y-37957400D03*
%TO.N,/SPI-Z80-BUS/Z80_CONTROL.MEMRQ*%
X79447400Y-48667200D03*
%TO.N,GND*%
X34917600Y-24199700D03*
X74731700Y-45906500D03*
X115413700Y-10329700D03*
X81257200Y-39381000D03*
X123948900Y-12205500D03*
%TO.N,/SPI-Z80-BUS/LOCAL_CONTROL.MEMRQ*%
X88616600Y-36572600D03*
%TO.N,/SPI-Z80-BUS/LOCAL_CONTROL.IORQ*%
X91359200Y-41468900D03*
%TO.N,/SPI-Z80-BUS/LOCAL_CONTROL.RD*%
X62018600Y-26150000D03*
X84967300Y-39561400D03*
%TO.N,/SPI-Z80-BUS/!ESP_HARDLOCK*%
X34484100Y-47570700D03*
%TO.N,+5V*%
X52716300Y-12255800D03*
X79925000Y-8194100D03*
X53476300Y-26931500D03*
X106020100Y-10572900D03*
X127368500Y-26290600D03*
X145939900Y-29566600D03*
%TO.N,/SPI-Z80-BUS/ESP_CONTROL.ROMCS*%
X76878100Y-20219100D03*
%TO.N,/SPI-Z80-BUS/ESP_CONTROL.NMI*%
X97590400Y-37888500D03*
%TO.N,/SPI-Z80-BUS/ESP_CONTROL.WR*%
X50354700Y-20522300D03*
%TO.N,/SPI-Z80-BUS/ESP_SPI_INT.MR*%
X8487900Y-26085900D03*
X10026000Y-18547300D03*
%TO.N,/SPI-Z80-BUS/ESP_SPI_INT.SCK*%
X47675700Y-27395300D03*
X32906200Y-32033600D03*
X102615100Y-33389300D03*
X48041200Y-32337600D03*
%TO.N,/SPI-Z80-BUS/ESP_SPI_INT.STC*%
X62493900Y-4890000D03*
X71858500Y-5499400D03*
%TO.N,/SPI-Z80-BUS/ESP_SPI_INT.OE*%
X10289500Y-10098400D03*
X7115000Y-24831700D03*
%TO.N,/SPI-Z80-BUS/LOCAL_D1*%
X16275000Y-20410400D03*
%TO.N,/SPI-Z80-BUS/LOCAL_D2*%
X20655200Y-17362500D03*
%TO.N,/SPI-Z80-BUS/LOCAL_D4*%
X35722900Y-35740900D03*
%TO.N,/SPI-Z80-BUS/LOCAL_D7*%
X33605000Y-28798400D03*
%TO.N,/SPI-Z80-BUS/LOCAL_A0*%
X108021800Y-19472900D03*
%TO.N,/SPI-Z80-BUS/LOCAL_A2*%
X115341400Y-13399900D03*
%TO.N,/SPI-Z80-BUS/LOCAL_A4*%
X115429700Y-24299400D03*
%TO.N,/SPI-Z80-BUS/LOCAL_A7*%
X112938500Y-18035500D03*
%TO.N,/SPI-Z80-BUS/LOCAL_A10*%
X133282200Y-17618100D03*
%TO.N,/SPI-Z80-BUS/LOCAL_A12*%
X142931400Y-16280000D03*
%TO.N,/SPI-Z80-BUS/LOCAL_A13*%
X144551000Y-12312200D03*
%TO.N,/SPI-Z80-BUS/LOCAL_A14*%
X143396200Y-20412800D03*
%TO.N,/SPI-Z80-BUS/LOCAL_A15*%
X145842400Y-23477000D03*
%TO.N,/SPI-Z80-BUS/ESP_SPI_INT.MISO*%
X145557400Y-33669000D03*
%TO.N,/SPI-Z80-BUS/ESP_SPI_INT.PL*%
X45837700Y-38234700D03*
%TO.N,Net-(LOCAL_A-H.RD1-DS)*%
X118213300Y-34699900D03*
%TO.N,Net-(LOCAL_A-L.RD1-DS)*%
X71976100Y-44906900D03*
X104816100Y-24601000D03*
%TD*%
D18*
%TO.N,/SPI-Z80-BUS/ESP_CONTROL.BUSRQ*%
X83507900Y-21700000D02*
X84000000Y-21700000D01*
X77114700Y-16414800D02*
X82399900Y-21700000D01*
X56823900Y-18651100D02*
X59840000Y-15635000D01*
X50381500Y-28401400D02*
X50381500Y-23300600D01*
X52000000Y-30019900D02*
X50381500Y-28401400D01*
X76103100Y-16414800D02*
X77114700Y-16414800D01*
X50381500Y-23300600D02*
X55031000Y-18651100D01*
X83507900Y-21700000D02*
X82399900Y-21700000D01*
X55031000Y-18651100D02*
X56823900Y-18651100D01*
X52000000Y-31620000D02*
X52000000Y-30019900D01*
%TO.N,/SPI-Z80-BUS/ESP_CONTROL.RD*%
X80569200Y-9709300D02*
X56454300Y-9709300D01*
X82399900Y-11540000D02*
X80569200Y-9709300D01*
X56454300Y-9709300D02*
X54760000Y-8015000D01*
X85889900Y-11540000D02*
X84000000Y-11540000D01*
X59620000Y-24000000D02*
X64208500Y-19411500D01*
X86349900Y-12000000D02*
X85889900Y-11540000D01*
X64208500Y-19411500D02*
X70684000Y-19411500D01*
X88000000Y-12000000D02*
X86349900Y-12000000D01*
X84000000Y-11540000D02*
X82399900Y-11540000D01*
%TO.N,/SPI-Z80-BUS/Z80_CONTROL.RD*%
X63319800Y-39414800D02*
X58519200Y-39414800D01*
X64920000Y-41015000D02*
X63319800Y-39414800D01*
%TO.N,Net-(CONTROL.SELECT1-1A1)*%
X59620000Y-31620000D02*
X59620000Y-30019900D01*
X60280200Y-30019900D02*
X64700000Y-25600100D01*
X64700000Y-24000000D02*
X64700000Y-25600100D01*
X59620000Y-30019900D02*
X60280200Y-30019900D01*
X57690000Y-34996600D02*
X44516900Y-34996600D01*
%TO.N,/SPI-Z80-BUS/ESP_CONTROL.IORQ*%
X84000000Y-16620000D02*
X85889900Y-16620000D01*
X88000000Y-17080000D02*
X86349900Y-17080000D01*
X65360200Y-30019900D02*
X69780000Y-25600100D01*
X64700000Y-31620000D02*
X64700000Y-30019900D01*
X69780000Y-24000000D02*
X69780000Y-25600100D01*
X85889900Y-16620000D02*
X86349900Y-17080000D01*
X64700000Y-30019900D02*
X65360200Y-30019900D01*
%TO.N,/SPI-Z80-BUS/Z80_CONTROL.IORQ*%
X62686400Y-37957400D02*
X62903800Y-37740000D01*
X60303500Y-37957400D02*
X62686400Y-37957400D01*
%TO.N,/SPI-Z80-BUS/ESP_CONTROL.MEMRQ*%
X69780000Y-31620000D02*
X69780000Y-30019900D01*
X74199800Y-25600100D02*
X69780000Y-30019900D01*
X74860000Y-25600100D02*
X74199800Y-25600100D01*
X75233800Y-11993900D02*
X82399900Y-19160000D01*
X60941100Y-11993900D02*
X75233800Y-11993900D01*
X74860000Y-24000000D02*
X74860000Y-25600100D01*
X85889900Y-19160000D02*
X84000000Y-19160000D01*
X84000000Y-19160000D02*
X82399900Y-19160000D01*
X57300000Y-15635000D02*
X60941100Y-11993900D01*
X86349900Y-19620000D02*
X85889900Y-19160000D01*
X88000000Y-19620000D02*
X86349900Y-19620000D01*
%TO.N,/SPI-Z80-BUS/Z80_CONTROL.MEMRQ*%
X79764700Y-48349900D02*
X79447400Y-48667200D01*
X93969900Y-48349900D02*
X79764700Y-48349900D01*
X95620000Y-50000000D02*
X93969900Y-48349900D01*
%TO.N,GND*%
X21915000Y-42180000D02*
X23515100Y-42180000D01*
X114000000Y-30000000D02*
X115600100Y-30000000D01*
X117036600Y-31436500D02*
X120699200Y-31436500D01*
X70000000Y-15635000D02*
X70000000Y-17235100D01*
X123597000Y-28538700D02*
X123597000Y-28376300D01*
X31000000Y-30500000D02*
X31000000Y-32100100D01*
X34632400Y-24484900D02*
X34917600Y-24199700D01*
X120699200Y-31436500D02*
X123597000Y-28538700D01*
X85414100Y-35224100D02*
X98822500Y-35224100D01*
X142376300Y-28376300D02*
X144000000Y-30000000D01*
X101963500Y-32083100D02*
X111916900Y-32083100D01*
X72842300Y-33637700D02*
X44219000Y-33637700D01*
X32279600Y-33379700D02*
X31000000Y-32100100D01*
X32981800Y-48166800D02*
X34615000Y-49800000D01*
X30064900Y-24484900D02*
X34632400Y-24484900D01*
X29535000Y-49800000D02*
X31168200Y-48166800D01*
X122619600Y-13105200D02*
X123286600Y-12438200D01*
X70390500Y-17235100D02*
X70000000Y-17235100D01*
X24455000Y-42180000D02*
X23515100Y-42180000D01*
X74860000Y-31620000D02*
X72842300Y-33637700D01*
X76482100Y-28397800D02*
X76482100Y-23326700D01*
X28460000Y-22880000D02*
X30064900Y-24484900D01*
X98822500Y-35224100D02*
X101963500Y-32083100D01*
X27934600Y-40579600D02*
X26055400Y-40579600D01*
X111916900Y-32083100D02*
X114000000Y-30000000D01*
X43961000Y-33379700D02*
X32279600Y-33379700D01*
X74731700Y-45906500D02*
X81257200Y-39381000D01*
X123597000Y-28376300D02*
X142376300Y-28376300D01*
X115600100Y-30000000D02*
X117036600Y-31436500D01*
X31168200Y-48166800D02*
X32981800Y-48166800D01*
X76482100Y-23326700D02*
X70390500Y-17235100D01*
X123597000Y-28376300D02*
X122619600Y-27398900D01*
X29535000Y-42180000D02*
X27934600Y-40579600D01*
X123286600Y-12438200D02*
X121178100Y-10329700D01*
X121178100Y-10329700D02*
X115413700Y-10329700D01*
X74860000Y-31620000D02*
X74860000Y-30019900D01*
X44219000Y-33637700D02*
X43961000Y-33379700D01*
X26055400Y-40579600D02*
X24455000Y-42180000D01*
X74860000Y-30019900D02*
X76482100Y-28397800D01*
X81257200Y-39381000D02*
X85414100Y-35224100D01*
X122619600Y-27398900D02*
X122619600Y-13105200D01*
X123286600Y-12438200D02*
X123716200Y-12438200D01*
X123716200Y-12438200D02*
X123948900Y-12205500D01*
%TO.N,/SPI-Z80-BUS/LOCAL_CONTROL.MEMRQ*%
X114192600Y-36572600D02*
X88616600Y-36572600D01*
X127620000Y-50000000D02*
X114192600Y-36572600D01*
%TO.N,/SPI-Z80-BUS/LOCAL_CONTROL.IORQ*%
X91697700Y-41807400D02*
X91359200Y-41468900D01*
X116887400Y-41807400D02*
X91697700Y-41807400D01*
X125080000Y-50000000D02*
X116887400Y-41807400D01*
%TO.N,/SPI-Z80-BUS/LOCAL_CONTROL.RD*%
X120000000Y-50000000D02*
X118349900Y-50000000D01*
X57080000Y-24000000D02*
X59230000Y-26150000D01*
X59230000Y-26150000D02*
X62018600Y-26150000D01*
X118349900Y-50000000D02*
X111157500Y-42807600D01*
X111157500Y-42807600D02*
X88213500Y-42807600D01*
X88213500Y-42807600D02*
X84967300Y-39561400D01*
%TO.N,/SPI-Z80-BUS/!ESP_HARDLOCK*%
X34061900Y-47148500D02*
X11931500Y-47148500D01*
X11931500Y-47148500D02*
X9080000Y-50000000D01*
X34484100Y-47570700D02*
X34061900Y-47148500D01*
%TO.N,+5V*%
X52144900Y-25600100D02*
X53476300Y-26931500D01*
X13260000Y-7380000D02*
X13260000Y-8980100D01*
X96220000Y-8980100D02*
X97833100Y-10593100D01*
X127368500Y-26290600D02*
X142663900Y-26290600D01*
X14160000Y-41000000D02*
X16594900Y-41000000D01*
X93080000Y-8000000D02*
X93999900Y-8000000D01*
X93080000Y-8000000D02*
X91279900Y-8000000D01*
X20992100Y-43797100D02*
X19375000Y-42180000D01*
X10652000Y-11588100D02*
X13260000Y-8980100D01*
X52000000Y-24000000D02*
X52000000Y-25600100D01*
X13220000Y-19902600D02*
X10652000Y-17334600D01*
X13220000Y-21279900D02*
X13220000Y-19902600D01*
X81919300Y-6199800D02*
X89479700Y-6199800D01*
X79925000Y-8194100D02*
X81919300Y-6199800D01*
X19375000Y-42180000D02*
X17774900Y-42180000D01*
X96220000Y-7380000D02*
X94619900Y-7380000D01*
X94594300Y-13831900D02*
X97833100Y-10593100D01*
X93999900Y-8000000D02*
X94619900Y-7380000D01*
X13220000Y-22880000D02*
X13220000Y-21279900D01*
X96220000Y-7380000D02*
X96220000Y-8980100D01*
X47837800Y-43797100D02*
X20992100Y-43797100D01*
X96220000Y-20779900D02*
X94594300Y-19154200D01*
X142663900Y-26290600D02*
X145939900Y-29566600D01*
X96220000Y-22380000D02*
X96220000Y-20779900D01*
X97853300Y-10572900D02*
X106020100Y-10572900D01*
X94594300Y-19154200D02*
X94594300Y-13831900D01*
X10652000Y-17334600D02*
X10652000Y-11588100D01*
X97833100Y-10593100D02*
X97853300Y-10572900D01*
X52220000Y-41015000D02*
X50619900Y-41015000D01*
X52716300Y-12255800D02*
X52220000Y-11759500D01*
X50619900Y-41015000D02*
X47837800Y-43797100D01*
X52000000Y-25600100D02*
X52144900Y-25600100D01*
X52220000Y-11759500D02*
X52220000Y-8015000D01*
X16594900Y-41000000D02*
X17774900Y-42180000D01*
X89479700Y-6199800D02*
X91279900Y-8000000D01*
%TO.N,Net-(D1-K)*%
X84000000Y-9000000D02*
X85600100Y-9000000D01*
X88000000Y-8000000D02*
X86199900Y-8000000D01*
X85600100Y-8599800D02*
X86199900Y-8000000D01*
X85600100Y-9000000D02*
X85600100Y-8599800D01*
%TO.N,Net-(D2-K)*%
X40600100Y-8599800D02*
X41199900Y-8000000D01*
X39000000Y-9000000D02*
X40600100Y-9000000D01*
X40600100Y-9000000D02*
X40600100Y-8599800D01*
X43000000Y-8000000D02*
X41199900Y-8000000D01*
%TO.N,Net-(D7-K)*%
X143000000Y-44739900D02*
X143460000Y-45199900D01*
X143460000Y-47000000D02*
X143460000Y-45199900D01*
X143000000Y-42000000D02*
X143000000Y-44739900D01*
%TO.N,/SPI-Z80-BUS/Z80_CONTROL.BUSRQ*%
X70735100Y-47033800D02*
X70958800Y-47257500D01*
X57300000Y-48635000D02*
X58901200Y-47033800D01*
X76033600Y-47257500D02*
X78211100Y-45080000D01*
X58901200Y-47033800D02*
X70735100Y-47033800D01*
X78211100Y-45080000D02*
X95199900Y-45080000D01*
X97000000Y-45080000D02*
X95199900Y-45080000D01*
X70958800Y-47257500D02*
X76033600Y-47257500D01*
%TO.N,/SPI-Z80-BUS/ESP_CONTROL.WAIT*%
X88000000Y-24700000D02*
X86349900Y-24700000D01*
X76715100Y-18158100D02*
X75952300Y-18158100D01*
X71088900Y-13014500D02*
X65000500Y-13014500D01*
X84000000Y-24240000D02*
X82399900Y-24240000D01*
X82399900Y-24240000D02*
X82399900Y-23842900D01*
X74802900Y-16728500D02*
X71088900Y-13014500D01*
X75952300Y-18158100D02*
X74802900Y-17008700D01*
X65000500Y-13014500D02*
X62380000Y-15635000D01*
X82399900Y-23842900D02*
X76715100Y-18158100D01*
X86349900Y-24700000D02*
X85889900Y-24240000D01*
X85889900Y-24240000D02*
X84000000Y-24240000D01*
X74802900Y-17008700D02*
X74802900Y-16728500D01*
%TO.N,/SPI-Z80-BUS/Z80_CONTROL.WAIT*%
X99049400Y-51650600D02*
X62855600Y-51650600D01*
X62855600Y-51650600D02*
X59840000Y-48635000D01*
X100700000Y-50000000D02*
X99049400Y-51650600D01*
%TO.N,/SPI-Z80-BUS/ESP_CONTROL.ROMCS*%
X88000000Y-27240000D02*
X86349900Y-27240000D01*
X86349900Y-27240000D02*
X85889900Y-26780000D01*
X84000000Y-26780000D02*
X83439000Y-26780000D01*
X85889900Y-26780000D02*
X84000000Y-26780000D01*
X83439000Y-26780000D02*
X76878100Y-20219100D01*
%TO.N,/SPI-Z80-BUS/ESP_CONTROL.NMI*%
X107199900Y-38907400D02*
X106181000Y-37888500D01*
X88000000Y-29780000D02*
X86349900Y-29780000D01*
X73802700Y-19122700D02*
X73802700Y-17158700D01*
X106181000Y-37888500D02*
X97590400Y-37888500D01*
X85889900Y-29320000D02*
X84000000Y-29320000D01*
X109000000Y-39920000D02*
X107199900Y-39920000D01*
X69070300Y-14024700D02*
X67460000Y-15635000D01*
X84000000Y-29320000D02*
X73802700Y-19122700D01*
X73802700Y-17158700D02*
X70668700Y-14024700D01*
X107199900Y-39920000D02*
X107199900Y-38907400D01*
X70668700Y-14024700D02*
X69070300Y-14024700D01*
X86349900Y-29780000D02*
X85889900Y-29320000D01*
%TO.N,/SPI-Z80-BUS/Z80_CONTROL.NMI*%
X109000000Y-45000000D02*
X109000000Y-46800100D01*
X77371100Y-47334400D02*
X108174300Y-47334400D01*
X108174300Y-47334400D02*
X108320000Y-47480100D01*
X66524200Y-50239200D02*
X74466300Y-50239200D01*
X108320000Y-50000000D02*
X108320000Y-47480100D01*
X108320000Y-47480100D02*
X109000000Y-46800100D01*
X64920000Y-48635000D02*
X66524200Y-50239200D01*
X74466300Y-50239200D02*
X77371100Y-47334400D01*
%TO.N,/SPI-Z80-BUS/ESP_CONTROL.WR*%
X82399900Y-14080000D02*
X79309200Y-10989300D01*
X79309200Y-10989300D02*
X56425500Y-10989300D01*
X22482300Y-8982300D02*
X20880000Y-7380000D01*
X45100200Y-6896300D02*
X44403700Y-6199800D01*
X52465800Y-14949000D02*
X45100200Y-7583400D01*
X85889900Y-14080000D02*
X84000000Y-14080000D01*
X56425500Y-10989300D02*
X52465800Y-14949000D01*
X37478300Y-6199800D02*
X34695800Y-8982300D01*
X86349900Y-14540000D02*
X85889900Y-14080000D01*
X84000000Y-14080000D02*
X82399900Y-14080000D01*
X88000000Y-14540000D02*
X86349900Y-14540000D01*
X52465800Y-15389200D02*
X52220000Y-15635000D01*
X52220000Y-15635000D02*
X52220000Y-18657000D01*
X34695800Y-8982300D02*
X22482300Y-8982300D01*
X44403700Y-6199800D02*
X37478300Y-6199800D01*
X52220000Y-18657000D02*
X50354700Y-20522300D01*
X45100200Y-7583400D02*
X45100200Y-6896300D01*
X52465800Y-14949000D02*
X52465800Y-15389200D01*
%TO.N,/SPI-Z80-BUS/ESP_SPI_INT.MR*%
X141460000Y-7000000D02*
X138774400Y-4314400D01*
X109879100Y-4199000D02*
X71276000Y-4199000D01*
X111460000Y-7380000D02*
X111460000Y-5779900D01*
X71276000Y-4199000D02*
X67460000Y-8015000D01*
X138774400Y-4314400D02*
X112925500Y-4314400D01*
X30682800Y-5197200D02*
X60962500Y-5197200D01*
X8487900Y-26085900D02*
X10026000Y-24547800D01*
X60962500Y-5197200D02*
X62178700Y-6413400D01*
X62178700Y-6413400D02*
X65858400Y-6413400D01*
X65858400Y-6413400D02*
X67460000Y-8015000D01*
X112925500Y-4314400D02*
X111460000Y-5779900D01*
X10026000Y-24547800D02*
X10026000Y-18547300D01*
X28500000Y-7380000D02*
X30682800Y-5197200D01*
X111460000Y-5779900D02*
X109879100Y-4199000D01*
%TO.N,/SPI-Z80-BUS/ESP_SPI_INT.SCK*%
X126970800Y-33389300D02*
X102615100Y-33389300D01*
X47675700Y-32033600D02*
X32906200Y-32033600D01*
X128760000Y-30000000D02*
X128760000Y-31600100D01*
X47675700Y-32033600D02*
X47737200Y-32033600D01*
X47675700Y-32033600D02*
X47675700Y-27395300D01*
X128760000Y-31600100D02*
X126970800Y-33389300D01*
X47737200Y-32033600D02*
X48041200Y-32337600D01*
%TO.N,/SPI-Z80-BUS/ESP_SPI_INT.STC*%
X12564200Y-5779900D02*
X7073500Y-11270600D01*
X104199600Y-5199600D02*
X106380000Y-7380000D01*
X71858500Y-5499400D02*
X72158300Y-5199600D01*
X25004600Y-4195300D02*
X61799200Y-4195300D01*
X23420000Y-5779900D02*
X25004600Y-4195300D01*
X7073500Y-16546500D02*
X4000000Y-19620000D01*
X23420000Y-5779900D02*
X12564200Y-5779900D01*
X7073500Y-11270600D02*
X7073500Y-16546500D01*
X72158300Y-5199600D02*
X104199600Y-5199600D01*
X23420000Y-7380000D02*
X23420000Y-5779900D01*
X61799200Y-4195300D02*
X62493900Y-4890000D01*
%TO.N,/SPI-Z80-BUS/ESP_SPI_INT.OE*%
X8509100Y-11878800D02*
X10289500Y-10098400D01*
X7115000Y-24831700D02*
X8509100Y-23437600D01*
X8509100Y-23437600D02*
X8509100Y-11878800D01*
%TO.N,/SPI-Z80-BUS/ESP_PULSE*%
X8239300Y-51699300D02*
X6540000Y-50000000D01*
X17774900Y-49800000D02*
X15875600Y-51699300D01*
X15875600Y-51699300D02*
X8239300Y-51699300D01*
X19375000Y-49800000D02*
X17774900Y-49800000D01*
%TO.N,/SPI-Z80-BUS/LOCAL_D0*%
X35959900Y-10100000D02*
X15800000Y-10100000D01*
X14155200Y-18662600D02*
X21702600Y-18662600D01*
X15800000Y-10100000D02*
X15800000Y-8980100D01*
X21702600Y-18662600D02*
X25920000Y-22880000D01*
X39000000Y-11540000D02*
X37399900Y-11540000D01*
X15410500Y-10100000D02*
X11659800Y-13850700D01*
X11659800Y-13850700D02*
X11659800Y-16167200D01*
X15800000Y-10100000D02*
X15410500Y-10100000D01*
X15800000Y-7380000D02*
X15800000Y-8980100D01*
X37399900Y-11540000D02*
X35959900Y-10100000D01*
X11659800Y-16167200D02*
X14155200Y-18662600D01*
%TO.N,/SPI-Z80-BUS/LOCAL_D1*%
X43000000Y-14540000D02*
X41349900Y-14540000D01*
X39000000Y-14080000D02*
X37399900Y-14080000D01*
X16275000Y-20410400D02*
X20910400Y-20410400D01*
X41349900Y-14540000D02*
X40889900Y-14080000D01*
X34675900Y-11356000D02*
X16904000Y-11356000D01*
X40889900Y-14080000D02*
X39000000Y-14080000D01*
X20910400Y-20410400D02*
X23380000Y-22880000D01*
X16904000Y-11356000D02*
X13260000Y-15000000D01*
X37399900Y-14080000D02*
X34675900Y-11356000D01*
%TO.N,/SPI-Z80-BUS/LOCAL_D2*%
X39000000Y-16620000D02*
X37399900Y-16620000D01*
X37399900Y-16620000D02*
X33136000Y-12356100D01*
X16052300Y-15000000D02*
X16053700Y-15001300D01*
X18414800Y-17362500D02*
X20655200Y-17362500D01*
X16053700Y-15001300D02*
X18414800Y-17362500D01*
X15800000Y-15000000D02*
X16052300Y-15000000D01*
X40889900Y-16620000D02*
X39000000Y-16620000D01*
X33136000Y-12356100D02*
X18698900Y-12356100D01*
X18698900Y-12356100D02*
X16053700Y-15001300D01*
X43000000Y-17080000D02*
X41349900Y-17080000D01*
X41349900Y-17080000D02*
X40889900Y-16620000D01*
%TO.N,/SPI-Z80-BUS/LOCAL_D3*%
X40889900Y-19160000D02*
X39000000Y-19160000D01*
X37399900Y-19077100D02*
X37399900Y-19160000D01*
X19971400Y-13368600D02*
X31691400Y-13368600D01*
X39000000Y-19160000D02*
X37399900Y-19160000D01*
X18340000Y-15000000D02*
X19971400Y-13368600D01*
X43000000Y-19620000D02*
X41349900Y-19620000D01*
X31691400Y-13368600D02*
X37399900Y-19077100D01*
X41349900Y-19620000D02*
X40889900Y-19160000D01*
%TO.N,/SPI-Z80-BUS/LOCAL_D4*%
X36440200Y-20740300D02*
X26620300Y-20740300D01*
X40889900Y-21700000D02*
X39000000Y-21700000D01*
X43000000Y-22160000D02*
X41349900Y-22160000D01*
X26620300Y-20740300D02*
X20880000Y-15000000D01*
X37399900Y-21700000D02*
X36440200Y-20740300D01*
X23540900Y-35740900D02*
X18300000Y-30500000D01*
X41349900Y-22160000D02*
X40889900Y-21700000D01*
X35722900Y-35740900D02*
X23540900Y-35740900D01*
X39000000Y-21700000D02*
X37399900Y-21700000D01*
%TO.N,/SPI-Z80-BUS/LOCAL_D5*%
X41349900Y-24700000D02*
X40889900Y-24240000D01*
X36099500Y-25540400D02*
X25799600Y-25540400D01*
X37399900Y-24240000D02*
X36099500Y-25540400D01*
X43000000Y-24700000D02*
X41349900Y-24700000D01*
X25799600Y-25540400D02*
X20840000Y-30500000D01*
X40889900Y-24240000D02*
X39000000Y-24240000D01*
X39000000Y-24240000D02*
X37399900Y-24240000D01*
%TO.N,/SPI-Z80-BUS/LOCAL_D6*%
X27100000Y-26780000D02*
X37399900Y-26780000D01*
X40889900Y-26780000D02*
X41349900Y-27240000D01*
X43000000Y-27240000D02*
X41349900Y-27240000D01*
X39000000Y-26780000D02*
X37399900Y-26780000D01*
X23380000Y-30500000D02*
X27100000Y-26780000D01*
X39000000Y-26780000D02*
X40889900Y-26780000D01*
%TO.N,/SPI-Z80-BUS/LOCAL_D7*%
X36957200Y-28877300D02*
X37399900Y-29320000D01*
X25920000Y-30500000D02*
X27542700Y-28877300D01*
X33605000Y-28877300D02*
X33605000Y-28798400D01*
X27542700Y-28877300D02*
X33605000Y-28877300D01*
X39000000Y-29320000D02*
X37399900Y-29320000D01*
X33605000Y-28877300D02*
X36957200Y-28877300D01*
%TO.N,/SPI-Z80-BUS/LOCAL_A0*%
X116191300Y-11841800D02*
X109171900Y-11841800D01*
X113356100Y-19472900D02*
X108021800Y-19472900D01*
X117349700Y-13000200D02*
X116191300Y-11841800D01*
X109171900Y-11841800D02*
X106520800Y-9190700D01*
X117349700Y-15479300D02*
X113356100Y-19472900D01*
X117349700Y-13000200D02*
X117349700Y-15479300D01*
X106520800Y-9190700D02*
X100570700Y-9190700D01*
X100570700Y-9190700D02*
X98760000Y-7380000D01*
X118349900Y-12000000D02*
X117349700Y-13000200D01*
X120000000Y-12000000D02*
X118349900Y-12000000D01*
%TO.N,/SPI-Z80-BUS/LOCAL_A1*%
X113470500Y-20773000D02*
X118349900Y-15893600D01*
X120000000Y-14540000D02*
X118349900Y-14540000D01*
X106380000Y-22380000D02*
X107987000Y-20773000D01*
X107987000Y-20773000D02*
X113470500Y-20773000D01*
X118349900Y-15893600D02*
X118349900Y-14540000D01*
%TO.N,/SPI-Z80-BUS/LOCAL_A2*%
X99660200Y-16600100D02*
X98760000Y-16600100D01*
X100360100Y-13399900D02*
X98760000Y-15000000D01*
X103840000Y-20779900D02*
X99660200Y-16600100D01*
X103840000Y-22380000D02*
X103840000Y-20779900D01*
X115341400Y-13399900D02*
X100360100Y-13399900D01*
X98760000Y-15000000D02*
X98760000Y-16600100D01*
%TO.N,/SPI-Z80-BUS/LOCAL_A4*%
X118349900Y-22160000D02*
X116210500Y-24299400D01*
X115429700Y-24299400D02*
X107000600Y-24299400D01*
X120000000Y-22160000D02*
X118349900Y-22160000D01*
X107000600Y-24299400D02*
X101300000Y-30000000D01*
X116210500Y-24299400D02*
X115429700Y-24299400D01*
%TO.N,/SPI-Z80-BUS/LOCAL_A5*%
X120000000Y-24700000D02*
X118349900Y-24700000D01*
X107859600Y-25980400D02*
X117069500Y-25980400D01*
X103840000Y-30000000D02*
X107859600Y-25980400D01*
X117069500Y-25980400D02*
X118349900Y-24700000D01*
%TO.N,/SPI-Z80-BUS/LOCAL_A6*%
X109140000Y-27240000D02*
X120000000Y-27240000D01*
X106380000Y-30000000D02*
X109140000Y-27240000D01*
%TO.N,/SPI-Z80-BUS/LOCAL_A7*%
X110552100Y-28367900D02*
X116937800Y-28367900D01*
X120000000Y-29780000D02*
X118349900Y-29780000D01*
X111460000Y-15000000D02*
X111460000Y-16600100D01*
X111460000Y-16600100D02*
X112895400Y-18035500D01*
X108920000Y-30000000D02*
X110552100Y-28367900D01*
X112895400Y-18035500D02*
X112938500Y-18035500D01*
X116937800Y-28367900D02*
X118349900Y-29780000D01*
%TO.N,/SPI-Z80-BUS/LOCAL_A8*%
X150000000Y-12000000D02*
X148349900Y-12000000D01*
X129098600Y-8938700D02*
X128760000Y-8600100D01*
X145288600Y-8938700D02*
X148349900Y-12000000D01*
X129098600Y-8938700D02*
X123619700Y-14417600D01*
X123619700Y-23470000D02*
X125140100Y-24990400D01*
X129098600Y-8938700D02*
X145288600Y-8938700D01*
X123619700Y-14417600D02*
X123619700Y-23470000D01*
X136309600Y-24990400D02*
X138920000Y-22380000D01*
X125140100Y-24990400D02*
X136309600Y-24990400D01*
X128760000Y-7000000D02*
X128760000Y-8600100D01*
%TO.N,/SPI-Z80-BUS/LOCAL_A9*%
X134769700Y-23990300D02*
X136380000Y-22380000D01*
X145086900Y-11003300D02*
X129836700Y-11003300D01*
X126220000Y-14620000D02*
X126220000Y-16220100D01*
X150000000Y-14540000D02*
X148349900Y-14540000D01*
X124619800Y-17820300D02*
X124619800Y-23055800D01*
X125554300Y-23990300D02*
X134769700Y-23990300D01*
X126220000Y-16220100D02*
X124619800Y-17820300D01*
X124619800Y-23055800D02*
X125554300Y-23990300D01*
X148349900Y-14540000D02*
X148349900Y-14266300D01*
X148349900Y-14266300D02*
X145086900Y-11003300D01*
X129836700Y-11003300D02*
X126220000Y-14620000D01*
%TO.N,/SPI-Z80-BUS/LOCAL_A10*%
X147811800Y-17618100D02*
X133282200Y-17618100D01*
X150000000Y-17080000D02*
X148349900Y-17080000D01*
X133282200Y-17618100D02*
X131758100Y-17618100D01*
X148349900Y-17080000D02*
X147811800Y-17618100D01*
X131758100Y-17618100D02*
X128760000Y-14620000D01*
%TO.N,/SPI-Z80-BUS/LOCAL_A11*%
X148349900Y-19620000D02*
X147810000Y-19080100D01*
X134599900Y-19080100D02*
X131300000Y-22380000D01*
X147810000Y-19080100D02*
X134599900Y-19080100D01*
X150000000Y-19620000D02*
X148349900Y-19620000D01*
%TO.N,/SPI-Z80-BUS/LOCAL_A12*%
X142931400Y-16280000D02*
X135500000Y-16280000D01*
X135500000Y-16280000D02*
X133840000Y-14620000D01*
%TO.N,/SPI-Z80-BUS/LOCAL_A13*%
X138687800Y-12312200D02*
X136380000Y-14620000D01*
X144551000Y-12312200D02*
X138687800Y-12312200D01*
%TO.N,/SPI-Z80-BUS/LOCAL_A14*%
X147512000Y-24752000D02*
X147512000Y-23280000D01*
X144644800Y-20412800D02*
X143396200Y-20412800D01*
X150000000Y-27240000D02*
X147512000Y-24752000D01*
X147512000Y-23280000D02*
X144644800Y-20412800D01*
%TO.N,/SPI-Z80-BUS/LOCAL_A15*%
X150000000Y-29780000D02*
X145842400Y-25622400D01*
X145842400Y-25622400D02*
X145842400Y-23477000D01*
%TO.N,/SPI-Z80-BUS/ESP_SPI_INT.MISO*%
X5650100Y-14540000D02*
X5650100Y-11181100D01*
X5650100Y-11181100D02*
X13636100Y-3195100D01*
X144063200Y-3195100D02*
X151687300Y-10819200D01*
X13636100Y-3195100D02*
X144063200Y-3195100D01*
X151687300Y-10819200D02*
X151687300Y-30444000D01*
X151687300Y-30444000D02*
X148462300Y-33669000D01*
X148462300Y-33669000D02*
X145557400Y-33669000D01*
X4000000Y-14540000D02*
X5650100Y-14540000D01*
%TO.N,/SPI-Z80-BUS/ESP_SPI_INT.PL*%
X72541300Y-46208600D02*
X85228000Y-33521900D01*
X85228000Y-33521900D02*
X92698100Y-33521900D01*
X92698100Y-33521900D02*
X96220000Y-30000000D01*
X54869600Y-45985400D02*
X71136300Y-45985400D01*
X71359500Y-46208600D02*
X72541300Y-46208600D01*
X71136300Y-45985400D02*
X71359500Y-46208600D01*
X20954700Y-38234700D02*
X45837700Y-38234700D01*
X52220000Y-48635000D02*
X54869600Y-45985400D01*
X13220000Y-30500000D02*
X20954700Y-38234700D01*
%TO.N,/SPI-Z80-BUS/ESP_SPI_INT.CE*%
X11772900Y-28467200D02*
X15760000Y-24480100D01*
X47466100Y-39404200D02*
X53149200Y-39404200D01*
X19549500Y-39579300D02*
X47291000Y-39579300D01*
X5650100Y-24700000D02*
X5650100Y-25205400D01*
X5650100Y-25205400D02*
X8911900Y-28467200D01*
X11605800Y-28467200D02*
X11772900Y-28467200D01*
X82893900Y-31497000D02*
X89643000Y-31497000D01*
X54760000Y-41015000D02*
X56365600Y-42620600D01*
X15760000Y-22880000D02*
X15760000Y-24480100D01*
X89643000Y-31497000D02*
X98760000Y-22380000D01*
X11605800Y-28467200D02*
X11605800Y-31635600D01*
X71770300Y-42620600D02*
X82893900Y-31497000D01*
X11605800Y-31635600D02*
X19549500Y-39579300D01*
X53149200Y-39404200D02*
X54760000Y-41015000D01*
X47291000Y-39579300D02*
X47466100Y-39404200D01*
X4000000Y-24700000D02*
X5650100Y-24700000D01*
X8911900Y-28467200D02*
X11605800Y-28467200D01*
X56365600Y-42620600D02*
X71770300Y-42620600D01*
%TO.N,Net-(LOCAL_A-H.RD1-DS)*%
X142198100Y-23980100D02*
X141460000Y-23980100D01*
X147275500Y-29057500D02*
X142198100Y-23980100D01*
X142665500Y-34699900D02*
X147275500Y-30089900D01*
X147275500Y-30089900D02*
X147275500Y-29057500D01*
X118213300Y-34699900D02*
X142665500Y-34699900D01*
X141460000Y-22380000D02*
X141460000Y-23980100D01*
%TO.N,Net-(LOCAL_A-L.RD1-DS)*%
X90963800Y-32497200D02*
X98860000Y-24601000D01*
X84385800Y-32497200D02*
X90963800Y-32497200D01*
X71976100Y-44906900D02*
X84385800Y-32497200D01*
X98860000Y-24601000D02*
X104816100Y-24601000D01*
%TO.N,Net-(LOCAL_ADDR-H.WR1-SER)*%
X115600100Y-7380000D02*
X117606800Y-5373300D01*
X117606800Y-5373300D02*
X129673300Y-5373300D01*
X129673300Y-5373300D02*
X131300000Y-7000000D01*
X114000000Y-7380000D02*
X115600100Y-7380000D01*
%TO.N,Net-(LOCAL_D.RD1-~{Q7})*%
X36261500Y-34440800D02*
X30800700Y-34440800D01*
X28460000Y-30500000D02*
X28460000Y-32100100D01*
X30800700Y-34440800D02*
X28460000Y-32100100D01*
X38188500Y-36367800D02*
X36261500Y-34440800D01*
X64412900Y-36367800D02*
X38188500Y-36367800D01*
X67460000Y-39414900D02*
X64412900Y-36367800D01*
X67460000Y-41015000D02*
X67460000Y-39414900D01*
%TD*%
M02*
