M48
; DRILL file {KiCad 7.0.2} date Sun 04 Jun 2023 09:33:31 BST
; FORMAT={-:-/ absolute / metric / decimal}
; #@! TF.CreationDate,2023-06-04T09:33:31+01:00
; #@! TF.GenerationSoftware,Kicad,Pcbnew,7.0.2
; #@! TF.FileFunction,Plated,1,2,PTH
FMAT,2
METRIC
; #@! TA.AperFunction,Plated,PTH,ViaDrill
T1C0.500
; #@! TA.AperFunction,Plated,PTH,ComponentDrill
T2C0.800
; #@! TA.AperFunction,Plated,PTH,ComponentDrill
T3C1.000
%
G90
G05
T1
X0.0Y0.0
X7.115Y-24.832
X8.488Y-26.086
X10.026Y-18.547
X10.29Y-10.098
X16.275Y-20.41
X20.655Y-17.363
X32.906Y-32.034
X33.605Y-28.798
X34.484Y-47.571
X34.918Y-24.2
X35.723Y-35.741
X44.517Y-34.997
X45.838Y-38.235
X47.676Y-27.395
X48.041Y-32.338
X50.355Y-20.522
X52.716Y-12.256
X53.476Y-26.931
X57.69Y-34.997
X58.519Y-39.415
X60.303Y-37.957
X62.019Y-26.15
X62.494Y-4.89
X62.904Y-37.74
X70.684Y-19.412
X71.858Y-5.499
X71.976Y-44.907
X74.732Y-45.907
X76.103Y-16.415
X76.878Y-20.219
X79.447Y-48.667
X79.925Y-8.194
X81.257Y-39.381
X84.967Y-39.561
X88.617Y-36.573
X91.359Y-41.469
X97.59Y-37.889
X102.615Y-33.389
X104.816Y-24.601
X106.02Y-10.573
X108.022Y-19.473
X112.938Y-18.035
X115.341Y-13.4
X115.414Y-10.33
X115.43Y-24.299
X118.213Y-34.7
X123.949Y-12.205
X127.368Y-26.291
X133.282Y-17.618
X142.931Y-16.28
X143.396Y-20.413
X144.551Y-12.312
X145.557Y-33.669
X145.842Y-23.477
X145.94Y-29.567
T2
X4.0Y-41.0
X13.22Y-22.88
X13.22Y-30.5
X13.26Y-7.38
X13.26Y-15.0
X14.16Y-41.0
X15.76Y-22.88
X15.76Y-30.5
X15.8Y-7.38
X15.8Y-15.0
X18.3Y-22.88
X18.3Y-30.5
X18.34Y-7.38
X18.34Y-15.0
X19.375Y-42.18
X19.375Y-49.8
X20.84Y-22.88
X20.84Y-30.5
X20.88Y-7.38
X20.88Y-15.0
X21.915Y-42.18
X21.915Y-49.8
X23.38Y-22.88
X23.38Y-30.5
X23.42Y-7.38
X23.42Y-15.0
X24.455Y-42.18
X24.455Y-49.8
X25.92Y-22.88
X25.92Y-30.5
X25.96Y-7.38
X25.96Y-15.0
X26.995Y-42.18
X26.995Y-49.8
X28.46Y-22.88
X28.46Y-30.5
X28.5Y-7.38
X28.5Y-15.0
X29.535Y-42.18
X29.535Y-49.8
X31.0Y-22.88
X31.0Y-30.5
X31.04Y-7.38
X31.04Y-15.0
X32.075Y-42.18
X32.075Y-49.8
X34.615Y-42.18
X34.615Y-49.8
X39.0Y-9.0
X39.0Y-11.54
X39.0Y-14.08
X39.0Y-16.62
X39.0Y-19.16
X39.0Y-21.7
X39.0Y-24.24
X39.0Y-26.78
X39.0Y-29.32
X52.0Y-24.0
X52.0Y-31.62
X52.22Y-8.015
X52.22Y-15.635
X52.22Y-41.015
X52.22Y-48.635
X54.54Y-24.0
X54.54Y-31.62
X54.76Y-8.015
X54.76Y-15.635
X54.76Y-41.015
X54.76Y-48.635
X57.08Y-24.0
X57.08Y-31.62
X57.3Y-8.015
X57.3Y-15.635
X57.3Y-41.015
X57.3Y-48.635
X59.62Y-24.0
X59.62Y-31.62
X59.84Y-8.015
X59.84Y-15.635
X59.84Y-41.015
X59.84Y-48.635
X62.16Y-24.0
X62.16Y-31.62
X62.38Y-8.015
X62.38Y-15.635
X62.38Y-41.015
X62.38Y-48.635
X64.7Y-24.0
X64.7Y-31.62
X64.92Y-8.015
X64.92Y-15.635
X64.92Y-41.015
X64.92Y-48.635
X67.24Y-24.0
X67.24Y-31.62
X67.46Y-8.015
X67.46Y-15.635
X67.46Y-41.015
X67.46Y-48.635
X69.78Y-24.0
X69.78Y-31.62
X70.0Y-8.015
X70.0Y-15.635
X70.0Y-41.015
X70.0Y-48.635
X72.32Y-24.0
X72.32Y-31.62
X74.86Y-24.0
X74.86Y-31.62
X84.0Y-9.0
X84.0Y-11.54
X84.0Y-14.08
X84.0Y-16.62
X84.0Y-19.16
X84.0Y-21.7
X84.0Y-24.24
X84.0Y-26.78
X84.0Y-29.32
X96.22Y-7.38
X96.22Y-15.0
X96.22Y-22.38
X96.22Y-30.0
X98.76Y-7.38
X98.76Y-15.0
X98.76Y-22.38
X98.76Y-30.0
X101.3Y-7.38
X101.3Y-15.0
X101.3Y-22.38
X101.3Y-30.0
X103.84Y-7.38
X103.84Y-15.0
X103.84Y-22.38
X103.84Y-30.0
X106.38Y-7.38
X106.38Y-15.0
X106.38Y-22.38
X106.38Y-30.0
X108.92Y-7.38
X108.92Y-15.0
X108.92Y-22.38
X108.92Y-30.0
X111.46Y-7.38
X111.46Y-15.0
X111.46Y-22.38
X111.46Y-30.0
X114.0Y-7.38
X114.0Y-15.0
X114.0Y-22.38
X114.0Y-30.0
X122.68Y-42.0
X125.22Y-42.0
X126.22Y-7.0
X126.22Y-14.62
X126.22Y-22.38
X126.22Y-30.0
X127.76Y-42.0
X128.76Y-7.0
X128.76Y-14.62
X128.76Y-22.38
X128.76Y-30.0
X130.3Y-42.0
X131.3Y-7.0
X131.3Y-14.62
X131.3Y-22.38
X131.3Y-30.0
X132.84Y-42.0
X133.84Y-7.0
X133.84Y-14.62
X133.84Y-22.38
X133.84Y-30.0
X135.38Y-42.0
X136.38Y-7.0
X136.38Y-14.62
X136.38Y-22.38
X136.38Y-30.0
X137.92Y-42.0
X138.92Y-7.0
X138.92Y-14.62
X138.92Y-22.38
X138.92Y-30.0
X140.46Y-42.0
X141.46Y-7.0
X141.46Y-14.62
X141.46Y-22.38
X141.46Y-30.0
X143.0Y-42.0
X144.0Y-7.0
X144.0Y-14.62
X144.0Y-22.38
X144.0Y-30.0
T3
X4.0Y-12.0
X4.0Y-14.54
X4.0Y-17.08
X4.0Y-19.62
X4.0Y-22.16
X4.0Y-24.7
X4.0Y-27.24
X4.0Y-29.78
X4.0Y-50.0
X6.54Y-50.0
X9.08Y-50.0
X11.62Y-50.0
X43.0Y-8.0
X43.0Y-12.0
X43.0Y-14.54
X43.0Y-17.08
X43.0Y-19.62
X43.0Y-22.16
X43.0Y-24.7
X43.0Y-27.24
X43.0Y-29.78
X48.08Y-8.0
X88.0Y-8.0
X88.0Y-12.0
X88.0Y-14.54
X88.0Y-17.08
X88.0Y-19.62
X88.0Y-22.16
X88.0Y-24.7
X88.0Y-27.24
X88.0Y-29.78
X88.0Y-50.0
X90.54Y-50.0
X93.08Y-8.0
X93.08Y-50.0
X95.62Y-50.0
X97.0Y-40.0
X97.0Y-45.08
X98.16Y-50.0
X100.7Y-50.0
X101.0Y-40.0
X101.0Y-45.08
X103.24Y-50.0
X105.0Y-39.92
X105.0Y-45.0
X105.78Y-50.0
X108.32Y-50.0
X109.0Y-39.92
X109.0Y-45.0
X110.86Y-50.0
X120.0Y-12.0
X120.0Y-14.54
X120.0Y-17.08
X120.0Y-19.62
X120.0Y-22.16
X120.0Y-24.7
X120.0Y-27.24
X120.0Y-29.78
X120.0Y-50.0
X122.54Y-50.0
X125.08Y-50.0
X127.62Y-50.0
X143.46Y-47.0
X148.54Y-47.0
X150.0Y-12.0
X150.0Y-14.54
X150.0Y-17.08
X150.0Y-19.62
X150.0Y-22.16
X150.0Y-24.7
X150.0Y-27.24
X150.0Y-29.78
T0
M30
