<?xml version="1.0" standalone="no"?>
<!DOCTYPE svg PUBLIC "-//W3C//DTD SVG 1.1//EN"
"http://www.w3.org/Graphics/SVG/1.1/DTD/svg11.dtd">
<svg width="374.362" height="185.386" viewBox="0 0 7799.21 3862.2" version="1.1"
xmlns="http://www.w3.org/2000/svg"
xmlns:xlink="http://www.w3.org/1999/xlink">
<circle cx="159.449" cy="159.449" r="19.685" style=""/>
<circle cx="831.181" cy="1337.8" r="19.685" style=""/>
<circle cx="927.638" cy="1582.68" r="19.685" style=""/>
<circle cx="2835.43" cy="1065.67" r="19.685" style=""/>
<circle cx="3234.8" cy="1614.49" r="19.685" style=""/>
<circle cx="3054.72" cy="1858.74" r="19.685" style=""/>
<circle cx="3542.44" cy="2589.13" r="19.685" style=""/>
<circle cx="3671.73" cy="2618.03" r="19.685" style=""/>
<circle cx="3638.58" cy="2810.16" r="19.685" style=""/>
<circle cx="3459.37" cy="2914.65" r="19.685" style=""/>
<circle cx="2984.33" cy="3143.78" r="19.685" style=""/>
<circle cx="4564.33" cy="3230.47" r="19.685" style=""/>
<circle cx="5360.08" cy="1922.28" r="19.685" style=""/>
<circle cx="5588.35" cy="1634.8" r="19.685" style=""/>
<circle cx="5865.51" cy="1274.41" r="19.685" style=""/>
<circle cx="4492.99" cy="914.961" r="19.685" style=""/>
<circle cx="4052.36" cy="683.15" r="19.685" style=""/>
<circle cx="3814.25" cy="1189.06" r="19.685" style=""/>
<circle cx="474.409" cy="1012.99" r="31.4961" style=""/>
<circle cx="946.85" cy="1212.99" r="31.4961" style=""/>
<circle cx="1146.85" cy="1212.99" r="31.4961" style=""/>
<circle cx="1346.85" cy="1212.99" r="31.4961" style=""/>
<circle cx="1546.85" cy="1212.99" r="31.4961" style=""/>
<circle cx="1746.85" cy="1212.99" r="31.4961" style=""/>
<circle cx="1946.85" cy="1212.99" r="31.4961" style=""/>
<circle cx="2146.85" cy="1212.99" r="31.4961" style=""/>
<circle cx="2346.85" cy="1212.99" r="31.4961" style=""/>
<circle cx="2546.85" cy="1212.99" r="31.4961" style=""/>
<circle cx="2746.85" cy="1212.99" r="31.4961" style=""/>
<circle cx="2346.85" cy="1812.99" r="31.4961" style=""/>
<circle cx="2546.85" cy="1812.99" r="31.4961" style=""/>
<circle cx="2746.85" cy="1812.99" r="31.4961" style=""/>
<circle cx="2346.85" cy="2220.87" r="31.4961" style=""/>
<circle cx="2546.85" cy="2220.87" r="31.4961" style=""/>
<circle cx="2746.85" cy="2220.87" r="31.4961" style=""/>
<circle cx="2346.85" cy="2820.87" r="31.4961" style=""/>
<circle cx="2546.85" cy="2820.87" r="31.4961" style=""/>
<circle cx="2746.85" cy="2820.87" r="31.4961" style=""/>
<circle cx="2146.85" cy="2220.87" r="31.4961" style=""/>
<circle cx="1946.85" cy="2220.87" r="31.4961" style=""/>
<circle cx="1746.85" cy="2220.87" r="31.4961" style=""/>
<circle cx="1546.85" cy="2220.87" r="31.4961" style=""/>
<circle cx="1346.85" cy="2220.87" r="31.4961" style=""/>
<circle cx="1146.85" cy="2220.87" r="31.4961" style=""/>
<circle cx="946.85" cy="2220.87" r="31.4961" style=""/>
<circle cx="946.85" cy="1812.99" r="31.4961" style=""/>
<circle cx="1146.85" cy="1812.99" r="31.4961" style=""/>
<circle cx="1346.85" cy="1812.99" r="31.4961" style=""/>
<circle cx="1546.85" cy="1812.99" r="31.4961" style=""/>
<circle cx="1746.85" cy="1812.99" r="31.4961" style=""/>
<circle cx="1946.85" cy="1812.99" r="31.4961" style=""/>
<circle cx="2146.85" cy="1812.99" r="31.4961" style=""/>
<circle cx="1146.85" cy="2820.87" r="31.4961" style=""/>
<circle cx="946.85" cy="2820.87" r="31.4961" style=""/>
<circle cx="1346.85" cy="2820.87" r="31.4961" style=""/>
<circle cx="1546.85" cy="2820.87" r="31.4961" style=""/>
<circle cx="1746.85" cy="2820.87" r="31.4961" style=""/>
<circle cx="1946.85" cy="2820.87" r="31.4961" style=""/>
<circle cx="2146.85" cy="2820.87" r="31.4961" style=""/>
<circle cx="474.409" cy="1812.99" r="31.4961" style=""/>
<circle cx="474.409" cy="2206.69" r="31.4961" style=""/>
<circle cx="474.409" cy="3006.69" r="31.4961" style=""/>
<circle cx="4175.2" cy="1085.43" r="31.4961" style=""/>
<circle cx="4175.2" cy="1400.39" r="31.4961" style=""/>
<circle cx="4375.2" cy="1400.39" r="31.4961" style=""/>
<circle cx="4575.2" cy="1400.39" r="31.4961" style=""/>
<circle cx="4775.2" cy="1400.39" r="31.4961" style=""/>
<circle cx="4975.2" cy="1400.39" r="31.4961" style=""/>
<circle cx="5175.2" cy="1400.39" r="31.4961" style=""/>
<circle cx="5375.2" cy="1400.39" r="31.4961" style=""/>
<circle cx="5575.2" cy="1400.39" r="31.4961" style=""/>
<circle cx="5775.2" cy="1400.39" r="31.4961" style=""/>
<circle cx="5975.2" cy="1400.39" r="31.4961" style=""/>
<circle cx="6175.2" cy="1400.39" r="31.4961" style=""/>
<circle cx="6375.2" cy="1400.39" r="31.4961" style=""/>
<circle cx="6575.2" cy="1400.39" r="31.4961" style=""/>
<circle cx="6775.2" cy="1400.39" r="31.4961" style=""/>
<circle cx="6975.2" cy="1400.39" r="31.4961" style=""/>
<circle cx="7175.2" cy="1400.39" r="31.4961" style=""/>
<circle cx="5975.2" cy="2600.39" r="31.4961" style=""/>
<circle cx="6175.2" cy="2600.39" r="31.4961" style=""/>
<circle cx="6375.2" cy="2600.39" r="31.4961" style=""/>
<circle cx="6575.2" cy="2600.39" r="31.4961" style=""/>
<circle cx="6775.2" cy="2600.39" r="31.4961" style=""/>
<circle cx="6975.2" cy="2600.39" r="31.4961" style=""/>
<circle cx="7175.2" cy="2600.39" r="31.4961" style=""/>
<circle cx="5775.2" cy="2600.39" r="31.4961" style=""/>
<circle cx="5575.2" cy="2600.39" r="31.4961" style=""/>
<circle cx="5375.2" cy="2600.39" r="31.4961" style=""/>
<circle cx="5175.2" cy="2600.39" r="31.4961" style=""/>
<circle cx="4975.2" cy="2600.39" r="31.4961" style=""/>
<circle cx="4775.2" cy="2600.39" r="31.4961" style=""/>
<circle cx="4575.2" cy="2600.39" r="31.4961" style=""/>
<circle cx="4375.2" cy="2600.39" r="31.4961" style=""/>
<circle cx="4175.2" cy="2600.39" r="31.4961" style=""/>
<circle cx="4975.2" cy="1085.43" r="31.4961" style=""/>
<circle cx="474.409" cy="474.409" r="39.3701" style=""/>
<circle cx="674.409" cy="474.409" r="39.3701" style=""/>
<circle cx="874.409" cy="474.409" r="39.3701" style=""/>
<circle cx="1074.41" cy="474.409" r="39.3701" style=""/>
<circle cx="1274.41" cy="474.409" r="39.3701" style=""/>
<circle cx="1474.41" cy="474.409" r="39.3701" style=""/>
<circle cx="1674.41" cy="474.409" r="39.3701" style=""/>
<circle cx="1874.41" cy="474.409" r="39.3701" style=""/>
<circle cx="2074.41" cy="474.409" r="39.3701" style=""/>
<circle cx="2274.41" cy="474.409" r="39.3701" style=""/>
<circle cx="2474.41" cy="474.409" r="39.3701" style=""/>
<circle cx="2674.41" cy="474.409" r="39.3701" style=""/>
<circle cx="2874.41" cy="474.409" r="39.3701" style=""/>
<circle cx="3074.41" cy="474.409" r="39.3701" style=""/>
<circle cx="3274.41" cy="474.409" r="39.3701" style=""/>
<circle cx="3474.41" cy="474.409" r="39.3701" style=""/>
<circle cx="3674.41" cy="474.409" r="39.3701" style=""/>
<circle cx="3874.41" cy="474.409" r="39.3701" style=""/>
<circle cx="1074.41" cy="3387.8" r="39.3701" style=""/>
<circle cx="874.409" cy="3387.8" r="39.3701" style=""/>
<circle cx="674.409" cy="3387.8" r="39.3701" style=""/>
<circle cx="474.409" cy="3387.8" r="39.3701" style=""/>
<circle cx="1274.41" cy="3387.8" r="39.3701" style=""/>
<circle cx="1474.41" cy="3387.8" r="39.3701" style=""/>
<circle cx="1674.41" cy="3387.8" r="39.3701" style=""/>
<circle cx="1874.41" cy="3387.8" r="39.3701" style=""/>
<circle cx="2074.41" cy="3387.8" r="39.3701" style=""/>
<circle cx="2274.41" cy="3387.8" r="39.3701" style=""/>
<circle cx="2474.41" cy="3387.8" r="39.3701" style=""/>
<circle cx="2674.41" cy="3387.8" r="39.3701" style=""/>
<circle cx="2874.41" cy="3387.8" r="39.3701" style=""/>
<circle cx="3074.41" cy="3387.8" r="39.3701" style=""/>
<circle cx="3274.41" cy="3387.8" r="39.3701" style=""/>
<circle cx="3474.41" cy="3387.8" r="39.3701" style=""/>
<circle cx="3674.41" cy="3387.8" r="39.3701" style=""/>
<circle cx="3874.41" cy="3387.8" r="39.3701" style=""/>
<circle cx="4074.41" cy="3387.8" r="39.3701" style=""/>
<circle cx="4274.41" cy="3387.8" r="39.3701" style=""/>
<circle cx="4474.41" cy="3387.8" r="39.3701" style=""/>
<circle cx="4674.41" cy="3387.8" r="39.3701" style=""/>
<circle cx="4874.41" cy="3387.8" r="39.3701" style=""/>
<circle cx="5074.41" cy="3387.8" r="39.3701" style=""/>
</svg>
