%TF.GenerationSoftware,KiCad,Pcbnew,7.0.2*%
%TF.CreationDate,2023-06-28T00:57:02+01:00*%
%TF.ProjectId,SPI-Z80-BUS_ZXspectrum_impl,5350492d-5a38-4302-9d42-55535f5a5873,rev?*%
%TF.SameCoordinates,PX3473bc0PY19bfcc0*%
%TF.FileFunction,Soldermask,Top*%
%TF.FilePolarity,Negative*%
%FSLAX46Y46*%
G04 Gerber Fmt 4.6, Leading zero omitted, Abs format (unit mm)*
G04 Created by KiCad (PCBNEW 7.0.2) date 2023-06-28 00:57:02*
%MOMM*%
%LPD*%
G01*
G04 APERTURE LIST*
%ADD10R,1.700000X1.700000*%
%ADD11O,1.700000X1.700000*%
%ADD12R,1.600000X1.600000*%
%ADD13O,1.600000X1.600000*%
%ADD14R,2.000000X2.000000*%
%ADD15O,2.000000X2.000000*%
%ADD16C,1.600000*%
G04 APERTURE END LIST*
D10*
%TO.C,LOCAL_CONTROL1*%
X120000000Y-50000000D03*
D11*
X122540000Y-50000000D03*
X125080000Y-50000000D03*
X127620000Y-50000000D03*
%TD*%
D12*
%TO.C,ZX80_CONTROL.RD1*%
X52220000Y-48635000D03*
D13*
X54760000Y-48635000D03*
X57300000Y-48635000D03*
X59840000Y-48635000D03*
X62380000Y-48635000D03*
X64920000Y-48635000D03*
X67460000Y-48635000D03*
X70000000Y-48635000D03*
X70000000Y-41015000D03*
X67460000Y-41015000D03*
X64920000Y-41015000D03*
X62380000Y-41015000D03*
X59840000Y-41015000D03*
X57300000Y-41015000D03*
X54760000Y-41015000D03*
X52220000Y-41015000D03*
%TD*%
D14*
%TO.C,D5*%
X105000000Y-39920000D03*
D15*
X105000000Y-45000000D03*
%TD*%
D12*
%TO.C,IC1*%
X19375000Y-49800000D03*
D13*
X21915000Y-49800000D03*
X24455000Y-49800000D03*
X26995000Y-49800000D03*
X29535000Y-49800000D03*
X32075000Y-49800000D03*
X34615000Y-49800000D03*
X34615000Y-42180000D03*
X32075000Y-42180000D03*
X29535000Y-42180000D03*
X26995000Y-42180000D03*
X24455000Y-42180000D03*
X21915000Y-42180000D03*
X19375000Y-42180000D03*
%TD*%
D10*
%TO.C,J6*%
X120000000Y-12000000D03*
D11*
X120000000Y-14540000D03*
X120000000Y-17080000D03*
X120000000Y-19620000D03*
X120000000Y-22160000D03*
X120000000Y-24700000D03*
X120000000Y-27240000D03*
X120000000Y-29780000D03*
%TD*%
D14*
%TO.C,D3*%
X97000000Y-40000000D03*
D15*
X97000000Y-45080000D03*
%TD*%
D12*
%TO.C,RN1*%
X143000000Y-42000000D03*
D13*
X140460000Y-42000000D03*
X137920000Y-42000000D03*
X135380000Y-42000000D03*
X132840000Y-42000000D03*
X130300000Y-42000000D03*
X127760000Y-42000000D03*
X125220000Y-42000000D03*
X122680000Y-42000000D03*
%TD*%
D14*
%TO.C,D7*%
X143460000Y-47000000D03*
D15*
X148540000Y-47000000D03*
%TD*%
D14*
%TO.C,D1*%
X88000000Y-8000000D03*
D15*
X93080000Y-8000000D03*
%TD*%
D12*
%TO.C,LOCAL_D.WR1*%
X13260000Y-15000000D03*
D13*
X15800000Y-15000000D03*
X18340000Y-15000000D03*
X20880000Y-15000000D03*
X23420000Y-15000000D03*
X25960000Y-15000000D03*
X28500000Y-15000000D03*
X31040000Y-15000000D03*
X31040000Y-7380000D03*
X28500000Y-7380000D03*
X25960000Y-7380000D03*
X23420000Y-7380000D03*
X20880000Y-7380000D03*
X18340000Y-7380000D03*
X15800000Y-7380000D03*
X13260000Y-7380000D03*
%TD*%
D12*
%TO.C,LOCAL_D.RD1*%
X13220000Y-30500000D03*
D13*
X15760000Y-30500000D03*
X18300000Y-30500000D03*
X20840000Y-30500000D03*
X23380000Y-30500000D03*
X25920000Y-30500000D03*
X28460000Y-30500000D03*
X31000000Y-30500000D03*
X31000000Y-22880000D03*
X28460000Y-22880000D03*
X25920000Y-22880000D03*
X23380000Y-22880000D03*
X20840000Y-22880000D03*
X18300000Y-22880000D03*
X15760000Y-22880000D03*
X13220000Y-22880000D03*
%TD*%
D12*
%TO.C,ESP_CONTROL.WR1*%
X52220000Y-15635000D03*
D13*
X54760000Y-15635000D03*
X57300000Y-15635000D03*
X59840000Y-15635000D03*
X62380000Y-15635000D03*
X64920000Y-15635000D03*
X67460000Y-15635000D03*
X70000000Y-15635000D03*
X70000000Y-8015000D03*
X67460000Y-8015000D03*
X64920000Y-8015000D03*
X62380000Y-8015000D03*
X59840000Y-8015000D03*
X57300000Y-8015000D03*
X54760000Y-8015000D03*
X52220000Y-8015000D03*
%TD*%
D10*
%TO.C,J3*%
X4000000Y-12000000D03*
D11*
X4000000Y-14540000D03*
X4000000Y-17080000D03*
X4000000Y-19620000D03*
X4000000Y-22160000D03*
X4000000Y-24700000D03*
X4000000Y-27240000D03*
X4000000Y-29780000D03*
%TD*%
D12*
%TO.C,CONTROL.SELECT1*%
X52000000Y-31620000D03*
D13*
X54540000Y-31620000D03*
X57080000Y-31620000D03*
X59620000Y-31620000D03*
X62160000Y-31620000D03*
X64700000Y-31620000D03*
X67240000Y-31620000D03*
X69780000Y-31620000D03*
X72320000Y-31620000D03*
X74860000Y-31620000D03*
X74860000Y-24000000D03*
X72320000Y-24000000D03*
X69780000Y-24000000D03*
X67240000Y-24000000D03*
X64700000Y-24000000D03*
X62160000Y-24000000D03*
X59620000Y-24000000D03*
X57080000Y-24000000D03*
X54540000Y-24000000D03*
X52000000Y-24000000D03*
%TD*%
D14*
%TO.C,D4*%
X101000000Y-40000000D03*
D15*
X101000000Y-45080000D03*
%TD*%
D10*
%TO.C,J1*%
X4000000Y-50000000D03*
D11*
X6540000Y-50000000D03*
X9080000Y-50000000D03*
X11620000Y-50000000D03*
%TD*%
D10*
%TO.C,J7*%
X150000000Y-12000000D03*
D11*
X150000000Y-14540000D03*
X150000000Y-17080000D03*
X150000000Y-19620000D03*
X150000000Y-22160000D03*
X150000000Y-24700000D03*
X150000000Y-27240000D03*
X150000000Y-29780000D03*
%TD*%
D12*
%TO.C,LOCAL_ADDR-H.WR1*%
X126220000Y-14620000D03*
D13*
X128760000Y-14620000D03*
X131300000Y-14620000D03*
X133840000Y-14620000D03*
X136380000Y-14620000D03*
X138920000Y-14620000D03*
X141460000Y-14620000D03*
X144000000Y-14620000D03*
X144000000Y-7000000D03*
X141460000Y-7000000D03*
X138920000Y-7000000D03*
X136380000Y-7000000D03*
X133840000Y-7000000D03*
X131300000Y-7000000D03*
X128760000Y-7000000D03*
X126220000Y-7000000D03*
%TD*%
D12*
%TO.C,LOCAL_ADDR-L.WR1*%
X96220000Y-15000000D03*
D13*
X98760000Y-15000000D03*
X101300000Y-15000000D03*
X103840000Y-15000000D03*
X106380000Y-15000000D03*
X108920000Y-15000000D03*
X111460000Y-15000000D03*
X114000000Y-15000000D03*
X114000000Y-7380000D03*
X111460000Y-7380000D03*
X108920000Y-7380000D03*
X106380000Y-7380000D03*
X103840000Y-7380000D03*
X101300000Y-7380000D03*
X98760000Y-7380000D03*
X96220000Y-7380000D03*
%TD*%
D14*
%TO.C,D6*%
X109000000Y-39920000D03*
D15*
X109000000Y-45000000D03*
%TD*%
D12*
%TO.C,LOCAL_A-H.RD1*%
X126220000Y-30000000D03*
D13*
X128760000Y-30000000D03*
X131300000Y-30000000D03*
X133840000Y-30000000D03*
X136380000Y-30000000D03*
X138920000Y-30000000D03*
X141460000Y-30000000D03*
X144000000Y-30000000D03*
X144000000Y-22380000D03*
X141460000Y-22380000D03*
X138920000Y-22380000D03*
X136380000Y-22380000D03*
X133840000Y-22380000D03*
X131300000Y-22380000D03*
X128760000Y-22380000D03*
X126220000Y-22380000D03*
%TD*%
D12*
%TO.C,ESP_CONTROL.Bias1*%
X84000000Y-9000000D03*
D13*
X84000000Y-11540000D03*
X84000000Y-14080000D03*
X84000000Y-16620000D03*
X84000000Y-19160000D03*
X84000000Y-21700000D03*
X84000000Y-24240000D03*
X84000000Y-26780000D03*
X84000000Y-29320000D03*
%TD*%
D14*
%TO.C,D2*%
X43000000Y-8000000D03*
D15*
X48080000Y-8000000D03*
%TD*%
D12*
%TO.C,LOCAL_A-L.RD1*%
X96220000Y-30000000D03*
D13*
X98760000Y-30000000D03*
X101300000Y-30000000D03*
X103840000Y-30000000D03*
X106380000Y-30000000D03*
X108920000Y-30000000D03*
X111460000Y-30000000D03*
X114000000Y-30000000D03*
X114000000Y-22380000D03*
X111460000Y-22380000D03*
X108920000Y-22380000D03*
X106380000Y-22380000D03*
X103840000Y-22380000D03*
X101300000Y-22380000D03*
X98760000Y-22380000D03*
X96220000Y-22380000D03*
%TD*%
D10*
%TO.C,J2*%
X43000000Y-12000000D03*
D11*
X43000000Y-14540000D03*
X43000000Y-17080000D03*
X43000000Y-19620000D03*
X43000000Y-22160000D03*
X43000000Y-24700000D03*
X43000000Y-27240000D03*
X43000000Y-29780000D03*
%TD*%
D10*
%TO.C,J5*%
X88000000Y-50000000D03*
D11*
X90540000Y-50000000D03*
X93080000Y-50000000D03*
X95620000Y-50000000D03*
X98160000Y-50000000D03*
X100700000Y-50000000D03*
X103240000Y-50000000D03*
X105780000Y-50000000D03*
X108320000Y-50000000D03*
X110860000Y-50000000D03*
%TD*%
D16*
%TO.C,R1*%
X4000000Y-41000000D03*
D13*
X14160000Y-41000000D03*
%TD*%
D12*
%TO.C,LOCAL_D.Bias1*%
X39000000Y-9000000D03*
D13*
X39000000Y-11540000D03*
X39000000Y-14080000D03*
X39000000Y-16620000D03*
X39000000Y-19160000D03*
X39000000Y-21700000D03*
X39000000Y-24240000D03*
X39000000Y-26780000D03*
X39000000Y-29320000D03*
%TD*%
D10*
%TO.C,J4*%
X88000000Y-12000000D03*
D11*
X88000000Y-14540000D03*
X88000000Y-17080000D03*
X88000000Y-19620000D03*
X88000000Y-22160000D03*
X88000000Y-24700000D03*
X88000000Y-27240000D03*
X88000000Y-29780000D03*
%TD*%
M02*
