M48
; DRILL file {KiCad 7.0.2} date Sun 14 May 2023 22:56:27 BST
; FORMAT={-:-/ absolute / metric / decimal}
; #@! TF.CreationDate,2023-05-14T22:56:27+01:00
; #@! TF.GenerationSoftware,Kicad,Pcbnew,7.0.2
; #@! TF.FileFunction,Plated,1,2,PTH
FMAT,2
METRIC
; #@! TA.AperFunction,Plated,PTH,ViaDrill
T1C0.400
; #@! TA.AperFunction,Plated,PTH,ComponentDrill
T2C0.750
; #@! TA.AperFunction,Plated,PTH,ComponentDrill
T3C0.800
; #@! TA.AperFunction,Plated,PTH,ComponentDrill
T4C1.000
%
G90
G05
T1
X56.326Y-92.219
X64.554Y-149.259
X65.383Y-127.867
X66.263Y-107.479
X69.1Y-104.635
X70.0Y-68.614
X74.424Y-141.207
X76.352Y-149.12
X78.2Y-123.04
X79.7Y-124.369
X81.2Y-147.317
X85.097Y-63.227
X94.929Y-154.625
X95.902Y-119.112
X99.701Y-112.933
X99.701Y-115.967
X99.799Y-111.305
X106.8Y-105.467
X108.667Y-140.25
X112.604Y-74.343
X118.787Y-53.466
X119.846Y-138.149
X129.341Y-147.514
T2
X140.71Y-65.375
X141.98Y-64.105
X143.25Y-65.375
T3
X54.455Y-180.175
X56.995Y-180.175
X59.535Y-180.175
X60.58Y-59.225
X60.58Y-61.765
X60.58Y-64.305
X60.58Y-66.845
X60.58Y-69.385
X60.58Y-71.925
X60.58Y-74.465
X60.58Y-84.307
X60.58Y-86.847
X60.58Y-89.387
X60.58Y-91.927
X60.58Y-94.467
X60.58Y-97.007
X60.58Y-99.547
X60.58Y-109.388
X60.58Y-111.928
X60.58Y-114.468
X60.58Y-117.008
X60.58Y-119.548
X60.58Y-122.088
X60.58Y-124.628
X60.58Y-134.47
X60.58Y-137.01
X60.58Y-139.55
X60.58Y-142.09
X60.58Y-144.63
X60.58Y-147.17
X60.58Y-149.71
X60.58Y-152.25
X60.58Y-154.79
X60.58Y-157.33
X62.075Y-180.175
X64.615Y-180.175
X67.155Y-180.175
X68.2Y-59.225
X68.2Y-61.765
X68.2Y-64.305
X68.2Y-66.845
X68.2Y-69.385
X68.2Y-71.925
X68.2Y-74.465
X68.2Y-84.307
X68.2Y-86.847
X68.2Y-89.387
X68.2Y-91.927
X68.2Y-94.467
X68.2Y-97.007
X68.2Y-99.547
X68.2Y-109.388
X68.2Y-111.928
X68.2Y-114.468
X68.2Y-117.008
X68.2Y-119.548
X68.2Y-122.088
X68.2Y-124.628
X68.2Y-134.47
X68.2Y-137.01
X68.2Y-139.55
X68.2Y-142.09
X68.2Y-144.63
X68.2Y-147.17
X68.2Y-149.71
X68.2Y-152.25
X68.2Y-154.79
X68.2Y-157.33
X69.695Y-180.175
X72.235Y-180.175
X74.775Y-180.175
X108.6Y-58.74
X108.6Y-61.28
X108.6Y-63.82
X108.6Y-66.36
X108.6Y-68.9
X108.6Y-71.44
X108.6Y-73.98
X108.6Y-86.51
X108.6Y-89.05
X108.6Y-91.59
X108.6Y-94.13
X108.6Y-96.67
X108.6Y-99.21
X108.6Y-101.75
X108.6Y-114.28
X108.6Y-116.82
X108.6Y-119.36
X108.6Y-121.9
X108.6Y-124.44
X108.6Y-126.98
X108.6Y-129.52
X108.6Y-142.05
X108.6Y-144.59
X108.6Y-147.13
X108.6Y-149.67
X108.6Y-152.21
X108.6Y-154.75
X108.6Y-157.29
X116.22Y-58.74
X116.22Y-61.28
X116.22Y-63.82
X116.22Y-66.36
X116.22Y-68.9
X116.22Y-71.44
X116.22Y-73.98
X116.22Y-86.51
X116.22Y-89.05
X116.22Y-91.59
X116.22Y-94.13
X116.22Y-96.67
X116.22Y-99.21
X116.22Y-101.75
X116.22Y-114.28
X116.22Y-116.82
X116.22Y-119.36
X116.22Y-121.9
X116.22Y-124.44
X116.22Y-126.98
X116.22Y-129.52
X116.22Y-142.05
X116.22Y-144.59
X116.22Y-147.13
X116.22Y-149.67
X116.22Y-152.21
X116.22Y-154.75
X116.22Y-157.29
X126.58Y-106.335
X126.58Y-108.875
X126.58Y-111.415
X126.58Y-113.955
X126.58Y-116.495
X126.58Y-119.035
X126.58Y-121.575
X126.925Y-77.575
X126.925Y-80.115
X126.925Y-82.655
X126.925Y-85.195
X126.925Y-87.735
X126.925Y-90.275
X126.925Y-92.815
X127.71Y-62.375
X131.71Y-56.375
X133.555Y-163.825
X133.555Y-166.365
X133.555Y-168.905
X133.555Y-171.445
X133.555Y-173.985
X133.555Y-176.525
X133.555Y-179.065
X134.2Y-106.335
X134.2Y-108.875
X134.2Y-111.415
X134.2Y-113.955
X134.2Y-116.495
X134.2Y-119.035
X134.2Y-121.575
X134.545Y-77.575
X134.545Y-80.115
X134.545Y-82.655
X134.545Y-85.195
X134.545Y-87.735
X134.545Y-90.275
X134.545Y-92.815
X137.87Y-62.375
X140.775Y-108.875
X140.775Y-149.85
X141.175Y-163.825
X141.175Y-166.365
X141.175Y-168.905
X141.175Y-171.445
X141.175Y-173.985
X141.175Y-176.525
X141.175Y-179.065
X141.87Y-56.375
X143.178Y-117.495
X143.178Y-127.655
X143.178Y-132.725
X143.178Y-142.885
X145.775Y-108.875
X145.775Y-149.85
T4
X60.57Y-54.3
X65.65Y-54.3
X75.875Y-58.825
X75.875Y-63.905
X79.07Y-180.25
X84.15Y-180.25
X87.625Y-60.39
X87.625Y-62.93
X87.625Y-65.47
X87.625Y-68.01
X87.625Y-70.55
X87.625Y-73.09
X87.625Y-75.63
X87.625Y-78.17
X87.625Y-80.71
X87.625Y-83.25
X87.625Y-85.79
X87.625Y-88.33
X87.625Y-90.87
X87.625Y-93.41
X87.625Y-95.95
X87.625Y-98.49
X87.625Y-101.03
X87.625Y-103.57
X87.625Y-106.11
X87.625Y-108.65
X87.625Y-111.19
X87.625Y-113.73
X87.625Y-116.27
X87.625Y-118.81
X87.625Y-121.35
X87.625Y-123.89
X87.625Y-126.43
X87.625Y-128.97
X87.625Y-131.51
X87.625Y-134.05
X87.625Y-136.59
X87.625Y-139.13
X87.625Y-141.67
X87.625Y-144.21
X87.625Y-146.75
X87.625Y-149.29
X87.625Y-151.83
X87.625Y-154.37
X87.625Y-156.91
X87.625Y-159.45
X90.165Y-60.39
X90.165Y-62.93
X90.165Y-65.47
X90.165Y-68.01
X90.165Y-70.55
X90.165Y-73.09
X90.165Y-75.63
X90.165Y-78.17
X90.165Y-80.71
X90.165Y-83.25
X90.165Y-85.79
X90.165Y-88.33
X90.165Y-90.87
X90.165Y-93.41
X90.165Y-95.95
X90.165Y-98.49
X90.165Y-101.03
X90.165Y-103.57
X90.165Y-106.11
X90.165Y-108.65
X90.165Y-111.19
X90.165Y-113.73
X90.165Y-116.27
X90.165Y-118.81
X90.165Y-121.35
X90.165Y-123.89
X90.165Y-126.43
X90.165Y-128.97
X90.165Y-131.51
X90.165Y-134.05
X90.165Y-136.59
X90.165Y-139.13
X90.165Y-141.67
X90.165Y-144.21
X90.165Y-146.75
X90.165Y-149.29
X90.165Y-151.83
X90.165Y-154.37
X90.165Y-156.91
X90.165Y-159.45
X134.4Y-129.9
X134.4Y-134.98
T0
M30
