%TF.GenerationSoftware,KiCad,Pcbnew,7.0.2*%
%TF.CreationDate,2023-06-04T09:31:09+01:00*%
%TF.ProjectId,RIO-128K_ZXspectrum_impl_narrow,52494f2d-3132-4384-9b5f-5a5873706563,rev?*%
%TF.SameCoordinates,PX69db9c0PY3ef1480*%
%TF.FileFunction,Copper,L1,Top*%
%TF.FilePolarity,Positive*%
%FSLAX46Y46*%
G04 Gerber Fmt 4.6, Leading zero omitted, Abs format (unit mm)*
G04 Created by KiCad (PCBNEW 7.0.2) date 2023-06-04 09:31:09*
%MOMM*%
%LPD*%
G01*
G04 APERTURE LIST*
%TA.AperFunction,ComponentPad*%
%ADD10R,1.600000X1.600000*%
%TD*%
%TA.AperFunction,ComponentPad*%
%ADD11O,1.600000X1.600000*%
%TD*%
%TA.AperFunction,ComponentPad*%
%ADD12C,1.600000*%
%TD*%
%TA.AperFunction,ComponentPad*%
%ADD13R,1.700000X1.700000*%
%TD*%
%TA.AperFunction,ComponentPad*%
%ADD14O,1.700000X1.700000*%
%TD*%
%TA.AperFunction,ViaPad*%
%ADD15C,1.000000*%
%TD*%
%TA.AperFunction,Conductor*%
%ADD16C,0.400000*%
%TD*%
G04 APERTURE END LIST*
D10*
%TO.P,RIO_DECODER1,1,A->B*%
%TO.N,Net-(RIO_DECODER1-A->B)*%
X24000000Y-10000000D03*
D11*
%TO.P,RIO_DECODER1,2,A0*%
%TO.N,/RIO-128K_ZXspectrum/ROM_D0*%
X24000000Y-12540000D03*
%TO.P,RIO_DECODER1,3,A1*%
%TO.N,/RIO-128K_ZXspectrum/ROM_D1*%
X24000000Y-15080000D03*
%TO.P,RIO_DECODER1,4,A2*%
%TO.N,/RIO-128K_ZXspectrum/ROM_D2*%
X24000000Y-17620000D03*
%TO.P,RIO_DECODER1,5,A3*%
%TO.N,/RIO-128K_ZXspectrum/ROM_D3*%
X24000000Y-20160000D03*
%TO.P,RIO_DECODER1,6,A4*%
%TO.N,/RIO-128K_ZXspectrum/ROM_D4*%
X24000000Y-22700000D03*
%TO.P,RIO_DECODER1,7,A5*%
%TO.N,/RIO-128K_ZXspectrum/ROM_D5*%
X24000000Y-25240000D03*
%TO.P,RIO_DECODER1,8,A6*%
%TO.N,/RIO-128K_ZXspectrum/ROM_D6*%
X24000000Y-27780000D03*
%TO.P,RIO_DECODER1,9,A7*%
%TO.N,/RIO-128K_ZXspectrum/ROM_D7*%
X24000000Y-30320000D03*
%TO.P,RIO_DECODER1,10,GND*%
%TO.N,GND*%
X24000000Y-32860000D03*
%TO.P,RIO_DECODER1,11,B7*%
%TO.N,/RIO-128K_ZXspectrum/Z80_HARDLOCK_SET*%
X31620000Y-32860000D03*
%TO.P,RIO_DECODER1,12,B6*%
%TO.N,/RIO-128K_ZXspectrum/Z80_HARDLOCK_RESET*%
X31620000Y-30320000D03*
%TO.P,RIO_DECODER1,13,B5*%
%TO.N,/RIO-128K_ZXspectrum/WAIT_IO*%
X31620000Y-27780000D03*
%TO.P,RIO_DECODER1,14,B4*%
%TO.N,/RIO-128K_ZXspectrum/CACHE_DATASTATUS*%
X31620000Y-25240000D03*
%TO.P,RIO_DECODER1,15,B3*%
%TO.N,/RIO-128K_ZXspectrum/CACHE_SEL_3*%
X31620000Y-22700000D03*
%TO.P,RIO_DECODER1,16,B2*%
%TO.N,/RIO-128K_ZXspectrum/CACHE_SEL_2*%
X31620000Y-20160000D03*
%TO.P,RIO_DECODER1,17,B1*%
%TO.N,/RIO-128K_ZXspectrum/CACHE_SEL_1*%
X31620000Y-17620000D03*
%TO.P,RIO_DECODER1,18,B0*%
%TO.N,/RIO-128K_ZXspectrum/CACHE_SEL_0*%
X31620000Y-15080000D03*
%TO.P,RIO_DECODER1,19,CE*%
%TO.N,/RIO-128K_ZXspectrum/PERM_Z80_IORQ*%
X31620000Y-12540000D03*
%TO.P,RIO_DECODER1,20,VCC*%
%TO.N,+5V*%
X31620000Y-10000000D03*
%TD*%
D12*
%TO.P,R3,1*%
%TO.N,/RIO-128K_ZXspectrum/CACHE_DATASTATUS*%
X34160000Y-4000000D03*
D11*
%TO.P,R3,2*%
%TO.N,+5V*%
X24000000Y-4000000D03*
%TD*%
D10*
%TO.P,RIO1,1,NC*%
%TO.N,unconnected-(RIO1-NC-Pad1)*%
X14000000Y-51000000D03*
D11*
%TO.P,RIO1,2,A16*%
%TO.N,/RIO-128K_ZXspectrum/RIO_CONTROL.A16*%
X14000000Y-53540000D03*
%TO.P,RIO1,3,A14*%
%TO.N,/RIO-128K_ZXspectrum/RIO_CONTROL.A14*%
X14000000Y-56080000D03*
%TO.P,RIO1,4,A12*%
%TO.N,/RIO-128K_ZXspectrum/Z80_A12*%
X14000000Y-58620000D03*
%TO.P,RIO1,5,A7*%
%TO.N,/RIO-128K_ZXspectrum/Z80_A7*%
X14000000Y-61160000D03*
%TO.P,RIO1,6,A6*%
%TO.N,/RIO-128K_ZXspectrum/Z80_A6*%
X14000000Y-63700000D03*
%TO.P,RIO1,7,A5*%
%TO.N,/RIO-128K_ZXspectrum/Z80_A5*%
X14000000Y-66240000D03*
%TO.P,RIO1,8,A4*%
%TO.N,/RIO-128K_ZXspectrum/Z80_A4*%
X14000000Y-68780000D03*
%TO.P,RIO1,9,A3*%
%TO.N,/RIO-128K_ZXspectrum/Z80_A3*%
X14000000Y-71320000D03*
%TO.P,RIO1,10,A2*%
%TO.N,/RIO-128K_ZXspectrum/Z80_A2*%
X14000000Y-73860000D03*
%TO.P,RIO1,11,A1*%
%TO.N,/RIO-128K_ZXspectrum/Z80_A1*%
X14000000Y-76400000D03*
%TO.P,RIO1,12,A0*%
%TO.N,/RIO-128K_ZXspectrum/Z80_A0*%
X14000000Y-78940000D03*
%TO.P,RIO1,13,DQ0*%
%TO.N,/RIO-128K_ZXspectrum/ROM_D0*%
X14000000Y-81480000D03*
%TO.P,RIO1,14,DQ1*%
%TO.N,/RIO-128K_ZXspectrum/ROM_D1*%
X14000000Y-84020000D03*
%TO.P,RIO1,15,DQ2*%
%TO.N,/RIO-128K_ZXspectrum/ROM_D2*%
X14000000Y-86560000D03*
%TO.P,RIO1,16,VSS*%
%TO.N,GND*%
X14000000Y-89100000D03*
%TO.P,RIO1,17,DQ3*%
%TO.N,/RIO-128K_ZXspectrum/ROM_D3*%
X29240000Y-89100000D03*
%TO.P,RIO1,18,DQ4*%
%TO.N,/RIO-128K_ZXspectrum/ROM_D4*%
X29240000Y-86560000D03*
%TO.P,RIO1,19,DQ5*%
%TO.N,/RIO-128K_ZXspectrum/ROM_D5*%
X29240000Y-84020000D03*
%TO.P,RIO1,20,DQ6*%
%TO.N,/RIO-128K_ZXspectrum/ROM_D6*%
X29240000Y-81480000D03*
%TO.P,RIO1,21,DQ7*%
%TO.N,/RIO-128K_ZXspectrum/ROM_D7*%
X29240000Y-78940000D03*
%TO.P,RIO1,22,CE#*%
%TO.N,/RIO-128K_ZXspectrum/RIO_CONTROL.CE*%
X29240000Y-76400000D03*
%TO.P,RIO1,23,A10*%
%TO.N,/RIO-128K_ZXspectrum/Z80_A10*%
X29240000Y-73860000D03*
%TO.P,RIO1,24,OE#*%
%TO.N,/RIO-128K_ZXspectrum/RIO_CONTROL.OE*%
X29240000Y-71320000D03*
%TO.P,RIO1,25,A11*%
%TO.N,/RIO-128K_ZXspectrum/Z80_A11*%
X29240000Y-68780000D03*
%TO.P,RIO1,26,A9*%
%TO.N,/RIO-128K_ZXspectrum/Z80_A9*%
X29240000Y-66240000D03*
%TO.P,RIO1,27,A8*%
%TO.N,/RIO-128K_ZXspectrum/Z80_A8*%
X29240000Y-63700000D03*
%TO.P,RIO1,28,A13*%
%TO.N,/RIO-128K_ZXspectrum/Z80_A13*%
X29240000Y-61160000D03*
%TO.P,RIO1,29,WE#*%
%TO.N,/RIO-128K_ZXspectrum/RIO_CONTROL.WE*%
X29240000Y-58620000D03*
%TO.P,RIO1,30,CE2#*%
%TO.N,/RIO-128K_ZXspectrum/RIO_CE2*%
X29240000Y-56080000D03*
%TO.P,RIO1,31,A15*%
%TO.N,/RIO-128K_ZXspectrum/RIO_CONTROL.A15*%
X29240000Y-53540000D03*
%TO.P,RIO1,32,VCC*%
%TO.N,+5V*%
X29240000Y-51000000D03*
%TD*%
D10*
%TO.P,Z80-RIO_DATA1,1,A->B*%
%TO.N,/RIO-128K_ZXspectrum/RIO_CONTROL.OE*%
X11200000Y-10000000D03*
D11*
%TO.P,Z80-RIO_DATA1,2,A0*%
%TO.N,/RIO-128K_ZXspectrum/Z80_D0*%
X11200000Y-12540000D03*
%TO.P,Z80-RIO_DATA1,3,A1*%
%TO.N,/RIO-128K_ZXspectrum/Z80_D1*%
X11200000Y-15080000D03*
%TO.P,Z80-RIO_DATA1,4,A2*%
%TO.N,/RIO-128K_ZXspectrum/Z80_D2*%
X11200000Y-17620000D03*
%TO.P,Z80-RIO_DATA1,5,A3*%
%TO.N,/RIO-128K_ZXspectrum/Z80_D3*%
X11200000Y-20160000D03*
%TO.P,Z80-RIO_DATA1,6,A4*%
%TO.N,/RIO-128K_ZXspectrum/Z80_D4*%
X11200000Y-22700000D03*
%TO.P,Z80-RIO_DATA1,7,A5*%
%TO.N,/RIO-128K_ZXspectrum/Z80_D5*%
X11200000Y-25240000D03*
%TO.P,Z80-RIO_DATA1,8,A6*%
%TO.N,/RIO-128K_ZXspectrum/Z80_D6*%
X11200000Y-27780000D03*
%TO.P,Z80-RIO_DATA1,9,A7*%
%TO.N,/RIO-128K_ZXspectrum/Z80_D7*%
X11200000Y-30320000D03*
%TO.P,Z80-RIO_DATA1,10,GND*%
%TO.N,GND*%
X11200000Y-32860000D03*
%TO.P,Z80-RIO_DATA1,11,B7*%
%TO.N,/RIO-128K_ZXspectrum/ROM_D7*%
X18820000Y-32860000D03*
%TO.P,Z80-RIO_DATA1,12,B6*%
%TO.N,/RIO-128K_ZXspectrum/ROM_D6*%
X18820000Y-30320000D03*
%TO.P,Z80-RIO_DATA1,13,B5*%
%TO.N,/RIO-128K_ZXspectrum/ROM_D5*%
X18820000Y-27780000D03*
%TO.P,Z80-RIO_DATA1,14,B4*%
%TO.N,/RIO-128K_ZXspectrum/ROM_D4*%
X18820000Y-25240000D03*
%TO.P,Z80-RIO_DATA1,15,B3*%
%TO.N,/RIO-128K_ZXspectrum/ROM_D3*%
X18820000Y-22700000D03*
%TO.P,Z80-RIO_DATA1,16,B2*%
%TO.N,/RIO-128K_ZXspectrum/ROM_D2*%
X18820000Y-20160000D03*
%TO.P,Z80-RIO_DATA1,17,B1*%
%TO.N,/RIO-128K_ZXspectrum/ROM_D1*%
X18820000Y-17620000D03*
%TO.P,Z80-RIO_DATA1,18,B0*%
%TO.N,/RIO-128K_ZXspectrum/ROM_D0*%
X18820000Y-15080000D03*
%TO.P,Z80-RIO_DATA1,19,CE*%
%TO.N,/RIO-128K_ZXspectrum/RIO_CONTROL.ROM_RDY*%
X18820000Y-12540000D03*
%TO.P,Z80-RIO_DATA1,20,VCC*%
%TO.N,+5V*%
X18820000Y-10000000D03*
%TD*%
D13*
%TO.P,J1,1,Pin_1*%
%TO.N,/RIO-128K_ZXspectrum/Z80_D0*%
X4000000Y-4000000D03*
D14*
%TO.P,J1,2,Pin_2*%
%TO.N,/RIO-128K_ZXspectrum/Z80_D1*%
X4000000Y-6540000D03*
%TO.P,J1,3,Pin_3*%
%TO.N,/RIO-128K_ZXspectrum/Z80_D2*%
X4000000Y-9080000D03*
%TO.P,J1,4,Pin_4*%
%TO.N,/RIO-128K_ZXspectrum/Z80_D3*%
X4000000Y-11620000D03*
%TO.P,J1,5,Pin_5*%
%TO.N,/RIO-128K_ZXspectrum/Z80_D4*%
X4000000Y-14160000D03*
%TO.P,J1,6,Pin_6*%
%TO.N,/RIO-128K_ZXspectrum/Z80_D5*%
X4000000Y-16700000D03*
%TO.P,J1,7,Pin_7*%
%TO.N,/RIO-128K_ZXspectrum/Z80_D6*%
X4000000Y-19240000D03*
%TO.P,J1,8,Pin_8*%
%TO.N,/RIO-128K_ZXspectrum/Z80_D7*%
X4000000Y-21780000D03*
%TO.P,J1,9,Pin_9*%
%TO.N,/RIO-128K_ZXspectrum/Z80_A0*%
X4000000Y-24320000D03*
%TO.P,J1,10,Pin_10*%
%TO.N,/RIO-128K_ZXspectrum/Z80_A1*%
X4000000Y-26860000D03*
%TO.P,J1,11,Pin_11*%
%TO.N,/RIO-128K_ZXspectrum/Z80_A2*%
X4000000Y-29400000D03*
%TO.P,J1,12,Pin_12*%
%TO.N,/RIO-128K_ZXspectrum/Z80_A3*%
X4000000Y-31940000D03*
%TO.P,J1,13,Pin_13*%
%TO.N,/RIO-128K_ZXspectrum/Z80_A4*%
X4000000Y-34480000D03*
%TO.P,J1,14,Pin_14*%
%TO.N,/RIO-128K_ZXspectrum/Z80_A5*%
X4000000Y-37020000D03*
%TO.P,J1,15,Pin_15*%
%TO.N,/RIO-128K_ZXspectrum/Z80_A6*%
X4000000Y-39560000D03*
%TO.P,J1,16,Pin_16*%
%TO.N,/RIO-128K_ZXspectrum/Z80_A7*%
X4000000Y-42100000D03*
%TO.P,J1,17,Pin_17*%
%TO.N,/RIO-128K_ZXspectrum/Z80_A8*%
X4000000Y-44640000D03*
%TO.P,J1,18,Pin_18*%
%TO.N,/RIO-128K_ZXspectrum/Z80_A9*%
X4000000Y-47180000D03*
%TO.P,J1,19,Pin_19*%
%TO.N,/RIO-128K_ZXspectrum/Z80_A10*%
X4000000Y-49720000D03*
%TO.P,J1,20,Pin_20*%
%TO.N,/RIO-128K_ZXspectrum/Z80_A11*%
X4000000Y-52260000D03*
%TO.P,J1,21,Pin_21*%
%TO.N,/RIO-128K_ZXspectrum/Z80_A12*%
X4000000Y-54800000D03*
%TO.P,J1,22,Pin_22*%
%TO.N,/RIO-128K_ZXspectrum/Z80_A13*%
X4000000Y-57340000D03*
%TO.P,J1,23,Pin_23*%
%TO.N,/RIO-128K_ZXspectrum/Z80_A14*%
X4000000Y-59880000D03*
%TO.P,J1,24,Pin_24*%
%TO.N,/RIO-128K_ZXspectrum/Z80_A15*%
X4000000Y-62420000D03*
%TD*%
D13*
%TO.P,J2,1,Pin_1*%
%TO.N,+5V*%
X41000000Y-4000000D03*
D14*
%TO.P,J2,2,Pin_2*%
%TO.N,/RIO-128K_ZXspectrum/RIO_CONTROL.A16*%
X41000000Y-6540000D03*
%TO.P,J2,3,Pin_3*%
%TO.N,/RIO-128K_ZXspectrum/RIO_CONTROL.A15*%
X41000000Y-9080000D03*
%TO.P,J2,4,Pin_4*%
%TO.N,/RIO-128K_ZXspectrum/RIO_CONTROL.A14*%
X41000000Y-11620000D03*
%TO.P,J2,5,Pin_5*%
%TO.N,/RIO-128K_ZXspectrum/RIO_CONTROL.WE*%
X41000000Y-14160000D03*
%TO.P,J2,6,Pin_6*%
%TO.N,/RIO-128K_ZXspectrum/RIO_CONTROL.CE*%
X41000000Y-16700000D03*
%TO.P,J2,7,Pin_7*%
%TO.N,/RIO-128K_ZXspectrum/RIO_CONTROL.OE*%
X41000000Y-19240000D03*
%TO.P,J2,8,Pin_8*%
%TO.N,/RIO-128K_ZXspectrum/RIO_CONTROL.ROM_RDY*%
X41000000Y-21780000D03*
%TO.P,J2,9,Pin_9*%
%TO.N,/RIO-128K_ZXspectrum/CACHE_SEL_0*%
X41000000Y-24320000D03*
%TO.P,J2,10,Pin_10*%
%TO.N,/RIO-128K_ZXspectrum/CACHE_SEL_1*%
X41000000Y-26860000D03*
%TO.P,J2,11,Pin_11*%
%TO.N,/RIO-128K_ZXspectrum/CACHE_SEL_2*%
X41000000Y-29400000D03*
%TO.P,J2,12,Pin_12*%
%TO.N,/RIO-128K_ZXspectrum/CACHE_SEL_3*%
X41000000Y-31940000D03*
%TO.P,J2,13,Pin_13*%
%TO.N,/RIO-128K_ZXspectrum/CACHE_DATASTATUS*%
X41000000Y-34480000D03*
%TO.P,J2,14,Pin_14*%
%TO.N,/RIO-128K_ZXspectrum/WAIT_IO*%
X41000000Y-37020000D03*
%TO.P,J2,15,Pin_15*%
%TO.N,/RIO-128K_ZXspectrum/Z80_HARDLOCK_RESET*%
X41000000Y-39560000D03*
%TO.P,J2,16,Pin_16*%
%TO.N,/RIO-128K_ZXspectrum/Z80_HARDLOCK_SET*%
X41000000Y-42100000D03*
%TO.P,J2,17,Pin_17*%
%TO.N,/RIO-128K_ZXspectrum/PERM_Z80_IORQ*%
X41000000Y-44640000D03*
%TO.P,J2,18,Pin_18*%
%TO.N,GND*%
X41000000Y-47180000D03*
%TD*%
D12*
%TO.P,R1,1*%
%TO.N,+5V*%
X33240000Y-51000000D03*
D11*
%TO.P,R1,2*%
%TO.N,/RIO-128K_ZXspectrum/RIO_CE2*%
X33240000Y-61160000D03*
%TD*%
D12*
%TO.P,R2,1*%
%TO.N,Net-(RIO_DECODER1-A->B)*%
X19000000Y-4000000D03*
D11*
%TO.P,R2,2*%
%TO.N,+5V*%
X8840000Y-4000000D03*
%TD*%
D15*
%TO.N,*%
X0Y0D03*
%TO.N,/RIO-128K_ZXspectrum/Z80_A4*%
X7098500Y-35876100D03*
%TO.N,/RIO-128K_ZXspectrum/Z80_A5*%
X10009400Y-41909400D03*
%TO.N,/RIO-128K_ZXspectrum/Z80_A6*%
X11335500Y-44185300D03*
%TO.N,/RIO-128K_ZXspectrum/Z80_A7*%
X5997900Y-55942400D03*
%TO.N,/RIO-128K_ZXspectrum/Z80_A11*%
X26263200Y-68947100D03*
%TO.N,/RIO-128K_ZXspectrum/Z80_A13*%
X30840100Y-72466600D03*
%TO.N,/RIO-128K_ZXspectrum/RIO_CONTROL.A16*%
X14142500Y-42964200D03*
X26924900Y-9755800D03*
X26520700Y-39057100D03*
%TO.N,/RIO-128K_ZXspectrum/RIO_CONTROL.A14*%
X13775900Y-44606400D03*
X31924200Y-46416300D03*
%TO.N,GND*%
X23419400Y-36769700D03*
%TO.N,/RIO-128K_ZXspectrum/ROM_D3*%
X22612000Y-66048100D03*
%TO.N,/RIO-128K_ZXspectrum/RIO_CONTROL.CE*%
X35404700Y-55035800D03*
%TO.N,/RIO-128K_ZXspectrum/RIO_CONTROL.OE*%
X38349000Y-49439800D03*
%TO.N,/RIO-128K_ZXspectrum/Z80_HARDLOCK_RESET*%
X33490800Y-33984900D03*
%TO.N,/RIO-128K_ZXspectrum/RIO_CONTROL.ROM_RDY*%
X30034700Y-8531000D03*
%TD*%
D16*
%TO.N,/RIO-128K_ZXspectrum/Z80_D1*%
X9134700Y-13014700D02*
X11200000Y-15080000D01*
X4000000Y-6540000D02*
X9134700Y-11674700D01*
X9134700Y-11674700D02*
X9134700Y-13014700D01*
%TO.N,/RIO-128K_ZXspectrum/Z80_D2*%
X7941700Y-14361700D02*
X11200000Y-17620000D01*
X7941700Y-13021700D02*
X7941700Y-14361700D01*
X4000000Y-9080000D02*
X7941700Y-13021700D01*
%TO.N,/RIO-128K_ZXspectrum/Z80_D5*%
X4000000Y-16700000D02*
X9335700Y-22035700D01*
X9335700Y-22035700D02*
X9335700Y-23375700D01*
X9335700Y-23375700D02*
X11200000Y-25240000D01*
%TO.N,/RIO-128K_ZXspectrum/Z80_D6*%
X7208300Y-23788300D02*
X11200000Y-27780000D01*
X4000000Y-19240000D02*
X7208300Y-22448300D01*
X7208300Y-22448300D02*
X7208300Y-23788300D01*
%TO.N,/RIO-128K_ZXspectrum/Z80_D7*%
X5650200Y-23430200D02*
X5650200Y-24770200D01*
X5650200Y-24770200D02*
X11200000Y-30320000D01*
X4000000Y-21780000D02*
X5650200Y-23430200D01*
%TO.N,/RIO-128K_ZXspectrum/Z80_A4*%
X4000000Y-34480000D02*
X5702400Y-34480000D01*
X5702400Y-34480000D02*
X7098500Y-35876100D01*
%TO.N,/RIO-128K_ZXspectrum/Z80_A5*%
X5650100Y-37550100D02*
X10009400Y-41909400D01*
X5650100Y-37020000D02*
X5650100Y-37550100D01*
X4000000Y-37020000D02*
X5650100Y-37020000D01*
%TO.N,/RIO-128K_ZXspectrum/Z80_A6*%
X10275400Y-44185300D02*
X11335500Y-44185300D01*
X5650100Y-39560000D02*
X10275400Y-44185300D01*
X4000000Y-39560000D02*
X5650100Y-39560000D01*
%TO.N,/RIO-128K_ZXspectrum/Z80_A7*%
X11215500Y-61160000D02*
X14000000Y-61160000D01*
X5997900Y-55942400D02*
X11215500Y-61160000D01*
%TO.N,/RIO-128K_ZXspectrum/Z80_A8*%
X19129400Y-53589400D02*
X19129400Y-49121000D01*
X19129400Y-49121000D02*
X16331200Y-46322800D01*
X16331200Y-46322800D02*
X7332900Y-46322800D01*
X7332900Y-46322800D02*
X5650100Y-44640000D01*
X29240000Y-63700000D02*
X19129400Y-53589400D01*
X4000000Y-44640000D02*
X5650100Y-44640000D01*
%TO.N,/RIO-128K_ZXspectrum/Z80_A9*%
X18129300Y-55129300D02*
X18129300Y-49535200D01*
X15917000Y-47322900D02*
X5793000Y-47322900D01*
X5793000Y-47322900D02*
X5650100Y-47180000D01*
X18129300Y-49535200D02*
X15917000Y-47322900D01*
X29240000Y-66240000D02*
X18129300Y-55129300D01*
X4000000Y-47180000D02*
X5650100Y-47180000D01*
%TO.N,/RIO-128K_ZXspectrum/Z80_A10*%
X29240000Y-73860000D02*
X27563300Y-72183300D01*
X15502700Y-48323000D02*
X7047100Y-48323000D01*
X7047100Y-48323000D02*
X5650100Y-49720000D01*
X4000000Y-49720000D02*
X5650100Y-49720000D01*
X17129100Y-56749800D02*
X17129100Y-49949400D01*
X17129100Y-49949400D02*
X15502700Y-48323000D01*
X27563300Y-67184000D02*
X17129100Y-56749800D01*
X27563300Y-72183300D02*
X27563300Y-67184000D01*
%TO.N,/RIO-128K_ZXspectrum/Z80_A11*%
X9973600Y-52260000D02*
X12848000Y-49385600D01*
X26263200Y-67298200D02*
X26263200Y-68947100D01*
X15775600Y-50010200D02*
X15775600Y-56810600D01*
X15151000Y-49385600D02*
X15775600Y-50010200D01*
X15775600Y-56810600D02*
X26263200Y-67298200D01*
X4000000Y-52260000D02*
X9973600Y-52260000D01*
X12848000Y-49385600D02*
X15151000Y-49385600D01*
%TO.N,/RIO-128K_ZXspectrum/Z80_A12*%
X12399900Y-58620000D02*
X8422200Y-54642300D01*
X4157700Y-54642300D02*
X4000000Y-54800000D01*
X14000000Y-58620000D02*
X12399900Y-58620000D01*
X8422200Y-54642300D02*
X4157700Y-54642300D01*
%TO.N,/RIO-128K_ZXspectrum/Z80_A13*%
X30840100Y-62760100D02*
X30840100Y-72466600D01*
X29240000Y-61160000D02*
X30840100Y-62760100D01*
%TO.N,+5V*%
X39349900Y-4000000D02*
X37749000Y-5600900D01*
X37749000Y-5600900D02*
X27201000Y-5600900D01*
X27201000Y-5600900D02*
X25600100Y-4000000D01*
X41000000Y-4000000D02*
X39349900Y-4000000D01*
X33240000Y-51000000D02*
X29240000Y-51000000D01*
X24000000Y-4000000D02*
X25600100Y-4000000D01*
%TO.N,/RIO-128K_ZXspectrum/RIO_CE2*%
X30840100Y-57160000D02*
X30840100Y-56080000D01*
X33240000Y-59559900D02*
X30840100Y-57160000D01*
X29240000Y-56080000D02*
X30840100Y-56080000D01*
X33240000Y-61160000D02*
X33240000Y-59559900D01*
%TO.N,Net-(RIO_DECODER1-A->B)*%
X24000000Y-10000000D02*
X24000000Y-8399900D01*
X19000000Y-4000000D02*
X23399900Y-8399900D01*
X23399900Y-8399900D02*
X24000000Y-8399900D01*
%TO.N,/RIO-128K_ZXspectrum/CACHE_DATASTATUS*%
X39349900Y-32969900D02*
X31620000Y-25240000D01*
X41000000Y-34480000D02*
X39349900Y-34480000D01*
X39349900Y-34480000D02*
X39349900Y-32969900D01*
%TO.N,/RIO-128K_ZXspectrum/RIO_CONTROL.A16*%
X38755800Y-7134100D02*
X29546600Y-7134100D01*
X26520700Y-39057100D02*
X22613600Y-42964200D01*
X22613600Y-42964200D02*
X14142500Y-42964200D01*
X41000000Y-6540000D02*
X39349900Y-6540000D01*
X39349900Y-6540000D02*
X38755800Y-7134100D01*
X29546600Y-7134100D02*
X26924900Y-9755800D01*
%TO.N,/RIO-128K_ZXspectrum/RIO_CONTROL.A14*%
X30114300Y-44606400D02*
X13775900Y-44606400D01*
X31924200Y-46416300D02*
X30114300Y-44606400D01*
%TO.N,/RIO-128K_ZXspectrum/ROM_D0*%
X24000000Y-12540000D02*
X22399900Y-12540000D01*
X18820000Y-15080000D02*
X20420100Y-15080000D01*
X22399900Y-13100200D02*
X22399900Y-12540000D01*
X20420100Y-15080000D02*
X22399900Y-13100200D01*
%TO.N,/RIO-128K_ZXspectrum/ROM_D1*%
X18820000Y-17620000D02*
X20420100Y-17620000D01*
X20420100Y-17059800D02*
X22399900Y-15080000D01*
X20420100Y-17620000D02*
X20420100Y-17059800D01*
X24000000Y-15080000D02*
X22399900Y-15080000D01*
%TO.N,/RIO-128K_ZXspectrum/ROM_D2*%
X24000000Y-17620000D02*
X22399900Y-17620000D01*
X20420100Y-19599800D02*
X22399900Y-17620000D01*
X20420100Y-20160000D02*
X20420100Y-19599800D01*
X18820000Y-20160000D02*
X20420100Y-20160000D01*
%TO.N,GND*%
X41000000Y-47180000D02*
X41000000Y-48830100D01*
X14000000Y-89100000D02*
X15600100Y-89100000D01*
X15600100Y-89100000D02*
X17201200Y-90701100D01*
X29955700Y-90701100D02*
X41000000Y-79656800D01*
X11200000Y-32860000D02*
X12800100Y-32860000D01*
X12800100Y-32860000D02*
X16709800Y-36769700D01*
X39349900Y-46609800D02*
X25600100Y-32860000D01*
X41000000Y-47180000D02*
X39349900Y-47180000D01*
X24000000Y-32860000D02*
X25600100Y-32860000D01*
X16709800Y-36769700D02*
X23419400Y-36769700D01*
X17201200Y-90701100D02*
X29955700Y-90701100D01*
X39349900Y-47180000D02*
X39349900Y-46609800D01*
X41000000Y-79656800D02*
X41000000Y-48830100D01*
%TO.N,/RIO-128K_ZXspectrum/ROM_D3*%
X20420100Y-22700000D02*
X22399900Y-20720200D01*
X24000000Y-20160000D02*
X22399900Y-20160000D01*
X18820000Y-22700000D02*
X20420100Y-22700000D01*
X22399900Y-20720200D02*
X22399900Y-20160000D01*
X22612000Y-82472000D02*
X22612000Y-66048100D01*
X29240000Y-89100000D02*
X22612000Y-82472000D01*
%TO.N,/RIO-128K_ZXspectrum/ROM_D4*%
X20420100Y-25240000D02*
X20420100Y-24679800D01*
X18147600Y-34469500D02*
X17184900Y-33506800D01*
X18820000Y-25240000D02*
X20420100Y-25240000D01*
X39696400Y-76103600D02*
X39696400Y-48944700D01*
X25221200Y-34469500D02*
X18147600Y-34469500D01*
X39696400Y-48944700D02*
X25221200Y-34469500D01*
X20420100Y-24679800D02*
X22399900Y-22700000D01*
X29240000Y-86560000D02*
X39696400Y-76103600D01*
X24000000Y-22700000D02*
X22399900Y-22700000D01*
X17184900Y-33506800D02*
X17184900Y-26875100D01*
X17184900Y-26875100D02*
X18820000Y-25240000D01*
%TO.N,/RIO-128K_ZXspectrum/ROM_D5*%
X22399900Y-25800200D02*
X22399900Y-25240000D01*
X20420100Y-27780000D02*
X22399900Y-25800200D01*
X24000000Y-25240000D02*
X22399900Y-25240000D01*
X18820000Y-27780000D02*
X20420100Y-27780000D01*
%TO.N,/RIO-128K_ZXspectrum/ROM_D6*%
X18820000Y-30320000D02*
X20420100Y-30320000D01*
X20420100Y-30320000D02*
X22399900Y-28340200D01*
X22399900Y-28340200D02*
X22399900Y-27780000D01*
X24000000Y-27780000D02*
X22399900Y-27780000D01*
%TO.N,/RIO-128K_ZXspectrum/ROM_D7*%
X24000000Y-30320000D02*
X22399900Y-30320000D01*
X22399900Y-30320000D02*
X20420100Y-32299800D01*
X20420100Y-32299800D02*
X20420100Y-32860000D01*
X18820000Y-32860000D02*
X20420100Y-32860000D01*
%TO.N,/RIO-128K_ZXspectrum/RIO_CONTROL.CE*%
X29240000Y-76400000D02*
X35404700Y-70235300D01*
X35404700Y-70235300D02*
X35404700Y-55035800D01*
%TO.N,/RIO-128K_ZXspectrum/RIO_CONTROL.OE*%
X38349000Y-49439800D02*
X38349000Y-49046700D01*
X15515400Y-14315400D02*
X11200000Y-10000000D01*
X38349000Y-49046700D02*
X24771900Y-35469600D01*
X24771900Y-35469600D02*
X17733400Y-35469600D01*
X17733400Y-35469600D02*
X15515400Y-33251600D01*
X15515400Y-33251600D02*
X15515400Y-14315400D01*
%TO.N,/RIO-128K_ZXspectrum/Z80_HARDLOCK_SET*%
X39259900Y-42100000D02*
X39349900Y-42100000D01*
X31620000Y-32860000D02*
X31620000Y-34460100D01*
X41000000Y-42100000D02*
X39349900Y-42100000D01*
X31620000Y-34460100D02*
X39259900Y-42100000D01*
%TO.N,/RIO-128K_ZXspectrum/Z80_HARDLOCK_RESET*%
X41000000Y-39560000D02*
X39065900Y-39560000D01*
X39065900Y-39560000D02*
X33490800Y-33984900D01*
%TO.N,/RIO-128K_ZXspectrum/WAIT_IO*%
X33484300Y-29644300D02*
X31620000Y-27780000D01*
X33484300Y-31154400D02*
X33484300Y-29644300D01*
X41000000Y-37020000D02*
X39349900Y-37020000D01*
X39349900Y-37020000D02*
X33484300Y-31154400D01*
%TO.N,/RIO-128K_ZXspectrum/CACHE_SEL_3*%
X31620000Y-22700000D02*
X33220100Y-22700000D01*
X41000000Y-31940000D02*
X33220100Y-24160100D01*
X33220100Y-24160100D02*
X33220100Y-22700000D01*
%TO.N,/RIO-128K_ZXspectrum/CACHE_SEL_2*%
X36690600Y-24671900D02*
X36690600Y-25090600D01*
X33220100Y-20160000D02*
X33220100Y-21201400D01*
X36690600Y-25090600D02*
X41000000Y-29400000D01*
X31620000Y-20160000D02*
X33220100Y-20160000D01*
X33220100Y-21201400D02*
X36690600Y-24671900D01*
%TO.N,/RIO-128K_ZXspectrum/CACHE_SEL_1*%
X31620000Y-17620000D02*
X33220100Y-17620000D01*
X33220100Y-18661400D02*
X37451100Y-22892400D01*
X33220100Y-17620000D02*
X33220100Y-18661400D01*
X37451100Y-23311100D02*
X41000000Y-26860000D01*
X37451100Y-22892400D02*
X37451100Y-23311100D01*
%TO.N,/RIO-128K_ZXspectrum/CACHE_SEL_0*%
X33220100Y-15080000D02*
X37951100Y-19811000D01*
X31620000Y-15080000D02*
X33220100Y-15080000D01*
X37951100Y-19811000D02*
X37951100Y-21271100D01*
X37951100Y-21271100D02*
X41000000Y-24320000D01*
%TO.N,/RIO-128K_ZXspectrum/PERM_Z80_IORQ*%
X30012400Y-14147600D02*
X31620000Y-12540000D01*
X39349900Y-44640000D02*
X30012400Y-35302500D01*
X41000000Y-44640000D02*
X39349900Y-44640000D01*
X30012400Y-35302500D02*
X30012400Y-14147600D01*
%TO.N,/RIO-128K_ZXspectrum/RIO_CONTROL.ROM_RDY*%
X32333400Y-8377400D02*
X30188300Y-8377400D01*
X39349800Y-15393800D02*
X32333400Y-8377400D01*
X30188300Y-8377400D02*
X30034700Y-8531000D01*
X39349800Y-20129800D02*
X39349800Y-15393800D01*
X41000000Y-21780000D02*
X39349800Y-20129800D01*
%TD*%
M02*
