M48
; DRILL file {KiCad 7.0.2} date Sun 04 Jun 2023 09:30:34 BST
; FORMAT={-:-/ absolute / metric / decimal}
; #@! TF.CreationDate,2023-06-04T09:30:34+01:00
; #@! TF.GenerationSoftware,Kicad,Pcbnew,7.0.2
; #@! TF.FileFunction,Plated,1,2,PTH
FMAT,2
METRIC
; #@! TA.AperFunction,Plated,PTH,ViaDrill
T1C0.500
; #@! TA.AperFunction,Plated,PTH,ComponentDrill
T2C0.800
; #@! TA.AperFunction,Plated,PTH,ComponentDrill
T3C1.000
%
G90
G05
T1
X0.0Y0.0
X5.998Y-55.942
X7.098Y-35.876
X10.009Y-41.909
X11.335Y-44.185
X13.776Y-44.606
X14.143Y-42.964
X22.612Y-66.048
X23.419Y-36.77
X26.263Y-68.947
X26.521Y-39.057
X26.925Y-9.756
X30.035Y-8.531
X30.84Y-72.467
X31.924Y-46.416
X33.491Y-33.985
X35.405Y-55.036
X38.349Y-49.44
T2
X8.84Y-4.0
X11.2Y-10.0
X11.2Y-12.54
X11.2Y-15.08
X11.2Y-17.62
X11.2Y-20.16
X11.2Y-22.7
X11.2Y-25.24
X11.2Y-27.78
X11.2Y-30.32
X11.2Y-32.86
X14.0Y-51.0
X14.0Y-53.54
X14.0Y-56.08
X14.0Y-58.62
X14.0Y-61.16
X14.0Y-63.7
X14.0Y-66.24
X14.0Y-68.78
X14.0Y-71.32
X14.0Y-73.86
X14.0Y-76.4
X14.0Y-78.94
X14.0Y-81.48
X14.0Y-84.02
X14.0Y-86.56
X14.0Y-89.1
X18.82Y-10.0
X18.82Y-12.54
X18.82Y-15.08
X18.82Y-17.62
X18.82Y-20.16
X18.82Y-22.7
X18.82Y-25.24
X18.82Y-27.78
X18.82Y-30.32
X18.82Y-32.86
X19.0Y-4.0
X24.0Y-4.0
X24.0Y-10.0
X24.0Y-12.54
X24.0Y-15.08
X24.0Y-17.62
X24.0Y-20.16
X24.0Y-22.7
X24.0Y-25.24
X24.0Y-27.78
X24.0Y-30.32
X24.0Y-32.86
X29.24Y-51.0
X29.24Y-53.54
X29.24Y-56.08
X29.24Y-58.62
X29.24Y-61.16
X29.24Y-63.7
X29.24Y-66.24
X29.24Y-68.78
X29.24Y-71.32
X29.24Y-73.86
X29.24Y-76.4
X29.24Y-78.94
X29.24Y-81.48
X29.24Y-84.02
X29.24Y-86.56
X29.24Y-89.1
X31.62Y-10.0
X31.62Y-12.54
X31.62Y-15.08
X31.62Y-17.62
X31.62Y-20.16
X31.62Y-22.7
X31.62Y-25.24
X31.62Y-27.78
X31.62Y-30.32
X31.62Y-32.86
X33.24Y-51.0
X33.24Y-61.16
X34.16Y-4.0
T3
X4.0Y-4.0
X4.0Y-6.54
X4.0Y-9.08
X4.0Y-11.62
X4.0Y-14.16
X4.0Y-16.7
X4.0Y-19.24
X4.0Y-21.78
X4.0Y-24.32
X4.0Y-26.86
X4.0Y-29.4
X4.0Y-31.94
X4.0Y-34.48
X4.0Y-37.02
X4.0Y-39.56
X4.0Y-42.1
X4.0Y-44.64
X4.0Y-47.18
X4.0Y-49.72
X4.0Y-52.26
X4.0Y-54.8
X4.0Y-57.34
X4.0Y-59.88
X4.0Y-62.42
X41.0Y-4.0
X41.0Y-6.54
X41.0Y-9.08
X41.0Y-11.62
X41.0Y-14.16
X41.0Y-16.7
X41.0Y-19.24
X41.0Y-21.78
X41.0Y-24.32
X41.0Y-26.86
X41.0Y-29.4
X41.0Y-31.94
X41.0Y-34.48
X41.0Y-37.02
X41.0Y-39.56
X41.0Y-42.1
X41.0Y-44.64
X41.0Y-47.18
T0
M30
