%TF.GenerationSoftware,KiCad,Pcbnew,7.0.2*%
%TF.CreationDate,2023-06-07T18:29:09+01:00*%
%TF.ProjectId,RIO-128K_ZXspectrum_impl_narrow,52494f2d-3132-4384-9b5f-5a5873706563,rev?*%
%TF.SameCoordinates,PX5e69ec0PY54e0840*%
%TF.FileFunction,Copper,L2,Bot*%
%TF.FilePolarity,Positive*%
%FSLAX46Y46*%
G04 Gerber Fmt 4.6, Leading zero omitted, Abs format (unit mm)*
G04 Created by KiCad (PCBNEW 7.0.2) date 2023-06-07 18:29:09*
%MOMM*%
%LPD*%
G01*
G04 APERTURE LIST*
%TA.AperFunction,ComponentPad*%
%ADD10R,1.600000X1.600000*%
%TD*%
%TA.AperFunction,ComponentPad*%
%ADD11O,1.600000X1.600000*%
%TD*%
%TA.AperFunction,ComponentPad*%
%ADD12C,1.600000*%
%TD*%
%TA.AperFunction,ComponentPad*%
%ADD13R,1.700000X1.700000*%
%TD*%
%TA.AperFunction,ComponentPad*%
%ADD14O,1.700000X1.700000*%
%TD*%
%TA.AperFunction,ViaPad*%
%ADD15C,1.000000*%
%TD*%
%TA.AperFunction,Conductor*%
%ADD16C,0.400000*%
%TD*%
G04 APERTURE END LIST*
D10*
%TO.P,RIO_DECODER1,1,A->B*%
%TO.N,Net-(RIO_DECODER1-A->B)*%
X10000000Y-21000000D03*
D11*
%TO.P,RIO_DECODER1,2,A0*%
%TO.N,/RIO-128K_ZXspectrum/ROM_D0*%
X12540000Y-21000000D03*
%TO.P,RIO_DECODER1,3,A1*%
%TO.N,/RIO-128K_ZXspectrum/ROM_D1*%
X15080000Y-21000000D03*
%TO.P,RIO_DECODER1,4,A2*%
%TO.N,/RIO-128K_ZXspectrum/ROM_D2*%
X17620000Y-21000000D03*
%TO.P,RIO_DECODER1,5,A3*%
%TO.N,/RIO-128K_ZXspectrum/ROM_D3*%
X20160000Y-21000000D03*
%TO.P,RIO_DECODER1,6,A4*%
%TO.N,/RIO-128K_ZXspectrum/ROM_D4*%
X22700000Y-21000000D03*
%TO.P,RIO_DECODER1,7,A5*%
%TO.N,/RIO-128K_ZXspectrum/ROM_D5*%
X25240000Y-21000000D03*
%TO.P,RIO_DECODER1,8,A6*%
%TO.N,/RIO-128K_ZXspectrum/ROM_D6*%
X27780000Y-21000000D03*
%TO.P,RIO_DECODER1,9,A7*%
%TO.N,/RIO-128K_ZXspectrum/ROM_D7*%
X30320000Y-21000000D03*
%TO.P,RIO_DECODER1,10,GND*%
%TO.N,GND*%
X32860000Y-21000000D03*
%TO.P,RIO_DECODER1,11,B7*%
%TO.N,/RIO-128K_ZXspectrum/Z80_HARDLOCK_SET*%
X32860000Y-13380000D03*
%TO.P,RIO_DECODER1,12,B6*%
%TO.N,/RIO-128K_ZXspectrum/Z80_HARDLOCK_RESET*%
X30320000Y-13380000D03*
%TO.P,RIO_DECODER1,13,B5*%
%TO.N,/RIO-128K_ZXspectrum/WAIT_IO*%
X27780000Y-13380000D03*
%TO.P,RIO_DECODER1,14,B4*%
%TO.N,/RIO-128K_ZXspectrum/CACHE_DATASTATUS*%
X25240000Y-13380000D03*
%TO.P,RIO_DECODER1,15,B3*%
%TO.N,/RIO-128K_ZXspectrum/CACHE_SEL_3*%
X22700000Y-13380000D03*
%TO.P,RIO_DECODER1,16,B2*%
%TO.N,/RIO-128K_ZXspectrum/CACHE_SEL_2*%
X20160000Y-13380000D03*
%TO.P,RIO_DECODER1,17,B1*%
%TO.N,/RIO-128K_ZXspectrum/CACHE_SEL_1*%
X17620000Y-13380000D03*
%TO.P,RIO_DECODER1,18,B0*%
%TO.N,/RIO-128K_ZXspectrum/CACHE_SEL_0*%
X15080000Y-13380000D03*
%TO.P,RIO_DECODER1,19,CE*%
%TO.N,/RIO-128K_ZXspectrum/PERM_Z80_IORQ*%
X12540000Y-13380000D03*
%TO.P,RIO_DECODER1,20,VCC*%
%TO.N,+5V*%
X10000000Y-13380000D03*
%TD*%
D12*
%TO.P,R3,1*%
%TO.N,/RIO-128K_ZXspectrum/CACHE_DATASTATUS*%
X4000000Y-10840000D03*
D11*
%TO.P,R3,2*%
%TO.N,+5V*%
X4000000Y-21000000D03*
%TD*%
D10*
%TO.P,RIO1,1,NC*%
%TO.N,unconnected-(RIO1-NC-Pad1)*%
X51000000Y-31000000D03*
D11*
%TO.P,RIO1,2,A16*%
%TO.N,/RIO-128K_ZXspectrum/RIO_CONTROL.A16*%
X53540000Y-31000000D03*
%TO.P,RIO1,3,A14*%
%TO.N,/RIO-128K_ZXspectrum/RIO_CONTROL.A14*%
X56080000Y-31000000D03*
%TO.P,RIO1,4,A12*%
%TO.N,/RIO-128K_ZXspectrum/Z80_A12*%
X58620000Y-31000000D03*
%TO.P,RIO1,5,A7*%
%TO.N,/RIO-128K_ZXspectrum/Z80_A7*%
X61160000Y-31000000D03*
%TO.P,RIO1,6,A6*%
%TO.N,/RIO-128K_ZXspectrum/Z80_A6*%
X63700000Y-31000000D03*
%TO.P,RIO1,7,A5*%
%TO.N,/RIO-128K_ZXspectrum/Z80_A5*%
X66240000Y-31000000D03*
%TO.P,RIO1,8,A4*%
%TO.N,/RIO-128K_ZXspectrum/Z80_A4*%
X68780000Y-31000000D03*
%TO.P,RIO1,9,A3*%
%TO.N,/RIO-128K_ZXspectrum/Z80_A3*%
X71320000Y-31000000D03*
%TO.P,RIO1,10,A2*%
%TO.N,/RIO-128K_ZXspectrum/Z80_A2*%
X73860000Y-31000000D03*
%TO.P,RIO1,11,A1*%
%TO.N,/RIO-128K_ZXspectrum/Z80_A1*%
X76400000Y-31000000D03*
%TO.P,RIO1,12,A0*%
%TO.N,/RIO-128K_ZXspectrum/Z80_A0*%
X78940000Y-31000000D03*
%TO.P,RIO1,13,DQ0*%
%TO.N,/RIO-128K_ZXspectrum/ROM_D0*%
X81480000Y-31000000D03*
%TO.P,RIO1,14,DQ1*%
%TO.N,/RIO-128K_ZXspectrum/ROM_D1*%
X84020000Y-31000000D03*
%TO.P,RIO1,15,DQ2*%
%TO.N,/RIO-128K_ZXspectrum/ROM_D2*%
X86560000Y-31000000D03*
%TO.P,RIO1,16,VSS*%
%TO.N,GND*%
X89100000Y-31000000D03*
%TO.P,RIO1,17,DQ3*%
%TO.N,/RIO-128K_ZXspectrum/ROM_D3*%
X89100000Y-15760000D03*
%TO.P,RIO1,18,DQ4*%
%TO.N,/RIO-128K_ZXspectrum/ROM_D4*%
X86560000Y-15760000D03*
%TO.P,RIO1,19,DQ5*%
%TO.N,/RIO-128K_ZXspectrum/ROM_D5*%
X84020000Y-15760000D03*
%TO.P,RIO1,20,DQ6*%
%TO.N,/RIO-128K_ZXspectrum/ROM_D6*%
X81480000Y-15760000D03*
%TO.P,RIO1,21,DQ7*%
%TO.N,/RIO-128K_ZXspectrum/ROM_D7*%
X78940000Y-15760000D03*
%TO.P,RIO1,22,CE#*%
%TO.N,/RIO-128K_ZXspectrum/RIO_CONTROL.CE*%
X76400000Y-15760000D03*
%TO.P,RIO1,23,A10*%
%TO.N,/RIO-128K_ZXspectrum/Z80_A10*%
X73860000Y-15760000D03*
%TO.P,RIO1,24,OE#*%
%TO.N,/RIO-128K_ZXspectrum/RIO_CONTROL.OE*%
X71320000Y-15760000D03*
%TO.P,RIO1,25,A11*%
%TO.N,/RIO-128K_ZXspectrum/Z80_A11*%
X68780000Y-15760000D03*
%TO.P,RIO1,26,A9*%
%TO.N,/RIO-128K_ZXspectrum/Z80_A9*%
X66240000Y-15760000D03*
%TO.P,RIO1,27,A8*%
%TO.N,/RIO-128K_ZXspectrum/Z80_A8*%
X63700000Y-15760000D03*
%TO.P,RIO1,28,A13*%
%TO.N,/RIO-128K_ZXspectrum/Z80_A13*%
X61160000Y-15760000D03*
%TO.P,RIO1,29,WE#*%
%TO.N,/RIO-128K_ZXspectrum/RIO_CONTROL.WE*%
X58620000Y-15760000D03*
%TO.P,RIO1,30,CE2#*%
%TO.N,/RIO-128K_ZXspectrum/RIO_CE2*%
X56080000Y-15760000D03*
%TO.P,RIO1,31,A15*%
%TO.N,/RIO-128K_ZXspectrum/RIO_CONTROL.A15*%
X53540000Y-15760000D03*
%TO.P,RIO1,32,VCC*%
%TO.N,+5V*%
X51000000Y-15760000D03*
%TD*%
D10*
%TO.P,Z80-RIO_DATA1,1,A->B*%
%TO.N,/RIO-128K_ZXspectrum/RIO_CONTROL.OE*%
X10000000Y-33800000D03*
D11*
%TO.P,Z80-RIO_DATA1,2,A0*%
%TO.N,/RIO-128K_ZXspectrum/Z80_D0*%
X12540000Y-33800000D03*
%TO.P,Z80-RIO_DATA1,3,A1*%
%TO.N,/RIO-128K_ZXspectrum/Z80_D1*%
X15080000Y-33800000D03*
%TO.P,Z80-RIO_DATA1,4,A2*%
%TO.N,/RIO-128K_ZXspectrum/Z80_D2*%
X17620000Y-33800000D03*
%TO.P,Z80-RIO_DATA1,5,A3*%
%TO.N,/RIO-128K_ZXspectrum/Z80_D3*%
X20160000Y-33800000D03*
%TO.P,Z80-RIO_DATA1,6,A4*%
%TO.N,/RIO-128K_ZXspectrum/Z80_D4*%
X22700000Y-33800000D03*
%TO.P,Z80-RIO_DATA1,7,A5*%
%TO.N,/RIO-128K_ZXspectrum/Z80_D5*%
X25240000Y-33800000D03*
%TO.P,Z80-RIO_DATA1,8,A6*%
%TO.N,/RIO-128K_ZXspectrum/Z80_D6*%
X27780000Y-33800000D03*
%TO.P,Z80-RIO_DATA1,9,A7*%
%TO.N,/RIO-128K_ZXspectrum/Z80_D7*%
X30320000Y-33800000D03*
%TO.P,Z80-RIO_DATA1,10,GND*%
%TO.N,GND*%
X32860000Y-33800000D03*
%TO.P,Z80-RIO_DATA1,11,B7*%
%TO.N,/RIO-128K_ZXspectrum/ROM_D7*%
X32860000Y-26180000D03*
%TO.P,Z80-RIO_DATA1,12,B6*%
%TO.N,/RIO-128K_ZXspectrum/ROM_D6*%
X30320000Y-26180000D03*
%TO.P,Z80-RIO_DATA1,13,B5*%
%TO.N,/RIO-128K_ZXspectrum/ROM_D5*%
X27780000Y-26180000D03*
%TO.P,Z80-RIO_DATA1,14,B4*%
%TO.N,/RIO-128K_ZXspectrum/ROM_D4*%
X25240000Y-26180000D03*
%TO.P,Z80-RIO_DATA1,15,B3*%
%TO.N,/RIO-128K_ZXspectrum/ROM_D3*%
X22700000Y-26180000D03*
%TO.P,Z80-RIO_DATA1,16,B2*%
%TO.N,/RIO-128K_ZXspectrum/ROM_D2*%
X20160000Y-26180000D03*
%TO.P,Z80-RIO_DATA1,17,B1*%
%TO.N,/RIO-128K_ZXspectrum/ROM_D1*%
X17620000Y-26180000D03*
%TO.P,Z80-RIO_DATA1,18,B0*%
%TO.N,/RIO-128K_ZXspectrum/ROM_D0*%
X15080000Y-26180000D03*
%TO.P,Z80-RIO_DATA1,19,CE*%
%TO.N,/RIO-128K_ZXspectrum/RIO_CONTROL.ROM_RDY*%
X12540000Y-26180000D03*
%TO.P,Z80-RIO_DATA1,20,VCC*%
%TO.N,+5V*%
X10000000Y-26180000D03*
%TD*%
D13*
%TO.P,J1,1,Pin_1*%
%TO.N,/RIO-128K_ZXspectrum/Z80_D0*%
X4000000Y-41000000D03*
D14*
%TO.P,J1,2,Pin_2*%
%TO.N,/RIO-128K_ZXspectrum/Z80_D1*%
X6540000Y-41000000D03*
%TO.P,J1,3,Pin_3*%
%TO.N,/RIO-128K_ZXspectrum/Z80_D2*%
X9080000Y-41000000D03*
%TO.P,J1,4,Pin_4*%
%TO.N,/RIO-128K_ZXspectrum/Z80_D3*%
X11620000Y-41000000D03*
%TO.P,J1,5,Pin_5*%
%TO.N,/RIO-128K_ZXspectrum/Z80_D4*%
X14160000Y-41000000D03*
%TO.P,J1,6,Pin_6*%
%TO.N,/RIO-128K_ZXspectrum/Z80_D5*%
X16700000Y-41000000D03*
%TO.P,J1,7,Pin_7*%
%TO.N,/RIO-128K_ZXspectrum/Z80_D6*%
X19240000Y-41000000D03*
%TO.P,J1,8,Pin_8*%
%TO.N,/RIO-128K_ZXspectrum/Z80_D7*%
X21780000Y-41000000D03*
%TO.P,J1,9,Pin_9*%
%TO.N,/RIO-128K_ZXspectrum/Z80_A0*%
X24320000Y-41000000D03*
%TO.P,J1,10,Pin_10*%
%TO.N,/RIO-128K_ZXspectrum/Z80_A1*%
X26860000Y-41000000D03*
%TO.P,J1,11,Pin_11*%
%TO.N,/RIO-128K_ZXspectrum/Z80_A2*%
X29400000Y-41000000D03*
%TO.P,J1,12,Pin_12*%
%TO.N,/RIO-128K_ZXspectrum/Z80_A3*%
X31940000Y-41000000D03*
%TO.P,J1,13,Pin_13*%
%TO.N,/RIO-128K_ZXspectrum/Z80_A4*%
X34480000Y-41000000D03*
%TO.P,J1,14,Pin_14*%
%TO.N,/RIO-128K_ZXspectrum/Z80_A5*%
X37020000Y-41000000D03*
%TO.P,J1,15,Pin_15*%
%TO.N,/RIO-128K_ZXspectrum/Z80_A6*%
X39560000Y-41000000D03*
%TO.P,J1,16,Pin_16*%
%TO.N,/RIO-128K_ZXspectrum/Z80_A7*%
X42100000Y-41000000D03*
%TO.P,J1,17,Pin_17*%
%TO.N,/RIO-128K_ZXspectrum/Z80_A8*%
X44640000Y-41000000D03*
%TO.P,J1,18,Pin_18*%
%TO.N,/RIO-128K_ZXspectrum/Z80_A9*%
X47180000Y-41000000D03*
%TO.P,J1,19,Pin_19*%
%TO.N,/RIO-128K_ZXspectrum/Z80_A10*%
X49720000Y-41000000D03*
%TO.P,J1,20,Pin_20*%
%TO.N,/RIO-128K_ZXspectrum/Z80_A11*%
X52260000Y-41000000D03*
%TO.P,J1,21,Pin_21*%
%TO.N,/RIO-128K_ZXspectrum/Z80_A12*%
X54800000Y-41000000D03*
%TO.P,J1,22,Pin_22*%
%TO.N,/RIO-128K_ZXspectrum/Z80_A13*%
X57340000Y-41000000D03*
%TO.P,J1,23,Pin_23*%
%TO.N,/RIO-128K_ZXspectrum/Z80_A14*%
X59880000Y-41000000D03*
%TO.P,J1,24,Pin_24*%
%TO.N,/RIO-128K_ZXspectrum/Z80_A15*%
X62420000Y-41000000D03*
%TD*%
D13*
%TO.P,J2,1,Pin_1*%
%TO.N,+5V*%
X4000000Y-4000000D03*
D14*
%TO.P,J2,2,Pin_2*%
%TO.N,/RIO-128K_ZXspectrum/RIO_CONTROL.A16*%
X6540000Y-4000000D03*
%TO.P,J2,3,Pin_3*%
%TO.N,/RIO-128K_ZXspectrum/RIO_CONTROL.A15*%
X9080000Y-4000000D03*
%TO.P,J2,4,Pin_4*%
%TO.N,/RIO-128K_ZXspectrum/RIO_CONTROL.A14*%
X11620000Y-4000000D03*
%TO.P,J2,5,Pin_5*%
%TO.N,/RIO-128K_ZXspectrum/RIO_CONTROL.WE*%
X14160000Y-4000000D03*
%TO.P,J2,6,Pin_6*%
%TO.N,/RIO-128K_ZXspectrum/RIO_CONTROL.CE*%
X16700000Y-4000000D03*
%TO.P,J2,7,Pin_7*%
%TO.N,/RIO-128K_ZXspectrum/RIO_CONTROL.OE*%
X19240000Y-4000000D03*
%TO.P,J2,8,Pin_8*%
%TO.N,/RIO-128K_ZXspectrum/RIO_CONTROL.ROM_RDY*%
X21780000Y-4000000D03*
%TO.P,J2,9,Pin_9*%
%TO.N,/RIO-128K_ZXspectrum/CACHE_SEL_0*%
X24320000Y-4000000D03*
%TO.P,J2,10,Pin_10*%
%TO.N,/RIO-128K_ZXspectrum/CACHE_SEL_1*%
X26860000Y-4000000D03*
%TO.P,J2,11,Pin_11*%
%TO.N,/RIO-128K_ZXspectrum/CACHE_SEL_2*%
X29400000Y-4000000D03*
%TO.P,J2,12,Pin_12*%
%TO.N,/RIO-128K_ZXspectrum/CACHE_SEL_3*%
X31940000Y-4000000D03*
%TO.P,J2,13,Pin_13*%
%TO.N,/RIO-128K_ZXspectrum/CACHE_DATASTATUS*%
X34480000Y-4000000D03*
%TO.P,J2,14,Pin_14*%
%TO.N,/RIO-128K_ZXspectrum/WAIT_IO*%
X37020000Y-4000000D03*
%TO.P,J2,15,Pin_15*%
%TO.N,/RIO-128K_ZXspectrum/Z80_HARDLOCK_RESET*%
X39560000Y-4000000D03*
%TO.P,J2,16,Pin_16*%
%TO.N,/RIO-128K_ZXspectrum/Z80_HARDLOCK_SET*%
X42100000Y-4000000D03*
%TO.P,J2,17,Pin_17*%
%TO.N,/RIO-128K_ZXspectrum/PERM_Z80_IORQ*%
X44640000Y-4000000D03*
%TO.P,J2,18,Pin_18*%
%TO.N,GND*%
X47180000Y-4000000D03*
%TD*%
D12*
%TO.P,R1,1*%
%TO.N,+5V*%
X51000000Y-11760000D03*
D11*
%TO.P,R1,2*%
%TO.N,/RIO-128K_ZXspectrum/RIO_CE2*%
X61160000Y-11760000D03*
%TD*%
D12*
%TO.P,R2,1*%
%TO.N,Net-(RIO_DECODER1-A->B)*%
X4000000Y-26000000D03*
D11*
%TO.P,R2,2*%
%TO.N,+5V*%
X4000000Y-36160000D03*
%TD*%
D15*
%TO.N,*%
X0Y0D03*
%TO.N,/RIO-128K_ZXspectrum/Z80_A4*%
X35876100Y-37901500D03*
%TO.N,/RIO-128K_ZXspectrum/Z80_A5*%
X41909400Y-34990600D03*
%TO.N,/RIO-128K_ZXspectrum/Z80_A6*%
X44185300Y-33664500D03*
%TO.N,/RIO-128K_ZXspectrum/Z80_A7*%
X55942400Y-39002100D03*
%TO.N,/RIO-128K_ZXspectrum/Z80_A11*%
X68947100Y-18736800D03*
%TO.N,/RIO-128K_ZXspectrum/Z80_A13*%
X72466600Y-14159900D03*
%TO.N,/RIO-128K_ZXspectrum/RIO_CONTROL.A16*%
X42964200Y-30857500D03*
X9755800Y-18075100D03*
X39057100Y-18479300D03*
%TO.N,/RIO-128K_ZXspectrum/RIO_CONTROL.A14*%
X44606400Y-31224100D03*
X46416300Y-13075800D03*
%TO.N,GND*%
X36769700Y-21580600D03*
%TO.N,/RIO-128K_ZXspectrum/ROM_D3*%
X66048100Y-22388000D03*
%TO.N,/RIO-128K_ZXspectrum/RIO_CONTROL.CE*%
X55035800Y-9595300D03*
%TO.N,/RIO-128K_ZXspectrum/RIO_CONTROL.OE*%
X49439800Y-6651000D03*
%TO.N,/RIO-128K_ZXspectrum/Z80_HARDLOCK_RESET*%
X33984900Y-11509200D03*
%TO.N,/RIO-128K_ZXspectrum/RIO_CONTROL.ROM_RDY*%
X8531000Y-14965300D03*
%TD*%
D16*
%TO.N,/RIO-128K_ZXspectrum/Z80_D0*%
X12540000Y-33800000D02*
X12540000Y-35400100D01*
X4000000Y-41000000D02*
X9599900Y-35400100D01*
X9599900Y-35400100D02*
X12540000Y-35400100D01*
%TO.N,/RIO-128K_ZXspectrum/Z80_D3*%
X11620000Y-41000000D02*
X16754700Y-35865300D01*
X16754700Y-35865300D02*
X18094700Y-35865300D01*
X18094700Y-35865300D02*
X20160000Y-33800000D01*
%TO.N,/RIO-128K_ZXspectrum/Z80_D4*%
X19441700Y-37058300D02*
X22700000Y-33800000D01*
X18101700Y-37058300D02*
X19441700Y-37058300D01*
X14160000Y-41000000D02*
X18101700Y-37058300D01*
%TO.N,/RIO-128K_ZXspectrum/Z80_A0*%
X33261000Y-35849300D02*
X29470700Y-35849300D01*
X43542000Y-26375800D02*
X42994200Y-26923600D01*
X53350200Y-26375800D02*
X43542000Y-26375800D01*
X42186700Y-26923600D02*
X33261000Y-35849300D01*
X54299500Y-27325100D02*
X53350200Y-26375800D01*
X29470700Y-35849300D02*
X24320000Y-41000000D01*
X78940000Y-31000000D02*
X75265100Y-27325100D01*
X42994200Y-26923600D02*
X42186700Y-26923600D01*
X75265100Y-27325100D02*
X54299500Y-27325100D01*
%TO.N,/RIO-128K_ZXspectrum/Z80_A1*%
X42600900Y-27923700D02*
X33675200Y-36849400D01*
X31010600Y-36849400D02*
X26860000Y-41000000D01*
X33675200Y-36849400D02*
X31010600Y-36849400D01*
X73752300Y-28352300D02*
X53912400Y-28352300D01*
X76400000Y-31000000D02*
X73752300Y-28352300D01*
X43932400Y-27399700D02*
X43408400Y-27923700D01*
X43408400Y-27923700D02*
X42600900Y-27923700D01*
X53912400Y-28352300D02*
X52959800Y-27399700D01*
X52959800Y-27399700D02*
X43932400Y-27399700D01*
%TO.N,/RIO-128K_ZXspectrum/Z80_A2*%
X72236100Y-29376100D02*
X53521900Y-29376100D01*
X73860000Y-31000000D02*
X72236100Y-29376100D01*
X43822600Y-28923800D02*
X43015100Y-28923800D01*
X33589200Y-38349700D02*
X32050300Y-38349700D01*
X43015100Y-28923800D02*
X33589200Y-38349700D01*
X32050300Y-38349700D02*
X29400000Y-41000000D01*
X44346600Y-28399800D02*
X43822600Y-28923800D01*
X52545600Y-28399800D02*
X44346600Y-28399800D01*
X53521900Y-29376100D02*
X52545600Y-28399800D01*
%TO.N,/RIO-128K_ZXspectrum/Z80_A3*%
X33590200Y-39349800D02*
X40012000Y-39349800D01*
X64641900Y-37678100D02*
X71320000Y-31000000D01*
X41683700Y-37678100D02*
X64641900Y-37678100D01*
X31940000Y-41000000D02*
X33590200Y-39349800D01*
X40012000Y-39349800D02*
X41683700Y-37678100D01*
%TO.N,/RIO-128K_ZXspectrum/Z80_A4*%
X68780000Y-31000000D02*
X63126000Y-36654000D01*
X37123600Y-36654000D02*
X35876100Y-37901500D01*
X63126000Y-36654000D02*
X37123600Y-36654000D01*
%TO.N,/RIO-128K_ZXspectrum/Z80_A5*%
X66240000Y-31000000D02*
X62249400Y-34990600D01*
X62249400Y-34990600D02*
X41909400Y-34990600D01*
%TO.N,/RIO-128K_ZXspectrum/Z80_A6*%
X61035500Y-33664500D02*
X44185300Y-33664500D01*
X63700000Y-31000000D02*
X61035500Y-33664500D01*
%TO.N,/RIO-128K_ZXspectrum/Z80_A7*%
X42100000Y-41000000D02*
X44097900Y-39002100D01*
X44097900Y-39002100D02*
X55942400Y-39002100D01*
%TO.N,/RIO-128K_ZXspectrum/Z80_A11*%
X68780000Y-18569700D02*
X68780000Y-15760000D01*
X68947100Y-18736800D02*
X68780000Y-18569700D01*
%TO.N,/RIO-128K_ZXspectrum/Z80_A13*%
X83022300Y-39349800D02*
X90754100Y-31618000D01*
X90754100Y-31618000D02*
X90754100Y-15126100D01*
X89787900Y-14159900D02*
X72466600Y-14159900D01*
X58990200Y-39349800D02*
X83022300Y-39349800D01*
X57340000Y-41000000D02*
X58990200Y-39349800D01*
X90754100Y-15126100D02*
X89787900Y-14159900D01*
%TO.N,+5V*%
X5602200Y-26180000D02*
X5602200Y-32957700D01*
X4000000Y-17627200D02*
X4000000Y-21000000D01*
X4000000Y-21000000D02*
X4000000Y-22600100D01*
X5602200Y-26180000D02*
X10000000Y-26180000D01*
X8247200Y-13380000D02*
X4000000Y-17627200D01*
X8399900Y-13380000D02*
X8247200Y-13380000D01*
X5602200Y-24202300D02*
X5602200Y-26180000D01*
X12380000Y-15760000D02*
X10000000Y-13380000D01*
X51000000Y-15760000D02*
X49399900Y-15760000D01*
X4000000Y-36160000D02*
X4000000Y-34559900D01*
X9671700Y-13380000D02*
X10000000Y-13380000D01*
X5602200Y-32957700D02*
X4000000Y-34559900D01*
X4000000Y-22600100D02*
X5602200Y-24202300D01*
X9671700Y-13380000D02*
X8399900Y-13380000D01*
X49399900Y-15760000D02*
X12380000Y-15760000D01*
%TO.N,/RIO-128K_ZXspectrum/CACHE_DATASTATUS*%
X23639800Y-11779800D02*
X4939800Y-11779800D01*
X4939800Y-11779800D02*
X4000000Y-10840000D01*
X25240000Y-13380000D02*
X23639800Y-11779800D01*
%TO.N,/RIO-128K_ZXspectrum/RIO_CONTROL.A16*%
X39057100Y-18479300D02*
X38652900Y-18075100D01*
X43897800Y-29923900D02*
X42964200Y-30857500D01*
X38652900Y-18075100D02*
X9755800Y-18075100D01*
X44236800Y-29923900D02*
X43897800Y-29923900D01*
X53540000Y-30808500D02*
X52131400Y-29399900D01*
X44760800Y-29399900D02*
X44236800Y-29923900D01*
X53540000Y-31000000D02*
X53540000Y-30808500D01*
X52131400Y-29399900D02*
X44760800Y-29399900D01*
%TO.N,/RIO-128K_ZXspectrum/RIO_CONTROL.A14*%
X46416300Y-13075800D02*
X42549500Y-9209000D01*
X54479900Y-32600100D02*
X56080000Y-31000000D01*
X16829000Y-9209000D02*
X11620000Y-4000000D01*
X44606400Y-31224100D02*
X45982400Y-32600100D01*
X45982400Y-32600100D02*
X54479900Y-32600100D01*
X42549500Y-9209000D02*
X16829000Y-9209000D01*
%TO.N,/RIO-128K_ZXspectrum/ROM_D0*%
X53764400Y-25375700D02*
X43127800Y-25375700D01*
X35412100Y-31848500D02*
X20748500Y-31848500D01*
X76745100Y-26265100D02*
X54653800Y-26265100D01*
X54653800Y-26265100D02*
X53764400Y-25375700D01*
X20748500Y-31848500D02*
X15080000Y-26180000D01*
X81480000Y-31000000D02*
X76745100Y-26265100D01*
X42580000Y-25923500D02*
X41337100Y-25923500D01*
X43127800Y-25375700D02*
X42580000Y-25923500D01*
X41337100Y-25923500D02*
X35412100Y-31848500D01*
%TO.N,/RIO-128K_ZXspectrum/ROM_D1*%
X54178600Y-24375600D02*
X42713600Y-24375600D01*
X42165800Y-24923400D02*
X40922800Y-24923400D01*
X22288400Y-30848400D02*
X17620000Y-26180000D01*
X42713600Y-24375600D02*
X42165800Y-24923400D01*
X34997800Y-30848400D02*
X22288400Y-30848400D01*
X84020000Y-31000000D02*
X78266200Y-25246200D01*
X78266200Y-25246200D02*
X55049200Y-25246200D01*
X40922800Y-24923400D02*
X34997800Y-30848400D01*
X55049200Y-25246200D02*
X54178600Y-24375600D01*
%TO.N,/RIO-128K_ZXspectrum/ROM_D2*%
X23828300Y-29848300D02*
X20160000Y-26180000D01*
X54592800Y-23375500D02*
X42299400Y-23375500D01*
X79806100Y-24246100D02*
X55463400Y-24246100D01*
X40508600Y-23923300D02*
X34583600Y-29848300D01*
X55463400Y-24246100D02*
X54592800Y-23375500D01*
X86560000Y-31000000D02*
X79806100Y-24246100D01*
X41751600Y-23923300D02*
X40508600Y-23923300D01*
X34583600Y-29848300D02*
X23828300Y-29848300D01*
X42299400Y-23375500D02*
X41751600Y-23923300D01*
%TO.N,GND*%
X32860000Y-21000000D02*
X34460100Y-21000000D01*
X36769700Y-21580600D02*
X35040700Y-21580600D01*
X35040700Y-21580600D02*
X34460100Y-21000000D01*
%TO.N,/RIO-128K_ZXspectrum/ROM_D3*%
X40237900Y-22779700D02*
X34169400Y-28848200D01*
X66035500Y-22375400D02*
X41242500Y-22375400D01*
X25368200Y-28848200D02*
X22700000Y-26180000D01*
X66048100Y-22388000D02*
X66035500Y-22375400D01*
X41242500Y-22375400D02*
X40838200Y-22779700D01*
X34169400Y-28848200D02*
X25368200Y-28848200D01*
X40838200Y-22779700D02*
X40237900Y-22779700D01*
%TO.N,/RIO-128K_ZXspectrum/ROM_D5*%
X33777500Y-27825800D02*
X39823700Y-21779600D01*
X29425800Y-27825800D02*
X33777500Y-27825800D01*
X40424000Y-21779600D02*
X41128200Y-21075400D01*
X27780000Y-26180000D02*
X29425800Y-27825800D01*
X77742800Y-22037200D02*
X84020000Y-15760000D01*
X41128200Y-21075400D02*
X66618400Y-21075400D01*
X39823700Y-21779600D02*
X40424000Y-21779600D01*
X67580200Y-22037200D02*
X77742800Y-22037200D01*
X66618400Y-21075400D02*
X67580200Y-22037200D01*
%TO.N,/RIO-128K_ZXspectrum/ROM_D6*%
X32622600Y-23877400D02*
X36311600Y-23877400D01*
X67032600Y-20075300D02*
X67994400Y-21037100D01*
X76202900Y-21037100D02*
X81480000Y-15760000D01*
X40714000Y-20075300D02*
X67032600Y-20075300D01*
X36311600Y-23877400D02*
X39409500Y-20779500D01*
X40009800Y-20779500D02*
X40714000Y-20075300D01*
X67994400Y-21037100D02*
X76202900Y-21037100D01*
X39409500Y-20779500D02*
X40009800Y-20779500D01*
X30320000Y-26180000D02*
X32622600Y-23877400D01*
%TO.N,/RIO-128K_ZXspectrum/ROM_D7*%
X39595600Y-19779400D02*
X40299800Y-19075200D01*
X38518600Y-19779400D02*
X39595600Y-19779400D01*
X67446800Y-19075200D02*
X68408500Y-20036900D01*
X40299800Y-19075200D02*
X67446800Y-19075200D01*
X38133500Y-19394300D02*
X38518600Y-19779400D01*
X74663100Y-20036900D02*
X78940000Y-15760000D01*
X30320000Y-21000000D02*
X31925700Y-19394300D01*
X31925700Y-19394300D02*
X38133500Y-19394300D01*
X68408500Y-20036900D02*
X74663100Y-20036900D01*
%TO.N,/RIO-128K_ZXspectrum/RIO_CONTROL.CE*%
X16700000Y-4000000D02*
X19908800Y-7208800D01*
X48159000Y-7208800D02*
X48901300Y-7951100D01*
X48901300Y-7951100D02*
X53391600Y-7951100D01*
X53391600Y-7951100D02*
X55035800Y-9595300D01*
X19908800Y-7208800D02*
X48159000Y-7208800D01*
%TO.N,/RIO-128K_ZXspectrum/RIO_CONTROL.OE*%
X49439800Y-6651000D02*
X62211000Y-6651000D01*
X48997500Y-6208700D02*
X49439800Y-6651000D01*
X62211000Y-6651000D02*
X71320000Y-15760000D01*
X19240000Y-4000000D02*
X21448700Y-6208700D01*
X21448700Y-6208700D02*
X48997500Y-6208700D01*
%TO.N,/RIO-128K_ZXspectrum/RIO_CONTROL.WE*%
X14160000Y-4000000D02*
X18368900Y-8208900D01*
X48487100Y-8951200D02*
X51811200Y-8951200D01*
X18368900Y-8208900D02*
X47744800Y-8208900D01*
X47744800Y-8208900D02*
X48487100Y-8951200D01*
X51811200Y-8951200D02*
X58620000Y-15760000D01*
%TO.N,/RIO-128K_ZXspectrum/RIO_CONTROL.A15*%
X53540000Y-15760000D02*
X51886200Y-14106200D01*
X47468700Y-14376000D02*
X45151500Y-14376000D01*
X40984600Y-10209100D02*
X15289100Y-10209100D01*
X45151500Y-14376000D02*
X40984600Y-10209100D01*
X51886200Y-14106200D02*
X47738500Y-14106200D01*
X47738500Y-14106200D02*
X47468700Y-14376000D01*
X15289100Y-10209100D02*
X9080000Y-4000000D01*
%TO.N,/RIO-128K_ZXspectrum/Z80_HARDLOCK_RESET*%
X33984900Y-11509200D02*
X32190800Y-11509200D01*
X32190800Y-11509200D02*
X30320000Y-13380000D01*
%TO.N,/RIO-128K_ZXspectrum/RIO_CONTROL.ROM_RDY*%
X12414100Y-26180000D02*
X8347800Y-22113700D01*
X8347800Y-22113700D02*
X8347800Y-15148500D01*
X8347800Y-15148500D02*
X8531000Y-14965300D01*
X12540000Y-26180000D02*
X12414100Y-26180000D01*
%TD*%
M02*
