%TF.GenerationSoftware,KiCad,Pcbnew,7.0.2*%
%TF.CreationDate,2023-06-07T18:29:09+01:00*%
%TF.ProjectId,RIO-128K_ZXspectrum_impl_narrow,52494f2d-3132-4384-9b5f-5a5873706563,rev?*%
%TF.SameCoordinates,PX5e69ec0PY54e0840*%
%TF.FileFunction,Copper,L1,Top*%
%TF.FilePolarity,Positive*%
%FSLAX46Y46*%
G04 Gerber Fmt 4.6, Leading zero omitted, Abs format (unit mm)*
G04 Created by KiCad (PCBNEW 7.0.2) date 2023-06-07 18:29:09*
%MOMM*%
%LPD*%
G01*
G04 APERTURE LIST*
%TA.AperFunction,ComponentPad*%
%ADD10R,1.600000X1.600000*%
%TD*%
%TA.AperFunction,ComponentPad*%
%ADD11O,1.600000X1.600000*%
%TD*%
%TA.AperFunction,ComponentPad*%
%ADD12C,1.600000*%
%TD*%
%TA.AperFunction,ComponentPad*%
%ADD13R,1.700000X1.700000*%
%TD*%
%TA.AperFunction,ComponentPad*%
%ADD14O,1.700000X1.700000*%
%TD*%
%TA.AperFunction,ViaPad*%
%ADD15C,1.000000*%
%TD*%
%TA.AperFunction,Conductor*%
%ADD16C,0.400000*%
%TD*%
G04 APERTURE END LIST*
D10*
%TO.P,RIO_DECODER1,1,A->B*%
%TO.N,Net-(RIO_DECODER1-A->B)*%
X10000000Y-21000000D03*
D11*
%TO.P,RIO_DECODER1,2,A0*%
%TO.N,/RIO-128K_ZXspectrum/ROM_D0*%
X12540000Y-21000000D03*
%TO.P,RIO_DECODER1,3,A1*%
%TO.N,/RIO-128K_ZXspectrum/ROM_D1*%
X15080000Y-21000000D03*
%TO.P,RIO_DECODER1,4,A2*%
%TO.N,/RIO-128K_ZXspectrum/ROM_D2*%
X17620000Y-21000000D03*
%TO.P,RIO_DECODER1,5,A3*%
%TO.N,/RIO-128K_ZXspectrum/ROM_D3*%
X20160000Y-21000000D03*
%TO.P,RIO_DECODER1,6,A4*%
%TO.N,/RIO-128K_ZXspectrum/ROM_D4*%
X22700000Y-21000000D03*
%TO.P,RIO_DECODER1,7,A5*%
%TO.N,/RIO-128K_ZXspectrum/ROM_D5*%
X25240000Y-21000000D03*
%TO.P,RIO_DECODER1,8,A6*%
%TO.N,/RIO-128K_ZXspectrum/ROM_D6*%
X27780000Y-21000000D03*
%TO.P,RIO_DECODER1,9,A7*%
%TO.N,/RIO-128K_ZXspectrum/ROM_D7*%
X30320000Y-21000000D03*
%TO.P,RIO_DECODER1,10,GND*%
%TO.N,GND*%
X32860000Y-21000000D03*
%TO.P,RIO_DECODER1,11,B7*%
%TO.N,/RIO-128K_ZXspectrum/Z80_HARDLOCK_SET*%
X32860000Y-13380000D03*
%TO.P,RIO_DECODER1,12,B6*%
%TO.N,/RIO-128K_ZXspectrum/Z80_HARDLOCK_RESET*%
X30320000Y-13380000D03*
%TO.P,RIO_DECODER1,13,B5*%
%TO.N,/RIO-128K_ZXspectrum/WAIT_IO*%
X27780000Y-13380000D03*
%TO.P,RIO_DECODER1,14,B4*%
%TO.N,/RIO-128K_ZXspectrum/CACHE_DATASTATUS*%
X25240000Y-13380000D03*
%TO.P,RIO_DECODER1,15,B3*%
%TO.N,/RIO-128K_ZXspectrum/CACHE_SEL_3*%
X22700000Y-13380000D03*
%TO.P,RIO_DECODER1,16,B2*%
%TO.N,/RIO-128K_ZXspectrum/CACHE_SEL_2*%
X20160000Y-13380000D03*
%TO.P,RIO_DECODER1,17,B1*%
%TO.N,/RIO-128K_ZXspectrum/CACHE_SEL_1*%
X17620000Y-13380000D03*
%TO.P,RIO_DECODER1,18,B0*%
%TO.N,/RIO-128K_ZXspectrum/CACHE_SEL_0*%
X15080000Y-13380000D03*
%TO.P,RIO_DECODER1,19,CE*%
%TO.N,/RIO-128K_ZXspectrum/PERM_Z80_IORQ*%
X12540000Y-13380000D03*
%TO.P,RIO_DECODER1,20,VCC*%
%TO.N,+5V*%
X10000000Y-13380000D03*
%TD*%
D12*
%TO.P,R3,1*%
%TO.N,/RIO-128K_ZXspectrum/CACHE_DATASTATUS*%
X4000000Y-10840000D03*
D11*
%TO.P,R3,2*%
%TO.N,+5V*%
X4000000Y-21000000D03*
%TD*%
D10*
%TO.P,RIO1,1,NC*%
%TO.N,unconnected-(RIO1-NC-Pad1)*%
X51000000Y-31000000D03*
D11*
%TO.P,RIO1,2,A16*%
%TO.N,/RIO-128K_ZXspectrum/RIO_CONTROL.A16*%
X53540000Y-31000000D03*
%TO.P,RIO1,3,A14*%
%TO.N,/RIO-128K_ZXspectrum/RIO_CONTROL.A14*%
X56080000Y-31000000D03*
%TO.P,RIO1,4,A12*%
%TO.N,/RIO-128K_ZXspectrum/Z80_A12*%
X58620000Y-31000000D03*
%TO.P,RIO1,5,A7*%
%TO.N,/RIO-128K_ZXspectrum/Z80_A7*%
X61160000Y-31000000D03*
%TO.P,RIO1,6,A6*%
%TO.N,/RIO-128K_ZXspectrum/Z80_A6*%
X63700000Y-31000000D03*
%TO.P,RIO1,7,A5*%
%TO.N,/RIO-128K_ZXspectrum/Z80_A5*%
X66240000Y-31000000D03*
%TO.P,RIO1,8,A4*%
%TO.N,/RIO-128K_ZXspectrum/Z80_A4*%
X68780000Y-31000000D03*
%TO.P,RIO1,9,A3*%
%TO.N,/RIO-128K_ZXspectrum/Z80_A3*%
X71320000Y-31000000D03*
%TO.P,RIO1,10,A2*%
%TO.N,/RIO-128K_ZXspectrum/Z80_A2*%
X73860000Y-31000000D03*
%TO.P,RIO1,11,A1*%
%TO.N,/RIO-128K_ZXspectrum/Z80_A1*%
X76400000Y-31000000D03*
%TO.P,RIO1,12,A0*%
%TO.N,/RIO-128K_ZXspectrum/Z80_A0*%
X78940000Y-31000000D03*
%TO.P,RIO1,13,DQ0*%
%TO.N,/RIO-128K_ZXspectrum/ROM_D0*%
X81480000Y-31000000D03*
%TO.P,RIO1,14,DQ1*%
%TO.N,/RIO-128K_ZXspectrum/ROM_D1*%
X84020000Y-31000000D03*
%TO.P,RIO1,15,DQ2*%
%TO.N,/RIO-128K_ZXspectrum/ROM_D2*%
X86560000Y-31000000D03*
%TO.P,RIO1,16,VSS*%
%TO.N,GND*%
X89100000Y-31000000D03*
%TO.P,RIO1,17,DQ3*%
%TO.N,/RIO-128K_ZXspectrum/ROM_D3*%
X89100000Y-15760000D03*
%TO.P,RIO1,18,DQ4*%
%TO.N,/RIO-128K_ZXspectrum/ROM_D4*%
X86560000Y-15760000D03*
%TO.P,RIO1,19,DQ5*%
%TO.N,/RIO-128K_ZXspectrum/ROM_D5*%
X84020000Y-15760000D03*
%TO.P,RIO1,20,DQ6*%
%TO.N,/RIO-128K_ZXspectrum/ROM_D6*%
X81480000Y-15760000D03*
%TO.P,RIO1,21,DQ7*%
%TO.N,/RIO-128K_ZXspectrum/ROM_D7*%
X78940000Y-15760000D03*
%TO.P,RIO1,22,CE#*%
%TO.N,/RIO-128K_ZXspectrum/RIO_CONTROL.CE*%
X76400000Y-15760000D03*
%TO.P,RIO1,23,A10*%
%TO.N,/RIO-128K_ZXspectrum/Z80_A10*%
X73860000Y-15760000D03*
%TO.P,RIO1,24,OE#*%
%TO.N,/RIO-128K_ZXspectrum/RIO_CONTROL.OE*%
X71320000Y-15760000D03*
%TO.P,RIO1,25,A11*%
%TO.N,/RIO-128K_ZXspectrum/Z80_A11*%
X68780000Y-15760000D03*
%TO.P,RIO1,26,A9*%
%TO.N,/RIO-128K_ZXspectrum/Z80_A9*%
X66240000Y-15760000D03*
%TO.P,RIO1,27,A8*%
%TO.N,/RIO-128K_ZXspectrum/Z80_A8*%
X63700000Y-15760000D03*
%TO.P,RIO1,28,A13*%
%TO.N,/RIO-128K_ZXspectrum/Z80_A13*%
X61160000Y-15760000D03*
%TO.P,RIO1,29,WE#*%
%TO.N,/RIO-128K_ZXspectrum/RIO_CONTROL.WE*%
X58620000Y-15760000D03*
%TO.P,RIO1,30,CE2#*%
%TO.N,/RIO-128K_ZXspectrum/RIO_CE2*%
X56080000Y-15760000D03*
%TO.P,RIO1,31,A15*%
%TO.N,/RIO-128K_ZXspectrum/RIO_CONTROL.A15*%
X53540000Y-15760000D03*
%TO.P,RIO1,32,VCC*%
%TO.N,+5V*%
X51000000Y-15760000D03*
%TD*%
D10*
%TO.P,Z80-RIO_DATA1,1,A->B*%
%TO.N,/RIO-128K_ZXspectrum/RIO_CONTROL.OE*%
X10000000Y-33800000D03*
D11*
%TO.P,Z80-RIO_DATA1,2,A0*%
%TO.N,/RIO-128K_ZXspectrum/Z80_D0*%
X12540000Y-33800000D03*
%TO.P,Z80-RIO_DATA1,3,A1*%
%TO.N,/RIO-128K_ZXspectrum/Z80_D1*%
X15080000Y-33800000D03*
%TO.P,Z80-RIO_DATA1,4,A2*%
%TO.N,/RIO-128K_ZXspectrum/Z80_D2*%
X17620000Y-33800000D03*
%TO.P,Z80-RIO_DATA1,5,A3*%
%TO.N,/RIO-128K_ZXspectrum/Z80_D3*%
X20160000Y-33800000D03*
%TO.P,Z80-RIO_DATA1,6,A4*%
%TO.N,/RIO-128K_ZXspectrum/Z80_D4*%
X22700000Y-33800000D03*
%TO.P,Z80-RIO_DATA1,7,A5*%
%TO.N,/RIO-128K_ZXspectrum/Z80_D5*%
X25240000Y-33800000D03*
%TO.P,Z80-RIO_DATA1,8,A6*%
%TO.N,/RIO-128K_ZXspectrum/Z80_D6*%
X27780000Y-33800000D03*
%TO.P,Z80-RIO_DATA1,9,A7*%
%TO.N,/RIO-128K_ZXspectrum/Z80_D7*%
X30320000Y-33800000D03*
%TO.P,Z80-RIO_DATA1,10,GND*%
%TO.N,GND*%
X32860000Y-33800000D03*
%TO.P,Z80-RIO_DATA1,11,B7*%
%TO.N,/RIO-128K_ZXspectrum/ROM_D7*%
X32860000Y-26180000D03*
%TO.P,Z80-RIO_DATA1,12,B6*%
%TO.N,/RIO-128K_ZXspectrum/ROM_D6*%
X30320000Y-26180000D03*
%TO.P,Z80-RIO_DATA1,13,B5*%
%TO.N,/RIO-128K_ZXspectrum/ROM_D5*%
X27780000Y-26180000D03*
%TO.P,Z80-RIO_DATA1,14,B4*%
%TO.N,/RIO-128K_ZXspectrum/ROM_D4*%
X25240000Y-26180000D03*
%TO.P,Z80-RIO_DATA1,15,B3*%
%TO.N,/RIO-128K_ZXspectrum/ROM_D3*%
X22700000Y-26180000D03*
%TO.P,Z80-RIO_DATA1,16,B2*%
%TO.N,/RIO-128K_ZXspectrum/ROM_D2*%
X20160000Y-26180000D03*
%TO.P,Z80-RIO_DATA1,17,B1*%
%TO.N,/RIO-128K_ZXspectrum/ROM_D1*%
X17620000Y-26180000D03*
%TO.P,Z80-RIO_DATA1,18,B0*%
%TO.N,/RIO-128K_ZXspectrum/ROM_D0*%
X15080000Y-26180000D03*
%TO.P,Z80-RIO_DATA1,19,CE*%
%TO.N,/RIO-128K_ZXspectrum/RIO_CONTROL.ROM_RDY*%
X12540000Y-26180000D03*
%TO.P,Z80-RIO_DATA1,20,VCC*%
%TO.N,+5V*%
X10000000Y-26180000D03*
%TD*%
D13*
%TO.P,J1,1,Pin_1*%
%TO.N,/RIO-128K_ZXspectrum/Z80_D0*%
X4000000Y-41000000D03*
D14*
%TO.P,J1,2,Pin_2*%
%TO.N,/RIO-128K_ZXspectrum/Z80_D1*%
X6540000Y-41000000D03*
%TO.P,J1,3,Pin_3*%
%TO.N,/RIO-128K_ZXspectrum/Z80_D2*%
X9080000Y-41000000D03*
%TO.P,J1,4,Pin_4*%
%TO.N,/RIO-128K_ZXspectrum/Z80_D3*%
X11620000Y-41000000D03*
%TO.P,J1,5,Pin_5*%
%TO.N,/RIO-128K_ZXspectrum/Z80_D4*%
X14160000Y-41000000D03*
%TO.P,J1,6,Pin_6*%
%TO.N,/RIO-128K_ZXspectrum/Z80_D5*%
X16700000Y-41000000D03*
%TO.P,J1,7,Pin_7*%
%TO.N,/RIO-128K_ZXspectrum/Z80_D6*%
X19240000Y-41000000D03*
%TO.P,J1,8,Pin_8*%
%TO.N,/RIO-128K_ZXspectrum/Z80_D7*%
X21780000Y-41000000D03*
%TO.P,J1,9,Pin_9*%
%TO.N,/RIO-128K_ZXspectrum/Z80_A0*%
X24320000Y-41000000D03*
%TO.P,J1,10,Pin_10*%
%TO.N,/RIO-128K_ZXspectrum/Z80_A1*%
X26860000Y-41000000D03*
%TO.P,J1,11,Pin_11*%
%TO.N,/RIO-128K_ZXspectrum/Z80_A2*%
X29400000Y-41000000D03*
%TO.P,J1,12,Pin_12*%
%TO.N,/RIO-128K_ZXspectrum/Z80_A3*%
X31940000Y-41000000D03*
%TO.P,J1,13,Pin_13*%
%TO.N,/RIO-128K_ZXspectrum/Z80_A4*%
X34480000Y-41000000D03*
%TO.P,J1,14,Pin_14*%
%TO.N,/RIO-128K_ZXspectrum/Z80_A5*%
X37020000Y-41000000D03*
%TO.P,J1,15,Pin_15*%
%TO.N,/RIO-128K_ZXspectrum/Z80_A6*%
X39560000Y-41000000D03*
%TO.P,J1,16,Pin_16*%
%TO.N,/RIO-128K_ZXspectrum/Z80_A7*%
X42100000Y-41000000D03*
%TO.P,J1,17,Pin_17*%
%TO.N,/RIO-128K_ZXspectrum/Z80_A8*%
X44640000Y-41000000D03*
%TO.P,J1,18,Pin_18*%
%TO.N,/RIO-128K_ZXspectrum/Z80_A9*%
X47180000Y-41000000D03*
%TO.P,J1,19,Pin_19*%
%TO.N,/RIO-128K_ZXspectrum/Z80_A10*%
X49720000Y-41000000D03*
%TO.P,J1,20,Pin_20*%
%TO.N,/RIO-128K_ZXspectrum/Z80_A11*%
X52260000Y-41000000D03*
%TO.P,J1,21,Pin_21*%
%TO.N,/RIO-128K_ZXspectrum/Z80_A12*%
X54800000Y-41000000D03*
%TO.P,J1,22,Pin_22*%
%TO.N,/RIO-128K_ZXspectrum/Z80_A13*%
X57340000Y-41000000D03*
%TO.P,J1,23,Pin_23*%
%TO.N,/RIO-128K_ZXspectrum/Z80_A14*%
X59880000Y-41000000D03*
%TO.P,J1,24,Pin_24*%
%TO.N,/RIO-128K_ZXspectrum/Z80_A15*%
X62420000Y-41000000D03*
%TD*%
D13*
%TO.P,J2,1,Pin_1*%
%TO.N,+5V*%
X4000000Y-4000000D03*
D14*
%TO.P,J2,2,Pin_2*%
%TO.N,/RIO-128K_ZXspectrum/RIO_CONTROL.A16*%
X6540000Y-4000000D03*
%TO.P,J2,3,Pin_3*%
%TO.N,/RIO-128K_ZXspectrum/RIO_CONTROL.A15*%
X9080000Y-4000000D03*
%TO.P,J2,4,Pin_4*%
%TO.N,/RIO-128K_ZXspectrum/RIO_CONTROL.A14*%
X11620000Y-4000000D03*
%TO.P,J2,5,Pin_5*%
%TO.N,/RIO-128K_ZXspectrum/RIO_CONTROL.WE*%
X14160000Y-4000000D03*
%TO.P,J2,6,Pin_6*%
%TO.N,/RIO-128K_ZXspectrum/RIO_CONTROL.CE*%
X16700000Y-4000000D03*
%TO.P,J2,7,Pin_7*%
%TO.N,/RIO-128K_ZXspectrum/RIO_CONTROL.OE*%
X19240000Y-4000000D03*
%TO.P,J2,8,Pin_8*%
%TO.N,/RIO-128K_ZXspectrum/RIO_CONTROL.ROM_RDY*%
X21780000Y-4000000D03*
%TO.P,J2,9,Pin_9*%
%TO.N,/RIO-128K_ZXspectrum/CACHE_SEL_0*%
X24320000Y-4000000D03*
%TO.P,J2,10,Pin_10*%
%TO.N,/RIO-128K_ZXspectrum/CACHE_SEL_1*%
X26860000Y-4000000D03*
%TO.P,J2,11,Pin_11*%
%TO.N,/RIO-128K_ZXspectrum/CACHE_SEL_2*%
X29400000Y-4000000D03*
%TO.P,J2,12,Pin_12*%
%TO.N,/RIO-128K_ZXspectrum/CACHE_SEL_3*%
X31940000Y-4000000D03*
%TO.P,J2,13,Pin_13*%
%TO.N,/RIO-128K_ZXspectrum/CACHE_DATASTATUS*%
X34480000Y-4000000D03*
%TO.P,J2,14,Pin_14*%
%TO.N,/RIO-128K_ZXspectrum/WAIT_IO*%
X37020000Y-4000000D03*
%TO.P,J2,15,Pin_15*%
%TO.N,/RIO-128K_ZXspectrum/Z80_HARDLOCK_RESET*%
X39560000Y-4000000D03*
%TO.P,J2,16,Pin_16*%
%TO.N,/RIO-128K_ZXspectrum/Z80_HARDLOCK_SET*%
X42100000Y-4000000D03*
%TO.P,J2,17,Pin_17*%
%TO.N,/RIO-128K_ZXspectrum/PERM_Z80_IORQ*%
X44640000Y-4000000D03*
%TO.P,J2,18,Pin_18*%
%TO.N,GND*%
X47180000Y-4000000D03*
%TD*%
D12*
%TO.P,R1,1*%
%TO.N,+5V*%
X51000000Y-11760000D03*
D11*
%TO.P,R1,2*%
%TO.N,/RIO-128K_ZXspectrum/RIO_CE2*%
X61160000Y-11760000D03*
%TD*%
D12*
%TO.P,R2,1*%
%TO.N,Net-(RIO_DECODER1-A->B)*%
X4000000Y-26000000D03*
D11*
%TO.P,R2,2*%
%TO.N,+5V*%
X4000000Y-36160000D03*
%TD*%
D15*
%TO.N,*%
X0Y0D03*
%TO.N,/RIO-128K_ZXspectrum/Z80_A4*%
X35876100Y-37901500D03*
%TO.N,/RIO-128K_ZXspectrum/Z80_A5*%
X41909400Y-34990600D03*
%TO.N,/RIO-128K_ZXspectrum/Z80_A6*%
X44185300Y-33664500D03*
%TO.N,/RIO-128K_ZXspectrum/Z80_A7*%
X55942400Y-39002100D03*
%TO.N,/RIO-128K_ZXspectrum/Z80_A11*%
X68947100Y-18736800D03*
%TO.N,/RIO-128K_ZXspectrum/Z80_A13*%
X72466600Y-14159900D03*
%TO.N,/RIO-128K_ZXspectrum/RIO_CONTROL.A16*%
X42964200Y-30857500D03*
X9755800Y-18075100D03*
X39057100Y-18479300D03*
%TO.N,/RIO-128K_ZXspectrum/RIO_CONTROL.A14*%
X44606400Y-31224100D03*
X46416300Y-13075800D03*
%TO.N,GND*%
X36769700Y-21580600D03*
%TO.N,/RIO-128K_ZXspectrum/ROM_D3*%
X66048100Y-22388000D03*
%TO.N,/RIO-128K_ZXspectrum/RIO_CONTROL.CE*%
X55035800Y-9595300D03*
%TO.N,/RIO-128K_ZXspectrum/RIO_CONTROL.OE*%
X49439800Y-6651000D03*
%TO.N,/RIO-128K_ZXspectrum/Z80_HARDLOCK_RESET*%
X33984900Y-11509200D03*
%TO.N,/RIO-128K_ZXspectrum/RIO_CONTROL.ROM_RDY*%
X8531000Y-14965300D03*
%TD*%
D16*
%TO.N,/RIO-128K_ZXspectrum/Z80_D1*%
X13014700Y-35865300D02*
X15080000Y-33800000D01*
X6540000Y-41000000D02*
X11674700Y-35865300D01*
X11674700Y-35865300D02*
X13014700Y-35865300D01*
%TO.N,/RIO-128K_ZXspectrum/Z80_D2*%
X14361700Y-37058300D02*
X17620000Y-33800000D01*
X13021700Y-37058300D02*
X14361700Y-37058300D01*
X9080000Y-41000000D02*
X13021700Y-37058300D01*
%TO.N,/RIO-128K_ZXspectrum/Z80_D5*%
X16700000Y-41000000D02*
X22035700Y-35664300D01*
X22035700Y-35664300D02*
X23375700Y-35664300D01*
X23375700Y-35664300D02*
X25240000Y-33800000D01*
%TO.N,/RIO-128K_ZXspectrum/Z80_D6*%
X23788300Y-37791700D02*
X27780000Y-33800000D01*
X19240000Y-41000000D02*
X22448300Y-37791700D01*
X22448300Y-37791700D02*
X23788300Y-37791700D01*
%TO.N,/RIO-128K_ZXspectrum/Z80_D7*%
X23430200Y-39349800D02*
X24770200Y-39349800D01*
X24770200Y-39349800D02*
X30320000Y-33800000D01*
X21780000Y-41000000D02*
X23430200Y-39349800D01*
%TO.N,/RIO-128K_ZXspectrum/Z80_A4*%
X34480000Y-41000000D02*
X34480000Y-39297600D01*
X34480000Y-39297600D02*
X35876100Y-37901500D01*
%TO.N,/RIO-128K_ZXspectrum/Z80_A5*%
X37550100Y-39349900D02*
X41909400Y-34990600D01*
X37020000Y-39349900D02*
X37550100Y-39349900D01*
X37020000Y-41000000D02*
X37020000Y-39349900D01*
%TO.N,/RIO-128K_ZXspectrum/Z80_A6*%
X44185300Y-34724600D02*
X44185300Y-33664500D01*
X39560000Y-39349900D02*
X44185300Y-34724600D01*
X39560000Y-41000000D02*
X39560000Y-39349900D01*
%TO.N,/RIO-128K_ZXspectrum/Z80_A7*%
X61160000Y-33784500D02*
X61160000Y-31000000D01*
X55942400Y-39002100D02*
X61160000Y-33784500D01*
%TO.N,/RIO-128K_ZXspectrum/Z80_A8*%
X53589400Y-25870600D02*
X49121000Y-25870600D01*
X49121000Y-25870600D02*
X46322800Y-28668800D01*
X46322800Y-28668800D02*
X46322800Y-37667100D01*
X46322800Y-37667100D02*
X44640000Y-39349900D01*
X63700000Y-15760000D02*
X53589400Y-25870600D01*
X44640000Y-41000000D02*
X44640000Y-39349900D01*
%TO.N,/RIO-128K_ZXspectrum/Z80_A9*%
X55129300Y-26870700D02*
X49535200Y-26870700D01*
X47322900Y-29083000D02*
X47322900Y-39207000D01*
X47322900Y-39207000D02*
X47180000Y-39349900D01*
X49535200Y-26870700D02*
X47322900Y-29083000D01*
X66240000Y-15760000D02*
X55129300Y-26870700D01*
X47180000Y-41000000D02*
X47180000Y-39349900D01*
%TO.N,/RIO-128K_ZXspectrum/Z80_A10*%
X73860000Y-15760000D02*
X72183300Y-17436700D01*
X48323000Y-29497300D02*
X48323000Y-37952900D01*
X48323000Y-37952900D02*
X49720000Y-39349900D01*
X49720000Y-41000000D02*
X49720000Y-39349900D01*
X56749800Y-27870900D02*
X49949400Y-27870900D01*
X49949400Y-27870900D02*
X48323000Y-29497300D01*
X67184000Y-17436700D02*
X56749800Y-27870900D01*
X72183300Y-17436700D02*
X67184000Y-17436700D01*
%TO.N,/RIO-128K_ZXspectrum/Z80_A11*%
X52260000Y-35026400D02*
X49385600Y-32152000D01*
X67298200Y-18736800D02*
X68947100Y-18736800D01*
X50010200Y-29224400D02*
X56810600Y-29224400D01*
X49385600Y-29849000D02*
X50010200Y-29224400D01*
X56810600Y-29224400D02*
X67298200Y-18736800D01*
X52260000Y-41000000D02*
X52260000Y-35026400D01*
X49385600Y-32152000D02*
X49385600Y-29849000D01*
%TO.N,/RIO-128K_ZXspectrum/Z80_A12*%
X58620000Y-32600100D02*
X54642300Y-36577800D01*
X54642300Y-40842300D02*
X54800000Y-41000000D01*
X58620000Y-31000000D02*
X58620000Y-32600100D01*
X54642300Y-36577800D02*
X54642300Y-40842300D01*
%TO.N,/RIO-128K_ZXspectrum/Z80_A13*%
X62760100Y-14159900D02*
X72466600Y-14159900D01*
X61160000Y-15760000D02*
X62760100Y-14159900D01*
%TO.N,+5V*%
X4000000Y-5650100D02*
X5600900Y-7251000D01*
X5600900Y-7251000D02*
X5600900Y-17799000D01*
X5600900Y-17799000D02*
X4000000Y-19399900D01*
X4000000Y-4000000D02*
X4000000Y-5650100D01*
X51000000Y-11760000D02*
X51000000Y-15760000D01*
X4000000Y-21000000D02*
X4000000Y-19399900D01*
%TO.N,/RIO-128K_ZXspectrum/RIO_CE2*%
X57160000Y-14159900D02*
X56080000Y-14159900D01*
X59559900Y-11760000D02*
X57160000Y-14159900D01*
X56080000Y-15760000D02*
X56080000Y-14159900D01*
X61160000Y-11760000D02*
X59559900Y-11760000D01*
%TO.N,Net-(RIO_DECODER1-A->B)*%
X10000000Y-21000000D02*
X8399900Y-21000000D01*
X4000000Y-26000000D02*
X8399900Y-21600100D01*
X8399900Y-21600100D02*
X8399900Y-21000000D01*
%TO.N,/RIO-128K_ZXspectrum/CACHE_DATASTATUS*%
X32969900Y-5650100D02*
X25240000Y-13380000D01*
X34480000Y-4000000D02*
X34480000Y-5650100D01*
X34480000Y-5650100D02*
X32969900Y-5650100D01*
%TO.N,/RIO-128K_ZXspectrum/RIO_CONTROL.A16*%
X7134100Y-6244200D02*
X7134100Y-15453400D01*
X39057100Y-18479300D02*
X42964200Y-22386400D01*
X42964200Y-22386400D02*
X42964200Y-30857500D01*
X6540000Y-4000000D02*
X6540000Y-5650100D01*
X6540000Y-5650100D02*
X7134100Y-6244200D01*
X7134100Y-15453400D02*
X9755800Y-18075100D01*
%TO.N,/RIO-128K_ZXspectrum/RIO_CONTROL.A14*%
X44606400Y-14885700D02*
X44606400Y-31224100D01*
X46416300Y-13075800D02*
X44606400Y-14885700D01*
%TO.N,/RIO-128K_ZXspectrum/ROM_D0*%
X12540000Y-21000000D02*
X12540000Y-22600100D01*
X15080000Y-26180000D02*
X15080000Y-24579900D01*
X13100200Y-22600100D02*
X12540000Y-22600100D01*
X15080000Y-24579900D02*
X13100200Y-22600100D01*
%TO.N,/RIO-128K_ZXspectrum/ROM_D1*%
X17620000Y-26180000D02*
X17620000Y-24579900D01*
X17059800Y-24579900D02*
X15080000Y-22600100D01*
X17620000Y-24579900D02*
X17059800Y-24579900D01*
X15080000Y-21000000D02*
X15080000Y-22600100D01*
%TO.N,/RIO-128K_ZXspectrum/ROM_D2*%
X17620000Y-21000000D02*
X17620000Y-22600100D01*
X19599800Y-24579900D02*
X17620000Y-22600100D01*
X20160000Y-24579900D02*
X19599800Y-24579900D01*
X20160000Y-26180000D02*
X20160000Y-24579900D01*
%TO.N,GND*%
X47180000Y-4000000D02*
X48830100Y-4000000D01*
X89100000Y-31000000D02*
X89100000Y-29399900D01*
X89100000Y-29399900D02*
X90701100Y-27798800D01*
X90701100Y-15044300D02*
X79656800Y-4000000D01*
X32860000Y-33800000D02*
X32860000Y-32199900D01*
X32860000Y-32199900D02*
X36769700Y-28290200D01*
X46609800Y-5650100D02*
X32860000Y-19399900D01*
X47180000Y-4000000D02*
X47180000Y-5650100D01*
X32860000Y-21000000D02*
X32860000Y-19399900D01*
X36769700Y-28290200D02*
X36769700Y-21580600D01*
X90701100Y-27798800D02*
X90701100Y-15044300D01*
X47180000Y-5650100D02*
X46609800Y-5650100D01*
X79656800Y-4000000D02*
X48830100Y-4000000D01*
%TO.N,/RIO-128K_ZXspectrum/ROM_D3*%
X22700000Y-24579900D02*
X20720200Y-22600100D01*
X20160000Y-21000000D02*
X20160000Y-22600100D01*
X22700000Y-26180000D02*
X22700000Y-24579900D01*
X20720200Y-22600100D02*
X20160000Y-22600100D01*
X82472000Y-22388000D02*
X66048100Y-22388000D01*
X89100000Y-15760000D02*
X82472000Y-22388000D01*
%TO.N,/RIO-128K_ZXspectrum/ROM_D4*%
X25240000Y-24579900D02*
X24679800Y-24579900D01*
X34469500Y-26852400D02*
X33506800Y-27815100D01*
X25240000Y-26180000D02*
X25240000Y-24579900D01*
X76103600Y-5303600D02*
X48944700Y-5303600D01*
X34469500Y-19778800D02*
X34469500Y-26852400D01*
X48944700Y-5303600D02*
X34469500Y-19778800D01*
X24679800Y-24579900D02*
X22700000Y-22600100D01*
X86560000Y-15760000D02*
X76103600Y-5303600D01*
X22700000Y-21000000D02*
X22700000Y-22600100D01*
X33506800Y-27815100D02*
X26875100Y-27815100D01*
X26875100Y-27815100D02*
X25240000Y-26180000D01*
%TO.N,/RIO-128K_ZXspectrum/ROM_D5*%
X25800200Y-22600100D02*
X25240000Y-22600100D01*
X27780000Y-24579900D02*
X25800200Y-22600100D01*
X25240000Y-21000000D02*
X25240000Y-22600100D01*
X27780000Y-26180000D02*
X27780000Y-24579900D01*
%TO.N,/RIO-128K_ZXspectrum/ROM_D6*%
X30320000Y-26180000D02*
X30320000Y-24579900D01*
X30320000Y-24579900D02*
X28340200Y-22600100D01*
X28340200Y-22600100D02*
X27780000Y-22600100D01*
X27780000Y-21000000D02*
X27780000Y-22600100D01*
%TO.N,/RIO-128K_ZXspectrum/ROM_D7*%
X30320000Y-21000000D02*
X30320000Y-22600100D01*
X30320000Y-22600100D02*
X32299800Y-24579900D01*
X32299800Y-24579900D02*
X32860000Y-24579900D01*
X32860000Y-26180000D02*
X32860000Y-24579900D01*
%TO.N,/RIO-128K_ZXspectrum/RIO_CONTROL.CE*%
X76400000Y-15760000D02*
X70235300Y-9595300D01*
X70235300Y-9595300D02*
X55035800Y-9595300D01*
%TO.N,/RIO-128K_ZXspectrum/RIO_CONTROL.OE*%
X49439800Y-6651000D02*
X49046700Y-6651000D01*
X14315400Y-29484600D02*
X10000000Y-33800000D01*
X49046700Y-6651000D02*
X35469600Y-20228100D01*
X35469600Y-20228100D02*
X35469600Y-27266600D01*
X35469600Y-27266600D02*
X33251600Y-29484600D01*
X33251600Y-29484600D02*
X14315400Y-29484600D01*
%TO.N,/RIO-128K_ZXspectrum/Z80_HARDLOCK_SET*%
X42100000Y-5740100D02*
X42100000Y-5650100D01*
X32860000Y-13380000D02*
X34460100Y-13380000D01*
X42100000Y-4000000D02*
X42100000Y-5650100D01*
X34460100Y-13380000D02*
X42100000Y-5740100D01*
%TO.N,/RIO-128K_ZXspectrum/Z80_HARDLOCK_RESET*%
X39560000Y-4000000D02*
X39560000Y-5934100D01*
X39560000Y-5934100D02*
X33984900Y-11509200D01*
%TO.N,/RIO-128K_ZXspectrum/WAIT_IO*%
X29644300Y-11515700D02*
X27780000Y-13380000D01*
X31154400Y-11515700D02*
X29644300Y-11515700D01*
X37020000Y-4000000D02*
X37020000Y-5650100D01*
X37020000Y-5650100D02*
X31154400Y-11515700D01*
%TO.N,/RIO-128K_ZXspectrum/CACHE_SEL_3*%
X22700000Y-13380000D02*
X22700000Y-11779900D01*
X31940000Y-4000000D02*
X24160100Y-11779900D01*
X24160100Y-11779900D02*
X22700000Y-11779900D01*
%TO.N,/RIO-128K_ZXspectrum/CACHE_SEL_2*%
X24671900Y-8309400D02*
X25090600Y-8309400D01*
X20160000Y-11779900D02*
X21201400Y-11779900D01*
X25090600Y-8309400D02*
X29400000Y-4000000D01*
X20160000Y-13380000D02*
X20160000Y-11779900D01*
X21201400Y-11779900D02*
X24671900Y-8309400D01*
%TO.N,/RIO-128K_ZXspectrum/CACHE_SEL_1*%
X17620000Y-13380000D02*
X17620000Y-11779900D01*
X18661400Y-11779900D02*
X22892400Y-7548900D01*
X17620000Y-11779900D02*
X18661400Y-11779900D01*
X23311100Y-7548900D02*
X26860000Y-4000000D01*
X22892400Y-7548900D02*
X23311100Y-7548900D01*
%TO.N,/RIO-128K_ZXspectrum/CACHE_SEL_0*%
X15080000Y-11779900D02*
X19811000Y-7048900D01*
X15080000Y-13380000D02*
X15080000Y-11779900D01*
X19811000Y-7048900D02*
X21271100Y-7048900D01*
X21271100Y-7048900D02*
X24320000Y-4000000D01*
%TO.N,/RIO-128K_ZXspectrum/PERM_Z80_IORQ*%
X14147600Y-14987600D02*
X12540000Y-13380000D01*
X44640000Y-5650100D02*
X35302500Y-14987600D01*
X44640000Y-4000000D02*
X44640000Y-5650100D01*
X35302500Y-14987600D02*
X14147600Y-14987600D01*
%TO.N,/RIO-128K_ZXspectrum/RIO_CONTROL.ROM_RDY*%
X8377400Y-12666600D02*
X8377400Y-14811700D01*
X15393800Y-5650200D02*
X8377400Y-12666600D01*
X8377400Y-14811700D02*
X8531000Y-14965300D01*
X20129800Y-5650200D02*
X15393800Y-5650200D01*
X21780000Y-4000000D02*
X20129800Y-5650200D01*
%TD*%
M02*
