<?xml version="1.0" standalone="no"?>
<!DOCTYPE svg PUBLIC "-//W3C//DTD SVG 1.1//EN"
"http://www.w3.org/Graphics/SVG/1.1/DTD/svg11.dtd">
<svg width="771.213" height="506.646" viewBox="0 0 16066.9 10555.1" version="1.1"
xmlns="http://www.w3.org/2000/svg"
xmlns:xlink="http://www.w3.org/1999/xlink">
<circle cx="159.449" cy="159.449" r="19.685" style=""/>
<circle cx="2997.48" cy="683.228" r="19.685" style=""/>
<circle cx="4928.35" cy="2815.59" r="19.685" style=""/>
<circle cx="4095.2" cy="3805.2" r="19.685" style=""/>
<circle cx="4233.31" cy="3843.94" r="19.685" style=""/>
<circle cx="3133.31" cy="5007.56" r="19.685" style=""/>
<circle cx="3285.2" cy="5091.34" r="19.685" style=""/>
<circle cx="3171.18" cy="5190.39" r="19.685" style=""/>
<circle cx="2921.97" cy="5199.61" r="19.685" style=""/>
<circle cx="2828.11" cy="4929.29" r="19.685" style=""/>
<circle cx="2350.08" cy="5045.83" r="19.685" style=""/>
<circle cx="2191.73" cy="5037.48" r="19.685" style=""/>
<circle cx="2679.13" cy="5792.76" r="19.685" style=""/>
<circle cx="2709.53" cy="5967.87" r="19.685" style=""/>
<circle cx="2741.1" cy="6096.69" r="19.685" style=""/>
<circle cx="2582.52" cy="6328.5" r="19.685" style=""/>
<circle cx="2747.87" cy="6451.34" r="19.685" style=""/>
<circle cx="3154.8" cy="6461.57" r="19.685" style=""/>
<circle cx="3478.03" cy="6378.82" r="19.685" style=""/>
<circle cx="2871.65" cy="6861.81" r="19.685" style=""/>
<circle cx="2811.18" cy="7233.94" r="19.685" style=""/>
<circle cx="2493.7" cy="7670.16" r="19.685" style=""/>
<circle cx="2574.49" cy="7960.71" r="19.685" style=""/>
<circle cx="1977.01" cy="7987.87" r="19.685" style=""/>
<circle cx="1351.97" cy="8744.17" r="19.685" style=""/>
<circle cx="1198.27" cy="6529.53" r="19.685" style=""/>
<circle cx="805.669" cy="6289.61" r="19.685" style=""/>
<circle cx="527.008" cy="5862.68" r="19.685" style=""/>
<circle cx="1757.4" cy="6430.55" r="19.685" style=""/>
<circle cx="2120.16" cy="6074.09" r="19.685" style=""/>
<circle cx="4870.08" cy="6123.23" r="19.685" style=""/>
<circle cx="5429.13" cy="5727.4" r="19.685" style=""/>
<circle cx="5650.24" cy="5746.46" r="19.685" style=""/>
<circle cx="6033.62" cy="5792.91" r="19.685" style=""/>
<circle cx="6199.37" cy="5770" r="19.685" style=""/>
<circle cx="7093.07" cy="5497.48" r="19.685" style=""/>
<circle cx="7163.39" cy="5165.83" r="19.685" style=""/>
<circle cx="7371.1" cy="5004.72" r="19.685" style=""/>
<circle cx="8379.76" cy="4981.26" r="19.685" style=""/>
<circle cx="8468.82" cy="4892.2" r="19.685" style=""/>
<circle cx="8649.76" cy="4401.02" r="19.685" style=""/>
<circle cx="9004.33" cy="4566.85" r="19.685" style=""/>
<circle cx="9681.42" cy="5039.61" r="19.685" style=""/>
<circle cx="8949.29" cy="5991.42" r="19.685" style=""/>
<circle cx="8421.42" cy="5565.59" r="19.685" style=""/>
<circle cx="8707.87" cy="5388.19" r="19.685" style=""/>
<circle cx="7629.45" cy="6252.91" r="19.685" style=""/>
<circle cx="7723.7" cy="6801.1" r="19.685" style=""/>
<circle cx="7947.48" cy="6861.1" r="19.685" style=""/>
<circle cx="8317.17" cy="7275.28" r="19.685" style=""/>
<circle cx="8522.52" cy="7327.64" r="19.685" style=""/>
<circle cx="8534.02" cy="7168.98" r="19.685" style=""/>
<circle cx="8996.3" cy="7713.46" r="19.685" style=""/>
<circle cx="9784.33" cy="7081.97" r="19.685" style=""/>
<circle cx="9901.02" cy="6521.89" r="19.685" style=""/>
<circle cx="10030.2" cy="6351.57" r="19.685" style=""/>
<circle cx="10542.1" cy="6821.65" r="19.685" style=""/>
<circle cx="10647.1" cy="6717.95" r="19.685" style=""/>
<circle cx="10437.7" cy="7158.11" r="19.685" style=""/>
<circle cx="11186.5" cy="6296.61" r="19.685" style=""/>
<circle cx="11244.2" cy="6093.31" r="19.685" style=""/>
<circle cx="11631.7" cy="6392.2" r="19.685" style=""/>
<circle cx="11547.9" cy="6497.01" r="19.685" style=""/>
<circle cx="11794.3" cy="5975.04" r="19.685" style=""/>
<circle cx="11472.4" cy="5559.69" r="19.685" style=""/>
<circle cx="11916" cy="4781.42" r="19.685" style=""/>
<circle cx="11448.3" cy="4437.72" r="19.685" style=""/>
<circle cx="11878.5" cy="4096.93" r="19.685" style=""/>
<circle cx="12784.6" cy="3645.67" r="19.685" style=""/>
<circle cx="13288.3" cy="3586.46" r="19.685" style=""/>
<circle cx="14175.3" cy="4233.62" r="19.685" style=""/>
<circle cx="14417.3" cy="4157.8" r="19.685" style=""/>
<circle cx="14254.7" cy="5243.46" r="19.685" style=""/>
<circle cx="13912.1" cy="5563.7" r="19.685" style=""/>
<circle cx="13837.6" cy="5699.45" r="19.685" style=""/>
<circle cx="14079.1" cy="5862.28" r="19.685" style=""/>
<circle cx="14889" cy="5378.11" r="19.685" style=""/>
<circle cx="15430" cy="6131.26" r="19.685" style=""/>
<circle cx="15343.1" cy="6725.28" r="19.685" style=""/>
<circle cx="14816.6" cy="6907.56" r="19.685" style=""/>
<circle cx="14070.4" cy="7143.78" r="19.685" style=""/>
<circle cx="13733.9" cy="6839.92" r="19.685" style=""/>
<circle cx="13505.7" cy="6947.24" r="19.685" style=""/>
<circle cx="13381.8" cy="6814.57" r="19.685" style=""/>
<circle cx="13638.8" cy="7418.43" r="19.685" style=""/>
<circle cx="12329.6" cy="9056.06" r="19.685" style=""/>
<circle cx="11541.2" cy="9856.46" r="19.685" style=""/>
<circle cx="10070.6" cy="9084.33" r="19.685" style=""/>
<circle cx="9901.97" cy="9182.28" r="19.685" style=""/>
<circle cx="10247.6" cy="8342.76" r="19.685" style=""/>
<circle cx="10100.3" cy="8047.24" r="19.685" style=""/>
<circle cx="8393.39" cy="9790.47" r="19.685" style=""/>
<circle cx="8006.85" cy="9335.98" r="19.685" style=""/>
<circle cx="7985.51" cy="9162.44" r="19.685" style=""/>
<circle cx="7637.09" cy="8808.74" r="19.685" style=""/>
<circle cx="7897.8" cy="8609.76" r="19.685" style=""/>
<circle cx="7887.24" cy="8303.7" r="19.685" style=""/>
<circle cx="7158.35" cy="8792.13" r="19.685" style=""/>
<circle cx="7006.77" cy="8567.95" r="19.685" style=""/>
<circle cx="6678.98" cy="8721.18" r="19.685" style=""/>
<circle cx="6163.54" cy="9157.24" r="19.685" style=""/>
<circle cx="5988.66" cy="9107.56" r="19.685" style=""/>
<circle cx="6100.63" cy="9367.72" r="19.685" style=""/>
<circle cx="5372.91" cy="8966.06" r="19.685" style=""/>
<circle cx="5164.41" cy="8744.17" r="19.685" style=""/>
<circle cx="4838.5" cy="9042.99" r="19.685" style=""/>
<circle cx="6858.74" cy="9423.39" r="19.685" style=""/>
<circle cx="7071.26" cy="7275.28" r="19.685" style=""/>
<circle cx="6503.39" cy="6945.35" r="19.685" style=""/>
<circle cx="8558.11" cy="3782.36" r="19.685" style=""/>
<circle cx="8448.03" cy="3566.38" r="19.685" style=""/>
<circle cx="8467.87" cy="3440.39" r="19.685" style=""/>
<circle cx="8669.92" cy="3238.27" r="19.685" style=""/>
<circle cx="8844.25" cy="3549.53" r="19.685" style=""/>
<circle cx="8991.34" cy="3668.74" r="19.685" style=""/>
<circle cx="8924.09" cy="3782.36" r="19.685" style=""/>
<circle cx="9363.31" cy="3399.69" r="19.685" style=""/>
<circle cx="9489.29" cy="3377.48" r="19.685" style=""/>
<circle cx="10674.4" cy="2534.8" r="19.685" style=""/>
<circle cx="10763.2" cy="2757.56" r="19.685" style=""/>
<circle cx="11485.5" cy="2392.13" r="19.685" style=""/>
<circle cx="12570.4" cy="2265.51" r="19.685" style=""/>
<circle cx="12588.6" cy="2392.13" r="19.685" style=""/>
<circle cx="14380.7" cy="1052.91" r="19.685" style=""/>
<circle cx="10959.4" cy="4334.65" r="19.685" style=""/>
<circle cx="13120.8" cy="4925.67" r="19.685" style=""/>
<circle cx="10180.9" cy="1565.67" r="19.685" style=""/>
<circle cx="9573.46" cy="2003.46" r="19.685" style=""/>
<circle cx="7387.87" cy="3080.79" r="19.685" style=""/>
<circle cx="6231.18" cy="3315.43" r="19.685" style=""/>
<circle cx="6206.77" cy="3441.42" r="19.685" style=""/>
<circle cx="5954.09" cy="3624.02" r="19.685" style=""/>
<circle cx="2578.35" cy="2148.43" r="31.4961" style=""/>
<circle cx="2778.35" cy="2148.43" r="31.4961" style=""/>
<circle cx="2978.35" cy="2148.43" r="31.4961" style=""/>
<circle cx="3178.35" cy="2148.43" r="31.4961" style=""/>
<circle cx="3378.35" cy="2148.43" r="31.4961" style=""/>
<circle cx="3578.35" cy="2148.43" r="31.4961" style=""/>
<circle cx="3778.35" cy="2148.43" r="31.4961" style=""/>
<circle cx="3978.35" cy="2148.43" r="31.4961" style=""/>
<circle cx="4178.35" cy="2148.43" r="31.4961" style=""/>
<circle cx="4378.35" cy="2148.43" r="31.4961" style=""/>
<circle cx="3778.35" cy="2748.43" r="31.4961" style=""/>
<circle cx="3578.35" cy="2748.43" r="31.4961" style=""/>
<circle cx="3378.35" cy="2748.43" r="31.4961" style=""/>
<circle cx="3178.35" cy="2748.43" r="31.4961" style=""/>
<circle cx="2978.35" cy="2748.43" r="31.4961" style=""/>
<circle cx="2778.35" cy="2748.43" r="31.4961" style=""/>
<circle cx="2578.35" cy="2748.43" r="31.4961" style=""/>
<circle cx="3978.35" cy="2748.43" r="31.4961" style=""/>
<circle cx="4178.35" cy="2748.43" r="31.4961" style=""/>
<circle cx="4378.35" cy="2748.43" r="31.4961" style=""/>
<circle cx="5173.62" cy="2148.43" r="31.4961" style=""/>
<circle cx="5373.62" cy="2148.43" r="31.4961" style=""/>
<circle cx="5573.62" cy="2148.43" r="31.4961" style=""/>
<circle cx="5773.62" cy="2148.43" r="31.4961" style=""/>
<circle cx="5973.62" cy="2148.43" r="31.4961" style=""/>
<circle cx="6173.62" cy="2148.43" r="31.4961" style=""/>
<circle cx="6373.62" cy="2148.43" r="31.4961" style=""/>
<circle cx="6573.62" cy="2148.43" r="31.4961" style=""/>
<circle cx="6773.62" cy="2148.43" r="31.4961" style=""/>
<circle cx="6973.62" cy="2148.43" r="31.4961" style=""/>
<circle cx="7538.98" cy="2157.87" r="31.4961" style=""/>
<circle cx="7738.98" cy="2157.87" r="31.4961" style=""/>
<circle cx="7938.98" cy="2157.87" r="31.4961" style=""/>
<circle cx="8138.98" cy="2157.87" r="31.4961" style=""/>
<circle cx="8338.98" cy="2157.87" r="31.4961" style=""/>
<circle cx="8538.98" cy="2157.87" r="31.4961" style=""/>
<circle cx="8738.98" cy="2157.87" r="31.4961" style=""/>
<circle cx="8938.98" cy="2157.87" r="31.4961" style=""/>
<circle cx="9138.98" cy="2157.87" r="31.4961" style=""/>
<circle cx="9338.98" cy="2157.87" r="31.4961" style=""/>
<circle cx="8938.98" cy="2757.87" r="31.4961" style=""/>
<circle cx="8738.98" cy="2757.87" r="31.4961" style=""/>
<circle cx="8538.98" cy="2757.87" r="31.4961" style=""/>
<circle cx="8338.98" cy="2757.87" r="31.4961" style=""/>
<circle cx="8138.98" cy="2757.87" r="31.4961" style=""/>
<circle cx="7938.98" cy="2757.87" r="31.4961" style=""/>
<circle cx="7738.98" cy="2757.87" r="31.4961" style=""/>
<circle cx="7538.98" cy="2757.87" r="31.4961" style=""/>
<circle cx="6973.62" cy="2748.43" r="31.4961" style=""/>
<circle cx="6773.62" cy="2748.43" r="31.4961" style=""/>
<circle cx="6573.62" cy="2748.43" r="31.4961" style=""/>
<circle cx="6373.62" cy="2748.43" r="31.4961" style=""/>
<circle cx="6173.62" cy="2748.43" r="31.4961" style=""/>
<circle cx="5973.62" cy="2748.43" r="31.4961" style=""/>
<circle cx="5773.62" cy="2748.43" r="31.4961" style=""/>
<circle cx="5573.62" cy="2748.43" r="31.4961" style=""/>
<circle cx="5373.62" cy="2748.43" r="31.4961" style=""/>
<circle cx="5173.62" cy="2748.43" r="31.4961" style=""/>
<circle cx="6734.25" cy="5498.03" r="31.4961" style=""/>
<circle cx="6734.25" cy="5698.03" r="31.4961" style=""/>
<circle cx="6734.25" cy="5898.03" r="31.4961" style=""/>
<circle cx="6734.25" cy="6098.03" r="31.4961" style=""/>
<circle cx="6734.25" cy="6298.03" r="31.4961" style=""/>
<circle cx="6734.25" cy="6498.03" r="31.4961" style=""/>
<circle cx="6734.25" cy="6698.03" r="31.4961" style=""/>
<circle cx="7334.25" cy="6098.03" r="31.4961" style=""/>
<circle cx="7334.25" cy="6298.03" r="31.4961" style=""/>
<circle cx="7334.25" cy="6498.03" r="31.4961" style=""/>
<circle cx="7334.25" cy="6698.03" r="31.4961" style=""/>
<circle cx="6764.17" cy="7390.94" r="31.4961" style=""/>
<circle cx="6764.17" cy="7590.94" r="31.4961" style=""/>
<circle cx="6764.17" cy="7790.94" r="31.4961" style=""/>
<circle cx="6764.17" cy="7990.94" r="31.4961" style=""/>
<circle cx="6764.17" cy="8190.94" r="31.4961" style=""/>
<circle cx="6764.17" cy="8390.94" r="31.4961" style=""/>
<circle cx="6764.17" cy="8590.94" r="31.4961" style=""/>
<circle cx="7364.17" cy="7990.94" r="31.4961" style=""/>
<circle cx="7364.17" cy="7790.94" r="31.4961" style=""/>
<circle cx="7364.17" cy="7590.94" r="31.4961" style=""/>
<circle cx="7364.17" cy="7390.94" r="31.4961" style=""/>
<circle cx="8151.57" cy="7390.94" r="31.4961" style=""/>
<circle cx="8151.57" cy="7590.94" r="31.4961" style=""/>
<circle cx="8151.57" cy="7790.94" r="31.4961" style=""/>
<circle cx="8151.57" cy="7990.94" r="31.4961" style=""/>
<circle cx="8151.57" cy="8190.94" r="31.4961" style=""/>
<circle cx="8151.57" cy="8390.94" r="31.4961" style=""/>
<circle cx="8151.57" cy="8590.94" r="31.4961" style=""/>
<circle cx="8751.57" cy="7990.94" r="31.4961" style=""/>
<circle cx="8751.57" cy="7790.94" r="31.4961" style=""/>
<circle cx="8751.57" cy="7590.94" r="31.4961" style=""/>
<circle cx="8751.57" cy="7390.94" r="31.4961" style=""/>
<circle cx="8220.87" cy="6694.88" r="31.4961" style=""/>
<circle cx="8220.87" cy="6494.88" r="31.4961" style=""/>
<circle cx="8220.87" cy="6294.88" r="31.4961" style=""/>
<circle cx="8220.87" cy="6094.88" r="31.4961" style=""/>
<circle cx="8220.87" cy="5894.88" r="31.4961" style=""/>
<circle cx="8220.87" cy="5694.88" r="31.4961" style=""/>
<circle cx="8220.87" cy="5494.88" r="31.4961" style=""/>
<circle cx="8820.87" cy="5494.88" r="31.4961" style=""/>
<circle cx="8820.87" cy="5694.88" r="31.4961" style=""/>
<circle cx="8820.87" cy="5894.88" r="31.4961" style=""/>
<circle cx="8820.87" cy="6094.88" r="31.4961" style=""/>
<circle cx="8820.87" cy="6294.88" r="31.4961" style=""/>
<circle cx="8820.87" cy="6494.88" r="31.4961" style=""/>
<circle cx="8820.87" cy="6694.88" r="31.4961" style=""/>
<circle cx="7334.25" cy="5498.03" r="31.4961" style=""/>
<circle cx="7334.25" cy="5698.03" r="31.4961" style=""/>
<circle cx="7334.25" cy="5898.03" r="31.4961" style=""/>
<circle cx="7364.17" cy="8190.94" r="31.4961" style=""/>
<circle cx="7364.17" cy="8390.94" r="31.4961" style=""/>
<circle cx="7364.17" cy="8590.94" r="31.4961" style=""/>
<circle cx="8033.46" cy="9608.27" r="31.4961" style=""/>
<circle cx="8033.46" cy="10002" r="31.4961" style=""/>
<circle cx="8791.73" cy="9608.27" r="31.4961" style=""/>
<circle cx="9591.73" cy="9608.27" r="31.4961" style=""/>
<circle cx="9910.63" cy="9608.27" r="31.4961" style=""/>
<circle cx="10383.1" cy="9135.83" r="31.4961" style=""/>
<circle cx="10383.1" cy="8820.87" r="31.4961" style=""/>
<circle cx="10710.6" cy="9608.27" r="31.4961" style=""/>
<circle cx="11183.1" cy="9135.83" r="31.4961" style=""/>
<circle cx="11183.1" cy="8820.87" r="31.4961" style=""/>
<circle cx="11419.3" cy="8278.74" r="31.4961" style=""/>
<circle cx="11419.3" cy="8078.74" r="31.4961" style=""/>
<circle cx="11419.3" cy="7878.74" r="31.4961" style=""/>
<circle cx="11419.3" cy="7678.74" r="31.4961" style=""/>
<circle cx="11419.3" cy="7478.74" r="31.4961" style=""/>
<circle cx="11419.3" cy="7278.74" r="31.4961" style=""/>
<circle cx="11419.3" cy="7078.74" r="31.4961" style=""/>
<circle cx="12019.3" cy="7078.74" r="31.4961" style=""/>
<circle cx="12019.3" cy="7278.74" r="31.4961" style=""/>
<circle cx="12019.3" cy="7478.74" r="31.4961" style=""/>
<circle cx="12019.3" cy="7678.74" r="31.4961" style=""/>
<circle cx="12019.3" cy="7878.74" r="31.4961" style=""/>
<circle cx="12019.3" cy="8078.74" r="31.4961" style=""/>
<circle cx="12019.3" cy="8278.74" r="31.4961" style=""/>
<circle cx="11340.6" cy="9529.53" r="31.4961" style=""/>
<circle cx="11340.6" cy="9923.23" r="31.4961" style=""/>
<circle cx="8751.57" cy="8190.94" r="31.4961" style=""/>
<circle cx="8751.57" cy="8390.94" r="31.4961" style=""/>
<circle cx="8751.57" cy="8590.94" r="31.4961" style=""/>
<circle cx="10386.2" cy="5844.49" r="31.4961" style=""/>
<circle cx="10386.2" cy="5644.49" r="31.4961" style=""/>
<circle cx="10386.2" cy="5444.49" r="31.4961" style=""/>
<circle cx="10386.2" cy="5244.49" r="31.4961" style=""/>
<circle cx="10386.2" cy="5044.49" r="31.4961" style=""/>
<circle cx="10386.2" cy="4844.49" r="31.4961" style=""/>
<circle cx="10386.2" cy="4644.49" r="31.4961" style=""/>
<circle cx="10986.2" cy="4644.49" r="31.4961" style=""/>
<circle cx="10986.2" cy="4844.49" r="31.4961" style=""/>
<circle cx="10986.2" cy="5044.49" r="31.4961" style=""/>
<circle cx="10986.2" cy="5244.49" r="31.4961" style=""/>
<circle cx="10986.2" cy="5444.49" r="31.4961" style=""/>
<circle cx="10986.2" cy="5644.49" r="31.4961" style=""/>
<circle cx="10986.2" cy="5844.49" r="31.4961" style=""/>
<circle cx="10386.2" cy="3915.35" r="31.4961" style=""/>
<circle cx="10386.2" cy="3715.35" r="31.4961" style=""/>
<circle cx="10386.2" cy="3515.35" r="31.4961" style=""/>
<circle cx="10386.2" cy="3315.35" r="31.4961" style=""/>
<circle cx="10386.2" cy="3115.35" r="31.4961" style=""/>
<circle cx="10386.2" cy="2915.35" r="31.4961" style=""/>
<circle cx="10386.2" cy="2715.35" r="31.4961" style=""/>
<circle cx="10986.2" cy="2715.35" r="31.4961" style=""/>
<circle cx="10986.2" cy="2915.35" r="31.4961" style=""/>
<circle cx="10986.2" cy="3115.35" r="31.4961" style=""/>
<circle cx="10986.2" cy="3315.35" r="31.4961" style=""/>
<circle cx="10986.2" cy="3515.35" r="31.4961" style=""/>
<circle cx="10986.2" cy="3715.35" r="31.4961" style=""/>
<circle cx="10986.2" cy="3915.35" r="31.4961" style=""/>
<circle cx="9338.98" cy="2757.87" r="31.4961" style=""/>
<circle cx="9138.98" cy="2757.87" r="31.4961" style=""/>
<circle cx="13044.5" cy="2324.8" r="31.4961" style=""/>
<circle cx="13244.5" cy="2324.8" r="31.4961" style=""/>
<circle cx="13444.5" cy="2324.8" r="31.4961" style=""/>
<circle cx="13644.5" cy="2324.8" r="31.4961" style=""/>
<circle cx="13844.5" cy="2324.8" r="31.4961" style=""/>
<circle cx="14044.5" cy="2324.8" r="31.4961" style=""/>
<circle cx="14244.5" cy="2324.8" r="31.4961" style=""/>
<circle cx="14444.5" cy="2324.8" r="31.4961" style=""/>
<circle cx="14644.5" cy="2324.8" r="31.4961" style=""/>
<circle cx="14844.5" cy="2324.8" r="31.4961" style=""/>
<circle cx="14244.5" cy="2924.8" r="31.4961" style=""/>
<circle cx="14044.5" cy="2924.8" r="31.4961" style=""/>
<circle cx="13844.5" cy="2924.8" r="31.4961" style=""/>
<circle cx="13644.5" cy="2924.8" r="31.4961" style=""/>
<circle cx="13444.5" cy="2924.8" r="31.4961" style=""/>
<circle cx="13244.5" cy="2924.8" r="31.4961" style=""/>
<circle cx="13044.5" cy="2924.8" r="31.4961" style=""/>
<circle cx="13584.6" cy="3466.54" r="31.4961" style=""/>
<circle cx="13784.6" cy="3466.54" r="31.4961" style=""/>
<circle cx="13984.6" cy="3466.54" r="31.4961" style=""/>
<circle cx="14184.6" cy="3466.54" r="31.4961" style=""/>
<circle cx="14384.6" cy="3466.54" r="31.4961" style=""/>
<circle cx="14584.6" cy="3466.54" r="31.4961" style=""/>
<circle cx="14784.6" cy="3466.54" r="31.4961" style=""/>
<circle cx="14984.6" cy="3466.54" r="31.4961" style=""/>
<circle cx="15184.6" cy="3466.54" r="31.4961" style=""/>
<circle cx="14644.5" cy="2924.8" r="31.4961" style=""/>
<circle cx="14844.5" cy="2924.8" r="31.4961" style=""/>
<circle cx="14444.5" cy="2924.8" r="31.4961" style=""/>
<circle cx="14214.6" cy="8853.94" r="31.4961" style=""/>
<circle cx="14490.2" cy="8853.94" r="31.4961" style=""/>
<circle cx="14214.6" cy="9653.94" r="31.4961" style=""/>
<circle cx="14490.2" cy="9653.94" r="31.4961" style=""/>
<circle cx="4987.8" cy="7078.74" r="31.4961" style=""/>
<circle cx="4987.8" cy="7278.74" r="31.4961" style=""/>
<circle cx="4987.8" cy="7478.74" r="31.4961" style=""/>
<circle cx="4987.8" cy="7678.74" r="31.4961" style=""/>
<circle cx="4987.8" cy="7878.74" r="31.4961" style=""/>
<circle cx="4987.8" cy="8078.74" r="31.4961" style=""/>
<circle cx="4987.8" cy="8278.74" r="31.4961" style=""/>
<circle cx="4387.8" cy="7678.74" r="31.4961" style=""/>
<circle cx="4387.8" cy="7878.74" r="31.4961" style=""/>
<circle cx="4387.8" cy="8078.74" r="31.4961" style=""/>
<circle cx="4387.8" cy="8278.74" r="31.4961" style=""/>
<circle cx="4387.8" cy="7478.74" r="31.4961" style=""/>
<circle cx="4387.8" cy="7278.74" r="31.4961" style=""/>
<circle cx="4387.8" cy="7078.74" r="31.4961" style=""/>
<circle cx="2255.51" cy="7088.58" r="31.4961" style=""/>
<circle cx="2255.51" cy="7288.58" r="31.4961" style=""/>
<circle cx="2255.51" cy="7488.58" r="31.4961" style=""/>
<circle cx="2255.51" cy="7688.58" r="31.4961" style=""/>
<circle cx="2255.51" cy="7888.58" r="31.4961" style=""/>
<circle cx="2255.51" cy="8088.58" r="31.4961" style=""/>
<circle cx="2255.51" cy="8288.58" r="31.4961" style=""/>
<circle cx="1655.51" cy="7688.58" r="31.4961" style=""/>
<circle cx="1655.51" cy="7888.58" r="31.4961" style=""/>
<circle cx="1655.51" cy="8088.58" r="31.4961" style=""/>
<circle cx="1655.51" cy="8288.58" r="31.4961" style=""/>
<circle cx="1655.51" cy="7488.58" r="31.4961" style=""/>
<circle cx="1655.51" cy="7288.58" r="31.4961" style=""/>
<circle cx="1655.51" cy="7088.58" r="31.4961" style=""/>
<circle cx="671.26" cy="1400.39" r="39.3701" style=""/>
<circle cx="671.26" cy="1600.39" r="39.3701" style=""/>
<circle cx="671.26" cy="1800.39" r="39.3701" style=""/>
<circle cx="671.26" cy="2000.39" r="39.3701" style=""/>
<circle cx="671.26" cy="2200.39" r="39.3701" style=""/>
<circle cx="671.26" cy="2400.39" r="39.3701" style=""/>
<circle cx="671.26" cy="2600.39" r="39.3701" style=""/>
<circle cx="671.26" cy="2800.39" r="39.3701" style=""/>
<circle cx="671.26" cy="3000.39" r="39.3701" style=""/>
<circle cx="671.26" cy="3200.39" r="39.3701" style=""/>
<circle cx="671.26" cy="3400.39" r="39.3701" style=""/>
<circle cx="671.26" cy="3600.39" r="39.3701" style=""/>
<circle cx="671.26" cy="3800.39" r="39.3701" style=""/>
<circle cx="671.26" cy="4000.39" r="39.3701" style=""/>
<circle cx="2718.5" cy="4000.39" r="39.3701" style=""/>
<circle cx="2918.5" cy="4000.39" r="39.3701" style=""/>
<circle cx="3118.5" cy="4000.39" r="39.3701" style=""/>
<circle cx="3318.5" cy="4000.39" r="39.3701" style=""/>
<circle cx="3518.5" cy="4000.39" r="39.3701" style=""/>
<circle cx="3718.5" cy="4000.39" r="39.3701" style=""/>
<circle cx="3918.5" cy="4000.39" r="39.3701" style=""/>
<circle cx="4118.5" cy="4000.39" r="39.3701" style=""/>
<circle cx="4318.5" cy="4000.39" r="39.3701" style=""/>
<circle cx="4518.5" cy="4000.39" r="39.3701" style=""/>
<circle cx="4718.5" cy="4000.39" r="39.3701" style=""/>
<circle cx="4918.5" cy="4000.39" r="39.3701" style=""/>
<circle cx="5118.5" cy="4000.39" r="39.3701" style=""/>
<circle cx="5318.5" cy="4000.39" r="39.3701" style=""/>
<circle cx="5518.5" cy="4000.39" r="39.3701" style=""/>
<circle cx="5718.5" cy="4000.39" r="39.3701" style=""/>
<circle cx="5918.5" cy="4000.39" r="39.3701" style=""/>
<circle cx="6118.5" cy="4000.39" r="39.3701" style=""/>
<circle cx="6318.5" cy="4000.39" r="39.3701" style=""/>
<circle cx="6518.5" cy="4000.39" r="39.3701" style=""/>
<circle cx="6718.5" cy="4000.39" r="39.3701" style=""/>
<circle cx="6918.5" cy="4000.39" r="39.3701" style=""/>
<circle cx="7118.5" cy="4000.39" r="39.3701" style=""/>
<circle cx="7318.5" cy="4000.39" r="39.3701" style=""/>
<circle cx="6002.05" cy="5434.96" r="39.3701" style=""/>
<circle cx="5802.05" cy="5434.96" r="39.3701" style=""/>
<circle cx="5602.05" cy="5434.96" r="39.3701" style=""/>
<circle cx="5402.05" cy="5434.96" r="39.3701" style=""/>
<circle cx="5202.05" cy="5434.96" r="39.3701" style=""/>
<circle cx="5002.05" cy="5434.96" r="39.3701" style=""/>
<circle cx="4802.05" cy="5434.96" r="39.3701" style=""/>
<circle cx="4602.05" cy="5434.96" r="39.3701" style=""/>
<circle cx="4402.05" cy="5434.96" r="39.3701" style=""/>
<circle cx="4202.05" cy="5434.96" r="39.3701" style=""/>
<circle cx="3482.36" cy="5434.96" r="39.3701" style=""/>
<circle cx="3282.36" cy="5434.96" r="39.3701" style=""/>
<circle cx="3082.36" cy="5434.96" r="39.3701" style=""/>
<circle cx="2882.36" cy="5434.96" r="39.3701" style=""/>
<circle cx="3482.36" cy="7027.09" r="39.3701" style=""/>
<circle cx="3482.36" cy="7227.09" r="39.3701" style=""/>
<circle cx="3482.36" cy="7427.09" r="39.3701" style=""/>
<circle cx="3482.36" cy="7627.09" r="39.3701" style=""/>
<circle cx="3482.36" cy="7827.09" r="39.3701" style=""/>
<circle cx="3482.36" cy="8027.09" r="39.3701" style=""/>
<circle cx="3482.36" cy="8227.09" r="39.3701" style=""/>
<circle cx="3482.36" cy="8427.09" r="39.3701" style=""/>
<circle cx="5041.34" cy="6264.96" r="39.3701" style=""/>
<circle cx="5041.34" cy="5864.96" r="39.3701" style=""/>
<circle cx="6002.05" cy="7027.09" r="39.3701" style=""/>
<circle cx="6002.05" cy="7227.09" r="39.3701" style=""/>
<circle cx="6002.05" cy="7427.09" r="39.3701" style=""/>
<circle cx="6002.05" cy="7627.09" r="39.3701" style=""/>
<circle cx="6002.05" cy="7827.09" r="39.3701" style=""/>
<circle cx="6002.05" cy="8027.09" r="39.3701" style=""/>
<circle cx="6002.05" cy="8227.09" r="39.3701" style=""/>
<circle cx="6002.05" cy="8427.09" r="39.3701" style=""/>
<circle cx="9545.35" cy="7027.09" r="39.3701" style=""/>
<circle cx="9545.35" cy="7227.09" r="39.3701" style=""/>
<circle cx="9545.35" cy="7427.09" r="39.3701" style=""/>
<circle cx="9545.35" cy="7627.09" r="39.3701" style=""/>
<circle cx="9545.35" cy="7827.09" r="39.3701" style=""/>
<circle cx="9545.35" cy="8027.09" r="39.3701" style=""/>
<circle cx="9545.35" cy="8227.09" r="39.3701" style=""/>
<circle cx="9545.35" cy="8427.09" r="39.3701" style=""/>
<circle cx="11570.5" cy="8820.87" r="39.3701" style=""/>
<circle cx="11570.5" cy="9135.83" r="39.3701" style=""/>
<circle cx="11970.5" cy="8820.87" r="39.3701" style=""/>
<circle cx="11970.5" cy="9135.83" r="39.3701" style=""/>
<circle cx="12521.7" cy="8820.87" r="39.3701" style=""/>
<circle cx="12537.5" cy="8427.09" r="39.3701" style=""/>
<circle cx="12537.5" cy="8227.09" r="39.3701" style=""/>
<circle cx="12537.5" cy="8027.09" r="39.3701" style=""/>
<circle cx="12537.5" cy="7827.09" r="39.3701" style=""/>
<circle cx="12537.5" cy="7627.09" r="39.3701" style=""/>
<circle cx="12537.5" cy="7427.09" r="39.3701" style=""/>
<circle cx="12537.5" cy="7227.09" r="39.3701" style=""/>
<circle cx="12537.5" cy="7027.09" r="39.3701" style=""/>
<circle cx="13190.9" cy="6480.71" r="39.3701" style=""/>
<circle cx="13190.9" cy="6680.71" r="39.3701" style=""/>
<circle cx="13190.9" cy="6880.71" r="39.3701" style=""/>
<circle cx="13190.9" cy="7080.71" r="39.3701" style=""/>
<circle cx="13190.9" cy="7280.71" r="39.3701" style=""/>
<circle cx="13190.9" cy="7480.71" r="39.3701" style=""/>
<circle cx="13190.9" cy="7680.71" r="39.3701" style=""/>
<circle cx="13190.9" cy="7880.71" r="39.3701" style=""/>
<circle cx="13190.9" cy="8080.71" r="39.3701" style=""/>
<circle cx="13190.9" cy="8280.71" r="39.3701" style=""/>
<circle cx="13190.9" cy="8480.71" r="39.3701" style=""/>
<circle cx="13190.9" cy="8680.71" r="39.3701" style=""/>
<circle cx="13190.9" cy="8880.71" r="39.3701" style=""/>
<circle cx="13190.9" cy="9080.71" r="39.3701" style=""/>
<circle cx="13190.9" cy="9280.71" r="39.3701" style=""/>
<circle cx="13190.9" cy="9480.71" r="39.3701" style=""/>
<circle cx="13190.9" cy="9680.71" r="39.3701" style=""/>
<circle cx="13190.9" cy="9880.71" r="39.3701" style=""/>
<circle cx="13190.9" cy="10080.7" r="39.3701" style=""/>
<circle cx="12521.7" cy="9220.87" r="39.3701" style=""/>
<circle cx="13836.6" cy="8105.91" r="39.3701" style=""/>
<circle cx="14163.4" cy="8105.91" r="39.3701" style=""/>
<circle cx="14490.2" cy="8105.91" r="39.3701" style=""/>
<circle cx="14163.4" cy="8505.91" r="39.3701" style=""/>
<circle cx="13836.6" cy="8505.91" r="39.3701" style=""/>
<circle cx="14490.2" cy="8505.91" r="39.3701" style=""/>
<circle cx="15159.4" cy="7880.71" r="39.3701" style=""/>
<circle cx="15159.4" cy="8080.71" r="39.3701" style=""/>
<circle cx="15159.4" cy="8280.71" r="39.3701" style=""/>
<circle cx="15159.4" cy="8480.71" r="39.3701" style=""/>
<circle cx="15159.4" cy="8680.71" r="39.3701" style=""/>
<circle cx="15159.4" cy="8880.71" r="39.3701" style=""/>
<circle cx="15159.4" cy="9080.71" r="39.3701" style=""/>
<circle cx="15159.4" cy="9280.71" r="39.3701" style=""/>
<circle cx="15159.4" cy="9480.71" r="39.3701" style=""/>
<circle cx="15159.4" cy="9680.71" r="39.3701" style=""/>
<circle cx="15159.4" cy="9880.71" r="39.3701" style=""/>
<circle cx="15159.4" cy="10080.7" r="39.3701" style=""/>
<circle cx="15159.4" cy="7680.71" r="39.3701" style=""/>
<circle cx="15159.4" cy="7480.71" r="39.3701" style=""/>
<circle cx="15159.4" cy="7280.71" r="39.3701" style=""/>
<circle cx="15159.4" cy="7080.71" r="39.3701" style=""/>
<circle cx="15159.4" cy="6880.71" r="39.3701" style=""/>
<circle cx="15159.4" cy="6680.71" r="39.3701" style=""/>
<circle cx="15159.4" cy="6480.71" r="39.3701" style=""/>
<circle cx="15159.4" cy="6280.71" r="39.3701" style=""/>
<circle cx="15159.4" cy="6080.71" r="39.3701" style=""/>
<circle cx="15592.5" cy="6091.73" r="39.3701" style=""/>
<circle cx="15592.5" cy="6291.73" r="39.3701" style=""/>
<circle cx="15592.5" cy="6491.73" r="39.3701" style=""/>
<circle cx="15592.5" cy="6691.73" r="39.3701" style=""/>
<circle cx="15592.5" cy="6891.73" r="39.3701" style=""/>
<circle cx="15592.5" cy="7091.73" r="39.3701" style=""/>
<circle cx="13190.9" cy="6080.71" r="39.3701" style=""/>
<circle cx="13190.9" cy="6280.71" r="39.3701" style=""/>
<circle cx="12537.5" cy="5434.96" r="39.3701" style=""/>
<circle cx="12337.5" cy="5434.96" r="39.3701" style=""/>
<circle cx="12137.5" cy="5434.96" r="39.3701" style=""/>
<circle cx="11937.5" cy="5434.96" r="39.3701" style=""/>
<circle cx="11956.3" cy="4490.16" r="39.3701" style=""/>
<circle cx="12156.3" cy="4490.16" r="39.3701" style=""/>
<circle cx="12356.3" cy="4490.16" r="39.3701" style=""/>
<circle cx="12556.3" cy="4490.16" r="39.3701" style=""/>
<circle cx="12756.3" cy="4490.16" r="39.3701" style=""/>
<circle cx="12956.3" cy="4490.16" r="39.3701" style=""/>
<circle cx="13156.3" cy="4490.16" r="39.3701" style=""/>
<circle cx="13356.3" cy="4490.16" r="39.3701" style=""/>
<circle cx="13556.3" cy="4490.16" r="39.3701" style=""/>
<circle cx="13756.3" cy="4490.16" r="39.3701" style=""/>
<circle cx="13956.3" cy="4490.16" r="39.3701" style=""/>
<circle cx="14156.3" cy="4490.16" r="39.3701" style=""/>
<circle cx="14356.3" cy="4490.16" r="39.3701" style=""/>
<circle cx="14556.3" cy="4490.16" r="39.3701" style=""/>
<circle cx="14756.3" cy="4490.16" r="39.3701" style=""/>
<circle cx="14956.3" cy="4490.16" r="39.3701" style=""/>
<circle cx="15156.3" cy="4490.16" r="39.3701" style=""/>
<circle cx="15356.3" cy="4490.16" r="39.3701" style=""/>
<circle cx="12764.2" cy="3466.54" r="39.3701" style=""/>
<circle cx="12364.2" cy="3466.54" r="39.3701" style=""/>
<circle cx="10756.3" cy="1576.77" r="39.3701" style=""/>
<circle cx="10956.3" cy="1576.77" r="39.3701" style=""/>
<circle cx="11156.3" cy="1576.77" r="39.3701" style=""/>
<circle cx="11356.3" cy="1576.77" r="39.3701" style=""/>
<circle cx="11556.3" cy="1576.77" r="39.3701" style=""/>
<circle cx="11756.3" cy="1576.77" r="39.3701" style=""/>
<circle cx="11956.3" cy="1576.77" r="39.3701" style=""/>
<circle cx="12156.3" cy="1576.77" r="39.3701" style=""/>
<circle cx="12356.3" cy="1576.77" r="39.3701" style=""/>
<circle cx="12556.3" cy="1576.77" r="39.3701" style=""/>
<circle cx="12756.3" cy="1576.77" r="39.3701" style=""/>
<circle cx="12956.3" cy="1576.77" r="39.3701" style=""/>
<circle cx="13156.3" cy="1576.77" r="39.3701" style=""/>
<circle cx="13356.3" cy="1576.77" r="39.3701" style=""/>
<circle cx="13556.3" cy="1576.77" r="39.3701" style=""/>
<circle cx="13756.3" cy="1576.77" r="39.3701" style=""/>
<circle cx="13956.3" cy="1576.77" r="39.3701" style=""/>
<circle cx="14156.3" cy="1576.77" r="39.3701" style=""/>
<circle cx="14356.3" cy="1576.77" r="39.3701" style=""/>
<circle cx="14556.3" cy="1576.77" r="39.3701" style=""/>
<circle cx="14756.3" cy="1576.77" r="39.3701" style=""/>
<circle cx="14956.3" cy="1576.77" r="39.3701" style=""/>
<circle cx="15156.3" cy="1576.77" r="39.3701" style=""/>
<circle cx="15356.3" cy="1576.77" r="39.3701" style=""/>
<circle cx="11857.1" cy="435.039" r="39.3701" style=""/>
<circle cx="11657.1" cy="435.039" r="39.3701" style=""/>
<circle cx="11457.1" cy="435.039" r="39.3701" style=""/>
<circle cx="11257.1" cy="435.039" r="39.3701" style=""/>
<circle cx="11057.1" cy="435.039" r="39.3701" style=""/>
<circle cx="10857.1" cy="435.039" r="39.3701" style=""/>
<circle cx="10657.1" cy="435.039" r="39.3701" style=""/>
<circle cx="10457.1" cy="435.039" r="39.3701" style=""/>
<circle cx="10257.1" cy="435.039" r="39.3701" style=""/>
<circle cx="10057.1" cy="435.039" r="39.3701" style=""/>
<circle cx="9857.09" cy="435.039" r="39.3701" style=""/>
<circle cx="9657.09" cy="435.039" r="39.3701" style=""/>
<circle cx="9457.09" cy="435.039" r="39.3701" style=""/>
<circle cx="9257.09" cy="435.039" r="39.3701" style=""/>
<circle cx="9057.09" cy="435.039" r="39.3701" style=""/>
<circle cx="8857.09" cy="435.039" r="39.3701" style=""/>
<circle cx="8657.09" cy="435.039" r="39.3701" style=""/>
<circle cx="8457.09" cy="435.039" r="39.3701" style=""/>
<circle cx="8257.09" cy="435.039" r="39.3701" style=""/>
<circle cx="8057.09" cy="435.039" r="39.3701" style=""/>
<circle cx="7857.09" cy="435.039" r="39.3701" style=""/>
<circle cx="7657.09" cy="435.039" r="39.3701" style=""/>
<circle cx="7457.09" cy="435.039" r="39.3701" style=""/>
<circle cx="7257.09" cy="435.039" r="39.3701" style=""/>
<circle cx="7057.09" cy="435.039" r="39.3701" style=""/>
<circle cx="6857.09" cy="435.039" r="39.3701" style=""/>
<circle cx="6657.09" cy="435.039" r="39.3701" style=""/>
<circle cx="6457.09" cy="435.039" r="39.3701" style=""/>
<circle cx="6257.09" cy="435.039" r="39.3701" style=""/>
<circle cx="6057.09" cy="435.039" r="39.3701" style=""/>
<circle cx="5857.09" cy="435.039" r="39.3701" style=""/>
<circle cx="5657.09" cy="435.039" r="39.3701" style=""/>
<circle cx="5457.09" cy="435.039" r="39.3701" style=""/>
<circle cx="5257.09" cy="435.039" r="39.3701" style=""/>
<circle cx="5057.09" cy="435.039" r="39.3701" style=""/>
<circle cx="4857.09" cy="435.039" r="39.3701" style=""/>
<circle cx="4657.09" cy="435.039" r="39.3701" style=""/>
<circle cx="4457.09" cy="435.039" r="39.3701" style=""/>
<circle cx="4257.09" cy="435.039" r="39.3701" style=""/>
<circle cx="4057.09" cy="435.039" r="39.3701" style=""/>
<circle cx="1120.16" cy="7027.09" r="39.3701" style=""/>
<circle cx="1120.16" cy="7227.09" r="39.3701" style=""/>
<circle cx="1120.16" cy="7427.09" r="39.3701" style=""/>
<circle cx="1120.16" cy="7627.09" r="39.3701" style=""/>
<circle cx="1120.16" cy="7827.09" r="39.3701" style=""/>
<circle cx="1120.16" cy="8027.09" r="39.3701" style=""/>
<circle cx="1120.16" cy="8227.09" r="39.3701" style=""/>
<circle cx="1120.16" cy="8427.09" r="39.3701" style=""/>
</svg>
