<?xml version="1.0" standalone="no"?>
<!DOCTYPE svg PUBLIC "-//W3C//DTD SVG 1.1//EN"
"http://www.w3.org/Graphics/SVG/1.1/DTD/svg11.dtd">
<svg width="374.362" height="185.386" viewBox="0 0 7799.21 3862.2" version="1.1"
xmlns="http://www.w3.org/2000/svg"
xmlns:xlink="http://www.w3.org/1999/xlink">
<g fill-rule="evenodd"><path d="M 1.42109e-13,3862.2 L 1.42109e-13,5.96856e-13 L 7799.21,5.96856e-13 L 7799.21,3862.2 L 1.42109e-13,3862.2 z " style="fill-opacity:0.200000;fill:rgb(103,198,105);"/></g>
<polyline points="76.7728,3702.75 78.3608,3718.88 83.0668,3734.39 90.7068,3748.69 100.989,3761.21 113.517,3771.5 127.811,3779.14 143.321,3783.84 159.449,3785.43 7639.76,3785.43 7655.89,3783.84 7671.4,3779.14 7685.69,3771.5 7698.22,3761.21 7708.5,3748.69 7716.14,3734.39 7720.85,3718.88 7722.44,3702.75 7722.44,159.449 7720.85,143.321 7716.14,127.811 7708.5,113.517 7698.22,100.989 7685.69,90.7068 7671.4,83.0668 7655.89,78.3608 7639.76,76.7728 159.449,76.7728 143.321,78.3608 127.811,83.0668 113.517,90.7068 100.989,100.989 90.7068,113.517 83.0668,127.811 78.3608,143.321 76.7728,159.449 76.7728,3702.75" style="stroke:rgb(103,198,105);stroke-width:157.480315;fill:none;stroke-opacity:0.5;stroke-linecap:round;stroke-linejoin:round;;fill:none"/>
<polyline points="76.7728,3702.75 78.3608,3718.88 83.0668,3734.39 90.7068,3748.69 100.989,3761.21 113.517,3771.5 127.811,3779.14 143.321,3783.84 159.449,3785.43 7639.76,3785.43 7655.89,3783.84 7671.4,3779.14 7685.69,3771.5 7698.22,3761.21 7708.5,3748.69 7716.14,3734.39 7720.85,3718.88 7722.44,3702.75 7722.44,159.449 7720.85,143.321 7716.14,127.811 7708.5,113.517 7698.22,100.989 7685.69,90.7068 7671.4,83.0668 7655.89,78.3608 7639.76,76.7728 159.449,76.7728 143.321,78.3608 127.811,83.0668 113.517,90.7068 100.989,100.989 90.7068,113.517 83.0668,127.811 78.3608,143.321 76.7728,159.449 76.7728,3702.75" style="stroke:rgb(0,0,0);stroke-width:1px;fill:none;stroke-opacity:1;stroke-linecap:round;stroke-linejoin:round;;fill:none"/>
<g fill-rule="evenodd"><path d="M 159.449,3702.75 L 159.449,159.449 L 7639.76,159.449 L 7639.76,3702.75 L 159.449,3702.75 z " style="fill-opacity:1.000000;fill:rgb(103,198,105);stroke:rgb(0,0,0);stroke-width:2"/></g>
</svg>
