%TF.GenerationSoftware,KiCad,Pcbnew,7.0.2*%
%TF.CreationDate,2023-06-27T23:28:25+01:00*%
%TF.ProjectId,IOCACHE-128K_ZXspectrum_impl_narrow,494f4341-4348-4452-9d31-32384b5f5a58,rev?*%
%TF.SameCoordinates,PX4c4b400PY53ec600*%
%TF.FileFunction,Copper,L2,Bot*%
%TF.FilePolarity,Positive*%
%FSLAX46Y46*%
G04 Gerber Fmt 4.6, Leading zero omitted, Abs format (unit mm)*
G04 Created by KiCad (PCBNEW 7.0.2) date 2023-06-27 23:28:25*
%MOMM*%
%LPD*%
G01*
G04 APERTURE LIST*
%TA.AperFunction,ComponentPad*%
%ADD10R,1.700000X1.700000*%
%TD*%
%TA.AperFunction,ComponentPad*%
%ADD11O,1.700000X1.700000*%
%TD*%
%TA.AperFunction,ComponentPad*%
%ADD12R,1.600000X1.600000*%
%TD*%
%TA.AperFunction,ComponentPad*%
%ADD13O,1.600000X1.600000*%
%TD*%
%TA.AperFunction,ComponentPad*%
%ADD14C,1.600000*%
%TD*%
%TA.AperFunction,ViaPad*%
%ADD15C,1.000000*%
%TD*%
%TA.AperFunction,Conductor*%
%ADD16C,0.400000*%
%TD*%
G04 APERTURE END LIST*
D10*
%TO.P,CACHE2,1,Pin_1*%
%TO.N,/IOCACHE-128K_ZXspectrum/LOCAL_D0*%
X30000000Y-41000000D03*
D11*
%TO.P,CACHE2,2,Pin_2*%
%TO.N,/IOCACHE-128K_ZXspectrum/LOCAL_D1*%
X32540000Y-41000000D03*
%TO.P,CACHE2,3,Pin_3*%
%TO.N,/IOCACHE-128K_ZXspectrum/LOCAL_D2*%
X35080000Y-41000000D03*
%TO.P,CACHE2,4,Pin_4*%
%TO.N,/IOCACHE-128K_ZXspectrum/LOCAL_D3*%
X37620000Y-41000000D03*
%TO.P,CACHE2,5,Pin_5*%
%TO.N,/IOCACHE-128K_ZXspectrum/LOCAL_D4*%
X40160000Y-41000000D03*
%TO.P,CACHE2,6,Pin_6*%
%TO.N,/IOCACHE-128K_ZXspectrum/LOCAL_D5*%
X42700000Y-41000000D03*
%TO.P,CACHE2,7,Pin_7*%
%TO.N,/IOCACHE-128K_ZXspectrum/LOCAL_D6*%
X45240000Y-41000000D03*
%TO.P,CACHE2,8,Pin_8*%
%TO.N,/IOCACHE-128K_ZXspectrum/LOCAL_D7*%
X47780000Y-41000000D03*
%TO.P,CACHE2,9,Pin_9*%
%TO.N,/IOCACHE-128K_ZXspectrum/LOCAL_A0*%
X50320000Y-41000000D03*
%TO.P,CACHE2,10,Pin_10*%
%TO.N,/IOCACHE-128K_ZXspectrum/LOCAL_A1*%
X52860000Y-41000000D03*
%TO.P,CACHE2,11,Pin_11*%
%TO.N,/IOCACHE-128K_ZXspectrum/LOCAL_A2*%
X55400000Y-41000000D03*
%TO.P,CACHE2,12,Pin_12*%
%TO.N,/IOCACHE-128K_ZXspectrum/LOCAL_A3*%
X57940000Y-41000000D03*
%TO.P,CACHE2,13,Pin_13*%
%TO.N,/IOCACHE-128K_ZXspectrum/LOCAL_A4*%
X60480000Y-41000000D03*
%TO.P,CACHE2,14,Pin_14*%
%TO.N,/IOCACHE-128K_ZXspectrum/LOCAL_A5*%
X63020000Y-41000000D03*
%TO.P,CACHE2,15,Pin_15*%
%TO.N,/IOCACHE-128K_ZXspectrum/LOCAL_A6*%
X65560000Y-41000000D03*
%TO.P,CACHE2,16,Pin_16*%
%TO.N,/IOCACHE-128K_ZXspectrum/LOCAL_A7*%
X68100000Y-41000000D03*
%TO.P,CACHE2,17,Pin_17*%
%TO.N,/IOCACHE-128K_ZXspectrum/LOCAL_A8*%
X70640000Y-41000000D03*
%TO.P,CACHE2,18,Pin_18*%
%TO.N,/IOCACHE-128K_ZXspectrum/LOCAL_A9*%
X73180000Y-41000000D03*
%TO.P,CACHE2,19,Pin_19*%
%TO.N,/IOCACHE-128K_ZXspectrum/LOCAL_A10*%
X75720000Y-41000000D03*
%TO.P,CACHE2,20,Pin_20*%
%TO.N,/IOCACHE-128K_ZXspectrum/LOCAL_A11*%
X78260000Y-41000000D03*
%TO.P,CACHE2,21,Pin_21*%
%TO.N,/IOCACHE-128K_ZXspectrum/LOCAL_A12*%
X80800000Y-41000000D03*
%TO.P,CACHE2,22,Pin_22*%
%TO.N,/IOCACHE-128K_ZXspectrum/LOCAL_A13*%
X83340000Y-41000000D03*
%TO.P,CACHE2,23,Pin_23*%
%TO.N,/IOCACHE-128K_ZXspectrum/LOCAL_A14*%
X85880000Y-41000000D03*
%TO.P,CACHE2,24,Pin_24*%
%TO.N,/IOCACHE-128K_ZXspectrum/LOCAL_A15*%
X88420000Y-41000000D03*
%TD*%
D12*
%TO.P,IC1,1,Q1*%
%TO.N,/IOCACHE-128K_ZXspectrum/LOCAL_A1*%
X64380000Y-10000000D03*
D13*
%TO.P,IC1,2,Q2*%
%TO.N,/IOCACHE-128K_ZXspectrum/LOCAL_A2*%
X64380000Y-12540000D03*
%TO.P,IC1,3,Q3*%
%TO.N,/IOCACHE-128K_ZXspectrum/LOCAL_A3*%
X64380000Y-15080000D03*
%TO.P,IC1,4,Q4*%
%TO.N,/IOCACHE-128K_ZXspectrum/LOCAL_A4*%
X64380000Y-17620000D03*
%TO.P,IC1,5,Q5*%
%TO.N,/IOCACHE-128K_ZXspectrum/LOCAL_A5*%
X64380000Y-20160000D03*
%TO.P,IC1,6,Q6*%
%TO.N,/IOCACHE-128K_ZXspectrum/LOCAL_A6*%
X64380000Y-22700000D03*
%TO.P,IC1,7,Q7*%
%TO.N,/IOCACHE-128K_ZXspectrum/LOCAL_A7*%
X64380000Y-25240000D03*
%TO.P,IC1,8,GND*%
%TO.N,GND*%
X64380000Y-27780000D03*
%TO.P,IC1,9,~{RCO}*%
%TO.N,Net-(IC1-~{RCO})*%
X72000000Y-27780000D03*
%TO.P,IC1,10,~{MRC}*%
%TO.N,/IOCACHE-128K_ZXspectrum/Z80_HARDLOCK*%
X72000000Y-25240000D03*
%TO.P,IC1,11,CPC*%
%TO.N,/IOCACHE-128K_ZXspectrum/CACHE_CONTROL.DATASTATUS+PERM_Z80_IORQ*%
X72000000Y-22700000D03*
%TO.P,IC1,12,~{CE}*%
%TO.N,/IOCACHE-128K_ZXspectrum/CACHE_DATASTATUS*%
X72000000Y-20160000D03*
%TO.P,IC1,13,CPR*%
%TO.N,/IOCACHE-128K_ZXspectrum/CACHE_CONTROL.DATASTATUS+PERM_Z80_IORQ*%
X72000000Y-17620000D03*
%TO.P,IC1,14,~{OE}*%
%TO.N,/IOCACHE-128K_ZXspectrum/CACHE_DATASTATUS*%
X72000000Y-15080000D03*
%TO.P,IC1,15,Q0*%
%TO.N,/IOCACHE-128K_ZXspectrum/LOCAL_A0*%
X72000000Y-12540000D03*
%TO.P,IC1,16,VCC*%
%TO.N,+5V*%
X72000000Y-10000000D03*
%TD*%
D12*
%TO.P,IC2,1,Q1*%
%TO.N,/IOCACHE-128K_ZXspectrum/LOCAL_A9*%
X81380000Y-10000000D03*
D13*
%TO.P,IC2,2,Q2*%
%TO.N,/IOCACHE-128K_ZXspectrum/LOCAL_A10*%
X81380000Y-12540000D03*
%TO.P,IC2,3,Q3*%
%TO.N,/IOCACHE-128K_ZXspectrum/LOCAL_A11*%
X81380000Y-15080000D03*
%TO.P,IC2,4,Q4*%
%TO.N,unconnected-(IC2-Q4-Pad4)*%
X81380000Y-17620000D03*
%TO.P,IC2,5,Q5*%
%TO.N,unconnected-(IC2-Q5-Pad5)*%
X81380000Y-20160000D03*
%TO.P,IC2,6,Q6*%
%TO.N,unconnected-(IC2-Q6-Pad6)*%
X81380000Y-22700000D03*
%TO.P,IC2,7,Q7*%
%TO.N,unconnected-(IC2-Q7-Pad7)*%
X81380000Y-25240000D03*
%TO.P,IC2,8,GND*%
%TO.N,GND*%
X81380000Y-27780000D03*
%TO.P,IC2,9,~{RCO}*%
%TO.N,unconnected-(IC2-~{RCO}-Pad9)*%
X89000000Y-27780000D03*
%TO.P,IC2,10,~{MRC}*%
%TO.N,/IOCACHE-128K_ZXspectrum/Z80_HARDLOCK*%
X89000000Y-25240000D03*
%TO.P,IC2,11,CPC*%
%TO.N,Net-(IC1-~{RCO})*%
X89000000Y-22700000D03*
%TO.P,IC2,12,~{CE}*%
%TO.N,/IOCACHE-128K_ZXspectrum/CACHE_DATASTATUS*%
X89000000Y-20160000D03*
%TO.P,IC2,13,CPR*%
%TO.N,Net-(IC1-~{RCO})*%
X89000000Y-17620000D03*
%TO.P,IC2,14,~{OE}*%
%TO.N,/IOCACHE-128K_ZXspectrum/CACHE_DATASTATUS*%
X89000000Y-15080000D03*
%TO.P,IC2,15,Q0*%
%TO.N,/IOCACHE-128K_ZXspectrum/LOCAL_A8*%
X89000000Y-12540000D03*
%TO.P,IC2,16,VCC*%
%TO.N,+5V*%
X89000000Y-10000000D03*
%TD*%
D10*
%TO.P,CACHE3,1,Pin_1*%
%TO.N,+5V*%
X4000000Y-8000000D03*
D11*
%TO.P,CACHE3,2,Pin_2*%
%TO.N,/IOCACHE-128K_ZXspectrum/CACHE_CONTROL.A16*%
X4000000Y-10540000D03*
%TO.P,CACHE3,3,Pin_3*%
%TO.N,/IOCACHE-128K_ZXspectrum/CACHE_CONTROL.WE*%
X4000000Y-13080000D03*
%TO.P,CACHE3,4,Pin_4*%
%TO.N,/IOCACHE-128K_ZXspectrum/CACHE_CONTROL.OE*%
X4000000Y-15620000D03*
%TO.P,CACHE3,5,Pin_5*%
%TO.N,/IOCACHE-128K_ZXspectrum/CACHE_CONTROL.CS*%
X4000000Y-18160000D03*
%TO.P,CACHE3,6,Pin_6*%
%TO.N,/IOCACHE-128K_ZXspectrum/CACHE_CONTROL.DATASTATUS+PERM_Z80_IORQ*%
X4000000Y-20700000D03*
%TO.P,CACHE3,7,Pin_7*%
%TO.N,/IOCACHE-128K_ZXspectrum/Z80_HARDLOCK*%
X4000000Y-23240000D03*
%TO.P,CACHE3,8,Pin_8*%
%TO.N,/IOCACHE-128K_ZXspectrum/LOCAL_A12*%
X4000000Y-25780000D03*
%TO.P,CACHE3,9,Pin_9*%
%TO.N,/IOCACHE-128K_ZXspectrum/LOCAL_A13*%
X4000000Y-28320000D03*
%TO.P,CACHE3,10,Pin_10*%
%TO.N,/IOCACHE-128K_ZXspectrum/LOCAL_A14*%
X4000000Y-30860000D03*
%TO.P,CACHE3,11,Pin_11*%
%TO.N,/IOCACHE-128K_ZXspectrum/LOCAL_A15*%
X4000000Y-33400000D03*
%TO.P,CACHE3,12,Pin_12*%
%TO.N,/IOCACHE-128K_ZXspectrum/CACHE_DATASTATUS*%
X4000000Y-35940000D03*
%TO.P,CACHE3,13,Pin_13*%
%TO.N,unconnected-(CACHE3-Pin_13-Pad13)*%
X4000000Y-38480000D03*
%TO.P,CACHE3,14,Pin_14*%
%TO.N,GND*%
X4000000Y-41020000D03*
%TD*%
D12*
%TO.P,CACHE1,1,NC*%
%TO.N,unconnected-(CACHE1-NC-Pad1)*%
X11900000Y-29240000D03*
D13*
%TO.P,CACHE1,2,A16*%
%TO.N,/IOCACHE-128K_ZXspectrum/CACHE_CONTROL.A16*%
X14440000Y-29240000D03*
%TO.P,CACHE1,3,A14*%
%TO.N,/IOCACHE-128K_ZXspectrum/LOCAL_A14*%
X16980000Y-29240000D03*
%TO.P,CACHE1,4,A12*%
%TO.N,/IOCACHE-128K_ZXspectrum/LOCAL_A12*%
X19520000Y-29240000D03*
%TO.P,CACHE1,5,A7*%
%TO.N,/IOCACHE-128K_ZXspectrum/LOCAL_A7*%
X22060000Y-29240000D03*
%TO.P,CACHE1,6,A6*%
%TO.N,/IOCACHE-128K_ZXspectrum/LOCAL_A6*%
X24600000Y-29240000D03*
%TO.P,CACHE1,7,A5*%
%TO.N,/IOCACHE-128K_ZXspectrum/LOCAL_A5*%
X27140000Y-29240000D03*
%TO.P,CACHE1,8,A4*%
%TO.N,/IOCACHE-128K_ZXspectrum/LOCAL_A4*%
X29680000Y-29240000D03*
%TO.P,CACHE1,9,A3*%
%TO.N,/IOCACHE-128K_ZXspectrum/LOCAL_A3*%
X32220000Y-29240000D03*
%TO.P,CACHE1,10,A2*%
%TO.N,/IOCACHE-128K_ZXspectrum/LOCAL_A2*%
X34760000Y-29240000D03*
%TO.P,CACHE1,11,A1*%
%TO.N,/IOCACHE-128K_ZXspectrum/LOCAL_A1*%
X37300000Y-29240000D03*
%TO.P,CACHE1,12,A0*%
%TO.N,/IOCACHE-128K_ZXspectrum/LOCAL_A0*%
X39840000Y-29240000D03*
%TO.P,CACHE1,13,DQ0*%
%TO.N,/IOCACHE-128K_ZXspectrum/LOCAL_D0*%
X42380000Y-29240000D03*
%TO.P,CACHE1,14,DQ1*%
%TO.N,/IOCACHE-128K_ZXspectrum/LOCAL_D1*%
X44920000Y-29240000D03*
%TO.P,CACHE1,15,DQ2*%
%TO.N,/IOCACHE-128K_ZXspectrum/LOCAL_D2*%
X47460000Y-29240000D03*
%TO.P,CACHE1,16,VSS*%
%TO.N,GND*%
X50000000Y-29240000D03*
%TO.P,CACHE1,17,DQ3*%
%TO.N,/IOCACHE-128K_ZXspectrum/LOCAL_D3*%
X50000000Y-14000000D03*
%TO.P,CACHE1,18,DQ4*%
%TO.N,/IOCACHE-128K_ZXspectrum/LOCAL_D4*%
X47460000Y-14000000D03*
%TO.P,CACHE1,19,DQ5*%
%TO.N,/IOCACHE-128K_ZXspectrum/LOCAL_D5*%
X44920000Y-14000000D03*
%TO.P,CACHE1,20,DQ6*%
%TO.N,/IOCACHE-128K_ZXspectrum/LOCAL_D6*%
X42380000Y-14000000D03*
%TO.P,CACHE1,21,DQ7*%
%TO.N,/IOCACHE-128K_ZXspectrum/LOCAL_D7*%
X39840000Y-14000000D03*
%TO.P,CACHE1,22,CE#*%
%TO.N,/IOCACHE-128K_ZXspectrum/CACHE_CONTROL.CS*%
X37300000Y-14000000D03*
%TO.P,CACHE1,23,A10*%
%TO.N,/IOCACHE-128K_ZXspectrum/LOCAL_A10*%
X34760000Y-14000000D03*
%TO.P,CACHE1,24,OE#*%
%TO.N,/IOCACHE-128K_ZXspectrum/CACHE_CONTROL.OE*%
X32220000Y-14000000D03*
%TO.P,CACHE1,25,A11*%
%TO.N,/IOCACHE-128K_ZXspectrum/LOCAL_A11*%
X29680000Y-14000000D03*
%TO.P,CACHE1,26,A9*%
%TO.N,/IOCACHE-128K_ZXspectrum/LOCAL_A9*%
X27140000Y-14000000D03*
%TO.P,CACHE1,27,A8*%
%TO.N,/IOCACHE-128K_ZXspectrum/LOCAL_A8*%
X24600000Y-14000000D03*
%TO.P,CACHE1,28,A13*%
%TO.N,/IOCACHE-128K_ZXspectrum/LOCAL_A13*%
X22060000Y-14000000D03*
%TO.P,CACHE1,29,WE#*%
%TO.N,/IOCACHE-128K_ZXspectrum/CACHE_CONTROL.WE*%
X19520000Y-14000000D03*
%TO.P,CACHE1,30,CE2#*%
%TO.N,/IOCACHE-128K_ZXspectrum/CACHE_CE2*%
X16980000Y-14000000D03*
%TO.P,CACHE1,31,A15*%
%TO.N,/IOCACHE-128K_ZXspectrum/LOCAL_A15*%
X14440000Y-14000000D03*
%TO.P,CACHE1,32,VCC*%
%TO.N,+5V*%
X11900000Y-14000000D03*
%TD*%
D14*
%TO.P,R1,1*%
%TO.N,/IOCACHE-128K_ZXspectrum/CACHE_CE2*%
X21080000Y-10000000D03*
D13*
%TO.P,R1,2*%
%TO.N,+5V*%
X10920000Y-10000000D03*
%TD*%
D15*
%TO.N,/IOCACHE-128K_ZXspectrum/CACHE_CONTROL.A16*%
X7685200Y-25369600D03*
%TO.N,/IOCACHE-128K_ZXspectrum/LOCAL_A7*%
X28867700Y-25255100D03*
%TO.N,/IOCACHE-128K_ZXspectrum/LOCAL_A5*%
X60593100Y-25999500D03*
%TO.N,/IOCACHE-128K_ZXspectrum/LOCAL_A4*%
X34854800Y-22214200D03*
%TO.N,/IOCACHE-128K_ZXspectrum/LOCAL_A3*%
X57925700Y-26125300D03*
%TO.N,/IOCACHE-128K_ZXspectrum/LOCAL_A2*%
X56967700Y-27592100D03*
%TO.N,/IOCACHE-128K_ZXspectrum/LOCAL_A1*%
X37578000Y-21230900D03*
X33991500Y-36831400D03*
%TO.N,/IOCACHE-128K_ZXspectrum/LOCAL_A0*%
X55690100Y-33321600D03*
%TO.N,/IOCACHE-128K_ZXspectrum/LOCAL_A8*%
X77840900Y-33103500D03*
%TO.N,/IOCACHE-128K_ZXspectrum/Z80_HARDLOCK*%
X68937500Y-11149600D03*
%TO.N,/IOCACHE-128K_ZXspectrum/LOCAL_A12*%
X26080000Y-35734700D03*
%TO.N,/IOCACHE-128K_ZXspectrum/LOCAL_A14*%
X21320000Y-35347100D03*
%TO.N,/IOCACHE-128K_ZXspectrum/LOCAL_A15*%
X7755900Y-34744800D03*
%TD*%
D16*
%TO.N,/IOCACHE-128K_ZXspectrum/CACHE_CONTROL.A16*%
X7685200Y-25369600D02*
X7685200Y-14225200D01*
X7685200Y-14225200D02*
X4000000Y-10540000D01*
%TO.N,/IOCACHE-128K_ZXspectrum/LOCAL_A7*%
X22060000Y-29240000D02*
X26044900Y-25255100D01*
X26044900Y-25255100D02*
X28867700Y-25255100D01*
X68100000Y-41000000D02*
X68100000Y-33782000D01*
X64380000Y-25484100D02*
X64380000Y-25240000D01*
X62760000Y-28442000D02*
X62760000Y-27104100D01*
X62760000Y-27104100D02*
X64380000Y-25484100D01*
X68100000Y-33782000D02*
X62760000Y-28442000D01*
%TO.N,/IOCACHE-128K_ZXspectrum/LOCAL_A6*%
X65560000Y-41000000D02*
X65560000Y-39215100D01*
X61739900Y-26709900D02*
X61893200Y-26556600D01*
X61893200Y-26556600D02*
X61893200Y-25186800D01*
X61893200Y-25186800D02*
X64380000Y-22700000D01*
X61739900Y-35395000D02*
X61739900Y-26709900D01*
X65560000Y-39215100D02*
X61739900Y-35395000D01*
%TO.N,/IOCACHE-128K_ZXspectrum/LOCAL_A5*%
X63020000Y-41000000D02*
X63020000Y-39349900D01*
X60682300Y-25999500D02*
X60682300Y-23857700D01*
X60682300Y-37012200D02*
X60682300Y-25999500D01*
X63020000Y-39349900D02*
X60682300Y-37012200D01*
X60682300Y-23857700D02*
X64380000Y-20160000D01*
X60682300Y-25999500D02*
X60593100Y-25999500D01*
%TO.N,/IOCACHE-128K_ZXspectrum/LOCAL_A4*%
X34854800Y-22465100D02*
X34854800Y-22214200D01*
X59271700Y-22728300D02*
X59271700Y-38141600D01*
X29680000Y-27639900D02*
X34854800Y-22465100D01*
X64380000Y-17620000D02*
X59271700Y-22728300D01*
X29680000Y-29240000D02*
X29680000Y-27639900D01*
X59271700Y-38141600D02*
X60480000Y-39349900D01*
X60480000Y-41000000D02*
X60480000Y-39349900D01*
%TO.N,/IOCACHE-128K_ZXspectrum/LOCAL_A3*%
X64380000Y-15080000D02*
X62779900Y-15080000D01*
X58269700Y-26469300D02*
X58269700Y-39020200D01*
X58269700Y-39020200D02*
X57940000Y-39349900D01*
X57925700Y-19934200D02*
X57925700Y-26125300D01*
X62779900Y-15080000D02*
X57925700Y-19934200D01*
X57925700Y-26125300D02*
X58269700Y-26469300D01*
X57940000Y-41000000D02*
X57940000Y-39349900D01*
%TO.N,/IOCACHE-128K_ZXspectrum/LOCAL_A2*%
X56625500Y-27249900D02*
X56967700Y-27592100D01*
X56990200Y-37759700D02*
X56990200Y-27614600D01*
X55400000Y-41000000D02*
X55400000Y-39349900D01*
X62779900Y-12540000D02*
X56625500Y-18694400D01*
X56990200Y-27614600D02*
X56967700Y-27592100D01*
X64380000Y-12540000D02*
X62779900Y-12540000D01*
X55400000Y-39349900D02*
X56990200Y-37759700D01*
X56625500Y-18694400D02*
X56625500Y-27249900D01*
%TO.N,/IOCACHE-128K_ZXspectrum/LOCAL_A1*%
X37300000Y-29240000D02*
X37300000Y-30840100D01*
X37300000Y-21508900D02*
X37578000Y-21230900D01*
X33991500Y-34148600D02*
X33991500Y-36831400D01*
X37300000Y-29240000D02*
X37300000Y-21508900D01*
X37300000Y-30840100D02*
X33991500Y-34148600D01*
%TO.N,/IOCACHE-128K_ZXspectrum/LOCAL_A0*%
X50320000Y-39349900D02*
X50320000Y-38691700D01*
X50320000Y-38691700D02*
X55690100Y-33321600D01*
X50320000Y-41000000D02*
X50320000Y-39349900D01*
%TO.N,/IOCACHE-128K_ZXspectrum/LOCAL_D0*%
X42380000Y-30281600D02*
X42380000Y-29240000D01*
X30000000Y-41000000D02*
X32868500Y-38131500D01*
X34530100Y-38131500D02*
X42380000Y-30281600D01*
X32868500Y-38131500D02*
X34530100Y-38131500D01*
%TO.N,/IOCACHE-128K_ZXspectrum/LOCAL_D1*%
X32540000Y-41000000D02*
X34329700Y-39210300D01*
X34329700Y-39210300D02*
X34949700Y-39210300D01*
X34949700Y-39210300D02*
X44920000Y-29240000D01*
%TO.N,/IOCACHE-128K_ZXspectrum/LOCAL_D2*%
X45239800Y-30840200D02*
X35080000Y-41000000D01*
X47460000Y-29240000D02*
X45859800Y-30840200D01*
X45859800Y-30840200D02*
X45239800Y-30840200D01*
%TO.N,GND*%
X50000000Y-29240000D02*
X40674200Y-19914200D01*
X10280000Y-28125100D02*
X10280000Y-34740000D01*
X68620400Y-30420300D02*
X77139600Y-30420300D01*
X77139600Y-30420300D02*
X79779900Y-27780000D01*
X65980100Y-27780000D02*
X68620400Y-30420300D01*
X40674200Y-19914200D02*
X18490900Y-19914200D01*
X81380000Y-27780000D02*
X79779900Y-27780000D01*
X10280000Y-34740000D02*
X4000000Y-41020000D01*
X18490900Y-19914200D02*
X10280000Y-28125100D01*
X64380000Y-27780000D02*
X65980100Y-27780000D01*
%TO.N,/IOCACHE-128K_ZXspectrum/LOCAL_D3*%
X50000000Y-14000000D02*
X50000000Y-15600100D01*
X50675700Y-30840200D02*
X47779800Y-30840200D01*
X50000000Y-15600100D02*
X51603600Y-17203700D01*
X51603600Y-17203700D02*
X51603600Y-29912300D01*
X51603600Y-29912300D02*
X50675700Y-30840200D01*
X47779800Y-30840200D02*
X37620000Y-41000000D01*
%TO.N,/IOCACHE-128K_ZXspectrum/LOCAL_D4*%
X50656500Y-12386700D02*
X52616500Y-14346700D01*
X47993900Y-32634800D02*
X40160000Y-40468700D01*
X52616500Y-14346700D02*
X52616500Y-30313700D01*
X40160000Y-40468700D02*
X40160000Y-41000000D01*
X52616500Y-30313700D02*
X50295400Y-32634800D01*
X47460000Y-14000000D02*
X49073300Y-12386700D01*
X50295400Y-32634800D02*
X47993900Y-32634800D01*
X49073300Y-12386700D02*
X50656500Y-12386700D01*
%TO.N,/IOCACHE-128K_ZXspectrum/LOCAL_D5*%
X47533400Y-11386600D02*
X51070700Y-11386600D01*
X53616600Y-13932500D02*
X53616600Y-30727900D01*
X44920000Y-14000000D02*
X47533400Y-11386600D01*
X48061300Y-33988600D02*
X42700000Y-39349900D01*
X50355900Y-33988600D02*
X48061300Y-33988600D01*
X42700000Y-41000000D02*
X42700000Y-39349900D01*
X53616600Y-30727900D02*
X50355900Y-33988600D01*
X51070700Y-11386600D02*
X53616600Y-13932500D01*
%TO.N,/IOCACHE-128K_ZXspectrum/LOCAL_D6*%
X45240000Y-41000000D02*
X45240000Y-39349900D01*
X50770100Y-34988700D02*
X49601200Y-34988700D01*
X49601200Y-34988700D02*
X45240000Y-39349900D01*
X42380000Y-14000000D02*
X45993500Y-10386500D01*
X51484900Y-10386500D02*
X54616700Y-13518300D01*
X54616700Y-13518300D02*
X54616700Y-31142100D01*
X45993500Y-10386500D02*
X51484900Y-10386500D01*
X54616700Y-31142100D02*
X50770100Y-34988700D01*
%TO.N,/IOCACHE-128K_ZXspectrum/LOCAL_D7*%
X47823300Y-39349900D02*
X47780000Y-39349900D01*
X47823300Y-39349800D02*
X47823300Y-39349900D01*
X39840000Y-14000000D02*
X44453600Y-9386400D01*
X55616800Y-31556300D02*
X47823300Y-39349800D01*
X47780000Y-41000000D02*
X47780000Y-39349900D01*
X55616800Y-13104100D02*
X55616800Y-31556300D01*
X51899100Y-9386400D02*
X55616800Y-13104100D01*
X44453600Y-9386400D02*
X51899100Y-9386400D01*
%TO.N,/IOCACHE-128K_ZXspectrum/LOCAL_A10*%
X79779900Y-8866600D02*
X80246600Y-8399900D01*
X75720000Y-41000000D02*
X75720000Y-39349900D01*
X84081400Y-30988500D02*
X75720000Y-39349900D01*
X80246600Y-8399900D02*
X82546700Y-8399900D01*
X82546700Y-8399900D02*
X84081400Y-9934600D01*
X81380000Y-12540000D02*
X79779900Y-12540000D01*
X84081400Y-9934600D02*
X84081400Y-30988500D01*
X79779900Y-12540000D02*
X79779900Y-8866600D01*
%TO.N,/IOCACHE-128K_ZXspectrum/LOCAL_A11*%
X79779900Y-15080000D02*
X78771300Y-15080000D01*
X66575700Y-9447500D02*
X65497400Y-8369200D01*
X85090600Y-9444600D02*
X85090600Y-32519300D01*
X81380000Y-15080000D02*
X79779900Y-15080000D01*
X78260000Y-41000000D02*
X78260000Y-39349900D01*
X71323300Y-29415800D02*
X66575700Y-24668200D01*
X35310800Y-8369200D02*
X29680000Y-14000000D01*
X78771300Y-15080000D02*
X78771300Y-23290200D01*
X79764700Y-7399800D02*
X83045800Y-7399800D01*
X78771300Y-8393200D02*
X79764700Y-7399800D01*
X83045800Y-7399800D02*
X85090600Y-9444600D01*
X78771300Y-15080000D02*
X78771300Y-8393200D01*
X66575700Y-24668200D02*
X66575700Y-9447500D01*
X85090600Y-32519300D02*
X78260000Y-39349900D01*
X65497400Y-8369200D02*
X35310800Y-8369200D01*
X78771300Y-23290200D02*
X72645700Y-29415800D01*
X72645700Y-29415800D02*
X71323300Y-29415800D01*
%TO.N,/IOCACHE-128K_ZXspectrum/LOCAL_A9*%
X73433200Y-39349900D02*
X83029200Y-29753900D01*
X83029200Y-11649200D02*
X81380000Y-10000000D01*
X73180000Y-41000000D02*
X73180000Y-39349900D01*
X73180000Y-39349900D02*
X73433200Y-39349900D01*
X83029200Y-29753900D02*
X83029200Y-11649200D01*
%TO.N,/IOCACHE-128K_ZXspectrum/LOCAL_A8*%
X77840900Y-33103500D02*
X71594500Y-39349900D01*
X71594500Y-39349900D02*
X70640000Y-39349900D01*
X70640000Y-41000000D02*
X70640000Y-39349900D01*
%TO.N,+5V*%
X87399900Y-10000000D02*
X83755600Y-6355700D01*
X83755600Y-6355700D02*
X77244400Y-6355700D01*
X10920000Y-10000000D02*
X10920000Y-11600100D01*
X11900000Y-14000000D02*
X11900000Y-12399900D01*
X89000000Y-10000000D02*
X87399900Y-10000000D01*
X72000000Y-10000000D02*
X73600100Y-10000000D01*
X10920000Y-11600100D02*
X11719800Y-12399900D01*
X11719800Y-12399900D02*
X11900000Y-12399900D01*
X77244400Y-6355700D02*
X73600100Y-10000000D01*
%TO.N,Net-(IC1-~{RCO})*%
X87389200Y-19230800D02*
X87389200Y-21089200D01*
X87389200Y-21089200D02*
X89000000Y-22700000D01*
X89000000Y-17620000D02*
X87389200Y-19230800D01*
%TO.N,/IOCACHE-128K_ZXspectrum/Z80_HARDLOCK*%
X68937500Y-22177500D02*
X68937500Y-11149600D01*
X72000000Y-25240000D02*
X68937500Y-22177500D01*
%TO.N,/IOCACHE-128K_ZXspectrum/CACHE_CONTROL.DATASTATUS+PERM_Z80_IORQ*%
X70398800Y-21098800D02*
X72000000Y-22700000D01*
X72000000Y-17620000D02*
X70398800Y-19221200D01*
X70398800Y-19221200D02*
X70398800Y-21098800D01*
%TO.N,/IOCACHE-128K_ZXspectrum/CACHE_DATASTATUS*%
X90610300Y-16690300D02*
X90610300Y-18549700D01*
X90610300Y-18549700D02*
X89000000Y-20160000D01*
X89000000Y-15080000D02*
X90610300Y-16690300D01*
%TO.N,/IOCACHE-128K_ZXspectrum/LOCAL_A12*%
X26014700Y-35734700D02*
X26080000Y-35734700D01*
X19520000Y-29240000D02*
X26014700Y-35734700D01*
%TO.N,/IOCACHE-128K_ZXspectrum/LOCAL_A13*%
X86666000Y-5353100D02*
X91620500Y-10307600D01*
X91620500Y-10307600D02*
X91620500Y-31069400D01*
X16459400Y-8399400D02*
X20459900Y-12399900D01*
X6573500Y-28320000D02*
X9319200Y-25574300D01*
X22060000Y-14000000D02*
X22060000Y-12399900D01*
X29106800Y-5353100D02*
X86666000Y-5353100D01*
X9319200Y-9294100D02*
X10213900Y-8399400D01*
X10213900Y-8399400D02*
X16459400Y-8399400D01*
X9319200Y-25574300D02*
X9319200Y-9294100D01*
X83340000Y-41000000D02*
X83340000Y-39349900D01*
X4000000Y-28320000D02*
X6573500Y-28320000D01*
X20459900Y-12399900D02*
X22060000Y-12399900D01*
X22060000Y-12399900D02*
X29106800Y-5353100D01*
X91620500Y-31069400D02*
X83340000Y-39349900D01*
%TO.N,/IOCACHE-128K_ZXspectrum/LOCAL_A14*%
X16980000Y-31007100D02*
X21320000Y-35347100D01*
X16980000Y-29240000D02*
X16980000Y-31007100D01*
%TO.N,/IOCACHE-128K_ZXspectrum/LOCAL_A15*%
X6411100Y-33400000D02*
X7755900Y-34744800D01*
X14440000Y-21867800D02*
X5650100Y-30657700D01*
X5650100Y-30657700D02*
X5650100Y-33400000D01*
X5650100Y-33400000D02*
X6411100Y-33400000D01*
X4000000Y-33400000D02*
X5650100Y-33400000D01*
X14440000Y-14000000D02*
X14440000Y-21867800D01*
%TD*%
M02*
