%TF.GenerationSoftware,KiCad,Pcbnew,7.0.2*%
%TF.CreationDate,2023-06-27T23:28:26+01:00*%
%TF.ProjectId,IOCACHE-128K_ZXspectrum_impl_narrow,494f4341-4348-4452-9d31-32384b5f5a58,rev?*%
%TF.SameCoordinates,PX4c4b400PY53ec600*%
%TF.FileFunction,Soldermask,Top*%
%TF.FilePolarity,Negative*%
%FSLAX46Y46*%
G04 Gerber Fmt 4.6, Leading zero omitted, Abs format (unit mm)*
G04 Created by KiCad (PCBNEW 7.0.2) date 2023-06-27 23:28:26*
%MOMM*%
%LPD*%
G01*
G04 APERTURE LIST*
%ADD10R,1.700000X1.700000*%
%ADD11O,1.700000X1.700000*%
%ADD12R,1.600000X1.600000*%
%ADD13O,1.600000X1.600000*%
%ADD14C,1.600000*%
G04 APERTURE END LIST*
D10*
%TO.C,CACHE2*%
X30000000Y-41000000D03*
D11*
X32540000Y-41000000D03*
X35080000Y-41000000D03*
X37620000Y-41000000D03*
X40160000Y-41000000D03*
X42700000Y-41000000D03*
X45240000Y-41000000D03*
X47780000Y-41000000D03*
X50320000Y-41000000D03*
X52860000Y-41000000D03*
X55400000Y-41000000D03*
X57940000Y-41000000D03*
X60480000Y-41000000D03*
X63020000Y-41000000D03*
X65560000Y-41000000D03*
X68100000Y-41000000D03*
X70640000Y-41000000D03*
X73180000Y-41000000D03*
X75720000Y-41000000D03*
X78260000Y-41000000D03*
X80800000Y-41000000D03*
X83340000Y-41000000D03*
X85880000Y-41000000D03*
X88420000Y-41000000D03*
%TD*%
D12*
%TO.C,IC1*%
X64380000Y-10000000D03*
D13*
X64380000Y-12540000D03*
X64380000Y-15080000D03*
X64380000Y-17620000D03*
X64380000Y-20160000D03*
X64380000Y-22700000D03*
X64380000Y-25240000D03*
X64380000Y-27780000D03*
X72000000Y-27780000D03*
X72000000Y-25240000D03*
X72000000Y-22700000D03*
X72000000Y-20160000D03*
X72000000Y-17620000D03*
X72000000Y-15080000D03*
X72000000Y-12540000D03*
X72000000Y-10000000D03*
%TD*%
D12*
%TO.C,IC2*%
X81380000Y-10000000D03*
D13*
X81380000Y-12540000D03*
X81380000Y-15080000D03*
X81380000Y-17620000D03*
X81380000Y-20160000D03*
X81380000Y-22700000D03*
X81380000Y-25240000D03*
X81380000Y-27780000D03*
X89000000Y-27780000D03*
X89000000Y-25240000D03*
X89000000Y-22700000D03*
X89000000Y-20160000D03*
X89000000Y-17620000D03*
X89000000Y-15080000D03*
X89000000Y-12540000D03*
X89000000Y-10000000D03*
%TD*%
D10*
%TO.C,CACHE3*%
X4000000Y-8000000D03*
D11*
X4000000Y-10540000D03*
X4000000Y-13080000D03*
X4000000Y-15620000D03*
X4000000Y-18160000D03*
X4000000Y-20700000D03*
X4000000Y-23240000D03*
X4000000Y-25780000D03*
X4000000Y-28320000D03*
X4000000Y-30860000D03*
X4000000Y-33400000D03*
X4000000Y-35940000D03*
X4000000Y-38480000D03*
X4000000Y-41020000D03*
%TD*%
D12*
%TO.C,CACHE1*%
X11900000Y-29240000D03*
D13*
X14440000Y-29240000D03*
X16980000Y-29240000D03*
X19520000Y-29240000D03*
X22060000Y-29240000D03*
X24600000Y-29240000D03*
X27140000Y-29240000D03*
X29680000Y-29240000D03*
X32220000Y-29240000D03*
X34760000Y-29240000D03*
X37300000Y-29240000D03*
X39840000Y-29240000D03*
X42380000Y-29240000D03*
X44920000Y-29240000D03*
X47460000Y-29240000D03*
X50000000Y-29240000D03*
X50000000Y-14000000D03*
X47460000Y-14000000D03*
X44920000Y-14000000D03*
X42380000Y-14000000D03*
X39840000Y-14000000D03*
X37300000Y-14000000D03*
X34760000Y-14000000D03*
X32220000Y-14000000D03*
X29680000Y-14000000D03*
X27140000Y-14000000D03*
X24600000Y-14000000D03*
X22060000Y-14000000D03*
X19520000Y-14000000D03*
X16980000Y-14000000D03*
X14440000Y-14000000D03*
X11900000Y-14000000D03*
%TD*%
D14*
%TO.C,R1*%
X21080000Y-10000000D03*
D13*
X10920000Y-10000000D03*
%TD*%
M02*
