<?xml version="1.0" standalone="no"?>
<!DOCTYPE svg PUBLIC "-//W3C//DTD SVG 1.1//EN"
"http://www.w3.org/Graphics/SVG/1.1/DTD/svg11.dtd">
<svg width="374.362" height="185.386" viewBox="0 0 7799.21 3862.2" version="1.1"
xmlns="http://www.w3.org/2000/svg"
xmlns:xlink="http://www.w3.org/1999/xlink">
<g fill-rule="evenodd"><path d="M 407.48,3389.37 L 408.766,3376.31 L 412.575,3363.76 L 418.76,3352.19 L 427.083,3342.04 L 437.226,3333.72 L 448.797,3327.54 L 461.352,3323.73 L 474.409,3322.44 L 487.467,3323.73 L 500.022,3327.54 L 509.113,3332.39 L 953.149,2888.36 L 953.149,2374.02 L 953.451,2370.95 L 954.348,2368 L 955.803,2365.27 L 957.761,2362.89 L 1604.29,1716.36 L 1606.68,1714.4 L 1609.4,1712.95 L 1612.35,1712.05 L 1615.42,1711.75 L 3362.14,1711.75 L 3367.01,1712.52 L 3369.29,1713.46 L 3373.28,1716.36 L 4064.65,2407.73 L 4072.35,2403.61 L 4084.17,2400.03 L 4096.46,2398.82 L 4108.75,2400.03 L 4120.56,2403.61 L 4131.45,2409.43 L 4141,2417.27 L 4148.83,2426.81 L 4154.65,2437.7 L 4158.24,2449.52 L 4159.45,2461.81 L 4158.24,2474.1 L 4154.65,2485.92 L 4148.83,2496.81 L 4141,2506.35 L 4131.45,2514.19 L 4120.56,2520.01 L 4108.75,2523.59 L 4096.46,2524.8 L 4084.17,2523.59 L 4072.35,2520.01 L 4061.46,2514.19 L 4051.91,2506.35 L 4044.08,2496.81 L 4038.26,2485.92 L 4034.67,2474.1 L 4033.46,2461.81 L 4034.67,2449.52 L 4038.26,2437.7 L 4042.38,2430 L 3355.62,1743.24 L 1621.95,1743.24 L 984.645,2380.55 L 984.645,2894.88 L 984.342,2897.95 L 983.446,2900.91 L 981.991,2903.63 L 980.032,2906.02 L 531.384,3354.67 L 536.244,3363.76 L 540.053,3376.31 L 541.339,3389.37 L 540.053,3402.43 L 536.244,3414.98 L 530.059,3426.55 L 521.735,3436.7 L 511.593,3445.02 L 500.022,3451.2 L 487.467,3455.01 L 474.409,3456.3 L 461.352,3455.01 L 448.797,3451.2 L 437.226,3445.02 L 427.083,3436.7 L 418.76,3426.55 L 412.575,3414.98 L 408.766,3402.43 L 407.48,3389.37 z " style="fill-opacity:1.000000;fill:rgb(103,198,105);stroke:rgb(0,0,0);stroke-width:2"/></g>
<g fill-rule="evenodd"><path d="M 407.48,3189.37 L 408.766,3176.31 L 412.575,3163.76 L 418.76,3152.19 L 427.083,3142.04 L 437.226,3133.72 L 448.797,3127.54 L 461.352,3123.73 L 474.409,3122.44 L 487.467,3123.73 L 500.022,3127.54 L 511.593,3133.72 L 521.735,3142.04 L 530.059,3152.19 L 536.244,3163.76 L 540.053,3176.31 L 541.339,3189.37 L 540.053,3202.43 L 536.244,3214.98 L 530.059,3226.55 L 521.735,3236.7 L 511.593,3245.02 L 500.022,3251.2 L 487.467,3255.01 L 474.409,3256.3 L 461.352,3255.01 L 448.797,3251.2 L 437.226,3245.02 L 427.083,3236.7 L 418.76,3226.55 L 412.575,3214.98 L 408.766,3202.43 L 407.48,3189.37 z " style="fill-opacity:1.000000;fill:rgb(115,81,255);stroke:rgb(0,0,0);stroke-width:2"/></g>
<g fill-rule="evenodd"><path d="M 407.48,2989.37 L 408.766,2976.31 L 412.575,2963.76 L 418.76,2952.19 L 427.083,2942.04 L 437.226,2933.72 L 448.797,2927.54 L 461.352,2923.73 L 474.409,2922.44 L 487.467,2923.73 L 500.022,2927.54 L 511.593,2933.72 L 521.735,2942.04 L 530.059,2952.19 L 536.244,2963.76 L 540.053,2976.31 L 541.339,2989.37 L 540.053,3002.43 L 536.244,3014.98 L 530.059,3026.55 L 521.735,3036.7 L 511.593,3045.02 L 500.022,3051.2 L 487.467,3055.01 L 474.409,3056.3 L 461.352,3055.01 L 448.797,3051.2 L 437.226,3045.02 L 427.083,3036.7 L 418.76,3026.55 L 412.575,3014.98 L 408.766,3002.43 L 407.48,2989.37 z " style="fill-opacity:1.000000;fill:rgb(74,236,41);stroke:rgb(0,0,0);stroke-width:2"/></g>
<g fill-rule="evenodd"><path d="M 407.48,2789.37 L 408.766,2776.31 L 412.575,2763.76 L 418.76,2752.19 L 427.083,2742.04 L 437.226,2733.72 L 448.797,2727.54 L 461.352,2723.73 L 474.409,2722.44 L 487.467,2723.73 L 500.022,2727.54 L 511.593,2733.72 L 521.735,2742.04 L 530.059,2752.19 L 536.244,2763.76 L 539.236,2773.62 L 588.589,2773.62 L 588.589,2573.44 L 588.891,2570.37 L 589.788,2567.41 L 591.243,2564.69 L 593.201,2562.31 L 1280.71,1874.8 L 1280.71,1322.54 L 1272.35,1320.01 L 1261.46,1314.19 L 1251.91,1306.35 L 1244.08,1296.81 L 1238.26,1285.92 L 1234.67,1274.1 L 1233.46,1261.81 L 1234.67,1249.52 L 1238.26,1237.7 L 1244.08,1226.81 L 1251.91,1217.27 L 1261.46,1209.43 L 1272.35,1203.61 L 1284.17,1200.03 L 1296.46,1198.82 L 1308.75,1200.03 L 1320.56,1203.61 L 1331.45,1209.43 L 1341,1217.27 L 1348.83,1226.81 L 1354.65,1237.7 L 1358.24,1249.52 L 1359.45,1261.81 L 1358.24,1274.1 L 1354.65,1285.92 L 1348.83,1296.81 L 1341,1306.35 L 1331.45,1314.19 L 1320.56,1320.01 L 1312.2,1322.54 L 1312.2,1881.32 L 1311.9,1884.4 L 1311,1887.35 L 1309.55,1890.07 L 1307.59,1892.46 L 620.085,2579.96 L 620.085,2773.62 L 664.259,2773.62 L 669.125,2774.39 L 671.408,2775.34 L 675.394,2778.23 L 755.823,2858.66 L 762.469,2856.65 L 770.15,2855.89 L 777.83,2856.65 L 785.216,2858.89 L 792.022,2862.52 L 797.988,2867.42 L 802.885,2873.39 L 806.523,2880.19 L 808.763,2887.58 L 809.52,2895.26 L 808.763,2902.94 L 806.523,2910.33 L 802.885,2917.13 L 797.988,2923.1 L 792.022,2927.99 L 785.216,2931.63 L 777.83,2933.87 L 770.15,2934.63 L 762.469,2933.87 L 755.083,2931.63 L 748.277,2927.99 L 742.311,2923.1 L 737.415,2917.13 L 733.776,2910.33 L 731.536,2902.94 L 730.78,2895.26 L 731.536,2887.58 L 733.552,2880.93 L 657.736,2805.12 L 539.237,2805.12 L 536.244,2814.98 L 530.059,2826.55 L 521.735,2836.7 L 511.593,2845.02 L 500.022,2851.2 L 487.467,2855.01 L 474.409,2856.3 L 461.352,2855.01 L 448.797,2851.2 L 437.226,2845.02 L 427.083,2836.7 L 418.76,2826.55 L 412.575,2814.98 L 408.766,2802.43 L 407.48,2789.37 z " style="fill-opacity:1.000000;fill:rgb(205,186,171);stroke:rgb(0,0,0);stroke-width:2"/></g>
<g fill-rule="evenodd"><path d="M 407.48,2589.37 L 408.766,2576.31 L 412.575,2563.76 L 418.76,2552.19 L 427.083,2542.04 L 437.226,2533.72 L 448.797,2527.54 L 461.352,2523.73 L 474.409,2522.44 L 487.467,2523.73 L 500.022,2527.54 L 511.593,2533.72 L 521.735,2542.04 L 530.059,2552.19 L 536.244,2563.76 L 540.053,2576.31 L 541.339,2589.37 L 540.053,2602.43 L 536.244,2614.98 L 530.059,2626.55 L 521.735,2636.7 L 511.593,2645.02 L 500.022,2651.2 L 487.467,2655.01 L 474.409,2656.3 L 461.352,2655.01 L 448.797,2651.2 L 437.226,2645.02 L 427.083,2636.7 L 418.76,2626.55 L 412.575,2614.98 L 408.766,2602.43 L 407.48,2589.37 z " style="fill-opacity:1.000000;fill:rgb(242,251,227);stroke:rgb(0,0,0);stroke-width:2"/></g>
<g fill-rule="evenodd"><path d="M 407.48,2389.37 L 408.766,2376.31 L 412.575,2363.76 L 418.76,2352.19 L 427.083,2342.04 L 437.226,2333.72 L 448.797,2327.54 L 461.352,2323.73 L 474.409,2322.44 L 487.467,2323.73 L 500.022,2327.54 L 511.593,2333.72 L 521.735,2342.04 L 530.059,2352.19 L 536.244,2363.76 L 539.236,2373.62 L 670.524,2373.62 L 877.495,2166.65 L 877.495,891.267 L 878.266,886.4 L 879.211,884.117 L 882.107,880.131 L 952.557,809.683 L 954.944,807.725 L 957.666,806.269 L 960.621,805.373 L 963.693,805.071 L 1455.46,805.071 L 1458.54,805.373 L 1461.49,806.27 L 1464.21,807.725 L 1466.6,809.683 L 1776.99,1120.07 L 1889.93,1120.07 L 2440.19,569.815 L 2442.57,567.857 L 2445.3,566.402 L 2448.25,565.505 L 2451.32,565.203 L 6983.54,565.203 L 6986.01,565.397 L 6990.69,566.919 L 6994.68,569.815 L 7384.8,959.935 L 7386.75,962.322 L 7388.21,965.044 L 7389.11,967.999 L 7389.41,971.071 L 7389.41,2605.86 L 7389.11,2608.93 L 7388.21,2611.88 L 7386.75,2614.61 L 7384.8,2616.99 L 6737.4,3264.39 L 6737.4,3322.97 L 6747.27,3325.96 L 6758.84,3332.15 L 6768.98,3340.47 L 6777.3,3350.61 L 6783.49,3362.18 L 6787.3,3374.74 L 6788.58,3387.8 L 6787.3,3400.85 L 6783.49,3413.41 L 6777.3,3424.98 L 6768.98,3435.12 L 6758.84,3443.44 L 6747.27,3449.63 L 6734.71,3453.44 L 6721.65,3454.72 L 6708.6,3453.44 L 6696.04,3449.63 L 6684.47,3443.44 L 6674.33,3435.12 L 6666,3424.98 L 6659.82,3413.41 L 6656.01,3400.85 L 6654.72,3387.8 L 6656.01,3374.74 L 6659.82,3362.18 L 6666,3350.61 L 6674.33,3340.47 L 6684.47,3332.15 L 6696.04,3325.96 L 6705.9,3322.97 L 6705.9,3257.86 L 6706.21,3254.79 L 6707.1,3251.84 L 6708.56,3249.12 L 6710.52,3246.73 L 7357.91,2599.33 L 7357.91,977.593 L 6977.02,596.699 L 2457.85,596.699 L 1912.2,1142.34 L 1912.2,1201.08 L 1920.56,1203.61 L 1931.45,1209.43 L 1941,1217.27 L 1948.83,1226.81 L 1954.65,1237.7 L 1958.24,1249.52 L 1959.45,1261.81 L 1958.24,1274.1 L 1954.65,1285.92 L 1948.83,1296.81 L 1941,1306.35 L 1931.45,1314.19 L 1920.56,1320.01 L 1908.75,1323.59 L 1896.46,1324.8 L 1884.17,1323.59 L 1872.35,1320.01 L 1861.46,1314.19 L 1851.91,1306.35 L 1844.08,1296.81 L 1838.26,1285.92 L 1834.67,1274.1 L 1833.46,1261.81 L 1834.67,1249.52 L 1838.26,1237.7 L 1844.08,1226.81 L 1851.91,1217.27 L 1861.46,1209.43 L 1872.35,1203.61 L 1880.71,1201.08 L 1880.71,1151.57 L 1770.46,1151.57 L 1767.39,1151.26 L 1764.44,1150.37 L 1761.71,1148.91 L 1759.33,1146.95 L 1448.94,836.567 L 970.216,836.567 L 908.991,897.789 L 908.991,2173.17 L 908.688,2176.24 L 907.792,2179.2 L 906.337,2181.92 L 904.378,2184.31 L 688.182,2400.5 L 686.303,2402.11 L 681.913,2404.35 L 677.047,2405.12 L 539.237,2405.12 L 536.244,2414.98 L 530.059,2426.55 L 521.735,2436.7 L 511.593,2445.02 L 500.022,2451.2 L 487.467,2455.01 L 474.409,2456.3 L 461.352,2455.01 L 448.797,2451.2 L 437.226,2445.02 L 427.083,2436.7 L 418.76,2426.55 L 412.575,2414.98 L 408.766,2402.43 L 407.48,2389.37 z " style="fill-opacity:1.000000;fill:rgb(70,124,194);stroke:rgb(0,0,0);stroke-width:2"/></g>
<g fill-rule="evenodd"><path d="M 407.48,2189.37 L 408.766,2176.31 L 412.575,2163.76 L 418.76,2152.19 L 427.083,2142.04 L 437.226,2133.72 L 448.797,2127.54 L 461.352,2123.73 L 474.409,2122.44 L 487.467,2123.73 L 500.022,2127.54 L 511.593,2133.72 L 521.735,2142.04 L 530.059,2152.19 L 536.244,2163.76 L 540.053,2176.31 L 541.339,2189.37 L 540.053,2202.43 L 536.244,2214.98 L 530.059,2226.55 L 521.735,2236.7 L 511.593,2245.02 L 500.022,2251.2 L 487.467,2255.01 L 474.409,2256.3 L 461.352,2255.01 L 448.797,2251.2 L 437.226,2245.02 L 427.083,2236.7 L 418.76,2226.55 L 412.575,2214.98 L 408.766,2202.43 L 407.48,2189.37 z " style="fill-opacity:1.000000;fill:rgb(84,248,27);stroke:rgb(0,0,0);stroke-width:2"/></g>
<g fill-rule="evenodd"><path d="M 407.48,1989.37 L 408.766,1976.31 L 412.575,1963.76 L 418.76,1952.19 L 427.083,1942.04 L 437.226,1933.72 L 448.797,1927.54 L 461.352,1923.73 L 474.409,1922.44 L 487.467,1923.73 L 500.022,1927.54 L 511.593,1933.72 L 521.735,1942.04 L 530.059,1952.19 L 536.244,1963.76 L 540.053,1976.31 L 541.339,1989.37 L 540.053,2002.43 L 536.244,2014.98 L 530.059,2026.55 L 521.735,2036.7 L 511.593,2045.02 L 500.022,2051.2 L 487.467,2055.01 L 474.409,2056.3 L 461.352,2055.01 L 448.797,2051.2 L 437.226,2045.02 L 427.083,2036.7 L 418.76,2026.55 L 412.575,2014.98 L 408.766,2002.43 L 407.48,1989.37 z " style="fill-opacity:1.000000;fill:rgb(232,231,141);stroke:rgb(0,0,0);stroke-width:2"/></g>
<g fill-rule="evenodd"><path d="M 407.48,1789.37 L 408.766,1776.31 L 412.575,1763.76 L 418.76,1752.19 L 427.083,1742.04 L 437.226,1733.72 L 448.797,1727.54 L 461.352,1723.73 L 474.409,1722.44 L 487.467,1723.73 L 500.022,1727.54 L 511.593,1733.72 L 521.735,1742.04 L 530.059,1752.19 L 536.244,1763.76 L 540.053,1776.31 L 541.339,1789.37 L 540.053,1802.43 L 536.244,1814.98 L 530.059,1826.55 L 521.735,1836.7 L 511.593,1845.02 L 500.022,1851.2 L 487.467,1855.01 L 474.409,1856.3 L 461.352,1855.01 L 448.797,1851.2 L 437.226,1845.02 L 427.083,1836.7 L 418.76,1826.55 L 412.575,1814.98 L 408.766,1802.43 L 407.48,1789.37 z " style="fill-opacity:1.000000;fill:rgb(118,90,46);stroke:rgb(0,0,0);stroke-width:2"/></g>
<g fill-rule="evenodd"><path d="M 407.48,1589.37 L 408.766,1576.31 L 412.575,1563.76 L 418.76,1552.19 L 427.083,1542.04 L 437.226,1533.72 L 448.797,1527.54 L 461.352,1523.73 L 474.409,1522.44 L 487.467,1523.73 L 500.022,1527.54 L 511.593,1533.72 L 521.735,1542.04 L 530.059,1552.19 L 536.244,1563.76 L 540.053,1576.31 L 541.339,1589.37 L 540.053,1602.43 L 536.244,1614.98 L 530.059,1626.55 L 521.735,1636.7 L 511.593,1645.02 L 500.022,1651.2 L 487.467,1655.01 L 474.409,1656.3 L 461.352,1655.01 L 448.797,1651.2 L 437.226,1645.02 L 427.083,1636.7 L 418.76,1626.55 L 412.575,1614.98 L 408.766,1602.43 L 407.48,1589.37 z " style="fill-opacity:1.000000;fill:rgb(99,51,159);stroke:rgb(0,0,0);stroke-width:2"/></g>
<g fill-rule="evenodd"><path d="M 407.48,1389.37 L 408.766,1376.31 L 412.575,1363.76 L 418.76,1352.19 L 427.083,1342.04 L 437.226,1333.72 L 448.797,1327.54 L 461.352,1323.73 L 474.409,1322.44 L 487.467,1323.73 L 500.022,1327.54 L 511.593,1333.72 L 521.735,1342.04 L 530.059,1352.19 L 536.244,1363.76 L 540.053,1376.31 L 541.339,1389.37 L 540.053,1402.43 L 536.244,1414.98 L 530.059,1426.55 L 521.735,1436.7 L 511.593,1445.02 L 500.022,1451.2 L 487.467,1455.01 L 474.409,1456.3 L 461.352,1455.01 L 448.797,1451.2 L 437.226,1445.02 L 427.083,1436.7 L 418.76,1426.55 L 412.575,1414.98 L 408.766,1402.43 L 407.48,1389.37 z " style="fill-opacity:1.000000;fill:rgb(201,154,102);stroke:rgb(0,0,0);stroke-width:2"/></g>
<g fill-rule="evenodd"><path d="M 407.48,1189.37 L 408.766,1176.31 L 412.575,1163.76 L 418.76,1152.19 L 427.083,1142.04 L 437.226,1133.72 L 448.797,1127.54 L 461.352,1123.73 L 474.409,1122.44 L 487.467,1123.73 L 500.022,1127.54 L 511.593,1133.72 L 521.735,1142.04 L 530.059,1152.19 L 536.244,1163.76 L 540.053,1176.31 L 541.339,1189.37 L 540.053,1202.43 L 536.244,1214.98 L 530.059,1226.55 L 521.735,1236.7 L 511.593,1245.02 L 500.022,1251.2 L 487.467,1255.01 L 474.409,1256.3 L 461.352,1255.01 L 448.797,1251.2 L 437.226,1245.02 L 427.083,1236.7 L 418.76,1226.55 L 412.575,1214.98 L 408.766,1202.43 L 407.48,1189.37 z " style="fill-opacity:1.000000;fill:rgb(50,13,183);stroke:rgb(0,0,0);stroke-width:2"/></g>
<g fill-rule="evenodd"><path d="M 407.48,989.37 L 408.766,976.313 L 412.575,963.757 L 418.76,952.186 L 427.083,942.044 L 437.226,933.721 L 448.797,927.536 L 461.352,923.727 L 474.409,922.441 L 487.467,923.727 L 500.022,927.536 L 511.593,933.721 L 521.735,942.044 L 530.059,952.186 L 536.244,963.757 L 540.053,976.313 L 541.339,989.37 L 540.053,1002.43 L 536.244,1014.98 L 531.385,1024.07 L 775.716,1268.41 L 777.675,1270.79 L 779.13,1273.52 L 780.026,1276.47 L 780.329,1279.54 L 780.329,2121.05 L 786.456,2124.32 L 792.422,2129.22 L 797.318,2135.18 L 800.956,2141.99 L 803.196,2149.37 L 803.953,2157.06 L 803.196,2164.74 L 800.956,2172.12 L 797.318,2178.93 L 792.422,2184.89 L 786.456,2189.79 L 779.649,2193.43 L 772.263,2195.67 L 764.583,2196.43 L 756.902,2195.67 L 749.516,2193.43 L 742.71,2189.79 L 736.744,2184.89 L 731.848,2178.93 L 728.209,2172.12 L 725.969,2164.74 L 725.213,2157.06 L 725.969,2149.37 L 728.209,2141.99 L 731.848,2135.18 L 736.744,2129.22 L 742.71,2124.32 L 748.832,2121.05 L 748.833,1286.07 L 509.113,1046.35 L 500.022,1051.2 L 487.467,1055.01 L 474.409,1056.3 L 461.352,1055.01 L 448.797,1051.2 L 437.226,1045.02 L 427.083,1036.7 L 418.76,1026.55 L 412.575,1014.98 L 408.766,1002.43 L 407.48,989.37 z " style="fill-opacity:1.000000;fill:rgb(49,88,163);stroke:rgb(0,0,0);stroke-width:2"/></g>
<g fill-rule="evenodd"><path d="M 407.48,856.299 L 407.48,722.441 L 541.339,722.441 L 541.339,856.299 L 407.48,856.299 z " style="fill-opacity:1.000000;fill:rgb(90,37,93);stroke:rgb(0,0,0);stroke-width:2"/></g>
<g fill-rule="evenodd"><path d="M 956.299,946.85 L 957.51,934.561 L 961.094,922.744 L 966.915,911.854 L 974.749,902.308 L 984.295,894.474 L 995.185,888.653 L 1007,885.069 L 1019.29,883.858 L 1031.58,885.069 L 1043.4,888.653 L 1054.29,894.474 L 1063.83,902.308 L 1071.67,911.854 L 1077.49,922.744 L 1081.07,934.561 L 1082.28,946.85 L 1081.07,959.14 L 1077.49,970.956 L 1071.67,981.847 L 1063.83,991.393 L 1054.29,999.226 L 1043.4,1005.05 L 1035.04,1007.58 L 1035.04,1066.32 L 1088.79,1120.07 L 1096.45,1120.07 L 1099.53,1120.37 L 1102.48,1121.27 L 1105.2,1122.72 L 1107.59,1124.68 L 1109.55,1127.07 L 1111,1129.79 L 1111.9,1132.75 L 1112.2,1135.82 L 1112.2,1201.08 L 1120.56,1203.61 L 1131.45,1209.43 L 1141,1217.27 L 1148.83,1226.81 L 1154.65,1237.7 L 1158.24,1249.52 L 1159.45,1261.81 L 1158.24,1274.1 L 1154.65,1285.92 L 1148.83,1296.81 L 1141,1306.35 L 1131.45,1314.19 L 1120.56,1320.01 L 1108.75,1323.59 L 1096.46,1324.8 L 1084.17,1323.59 L 1072.35,1320.01 L 1061.46,1314.19 L 1051.91,1306.35 L 1044.08,1296.81 L 1038.26,1285.92 L 1034.67,1274.1 L 1033.46,1261.81 L 1034.67,1249.52 L 1038.26,1237.7 L 1044.08,1226.81 L 1051.91,1217.27 L 1061.46,1209.43 L 1072.35,1203.61 L 1080.71,1201.08 L 1080.71,1151.44 L 1077.4,1150.8 L 1075.12,1149.85 L 1071.13,1146.95 L 1008.16,1083.98 L 1006.2,1081.59 L 1004.74,1078.87 L 1003.85,1075.91 L 1003.54,1072.84 L 1003.54,1007.58 L 995.185,1005.05 L 984.295,999.226 L 974.749,991.393 L 966.915,981.847 L 961.094,970.956 L 957.51,959.14 L 956.299,946.85 z " style="fill-opacity:1.000000;fill:rgb(5,23,88);stroke:rgb(0,0,0);stroke-width:2"/></g>
<g fill-rule="evenodd"><path d="M 1033.46,2524.8 L 1033.46,2398.82 L 1159.45,2398.82 L 1159.45,2524.8 L 1033.46,2524.8 z " style="fill-opacity:1.000000;fill:rgb(233,94,212);stroke:rgb(0,0,0);stroke-width:2"/></g>
<g fill-rule="evenodd"><path d="M 1233.46,2461.81 L 1234.67,2449.52 L 1238.26,2437.7 L 1244.08,2426.81 L 1251.91,2417.27 L 1261.46,2409.43 L 1272.35,2403.61 L 1284.17,2400.03 L 1296.46,2398.82 L 1308.75,2400.03 L 1320.56,2403.61 L 1331.45,2409.43 L 1341,2417.27 L 1348.83,2426.81 L 1354.65,2437.7 L 1358.24,2449.52 L 1359.45,2461.81 L 1358.24,2474.1 L 1354.65,2485.92 L 1348.83,2496.81 L 1341,2506.35 L 1331.45,2514.19 L 1320.56,2520.01 L 1308.75,2523.59 L 1296.46,2524.8 L 1284.17,2523.59 L 1272.35,2520.01 L 1261.46,2514.19 L 1251.91,2506.35 L 1244.08,2496.81 L 1238.26,2485.92 L 1234.67,2474.1 L 1233.46,2461.81 z " style="fill-opacity:1.000000;fill:rgb(171,178,205);stroke:rgb(0,0,0);stroke-width:2"/></g>
<g fill-rule="evenodd"><path d="M 1433.46,2461.81 L 1434.67,2449.52 L 1438.26,2437.7 L 1444.08,2426.81 L 1451.91,2417.27 L 1461.46,2409.43 L 1472.35,2403.61 L 1484.17,2400.03 L 1496.46,2398.82 L 1508.75,2400.03 L 1520.56,2403.61 L 1531.45,2409.43 L 1541,2417.27 L 1548.83,2426.81 L 1554.65,2437.7 L 1558.24,2449.52 L 1559.45,2461.81 L 1558.24,2474.1 L 1554.65,2485.92 L 1548.83,2496.81 L 1541,2506.35 L 1531.45,2514.19 L 1520.56,2520.01 L 1512.2,2522.54 L 1512.2,2594.43 L 1823.86,2906.09 L 1830.51,2904.07 L 1838.19,2903.31 L 1845.87,2904.07 L 1853.26,2906.31 L 1860.06,2909.95 L 1866.03,2914.85 L 1870.92,2920.81 L 1874.56,2927.62 L 1876.8,2935 L 1877.56,2942.69 L 1876.8,2950.37 L 1874.56,2957.75 L 1870.92,2964.56 L 1866.03,2970.52 L 1860.06,2975.42 L 1853.26,2979.06 L 1845.87,2981.3 L 1838.19,2982.06 L 1830.51,2981.3 L 1823.12,2979.06 L 1816.32,2975.42 L 1810.35,2970.52 L 1805.45,2964.56 L 1801.82,2957.75 L 1799.58,2950.37 L 1798.82,2942.69 L 1799.58,2935 L 1801.59,2928.36 L 1485.32,2612.09 L 1483.36,2609.7 L 1481.91,2606.98 L 1481.01,2604.02 L 1480.71,2600.95 L 1480.71,2522.54 L 1472.35,2520.01 L 1461.46,2514.19 L 1451.91,2506.35 L 1444.08,2496.81 L 1438.26,2485.92 L 1434.67,2474.1 L 1433.46,2461.81 z " style="fill-opacity:1.000000;fill:rgb(198,155,180);stroke:rgb(0,0,0);stroke-width:2"/></g>
<g fill-rule="evenodd"><path d="M 1433.46,1261.81 L 1434.67,1249.52 L 1438.26,1237.7 L 1444.08,1226.81 L 1451.91,1217.27 L 1461.46,1209.43 L 1472.35,1203.61 L 1484.17,1200.03 L 1496.46,1198.82 L 1508.75,1200.03 L 1520.56,1203.61 L 1531.45,1209.43 L 1541,1217.27 L 1548.83,1226.81 L 1554.65,1237.7 L 1558.24,1249.52 L 1559.45,1261.81 L 1558.24,1274.1 L 1554.65,1285.92 L 1548.83,1296.81 L 1541,1306.35 L 1531.45,1314.19 L 1520.56,1320.01 L 1508.75,1323.59 L 1496.46,1324.8 L 1484.17,1323.59 L 1472.35,1320.01 L 1461.46,1314.19 L 1451.91,1306.35 L 1444.08,1296.81 L 1438.26,1285.92 L 1434.67,1274.1 L 1433.46,1261.81 z " style="fill-opacity:1.000000;fill:rgb(84,17,14);stroke:rgb(0,0,0);stroke-width:2"/></g>
<g fill-rule="evenodd"><path d="M 1633.46,2461.81 L 1634.67,2449.52 L 1638.26,2437.7 L 1644.08,2426.81 L 1651.91,2417.27 L 1661.46,2409.43 L 1672.35,2403.61 L 1684.17,2400.03 L 1696.46,2398.82 L 1708.75,2400.03 L 1720.56,2403.61 L 1731.45,2409.43 L 1741,2417.27 L 1748.83,2426.81 L 1754.65,2437.7 L 1758.24,2449.52 L 1759.45,2461.81 L 1758.24,2474.1 L 1754.65,2485.92 L 1750.54,2493.62 L 2195.2,2938.29 L 2197.93,2936.83 L 2205.31,2934.59 L 2212.99,2933.83 L 2220.67,2934.59 L 2228.06,2936.83 L 2234.86,2940.47 L 2240.83,2945.37 L 2245.73,2951.33 L 2249.37,2958.14 L 2251.61,2965.52 L 2252.36,2973.2 L 2251.61,2980.89 L 2249.37,2988.27 L 2245.73,2995.08 L 2240.83,3001.04 L 2234.86,3005.94 L 2228.06,3009.58 L 2220.67,3011.82 L 2212.99,3012.57 L 2205.31,3011.82 L 2197.93,3009.58 L 2191.12,3005.94 L 2185.15,3001.04 L 2180.26,2995.08 L 2176.62,2988.27 L 2174.38,2980.89 L 2173.62,2973.2 L 2174.38,2965.52 L 2175.2,2962.82 L 1728.26,2515.89 L 1720.56,2520.01 L 1708.75,2523.59 L 1696.46,2524.8 L 1684.17,2523.59 L 1672.35,2520.01 L 1661.46,2514.19 L 1651.91,2506.35 L 1644.08,2496.81 L 1638.26,2485.92 L 1634.67,2474.1 L 1633.46,2461.81 z " style="fill-opacity:1.000000;fill:rgb(130,116,65);stroke:rgb(0,0,0);stroke-width:2"/></g>
<g fill-rule="evenodd"><path d="M 1633.46,1261.81 L 1634.67,1249.52 L 1638.26,1237.7 L 1644.08,1226.81 L 1651.91,1217.27 L 1661.46,1209.43 L 1672.35,1203.61 L 1684.17,1200.03 L 1696.46,1198.82 L 1708.75,1200.03 L 1720.56,1203.61 L 1731.45,1209.43 L 1741,1217.27 L 1748.83,1226.81 L 1754.65,1237.7 L 1758.24,1249.52 L 1759.45,1261.81 L 1758.24,1274.1 L 1754.65,1285.92 L 1748.83,1296.81 L 1741,1306.35 L 1731.45,1314.19 L 1720.56,1320.01 L 1708.75,1323.59 L 1696.46,1324.8 L 1684.17,1323.59 L 1672.35,1320.01 L 1661.46,1314.19 L 1651.91,1306.35 L 1644.08,1296.81 L 1638.26,1285.92 L 1634.67,1274.1 L 1633.46,1261.81 z " style="fill-opacity:1.000000;fill:rgb(33,61,220);stroke:rgb(0,0,0);stroke-width:2"/></g>
<g fill-rule="evenodd"><path d="M 1756.3,946.85 L 1757.51,934.561 L 1761.09,922.744 L 1766.92,911.854 L 1774.75,902.308 L 1784.29,894.474 L 1795.19,888.653 L 1807,885.069 L 1819.29,883.858 L 1831.58,885.069 L 1843.4,888.653 L 1854.29,894.474 L 1863.83,902.308 L 1871.67,911.854 L 1877.49,922.744 L 1881.07,934.561 L 1882.28,946.85 L 1881.07,959.14 L 1877.49,970.956 L 1871.67,981.847 L 1863.83,991.393 L 1854.29,999.226 L 1843.4,1005.05 L 1831.58,1008.63 L 1819.29,1009.84 L 1807,1008.63 L 1795.19,1005.05 L 1784.29,999.226 L 1774.75,991.393 L 1766.92,981.847 L 1761.09,970.956 L 1757.51,959.14 L 1756.3,946.85 z " style="fill-opacity:1.000000;fill:rgb(135,112,233);stroke:rgb(0,0,0);stroke-width:2"/></g>
<g fill-rule="evenodd"><path d="M 1833.46,2461.81 L 1834.67,2449.52 L 1838.26,2437.7 L 1844.08,2426.81 L 1851.91,2417.27 L 1861.46,2409.43 L 1872.35,2403.61 L 1884.17,2400.03 L 1896.46,2398.82 L 1908.75,2400.03 L 1920.56,2403.61 L 1928.26,2407.73 L 2199.09,2136.9 L 2201.48,2134.94 L 2204.2,2133.49 L 2207.15,2132.59 L 2210.23,2132.29 L 2396.49,2132.29 L 2399.76,2126.17 L 2404.66,2120.2 L 2410.62,2115.3 L 2417.43,2111.67 L 2424.82,2109.43 L 2432.5,2108.67 L 2440.18,2109.43 L 2447.56,2111.67 L 2454.37,2115.3 L 2460.33,2120.2 L 2465.23,2126.17 L 2468.87,2132.97 L 2471.11,2140.36 L 2471.87,2148.04 L 2471.11,2155.72 L 2468.87,2163.11 L 2465.23,2169.91 L 2460.33,2175.88 L 2454.37,2180.77 L 2447.56,2184.41 L 2440.18,2186.65 L 2432.5,2187.41 L 2424.82,2186.65 L 2417.43,2184.41 L 2410.62,2180.77 L 2404.66,2175.88 L 2399.76,2169.91 L 2396.49,2163.79 L 2216.75,2163.79 L 1950.54,2430 L 1954.65,2437.7 L 1958.24,2449.52 L 1959.45,2461.81 L 1958.24,2474.1 L 1954.65,2485.92 L 1948.83,2496.81 L 1941,2506.35 L 1931.45,2514.19 L 1920.56,2520.01 L 1908.75,2523.59 L 1896.46,2524.8 L 1884.17,2523.59 L 1872.35,2520.01 L 1861.46,2514.19 L 1851.91,2506.35 L 1844.08,2496.81 L 1838.26,2485.92 L 1834.67,2474.1 L 1833.46,2461.81 z " style="fill-opacity:1.000000;fill:rgb(62,161,65);stroke:rgb(0,0,0);stroke-width:2"/></g>
<g fill-rule="evenodd"><path d="M 2033.46,2461.81 L 2034.67,2449.52 L 2038.26,2437.7 L 2044.08,2426.81 L 2051.91,2417.27 L 2061.46,2409.43 L 2072.35,2403.61 L 2084.17,2400.03 L 2096.46,2398.82 L 2108.75,2400.03 L 2120.56,2403.61 L 2131.45,2409.43 L 2141,2417.27 L 2148.83,2426.81 L 2154.65,2437.7 L 2158.24,2449.52 L 2159.45,2461.81 L 2158.24,2474.1 L 2154.65,2485.92 L 2148.83,2496.81 L 2141,2506.35 L 2131.45,2514.19 L 2120.56,2520.01 L 2108.75,2523.59 L 2096.46,2524.8 L 2084.17,2523.59 L 2072.35,2520.01 L 2061.46,2514.19 L 2051.91,2506.35 L 2044.08,2496.81 L 2038.26,2485.92 L 2034.67,2474.1 L 2033.46,2461.81 z " style="fill-opacity:1.000000;fill:rgb(225,252,103);stroke:rgb(0,0,0);stroke-width:2"/></g>
<g fill-rule="evenodd"><path d="M 2033.46,1261.81 L 2034.67,1249.52 L 2038.26,1237.7 L 2044.08,1226.81 L 2051.91,1217.27 L 2061.46,1209.43 L 2072.35,1203.61 L 2084.17,1200.03 L 2096.46,1198.82 L 2108.75,1200.03 L 2120.56,1203.61 L 2131.45,1209.43 L 2141,1217.27 L 2148.83,1226.81 L 2154.65,1237.7 L 2158.24,1249.52 L 2159.45,1261.81 L 2158.24,1274.1 L 2154.65,1285.92 L 2148.83,1296.81 L 2141,1306.35 L 2131.45,1314.19 L 2120.56,1320.01 L 2108.75,1323.59 L 2096.46,1324.8 L 2084.17,1323.59 L 2072.35,1320.01 L 2061.46,1314.19 L 2051.91,1306.35 L 2044.08,1296.81 L 2038.26,1285.92 L 2034.67,1274.1 L 2033.46,1261.81 z " style="fill-opacity:1.000000;fill:rgb(62,1,126);stroke:rgb(0,0,0);stroke-width:2"/></g>
<g fill-rule="evenodd"><path d="M 2233.46,2461.81 L 2234.67,2449.52 L 2238.26,2437.7 L 2244.08,2426.81 L 2251.91,2417.27 L 2261.46,2409.43 L 2272.35,2403.61 L 2284.17,2400.03 L 2296.46,2398.82 L 2308.75,2400.03 L 2320.56,2403.61 L 2331.45,2409.43 L 2341,2417.27 L 2348.83,2426.81 L 2354.65,2437.7 L 2358.24,2449.52 L 2359.45,2461.81 L 2358.24,2474.1 L 2354.65,2485.92 L 2348.83,2496.81 L 2341,2506.35 L 2331.45,2514.19 L 2320.56,2520.01 L 2308.75,2523.59 L 2296.46,2524.8 L 2284.17,2523.59 L 2272.35,2520.01 L 2261.46,2514.19 L 2251.91,2506.35 L 2244.08,2496.81 L 2238.26,2485.92 L 2234.67,2474.1 L 2233.46,2461.81 z " style="fill-opacity:1.000000;fill:rgb(151,234,220);stroke:rgb(0,0,0);stroke-width:2"/></g>
<g fill-rule="evenodd"><path d="M 2233.46,1261.81 L 2234.67,1249.52 L 2238.26,1237.7 L 2244.08,1226.81 L 2251.91,1217.27 L 2261.46,1209.43 L 2272.35,1203.61 L 2284.17,1200.03 L 2296.46,1198.82 L 2308.75,1200.03 L 2320.56,1203.61 L 2331.45,1209.43 L 2341,1217.27 L 2348.83,1226.81 L 2354.65,1237.7 L 2358.24,1249.52 L 2359.45,1261.81 L 2358.24,1274.1 L 2354.65,1285.92 L 2348.83,1296.81 L 2341,1306.35 L 2331.45,1314.19 L 2320.56,1320.01 L 2308.75,1323.59 L 2296.46,1324.8 L 2284.17,1323.59 L 2272.35,1320.01 L 2261.46,1314.19 L 2251.91,1306.35 L 2244.08,1296.81 L 2238.26,1285.92 L 2234.67,1274.1 L 2233.46,1261.81 z " style="fill-opacity:1.000000;fill:rgb(107,150,143);stroke:rgb(0,0,0);stroke-width:2"/></g>
<g fill-rule="evenodd"><path d="M 2433.46,2461.81 L 2434.67,2449.52 L 2438.26,2437.7 L 2444.08,2426.81 L 2451.91,2417.27 L 2461.46,2409.43 L 2472.35,2403.61 L 2480.71,2401.08 L 2480.71,2335.82 L 2481.01,2332.75 L 2481.91,2329.79 L 2483.36,2327.07 L 2485.32,2324.68 L 2874.95,1935.05 L 2871.19,1930.47 L 2867.55,1923.66 L 2865.31,1916.28 L 2864.55,1908.6 L 2865.31,1900.92 L 2867.55,1893.53 L 2871.19,1886.73 L 2876.08,1880.76 L 2882.05,1875.86 L 2888.85,1872.23 L 2896.24,1869.98 L 2903.92,1869.23 L 2911.6,1869.98 L 2918.99,1872.23 L 2925.79,1875.86 L 2931.76,1880.76 L 2936.66,1886.73 L 2940.29,1893.53 L 2942.53,1900.92 L 2943.29,1908.6 L 2942.53,1916.28 L 2940.29,1923.66 L 2936.66,1930.47 L 2931.76,1936.44 L 2925.79,1941.33 L 2918.99,1944.97 L 2911.6,1947.21 L 2906.87,1947.68 L 2512.2,2342.34 L 2512.2,2401.08 L 2520.56,2403.61 L 2531.45,2409.43 L 2541,2417.27 L 2548.83,2426.81 L 2554.65,2437.7 L 2558.24,2449.52 L 2559.45,2461.81 L 2558.24,2474.1 L 2554.65,2485.92 L 2548.83,2496.81 L 2541,2506.35 L 2531.45,2514.19 L 2520.56,2520.01 L 2508.75,2523.59 L 2496.46,2524.8 L 2484.17,2523.59 L 2472.35,2520.01 L 2461.46,2514.19 L 2451.91,2506.35 L 2444.08,2496.81 L 2438.26,2485.92 L 2434.67,2474.1 L 2433.46,2461.81 z " style="fill-opacity:1.000000;fill:rgb(56,92,42);stroke:rgb(0,0,0);stroke-width:2"/></g>
<g fill-rule="evenodd"><path d="M 2433.46,1261.81 L 2434.67,1249.52 L 2438.26,1237.7 L 2444.08,1226.81 L 2451.91,1217.27 L 2461.46,1209.43 L 2472.35,1203.61 L 2484.17,1200.03 L 2496.46,1198.82 L 2508.75,1200.03 L 2520.56,1203.61 L 2528.26,1207.73 L 2928.69,807.305 L 2931.08,805.347 L 2933.8,803.892 L 2936.75,802.995 L 2939.82,802.693 L 5316.72,802.693 L 5319.8,802.995 L 5322.75,803.891 L 5325.47,805.347 L 5327.86,807.305 L 5412.76,892.209 L 5415.66,896.195 L 5417.18,900.881 L 5417.38,903.345 L 5417.38,2095.3 L 5781.98,2459.9 L 5873.06,2459.91 L 6346.16,1986.8 L 6346.16,820.329 L 6346.47,817.257 L 6347.36,814.302 L 6348.82,811.58 L 6350.78,809.193 L 6429,730.973 L 6432.98,728.077 L 6435.27,727.132 L 6440.13,726.361 L 6698.49,726.361 L 6703.35,727.132 L 6705.64,728.077 L 6709.62,730.973 L 6870.63,891.981 L 6872.59,894.368 L 6874.04,897.09 L 6874.94,900.045 L 6875.24,903.117 L 6875.24,2720.02 L 6874.94,2723.1 L 6874.04,2726.05 L 6872.59,2728.77 L 6870.63,2731.16 L 6337.4,3264.39 L 6337.4,3322.97 L 6347.27,3325.96 L 6358.84,3332.15 L 6368.98,3340.47 L 6377.3,3350.61 L 6383.49,3362.18 L 6387.3,3374.74 L 6388.58,3387.8 L 6387.3,3400.85 L 6383.49,3413.41 L 6377.3,3424.98 L 6368.98,3435.12 L 6358.84,3443.44 L 6347.27,3449.63 L 6334.71,3453.44 L 6321.65,3454.72 L 6308.6,3453.44 L 6296.04,3449.63 L 6284.47,3443.44 L 6274.33,3435.12 L 6266,3424.98 L 6259.82,3413.41 L 6256.01,3400.85 L 6254.72,3387.8 L 6256.01,3374.74 L 6259.82,3362.18 L 6266,3350.61 L 6274.33,3340.47 L 6284.47,3332.15 L 6296.04,3325.96 L 6305.9,3322.97 L 6305.9,3257.86 L 6306.21,3254.79 L 6307.1,3251.84 L 6308.56,3249.12 L 6310.52,3246.73 L 6843.75,2713.5 L 6843.75,909.64 L 6691.96,757.857 L 6446.66,757.857 L 6377.66,826.852 L 6377.66,1331.1 L 6506.59,1331.1 L 6509.13,1322.74 L 6514.95,1311.85 L 6522.78,1302.31 L 6532.33,1294.47 L 6543.22,1288.65 L 6555.03,1285.07 L 6567.32,1283.86 L 6579.61,1285.07 L 6591.43,1288.65 L 6602.32,1294.47 L 6611.86,1302.31 L 6619.7,1311.85 L 6625.52,1322.74 L 6629.1,1334.56 L 6630.31,1346.85 L 6629.1,1359.14 L 6625.52,1370.96 L 6619.7,1381.85 L 6611.86,1391.39 L 6602.32,1399.23 L 6591.43,1405.05 L 6579.61,1408.63 L 6567.32,1409.84 L 6555.03,1408.63 L 6543.22,1405.05 L 6532.33,1399.23 L 6522.78,1391.39 L 6514.95,1381.85 L 6509.13,1370.96 L 6506.59,1362.6 L 6377.66,1362.6 L 6377.66,1993.32 L 6377.47,1995.79 L 6375.94,2000.47 L 6373.05,2004.46 L 5890.72,2486.79 L 5888.33,2488.75 L 5885.61,2490.2 L 5882.65,2491.1 L 5879.58,2491.4 L 5775.45,2491.4 L 5770.59,2490.63 L 5766.2,2488.39 L 5390.49,2112.96 L 5388.53,2110.57 L 5387.08,2107.85 L 5386.18,2104.9 L 5385.88,2101.82 L 5385.88,909.868 L 5310.2,834.189 L 2946.35,834.189 L 2550.54,1230 L 2554.65,1237.7 L 2558.24,1249.52 L 2559.45,1261.81 L 2558.24,1274.1 L 2554.65,1285.92 L 2548.83,1296.81 L 2541,1306.35 L 2531.45,1314.19 L 2520.56,1320.01 L 2508.75,1323.59 L 2496.46,1324.8 L 2484.17,1323.59 L 2472.35,1320.01 L 2461.46,1314.19 L 2451.91,1306.35 L 2444.08,1296.81 L 2438.26,1285.92 L 2434.67,1274.1 L 2433.46,1261.81 z " style="fill-opacity:1.000000;fill:rgb(236,176,59);stroke:rgb(0,0,0);stroke-width:2"/></g>
<g fill-rule="evenodd"><path d="M 2454.72,3454.72 L 2454.72,3320.87 L 2566.31,3320.87 L 2736.38,3150.79 L 2738.77,3148.83 L 2741.49,3147.38 L 2744.45,3146.48 L 2747.52,3146.18 L 2871.83,3146.18 L 3480.71,2537.3 L 3480.71,2522.54 L 3472.35,2520.01 L 3461.46,2514.19 L 3451.91,2506.35 L 3444.08,2496.81 L 3438.26,2485.92 L 3434.67,2474.1 L 3433.46,2461.81 L 3434.67,2449.52 L 3438.26,2437.7 L 3444.08,2426.81 L 3451.91,2417.27 L 3461.46,2409.43 L 3472.35,2403.61 L 3484.17,2400.03 L 3496.46,2398.82 L 3508.75,2400.03 L 3520.56,2403.61 L 3531.45,2409.43 L 3541,2417.27 L 3548.83,2426.81 L 3554.65,2437.7 L 3558.24,2449.52 L 3559.45,2461.81 L 3558.24,2474.1 L 3554.65,2485.92 L 3548.83,2496.81 L 3541,2506.35 L 3531.45,2514.19 L 3520.56,2520.01 L 3512.2,2522.54 L 3512.2,2543.82 L 3511.9,2546.9 L 3511,2549.85 L 3509.55,2552.57 L 3507.59,2554.96 L 2889.49,3173.06 L 2885.5,3175.96 L 2883.22,3176.91 L 2878.35,3177.68 L 2754.04,3177.68 L 2588.58,3343.14 L 2588.58,3454.72 L 2454.72,3454.72 z " style="fill-opacity:1.000000;fill:rgb(251,50,175);stroke:rgb(0,0,0);stroke-width:2"/></g>
<g fill-rule="evenodd"><path d="M 2633.46,2461.81 L 2634.67,2449.52 L 2638.26,2437.7 L 2644.08,2426.81 L 2651.91,2417.27 L 2661.46,2409.43 L 2672.35,2403.61 L 2684.17,2400.03 L 2696.46,2398.82 L 2708.75,2400.03 L 2720.56,2403.61 L 2731.45,2409.43 L 2741,2417.27 L 2748.83,2426.81 L 2754.65,2437.7 L 2758.24,2449.52 L 2759.45,2461.81 L 2758.24,2474.1 L 2754.65,2485.92 L 2748.83,2496.81 L 2741,2506.35 L 2731.45,2514.19 L 2720.56,2520.01 L 2708.75,2523.59 L 2696.46,2524.8 L 2684.17,2523.59 L 2672.35,2520.01 L 2661.46,2514.19 L 2651.91,2506.35 L 2644.08,2496.81 L 2638.26,2485.92 L 2634.67,2474.1 L 2633.46,2461.81 z " style="fill-opacity:1.000000;fill:rgb(60,84,236);stroke:rgb(0,0,0);stroke-width:2"/></g>
<g fill-rule="evenodd"><path d="M 2633.46,1261.81 L 2634.67,1249.52 L 2638.26,1237.7 L 2644.08,1226.81 L 2651.91,1217.27 L 2661.46,1209.43 L 2672.35,1203.61 L 2684.17,1200.03 L 2696.46,1198.82 L 2708.75,1200.03 L 2720.56,1203.61 L 2731.45,1209.43 L 2741,1217.27 L 2748.83,1226.81 L 2754.65,1237.7 L 2758.24,1249.52 L 2759.45,1261.81 L 2758.24,1274.1 L 2754.65,1285.92 L 2748.83,1296.81 L 2741,1306.35 L 2731.45,1314.19 L 2720.56,1320.01 L 2708.75,1323.59 L 2696.46,1324.8 L 2684.17,1323.59 L 2672.35,1320.01 L 2661.46,1314.19 L 2651.91,1306.35 L 2644.08,1296.81 L 2638.26,1285.92 L 2634.67,1274.1 L 2633.46,1261.81 z " style="fill-opacity:1.000000;fill:rgb(24,219,92);stroke:rgb(0,0,0);stroke-width:2"/></g>
<g fill-rule="evenodd"><path d="M 2654.72,3387.8 L 2656.01,3374.74 L 2659.82,3362.18 L 2666,3350.61 L 2674.33,3340.47 L 2684.47,3332.15 L 2696.04,3325.96 L 2708.6,3322.15 L 2721.65,3320.87 L 2734.71,3322.15 L 2747.27,3325.96 L 2756.36,3330.82 L 2853.32,3234.13 L 2857.71,3231.9 L 2862.57,3231.12 L 2904.87,3231.12 L 3642.38,2493.62 L 3638.26,2485.92 L 3634.67,2474.1 L 3633.46,2461.81 L 3634.67,2449.52 L 3638.26,2437.7 L 3644.08,2426.81 L 3651.91,2417.27 L 3661.46,2409.43 L 3672.35,2403.61 L 3684.17,2400.03 L 3696.46,2398.82 L 3708.75,2400.03 L 3720.56,2403.61 L 3731.45,2409.43 L 3741,2417.27 L 3748.83,2426.81 L 3754.65,2437.7 L 3758.24,2449.52 L 3759.45,2461.81 L 3758.24,2474.1 L 3754.65,2485.92 L 3748.83,2496.81 L 3741,2506.35 L 3731.45,2514.19 L 3720.56,2520.01 L 3708.75,2523.59 L 3696.46,2524.8 L 3684.17,2523.59 L 3672.35,2520.01 L 3664.65,2515.89 L 2922.53,3258.01 L 2920.14,3259.97 L 2917.42,3261.42 L 2914.47,3262.32 L 2911.39,3262.62 L 2869.1,3262.62 L 2778.63,3353.09 L 2783.49,3362.18 L 2787.3,3374.74 L 2788.58,3387.8 L 2787.3,3400.85 L 2783.49,3413.41 L 2777.3,3424.98 L 2768.98,3435.12 L 2758.84,3443.44 L 2747.27,3449.63 L 2734.71,3453.44 L 2721.65,3454.72 L 2708.6,3453.44 L 2696.04,3449.63 L 2684.47,3443.44 L 2674.33,3435.12 L 2666,3424.98 L 2659.82,3413.41 L 2656.01,3400.85 L 2654.72,3387.8 z " style="fill-opacity:1.000000;fill:rgb(2,26,254);stroke:rgb(0,0,0);stroke-width:2"/></g>
<g fill-rule="evenodd"><path d="M 2796.57,3059.56 L 2797.33,3051.88 L 2799.57,3044.49 L 2803.21,3037.69 L 2808.11,3031.72 L 2814.07,3026.82 L 2820.2,3023.55 L 2820.2,2848.31 L 2820.5,2845.24 L 2821.4,2842.29 L 2822.85,2839.57 L 2824.81,2837.18 L 3080.71,2581.28 L 3080.71,2522.54 L 3072.35,2520.01 L 3061.46,2514.19 L 3051.91,2506.35 L 3044.08,2496.81 L 3038.26,2485.92 L 3034.67,2474.1 L 3033.46,2461.81 L 3034.67,2449.52 L 3038.26,2437.7 L 3044.08,2426.81 L 3051.91,2417.27 L 3061.46,2409.43 L 3072.35,2403.61 L 3080.71,2401.08 L 3080.71,1853.06 L 3080.9,1850.6 L 3082.15,1846.57 L 3079.73,1838.85 L 3078.98,1831.17 L 3079.73,1823.49 L 3081.97,1816.11 L 3085.61,1809.3 L 3090.51,1803.33 L 3096.47,1798.44 L 3103.28,1794.8 L 3110.67,1792.56 L 3118.35,1791.8 L 3126.03,1792.56 L 3133.41,1794.8 L 3140.22,1798.44 L 3146.19,1803.33 L 3151.08,1809.3 L 3154.72,1816.11 L 3156.96,1823.49 L 3157.72,1831.17 L 3156.96,1838.85 L 3154.72,1846.24 L 3151.08,1853.05 L 3146.19,1859.01 L 3140.22,1863.91 L 3133.41,1867.55 L 3126.03,1869.79 L 3118.35,1870.54 L 3112.2,1869.94 L 3112.2,2401.08 L 3120.56,2403.61 L 3131.45,2409.43 L 3141,2417.27 L 3148.83,2426.81 L 3154.65,2437.7 L 3158.24,2449.52 L 3159.45,2461.81 L 3158.24,2474.1 L 3154.65,2485.92 L 3148.83,2496.81 L 3141,2506.35 L 3131.45,2514.19 L 3120.56,2520.01 L 3112.2,2522.54 L 3112.2,2587.8 L 3111.9,2590.88 L 3111,2593.83 L 3109.55,2596.55 L 3107.59,2598.94 L 2851.69,2854.84 L 2851.69,3023.55 L 2857.82,3026.82 L 2863.78,3031.72 L 2868.68,3037.69 L 2872.32,3044.49 L 2874.56,3051.88 L 2875.31,3059.56 L 2874.56,3067.24 L 2872.32,3074.63 L 2868.68,3081.43 L 2863.78,3087.4 L 2857.82,3092.29 L 2851.01,3095.93 L 2843.63,3098.17 L 2835.94,3098.93 L 2828.26,3098.17 L 2820.88,3095.93 L 2814.07,3092.29 L 2808.11,3087.4 L 2803.21,3081.43 L 2799.57,3074.63 L 2797.33,3067.24 L 2796.57,3059.56 z " style="fill-opacity:1.000000;fill:rgb(67,251,250);stroke:rgb(0,0,0);stroke-width:2"/></g>
<g fill-rule="evenodd"><path d="M 2833.46,2461.81 L 2834.67,2449.52 L 2838.26,2437.7 L 2844.08,2426.81 L 2851.91,2417.27 L 2861.46,2409.43 L 2872.35,2403.61 L 2884.17,2400.03 L 2896.46,2398.82 L 2908.75,2400.03 L 2920.56,2403.61 L 2931.45,2409.43 L 2941,2417.27 L 2948.83,2426.81 L 2954.65,2437.7 L 2958.24,2449.52 L 2959.45,2461.81 L 2958.24,2474.1 L 2954.65,2485.92 L 2948.83,2496.81 L 2941,2506.35 L 2931.45,2514.19 L 2920.56,2520.01 L 2908.75,2523.59 L 2896.46,2524.8 L 2884.17,2523.59 L 2872.35,2520.01 L 2861.46,2514.19 L 2851.91,2506.35 L 2844.08,2496.81 L 2838.26,2485.92 L 2834.67,2474.1 L 2833.46,2461.81 z " style="fill-opacity:1.000000;fill:rgb(170,58,251);stroke:rgb(0,0,0);stroke-width:2"/></g>
<g fill-rule="evenodd"><path d="M 2833.46,1261.81 L 2834.67,1249.52 L 2838.26,1237.7 L 2844.08,1226.81 L 2851.91,1217.27 L 2861.46,1209.43 L 2872.35,1203.61 L 2884.17,1200.03 L 2896.46,1198.82 L 2908.75,1200.03 L 2920.56,1203.61 L 2931.45,1209.43 L 2941,1217.27 L 2948.83,1226.81 L 2954.65,1237.7 L 2958.24,1249.52 L 2959.45,1261.81 L 2958.24,1274.1 L 2954.65,1285.92 L 2948.83,1296.81 L 2941,1306.35 L 2931.45,1314.19 L 2920.56,1320.01 L 2908.75,1323.59 L 2896.46,1324.8 L 2884.17,1323.59 L 2872.35,1320.01 L 2861.46,1314.19 L 2851.91,1306.35 L 2844.08,1296.81 L 2838.26,1285.92 L 2834.67,1274.1 L 2833.46,1261.81 z " style="fill-opacity:1.000000;fill:rgb(41,209,230);stroke:rgb(0,0,0);stroke-width:2"/></g>
<g fill-rule="evenodd"><path d="M 2854.72,3387.8 L 2856.01,3374.74 L 2859.82,3362.18 L 2866,3350.61 L 2874.33,3340.47 L 2884.47,3332.15 L 2896.04,3325.96 L 2908.6,3322.15 L 2921.65,3320.87 L 2934.71,3322.15 L 2947.27,3325.96 L 2956.36,3330.82 L 3710.5,2576.68 L 3712.89,2574.72 L 3715.61,2573.26 L 3718.56,2572.37 L 3721.64,2572.06 L 3763.93,2572.06 L 3842.38,2493.62 L 3838.26,2485.92 L 3834.67,2474.1 L 3833.46,2461.81 L 3834.67,2449.52 L 3838.26,2437.7 L 3844.08,2426.81 L 3851.91,2417.27 L 3861.46,2409.43 L 3872.35,2403.61 L 3884.17,2400.03 L 3896.46,2398.82 L 3908.75,2400.03 L 3920.56,2403.61 L 3931.45,2409.43 L 3941,2417.27 L 3948.83,2426.81 L 3954.65,2437.7 L 3958.24,2449.52 L 3959.45,2461.81 L 3958.24,2474.1 L 3954.65,2485.92 L 3948.83,2496.81 L 3941,2506.35 L 3931.45,2514.19 L 3920.56,2520.01 L 3908.75,2523.59 L 3896.46,2524.8 L 3884.17,2523.59 L 3872.35,2520.01 L 3864.65,2515.89 L 3781.59,2598.95 L 3779.2,2600.9 L 3776.48,2602.36 L 3773.53,2603.26 L 3770.45,2603.56 L 3728.16,2603.56 L 2978.63,3353.09 L 2983.49,3362.18 L 2987.3,3374.74 L 2988.58,3387.8 L 2987.3,3400.85 L 2983.49,3413.41 L 2977.3,3424.98 L 2968.98,3435.12 L 2958.84,3443.44 L 2947.27,3449.63 L 2934.71,3453.44 L 2921.65,3454.72 L 2908.6,3453.44 L 2896.04,3449.63 L 2884.47,3443.44 L 2874.33,3435.12 L 2866,3424.98 L 2859.82,3413.41 L 2856.01,3400.85 L 2854.72,3387.8 z " style="fill-opacity:1.000000;fill:rgb(5,60,124);stroke:rgb(0,0,0);stroke-width:2"/></g>
<g fill-rule="evenodd"><path d="M 3033.46,1261.81 L 3034.67,1249.52 L 3038.26,1237.7 L 3044.08,1226.81 L 3051.91,1217.27 L 3061.46,1209.43 L 3072.35,1203.61 L 3084.17,1200.03 L 3096.46,1198.82 L 3108.75,1200.03 L 3120.56,1203.61 L 3131.45,1209.43 L 3141,1217.27 L 3148.83,1226.81 L 3154.65,1237.7 L 3158.24,1249.52 L 3159.45,1261.81 L 3158.24,1274.1 L 3154.65,1285.92 L 3148.83,1296.81 L 3141,1306.35 L 3131.45,1314.19 L 3120.56,1320.01 L 3108.75,1323.59 L 3096.46,1324.8 L 3084.17,1323.59 L 3072.35,1320.01 L 3061.46,1314.19 L 3051.91,1306.35 L 3044.08,1296.81 L 3038.26,1285.92 L 3034.67,1274.1 L 3033.46,1261.81 z " style="fill-opacity:1.000000;fill:rgb(148,117,216);stroke:rgb(0,0,0);stroke-width:2"/></g>
<g fill-rule="evenodd"><path d="M 3054.72,3387.8 L 3056.01,3374.74 L 3059.82,3362.18 L 3066,3350.61 L 3074.33,3340.47 L 3084.47,3332.15 L 3096.04,3325.96 L 3108.6,3322.15 L 3121.65,3320.87 L 3134.71,3322.15 L 3147.27,3325.96 L 3156.36,3330.82 L 3910.5,2576.68 L 3912.89,2574.72 L 3915.61,2573.26 L 3918.56,2572.37 L 3921.64,2572.06 L 4143.14,2572.06 L 4206.97,2508.22 L 4206.97,1520.59 L 4085.32,1398.94 L 4083.36,1396.55 L 4081.91,1393.83 L 4081.01,1390.88 L 4080.71,1387.8 L 4080.71,1322.54 L 4072.35,1320.01 L 4061.46,1314.19 L 4051.91,1306.35 L 4044.08,1296.81 L 4038.26,1285.92 L 4034.67,1274.1 L 4033.46,1261.81 L 4034.67,1249.52 L 4038.26,1237.7 L 4044.08,1226.81 L 4051.91,1217.27 L 4061.46,1209.43 L 4072.35,1203.61 L 4084.17,1200.03 L 4096.46,1198.82 L 4108.75,1200.03 L 4120.56,1203.61 L 4131.45,1209.43 L 4141,1217.27 L 4148.83,1226.81 L 4154.65,1237.7 L 4158.24,1249.52 L 4159.45,1261.81 L 4158.24,1274.1 L 4154.65,1285.92 L 4148.83,1296.81 L 4141,1306.35 L 4131.45,1314.19 L 4120.56,1320.01 L 4112.2,1322.54 L 4112.2,1381.28 L 4233.86,1502.94 L 4235.82,1505.32 L 4237.27,1508.04 L 4238.17,1511 L 4238.47,1514.07 L 4238.47,2514.75 L 4238.17,2517.82 L 4237.27,2520.77 L 4235.82,2523.5 L 4233.86,2525.88 L 4160.8,2598.95 L 4158.92,2600.55 L 4154.53,2602.79 L 4149.66,2603.56 L 3928.16,2603.56 L 3178.63,3353.09 L 3183.49,3362.18 L 3187.3,3374.74 L 3188.58,3387.8 L 3187.3,3400.85 L 3183.49,3413.41 L 3177.3,3424.98 L 3168.98,3435.12 L 3158.84,3443.44 L 3147.27,3449.63 L 3134.71,3453.44 L 3121.65,3454.72 L 3108.6,3453.44 L 3096.04,3449.63 L 3084.47,3443.44 L 3074.33,3435.12 L 3066,3424.98 L 3059.82,3413.41 L 3056.01,3400.85 L 3054.72,3387.8 z " style="fill-opacity:1.000000;fill:rgb(190,97,137);stroke:rgb(0,0,0);stroke-width:2"/></g>
<g fill-rule="evenodd"><path d="M 3233.46,2461.81 L 3234.67,2449.52 L 3238.26,2437.7 L 3244.08,2426.81 L 3251.91,2417.27 L 3261.46,2409.43 L 3272.35,2403.61 L 3284.17,2400.03 L 3296.46,2398.82 L 3308.75,2400.03 L 3320.56,2403.61 L 3331.45,2409.43 L 3341,2417.27 L 3348.83,2426.81 L 3354.65,2437.7 L 3358.24,2449.52 L 3359.45,2461.81 L 3358.24,2474.1 L 3354.65,2485.92 L 3348.83,2496.81 L 3341,2506.35 L 3331.45,2514.19 L 3320.56,2520.01 L 3308.75,2523.59 L 3296.46,2524.8 L 3284.17,2523.59 L 3272.35,2520.01 L 3261.46,2514.19 L 3251.91,2506.35 L 3244.08,2496.81 L 3238.26,2485.92 L 3234.67,2474.1 L 3233.46,2461.81 z " style="fill-opacity:1.000000;fill:rgb(249,92,187);stroke:rgb(0,0,0);stroke-width:2"/></g>
<g fill-rule="evenodd"><path d="M 3233.46,1261.81 L 3234.67,1249.52 L 3238.26,1237.7 L 3244.08,1226.81 L 3251.91,1217.27 L 3261.46,1209.43 L 3272.35,1203.61 L 3284.17,1200.03 L 3296.46,1198.82 L 3308.75,1200.03 L 3320.56,1203.61 L 3328.26,1207.73 L 3648.6,887.399 L 3650.98,885.441 L 3653.7,883.986 L 3656.66,883.089 L 3659.73,882.787 L 4245.99,882.787 L 4249.06,883.089 L 4252.02,883.986 L 4254.74,885.441 L 4257.12,887.399 L 4549.86,1180.13 L 4552.75,1184.12 L 4554.28,1188.8 L 4554.47,2644.2 L 4554.17,2647.27 L 4553.27,2650.22 L 4551.82,2652.95 L 4549.86,2655.33 L 3937.4,3267.8 L 3937.4,3322.97 L 3947.27,3325.96 L 3958.84,3332.15 L 3968.98,3340.47 L 3977.3,3350.61 L 3983.49,3362.18 L 3987.3,3374.74 L 3988.58,3387.8 L 3987.3,3400.85 L 3983.49,3413.41 L 3977.3,3424.98 L 3968.98,3435.12 L 3958.84,3443.44 L 3947.27,3449.63 L 3934.71,3453.44 L 3921.65,3454.72 L 3908.6,3453.44 L 3896.04,3449.63 L 3884.47,3443.44 L 3874.33,3435.12 L 3866,3424.98 L 3859.82,3413.41 L 3856.01,3400.85 L 3854.72,3387.8 L 3856.01,3374.74 L 3859.82,3362.18 L 3866,3350.61 L 3874.33,3340.47 L 3884.47,3332.15 L 3896.04,3325.96 L 3905.9,3322.97 L 3905.9,3257.86 L 3906.21,3254.79 L 3907.1,3251.84 L 3908.56,3249.12 L 3910.52,3246.73 L 3912.9,3244.77 L 3915.63,3243.32 L 3918.09,3242.57 L 4522.97,2637.67 L 4522.97,1197.79 L 4239.47,914.283 L 3666.25,914.283 L 3350.54,1230 L 3354.65,1237.7 L 3358.24,1249.52 L 3359.45,1261.81 L 3358.24,1274.1 L 3354.65,1285.92 L 3348.83,1296.81 L 3341,1306.35 L 3331.45,1314.19 L 3320.56,1320.01 L 3308.75,1323.59 L 3296.46,1324.8 L 3284.17,1323.59 L 3272.35,1320.01 L 3261.46,1314.19 L 3251.91,1306.35 L 3244.08,1296.81 L 3238.26,1285.92 L 3234.67,1274.1 L 3233.46,1261.81 z " style="fill-opacity:1.000000;fill:rgb(168,153,15);stroke:rgb(0,0,0);stroke-width:2"/></g>
<g fill-rule="evenodd"><path d="M 3254.72,3387.8 L 3256.01,3374.74 L 3259.82,3362.18 L 3266,3350.61 L 3274.33,3340.47 L 3284.47,3332.15 L 3296.04,3325.96 L 3308.6,3322.15 L 3321.65,3320.87 L 3324.22,3321.12 L 3927.36,2717.98 L 3929.75,2716.02 L 3932.47,2714.57 L 3935.42,2713.67 L 3938.49,2713.37 L 4113.19,2713.37 L 4286.73,2539.83 L 4286.73,1295.63 L 4141.63,1150.53 L 4030.01,1150.53 L 3950.54,1230 L 3954.65,1237.7 L 3958.24,1249.52 L 3959.45,1261.81 L 3958.24,1274.1 L 3954.65,1285.92 L 3948.83,1296.81 L 3941,1306.35 L 3931.45,1314.19 L 3920.56,1320.01 L 3908.75,1323.59 L 3896.46,1324.8 L 3884.17,1323.59 L 3872.35,1320.01 L 3861.46,1314.19 L 3851.91,1306.35 L 3844.08,1296.81 L 3838.26,1285.92 L 3834.67,1274.1 L 3833.46,1261.81 L 3834.67,1249.52 L 3838.26,1237.7 L 3844.08,1226.81 L 3851.91,1217.27 L 3861.46,1209.43 L 3872.35,1203.61 L 3884.17,1200.03 L 3896.46,1198.82 L 3908.75,1200.03 L 3920.56,1203.61 L 3928.26,1207.73 L 4012.35,1123.64 L 4014.74,1121.68 L 4017.46,1120.23 L 4020.41,1119.33 L 4023.49,1119.03 L 4148.15,1119.03 L 4151.22,1119.33 L 4154.18,1120.23 L 4156.9,1121.68 L 4159.28,1123.64 L 4313.61,1277.97 L 4315.57,1280.36 L 4317.03,1283.08 L 4317.92,1286.04 L 4318.23,1289.11 L 4318.23,2546.35 L 4317.92,2549.43 L 4317.03,2552.38 L 4315.57,2555.1 L 4313.61,2557.49 L 4130.85,2740.25 L 4128.46,2742.21 L 4125.74,2743.67 L 4122.79,2744.56 L 4119.71,2744.86 L 3945.02,2744.86 L 3358.12,3331.76 L 3368.98,3340.47 L 3377.3,3350.61 L 3383.49,3362.18 L 3387.3,3374.74 L 3388.58,3387.8 L 3387.3,3400.85 L 3383.49,3413.41 L 3377.3,3424.98 L 3368.98,3435.12 L 3358.84,3443.44 L 3347.27,3449.63 L 3334.71,3453.44 L 3321.65,3454.72 L 3308.6,3453.44 L 3296.04,3449.63 L 3284.47,3443.44 L 3274.33,3435.12 L 3266,3424.98 L 3259.82,3413.41 L 3256.01,3400.85 L 3254.72,3387.8 z " style="fill-opacity:1.000000;fill:rgb(149,177,235);stroke:rgb(0,0,0);stroke-width:2"/></g>
<g fill-rule="evenodd"><path d="M 3433.46,1261.81 L 3434.67,1249.52 L 3438.26,1237.7 L 3444.08,1226.81 L 3451.91,1217.27 L 3461.46,1209.43 L 3472.35,1203.61 L 3484.17,1200.03 L 3496.46,1198.82 L 3508.75,1200.03 L 3520.56,1203.61 L 3528.26,1207.73 L 3769.85,966.147 L 3772.23,964.189 L 3774.96,962.734 L 3777.91,961.837 L 3780.98,961.535 L 4215.84,961.729 L 4220.53,963.251 L 4224.51,966.147 L 4471.11,1212.75 L 4473.07,1215.13 L 4474.52,1217.85 L 4475.42,1220.81 L 4475.72,1223.88 L 4475.72,2611.58 L 4475.42,2614.65 L 4474.52,2617.61 L 4473.07,2620.33 L 4471.11,2622.72 L 4168.23,2925.6 L 4164.24,2928.49 L 4161.96,2929.44 L 4157.09,2930.21 L 4071.58,2930.21 L 3737.4,3264.39 L 3737.4,3322.97 L 3747.27,3325.96 L 3758.84,3332.15 L 3768.98,3340.47 L 3777.3,3350.61 L 3783.49,3362.18 L 3787.3,3374.74 L 3788.58,3387.8 L 3787.3,3400.85 L 3783.49,3413.41 L 3777.3,3424.98 L 3768.98,3435.12 L 3758.84,3443.44 L 3747.27,3449.63 L 3734.71,3453.44 L 3721.65,3454.72 L 3708.6,3453.44 L 3696.04,3449.63 L 3684.47,3443.44 L 3674.33,3435.12 L 3666,3424.98 L 3659.82,3413.41 L 3656.01,3400.85 L 3654.72,3387.8 L 3656.01,3374.74 L 3659.82,3362.18 L 3666,3350.61 L 3674.33,3340.47 L 3684.47,3332.15 L 3696.04,3325.96 L 3705.9,3322.97 L 3705.9,3257.86 L 3706.21,3254.79 L 3707.1,3251.84 L 3708.56,3249.12 L 3710.52,3246.73 L 4053.92,2903.33 L 4056.31,2901.37 L 4059.03,2899.91 L 4061.98,2899.02 L 4065.05,2898.71 L 4150.57,2898.71 L 4444.23,2605.06 L 4444.23,1230.4 L 4206.85,993.031 L 3787.51,993.031 L 3550.54,1230 L 3554.65,1237.7 L 3558.24,1249.52 L 3559.45,1261.81 L 3558.24,1274.1 L 3554.65,1285.92 L 3548.83,1296.81 L 3541,1306.35 L 3531.45,1314.19 L 3520.56,1320.01 L 3508.75,1323.59 L 3496.46,1324.8 L 3484.17,1323.59 L 3472.35,1320.01 L 3461.46,1314.19 L 3451.91,1306.35 L 3444.08,1296.81 L 3438.26,1285.92 L 3434.67,1274.1 L 3433.46,1261.81 z " style="fill-opacity:1.000000;fill:rgb(241,179,5);stroke:rgb(0,0,0);stroke-width:2"/></g>
<g fill-rule="evenodd"><path d="M 3454.72,3387.8 L 3456.01,3374.74 L 3459.82,3362.18 L 3466,3350.61 L 3474.33,3340.47 L 3484.47,3332.15 L 3496.04,3325.96 L 3505.9,3322.97 L 3505.9,3257.86 L 3506.21,3254.79 L 3507.1,3251.84 L 3508.56,3249.12 L 3510.52,3246.73 L 3932.67,2824.58 L 3935.05,2822.62 L 3937.78,2821.17 L 3940.73,2820.27 L 3943.8,2819.97 L 4117.96,2819.97 L 4365.48,2572.44 L 4365.48,1263.02 L 4174.24,1071.78 L 3908.76,1071.78 L 3750.54,1230 L 3754.65,1237.7 L 3758.24,1249.52 L 3759.45,1261.81 L 3758.24,1274.1 L 3754.65,1285.92 L 3748.83,1296.81 L 3741,1306.35 L 3731.45,1314.19 L 3720.56,1320.01 L 3708.75,1323.59 L 3696.46,1324.8 L 3684.17,1323.59 L 3672.35,1320.01 L 3661.46,1314.19 L 3651.91,1306.35 L 3644.08,1296.81 L 3638.26,1285.92 L 3634.67,1274.1 L 3633.46,1261.81 L 3634.67,1249.52 L 3638.26,1237.7 L 3644.08,1226.81 L 3651.91,1217.27 L 3661.46,1209.43 L 3672.35,1203.61 L 3684.17,1200.03 L 3696.46,1198.82 L 3708.75,1200.03 L 3720.56,1203.61 L 3728.26,1207.73 L 3891.1,1044.9 L 3893.49,1042.94 L 3896.21,1041.48 L 3899.16,1040.59 L 3902.23,1040.28 L 4180.76,1040.28 L 4185.63,1041.05 L 4187.91,1042 L 4191.9,1044.9 L 4392.36,1245.36 L 4394.32,1247.75 L 4395.78,1250.47 L 4396.67,1253.42 L 4396.97,1256.49 L 4396.97,2578.97 L 4396.67,2582.04 L 4395.78,2584.99 L 4394.32,2587.72 L 4392.36,2590.1 L 4135.61,2846.85 L 4133.23,2848.81 L 4130.51,2850.26 L 4127.55,2851.16 L 4124.48,2851.46 L 3950.33,2851.46 L 3537.4,3264.39 L 3537.4,3322.97 L 3547.27,3325.96 L 3558.84,3332.15 L 3568.98,3340.47 L 3577.3,3350.61 L 3583.49,3362.18 L 3587.3,3374.74 L 3588.58,3387.8 L 3587.3,3400.85 L 3583.49,3413.41 L 3577.3,3424.98 L 3568.98,3435.12 L 3558.84,3443.44 L 3547.27,3449.63 L 3534.71,3453.44 L 3521.65,3454.72 L 3508.6,3453.44 L 3496.04,3449.63 L 3484.47,3443.44 L 3474.33,3435.12 L 3466,3424.98 L 3459.82,3413.41 L 3456.01,3400.85 L 3454.72,3387.8 z " style="fill-opacity:1.000000;fill:rgb(239,247,0);stroke:rgb(0,0,0);stroke-width:2"/></g>
<g fill-rule="evenodd"><path d="M 4054.72,3387.8 L 4056.01,3374.74 L 4059.82,3362.18 L 4066,3350.61 L 4074.33,3340.47 L 4084.47,3332.15 L 4096.04,3325.96 L 4105.9,3322.97 L 4105.9,3206.04 L 4106.21,3202.97 L 4107.1,3200.01 L 4108.56,3197.29 L 4110.52,3194.9 L 4507.9,2797.52 L 4505.88,2790.88 L 4505.13,2783.2 L 4505.88,2775.52 L 4508.12,2768.13 L 4511.76,2761.32 L 4516.66,2755.36 L 4522.62,2750.46 L 4529.43,2746.82 L 4536.82,2744.58 L 4544.5,2743.83 L 4552.18,2744.58 L 4559.56,2746.82 L 4566.37,2750.46 L 4572.33,2755.36 L 4577.23,2761.32 L 4580.87,2768.13 L 4583.11,2775.52 L 4583.87,2783.2 L 4583.11,2790.88 L 4580.87,2798.26 L 4577.23,2805.07 L 4572.33,2811.04 L 4566.37,2815.93 L 4559.56,2819.57 L 4552.18,2821.81 L 4544.5,2822.57 L 4536.82,2821.81 L 4530.17,2819.79 L 4137.4,3212.56 L 4137.4,3322.97 L 4147.27,3325.96 L 4158.84,3332.15 L 4168.98,3340.47 L 4177.3,3350.61 L 4183.49,3362.18 L 4187.3,3374.74 L 4188.58,3387.8 L 4187.3,3400.85 L 4183.49,3413.41 L 4177.3,3424.98 L 4168.98,3435.12 L 4158.84,3443.44 L 4147.27,3449.63 L 4134.71,3453.44 L 4121.65,3454.72 L 4108.6,3453.44 L 4096.04,3449.63 L 4084.47,3443.44 L 4074.33,3435.12 L 4066,3424.98 L 4059.82,3413.41 L 4056.01,3400.85 L 4054.72,3387.8 z " style="fill-opacity:1.000000;fill:rgb(233,161,58);stroke:rgb(0,0,0);stroke-width:2"/></g>
<g fill-rule="evenodd"><path d="M 4254.72,3387.8 L 4256.01,3374.74 L 4259.82,3362.18 L 4266,3350.61 L 4274.33,3340.47 L 4284.47,3332.15 L 4296.04,3325.96 L 4308.6,3322.15 L 4321.65,3320.87 L 4334.71,3322.15 L 4347.27,3325.96 L 4358.84,3332.15 L 4368.98,3340.47 L 4377.3,3350.61 L 4383.49,3362.18 L 4387.3,3374.74 L 4388.58,3387.8 L 4387.3,3400.85 L 4383.49,3413.41 L 4377.3,3424.98 L 4368.98,3435.12 L 4358.84,3443.44 L 4347.27,3449.63 L 4334.71,3453.44 L 4321.65,3454.72 L 4308.6,3453.44 L 4296.04,3449.63 L 4284.47,3443.44 L 4274.33,3435.12 L 4266,3424.98 L 4259.82,3413.41 L 4256.01,3400.85 L 4254.72,3387.8 z " style="fill-opacity:1.000000;fill:rgb(229,202,11);stroke:rgb(0,0,0);stroke-width:2"/></g>
<g fill-rule="evenodd"><path d="M 4454.72,3387.8 L 4456.01,3374.74 L 4459.82,3362.18 L 4466,3350.61 L 4474.33,3340.47 L 4484.47,3332.15 L 4496.04,3325.96 L 4505.9,3322.97 L 4505.9,3257.86 L 4506.21,3254.79 L 4507.1,3251.84 L 4508.56,3249.12 L 4510.52,3246.73 L 4631.12,3126.13 L 4631.12,2368.76 L 4623.22,2364.79 L 4617.26,2359.89 L 4612.36,2353.93 L 4608.72,2347.12 L 4606.48,2339.74 L 4605.72,2332.06 L 4606.48,2324.37 L 4608.5,2317.73 L 4605.05,2313.86 L 4603.6,2311.14 L 4602.7,2308.18 L 4602.4,2305.11 L 4602.4,1631.45 L 4602.7,1628.38 L 4603.6,1625.42 L 4605.05,1622.7 L 4607.01,1620.31 L 5093.49,1134.11 L 5097.88,1131.87 L 5102.75,1131.1 L 5168.01,1131.1 L 5170.54,1122.74 L 5176.36,1111.85 L 5184.2,1102.31 L 5193.74,1094.47 L 5204.63,1088.65 L 5216.45,1085.07 L 5228.74,1083.86 L 5241.03,1085.07 L 5252.85,1088.65 L 5263.74,1094.47 L 5273.28,1102.31 L 5281.12,1111.85 L 5286.94,1122.74 L 5290.52,1134.56 L 5291.73,1146.85 L 5290.52,1159.14 L 5286.94,1170.96 L 5281.12,1181.85 L 5273.28,1191.39 L 5263.74,1199.23 L 5252.85,1205.05 L 5241.03,1208.63 L 5228.74,1209.84 L 5216.45,1208.63 L 5204.63,1205.05 L 5193.74,1199.23 L 5184.2,1191.39 L 5176.36,1181.85 L 5170.54,1170.96 L 5168.01,1162.6 L 5109.27,1162.6 L 4633.9,1637.97 L 4633.9,2294.51 L 4637.41,2293.44 L 4645.09,2292.69 L 4652.78,2293.44 L 4660.16,2295.68 L 4666.97,2299.32 L 4672.93,2304.22 L 4677.83,2310.18 L 4681.47,2316.99 L 4683.71,2324.37 L 4684.46,2332.06 L 4683.71,2339.74 L 4681.47,2347.12 L 4677.83,2353.93 L 4672.93,2359.89 L 4666.97,2364.79 L 4662.61,2367.12 L 4662.61,3132.65 L 4662.31,3135.73 L 4661.41,3138.68 L 4659.96,3141.4 L 4658,3143.79 L 4537.4,3264.39 L 4537.4,3322.97 L 4547.27,3325.96 L 4558.84,3332.15 L 4568.98,3340.47 L 4577.3,3350.61 L 4583.49,3362.18 L 4587.3,3374.74 L 4588.58,3387.8 L 4587.3,3400.85 L 4583.49,3413.41 L 4577.3,3424.98 L 4568.98,3435.12 L 4558.84,3443.44 L 4547.27,3449.63 L 4534.71,3453.44 L 4521.65,3454.72 L 4508.6,3453.44 L 4496.04,3449.63 L 4484.47,3443.44 L 4474.33,3435.12 L 4466,3424.98 L 4459.82,3413.41 L 4456.01,3400.85 L 4454.72,3387.8 z " style="fill-opacity:1.000000;fill:rgb(203,208,72);stroke:rgb(0,0,0);stroke-width:2"/></g>
<g fill-rule="evenodd"><path d="M 4654.72,3387.8 L 4656.01,3374.74 L 4659.82,3362.18 L 4666,3350.61 L 4674.33,3340.47 L 4684.47,3332.15 L 4696.04,3325.96 L 4705.9,3322.97 L 4705.9,3257.86 L 4706.21,3254.79 L 4707.1,3251.84 L 4708.56,3249.12 L 4710.52,3246.73 L 4731.86,3225.38 L 4731.86,2254.06 L 4728.21,2255.17 L 4720.53,2255.93 L 4712.85,2255.17 L 4705.46,2252.93 L 4698.65,2249.29 L 4692.69,2244.4 L 4687.79,2238.43 L 4684.15,2231.63 L 4681.91,2224.24 L 4681.16,2216.56 L 4681.91,2208.88 L 4684.15,2201.49 L 4687.79,2194.69 L 4692.69,2188.72 L 4698.65,2183.82 L 4704.78,2180.55 L 4704.78,1729.07 L 4705.08,1726 L 4705.98,1723.04 L 4707.43,1720.32 L 4709.39,1717.94 L 5093.49,1334.11 L 5097.88,1331.87 L 5102.75,1331.1 L 5168.01,1331.1 L 5170.54,1322.74 L 5176.36,1311.85 L 5184.2,1302.31 L 5193.74,1294.47 L 5204.63,1288.65 L 5216.45,1285.07 L 5228.74,1283.86 L 5241.03,1285.07 L 5252.85,1288.65 L 5263.74,1294.47 L 5273.28,1302.31 L 5281.12,1311.85 L 5286.94,1322.74 L 5290.52,1334.56 L 5291.73,1346.85 L 5290.52,1359.14 L 5286.94,1370.96 L 5281.12,1381.85 L 5273.28,1391.39 L 5263.74,1399.23 L 5252.85,1405.05 L 5241.03,1408.63 L 5228.74,1409.84 L 5216.45,1408.63 L 5204.63,1405.05 L 5193.74,1399.23 L 5184.2,1391.39 L 5176.36,1381.85 L 5170.54,1370.96 L 5168.01,1362.6 L 5109.27,1362.6 L 4736.27,1735.59 L 4736.27,2180.55 L 4742.4,2183.82 L 4748.37,2188.72 L 4753.26,2194.69 L 4756.9,2201.49 L 4759.14,2208.88 L 4759.9,2216.56 L 4759.14,2224.24 L 4757.13,2230.89 L 4760.71,2234.9 L 4762.16,2237.62 L 4763.06,2240.57 L 4763.36,2243.64 L 4763.36,3231.9 L 4763.06,3234.98 L 4762.16,3237.93 L 4760.71,3240.65 L 4758.75,3243.04 L 4737.4,3264.39 L 4737.4,3322.97 L 4747.27,3325.96 L 4758.84,3332.15 L 4768.98,3340.47 L 4777.3,3350.61 L 4783.49,3362.18 L 4787.3,3374.74 L 4788.58,3387.8 L 4787.3,3400.85 L 4783.49,3413.41 L 4777.3,3424.98 L 4768.98,3435.12 L 4758.84,3443.44 L 4747.27,3449.63 L 4734.71,3453.44 L 4721.65,3454.72 L 4708.6,3453.44 L 4696.04,3449.63 L 4684.47,3443.44 L 4674.33,3435.12 L 4666,3424.98 L 4659.82,3413.41 L 4656.01,3400.85 L 4654.72,3387.8 z " style="fill-opacity:1.000000;fill:rgb(71,100,189);stroke:rgb(0,0,0);stroke-width:2"/></g>
<g fill-rule="evenodd"><path d="M 4810.76,3162.72 L 4810.76,1949.08 L 4811.07,1946 L 4811.96,1943.05 L 4813.42,1940.33 L 4815.38,1937.94 L 5174.66,1578.66 L 5170.54,1570.96 L 5166.96,1559.14 L 5165.75,1546.85 L 5166.96,1534.56 L 5170.54,1522.74 L 5176.36,1511.85 L 5184.2,1502.31 L 5193.74,1494.47 L 5204.63,1488.65 L 5216.45,1485.07 L 5228.74,1483.86 L 5241.03,1485.07 L 5252.85,1488.65 L 5263.74,1494.47 L 5273.28,1502.31 L 5281.12,1511.85 L 5286.94,1522.74 L 5290.52,1534.56 L 5291.73,1546.85 L 5290.52,1559.14 L 5286.94,1570.96 L 5281.12,1581.85 L 5273.28,1591.39 L 5263.74,1599.23 L 5252.85,1605.05 L 5241.03,1608.63 L 5228.74,1609.84 L 5216.45,1608.63 L 5204.63,1605.05 L 5196.93,1600.93 L 4842.26,1955.6 L 4842.26,3156.2 L 4932.79,3246.73 L 4934.75,3249.12 L 4936.2,3251.84 L 4937.1,3254.79 L 4937.4,3257.86 L 4937.4,3322.97 L 4947.27,3325.96 L 4958.84,3332.15 L 4968.98,3340.47 L 4977.3,3350.61 L 4983.49,3362.18 L 4987.3,3374.74 L 4988.58,3387.8 L 4987.3,3400.85 L 4983.49,3413.41 L 4977.3,3424.98 L 4968.98,3435.12 L 4958.84,3443.44 L 4947.27,3449.63 L 4934.71,3453.44 L 4921.65,3454.72 L 4908.6,3453.44 L 4896.04,3449.63 L 4884.47,3443.44 L 4874.33,3435.12 L 4866,3424.98 L 4859.82,3413.41 L 4856.01,3400.85 L 4854.72,3387.8 L 4856.01,3374.74 L 4859.82,3362.18 L 4866,3350.61 L 4874.33,3340.47 L 4884.47,3332.15 L 4896.04,3325.96 L 4905.9,3322.97 L 4905.9,3264.39 L 4815.38,3173.86 L 4813.42,3171.47 L 4811.96,3168.75 L 4811.07,3165.8 L 4810.76,3162.72 z " style="fill-opacity:1.000000;fill:rgb(31,35,30);stroke:rgb(0,0,0);stroke-width:2"/></g>
<g fill-rule="evenodd"><path d="M 4891.19,2206.65 L 4891.95,2198.97 L 4894.19,2191.59 L 4897.82,2184.78 L 4902.72,2178.81 L 4908.69,2173.92 L 4915.49,2170.28 L 4921.83,2168.36 L 4921.83,2038.01 L 4922.14,2034.93 L 4923.03,2031.98 L 4924.49,2029.26 L 4926.45,2026.87 L 5174.66,1778.66 L 5170.54,1770.96 L 5166.96,1759.14 L 5165.75,1746.85 L 5166.96,1734.56 L 5170.54,1722.74 L 5176.36,1711.85 L 5184.2,1702.31 L 5193.74,1694.47 L 5204.63,1688.65 L 5216.45,1685.07 L 5228.74,1683.86 L 5241.03,1685.07 L 5252.85,1688.65 L 5263.74,1694.47 L 5273.28,1702.31 L 5281.12,1711.85 L 5286.94,1722.74 L 5290.52,1734.56 L 5291.73,1746.85 L 5290.52,1759.14 L 5286.94,1770.96 L 5281.12,1781.85 L 5273.28,1791.39 L 5263.74,1799.23 L 5252.85,1805.05 L 5241.03,1808.63 L 5228.74,1809.84 L 5216.45,1808.63 L 5204.63,1805.05 L 5196.93,1800.93 L 4953.33,2044.53 L 4953.33,2174.66 L 4958.4,2178.81 L 4963.29,2184.78 L 4966.93,2191.59 L 4969.17,2198.97 L 4969.93,2206.65 L 4969.17,2214.33 L 4966.93,2221.72 L 4963.29,2228.53 L 4958.4,2234.49 L 4953.33,2238.65 L 4953.33,3067.27 L 5132.79,3246.73 L 5135.68,3250.72 L 5136.63,3253 L 5137.4,3257.86 L 5137.4,3322.97 L 5147.27,3325.96 L 5158.84,3332.15 L 5168.98,3340.47 L 5177.3,3350.61 L 5183.49,3362.18 L 5187.3,3374.74 L 5188.58,3387.8 L 5187.3,3400.85 L 5183.49,3413.41 L 5177.3,3424.98 L 5168.98,3435.12 L 5158.84,3443.44 L 5147.27,3449.63 L 5134.71,3453.44 L 5121.65,3454.72 L 5108.6,3453.44 L 5096.04,3449.63 L 5084.47,3443.44 L 5074.33,3435.12 L 5066,3424.98 L 5059.82,3413.41 L 5056.01,3400.85 L 5054.72,3387.8 L 5056.01,3374.74 L 5059.82,3362.18 L 5066,3350.61 L 5074.33,3340.47 L 5084.47,3332.15 L 5096.04,3325.96 L 5105.9,3322.97 L 5105.9,3264.39 L 4926.45,3084.93 L 4923.55,3080.94 L 4922.03,3076.26 L 4921.83,2244.95 L 4915.49,2243.03 L 4908.69,2239.39 L 4902.72,2234.49 L 4897.82,2228.53 L 4894.19,2221.72 L 4891.95,2214.33 L 4891.19,2206.65 z " style="fill-opacity:1.000000;fill:rgb(168,28,123);stroke:rgb(0,0,0);stroke-width:2"/></g>
<g fill-rule="evenodd"><path d="M 5005.11,2946.45 L 5005.11,2262.59 L 5005.88,2257.72 L 5008.12,2253.33 L 5017.18,2244 L 5017.18,2142.66 L 5017.48,2139.59 L 5018.38,2136.63 L 5019.83,2133.91 L 5021.79,2131.53 L 5174.66,1978.66 L 5170.54,1970.96 L 5166.96,1959.14 L 5165.75,1946.85 L 5166.96,1934.56 L 5170.54,1922.74 L 5176.36,1911.85 L 5184.2,1902.31 L 5193.74,1894.47 L 5204.63,1888.65 L 5216.45,1885.07 L 5228.74,1883.86 L 5241.03,1885.07 L 5252.85,1888.65 L 5263.74,1894.47 L 5273.28,1902.31 L 5281.12,1911.85 L 5286.94,1922.74 L 5290.52,1934.56 L 5291.73,1946.85 L 5290.52,1959.14 L 5286.94,1970.96 L 5281.12,1981.85 L 5273.28,1991.39 L 5263.74,1999.23 L 5252.85,2005.05 L 5241.03,2008.63 L 5228.74,2009.84 L 5216.45,2008.63 L 5204.63,2005.05 L 5196.93,2000.93 L 5048.68,2149.18 L 5048.48,2252.98 L 5047.91,2255.39 L 5045.67,2259.78 L 5036.6,2269.11 L 5036.6,2939.93 L 5332.79,3236.12 L 5334.75,3238.5 L 5336.2,3241.22 L 5337.1,3244.18 L 5337.4,3247.25 L 5337.4,3322.97 L 5347.27,3325.96 L 5358.84,3332.15 L 5368.98,3340.47 L 5377.3,3350.61 L 5383.49,3362.18 L 5387.3,3374.74 L 5388.58,3387.8 L 5387.3,3400.85 L 5383.49,3413.41 L 5377.3,3424.98 L 5368.98,3435.12 L 5358.84,3443.44 L 5347.27,3449.63 L 5334.71,3453.44 L 5321.65,3454.72 L 5308.6,3453.44 L 5296.04,3449.63 L 5284.47,3443.44 L 5274.33,3435.12 L 5266,3424.98 L 5259.82,3413.41 L 5256.01,3400.85 L 5254.72,3387.8 L 5256.01,3374.74 L 5259.82,3362.18 L 5266,3350.61 L 5274.33,3340.47 L 5284.47,3332.15 L 5296.04,3325.96 L 5305.9,3322.97 L 5305.9,3253.77 L 5009.72,2957.59 L 5007.76,2955.2 L 5006.31,2952.48 L 5005.41,2949.53 L 5005.11,2946.45 z " style="fill-opacity:1.000000;fill:rgb(100,197,20);stroke:rgb(0,0,0);stroke-width:2"/></g>
<g fill-rule="evenodd"><path d="M 5085.43,2398.97 L 5085.43,2293.63 L 5085.74,2290.56 L 5086.63,2287.6 L 5088.09,2284.88 L 5090.05,2282.49 L 5182.82,2189.72 L 5176.36,2181.85 L 5170.54,2170.96 L 5166.96,2159.14 L 5165.75,2146.85 L 5166.96,2134.56 L 5170.54,2122.74 L 5176.36,2111.85 L 5184.2,2102.31 L 5193.74,2094.47 L 5204.63,2088.65 L 5216.45,2085.07 L 5228.74,2083.86 L 5241.03,2085.07 L 5252.85,2088.65 L 5263.74,2094.47 L 5273.28,2102.31 L 5281.12,2111.85 L 5286.94,2122.74 L 5290.52,2134.56 L 5291.73,2146.85 L 5290.52,2159.14 L 5286.94,2170.96 L 5281.12,2181.85 L 5273.28,2191.39 L 5263.74,2199.23 L 5252.85,2205.05 L 5241.03,2208.63 L 5228.74,2209.84 L 5216.45,2208.63 L 5210.31,2206.77 L 5116.93,2300.15 L 5116.93,2392.45 L 5532.79,2808.31 L 5534.75,2810.7 L 5536.2,2813.42 L 5537.1,2816.38 L 5537.4,2819.45 L 5537.4,3322.97 L 5547.27,3325.96 L 5558.84,3332.15 L 5568.98,3340.47 L 5577.3,3350.61 L 5583.49,3362.18 L 5587.3,3374.74 L 5588.58,3387.8 L 5587.3,3400.85 L 5583.49,3413.41 L 5577.3,3424.98 L 5568.98,3435.12 L 5558.84,3443.44 L 5547.27,3449.63 L 5534.71,3453.44 L 5521.65,3454.72 L 5508.6,3453.44 L 5496.04,3449.63 L 5484.47,3443.44 L 5474.33,3435.12 L 5466,3424.98 L 5459.82,3413.41 L 5456.01,3400.85 L 5454.72,3387.8 L 5456.01,3374.74 L 5459.82,3362.18 L 5466,3350.61 L 5474.33,3340.47 L 5484.47,3332.15 L 5496.04,3325.96 L 5505.9,3322.97 L 5505.9,2825.97 L 5090.05,2410.11 L 5088.09,2407.72 L 5086.63,2405 L 5085.74,2402.05 L 5085.43,2398.97 z " style="fill-opacity:1.000000;fill:rgb(115,90,197);stroke:rgb(0,0,0);stroke-width:2"/></g>
<g fill-rule="evenodd"><path d="M 5165.75,2346.85 L 5166.96,2334.56 L 5170.54,2322.74 L 5176.36,2311.85 L 5184.2,2302.31 L 5193.74,2294.47 L 5204.63,2288.65 L 5216.45,2285.07 L 5228.74,2283.86 L 5241.03,2285.07 L 5252.85,2288.65 L 5263.74,2294.47 L 5273.28,2302.31 L 5281.12,2311.85 L 5286.94,2322.74 L 5289.47,2331.1 L 5354.73,2331.1 L 5359.6,2331.87 L 5361.88,2332.82 L 5365.87,2335.71 L 5569.15,2539 L 6226.91,2539 L 6430.19,2335.71 L 6434.18,2332.82 L 6436.46,2331.87 L 6441.33,2331.1 L 6506.59,2331.1 L 6509.13,2322.74 L 6514.95,2311.85 L 6522.78,2302.31 L 6532.33,2294.47 L 6543.22,2288.65 L 6555.03,2285.07 L 6567.32,2283.86 L 6579.61,2285.07 L 6591.43,2288.65 L 6602.32,2294.47 L 6611.86,2302.31 L 6619.7,2311.85 L 6625.52,2322.74 L 6629.1,2334.56 L 6630.31,2346.85 L 6629.1,2359.14 L 6625.52,2370.96 L 6619.7,2381.85 L 6611.86,2391.39 L 6602.32,2399.23 L 6591.43,2405.05 L 6579.61,2408.63 L 6567.32,2409.84 L 6555.03,2408.63 L 6543.22,2405.05 L 6532.33,2399.23 L 6522.78,2391.39 L 6514.95,2381.85 L 6509.13,2370.96 L 6506.59,2362.6 L 6447.85,2362.6 L 6244.57,2565.88 L 6240.58,2568.78 L 6238.3,2569.72 L 6233.43,2570.49 L 5560.17,2570.3 L 5555.48,2568.78 L 5551.49,2565.88 L 5348.21,2362.6 L 5289.47,2362.6 L 5286.94,2370.96 L 5281.12,2381.85 L 5273.28,2391.39 L 5263.74,2399.23 L 5252.85,2405.05 L 5241.03,2408.63 L 5228.74,2409.84 L 5216.45,2408.63 L 5204.63,2405.05 L 5193.74,2399.23 L 5184.2,2391.39 L 5176.36,2381.85 L 5170.54,2370.96 L 5166.96,2359.14 L 5165.75,2346.85 z " style="fill-opacity:1.000000;fill:rgb(94,75,121);stroke:rgb(0,0,0);stroke-width:2"/></g>
<g fill-rule="evenodd"><path d="M 5165.75,1009.84 L 5165.75,883.858 L 5291.73,883.858 L 5291.73,1009.84 L 5165.75,1009.84 z " style="fill-opacity:1.000000;fill:rgb(99,59,112);stroke:rgb(0,0,0);stroke-width:2"/></g>
<g fill-rule="evenodd"><path d="M 5548.23,1037.37 L 5548.98,1029.69 L 5551.23,1022.3 L 5554.86,1015.5 L 5559.76,1009.53 L 5565.73,1004.64 L 5572.53,1001 L 5579.92,998.756 L 5587.6,998 L 5595.28,998.756 L 5602.66,1001 L 5609.47,1004.64 L 5615.44,1009.53 L 5620.33,1015.5 L 5623.97,1022.3 L 5626.21,1029.69 L 5626.97,1037.37 L 5626.21,1045.05 L 5623.97,1052.44 L 5620.33,1059.24 L 5615.44,1065.21 L 5609.47,1070.11 L 5603.34,1073.38 L 5603.34,1899.18 L 5796.93,2092.77 L 5804.63,2088.65 L 5816.45,2085.07 L 5828.74,2083.86 L 5841.03,2085.07 L 5852.85,2088.65 L 5863.74,2094.47 L 5873.28,2102.31 L 5881.12,2111.85 L 5886.94,2122.74 L 5890.52,2134.56 L 5891.73,2146.85 L 5890.52,2159.14 L 5886.94,2170.96 L 5881.12,2181.85 L 5873.28,2191.39 L 5863.74,2199.23 L 5852.85,2205.05 L 5841.03,2208.63 L 5828.74,2209.84 L 5816.45,2208.63 L 5804.63,2205.05 L 5793.74,2199.23 L 5784.2,2191.39 L 5776.36,2181.85 L 5770.54,2170.96 L 5766.96,2159.14 L 5765.75,2146.85 L 5766.96,2134.56 L 5770.54,2122.74 L 5774.66,2115.04 L 5576.46,1916.84 L 5574.5,1914.46 L 5573.05,1911.73 L 5572.15,1908.78 L 5571.85,1905.71 L 5571.85,1073.38 L 5565.73,1070.11 L 5559.76,1065.21 L 5554.86,1059.24 L 5551.23,1052.44 L 5548.98,1045.05 L 5548.23,1037.37 z " style="fill-opacity:1.000000;fill:rgb(100,36,17);stroke:rgb(0,0,0);stroke-width:2"/></g>
<g fill-rule="evenodd"><path d="M 5654.72,3387.8 L 5656.01,3374.74 L 5659.82,3362.18 L 5666,3350.61 L 5674.33,3340.47 L 5684.47,3332.15 L 5696.04,3325.96 L 5705.9,3322.97 L 5705.9,3257.86 L 5706.21,3254.79 L 5707.1,3251.84 L 5708.56,3249.12 L 5710.52,3246.73 L 5712.9,3244.77 L 5715.63,3243.32 L 5718.58,3242.42 L 5721.65,3242.12 L 5790.29,3242.12 L 6252.06,2780.35 L 6250.04,2773.7 L 6249.28,2766.02 L 6250.04,2758.34 L 6252.28,2750.96 L 6255.92,2744.15 L 6260.81,2738.18 L 6266.78,2733.29 L 6273.59,2729.65 L 6280.97,2727.41 L 6288.65,2726.65 L 6296.33,2727.41 L 6303.72,2729.65 L 6310.53,2733.29 L 6316.49,2738.18 L 6321.39,2744.15 L 6325.03,2750.96 L 6327.27,2758.34 L 6328.02,2766.02 L 6327.27,2773.7 L 6325.03,2781.09 L 6321.39,2787.9 L 6316.49,2793.86 L 6310.53,2798.76 L 6303.72,2802.4 L 6296.33,2804.64 L 6288.65,2805.39 L 6280.97,2804.64 L 6274.33,2802.62 L 5807.95,3269 L 5803.96,3271.9 L 5801.68,3272.84 L 5796.81,3273.61 L 5737.4,3273.61 L 5737.4,3322.97 L 5747.27,3325.96 L 5758.84,3332.15 L 5768.98,3340.47 L 5777.3,3350.61 L 5783.49,3362.18 L 5787.3,3374.74 L 5788.58,3387.8 L 5787.3,3400.85 L 5783.49,3413.41 L 5777.3,3424.98 L 5768.98,3435.12 L 5758.84,3443.44 L 5747.27,3449.63 L 5734.71,3453.44 L 5721.65,3454.72 L 5708.6,3453.44 L 5696.04,3449.63 L 5684.47,3443.44 L 5674.33,3435.12 L 5666,3424.98 L 5659.82,3413.41 L 5656.01,3400.85 L 5654.72,3387.8 z " style="fill-opacity:1.000000;fill:rgb(158,9,220);stroke:rgb(0,0,0);stroke-width:2"/></g>
<g fill-rule="evenodd"><path d="M 5686.91,1820.77 L 5686.91,1672.93 L 5687.22,1669.86 L 5688.11,1666.9 L 5689.57,1664.18 L 5691.53,1661.79 L 5774.66,1578.66 L 5770.54,1570.96 L 5766.96,1559.14 L 5765.75,1546.85 L 5766.96,1534.56 L 5770.54,1522.74 L 5776.36,1511.85 L 5784.2,1502.31 L 5793.74,1494.47 L 5804.63,1488.65 L 5816.45,1485.07 L 5828.74,1483.86 L 5841.03,1485.07 L 5852.85,1488.65 L 5863.74,1494.47 L 5873.28,1502.31 L 5881.12,1511.85 L 5886.94,1522.74 L 5890.52,1534.56 L 5891.73,1546.85 L 5890.52,1559.14 L 5886.94,1570.96 L 5881.12,1581.85 L 5873.28,1591.39 L 5863.74,1599.23 L 5852.85,1605.05 L 5841.03,1608.63 L 5828.74,1609.84 L 5816.45,1608.63 L 5804.63,1605.05 L 5796.93,1600.93 L 5718.41,1679.45 L 5718.41,1814.25 L 5796.93,1892.77 L 5804.63,1888.65 L 5816.45,1885.07 L 5828.74,1883.86 L 5841.03,1885.07 L 5852.85,1888.65 L 5863.74,1894.47 L 5873.28,1902.31 L 5881.12,1911.85 L 5886.94,1922.74 L 5890.52,1934.56 L 5891.73,1946.85 L 5890.52,1959.14 L 5886.94,1970.96 L 5881.12,1981.85 L 5873.28,1991.39 L 5863.74,1999.23 L 5852.85,2005.05 L 5841.03,2008.63 L 5828.74,2009.84 L 5816.45,2008.63 L 5804.63,2005.05 L 5793.74,1999.23 L 5784.2,1991.39 L 5776.36,1981.85 L 5770.54,1970.96 L 5766.96,1959.14 L 5765.75,1946.85 L 5766.96,1934.56 L 5770.54,1922.74 L 5774.66,1915.04 L 5691.53,1831.91 L 5689.57,1829.52 L 5688.11,1826.8 L 5687.22,1823.84 L 5686.91,1820.77 z " style="fill-opacity:1.000000;fill:rgb(170,212,172);stroke:rgb(0,0,0);stroke-width:2"/></g>
<g fill-rule="evenodd"><path d="M 5765.75,2346.85 L 5766.96,2334.56 L 5770.54,2322.74 L 5776.36,2311.85 L 5784.2,2302.31 L 5793.74,2294.47 L 5804.63,2288.65 L 5816.45,2285.07 L 5828.74,2283.86 L 5841.03,2285.07 L 5852.85,2288.65 L 5863.74,2294.47 L 5873.28,2302.31 L 5881.12,2311.85 L 5886.94,2322.74 L 5890.52,2334.56 L 5891.73,2346.85 L 5890.52,2359.14 L 5886.94,2370.96 L 5881.12,2381.85 L 5873.28,2391.39 L 5863.74,2399.23 L 5852.85,2405.05 L 5841.03,2408.63 L 5828.74,2409.84 L 5816.45,2408.63 L 5804.63,2405.05 L 5793.74,2399.23 L 5784.2,2391.39 L 5776.36,2381.85 L 5770.54,2370.96 L 5766.96,2359.14 L 5765.75,2346.85 z " style="fill-opacity:1.000000;fill:rgb(242,27,16);stroke:rgb(0,0,0);stroke-width:2"/></g>
<g fill-rule="evenodd"><path d="M 5765.75,1746.85 L 5766.96,1734.56 L 5770.54,1722.74 L 5776.36,1711.85 L 5784.2,1702.31 L 5793.74,1694.47 L 5804.63,1688.65 L 5816.45,1685.07 L 5828.74,1683.86 L 5841.03,1685.07 L 5852.85,1688.65 L 5863.74,1694.47 L 5873.28,1702.31 L 5881.12,1711.85 L 5886.94,1722.74 L 5890.52,1734.56 L 5891.73,1746.85 L 5890.52,1759.14 L 5886.94,1770.96 L 5881.12,1781.85 L 5873.28,1791.39 L 5863.74,1799.23 L 5852.85,1805.05 L 5841.03,1808.63 L 5828.74,1809.84 L 5816.45,1808.63 L 5804.63,1805.05 L 5793.74,1799.23 L 5784.2,1791.39 L 5776.36,1781.85 L 5770.54,1770.96 L 5766.96,1759.14 L 5765.75,1746.85 z " style="fill-opacity:1.000000;fill:rgb(175,59,51);stroke:rgb(0,0,0);stroke-width:2"/></g>
<g fill-rule="evenodd"><path d="M 5765.75,1346.85 L 5766.96,1334.56 L 5770.54,1322.74 L 5776.36,1311.85 L 5784.2,1302.31 L 5793.74,1294.47 L 5804.63,1288.65 L 5816.45,1285.07 L 5828.74,1283.86 L 5841.03,1285.07 L 5852.85,1288.65 L 5863.74,1294.47 L 5873.28,1302.31 L 5881.12,1311.85 L 5886.94,1322.74 L 5890.52,1334.56 L 5891.73,1346.85 L 5890.52,1359.14 L 5886.94,1370.96 L 5881.12,1381.85 L 5873.28,1391.39 L 5863.74,1399.23 L 5852.85,1405.05 L 5841.03,1408.63 L 5828.74,1409.84 L 5816.45,1408.63 L 5804.63,1405.05 L 5793.74,1399.23 L 5784.2,1391.39 L 5776.36,1381.85 L 5770.54,1370.96 L 5766.96,1359.14 L 5765.75,1346.85 z " style="fill-opacity:1.000000;fill:rgb(205,227,80);stroke:rgb(0,0,0);stroke-width:2"/></g>
<g fill-rule="evenodd"><path d="M 5765.75,1146.85 L 5766.96,1134.56 L 5770.54,1122.74 L 5776.36,1111.85 L 5784.2,1102.31 L 5793.74,1094.47 L 5804.63,1088.65 L 5816.45,1085.07 L 5828.74,1083.86 L 5841.03,1085.07 L 5852.85,1088.65 L 5863.74,1094.47 L 5873.28,1102.31 L 5881.12,1111.85 L 5886.94,1122.74 L 5890.52,1134.56 L 5891.73,1146.85 L 5890.52,1159.14 L 5886.94,1170.96 L 5881.12,1181.85 L 5873.28,1191.39 L 5863.74,1199.23 L 5852.85,1205.05 L 5841.03,1208.63 L 5828.74,1209.84 L 5816.45,1208.63 L 5804.63,1205.05 L 5793.74,1199.23 L 5784.2,1191.39 L 5776.36,1181.85 L 5770.54,1170.96 L 5766.96,1159.14 L 5765.75,1146.85 z " style="fill-opacity:1.000000;fill:rgb(72,71,21);stroke:rgb(0,0,0);stroke-width:2"/></g>
<g fill-rule="evenodd"><path d="M 5765.75,946.85 L 5766.96,934.561 L 5770.54,922.744 L 5776.36,911.854 L 5784.2,902.308 L 5793.74,894.474 L 5804.63,888.653 L 5816.45,885.069 L 5828.74,883.858 L 5841.03,885.069 L 5852.85,888.653 L 5863.74,894.474 L 5873.28,902.308 L 5881.12,911.854 L 5886.94,922.744 L 5889.47,931.101 L 5948.21,931.101 L 6230.55,648.761 L 6232.94,646.803 L 6235.66,645.348 L 6238.61,644.451 L 6241.68,644.149 L 6754.38,644.149 L 6759.24,644.92 L 6761.53,645.865 L 6765.51,648.761 L 7047.85,931.101 L 7106.59,931.101 L 7109.13,922.744 L 7114.95,911.854 L 7122.78,902.308 L 7132.33,894.474 L 7143.22,888.653 L 7155.03,885.069 L 7167.32,883.858 L 7179.61,885.069 L 7191.43,888.653 L 7202.32,894.474 L 7211.86,902.308 L 7219.7,911.854 L 7225.52,922.744 L 7229.1,934.561 L 7230.31,946.85 L 7229.1,959.14 L 7225.52,970.956 L 7219.7,981.847 L 7211.86,991.393 L 7202.32,999.226 L 7191.43,1005.05 L 7179.61,1008.63 L 7167.32,1009.84 L 7155.03,1008.63 L 7143.22,1005.05 L 7132.33,999.226 L 7122.78,991.393 L 7114.95,981.847 L 7109.13,970.956 L 7106.59,962.596 L 7041.33,962.597 L 7038.87,962.403 L 7034.18,960.88 L 7030.19,957.984 L 6747.85,675.645 L 6248.21,675.645 L 5965.87,957.984 L 5963.48,959.943 L 5960.76,961.398 L 5957.8,962.294 L 5954.73,962.597 L 5889.47,962.596 L 5886.94,970.956 L 5881.12,981.847 L 5873.28,991.393 L 5863.74,999.226 L 5852.85,1005.05 L 5841.03,1008.63 L 5828.74,1009.84 L 5816.45,1008.63 L 5804.63,1005.05 L 5793.74,999.226 L 5784.2,991.393 L 5776.36,981.847 L 5770.54,970.956 L 5766.96,959.14 L 5765.75,946.85 z " style="fill-opacity:1.000000;fill:rgb(92,187,111);stroke:rgb(0,0,0);stroke-width:2"/></g>
<g fill-rule="evenodd"><path d="M 5854.72,3387.8 L 5856.01,3374.74 L 5859.82,3362.18 L 5866,3350.61 L 5874.33,3340.47 L 5884.47,3332.15 L 5896.04,3325.96 L 5905.9,3322.97 L 5905.9,3257.86 L 5906.21,3254.79 L 5907.1,3251.84 L 5908.56,3249.12 L 5910.52,3246.73 L 5912.9,3244.77 L 5915.63,3243.32 L 5918.58,3242.42 L 5921.65,3242.12 L 5935.07,3242.12 L 6681.43,2495.75 L 6681.43,1083.23 L 6608.05,1009.84 L 6504.33,1009.84 L 6504.33,883.858 L 6630.31,883.858 L 6630.31,987.569 L 6708.32,1065.57 L 6710.27,1067.96 L 6711.73,1070.68 L 6712.63,1073.63 L 6712.93,1076.71 L 6712.93,2502.27 L 6712.16,2507.14 L 6711.21,2509.42 L 6708.32,2513.41 L 5952.72,3269 L 5950.34,3270.96 L 5947.62,3272.41 L 5944.66,3273.31 L 5937.4,3273.61 L 5937.4,3322.97 L 5947.27,3325.96 L 5958.84,3332.15 L 5968.98,3340.47 L 5977.3,3350.61 L 5983.49,3362.18 L 5987.3,3374.74 L 5988.58,3387.8 L 5987.3,3400.85 L 5983.49,3413.41 L 5977.3,3424.98 L 5968.98,3435.12 L 5958.84,3443.44 L 5947.27,3449.63 L 5934.71,3453.44 L 5921.65,3454.72 L 5908.6,3453.44 L 5896.04,3449.63 L 5884.47,3443.44 L 5874.33,3435.12 L 5866,3424.98 L 5859.82,3413.41 L 5856.01,3400.85 L 5854.72,3387.8 z " style="fill-opacity:1.000000;fill:rgb(34,25,186);stroke:rgb(0,0,0);stroke-width:2"/></g>
<g fill-rule="evenodd"><path d="M 6054.72,3387.8 L 6056.01,3374.74 L 6059.82,3362.18 L 6066,3350.61 L 6074.33,3340.47 L 6084.47,3332.15 L 6096.04,3325.96 L 6105.9,3322.97 L 6105.9,3257.86 L 6106.21,3254.79 L 6107.1,3251.84 L 6108.56,3249.12 L 6110.52,3246.73 L 6764.28,2592.96 L 6764.28,948.222 L 6652.67,836.605 L 6484.6,836.605 L 6457.08,864.128 L 6457.08,1131.1 L 6506.59,1131.1 L 6509.13,1122.74 L 6514.95,1111.85 L 6522.78,1102.31 L 6532.33,1094.47 L 6543.22,1088.65 L 6555.03,1085.07 L 6567.32,1083.86 L 6579.61,1085.07 L 6591.43,1088.65 L 6602.32,1094.47 L 6611.86,1102.31 L 6619.7,1111.85 L 6625.52,1122.74 L 6629.1,1134.56 L 6630.31,1146.85 L 6629.1,1159.14 L 6625.52,1170.96 L 6619.7,1181.85 L 6611.86,1191.39 L 6602.32,1199.23 L 6591.43,1205.05 L 6579.61,1208.63 L 6567.32,1209.84 L 6555.03,1208.63 L 6543.22,1205.05 L 6532.33,1199.23 L 6522.78,1191.39 L 6514.95,1181.85 L 6509.13,1170.96 L 6506.59,1162.6 L 6441.33,1162.6 L 6438.26,1162.29 L 6435.3,1161.4 L 6432.58,1159.94 L 6430.19,1157.98 L 6428.23,1155.6 L 6426.78,1152.88 L 6425.88,1149.92 L 6425.58,1146.85 L 6425.58,857.605 L 6425.88,854.533 L 6426.78,851.578 L 6428.23,848.856 L 6430.19,846.469 L 6466.94,809.721 L 6470.93,806.825 L 6475.61,805.303 L 6661.65,805.303 L 6666.34,806.825 L 6670.32,809.721 L 6791.17,930.563 L 6793.12,932.95 L 6794.58,935.672 L 6795.48,938.627 L 6795.78,941.699 L 6795.78,2599.49 L 6795.48,2602.56 L 6794.58,2605.51 L 6793.12,2608.24 L 6791.17,2610.62 L 6137.4,3264.39 L 6137.4,3322.97 L 6147.27,3325.96 L 6158.84,3332.15 L 6168.98,3340.47 L 6177.3,3350.61 L 6183.49,3362.18 L 6187.3,3374.74 L 6188.58,3387.8 L 6187.3,3400.85 L 6183.49,3413.41 L 6177.3,3424.98 L 6168.98,3435.12 L 6158.84,3443.44 L 6147.27,3449.63 L 6134.71,3453.44 L 6121.65,3454.72 L 6108.6,3453.44 L 6096.04,3449.63 L 6084.47,3443.44 L 6074.33,3435.12 L 6066,3424.98 L 6059.82,3413.41 L 6056.01,3400.85 L 6054.72,3387.8 z " style="fill-opacity:1.000000;fill:rgb(155,125,245);stroke:rgb(0,0,0);stroke-width:2"/></g>
<g fill-rule="evenodd"><path d="M 6454.72,3387.8 L 6456.01,3374.74 L 6459.82,3362.18 L 6466,3350.61 L 6474.33,3340.47 L 6484.47,3332.15 L 6496.04,3325.96 L 6508.6,3322.15 L 6521.65,3320.87 L 6534.71,3322.15 L 6547.27,3325.96 L 6558.84,3332.15 L 6568.98,3340.47 L 6577.3,3350.61 L 6583.49,3362.18 L 6587.3,3374.74 L 6588.58,3387.8 L 6587.3,3400.85 L 6583.49,3413.41 L 6577.3,3424.98 L 6568.98,3435.12 L 6558.84,3443.44 L 6547.27,3449.63 L 6534.71,3453.44 L 6521.65,3454.72 L 6508.6,3453.44 L 6496.04,3449.63 L 6484.47,3443.44 L 6474.33,3435.12 L 6466,3424.98 L 6459.82,3413.41 L 6456.01,3400.85 L 6454.72,3387.8 z " style="fill-opacity:1.000000;fill:rgb(11,225,26);stroke:rgb(0,0,0);stroke-width:2"/></g>
<g fill-rule="evenodd"><path d="M 6504.33,2146.85 L 6505.54,2134.56 L 6509.13,2122.74 L 6514.95,2111.85 L 6522.78,2102.31 L 6532.33,2094.47 L 6543.22,2088.65 L 6555.03,2085.07 L 6567.32,2083.86 L 6579.61,2085.07 L 6591.43,2088.65 L 6602.32,2094.47 L 6611.86,2102.31 L 6619.7,2111.85 L 6625.52,2122.74 L 6629.1,2134.56 L 6630.31,2146.85 L 6629.1,2159.14 L 6625.52,2170.96 L 6619.7,2181.85 L 6611.86,2191.39 L 6602.32,2199.23 L 6591.43,2205.05 L 6579.61,2208.63 L 6567.32,2209.84 L 6555.03,2208.63 L 6543.22,2205.05 L 6532.33,2199.23 L 6522.78,2191.39 L 6514.95,2181.85 L 6509.13,2170.96 L 6505.54,2159.14 L 6504.33,2146.85 z " style="fill-opacity:1.000000;fill:rgb(28,127,35);stroke:rgb(0,0,0);stroke-width:2"/></g>
<g fill-rule="evenodd"><path d="M 6504.33,1946.85 L 6505.54,1934.56 L 6509.13,1922.74 L 6514.95,1911.85 L 6522.78,1902.31 L 6532.33,1894.47 L 6543.22,1888.65 L 6555.03,1885.07 L 6567.32,1883.86 L 6579.61,1885.07 L 6591.43,1888.65 L 6602.32,1894.47 L 6611.86,1902.31 L 6619.7,1911.85 L 6625.52,1922.74 L 6629.1,1934.56 L 6630.31,1946.85 L 6629.1,1959.14 L 6625.52,1970.96 L 6619.7,1981.85 L 6611.86,1991.39 L 6602.32,1999.23 L 6591.43,2005.05 L 6579.61,2008.63 L 6567.32,2009.84 L 6555.03,2008.63 L 6543.22,2005.05 L 6532.33,1999.23 L 6522.78,1991.39 L 6514.95,1981.85 L 6509.13,1970.96 L 6505.54,1959.14 L 6504.33,1946.85 z " style="fill-opacity:1.000000;fill:rgb(248,41,248);stroke:rgb(0,0,0);stroke-width:2"/></g>
<g fill-rule="evenodd"><path d="M 6504.33,1746.85 L 6505.54,1734.56 L 6509.13,1722.74 L 6514.95,1711.85 L 6522.78,1702.31 L 6532.33,1694.47 L 6543.22,1688.65 L 6555.03,1685.07 L 6567.32,1683.86 L 6579.61,1685.07 L 6591.43,1688.65 L 6602.32,1694.47 L 6611.86,1702.31 L 6619.7,1711.85 L 6625.52,1722.74 L 6629.1,1734.56 L 6630.31,1746.85 L 6629.1,1759.14 L 6625.52,1770.96 L 6619.7,1781.85 L 6611.86,1791.39 L 6602.32,1799.23 L 6591.43,1805.05 L 6579.61,1808.63 L 6567.32,1809.84 L 6555.03,1808.63 L 6543.22,1805.05 L 6532.33,1799.23 L 6522.78,1791.39 L 6514.95,1781.85 L 6509.13,1770.96 L 6505.54,1759.14 L 6504.33,1746.85 z " style="fill-opacity:1.000000;fill:rgb(164,27,19);stroke:rgb(0,0,0);stroke-width:2"/></g>
<g fill-rule="evenodd"><path d="M 6504.33,1546.85 L 6505.54,1534.56 L 6509.13,1522.74 L 6514.95,1511.85 L 6522.78,1502.31 L 6532.33,1494.47 L 6543.22,1488.65 L 6555.03,1485.07 L 6567.32,1483.86 L 6579.61,1485.07 L 6591.43,1488.65 L 6602.32,1494.47 L 6611.86,1502.31 L 6619.7,1511.85 L 6625.52,1522.74 L 6629.1,1534.56 L 6630.31,1546.85 L 6629.1,1559.14 L 6625.52,1570.96 L 6619.7,1581.85 L 6611.86,1591.39 L 6602.32,1599.23 L 6591.43,1605.05 L 6579.61,1608.63 L 6567.32,1609.84 L 6555.03,1608.63 L 6543.22,1605.05 L 6532.33,1599.23 L 6522.78,1591.39 L 6514.95,1581.85 L 6509.13,1570.96 L 6505.54,1559.14 L 6504.33,1546.85 z " style="fill-opacity:1.000000;fill:rgb(181,202,78);stroke:rgb(0,0,0);stroke-width:2"/></g>
<g fill-rule="evenodd"><path d="M 6854.72,3387.8 L 6856.01,3374.74 L 6859.82,3362.18 L 6866,3350.61 L 6874.33,3340.47 L 6884.47,3332.15 L 6896.04,3325.96 L 6908.6,3322.15 L 6921.65,3320.87 L 6934.71,3322.15 L 6947.27,3325.96 L 6958.84,3332.15 L 6968.98,3340.47 L 6977.3,3350.61 L 6983.49,3362.18 L 6987.3,3374.74 L 6988.58,3387.8 L 6987.3,3400.85 L 6983.49,3413.41 L 6977.3,3424.98 L 6968.98,3435.12 L 6958.84,3443.44 L 6947.27,3449.63 L 6934.71,3453.44 L 6921.65,3454.72 L 6908.6,3453.44 L 6896.04,3449.63 L 6884.47,3443.44 L 6874.33,3435.12 L 6866,3424.98 L 6859.82,3413.41 L 6856.01,3400.85 L 6854.72,3387.8 z " style="fill-opacity:1.000000;fill:rgb(232,152,50);stroke:rgb(0,0,0);stroke-width:2"/></g>
<g fill-rule="evenodd"><path d="M 7024.74,1820.01 L 7024.74,1673.68 L 7025.04,1670.61 L 7025.94,1667.66 L 7027.39,1664.94 L 7029.35,1662.55 L 7113.24,1578.66 L 7109.13,1570.96 L 7105.54,1559.14 L 7104.33,1546.85 L 7105.54,1534.56 L 7109.13,1522.74 L 7114.95,1511.85 L 7122.78,1502.31 L 7132.33,1494.47 L 7143.22,1488.65 L 7155.03,1485.07 L 7167.32,1483.86 L 7179.61,1485.07 L 7191.43,1488.65 L 7202.32,1494.47 L 7211.86,1502.31 L 7219.7,1511.85 L 7225.52,1522.74 L 7229.1,1534.56 L 7230.31,1546.85 L 7229.1,1559.14 L 7225.52,1570.96 L 7219.7,1581.85 L 7211.86,1591.39 L 7202.32,1599.23 L 7191.43,1605.05 L 7179.61,1608.63 L 7167.32,1609.84 L 7155.03,1608.63 L 7143.22,1605.05 L 7135.51,1600.93 L 7056.23,1680.21 L 7056.23,1813.49 L 7135.51,1892.77 L 7143.22,1888.65 L 7155.03,1885.07 L 7167.32,1883.86 L 7179.61,1885.07 L 7191.43,1888.65 L 7202.32,1894.47 L 7211.86,1902.31 L 7219.7,1911.85 L 7225.52,1922.74 L 7229.1,1934.56 L 7230.31,1946.85 L 7229.1,1959.14 L 7225.52,1970.96 L 7219.7,1981.85 L 7211.86,1991.39 L 7202.32,1999.23 L 7191.43,2005.05 L 7179.61,2008.63 L 7167.32,2009.84 L 7155.03,2008.63 L 7143.22,2005.05 L 7132.33,1999.23 L 7122.78,1991.39 L 7114.95,1981.85 L 7109.13,1970.96 L 7105.54,1959.14 L 7104.33,1946.85 L 7105.54,1934.56 L 7109.13,1922.74 L 7113.24,1915.04 L 7029.35,1831.15 L 7027.75,1829.27 L 7025.51,1824.88 L 7024.74,1820.01 z " style="fill-opacity:1.000000;fill:rgb(56,224,121);stroke:rgb(0,0,0);stroke-width:2"/></g>
<g fill-rule="evenodd"><path d="M 7054.72,3387.8 L 7056.01,3374.74 L 7059.82,3362.18 L 7066,3350.61 L 7074.33,3340.47 L 7084.47,3332.15 L 7096.04,3325.96 L 7108.6,3322.15 L 7121.65,3320.87 L 7134.71,3322.15 L 7147.27,3325.96 L 7158.84,3332.15 L 7168.98,3340.47 L 7177.3,3350.61 L 7183.49,3362.18 L 7187.3,3374.74 L 7188.58,3387.8 L 7187.3,3400.85 L 7183.49,3413.41 L 7177.3,3424.98 L 7168.98,3435.12 L 7158.84,3443.44 L 7147.27,3449.63 L 7134.71,3453.44 L 7121.65,3454.72 L 7108.6,3453.44 L 7096.04,3449.63 L 7084.47,3443.44 L 7074.33,3435.12 L 7066,3424.98 L 7059.82,3413.41 L 7056.01,3400.85 L 7054.72,3387.8 z " style="fill-opacity:1.000000;fill:rgb(77,61,52);stroke:rgb(0,0,0);stroke-width:2"/></g>
<g fill-rule="evenodd"><path d="M 7104.33,2346.85 L 7105.54,2334.56 L 7109.13,2322.74 L 7114.95,2311.85 L 7122.78,2302.31 L 7132.33,2294.47 L 7143.22,2288.65 L 7155.03,2285.07 L 7167.32,2283.86 L 7179.61,2285.07 L 7191.43,2288.65 L 7202.32,2294.47 L 7211.86,2302.31 L 7219.7,2311.85 L 7225.52,2322.74 L 7229.1,2334.56 L 7230.31,2346.85 L 7229.1,2359.14 L 7225.52,2370.96 L 7219.7,2381.85 L 7211.86,2391.39 L 7202.32,2399.23 L 7191.43,2405.05 L 7179.61,2408.63 L 7167.32,2409.84 L 7155.03,2408.63 L 7143.22,2405.05 L 7132.33,2399.23 L 7122.78,2391.39 L 7114.95,2381.85 L 7109.13,2370.96 L 7105.54,2359.14 L 7104.33,2346.85 z " style="fill-opacity:1.000000;fill:rgb(188,95,78);stroke:rgb(0,0,0);stroke-width:2"/></g>
<g fill-rule="evenodd"><path d="M 7104.33,2146.85 L 7105.54,2134.56 L 7109.13,2122.74 L 7114.95,2111.85 L 7122.78,2102.31 L 7132.33,2094.47 L 7143.22,2088.65 L 7155.03,2085.07 L 7167.32,2083.86 L 7179.61,2085.07 L 7191.43,2088.65 L 7202.32,2094.47 L 7211.86,2102.31 L 7219.7,2111.85 L 7225.52,2122.74 L 7229.1,2134.56 L 7230.31,2146.85 L 7229.1,2159.14 L 7225.52,2170.96 L 7219.7,2181.85 L 7211.86,2191.39 L 7202.32,2199.23 L 7191.43,2205.05 L 7179.61,2208.63 L 7167.32,2209.84 L 7155.03,2208.63 L 7143.22,2205.05 L 7132.33,2199.23 L 7122.78,2191.39 L 7114.95,2181.85 L 7109.13,2170.96 L 7105.54,2159.14 L 7104.33,2146.85 z " style="fill-opacity:1.000000;fill:rgb(119,250,203);stroke:rgb(0,0,0);stroke-width:2"/></g>
<g fill-rule="evenodd"><path d="M 7104.33,1746.85 L 7105.54,1734.56 L 7109.13,1722.74 L 7114.95,1711.85 L 7122.78,1702.31 L 7132.33,1694.47 L 7143.22,1688.65 L 7155.03,1685.07 L 7167.32,1683.86 L 7179.61,1685.07 L 7191.43,1688.65 L 7199.13,1692.77 L 7278.37,1613.53 L 7278.37,1480.17 L 7199.13,1400.93 L 7191.43,1405.05 L 7179.61,1408.63 L 7167.32,1409.84 L 7155.03,1408.63 L 7143.22,1405.05 L 7132.33,1399.23 L 7122.78,1391.39 L 7114.95,1381.85 L 7109.13,1370.96 L 7105.54,1359.14 L 7104.33,1346.85 L 7105.54,1334.56 L 7109.13,1322.74 L 7114.95,1311.85 L 7122.78,1302.31 L 7132.33,1294.47 L 7143.22,1288.65 L 7155.03,1285.07 L 7167.32,1283.86 L 7179.61,1285.07 L 7191.43,1288.65 L 7202.32,1294.47 L 7211.86,1302.31 L 7219.7,1311.85 L 7225.52,1322.74 L 7229.1,1334.56 L 7230.31,1346.85 L 7229.1,1359.14 L 7225.52,1370.96 L 7221.4,1378.66 L 7305.25,1462.51 L 7307.21,1464.9 L 7308.67,1467.62 L 7309.56,1470.57 L 7309.86,1473.64 L 7309.86,1620.05 L 7309.56,1623.13 L 7308.67,1626.08 L 7307.21,1628.8 L 7305.25,1631.19 L 7221.4,1715.04 L 7225.52,1722.74 L 7229.1,1734.56 L 7230.31,1746.85 L 7229.1,1759.14 L 7225.52,1770.96 L 7219.7,1781.85 L 7211.86,1791.39 L 7202.32,1799.23 L 7191.43,1805.05 L 7179.61,1808.63 L 7167.32,1809.84 L 7155.03,1808.63 L 7143.22,1805.05 L 7132.33,1799.23 L 7122.78,1791.39 L 7114.95,1781.85 L 7109.13,1770.96 L 7105.54,1759.14 L 7104.33,1746.85 z " style="fill-opacity:1.000000;fill:rgb(108,5,172);stroke:rgb(0,0,0);stroke-width:2"/></g>
<g fill-rule="evenodd"><path d="M 7104.33,1146.85 L 7105.54,1134.56 L 7109.13,1122.74 L 7114.95,1111.85 L 7122.78,1102.31 L 7132.33,1094.47 L 7143.22,1088.65 L 7155.03,1085.07 L 7167.32,1083.86 L 7179.61,1085.07 L 7191.43,1088.65 L 7202.32,1094.47 L 7211.86,1102.31 L 7219.7,1111.85 L 7225.52,1122.74 L 7229.1,1134.56 L 7230.31,1146.85 L 7229.1,1159.14 L 7225.52,1170.96 L 7219.7,1181.85 L 7211.86,1191.39 L 7202.32,1199.23 L 7191.43,1205.05 L 7179.61,1208.63 L 7167.32,1209.84 L 7155.03,1208.63 L 7143.22,1205.05 L 7132.33,1199.23 L 7122.78,1191.39 L 7114.95,1181.85 L 7109.13,1170.96 L 7105.54,1159.14 L 7104.33,1146.85 z " style="fill-opacity:1.000000;fill:rgb(134,33,43);stroke:rgb(0,0,0);stroke-width:2"/></g>
</svg>
