<?xml version="1.0" standalone="no"?>
<!DOCTYPE svg PUBLIC "-//W3C//DTD SVG 1.1//EN"
"http://www.w3.org/Graphics/SVG/1.1/DTD/svg11.dtd">
<svg width="601.134" height="223.181" viewBox="0 0 12523.6 4649.61" version="1.1"
xmlns="http://www.w3.org/2000/svg"
xmlns:xlink="http://www.w3.org/1999/xlink">
<circle cx="896.535" cy="1576.46" r="19.685" style=""/>
<circle cx="1649.53" cy="1668.27" r="19.685" style=""/>
<circle cx="1064.96" cy="2426.46" r="19.685" style=""/>
<circle cx="852.362" cy="2775.28" r="19.685" style=""/>
<circle cx="1169.76" cy="2804.65" r="19.685" style=""/>
<circle cx="1940.87" cy="2877.24" r="19.685" style=""/>
<circle cx="2792.28" cy="2935.91" r="19.685" style=""/>
<circle cx="3378.74" cy="2940.79" r="19.685" style=""/>
<circle cx="3734.33" cy="3433.07" r="19.685" style=""/>
<circle cx="4178.58" cy="2945.75" r="19.685" style=""/>
<circle cx="4150.79" cy="2796.38" r="19.685" style=""/>
<circle cx="5059.21" cy="3025.12" r="19.685" style=""/>
<circle cx="5344.96" cy="3115.28" r="19.685" style=""/>
<circle cx="5976.85" cy="3397.17" r="19.685" style=""/>
<circle cx="6139.69" cy="3478.66" r="19.685" style=""/>
<circle cx="6860.16" cy="3251.18" r="19.685" style=""/>
<circle cx="6875.98" cy="3122.2" r="19.685" style=""/>
<circle cx="7315.59" cy="3424.72" r="19.685" style=""/>
<circle cx="7469.21" cy="3425.83" r="19.685" style=""/>
<circle cx="7381.5" cy="3156.77" r="19.685" style=""/>
<circle cx="7597.24" cy="2755.28" r="19.685" style=""/>
<circle cx="7505.59" cy="2366.06" r="19.685" style=""/>
<circle cx="8057.4" cy="1539.69" r="19.685" style=""/>
<circle cx="10015.1" cy="2771.34" r="19.685" style=""/>
<circle cx="11289.8" cy="2078.19" r="19.685" style=""/>
<circle cx="11464" cy="2190.71" r="19.685" style=""/>
<circle cx="11807.6" cy="1936.3" r="19.685" style=""/>
<circle cx="11631.5" cy="2832.68" r="19.685" style=""/>
<circle cx="5192.05" cy="498.661" r="19.685" style=""/>
<circle cx="2903.86" cy="540.315" r="19.685" style=""/>
<circle cx="2667.95" cy="1592.83" r="19.685" style=""/>
<circle cx="1203.54" cy="740.551" r="31.4961" style=""/>
<circle cx="1403.54" cy="740.551" r="31.4961" style=""/>
<circle cx="1603.54" cy="740.551" r="31.4961" style=""/>
<circle cx="1803.54" cy="740.551" r="31.4961" style=""/>
<circle cx="2003.54" cy="740.551" r="31.4961" style=""/>
<circle cx="2203.54" cy="740.551" r="31.4961" style=""/>
<circle cx="2403.54" cy="740.551" r="31.4961" style=""/>
<circle cx="2603.54" cy="740.551" r="31.4961" style=""/>
<circle cx="2003.54" cy="1340.55" r="31.4961" style=""/>
<circle cx="2203.54" cy="1340.55" r="31.4961" style=""/>
<circle cx="2403.54" cy="1340.55" r="31.4961" style=""/>
<circle cx="2603.54" cy="1340.55" r="31.4961" style=""/>
<circle cx="2000.39" cy="1961.02" r="31.4961" style=""/>
<circle cx="1800.39" cy="1961.02" r="31.4961" style=""/>
<circle cx="1600.39" cy="1961.02" r="31.4961" style=""/>
<circle cx="1400.39" cy="1961.02" r="31.4961" style=""/>
<circle cx="1200.39" cy="1961.02" r="31.4961" style=""/>
<circle cx="1200.39" cy="2561.02" r="31.4961" style=""/>
<circle cx="1400.39" cy="2561.02" r="31.4961" style=""/>
<circle cx="1600.39" cy="2561.02" r="31.4961" style=""/>
<circle cx="1800.39" cy="2561.02" r="31.4961" style=""/>
<circle cx="2000.39" cy="2561.02" r="31.4961" style=""/>
<circle cx="2200.39" cy="2561.02" r="31.4961" style=""/>
<circle cx="2400.39" cy="2561.02" r="31.4961" style=""/>
<circle cx="2600.39" cy="2561.02" r="31.4961" style=""/>
<circle cx="2200.39" cy="1961.02" r="31.4961" style=""/>
<circle cx="2400.39" cy="1961.02" r="31.4961" style=""/>
<circle cx="2600.39" cy="1961.02" r="31.4961" style=""/>
<circle cx="3230.31" cy="1468.11" r="31.4961" style=""/>
<circle cx="3230.31" cy="1668.11" r="31.4961" style=""/>
<circle cx="3230.31" cy="1868.11" r="31.4961" style=""/>
<circle cx="3230.31" cy="2068.11" r="31.4961" style=""/>
<circle cx="3230.31" cy="2268.11" r="31.4961" style=""/>
<circle cx="3230.31" cy="2468.11" r="31.4961" style=""/>
<circle cx="2285.04" cy="3480.71" r="31.4961" style=""/>
<circle cx="2085.04" cy="3480.71" r="31.4961" style=""/>
<circle cx="1885.04" cy="3480.71" r="31.4961" style=""/>
<circle cx="1685.04" cy="3480.71" r="31.4961" style=""/>
<circle cx="1274.41" cy="3387.8" r="31.4961" style=""/>
<circle cx="1685.04" cy="4080.71" r="31.4961" style=""/>
<circle cx="1885.04" cy="4080.71" r="31.4961" style=""/>
<circle cx="2085.04" cy="4080.71" r="31.4961" style=""/>
<circle cx="2285.04" cy="4080.71" r="31.4961" style=""/>
<circle cx="2485.04" cy="4080.71" r="31.4961" style=""/>
<circle cx="2685.04" cy="4080.71" r="31.4961" style=""/>
<circle cx="2885.04" cy="4080.71" r="31.4961" style=""/>
<circle cx="2485.04" cy="3480.71" r="31.4961" style=""/>
<circle cx="2685.04" cy="3480.71" r="31.4961" style=""/>
<circle cx="2885.04" cy="3480.71" r="31.4961" style=""/>
<circle cx="4253.94" cy="2649.21" r="31.4961" style=""/>
<circle cx="4453.94" cy="2649.21" r="31.4961" style=""/>
<circle cx="4653.94" cy="2649.21" r="31.4961" style=""/>
<circle cx="4853.94" cy="2649.21" r="31.4961" style=""/>
<circle cx="5053.94" cy="2649.21" r="31.4961" style=""/>
<circle cx="5253.94" cy="2649.21" r="31.4961" style=""/>
<circle cx="5453.94" cy="2649.21" r="31.4961" style=""/>
<circle cx="5653.94" cy="2649.21" r="31.4961" style=""/>
<circle cx="5853.94" cy="2649.21" r="31.4961" style=""/>
<circle cx="6053.94" cy="2649.21" r="31.4961" style=""/>
<circle cx="5653.94" cy="2049.21" r="31.4961" style=""/>
<circle cx="5853.94" cy="2049.21" r="31.4961" style=""/>
<circle cx="6053.94" cy="2049.21" r="31.4961" style=""/>
<circle cx="5453.94" cy="2049.21" r="31.4961" style=""/>
<circle cx="5253.94" cy="2049.21" r="31.4961" style=""/>
<circle cx="5053.94" cy="2049.21" r="31.4961" style=""/>
<circle cx="4853.94" cy="2049.21" r="31.4961" style=""/>
<circle cx="4653.94" cy="2049.21" r="31.4961" style=""/>
<circle cx="4453.94" cy="2049.21" r="31.4961" style=""/>
<circle cx="4253.94" cy="2049.21" r="31.4961" style=""/>
<circle cx="4271.26" cy="1390.55" r="31.4961" style=""/>
<circle cx="4471.26" cy="1390.55" r="31.4961" style=""/>
<circle cx="4671.26" cy="1390.55" r="31.4961" style=""/>
<circle cx="4871.26" cy="1390.55" r="31.4961" style=""/>
<circle cx="5071.26" cy="1390.55" r="31.4961" style=""/>
<circle cx="5271.26" cy="1390.55" r="31.4961" style=""/>
<circle cx="5471.26" cy="1390.55" r="31.4961" style=""/>
<circle cx="5671.26" cy="1390.55" r="31.4961" style=""/>
<circle cx="5071.26" cy="790.551" r="31.4961" style=""/>
<circle cx="4871.26" cy="790.551" r="31.4961" style=""/>
<circle cx="4671.26" cy="790.551" r="31.4961" style=""/>
<circle cx="4471.26" cy="790.551" r="31.4961" style=""/>
<circle cx="4271.26" cy="790.551" r="31.4961" style=""/>
<circle cx="5271.26" cy="790.551" r="31.4961" style=""/>
<circle cx="5471.26" cy="790.551" r="31.4961" style=""/>
<circle cx="5671.26" cy="790.551" r="31.4961" style=""/>
<circle cx="6773.62" cy="868.11" r="31.4961" style=""/>
<circle cx="6773.62" cy="1068.11" r="31.4961" style=""/>
<circle cx="6773.62" cy="1268.11" r="31.4961" style=""/>
<circle cx="6773.62" cy="1468.11" r="31.4961" style=""/>
<circle cx="6773.62" cy="1668.11" r="31.4961" style=""/>
<circle cx="6773.62" cy="1868.11" r="31.4961" style=""/>
<circle cx="6773.62" cy="2068.11" r="31.4961" style=""/>
<circle cx="6773.62" cy="2268.11" r="31.4961" style=""/>
<circle cx="6773.62" cy="2468.11" r="31.4961" style=""/>
<circle cx="7735.83" cy="1921.65" r="31.4961" style=""/>
<circle cx="7935.83" cy="1921.65" r="31.4961" style=""/>
<circle cx="8135.83" cy="1921.65" r="31.4961" style=""/>
<circle cx="8335.83" cy="1921.65" r="31.4961" style=""/>
<circle cx="8535.83" cy="1921.65" r="31.4961" style=""/>
<circle cx="8735.83" cy="1921.65" r="31.4961" style=""/>
<circle cx="8935.83" cy="1921.65" r="31.4961" style=""/>
<circle cx="9135.83" cy="1921.65" r="31.4961" style=""/>
<circle cx="8735.83" cy="1340.55" r="31.4961" style=""/>
<circle cx="8935.83" cy="1340.55" r="31.4961" style=""/>
<circle cx="9135.83" cy="1340.55" r="31.4961" style=""/>
<circle cx="8535.83" cy="1340.55" r="31.4961" style=""/>
<circle cx="8335.83" cy="1340.55" r="31.4961" style=""/>
<circle cx="8135.83" cy="1340.55" r="31.4961" style=""/>
<circle cx="7935.83" cy="1340.55" r="31.4961" style=""/>
<circle cx="7735.83" cy="1340.55" r="31.4961" style=""/>
<circle cx="7735.83" cy="740.551" r="31.4961" style=""/>
<circle cx="7935.83" cy="740.551" r="31.4961" style=""/>
<circle cx="8135.83" cy="740.551" r="31.4961" style=""/>
<circle cx="8335.83" cy="740.551" r="31.4961" style=""/>
<circle cx="8535.83" cy="740.551" r="31.4961" style=""/>
<circle cx="8735.83" cy="740.551" r="31.4961" style=""/>
<circle cx="8935.83" cy="740.551" r="31.4961" style=""/>
<circle cx="9135.83" cy="740.551" r="31.4961" style=""/>
<circle cx="10098" cy="710.63" r="31.4961" style=""/>
<circle cx="10298" cy="710.63" r="31.4961" style=""/>
<circle cx="10498" cy="710.63" r="31.4961" style=""/>
<circle cx="10698" cy="710.63" r="31.4961" style=""/>
<circle cx="10898" cy="710.63" r="31.4961" style=""/>
<circle cx="11098" cy="710.63" r="31.4961" style=""/>
<circle cx="11298" cy="710.63" r="31.4961" style=""/>
<circle cx="11498" cy="710.63" r="31.4961" style=""/>
<circle cx="11098" cy="1310.63" r="31.4961" style=""/>
<circle cx="10898" cy="1310.63" r="31.4961" style=""/>
<circle cx="10698" cy="1310.63" r="31.4961" style=""/>
<circle cx="10498" cy="1310.63" r="31.4961" style=""/>
<circle cx="10298" cy="1310.63" r="31.4961" style=""/>
<circle cx="10098" cy="1310.63" r="31.4961" style=""/>
<circle cx="10098" cy="1921.65" r="31.4961" style=""/>
<circle cx="10298" cy="1921.65" r="31.4961" style=""/>
<circle cx="10498" cy="1921.65" r="31.4961" style=""/>
<circle cx="10698" cy="1921.65" r="31.4961" style=""/>
<circle cx="10898" cy="1921.65" r="31.4961" style=""/>
<circle cx="11098" cy="1921.65" r="31.4961" style=""/>
<circle cx="11298" cy="1921.65" r="31.4961" style=""/>
<circle cx="11498" cy="1921.65" r="31.4961" style=""/>
<circle cx="11098" cy="2521.65" r="31.4961" style=""/>
<circle cx="10898" cy="2521.65" r="31.4961" style=""/>
<circle cx="10698" cy="2521.65" r="31.4961" style=""/>
<circle cx="10498" cy="2521.65" r="31.4961" style=""/>
<circle cx="10298" cy="2521.65" r="31.4961" style=""/>
<circle cx="10098" cy="2521.65" r="31.4961" style=""/>
<circle cx="9819.29" cy="3466.54" r="31.4961" style=""/>
<circle cx="10019.3" cy="3466.54" r="31.4961" style=""/>
<circle cx="10219.3" cy="3466.54" r="31.4961" style=""/>
<circle cx="10419.3" cy="3466.54" r="31.4961" style=""/>
<circle cx="10619.3" cy="3466.54" r="31.4961" style=""/>
<circle cx="10819.3" cy="3466.54" r="31.4961" style=""/>
<circle cx="11019.3" cy="3466.54" r="31.4961" style=""/>
<circle cx="11219.3" cy="3466.54" r="31.4961" style=""/>
<circle cx="11419.3" cy="3466.54" r="31.4961" style=""/>
<circle cx="11298" cy="2521.65" r="31.4961" style=""/>
<circle cx="11498" cy="2521.65" r="31.4961" style=""/>
<circle cx="11298" cy="1310.63" r="31.4961" style=""/>
<circle cx="11498" cy="1310.63" r="31.4961" style=""/>
<circle cx="9135.83" cy="2521.65" r="31.4961" style=""/>
<circle cx="8935.83" cy="2521.65" r="31.4961" style=""/>
<circle cx="8735.83" cy="2521.65" r="31.4961" style=""/>
<circle cx="8535.83" cy="2521.65" r="31.4961" style=""/>
<circle cx="8335.83" cy="2521.65" r="31.4961" style=""/>
<circle cx="8135.83" cy="2521.65" r="31.4961" style=""/>
<circle cx="7935.83" cy="2521.65" r="31.4961" style=""/>
<circle cx="7735.83" cy="2521.65" r="31.4961" style=""/>
<circle cx="5671.26" cy="3388.98" r="31.4961" style=""/>
<circle cx="5471.26" cy="3388.98" r="31.4961" style=""/>
<circle cx="5271.26" cy="3388.98" r="31.4961" style=""/>
<circle cx="5071.26" cy="3388.98" r="31.4961" style=""/>
<circle cx="4871.26" cy="3388.98" r="31.4961" style=""/>
<circle cx="4671.26" cy="3388.98" r="31.4961" style=""/>
<circle cx="4471.26" cy="3388.98" r="31.4961" style=""/>
<circle cx="4271.26" cy="3388.98" r="31.4961" style=""/>
<circle cx="4271.26" cy="3988.98" r="31.4961" style=""/>
<circle cx="4471.26" cy="3988.98" r="31.4961" style=""/>
<circle cx="4671.26" cy="3988.98" r="31.4961" style=""/>
<circle cx="4871.26" cy="3988.98" r="31.4961" style=""/>
<circle cx="5071.26" cy="3988.98" r="31.4961" style=""/>
<circle cx="5271.26" cy="3988.98" r="31.4961" style=""/>
<circle cx="5471.26" cy="3988.98" r="31.4961" style=""/>
<circle cx="5671.26" cy="3988.98" r="31.4961" style=""/>
<circle cx="3230.31" cy="1268.11" r="31.4961" style=""/>
<circle cx="3230.31" cy="1068.11" r="31.4961" style=""/>
<circle cx="3230.31" cy="868.11" r="31.4961" style=""/>
<circle cx="1803.54" cy="1340.55" r="31.4961" style=""/>
<circle cx="1603.54" cy="1340.55" r="31.4961" style=""/>
<circle cx="1403.54" cy="1340.55" r="31.4961" style=""/>
<circle cx="1203.54" cy="1340.55" r="31.4961" style=""/>
<circle cx="474.409" cy="3387.8" r="31.4961" style=""/>
<circle cx="474.409" cy="1104.33" r="39.3701" style=""/>
<circle cx="474.409" cy="1304.33" r="39.3701" style=""/>
<circle cx="474.409" cy="1504.33" r="39.3701" style=""/>
<circle cx="474.409" cy="1704.33" r="39.3701" style=""/>
<circle cx="474.409" cy="1904.33" r="39.3701" style=""/>
<circle cx="474.409" cy="2104.33" r="39.3701" style=""/>
<circle cx="474.409" cy="2304.33" r="39.3701" style=""/>
<circle cx="474.409" cy="2504.33" r="39.3701" style=""/>
<circle cx="474.409" cy="4096.46" r="39.3701" style=""/>
<circle cx="674.409" cy="4096.46" r="39.3701" style=""/>
<circle cx="874.409" cy="4096.46" r="39.3701" style=""/>
<circle cx="1074.41" cy="4096.46" r="39.3701" style=""/>
<circle cx="3545.28" cy="1704.33" r="39.3701" style=""/>
<circle cx="3545.28" cy="1904.33" r="39.3701" style=""/>
<circle cx="3545.28" cy="2104.33" r="39.3701" style=""/>
<circle cx="3545.28" cy="2304.33" r="39.3701" style=""/>
<circle cx="3545.28" cy="2504.33" r="39.3701" style=""/>
<circle cx="3545.28" cy="1504.33" r="39.3701" style=""/>
<circle cx="3545.28" cy="1304.33" r="39.3701" style=""/>
<circle cx="3545.28" cy="1104.33" r="39.3701" style=""/>
<circle cx="3545.28" cy="789.37" r="39.3701" style=""/>
<circle cx="3945.28" cy="789.37" r="39.3701" style=""/>
<circle cx="7088.58" cy="789.37" r="39.3701" style=""/>
<circle cx="7088.58" cy="1104.33" r="39.3701" style=""/>
<circle cx="7088.58" cy="1304.33" r="39.3701" style=""/>
<circle cx="7088.58" cy="1504.33" r="39.3701" style=""/>
<circle cx="7088.58" cy="1704.33" r="39.3701" style=""/>
<circle cx="7088.58" cy="1904.33" r="39.3701" style=""/>
<circle cx="7088.58" cy="2104.33" r="39.3701" style=""/>
<circle cx="7088.58" cy="2304.33" r="39.3701" style=""/>
<circle cx="7088.58" cy="2504.33" r="39.3701" style=""/>
<circle cx="7797.24" cy="3309.06" r="39.3701" style=""/>
<circle cx="8112.2" cy="3309.06" r="39.3701" style=""/>
<circle cx="8427.17" cy="3302.76" r="39.3701" style=""/>
<circle cx="8742.13" cy="3302.76" r="39.3701" style=""/>
<circle cx="8427.17" cy="3702.76" r="39.3701" style=""/>
<circle cx="8742.13" cy="3702.76" r="39.3701" style=""/>
<circle cx="8488.58" cy="4096.46" r="39.3701" style=""/>
<circle cx="8688.58" cy="4096.46" r="39.3701" style=""/>
<circle cx="8888.58" cy="4096.46" r="39.3701" style=""/>
<circle cx="8288.58" cy="4096.46" r="39.3701" style=""/>
<circle cx="8088.58" cy="4096.46" r="39.3701" style=""/>
<circle cx="7888.58" cy="4096.46" r="39.3701" style=""/>
<circle cx="7688.58" cy="4096.46" r="39.3701" style=""/>
<circle cx="7488.58" cy="4096.46" r="39.3701" style=""/>
<circle cx="7288.58" cy="4096.46" r="39.3701" style=""/>
<circle cx="7088.58" cy="4096.46" r="39.3701" style=""/>
<circle cx="7797.24" cy="3709.06" r="39.3701" style=""/>
<circle cx="8112.2" cy="3709.06" r="39.3701" style=""/>
<circle cx="9608.27" cy="2304.33" r="39.3701" style=""/>
<circle cx="9608.27" cy="2104.33" r="39.3701" style=""/>
<circle cx="9608.27" cy="1904.33" r="39.3701" style=""/>
<circle cx="9608.27" cy="1704.33" r="39.3701" style=""/>
<circle cx="9608.27" cy="1504.33" r="39.3701" style=""/>
<circle cx="9608.27" cy="1304.33" r="39.3701" style=""/>
<circle cx="9608.27" cy="1104.33" r="39.3701" style=""/>
<circle cx="9608.27" cy="2504.33" r="39.3701" style=""/>
<circle cx="9608.27" cy="4096.46" r="39.3701" style=""/>
<circle cx="9808.27" cy="4096.46" r="39.3701" style=""/>
<circle cx="10008.3" cy="4096.46" r="39.3701" style=""/>
<circle cx="10208.3" cy="4096.46" r="39.3701" style=""/>
<circle cx="11455.5" cy="3860.24" r="39.3701" style=""/>
<circle cx="11855.5" cy="3860.24" r="39.3701" style=""/>
<circle cx="11970.5" cy="2504.33" r="39.3701" style=""/>
<circle cx="11970.5" cy="2304.33" r="39.3701" style=""/>
<circle cx="11970.5" cy="2104.33" r="39.3701" style=""/>
<circle cx="11970.5" cy="1904.33" r="39.3701" style=""/>
<circle cx="11970.5" cy="1704.33" r="39.3701" style=""/>
<circle cx="11970.5" cy="1504.33" r="39.3701" style=""/>
<circle cx="11970.5" cy="1304.33" r="39.3701" style=""/>
<circle cx="11970.5" cy="1104.33" r="39.3701" style=""/>
<circle cx="7488.58" cy="789.37" r="39.3701" style=""/>
</svg>
