<?xml version="1.0" standalone="no"?>
<!DOCTYPE svg PUBLIC "-//W3C//DTD SVG 1.1//EN"
"http://www.w3.org/Graphics/SVG/1.1/DTD/svg11.dtd">
<svg width="374.362" height="185.386" viewBox="0 0 7799.21 3862.2" version="1.1"
xmlns="http://www.w3.org/2000/svg"
xmlns:xlink="http://www.w3.org/1999/xlink">
<circle cx="159.449" cy="159.449" r="19.685" style=""/>
<circle cx="1106.06" cy="1673.62" r="19.685" style=""/>
<circle cx="1333.62" cy="1974.65" r="19.685" style=""/>
<circle cx="1612.91" cy="2086.69" r="19.685" style=""/>
<circle cx="4114.41" cy="1663.94" r="19.685" style=""/>
<circle cx="5483.46" cy="1146.85" r="19.685" style=""/>
<circle cx="5658.35" cy="904.094" r="19.685" style=""/>
<circle cx="5869.13" cy="2793.78" r="19.685" style=""/>
<circle cx="1019.29" cy="946.85" r="31.4961" style=""/>
<circle cx="1096.46" cy="1261.81" r="31.4961" style=""/>
<circle cx="1296.46" cy="1261.81" r="31.4961" style=""/>
<circle cx="1496.46" cy="1261.81" r="31.4961" style=""/>
<circle cx="1696.46" cy="1261.81" r="31.4961" style=""/>
<circle cx="1896.46" cy="1261.81" r="31.4961" style=""/>
<circle cx="2096.46" cy="1261.81" r="31.4961" style=""/>
<circle cx="2296.46" cy="1261.81" r="31.4961" style=""/>
<circle cx="2496.46" cy="1261.81" r="31.4961" style=""/>
<circle cx="2696.46" cy="1261.81" r="31.4961" style=""/>
<circle cx="2896.46" cy="1261.81" r="31.4961" style=""/>
<circle cx="3096.46" cy="1261.81" r="31.4961" style=""/>
<circle cx="3296.46" cy="1261.81" r="31.4961" style=""/>
<circle cx="3496.46" cy="1261.81" r="31.4961" style=""/>
<circle cx="3696.46" cy="1261.81" r="31.4961" style=""/>
<circle cx="3896.46" cy="1261.81" r="31.4961" style=""/>
<circle cx="4096.46" cy="1261.81" r="31.4961" style=""/>
<circle cx="5228.74" cy="946.85" r="31.4961" style=""/>
<circle cx="5228.74" cy="1146.85" r="31.4961" style=""/>
<circle cx="5228.74" cy="1346.85" r="31.4961" style=""/>
<circle cx="5228.74" cy="1546.85" r="31.4961" style=""/>
<circle cx="5228.74" cy="1746.85" r="31.4961" style=""/>
<circle cx="5228.74" cy="1946.85" r="31.4961" style=""/>
<circle cx="5228.74" cy="2146.85" r="31.4961" style=""/>
<circle cx="5228.74" cy="2346.85" r="31.4961" style=""/>
<circle cx="5828.74" cy="1746.85" r="31.4961" style=""/>
<circle cx="5828.74" cy="1946.85" r="31.4961" style=""/>
<circle cx="5828.74" cy="2146.85" r="31.4961" style=""/>
<circle cx="5828.74" cy="2346.85" r="31.4961" style=""/>
<circle cx="6567.32" cy="1746.85" r="31.4961" style=""/>
<circle cx="6567.32" cy="1946.85" r="31.4961" style=""/>
<circle cx="6567.32" cy="2146.85" r="31.4961" style=""/>
<circle cx="6567.32" cy="2346.85" r="31.4961" style=""/>
<circle cx="7167.32" cy="1946.85" r="31.4961" style=""/>
<circle cx="7167.32" cy="1746.85" r="31.4961" style=""/>
<circle cx="7167.32" cy="1546.85" r="31.4961" style=""/>
<circle cx="7167.32" cy="1346.85" r="31.4961" style=""/>
<circle cx="7167.32" cy="1146.85" r="31.4961" style=""/>
<circle cx="7167.32" cy="946.85" r="31.4961" style=""/>
<circle cx="6567.32" cy="946.85" r="31.4961" style=""/>
<circle cx="6567.32" cy="1146.85" r="31.4961" style=""/>
<circle cx="6567.32" cy="1346.85" r="31.4961" style=""/>
<circle cx="6567.32" cy="1546.85" r="31.4961" style=""/>
<circle cx="7167.32" cy="2146.85" r="31.4961" style=""/>
<circle cx="7167.32" cy="2346.85" r="31.4961" style=""/>
<circle cx="5828.74" cy="1146.85" r="31.4961" style=""/>
<circle cx="5828.74" cy="946.85" r="31.4961" style=""/>
<circle cx="5828.74" cy="1346.85" r="31.4961" style=""/>
<circle cx="5828.74" cy="1546.85" r="31.4961" style=""/>
<circle cx="4096.46" cy="2461.81" r="31.4961" style=""/>
<circle cx="3896.46" cy="2461.81" r="31.4961" style=""/>
<circle cx="3696.46" cy="2461.81" r="31.4961" style=""/>
<circle cx="3496.46" cy="2461.81" r="31.4961" style=""/>
<circle cx="3296.46" cy="2461.81" r="31.4961" style=""/>
<circle cx="3096.46" cy="2461.81" r="31.4961" style=""/>
<circle cx="2896.46" cy="2461.81" r="31.4961" style=""/>
<circle cx="2696.46" cy="2461.81" r="31.4961" style=""/>
<circle cx="2496.46" cy="2461.81" r="31.4961" style=""/>
<circle cx="2296.46" cy="2461.81" r="31.4961" style=""/>
<circle cx="2096.46" cy="2461.81" r="31.4961" style=""/>
<circle cx="1896.46" cy="2461.81" r="31.4961" style=""/>
<circle cx="1696.46" cy="2461.81" r="31.4961" style=""/>
<circle cx="1496.46" cy="2461.81" r="31.4961" style=""/>
<circle cx="1296.46" cy="2461.81" r="31.4961" style=""/>
<circle cx="1096.46" cy="2461.81" r="31.4961" style=""/>
<circle cx="1819.29" cy="946.85" r="31.4961" style=""/>
<circle cx="474.409" cy="787.795" r="39.3701" style=""/>
<circle cx="474.409" cy="987.795" r="39.3701" style=""/>
<circle cx="474.409" cy="1187.8" r="39.3701" style=""/>
<circle cx="474.409" cy="1387.8" r="39.3701" style=""/>
<circle cx="474.409" cy="1587.8" r="39.3701" style=""/>
<circle cx="474.409" cy="1787.8" r="39.3701" style=""/>
<circle cx="474.409" cy="1987.8" r="39.3701" style=""/>
<circle cx="474.409" cy="2187.8" r="39.3701" style=""/>
<circle cx="474.409" cy="2387.8" r="39.3701" style=""/>
<circle cx="474.409" cy="2587.8" r="39.3701" style=""/>
<circle cx="474.409" cy="2787.8" r="39.3701" style=""/>
<circle cx="474.409" cy="2987.8" r="39.3701" style=""/>
<circle cx="474.409" cy="3187.8" r="39.3701" style=""/>
<circle cx="474.409" cy="3387.8" r="39.3701" style=""/>
<circle cx="2521.65" cy="3387.8" r="39.3701" style=""/>
<circle cx="2721.65" cy="3387.8" r="39.3701" style=""/>
<circle cx="2921.65" cy="3387.8" r="39.3701" style=""/>
<circle cx="3121.65" cy="3387.8" r="39.3701" style=""/>
<circle cx="3321.65" cy="3387.8" r="39.3701" style=""/>
<circle cx="3521.65" cy="3387.8" r="39.3701" style=""/>
<circle cx="3721.65" cy="3387.8" r="39.3701" style=""/>
<circle cx="3921.65" cy="3387.8" r="39.3701" style=""/>
<circle cx="4121.65" cy="3387.8" r="39.3701" style=""/>
<circle cx="4321.65" cy="3387.8" r="39.3701" style=""/>
<circle cx="4521.65" cy="3387.8" r="39.3701" style=""/>
<circle cx="4721.65" cy="3387.8" r="39.3701" style=""/>
<circle cx="4921.65" cy="3387.8" r="39.3701" style=""/>
<circle cx="5121.65" cy="3387.8" r="39.3701" style=""/>
<circle cx="5321.65" cy="3387.8" r="39.3701" style=""/>
<circle cx="5521.65" cy="3387.8" r="39.3701" style=""/>
<circle cx="5721.65" cy="3387.8" r="39.3701" style=""/>
<circle cx="5921.65" cy="3387.8" r="39.3701" style=""/>
<circle cx="6121.65" cy="3387.8" r="39.3701" style=""/>
<circle cx="6321.65" cy="3387.8" r="39.3701" style=""/>
<circle cx="6521.65" cy="3387.8" r="39.3701" style=""/>
<circle cx="6721.65" cy="3387.8" r="39.3701" style=""/>
<circle cx="6921.65" cy="3387.8" r="39.3701" style=""/>
<circle cx="7121.65" cy="3387.8" r="39.3701" style=""/>
</svg>
