<?xml version="1.0" standalone="no"?>
<!DOCTYPE svg PUBLIC "-//W3C//DTD SVG 1.1//EN"
"http://www.w3.org/Graphics/SVG/1.1/DTD/svg11.dtd">
<svg width="382.881" height="193.905" viewBox="0 0 7976.69 4039.69" version="1.1"
xmlns="http://www.w3.org/2000/svg"
xmlns:xlink="http://www.w3.org/1999/xlink">
<circle cx="248.189" cy="248.189" r="19.685" style=""/>
<circle cx="1194.8" cy="1762.36" r="19.685" style=""/>
<circle cx="1422.36" cy="2063.39" r="19.685" style=""/>
<circle cx="1701.65" cy="2175.43" r="19.685" style=""/>
<circle cx="4203.15" cy="1752.68" r="19.685" style=""/>
<circle cx="5572.2" cy="1235.59" r="19.685" style=""/>
<circle cx="5747.09" cy="992.835" r="19.685" style=""/>
<circle cx="5957.87" cy="2882.52" r="19.685" style=""/>
<circle cx="1108.03" cy="1035.59" r="31.4961" style=""/>
<circle cx="1185.2" cy="1350.55" r="31.4961" style=""/>
<circle cx="1385.2" cy="1350.55" r="31.4961" style=""/>
<circle cx="1585.2" cy="1350.55" r="31.4961" style=""/>
<circle cx="1785.2" cy="1350.55" r="31.4961" style=""/>
<circle cx="1985.2" cy="1350.55" r="31.4961" style=""/>
<circle cx="2185.2" cy="1350.55" r="31.4961" style=""/>
<circle cx="2385.2" cy="1350.55" r="31.4961" style=""/>
<circle cx="2585.2" cy="1350.55" r="31.4961" style=""/>
<circle cx="2785.2" cy="1350.55" r="31.4961" style=""/>
<circle cx="2985.2" cy="1350.55" r="31.4961" style=""/>
<circle cx="3185.2" cy="1350.55" r="31.4961" style=""/>
<circle cx="3385.2" cy="1350.55" r="31.4961" style=""/>
<circle cx="3585.2" cy="1350.55" r="31.4961" style=""/>
<circle cx="3785.2" cy="1350.55" r="31.4961" style=""/>
<circle cx="3985.2" cy="1350.55" r="31.4961" style=""/>
<circle cx="4185.2" cy="1350.55" r="31.4961" style=""/>
<circle cx="5317.48" cy="1035.59" r="31.4961" style=""/>
<circle cx="5317.48" cy="1235.59" r="31.4961" style=""/>
<circle cx="5317.48" cy="1435.59" r="31.4961" style=""/>
<circle cx="5317.48" cy="1635.59" r="31.4961" style=""/>
<circle cx="5317.48" cy="1835.59" r="31.4961" style=""/>
<circle cx="5317.48" cy="2035.59" r="31.4961" style=""/>
<circle cx="5317.48" cy="2235.59" r="31.4961" style=""/>
<circle cx="5317.48" cy="2435.59" r="31.4961" style=""/>
<circle cx="5917.48" cy="1835.59" r="31.4961" style=""/>
<circle cx="5917.48" cy="2035.59" r="31.4961" style=""/>
<circle cx="5917.48" cy="2235.59" r="31.4961" style=""/>
<circle cx="5917.48" cy="2435.59" r="31.4961" style=""/>
<circle cx="6656.06" cy="1835.59" r="31.4961" style=""/>
<circle cx="6656.06" cy="2035.59" r="31.4961" style=""/>
<circle cx="6656.06" cy="2235.59" r="31.4961" style=""/>
<circle cx="6656.06" cy="2435.59" r="31.4961" style=""/>
<circle cx="7256.06" cy="2035.59" r="31.4961" style=""/>
<circle cx="7256.06" cy="1835.59" r="31.4961" style=""/>
<circle cx="7256.06" cy="1635.59" r="31.4961" style=""/>
<circle cx="7256.06" cy="1435.59" r="31.4961" style=""/>
<circle cx="7256.06" cy="1235.59" r="31.4961" style=""/>
<circle cx="7256.06" cy="1035.59" r="31.4961" style=""/>
<circle cx="6656.06" cy="1035.59" r="31.4961" style=""/>
<circle cx="6656.06" cy="1235.59" r="31.4961" style=""/>
<circle cx="6656.06" cy="1435.59" r="31.4961" style=""/>
<circle cx="6656.06" cy="1635.59" r="31.4961" style=""/>
<circle cx="7256.06" cy="2235.59" r="31.4961" style=""/>
<circle cx="7256.06" cy="2435.59" r="31.4961" style=""/>
<circle cx="5917.48" cy="1235.59" r="31.4961" style=""/>
<circle cx="5917.48" cy="1035.59" r="31.4961" style=""/>
<circle cx="5917.48" cy="1435.59" r="31.4961" style=""/>
<circle cx="5917.48" cy="1635.59" r="31.4961" style=""/>
<circle cx="4185.2" cy="2550.55" r="31.4961" style=""/>
<circle cx="3985.2" cy="2550.55" r="31.4961" style=""/>
<circle cx="3785.2" cy="2550.55" r="31.4961" style=""/>
<circle cx="3585.2" cy="2550.55" r="31.4961" style=""/>
<circle cx="3385.2" cy="2550.55" r="31.4961" style=""/>
<circle cx="3185.2" cy="2550.55" r="31.4961" style=""/>
<circle cx="2985.2" cy="2550.55" r="31.4961" style=""/>
<circle cx="2785.2" cy="2550.55" r="31.4961" style=""/>
<circle cx="2585.2" cy="2550.55" r="31.4961" style=""/>
<circle cx="2385.2" cy="2550.55" r="31.4961" style=""/>
<circle cx="2185.2" cy="2550.55" r="31.4961" style=""/>
<circle cx="1985.2" cy="2550.55" r="31.4961" style=""/>
<circle cx="1785.2" cy="2550.55" r="31.4961" style=""/>
<circle cx="1585.2" cy="2550.55" r="31.4961" style=""/>
<circle cx="1385.2" cy="2550.55" r="31.4961" style=""/>
<circle cx="1185.2" cy="2550.55" r="31.4961" style=""/>
<circle cx="1908.03" cy="1035.59" r="31.4961" style=""/>
<circle cx="563.15" cy="876.535" r="39.3701" style=""/>
<circle cx="563.15" cy="1076.54" r="39.3701" style=""/>
<circle cx="563.15" cy="1276.54" r="39.3701" style=""/>
<circle cx="563.15" cy="1476.54" r="39.3701" style=""/>
<circle cx="563.15" cy="1676.54" r="39.3701" style=""/>
<circle cx="563.15" cy="1876.54" r="39.3701" style=""/>
<circle cx="563.15" cy="2076.54" r="39.3701" style=""/>
<circle cx="563.15" cy="2276.54" r="39.3701" style=""/>
<circle cx="563.15" cy="2476.54" r="39.3701" style=""/>
<circle cx="563.15" cy="2676.54" r="39.3701" style=""/>
<circle cx="563.15" cy="2876.54" r="39.3701" style=""/>
<circle cx="563.15" cy="3076.54" r="39.3701" style=""/>
<circle cx="563.15" cy="3276.54" r="39.3701" style=""/>
<circle cx="563.15" cy="3476.54" r="39.3701" style=""/>
<circle cx="2610.39" cy="3476.54" r="39.3701" style=""/>
<circle cx="2810.39" cy="3476.54" r="39.3701" style=""/>
<circle cx="3010.39" cy="3476.54" r="39.3701" style=""/>
<circle cx="3210.39" cy="3476.54" r="39.3701" style=""/>
<circle cx="3410.39" cy="3476.54" r="39.3701" style=""/>
<circle cx="3610.39" cy="3476.54" r="39.3701" style=""/>
<circle cx="3810.39" cy="3476.54" r="39.3701" style=""/>
<circle cx="4010.39" cy="3476.54" r="39.3701" style=""/>
<circle cx="4210.39" cy="3476.54" r="39.3701" style=""/>
<circle cx="4410.39" cy="3476.54" r="39.3701" style=""/>
<circle cx="4610.39" cy="3476.54" r="39.3701" style=""/>
<circle cx="4810.39" cy="3476.54" r="39.3701" style=""/>
<circle cx="5010.39" cy="3476.54" r="39.3701" style=""/>
<circle cx="5210.39" cy="3476.54" r="39.3701" style=""/>
<circle cx="5410.39" cy="3476.54" r="39.3701" style=""/>
<circle cx="5610.39" cy="3476.54" r="39.3701" style=""/>
<circle cx="5810.39" cy="3476.54" r="39.3701" style=""/>
<circle cx="6010.39" cy="3476.54" r="39.3701" style=""/>
<circle cx="6210.39" cy="3476.54" r="39.3701" style=""/>
<circle cx="6410.39" cy="3476.54" r="39.3701" style=""/>
<circle cx="6610.39" cy="3476.54" r="39.3701" style=""/>
<circle cx="6810.39" cy="3476.54" r="39.3701" style=""/>
<circle cx="7010.39" cy="3476.54" r="39.3701" style=""/>
<circle cx="7210.39" cy="3476.54" r="39.3701" style=""/>
</svg>
