<?xml version="1.0" standalone="no"?>
<!DOCTYPE svg PUBLIC "-//W3C//DTD SVG 1.1//EN"
"http://www.w3.org/Graphics/SVG/1.1/DTD/svg11.dtd">
<svg width="382.881" height="193.905" viewBox="0 0 7976.69 4039.69" version="1.1"
xmlns="http://www.w3.org/2000/svg"
xmlns:xlink="http://www.w3.org/1999/xlink">
<g fill-rule="evenodd"><path d="M 248.189,248.189 L 287.559,248.189 L 286.803,255.87 L 284.562,263.255 L 280.924,270.062 L 276.028,276.028 L 270.062,280.924 L 263.255,284.562 L 255.87,286.803 L 248.189,287.559 L 248.189,248.189 z " style="fill-opacity:1.000000;fill:rgb(103,198,105);stroke:rgb(0,0,0);stroke-width:2"/></g>
<g fill-rule="evenodd"><path d="M 496.22,3543.46 L 496.22,3409.61 L 630.079,3409.61 L 630.079,3543.46 L 496.22,3543.46 z " style="fill-opacity:1.000000;fill:rgb(115,81,255);stroke:rgb(0,0,0);stroke-width:2"/></g>
<g fill-rule="evenodd"><path d="M 496.22,3276.54 L 497.506,3263.48 L 501.315,3250.92 L 507.5,3239.35 L 515.824,3229.21 L 525.966,3220.89 L 537.537,3214.7 L 550.092,3210.89 L 563.15,3209.61 L 576.207,3210.89 L 588.762,3214.7 L 600.333,3220.89 L 610.476,3229.21 L 618.799,3239.35 L 624.984,3250.92 L 627.976,3260.79 L 686.554,3260.79 L 1281.93,2665.41 L 1284.32,2663.45 L 1287.04,2661.99 L 1290,2661.1 L 1293.07,2660.79 L 1369.45,2660.79 L 1369.45,2611.28 L 1361.09,2608.75 L 1350.2,2602.93 L 1340.65,2595.09 L 1332.82,2585.55 L 1327,2574.66 L 1323.42,2562.84 L 1322.2,2550.55 L 1323.42,2538.26 L 1327,2526.45 L 1332.82,2515.55 L 1340.65,2506.01 L 1350.2,2498.18 L 1361.09,2492.35 L 1372.91,2488.77 L 1385.2,2487.56 L 1397.49,2488.77 L 1409.3,2492.35 L 1420.19,2498.18 L 1429.74,2506.01 L 1437.57,2515.55 L 1443.39,2526.45 L 1446.98,2538.26 L 1448.19,2550.55 L 1446.98,2562.84 L 1443.39,2574.66 L 1437.57,2585.55 L 1429.74,2595.09 L 1420.19,2602.93 L 1409.3,2608.75 L 1400.94,2611.28 L 1400.94,2676.54 L 1400.64,2679.62 L 1399.74,2682.57 L 1398.29,2685.29 L 1396.33,2687.68 L 1393.94,2689.64 L 1391.22,2691.09 L 1388.27,2691.99 L 1385.19,2692.29 L 1299.59,2692.29 L 702.333,3289.28 L 697.943,3291.51 L 693.077,3292.28 L 627.976,3292.28 L 624.984,3302.15 L 618.799,3313.72 L 610.476,3323.86 L 600.333,3332.18 L 588.762,3338.37 L 576.207,3342.18 L 563.15,3343.46 L 550.092,3342.18 L 537.537,3338.37 L 525.966,3332.18 L 515.824,3323.86 L 507.5,3313.72 L 501.315,3302.15 L 497.506,3289.59 L 496.22,3276.54 z " style="fill-opacity:1.000000;fill:rgb(74,236,41);stroke:rgb(0,0,0);stroke-width:2"/></g>
<g fill-rule="evenodd"><path d="M 496.22,3076.54 L 497.506,3063.48 L 501.315,3050.92 L 507.5,3039.35 L 515.824,3029.21 L 525.966,3020.89 L 537.537,3014.7 L 550.092,3010.89 L 563.15,3009.61 L 576.207,3010.89 L 588.762,3014.7 L 600.333,3020.89 L 610.476,3029.21 L 618.799,3039.35 L 624.984,3050.92 L 628.793,3063.48 L 630.079,3076.54 L 628.793,3089.59 L 624.984,3102.15 L 618.799,3113.72 L 610.476,3123.86 L 600.333,3132.18 L 588.762,3138.37 L 576.207,3142.18 L 563.15,3143.46 L 550.092,3142.18 L 537.537,3138.37 L 525.966,3132.18 L 515.824,3123.86 L 507.5,3113.72 L 501.315,3102.15 L 497.506,3089.59 L 496.22,3076.54 z " style="fill-opacity:1.000000;fill:rgb(205,186,171);stroke:rgb(0,0,0);stroke-width:2"/></g>
<g fill-rule="evenodd"><path d="M 496.22,2876.54 L 497.506,2863.48 L 501.315,2850.92 L 507.5,2839.35 L 515.824,2829.21 L 525.966,2820.89 L 537.537,2814.7 L 550.092,2810.89 L 563.15,2809.61 L 576.207,2810.89 L 588.762,2814.7 L 600.333,2820.89 L 610.476,2829.21 L 618.799,2839.35 L 624.984,2850.92 L 628.793,2863.48 L 630.079,2876.54 L 628.793,2889.59 L 624.984,2902.15 L 618.799,2913.72 L 610.476,2923.86 L 600.333,2932.18 L 588.762,2938.37 L 576.207,2942.18 L 563.15,2943.46 L 550.092,2942.18 L 537.537,2938.37 L 525.966,2932.18 L 515.824,2923.86 L 507.5,2913.72 L 501.315,2902.15 L 497.506,2889.59 L 496.22,2876.54 z " style="fill-opacity:1.000000;fill:rgb(242,251,227);stroke:rgb(0,0,0);stroke-width:2"/></g>
<g fill-rule="evenodd"><path d="M 496.22,2676.54 L 497.506,2663.48 L 501.315,2650.92 L 507.5,2639.35 L 515.824,2629.21 L 525.966,2620.89 L 537.537,2614.7 L 550.092,2610.89 L 563.15,2609.61 L 576.207,2610.89 L 588.762,2614.7 L 600.333,2620.89 L 610.476,2629.21 L 618.799,2639.35 L 624.984,2650.92 L 627.976,2660.79 L 686.554,2660.79 L 1104.28,2243.06 L 1108.27,2240.16 L 1112.95,2238.64 L 1115.42,2238.45 L 1616.37,2238.45 L 1665.05,2189.77 L 1663.03,2183.13 L 1662.28,2175.45 L 1663.03,2167.77 L 1665.27,2160.38 L 1668.91,2153.58 L 1673.81,2147.61 L 1679.77,2142.71 L 1686.58,2139.08 L 1693.96,2136.84 L 1701.65,2136.08 L 1709.33,2136.84 L 1716.71,2139.08 L 1723.52,2142.71 L 1729.48,2147.61 L 1734.38,2153.58 L 1738.02,2160.38 L 1740.26,2167.77 L 1741.02,2175.45 L 1740.26,2183.13 L 1738.02,2190.52 L 1734.38,2197.32 L 1729.48,2203.29 L 1723.52,2208.18 L 1716.71,2211.82 L 1709.33,2214.06 L 1701.65,2214.82 L 1693.96,2214.06 L 1687.32,2212.05 L 1634.03,2265.33 L 1631.65,2267.29 L 1628.92,2268.74 L 1625.97,2269.64 L 1622.9,2269.94 L 1121.94,2269.94 L 702.333,2689.28 L 697.943,2691.51 L 693.077,2692.28 L 627.977,2692.28 L 624.984,2702.15 L 618.799,2713.72 L 610.476,2723.86 L 600.333,2732.18 L 588.762,2738.37 L 576.207,2742.18 L 563.15,2743.46 L 550.092,2742.18 L 537.537,2738.37 L 525.966,2732.18 L 515.824,2723.86 L 507.5,2713.72 L 501.315,2702.15 L 497.506,2689.59 L 496.22,2676.54 z " style="fill-opacity:1.000000;fill:rgb(70,124,194);stroke:rgb(0,0,0);stroke-width:2"/></g>
<g fill-rule="evenodd"><path d="M 496.22,2476.54 L 497.506,2463.48 L 501.315,2450.92 L 507.5,2439.35 L 515.824,2429.21 L 525.966,2420.89 L 537.537,2414.7 L 550.092,2410.89 L 563.15,2409.61 L 576.207,2410.89 L 588.762,2414.7 L 600.333,2420.89 L 610.476,2429.21 L 618.799,2439.35 L 624.984,2450.92 L 628.793,2463.48 L 630.079,2476.54 L 628.793,2489.59 L 624.984,2502.15 L 618.799,2513.72 L 610.476,2523.86 L 600.333,2532.18 L 588.762,2538.37 L 576.207,2542.18 L 563.15,2543.46 L 550.092,2542.18 L 537.537,2538.37 L 525.966,2532.18 L 515.824,2523.86 L 507.5,2513.72 L 501.315,2502.15 L 497.506,2489.59 L 496.22,2476.54 z " style="fill-opacity:1.000000;fill:rgb(84,248,27);stroke:rgb(0,0,0);stroke-width:2"/></g>
<g fill-rule="evenodd"><path d="M 496.22,2276.54 L 497.506,2263.48 L 501.315,2250.92 L 507.5,2239.35 L 515.824,2229.21 L 525.966,2220.89 L 537.537,2214.7 L 550.092,2210.89 L 563.15,2209.61 L 576.207,2210.89 L 588.762,2214.7 L 600.333,2220.89 L 610.476,2229.21 L 618.799,2239.35 L 624.984,2250.92 L 627.976,2260.79 L 686.554,2260.79 L 783.037,2164.3 L 787.024,2161.41 L 791.709,2159.88 L 1522.63,2159.69 L 1836.27,1846.05 L 1838.66,1844.09 L 1841.38,1842.64 L 1844.34,1841.74 L 1847.41,1841.44 L 4501.71,1841.44 L 4504.78,1841.74 L 4507.73,1842.64 L 4510.46,1844.09 L 4512.84,1846.05 L 5214.58,2547.79 L 5457.02,2547.79 L 5782.23,2222.85 L 5786.62,2220.61 L 5791.49,2219.84 L 5856.75,2219.84 L 5859.28,2211.48 L 5865.1,2200.59 L 5872.94,2191.05 L 5882.48,2183.21 L 5893.37,2177.39 L 5905.19,2173.81 L 5917.48,2172.6 L 5929.77,2173.81 L 5941.59,2177.39 L 5952.48,2183.21 L 5962.02,2191.05 L 5969.86,2200.59 L 5975.68,2211.48 L 5978.21,2219.84 L 6043.47,2219.84 L 6048.34,2220.61 L 6052.73,2222.85 L 6454.77,2624.61 L 6736.07,2624.61 L 7114.32,2246.37 L 7114.32,2235.59 L 7114.62,2232.52 L 7115.52,2229.56 L 7116.97,2226.84 L 7118.93,2224.45 L 7121.32,2222.49 L 7124.04,2221.04 L 7127,2220.14 L 7130.07,2219.84 L 7195.33,2219.84 L 7197.87,2211.48 L 7203.69,2200.59 L 7211.52,2191.05 L 7221.07,2183.21 L 7231.96,2177.39 L 7243.77,2173.81 L 7256.06,2172.6 L 7268.35,2173.81 L 7280.17,2177.39 L 7291.06,2183.21 L 7300.61,2191.05 L 7308.44,2200.59 L 7314.26,2211.48 L 7317.84,2223.3 L 7319.06,2235.59 L 7317.84,2247.88 L 7314.26,2259.7 L 7308.44,2270.59 L 7300.61,2280.13 L 7291.06,2287.97 L 7280.17,2293.79 L 7268.35,2297.37 L 7256.06,2298.58 L 7243.77,2297.37 L 7231.96,2293.79 L 7221.07,2287.97 L 7211.52,2280.13 L 7203.69,2270.59 L 7197.87,2259.7 L 7195.33,2251.34 L 7145.82,2251.34 L 7145.51,2255.96 L 7144.62,2258.92 L 7143.16,2261.64 L 7141.2,2264.02 L 6753.73,2651.5 L 6749.75,2654.39 L 6747.46,2655.34 L 6742.6,2656.11 L 6448.24,2656.11 L 6443.38,2655.34 L 6441.09,2654.39 L 6437.11,2651.5 L 6036.95,2251.34 L 5978.21,2251.34 L 5975.68,2259.7 L 5969.86,2270.59 L 5962.02,2280.13 L 5952.48,2287.97 L 5941.59,2293.79 L 5929.77,2297.37 L 5917.48,2298.58 L 5905.19,2297.37 L 5893.37,2293.79 L 5882.48,2287.97 L 5872.94,2280.13 L 5865.1,2270.59 L 5859.28,2259.7 L 5856.75,2251.34 L 5798.01,2251.34 L 5474.68,2574.67 L 5470.69,2577.57 L 5468.41,2578.51 L 5463.54,2579.28 L 5208.05,2579.28 L 5204.98,2578.98 L 5202.03,2578.08 L 5199.31,2576.63 L 5196.92,2574.67 L 4495.18,1872.94 L 1853.93,1872.94 L 1540.29,2186.57 L 1537.91,2188.53 L 1535.18,2189.99 L 1532.23,2190.88 L 1529.16,2191.19 L 800.696,2191.19 L 702.333,2289.28 L 697.943,2291.51 L 693.077,2292.28 L 627.976,2292.28 L 624.984,2302.15 L 618.799,2313.72 L 610.476,2323.86 L 600.333,2332.18 L 588.762,2338.37 L 576.207,2342.18 L 563.15,2343.46 L 550.092,2342.18 L 537.537,2338.37 L 525.966,2332.18 L 515.824,2323.86 L 507.5,2313.72 L 501.315,2302.15 L 497.506,2289.59 L 496.22,2276.54 z " style="fill-opacity:1.000000;fill:rgb(232,231,141);stroke:rgb(0,0,0);stroke-width:2"/></g>
<g fill-rule="evenodd"><path d="M 496.22,2076.54 L 497.506,2063.48 L 501.315,2050.92 L 507.5,2039.35 L 515.824,2029.21 L 525.966,2020.89 L 537.537,2014.7 L 550.092,2010.89 L 563.15,2009.61 L 576.207,2010.89 L 588.762,2014.7 L 600.333,2020.89 L 610.476,2029.21 L 618.799,2039.35 L 624.984,2050.92 L 627.976,2060.79 L 1383.22,2060.79 L 1383.72,2055.69 L 1385.97,2048.3 L 1389.6,2041.5 L 1394.5,2035.53 L 1400.47,2030.64 L 1407.27,2027 L 1414.66,2024.76 L 1422.34,2024 L 1430.02,2024.76 L 1437.4,2027 L 1444.21,2030.64 L 1450.18,2035.53 L 1455.07,2041.5 L 1458.71,2048.3 L 1460.95,2055.69 L 1461.71,2063.37 L 1460.95,2071.05 L 1458.71,2078.44 L 1455.07,2085.24 L 1450.18,2091.21 L 1444.21,2096.11 L 1437.4,2099.74 L 1430.02,2101.98 L 1422.34,2102.74 L 1414.66,2101.98 L 1407.27,2099.74 L 1400.47,2096.11 L 1395.81,2092.28 L 627.977,2092.28 L 624.984,2102.15 L 618.799,2113.72 L 610.476,2123.86 L 600.333,2132.18 L 588.762,2138.37 L 576.207,2142.18 L 563.15,2143.46 L 550.092,2142.18 L 537.537,2138.37 L 525.966,2132.18 L 515.824,2123.86 L 507.5,2113.72 L 501.315,2102.15 L 497.506,2089.59 L 496.22,2076.54 z " style="fill-opacity:1.000000;fill:rgb(118,90,46);stroke:rgb(0,0,0);stroke-width:2"/></g>
<g fill-rule="evenodd"><path d="M 496.22,1876.54 L 497.506,1863.48 L 501.315,1850.92 L 507.5,1839.35 L 515.824,1829.21 L 525.966,1820.89 L 537.537,1814.7 L 550.092,1810.89 L 563.15,1809.61 L 576.207,1810.89 L 588.762,1814.7 L 600.333,1820.89 L 610.476,1829.21 L 618.799,1839.35 L 624.984,1850.92 L 627.976,1860.79 L 1452.69,1860.79 L 1931.12,1382.36 L 1927,1374.66 L 1923.42,1362.84 L 1922.2,1350.55 L 1923.42,1338.26 L 1927,1326.45 L 1932.82,1315.55 L 1940.65,1306.01 L 1950.2,1298.18 L 1961.09,1292.35 L 1972.91,1288.77 L 1985.2,1287.56 L 1997.49,1288.77 L 2009.3,1292.35 L 2020.19,1298.18 L 2029.74,1306.01 L 2037.57,1315.55 L 2043.39,1326.45 L 2046.98,1338.26 L 2048.19,1350.55 L 2046.98,1362.84 L 2043.39,1374.66 L 2037.57,1385.55 L 2029.74,1395.09 L 2020.19,1402.93 L 2009.3,1408.75 L 1997.49,1412.33 L 1985.2,1413.54 L 1972.91,1412.33 L 1961.09,1408.75 L 1953.39,1404.63 L 1470.35,1887.67 L 1467.96,1889.63 L 1465.24,1891.08 L 1462.28,1891.98 L 1459.21,1892.28 L 627.976,1892.28 L 624.984,1902.15 L 618.799,1913.72 L 610.476,1923.86 L 600.333,1932.18 L 588.762,1938.37 L 576.207,1942.18 L 563.15,1943.46 L 550.092,1942.18 L 537.537,1938.37 L 525.966,1932.18 L 515.824,1923.86 L 507.5,1913.72 L 501.315,1902.15 L 497.506,1889.59 L 496.22,1876.54 z " style="fill-opacity:1.000000;fill:rgb(99,51,159);stroke:rgb(0,0,0);stroke-width:2"/></g>
<g fill-rule="evenodd"><path d="M 496.22,1676.54 L 497.506,1663.48 L 501.315,1650.92 L 507.5,1639.35 L 515.824,1629.21 L 525.966,1620.89 L 537.537,1614.7 L 550.092,1610.89 L 563.15,1609.61 L 576.207,1610.89 L 588.762,1614.7 L 600.333,1620.89 L 610.476,1629.21 L 618.799,1639.35 L 624.984,1650.92 L 627.976,1660.79 L 1108.97,1660.79 L 1112.05,1661.09 L 1115,1661.99 L 1117.72,1663.44 L 1120.11,1665.4 L 1180.48,1725.76 L 1187.12,1723.75 L 1194.8,1722.99 L 1202.48,1723.75 L 1209.87,1725.99 L 1216.68,1729.63 L 1222.64,1734.52 L 1227.54,1740.49 L 1231.18,1747.3 L 1233.42,1754.68 L 1234.17,1762.36 L 1233.42,1770.04 L 1231.18,1777.43 L 1227.54,1784.24 L 1222.64,1790.2 L 1216.68,1795.1 L 1209.87,1798.74 L 1202.48,1800.98 L 1194.8,1801.73 L 1187.12,1800.98 L 1179.74,1798.74 L 1172.93,1795.1 L 1166.96,1790.2 L 1162.07,1784.24 L 1158.43,1777.43 L 1156.19,1770.04 L 1155.43,1762.36 L 1156.19,1754.68 L 1158.21,1748.04 L 1102.45,1692.28 L 627.977,1692.28 L 624.984,1702.15 L 618.799,1713.72 L 610.476,1723.86 L 600.333,1732.18 L 588.762,1738.37 L 576.207,1742.18 L 563.15,1743.46 L 550.092,1742.18 L 537.537,1738.37 L 525.966,1732.18 L 515.824,1723.86 L 507.5,1713.72 L 501.315,1702.15 L 497.506,1689.59 L 496.22,1676.54 z " style="fill-opacity:1.000000;fill:rgb(201,154,102);stroke:rgb(0,0,0);stroke-width:2"/></g>
<g fill-rule="evenodd"><path d="M 496.22,1476.54 L 497.506,1463.48 L 501.315,1450.92 L 507.5,1439.35 L 515.824,1429.21 L 525.966,1420.89 L 537.537,1414.7 L 550.092,1410.89 L 563.15,1409.61 L 576.207,1410.89 L 588.762,1414.7 L 600.333,1420.89 L 610.476,1429.21 L 618.799,1439.35 L 624.984,1450.92 L 627.977,1460.79 L 1252.68,1460.79 L 1331.12,1382.36 L 1327,1374.66 L 1323.42,1362.84 L 1322.2,1350.55 L 1323.42,1338.26 L 1327,1326.45 L 1332.82,1315.55 L 1340.65,1306.01 L 1350.2,1298.18 L 1361.09,1292.35 L 1372.91,1288.77 L 1385.2,1287.56 L 1397.49,1288.77 L 1409.3,1292.35 L 1420.19,1298.18 L 1429.74,1306.01 L 1437.57,1315.55 L 1443.39,1326.45 L 1446.98,1338.26 L 1448.19,1350.55 L 1446.98,1362.84 L 1443.39,1374.66 L 1437.57,1385.55 L 1429.74,1395.09 L 1420.19,1402.93 L 1409.3,1408.75 L 1397.49,1412.33 L 1385.2,1413.54 L 1372.91,1412.33 L 1361.09,1408.75 L 1353.39,1404.63 L 1270.34,1487.68 L 1266.35,1490.57 L 1261.67,1492.1 L 627.976,1492.28 L 624.984,1502.15 L 618.799,1513.72 L 610.476,1523.86 L 600.333,1532.18 L 588.762,1538.37 L 576.207,1542.18 L 563.15,1543.46 L 550.092,1542.18 L 537.537,1538.37 L 525.966,1532.18 L 515.824,1523.86 L 507.5,1513.72 L 501.315,1502.15 L 497.506,1489.59 L 496.22,1476.54 z " style="fill-opacity:1.000000;fill:rgb(50,13,183);stroke:rgb(0,0,0);stroke-width:2"/></g>
<g fill-rule="evenodd"><path d="M 496.22,1276.54 L 497.506,1263.48 L 501.315,1250.92 L 507.5,1239.35 L 515.824,1229.21 L 525.966,1220.89 L 537.537,1214.7 L 550.092,1210.89 L 563.15,1209.61 L 576.207,1210.89 L 588.762,1214.7 L 600.333,1220.89 L 610.476,1229.21 L 618.799,1239.35 L 624.984,1250.92 L 627.976,1260.79 L 680.202,1260.79 L 681.941,1258.67 L 1445.1,495.509 L 1447.49,493.551 L 1450.21,492.096 L 1453.16,491.2 L 1456.23,490.897 L 6907.97,490.897 L 6911.04,491.2 L 6913.99,492.096 L 6916.72,493.551 L 6919.1,495.509 L 7393.29,969.697 L 7396.19,973.684 L 7397.71,978.369 L 7397.91,980.833 L 7397.91,1309.49 L 7397.71,1311.96 L 7396.19,1316.64 L 7393.29,1320.63 L 7310.14,1403.78 L 7314.26,1411.48 L 7317.84,1423.3 L 7319.06,1435.59 L 7317.84,1447.88 L 7314.26,1459.7 L 7308.44,1470.59 L 7300.61,1480.13 L 7291.06,1487.97 L 7280.17,1493.79 L 7268.35,1497.37 L 7256.06,1498.58 L 7243.77,1497.37 L 7231.96,1493.79 L 7224.25,1489.67 L 7145.82,1568.1 L 7145.82,1819.84 L 7195.33,1819.84 L 7197.87,1811.48 L 7203.69,1800.59 L 7211.52,1791.05 L 7221.07,1783.21 L 7231.96,1777.39 L 7243.77,1773.81 L 7256.06,1772.6 L 7268.35,1773.81 L 7280.17,1777.39 L 7291.06,1783.21 L 7300.61,1791.05 L 7308.44,1800.59 L 7314.26,1811.48 L 7317.84,1823.3 L 7319.06,1835.59 L 7317.84,1847.88 L 7314.26,1859.7 L 7308.44,1870.59 L 7300.61,1880.13 L 7291.06,1887.97 L 7280.17,1893.79 L 7268.35,1897.37 L 7256.06,1898.58 L 7243.77,1897.37 L 7231.96,1893.79 L 7221.07,1887.97 L 7211.52,1880.13 L 7203.69,1870.59 L 7197.87,1859.7 L 7195.33,1851.34 L 7136.59,1851.34 L 7002.5,1985.44 L 7002.5,2284.72 L 7002.19,2287.8 L 7001.3,2290.75 L 6999.84,2293.47 L 6997.88,2295.86 L 6720.99,2572.75 L 6717.01,2575.64 L 6714.72,2576.59 L 6709.86,2577.36 L 6600.8,2577.36 L 6597.73,2577.06 L 6594.78,2576.16 L 6592.05,2574.71 L 6589.67,2572.75 L 6032.34,2015.42 L 6029.44,2011.43 L 6027.92,2006.75 L 6027.72,2004.28 L 6027.72,1851.34 L 5978.21,1851.34 L 5975.68,1859.7 L 5969.86,1870.59 L 5962.02,1880.13 L 5952.48,1887.97 L 5941.59,1893.79 L 5929.77,1897.37 L 5917.48,1898.58 L 5905.19,1897.37 L 5893.37,1893.79 L 5882.48,1887.97 L 5872.94,1880.13 L 5865.1,1870.59 L 5859.28,1859.7 L 5855.7,1847.88 L 5854.49,1835.59 L 5855.7,1823.3 L 5859.28,1811.48 L 5865.1,1800.59 L 5872.94,1791.05 L 5882.48,1783.21 L 5893.37,1777.39 L 5905.19,1773.81 L 5917.48,1772.6 L 5929.77,1773.81 L 5941.59,1777.39 L 5952.48,1783.21 L 5962.02,1791.05 L 5969.86,1800.59 L 5975.68,1811.48 L 5978.21,1819.84 L 6027.72,1819.84 L 6027.72,1568.1 L 5949.29,1489.67 L 5941.59,1493.79 L 5929.77,1497.37 L 5917.48,1498.58 L 5905.19,1497.37 L 5893.37,1493.79 L 5882.48,1487.97 L 5872.94,1480.13 L 5865.1,1470.59 L 5859.28,1459.7 L 5855.7,1447.88 L 5854.49,1435.59 L 5855.7,1423.3 L 5859.28,1411.48 L 5865.1,1400.59 L 5872.94,1391.05 L 5882.48,1383.21 L 5893.37,1377.39 L 5905.19,1373.81 L 5917.48,1372.6 L 5929.77,1373.81 L 5941.59,1377.39 L 5952.48,1383.21 L 5962.02,1391.05 L 5969.86,1400.59 L 5975.68,1411.48 L 5979.26,1423.3 L 5980.47,1435.59 L 5979.26,1447.88 L 5975.68,1459.7 L 5971.56,1467.4 L 6054.61,1550.45 L 6056.56,1552.83 L 6058.02,1555.55 L 6058.92,1558.51 L 6059.22,1561.58 L 6059.22,1997.76 L 6607.33,2545.86 L 6703.33,2545.86 L 6971,2278.2 L 6971,1978.91 L 6971.3,1975.84 L 6972.2,1972.89 L 6973.65,1970.16 L 6975.61,1967.78 L 7114.32,1829.07 L 7114.32,1561.58 L 7115.09,1556.71 L 7116.04,1554.43 L 7118.93,1550.45 L 7201.98,1467.4 L 7197.87,1459.7 L 7194.28,1447.88 L 7193.07,1435.59 L 7194.28,1423.3 L 7197.87,1411.48 L 7203.69,1400.59 L 7211.52,1391.05 L 7221.07,1383.21 L 7231.96,1377.39 L 7243.77,1373.81 L 7256.06,1372.6 L 7268.35,1373.81 L 7280.17,1377.39 L 7287.87,1381.51 L 7366.41,1302.97 L 7366.41,987.356 L 6901.44,522.393 L 1462.76,522.393 L 708.825,1276.33 L 708.522,1279.61 L 707.626,1282.56 L 706.171,1285.28 L 704.213,1287.67 L 701.826,1289.63 L 699.103,1291.08 L 696.149,1291.98 L 693.077,1292.28 L 627.976,1292.28 L 624.984,1302.15 L 618.799,1313.72 L 610.476,1323.86 L 600.333,1332.18 L 588.762,1338.37 L 576.207,1342.18 L 563.15,1343.46 L 550.092,1342.18 L 537.537,1338.37 L 525.966,1332.18 L 515.824,1323.86 L 507.5,1313.72 L 501.315,1302.15 L 497.506,1289.59 L 496.22,1276.54 z " style="fill-opacity:1.000000;fill:rgb(49,88,163);stroke:rgb(0,0,0);stroke-width:2"/></g>
<g fill-rule="evenodd"><path d="M 496.22,1076.54 L 497.506,1063.48 L 501.315,1050.92 L 507.5,1039.35 L 515.824,1029.21 L 525.966,1020.89 L 537.537,1014.7 L 550.092,1010.89 L 563.15,1009.61 L 576.207,1010.89 L 588.762,1014.7 L 600.333,1020.89 L 610.476,1029.21 L 618.799,1039.35 L 624.984,1050.92 L 628.793,1063.48 L 630.079,1076.54 L 628.793,1089.59 L 624.984,1102.15 L 618.799,1113.72 L 610.476,1123.86 L 600.333,1132.18 L 588.762,1138.37 L 576.207,1142.18 L 563.15,1143.46 L 550.092,1142.18 L 537.537,1138.37 L 525.966,1132.18 L 515.824,1123.86 L 507.5,1113.72 L 501.315,1102.15 L 497.506,1089.59 L 496.22,1076.54 z " style="fill-opacity:1.000000;fill:rgb(90,37,93);stroke:rgb(0,0,0);stroke-width:2"/></g>
<g fill-rule="evenodd"><path d="M 496.22,876.535 L 497.506,863.478 L 501.315,850.923 L 507.5,839.352 L 515.824,829.209 L 525.966,820.886 L 537.537,814.701 L 550.092,810.892 L 563.15,809.606 L 576.207,810.892 L 588.762,814.701 L 600.333,820.886 L 610.476,829.209 L 618.799,839.352 L 624.984,850.923 L 628.793,863.478 L 630.079,876.535 L 628.793,889.593 L 624.984,902.148 L 618.799,913.719 L 610.476,923.861 L 600.333,932.185 L 588.762,938.37 L 576.207,942.179 L 563.15,943.465 L 550.092,942.179 L 537.537,938.37 L 525.966,932.185 L 515.824,923.861 L 507.5,913.719 L 501.315,902.148 L 497.506,889.593 L 496.22,876.535 z " style="fill-opacity:1.000000;fill:rgb(5,23,88);stroke:rgb(0,0,0);stroke-width:2"/></g>
<g fill-rule="evenodd"><path d="M 1045.04,1035.59 L 1046.25,1023.3 L 1049.83,1011.48 L 1055.66,1000.59 L 1063.49,991.048 L 1073.03,983.215 L 1083.93,977.393 L 1095.74,973.809 L 1108.03,972.598 L 1120.32,973.809 L 1132.14,977.393 L 1143.03,983.215 L 1152.57,991.048 L 1160.41,1000.59 L 1166.23,1011.48 L 1168.76,1019.84 L 1227.5,1019.84 L 1668.01,579.327 L 1670.4,577.369 L 1673.12,575.914 L 1676.08,575.018 L 1679.15,574.715 L 6687.41,574.909 L 6692.09,576.431 L 6696.08,579.327 L 7136.59,1019.84 L 7195.33,1019.84 L 7197.87,1011.48 L 7203.69,1000.59 L 7211.52,991.048 L 7221.07,983.215 L 7231.96,977.393 L 7243.77,973.809 L 7256.06,972.598 L 7268.35,973.809 L 7280.17,977.393 L 7291.06,983.215 L 7300.61,991.048 L 7308.44,1000.59 L 7314.26,1011.48 L 7317.84,1023.3 L 7319.06,1035.59 L 7317.84,1047.88 L 7314.26,1059.7 L 7308.44,1070.59 L 7300.61,1080.13 L 7291.06,1087.97 L 7280.17,1093.79 L 7268.35,1097.37 L 7256.06,1098.58 L 7243.77,1097.37 L 7231.96,1093.79 L 7221.07,1087.97 L 7211.52,1080.13 L 7203.69,1070.59 L 7197.87,1059.7 L 7195.33,1051.34 L 7130.07,1051.34 L 7125.2,1050.57 L 7120.81,1048.33 L 6678.42,606.211 L 1685.67,606.211 L 1245.16,1046.72 L 1242.77,1048.68 L 1240.05,1050.14 L 1237.1,1051.03 L 1234.02,1051.34 L 1168.76,1051.34 L 1166.23,1059.7 L 1160.41,1070.59 L 1152.57,1080.13 L 1143.03,1087.97 L 1132.14,1093.79 L 1120.32,1097.37 L 1108.03,1098.58 L 1095.74,1097.37 L 1083.93,1093.79 L 1073.03,1087.97 L 1063.49,1080.13 L 1055.66,1070.59 L 1049.83,1059.7 L 1046.25,1047.88 L 1045.04,1035.59 z " style="fill-opacity:1.000000;fill:rgb(233,94,212);stroke:rgb(0,0,0);stroke-width:2"/></g>
<g fill-rule="evenodd"><path d="M 1122.2,2613.54 L 1122.2,2487.56 L 1248.19,2487.56 L 1248.19,2613.54 L 1122.2,2613.54 z " style="fill-opacity:1.000000;fill:rgb(171,178,205);stroke:rgb(0,0,0);stroke-width:2"/></g>
<g fill-rule="evenodd"><path d="M 1122.2,1350.55 L 1123.42,1338.26 L 1127,1326.45 L 1132.82,1315.55 L 1140.65,1306.01 L 1150.2,1298.18 L 1161.09,1292.35 L 1172.91,1288.77 L 1185.2,1287.56 L 1197.49,1288.77 L 1209.3,1292.35 L 1220.19,1298.18 L 1229.74,1306.01 L 1237.57,1315.55 L 1243.39,1326.45 L 1246.98,1338.26 L 1248.19,1350.55 L 1246.98,1362.84 L 1243.39,1374.66 L 1237.57,1385.55 L 1229.74,1395.09 L 1220.19,1402.93 L 1209.3,1408.75 L 1197.49,1412.33 L 1185.2,1413.54 L 1172.91,1412.33 L 1161.09,1408.75 L 1150.2,1402.93 L 1140.65,1395.09 L 1132.82,1385.55 L 1127,1374.66 L 1123.42,1362.84 L 1122.2,1350.55 z " style="fill-opacity:1.000000;fill:rgb(198,155,180);stroke:rgb(0,0,0);stroke-width:2"/></g>
<g fill-rule="evenodd"><path d="M 1522.2,2550.55 L 1523.42,2538.26 L 1527,2526.45 L 1532.82,2515.55 L 1540.65,2506.01 L 1550.2,2498.18 L 1561.09,2492.35 L 1572.91,2488.77 L 1585.2,2487.56 L 1597.49,2488.77 L 1609.3,2492.35 L 1620.19,2498.18 L 1629.74,2506.01 L 1637.57,2515.55 L 1643.39,2526.45 L 1646.98,2538.26 L 1648.19,2550.55 L 1646.98,2562.84 L 1643.39,2574.66 L 1637.57,2585.55 L 1629.74,2595.09 L 1620.19,2602.93 L 1609.3,2608.75 L 1597.49,2612.33 L 1585.2,2613.54 L 1572.91,2612.33 L 1561.09,2608.75 L 1550.2,2602.93 L 1540.65,2595.09 L 1532.82,2585.55 L 1527,2574.66 L 1523.42,2562.84 L 1522.2,2550.55 z " style="fill-opacity:1.000000;fill:rgb(84,17,14);stroke:rgb(0,0,0);stroke-width:2"/></g>
<g fill-rule="evenodd"><path d="M 1522.2,1350.55 L 1523.42,1338.26 L 1527,1326.45 L 1532.82,1315.55 L 1540.65,1306.01 L 1550.2,1298.18 L 1561.09,1292.35 L 1572.91,1288.77 L 1585.2,1287.56 L 1597.49,1288.77 L 1609.3,1292.35 L 1617,1296.47 L 1851.21,1062.27 L 1849.83,1059.7 L 1846.25,1047.88 L 1845.04,1035.59 L 1846.25,1023.3 L 1849.83,1011.48 L 1855.66,1000.59 L 1863.49,991.048 L 1873.03,983.215 L 1883.93,977.393 L 1895.74,973.809 L 1908.03,972.598 L 1920.32,973.809 L 1932.14,977.393 L 1943.03,983.215 L 1952.57,991.048 L 1960.41,1000.59 L 1966.23,1011.48 L 1969.81,1023.3 L 1971.02,1035.59 L 1969.81,1047.88 L 1966.23,1059.7 L 1960.41,1070.59 L 1952.57,1080.13 L 1943.03,1087.97 L 1932.14,1093.79 L 1920.32,1097.37 L 1908.03,1098.58 L 1895.74,1097.37 L 1883.93,1093.79 L 1873.03,1087.97 L 1871.4,1086.62 L 1639.28,1318.74 L 1643.39,1326.45 L 1646.98,1338.26 L 1648.19,1350.55 L 1646.98,1362.84 L 1643.39,1374.66 L 1637.57,1385.55 L 1629.74,1395.09 L 1620.19,1402.93 L 1609.3,1408.75 L 1597.49,1412.33 L 1585.2,1413.54 L 1572.91,1412.33 L 1561.09,1408.75 L 1550.2,1402.93 L 1540.65,1395.09 L 1532.82,1385.55 L 1527,1374.66 L 1523.42,1362.84 L 1522.2,1350.55 z " style="fill-opacity:1.000000;fill:rgb(130,116,65);stroke:rgb(0,0,0);stroke-width:2"/></g>
<g fill-rule="evenodd"><path d="M 1722.2,2550.55 L 1723.42,2538.26 L 1727,2526.45 L 1732.82,2515.55 L 1740.65,2506.01 L 1750.2,2498.18 L 1761.09,2492.35 L 1772.91,2488.77 L 1785.2,2487.56 L 1797.49,2488.77 L 1809.3,2492.35 L 1820.19,2498.18 L 1829.74,2506.01 L 1837.57,2515.55 L 1843.39,2526.45 L 1846.98,2538.26 L 1848.19,2550.55 L 1846.98,2562.84 L 1843.39,2574.66 L 1837.57,2585.55 L 1829.74,2595.09 L 1820.19,2602.93 L 1809.3,2608.75 L 1797.49,2612.33 L 1785.2,2613.54 L 1772.91,2612.33 L 1761.09,2608.75 L 1750.2,2602.93 L 1740.65,2595.09 L 1732.82,2585.55 L 1727,2574.66 L 1723.42,2562.84 L 1722.2,2550.55 z " style="fill-opacity:1.000000;fill:rgb(33,61,220);stroke:rgb(0,0,0);stroke-width:2"/></g>
<g fill-rule="evenodd"><path d="M 1722.2,1350.55 L 1723.42,1338.26 L 1727,1326.45 L 1732.82,1315.55 L 1740.65,1306.01 L 1750.2,1298.18 L 1761.09,1292.35 L 1772.91,1288.77 L 1785.2,1287.56 L 1797.49,1288.77 L 1809.3,1292.35 L 1820.19,1298.18 L 1829.74,1306.01 L 1837.57,1315.55 L 1843.39,1326.45 L 1846.98,1338.26 L 1848.19,1350.55 L 1846.98,1362.84 L 1843.39,1374.66 L 1837.57,1385.55 L 1829.74,1395.09 L 1820.19,1402.93 L 1809.3,1408.75 L 1797.49,1412.33 L 1785.2,1413.54 L 1772.91,1412.33 L 1761.09,1408.75 L 1750.2,1402.93 L 1740.65,1395.09 L 1732.82,1385.55 L 1727,1374.66 L 1723.42,1362.84 L 1722.2,1350.55 z " style="fill-opacity:1.000000;fill:rgb(135,112,233);stroke:rgb(0,0,0);stroke-width:2"/></g>
<g fill-rule="evenodd"><path d="M 1922.2,2550.55 L 1923.42,2538.26 L 1927,2526.45 L 1932.82,2515.55 L 1940.65,2506.01 L 1950.2,2498.18 L 1961.09,2492.35 L 1972.91,2488.77 L 1985.2,2487.56 L 1997.49,2488.77 L 2009.3,2492.35 L 2017,2496.47 L 2588.67,1924.81 L 2591.05,1922.85 L 2593.78,1921.39 L 2596.73,1920.5 L 2599.8,1920.19 L 4434.44,1920.19 L 4437.52,1920.5 L 4440.47,1921.39 L 4443.19,1922.85 L 4445.58,1924.81 L 5623.13,3102.63 L 5625.37,3107.02 L 5626.14,3111.89 L 5626.14,3411.71 L 5636.01,3414.7 L 5647.58,3420.89 L 5657.72,3429.21 L 5666.04,3439.35 L 5672.23,3450.92 L 5676.04,3463.48 L 5677.32,3476.54 L 5676.04,3489.59 L 5672.23,3502.15 L 5666.04,3513.72 L 5657.72,3523.86 L 5647.58,3532.18 L 5636.01,3538.37 L 5623.45,3542.18 L 5610.39,3543.46 L 5597.34,3542.18 L 5584.78,3538.37 L 5573.21,3532.18 L 5563.07,3523.86 L 5554.74,3513.72 L 5548.56,3502.15 L 5544.75,3489.59 L 5543.46,3476.54 L 5544.75,3463.48 L 5548.56,3450.92 L 5554.74,3439.35 L 5563.07,3429.21 L 5573.21,3420.89 L 5584.78,3414.7 L 5594.64,3411.71 L 5594.64,3118.41 L 4427.92,1951.69 L 2606.33,1951.69 L 2039.28,2518.74 L 2043.39,2526.45 L 2046.98,2538.26 L 2048.19,2550.55 L 2046.98,2562.84 L 2043.39,2574.66 L 2037.57,2585.55 L 2029.74,2595.09 L 2020.19,2602.93 L 2009.3,2608.75 L 1997.49,2612.33 L 1985.2,2613.54 L 1972.91,2612.33 L 1961.09,2608.75 L 1950.2,2602.93 L 1940.65,2595.09 L 1932.82,2585.55 L 1927,2574.66 L 1923.42,2562.84 L 1922.2,2550.55 z " style="fill-opacity:1.000000;fill:rgb(62,161,65);stroke:rgb(0,0,0);stroke-width:2"/></g>
<g fill-rule="evenodd"><path d="M 2122.2,2550.55 L 2123.42,2538.26 L 2127,2526.45 L 2132.82,2515.55 L 2140.65,2506.01 L 2150.2,2498.18 L 2161.09,2492.35 L 2172.91,2488.77 L 2185.2,2487.56 L 2197.49,2488.77 L 2209.3,2492.35 L 2217,2496.47 L 2709.92,2003.56 L 2712.31,2001.6 L 2715.03,2000.14 L 2717.98,1999.25 L 2721.05,1998.94 L 4401.83,1998.94 L 4406.7,1999.71 L 4408.98,2000.66 L 4412.97,2003.56 L 5421.53,3012.12 L 5423.49,3014.5 L 5424.94,3017.22 L 5425.84,3020.18 L 5426.14,3023.25 L 5426.14,3411.71 L 5436.01,3414.7 L 5447.58,3420.89 L 5457.72,3429.21 L 5466.04,3439.35 L 5472.23,3450.92 L 5476.04,3463.48 L 5477.32,3476.54 L 5476.04,3489.59 L 5472.23,3502.15 L 5466.04,3513.72 L 5457.72,3523.86 L 5447.58,3532.18 L 5436.01,3538.37 L 5423.45,3542.18 L 5410.39,3543.46 L 5397.34,3542.18 L 5384.78,3538.37 L 5373.21,3532.18 L 5363.07,3523.86 L 5354.74,3513.72 L 5348.56,3502.15 L 5344.75,3489.59 L 5343.46,3476.54 L 5344.75,3463.48 L 5348.56,3450.92 L 5354.74,3439.35 L 5363.07,3429.21 L 5373.21,3420.89 L 5384.78,3414.7 L 5394.64,3411.71 L 5394.64,3029.77 L 4395.31,2030.44 L 2727.58,2030.44 L 2239.28,2518.74 L 2243.39,2526.45 L 2246.98,2538.26 L 2248.19,2550.55 L 2246.98,2562.84 L 2243.39,2574.66 L 2237.57,2585.55 L 2229.74,2595.09 L 2220.19,2602.93 L 2209.3,2608.75 L 2197.49,2612.33 L 2185.2,2613.54 L 2172.91,2612.33 L 2161.09,2608.75 L 2150.2,2602.93 L 2140.65,2595.09 L 2132.82,2585.55 L 2127,2574.66 L 2123.42,2562.84 L 2122.2,2550.55 z " style="fill-opacity:1.000000;fill:rgb(225,252,103);stroke:rgb(0,0,0);stroke-width:2"/></g>
<g fill-rule="evenodd"><path d="M 2122.2,1350.55 L 2123.42,1338.26 L 2127,1326.45 L 2132.82,1315.55 L 2140.65,1306.01 L 2150.2,1298.18 L 2161.09,1292.35 L 2172.91,1288.77 L 2185.2,1287.56 L 2197.49,1288.77 L 2209.3,1292.35 L 2217,1296.47 L 2855.26,658.217 L 2857.64,656.259 L 2860.37,654.804 L 2863.32,653.908 L 2866.39,653.605 L 6566.3,653.799 L 6570.98,655.321 L 6574.97,658.217 L 7136.59,1219.84 L 7195.33,1219.84 L 7197.87,1211.48 L 7203.69,1200.59 L 7211.52,1191.05 L 7221.07,1183.21 L 7231.96,1177.39 L 7243.77,1173.81 L 7256.06,1172.6 L 7268.35,1173.81 L 7280.17,1177.39 L 7291.06,1183.21 L 7300.61,1191.05 L 7308.44,1200.59 L 7314.26,1211.48 L 7317.84,1223.3 L 7319.06,1235.59 L 7317.84,1247.88 L 7314.26,1259.7 L 7308.44,1270.59 L 7300.61,1280.13 L 7291.06,1287.97 L 7280.17,1293.79 L 7268.35,1297.37 L 7256.06,1298.58 L 7243.77,1297.37 L 7231.96,1293.79 L 7221.07,1287.97 L 7211.52,1280.13 L 7203.69,1270.59 L 7197.87,1259.7 L 7195.33,1251.34 L 7130.07,1251.34 L 7125.2,1250.57 L 7120.81,1248.33 L 6557.31,685.101 L 2872.92,685.101 L 2239.28,1318.74 L 2243.39,1326.45 L 2246.98,1338.26 L 2248.19,1350.55 L 2246.98,1362.84 L 2243.39,1374.66 L 2237.57,1385.55 L 2229.74,1395.09 L 2220.19,1402.93 L 2209.3,1408.75 L 2197.49,1412.33 L 2185.2,1413.54 L 2172.91,1412.33 L 2161.09,1408.75 L 2150.2,1402.93 L 2140.65,1395.09 L 2132.82,1385.55 L 2127,1374.66 L 2123.42,1362.84 L 2122.2,1350.55 z " style="fill-opacity:1.000000;fill:rgb(62,1,126);stroke:rgb(0,0,0);stroke-width:2"/></g>
<g fill-rule="evenodd"><path d="M 2322.2,2550.55 L 2323.42,2538.26 L 2327,2526.45 L 2332.82,2515.55 L 2340.65,2506.01 L 2350.2,2498.18 L 2361.09,2492.35 L 2372.91,2488.77 L 2385.2,2487.56 L 2397.49,2488.77 L 2409.3,2492.35 L 2417,2496.47 L 2831.17,2082.3 L 2833.56,2080.34 L 2836.28,2078.89 L 2839.23,2077.99 L 2842.31,2077.69 L 4369.22,2077.69 L 4374.09,2078.46 L 4376.37,2079.41 L 4380.35,2082.3 L 5221.53,2923.48 L 5223.49,2925.86 L 5224.94,2928.59 L 5225.84,2931.54 L 5226.14,2934.61 L 5226.14,3411.71 L 5236.01,3414.7 L 5247.58,3420.89 L 5257.72,3429.21 L 5266.04,3439.35 L 5272.23,3450.92 L 5276.04,3463.48 L 5277.32,3476.54 L 5276.04,3489.59 L 5272.23,3502.15 L 5266.04,3513.72 L 5257.72,3523.86 L 5247.58,3532.18 L 5236.01,3538.37 L 5223.45,3542.18 L 5210.39,3543.46 L 5197.34,3542.18 L 5184.78,3538.37 L 5173.21,3532.18 L 5163.07,3523.86 L 5154.74,3513.72 L 5148.56,3502.15 L 5144.75,3489.59 L 5143.46,3476.54 L 5144.75,3463.48 L 5148.56,3450.92 L 5154.74,3439.35 L 5163.07,3429.21 L 5173.21,3420.89 L 5184.78,3414.7 L 5194.64,3411.71 L 5194.65,2941.14 L 4362.7,2109.19 L 2848.83,2109.19 L 2439.28,2518.74 L 2443.39,2526.45 L 2446.98,2538.26 L 2448.19,2550.55 L 2446.98,2562.84 L 2443.39,2574.66 L 2437.57,2585.55 L 2429.74,2595.09 L 2420.19,2602.93 L 2409.3,2608.75 L 2397.49,2612.33 L 2385.2,2613.54 L 2372.91,2612.33 L 2361.09,2608.75 L 2350.2,2602.93 L 2340.65,2595.09 L 2332.82,2585.55 L 2327,2574.66 L 2323.42,2562.84 L 2322.2,2550.55 z " style="fill-opacity:1.000000;fill:rgb(151,234,220);stroke:rgb(0,0,0);stroke-width:2"/></g>
<g fill-rule="evenodd"><path d="M 2322.2,1350.55 L 2323.42,1338.26 L 2327,1326.45 L 2332.82,1315.55 L 2340.65,1306.01 L 2350.2,1298.18 L 2361.09,1292.35 L 2372.91,1288.77 L 2385.2,1287.56 L 2397.49,1288.77 L 2409.3,1292.35 L 2417,1296.47 L 2976.05,737.423 L 2978.44,735.465 L 2981.16,734.01 L 2984.12,733.114 L 2987.19,732.811 L 6243.04,732.811 L 6245.5,733.005 L 6250.19,734.527 L 6254.17,737.423 L 6536.59,1019.84 L 6593.07,1019.84 L 6593.07,972.598 L 6719.06,972.598 L 6719.06,1098.58 L 6593.07,1098.58 L 6593.07,1051.34 L 6530.07,1051.34 L 6525.2,1050.57 L 6520.81,1048.33 L 6236.52,764.307 L 2993.71,764.307 L 2439.28,1318.74 L 2443.39,1326.45 L 2446.98,1338.26 L 2448.19,1350.55 L 2446.98,1362.84 L 2443.39,1374.66 L 2437.57,1385.55 L 2429.74,1395.09 L 2420.19,1402.93 L 2409.3,1408.75 L 2397.49,1412.33 L 2385.2,1413.54 L 2372.91,1412.33 L 2361.09,1408.75 L 2350.2,1402.93 L 2340.65,1395.09 L 2332.82,1385.55 L 2327,1374.66 L 2323.42,1362.84 L 2322.2,1350.55 z " style="fill-opacity:1.000000;fill:rgb(107,150,143);stroke:rgb(0,0,0);stroke-width:2"/></g>
<g fill-rule="evenodd"><path d="M 2522.2,2550.55 L 2523.42,2538.26 L 2527,2526.45 L 2532.82,2515.55 L 2540.65,2506.01 L 2550.2,2498.18 L 2561.09,2492.35 L 2572.91,2488.77 L 2585.2,2487.56 L 2597.49,2488.77 L 2609.3,2492.35 L 2617,2496.47 L 2948.38,2165.09 L 2950.77,2163.13 L 2953.49,2161.68 L 2956.45,2160.78 L 2959.52,2160.48 L 4337.58,2160.48 L 4342.45,2161.25 L 4344.73,2162.2 L 4348.72,2165.09 L 5021.53,2837.9 L 5023.49,2840.29 L 5024.94,2843.01 L 5025.84,2845.97 L 5026.14,2849.04 L 5026.14,3411.71 L 5036.01,3414.7 L 5047.58,3420.89 L 5057.72,3429.21 L 5066.04,3439.35 L 5072.23,3450.92 L 5076.04,3463.48 L 5077.32,3476.54 L 5076.04,3489.59 L 5072.23,3502.15 L 5066.04,3513.72 L 5057.72,3523.86 L 5047.58,3532.18 L 5036.01,3538.37 L 5023.45,3542.18 L 5010.39,3543.46 L 4997.34,3542.18 L 4984.78,3538.37 L 4973.21,3532.18 L 4963.07,3523.86 L 4954.74,3513.72 L 4948.56,3502.15 L 4944.75,3489.59 L 4943.46,3476.54 L 4944.75,3463.48 L 4948.56,3450.92 L 4954.74,3439.35 L 4963.07,3429.21 L 4973.21,3420.89 L 4984.78,3414.7 L 4994.64,3411.71 L 4994.64,2855.56 L 4331.06,2191.97 L 2966.04,2191.98 L 2639.28,2518.74 L 2643.39,2526.45 L 2646.98,2538.26 L 2648.19,2550.55 L 2646.98,2562.84 L 2643.39,2574.66 L 2637.57,2585.55 L 2629.74,2595.09 L 2620.19,2602.93 L 2609.3,2608.75 L 2597.49,2612.33 L 2585.2,2613.54 L 2572.91,2612.33 L 2561.09,2608.75 L 2550.2,2602.93 L 2540.65,2595.09 L 2532.82,2585.55 L 2527,2574.66 L 2523.42,2562.84 L 2522.2,2550.55 z " style="fill-opacity:1.000000;fill:rgb(56,92,42);stroke:rgb(0,0,0);stroke-width:2"/></g>
<g fill-rule="evenodd"><path d="M 2522.2,1350.55 L 2523.42,1338.26 L 2527,1326.45 L 2532.82,1315.55 L 2540.65,1306.01 L 2550.2,1298.18 L 2561.09,1292.35 L 2572.91,1288.77 L 2585.2,1287.56 L 2597.49,1288.77 L 2609.3,1292.35 L 2617,1296.47 L 3095.71,817.761 L 3098.1,815.803 L 3100.82,814.348 L 3103.78,813.452 L 3106.85,813.149 L 6006.9,813.149 L 6011.77,813.92 L 6016.16,816.157 L 6018.04,817.761 L 6541.2,1340.93 L 6543.16,1343.31 L 6544.62,1346.04 L 6545.51,1348.99 L 6545.82,1352.06 L 6545.82,1419.84 L 6595.33,1419.84 L 6597.87,1411.48 L 6603.69,1400.59 L 6611.52,1391.05 L 6621.07,1383.21 L 6631.96,1377.39 L 6643.77,1373.81 L 6656.06,1372.6 L 6668.35,1373.81 L 6680.17,1377.39 L 6691.06,1383.21 L 6700.61,1391.05 L 6708.44,1400.59 L 6714.26,1411.48 L 6717.84,1423.3 L 6719.06,1435.59 L 6717.84,1447.88 L 6714.26,1459.7 L 6708.44,1470.59 L 6700.61,1480.13 L 6691.06,1487.97 L 6680.17,1493.79 L 6668.35,1497.37 L 6656.06,1498.58 L 6643.77,1497.37 L 6631.96,1493.79 L 6621.07,1487.97 L 6611.52,1480.13 L 6603.69,1470.59 L 6597.87,1459.7 L 6595.33,1451.34 L 6530.07,1451.34 L 6527,1451.03 L 6524.04,1450.14 L 6521.32,1448.68 L 6518.93,1446.72 L 6516.97,1444.34 L 6515.52,1441.62 L 6514.62,1438.66 L 6514.32,1435.59 L 6514.32,1358.59 L 6000.38,844.645 L 3113.37,844.645 L 2639.28,1318.74 L 2643.39,1326.45 L 2646.98,1338.26 L 2648.19,1350.55 L 2646.98,1362.84 L 2643.39,1374.66 L 2637.57,1385.55 L 2629.74,1395.09 L 2620.19,1402.93 L 2609.3,1408.75 L 2597.49,1412.33 L 2585.2,1413.54 L 2572.91,1412.33 L 2561.09,1408.75 L 2550.2,1402.93 L 2540.65,1395.09 L 2532.82,1385.55 L 2527,1374.66 L 2523.42,1362.84 L 2522.2,1350.55 z " style="fill-opacity:1.000000;fill:rgb(236,176,59);stroke:rgb(0,0,0);stroke-width:2"/></g>
<g fill-rule="evenodd"><path d="M 2543.46,3543.46 L 2543.46,3409.61 L 2677.32,3409.61 L 2677.32,3543.46 L 2543.46,3543.46 z " style="fill-opacity:1.000000;fill:rgb(251,50,175);stroke:rgb(0,0,0);stroke-width:2"/></g>
<g fill-rule="evenodd"><path d="M 2722.2,2550.55 L 2723.42,2538.26 L 2727,2526.45 L 2732.82,2515.55 L 2740.65,2506.01 L 2750.2,2498.18 L 2761.09,2492.35 L 2772.91,2488.77 L 2785.2,2487.56 L 2797.49,2488.77 L 2809.3,2492.35 L 2817,2496.47 L 3064.84,2248.64 L 3067.23,2246.68 L 3069.95,2245.22 L 3072.9,2244.33 L 3075.97,2244.02 L 4303.9,2244.02 L 4306.37,2244.22 L 4311.05,2245.74 L 4315.04,2248.64 L 4821.53,2755.12 L 4823.49,2757.51 L 4824.94,2760.23 L 4825.84,2763.19 L 4826.14,2766.26 L 4826.14,3411.71 L 4836.01,3414.7 L 4847.58,3420.89 L 4857.72,3429.21 L 4866.04,3439.35 L 4872.23,3450.92 L 4876.04,3463.48 L 4877.32,3476.54 L 4876.04,3489.59 L 4872.23,3502.15 L 4866.04,3513.72 L 4857.72,3523.86 L 4847.58,3532.18 L 4836.01,3538.37 L 4823.45,3542.18 L 4810.39,3543.46 L 4797.34,3542.18 L 4784.78,3538.37 L 4773.21,3532.18 L 4763.07,3523.86 L 4754.74,3513.72 L 4748.56,3502.15 L 4744.75,3489.59 L 4743.46,3476.54 L 4744.75,3463.48 L 4748.56,3450.92 L 4754.74,3439.35 L 4763.07,3429.21 L 4773.21,3420.89 L 4784.78,3414.7 L 4794.64,3411.71 L 4794.64,2772.78 L 4297.38,2275.52 L 3082.5,2275.52 L 2839.28,2518.74 L 2843.39,2526.45 L 2846.98,2538.26 L 2848.19,2550.55 L 2846.98,2562.84 L 2843.39,2574.66 L 2837.57,2585.55 L 2829.74,2595.09 L 2820.19,2602.93 L 2809.3,2608.75 L 2797.49,2612.33 L 2785.2,2613.54 L 2772.91,2612.33 L 2761.09,2608.75 L 2750.2,2602.93 L 2740.65,2595.09 L 2732.82,2585.55 L 2727,2574.66 L 2723.42,2562.84 L 2722.2,2550.55 z " style="fill-opacity:1.000000;fill:rgb(60,84,236);stroke:rgb(0,0,0);stroke-width:2"/></g>
<g fill-rule="evenodd"><path d="M 2722.2,1350.55 L 2723.42,1338.26 L 2727,1326.45 L 2732.82,1315.55 L 2740.65,1306.01 L 2750.2,1298.18 L 2761.09,1292.35 L 2772.91,1288.77 L 2785.2,1287.56 L 2797.49,1288.77 L 2809.3,1292.35 L 2820.19,1298.18 L 2829.74,1306.01 L 2837.57,1315.55 L 2843.39,1326.45 L 2846.98,1338.26 L 2848.19,1350.55 L 2846.98,1362.84 L 2843.39,1374.66 L 2837.57,1385.55 L 2829.74,1395.09 L 2820.19,1402.93 L 2809.3,1408.75 L 2797.49,1412.33 L 2785.2,1413.54 L 2772.91,1412.33 L 2761.09,1408.75 L 2750.2,1402.93 L 2740.65,1395.09 L 2732.82,1385.55 L 2727,1374.66 L 2723.42,1362.84 L 2722.2,1350.55 z " style="fill-opacity:1.000000;fill:rgb(24,219,92);stroke:rgb(0,0,0);stroke-width:2"/></g>
<g fill-rule="evenodd"><path d="M 2743.46,3476.54 L 2744.75,3463.48 L 2748.56,3450.92 L 2754.74,3439.35 L 2763.07,3429.21 L 2773.21,3420.89 L 2784.78,3414.7 L 2797.34,3410.89 L 2810.39,3409.61 L 2823.45,3410.89 L 2836.01,3414.7 L 2847.58,3420.89 L 2857.72,3429.21 L 2866.04,3439.35 L 2872.23,3450.92 L 2876.04,3463.48 L 2877.32,3476.54 L 2876.04,3489.59 L 2872.23,3502.15 L 2866.04,3513.72 L 2857.72,3523.86 L 2847.58,3532.18 L 2836.01,3538.37 L 2823.45,3542.18 L 2810.39,3543.46 L 2797.34,3542.18 L 2784.78,3538.37 L 2773.21,3532.18 L 2763.07,3523.86 L 2754.74,3513.72 L 2748.56,3502.15 L 2744.75,3489.59 L 2743.46,3476.54 z " style="fill-opacity:1.000000;fill:rgb(2,26,254);stroke:rgb(0,0,0);stroke-width:2"/></g>
<g fill-rule="evenodd"><path d="M 2922.2,2550.55 L 2923.42,2538.26 L 2927,2526.45 L 2932.82,2515.55 L 2940.65,2506.01 L 2950.2,2498.18 L 2961.09,2492.35 L 2972.91,2488.77 L 2985.2,2487.56 L 2997.49,2488.77 L 3009.3,2492.35 L 3017,2496.47 L 3184.2,2329.27 L 3186.59,2327.31 L 3189.31,2325.86 L 3192.26,2324.96 L 3195.34,2324.66 L 4270.24,2324.66 L 4275.11,2325.43 L 4277.39,2326.38 L 4281.38,2329.27 L 4621.53,2669.42 L 4623.49,2671.81 L 4624.94,2674.53 L 4625.84,2677.49 L 4626.14,2680.56 L 4626.14,3411.71 L 4636.01,3414.7 L 4647.58,3420.89 L 4657.72,3429.21 L 4666.04,3439.35 L 4672.23,3450.92 L 4676.04,3463.48 L 4677.32,3476.54 L 4676.04,3489.59 L 4672.23,3502.15 L 4666.04,3513.72 L 4657.72,3523.86 L 4647.58,3532.18 L 4636.01,3538.37 L 4623.45,3542.18 L 4610.39,3543.46 L 4597.34,3542.18 L 4584.78,3538.37 L 4573.21,3532.18 L 4563.07,3523.86 L 4554.74,3513.72 L 4548.56,3502.15 L 4544.75,3489.59 L 4543.46,3476.54 L 4544.75,3463.48 L 4548.56,3450.92 L 4554.74,3439.35 L 4563.07,3429.21 L 4573.21,3420.89 L 4584.78,3414.7 L 4594.64,3411.71 L 4594.64,2687.08 L 4263.72,2356.16 L 3201.86,2356.16 L 3039.28,2518.74 L 3043.39,2526.45 L 3046.98,2538.26 L 3048.19,2550.55 L 3046.98,2562.84 L 3043.39,2574.66 L 3037.57,2585.55 L 3029.74,2595.09 L 3020.19,2602.93 L 3009.3,2608.75 L 2997.49,2612.33 L 2985.2,2613.54 L 2972.91,2612.33 L 2961.09,2608.75 L 2950.2,2602.93 L 2940.65,2595.09 L 2932.82,2585.55 L 2927,2574.66 L 2923.42,2562.84 L 2922.2,2550.55 z " style="fill-opacity:1.000000;fill:rgb(67,251,250);stroke:rgb(0,0,0);stroke-width:2"/></g>
<g fill-rule="evenodd"><path d="M 2922.2,1350.55 L 2923.42,1338.26 L 2927,1326.45 L 2932.82,1315.55 L 2940.65,1306.01 L 2950.2,1298.18 L 2961.09,1292.35 L 2972.91,1288.77 L 2985.2,1287.56 L 2997.49,1288.77 L 3009.3,1292.35 L 3020.19,1298.18 L 3029.74,1306.01 L 3037.57,1315.55 L 3043.39,1326.45 L 3046.98,1338.26 L 3048.19,1350.55 L 3046.98,1362.84 L 3043.39,1374.66 L 3037.57,1385.55 L 3029.74,1395.09 L 3020.19,1402.93 L 3009.3,1408.75 L 2997.49,1412.33 L 2985.2,1413.54 L 2972.91,1412.33 L 2961.09,1408.75 L 2950.2,1402.93 L 2940.65,1395.09 L 2932.82,1385.55 L 2927,1374.66 L 2923.42,1362.84 L 2922.2,1350.55 z " style="fill-opacity:1.000000;fill:rgb(170,58,251);stroke:rgb(0,0,0);stroke-width:2"/></g>
<g fill-rule="evenodd"><path d="M 2943.46,3476.54 L 2944.75,3463.48 L 2948.56,3450.92 L 2954.74,3439.35 L 2963.07,3429.21 L 2973.21,3420.89 L 2984.78,3414.7 L 2997.34,3410.89 L 3010.39,3409.61 L 3023.45,3410.89 L 3036.01,3414.7 L 3047.58,3420.89 L 3057.72,3429.21 L 3066.04,3439.35 L 3072.23,3450.92 L 3076.04,3463.48 L 3077.32,3476.54 L 3076.04,3489.59 L 3072.23,3502.15 L 3066.04,3513.72 L 3057.72,3523.86 L 3047.58,3532.18 L 3036.01,3538.37 L 3023.45,3542.18 L 3010.39,3543.46 L 2997.34,3542.18 L 2984.78,3538.37 L 2973.21,3532.18 L 2963.07,3523.86 L 2954.74,3513.72 L 2948.56,3502.15 L 2944.75,3489.59 L 2943.46,3476.54 z " style="fill-opacity:1.000000;fill:rgb(41,209,230);stroke:rgb(0,0,0);stroke-width:2"/></g>
<g fill-rule="evenodd"><path d="M 3122.2,2550.55 L 3123.42,2538.26 L 3127,2526.45 L 3132.82,2515.55 L 3140.65,2506.01 L 3150.2,2498.18 L 3161.09,2492.35 L 3172.91,2488.77 L 3185.2,2487.56 L 3197.49,2488.77 L 3209.3,2492.35 L 3217,2496.47 L 3301.91,2411.56 L 3304.3,2409.6 L 3307.02,2408.15 L 3309.97,2407.25 L 3313.05,2406.95 L 4238.79,2406.95 L 4243.65,2407.72 L 4248.04,2409.96 L 4421.53,2583.17 L 4423.49,2585.56 L 4424.94,2588.28 L 4425.84,2591.23 L 4426.14,2594.31 L 4426.14,3411.71 L 4436.01,3414.7 L 4447.58,3420.89 L 4457.72,3429.21 L 4466.04,3439.35 L 4472.23,3450.92 L 4476.04,3463.48 L 4477.32,3476.54 L 4476.04,3489.59 L 4472.23,3502.15 L 4466.04,3513.72 L 4457.72,3523.86 L 4447.58,3532.18 L 4436.01,3538.37 L 4423.45,3542.18 L 4410.39,3543.46 L 4397.34,3542.18 L 4384.78,3538.37 L 4373.21,3532.18 L 4363.07,3523.86 L 4354.74,3513.72 L 4348.56,3502.15 L 4344.75,3489.59 L 4343.46,3476.54 L 4344.75,3463.48 L 4348.56,3450.92 L 4354.74,3439.35 L 4363.07,3429.21 L 4373.21,3420.89 L 4384.78,3414.7 L 4394.64,3411.71 L 4394.64,2600.83 L 4232.26,2438.45 L 3319.57,2438.45 L 3239.28,2518.74 L 3243.39,2526.45 L 3246.98,2538.26 L 3248.19,2550.55 L 3246.98,2562.84 L 3243.39,2574.66 L 3237.57,2585.55 L 3229.74,2595.09 L 3220.19,2602.93 L 3209.3,2608.75 L 3197.49,2612.33 L 3185.2,2613.54 L 3172.91,2612.33 L 3161.09,2608.75 L 3150.2,2602.93 L 3140.65,2595.09 L 3132.82,2585.55 L 3127,2574.66 L 3123.42,2562.84 L 3122.2,2550.55 z " style="fill-opacity:1.000000;fill:rgb(5,60,124);stroke:rgb(0,0,0);stroke-width:2"/></g>
<g fill-rule="evenodd"><path d="M 3122.2,1350.55 L 3123.42,1338.26 L 3127,1326.45 L 3132.82,1315.55 L 3140.65,1306.01 L 3150.2,1298.18 L 3161.09,1292.35 L 3172.91,1288.77 L 3185.2,1287.56 L 3197.49,1288.77 L 3209.3,1292.35 L 3220.19,1298.18 L 3229.74,1306.01 L 3237.57,1315.55 L 3243.39,1326.45 L 3246.98,1338.26 L 3248.19,1350.55 L 3246.98,1362.84 L 3243.39,1374.66 L 3237.57,1385.55 L 3229.74,1395.09 L 3220.19,1402.93 L 3209.3,1408.75 L 3197.49,1412.33 L 3185.2,1413.54 L 3172.91,1412.33 L 3161.09,1408.75 L 3150.2,1402.93 L 3140.65,1395.09 L 3132.82,1385.55 L 3127,1374.66 L 3123.42,1362.84 L 3122.2,1350.55 z " style="fill-opacity:1.000000;fill:rgb(148,117,216);stroke:rgb(0,0,0);stroke-width:2"/></g>
<g fill-rule="evenodd"><path d="M 3143.46,3476.54 L 3144.75,3463.48 L 3148.56,3450.92 L 3154.74,3439.35 L 3163.07,3429.21 L 3173.21,3420.89 L 3184.78,3414.7 L 3197.34,3410.89 L 3210.39,3409.61 L 3223.45,3410.89 L 3236.01,3414.7 L 3247.58,3420.89 L 3257.72,3429.21 L 3266.04,3439.35 L 3272.23,3450.92 L 3276.04,3463.48 L 3277.32,3476.54 L 3276.04,3489.59 L 3272.23,3502.15 L 3266.04,3513.72 L 3257.72,3523.86 L 3247.58,3532.18 L 3236.01,3538.37 L 3223.45,3542.18 L 3210.39,3543.46 L 3197.34,3542.18 L 3184.78,3538.37 L 3173.21,3532.18 L 3163.07,3523.86 L 3154.74,3513.72 L 3148.56,3502.15 L 3144.75,3489.59 L 3143.46,3476.54 z " style="fill-opacity:1.000000;fill:rgb(190,97,137);stroke:rgb(0,0,0);stroke-width:2"/></g>
<g fill-rule="evenodd"><path d="M 3322.2,2550.55 L 3323.42,2538.26 L 3327,2526.45 L 3332.82,2515.55 L 3340.65,2506.01 L 3350.2,2498.18 L 3361.09,2492.35 L 3372.91,2488.77 L 3385.2,2487.56 L 3397.49,2488.77 L 3409.3,2492.35 L 3420.19,2498.18 L 3429.74,2506.01 L 3437.57,2515.55 L 3443.39,2526.45 L 3446.98,2538.26 L 3448.19,2550.55 L 3446.98,2562.84 L 3443.39,2574.66 L 3437.57,2585.55 L 3429.74,2595.09 L 3420.19,2602.93 L 3409.3,2608.75 L 3400.94,2611.28 L 3400.94,2660.79 L 3410.4,2660.79 L 3413.47,2661.1 L 3416.43,2661.99 L 3419.15,2663.45 L 3421.54,2665.41 L 4175.69,3419.56 L 4184.78,3414.7 L 4197.34,3410.89 L 4210.39,3409.61 L 4223.45,3410.89 L 4236.01,3414.7 L 4247.58,3420.89 L 4257.72,3429.21 L 4266.04,3439.35 L 4272.23,3450.92 L 4276.04,3463.48 L 4277.32,3476.54 L 4276.04,3489.59 L 4272.23,3502.15 L 4266.04,3513.72 L 4257.72,3523.86 L 4247.58,3532.18 L 4236.01,3538.37 L 4223.45,3542.18 L 4210.39,3543.46 L 4197.34,3542.18 L 4184.78,3538.37 L 4173.21,3532.18 L 4163.07,3523.86 L 4154.74,3513.72 L 4148.56,3502.15 L 4144.75,3489.59 L 4143.46,3476.54 L 4144.75,3463.48 L 4148.56,3450.92 L 4153.42,3441.83 L 3403.88,2692.29 L 3385.19,2692.29 L 3382.12,2691.99 L 3379.17,2691.09 L 3376.45,2689.64 L 3374.06,2687.68 L 3372.1,2685.29 L 3370.65,2682.57 L 3369.75,2679.62 L 3369.45,2676.54 L 3369.45,2611.28 L 3361.09,2608.75 L 3350.2,2602.93 L 3340.65,2595.09 L 3332.82,2585.55 L 3327,2574.66 L 3323.42,2562.84 L 3322.2,2550.55 z " style="fill-opacity:1.000000;fill:rgb(249,92,187);stroke:rgb(0,0,0);stroke-width:2"/></g>
<g fill-rule="evenodd"><path d="M 3322.2,1350.55 L 3323.42,1338.26 L 3327,1326.45 L 3332.82,1315.55 L 3340.65,1306.01 L 3350.2,1298.18 L 3361.09,1292.35 L 3372.91,1288.77 L 3385.2,1287.56 L 3397.49,1288.77 L 3409.3,1292.35 L 3420.19,1298.18 L 3429.74,1306.01 L 3437.57,1315.55 L 3443.39,1326.45 L 3446.98,1338.26 L 3448.19,1350.55 L 3446.98,1362.84 L 3443.39,1374.66 L 3437.57,1385.55 L 3429.74,1395.09 L 3420.19,1402.93 L 3409.3,1408.75 L 3397.49,1412.33 L 3385.2,1413.54 L 3372.91,1412.33 L 3361.09,1408.75 L 3350.2,1402.93 L 3340.65,1395.09 L 3332.82,1385.55 L 3327,1374.66 L 3323.42,1362.84 L 3322.2,1350.55 z " style="fill-opacity:1.000000;fill:rgb(168,153,15);stroke:rgb(0,0,0);stroke-width:2"/></g>
<g fill-rule="evenodd"><path d="M 3343.46,3476.54 L 3344.75,3463.48 L 3348.56,3450.92 L 3354.74,3439.35 L 3363.07,3429.21 L 3373.21,3420.89 L 3384.78,3414.7 L 3397.34,3410.89 L 3410.39,3409.61 L 3423.45,3410.89 L 3436.01,3414.7 L 3447.58,3420.89 L 3457.72,3429.21 L 3466.04,3439.35 L 3472.23,3450.92 L 3476.04,3463.48 L 3477.32,3476.54 L 3476.04,3489.59 L 3472.23,3502.15 L 3466.04,3513.72 L 3457.72,3523.86 L 3447.58,3532.18 L 3436.01,3538.37 L 3423.45,3542.18 L 3410.39,3543.46 L 3397.34,3542.18 L 3384.78,3538.37 L 3373.21,3532.18 L 3363.07,3523.86 L 3354.74,3513.72 L 3348.56,3502.15 L 3344.75,3489.59 L 3343.46,3476.54 z " style="fill-opacity:1.000000;fill:rgb(149,177,235);stroke:rgb(0,0,0);stroke-width:2"/></g>
<g fill-rule="evenodd"><path d="M 3522.2,2550.55 L 3523.42,2538.26 L 3527,2526.45 L 3532.82,2515.55 L 3540.65,2506.01 L 3550.2,2498.18 L 3561.09,2492.35 L 3572.91,2488.77 L 3585.2,2487.56 L 3597.49,2488.77 L 3609.3,2492.35 L 3620.19,2498.18 L 3629.74,2506.01 L 3637.57,2515.55 L 3643.39,2526.45 L 3646.98,2538.26 L 3648.19,2550.55 L 3646.98,2562.84 L 3643.39,2574.66 L 3637.57,2585.55 L 3629.74,2595.09 L 3620.19,2602.93 L 3609.3,2608.75 L 3597.49,2612.33 L 3585.2,2613.54 L 3572.91,2612.33 L 3561.09,2608.75 L 3550.2,2602.93 L 3540.65,2595.09 L 3532.82,2585.55 L 3527,2574.66 L 3523.42,2562.84 L 3522.2,2550.55 z " style="fill-opacity:1.000000;fill:rgb(241,179,5);stroke:rgb(0,0,0);stroke-width:2"/></g>
<g fill-rule="evenodd"><path d="M 3522.2,1350.55 L 3523.42,1338.26 L 3527,1326.45 L 3532.82,1315.55 L 3540.65,1306.01 L 3550.2,1298.18 L 3561.09,1292.35 L 3572.91,1288.77 L 3585.2,1287.56 L 3597.49,1288.77 L 3609.3,1292.35 L 3620.19,1298.18 L 3629.74,1306.01 L 3637.57,1315.55 L 3643.39,1326.45 L 3646.98,1338.26 L 3648.19,1350.55 L 3646.98,1362.84 L 3643.39,1374.66 L 3637.57,1385.55 L 3629.74,1395.09 L 3620.19,1402.93 L 3609.3,1408.75 L 3597.49,1412.33 L 3585.2,1413.54 L 3572.91,1412.33 L 3561.09,1408.75 L 3550.2,1402.93 L 3540.65,1395.09 L 3532.82,1385.55 L 3527,1374.66 L 3523.42,1362.84 L 3522.2,1350.55 z " style="fill-opacity:1.000000;fill:rgb(239,247,0);stroke:rgb(0,0,0);stroke-width:2"/></g>
<g fill-rule="evenodd"><path d="M 3543.46,3476.54 L 3544.75,3463.48 L 3548.56,3450.92 L 3554.74,3439.35 L 3563.07,3429.21 L 3573.21,3420.89 L 3584.78,3414.7 L 3597.34,3410.89 L 3610.39,3409.61 L 3623.45,3410.89 L 3636.01,3414.7 L 3647.58,3420.89 L 3657.72,3429.21 L 3666.04,3439.35 L 3672.23,3450.92 L 3676.04,3463.48 L 3677.32,3476.54 L 3676.04,3489.59 L 3672.23,3502.15 L 3666.04,3513.72 L 3657.72,3523.86 L 3647.58,3532.18 L 3636.01,3538.37 L 3623.45,3542.18 L 3610.39,3543.46 L 3597.34,3542.18 L 3584.78,3538.37 L 3573.21,3532.18 L 3563.07,3523.86 L 3554.74,3513.72 L 3548.56,3502.15 L 3544.75,3489.59 L 3543.46,3476.54 z " style="fill-opacity:1.000000;fill:rgb(233,161,58);stroke:rgb(0,0,0);stroke-width:2"/></g>
<g fill-rule="evenodd"><path d="M 3722.2,2550.55 L 3723.42,2538.26 L 3727,2526.45 L 3732.82,2515.55 L 3740.65,2506.01 L 3750.2,2498.18 L 3761.09,2492.35 L 3772.91,2488.77 L 3785.2,2487.56 L 3797.49,2488.77 L 3809.3,2492.35 L 3820.19,2498.18 L 3829.74,2506.01 L 3837.57,2515.55 L 3843.39,2526.45 L 3846.98,2538.26 L 3848.19,2550.55 L 3846.98,2562.84 L 3843.39,2574.66 L 3837.57,2585.55 L 3829.74,2595.09 L 3820.19,2602.93 L 3809.3,2608.75 L 3797.49,2612.33 L 3785.2,2613.54 L 3772.91,2612.33 L 3761.09,2608.75 L 3750.2,2602.93 L 3740.65,2595.09 L 3732.82,2585.55 L 3727,2574.66 L 3723.42,2562.84 L 3722.2,2550.55 z " style="fill-opacity:1.000000;fill:rgb(229,202,11);stroke:rgb(0,0,0);stroke-width:2"/></g>
<g fill-rule="evenodd"><path d="M 3722.2,1350.55 L 3723.42,1338.26 L 3727,1326.45 L 3732.82,1315.55 L 3740.65,1306.01 L 3750.2,1298.18 L 3761.09,1292.35 L 3772.91,1288.77 L 3785.2,1287.56 L 3797.49,1288.77 L 3809.3,1292.35 L 3820.19,1298.18 L 3829.74,1306.01 L 3837.57,1315.55 L 3843.39,1326.45 L 3846.98,1338.26 L 3848.19,1350.55 L 3846.98,1362.84 L 3843.39,1374.66 L 3837.57,1385.55 L 3829.74,1395.09 L 3820.19,1402.93 L 3809.3,1408.75 L 3797.49,1412.33 L 3785.2,1413.54 L 3772.91,1412.33 L 3761.09,1408.75 L 3750.2,1402.93 L 3740.65,1395.09 L 3732.82,1385.55 L 3727,1374.66 L 3723.42,1362.84 L 3722.2,1350.55 z " style="fill-opacity:1.000000;fill:rgb(203,208,72);stroke:rgb(0,0,0);stroke-width:2"/></g>
<g fill-rule="evenodd"><path d="M 3743.46,3476.54 L 3744.75,3463.48 L 3748.56,3450.92 L 3754.74,3439.35 L 3763.07,3429.21 L 3773.21,3420.89 L 3784.78,3414.7 L 3797.34,3410.89 L 3810.39,3409.61 L 3823.45,3410.89 L 3836.01,3414.7 L 3847.58,3420.89 L 3857.72,3429.21 L 3866.04,3439.35 L 3872.23,3450.92 L 3876.04,3463.48 L 3877.32,3476.54 L 3876.04,3489.59 L 3872.23,3502.15 L 3866.04,3513.72 L 3857.72,3523.86 L 3847.58,3532.18 L 3836.01,3538.37 L 3823.45,3542.18 L 3810.39,3543.46 L 3797.34,3542.18 L 3784.78,3538.37 L 3773.21,3532.18 L 3763.07,3523.86 L 3754.74,3513.72 L 3748.56,3502.15 L 3744.75,3489.59 L 3743.46,3476.54 z " style="fill-opacity:1.000000;fill:rgb(71,100,189);stroke:rgb(0,0,0);stroke-width:2"/></g>
<g fill-rule="evenodd"><path d="M 3922.2,2550.55 L 3923.42,2538.26 L 3927,2526.45 L 3932.82,2515.55 L 3940.65,2506.01 L 3950.2,2498.18 L 3961.09,2492.35 L 3972.91,2488.77 L 3985.2,2487.56 L 3997.49,2488.77 L 4009.3,2492.35 L 4020.19,2498.18 L 4029.74,2506.01 L 4037.57,2515.55 L 4043.39,2526.45 L 4046.98,2538.26 L 4048.19,2550.55 L 4046.98,2562.84 L 4043.39,2574.66 L 4037.57,2585.55 L 4029.74,2595.09 L 4020.19,2602.93 L 4009.3,2608.75 L 3997.49,2612.33 L 3985.2,2613.54 L 3972.91,2612.33 L 3961.09,2608.75 L 3950.2,2602.93 L 3940.65,2595.09 L 3932.82,2585.55 L 3927,2574.66 L 3923.42,2562.84 L 3922.2,2550.55 z " style="fill-opacity:1.000000;fill:rgb(31,35,30);stroke:rgb(0,0,0);stroke-width:2"/></g>
<g fill-rule="evenodd"><path d="M 3922.2,1350.55 L 3923.42,1338.26 L 3927,1326.45 L 3932.82,1315.55 L 3940.65,1306.01 L 3950.2,1298.18 L 3961.09,1292.35 L 3972.91,1288.77 L 3985.2,1287.56 L 3997.49,1288.77 L 4009.3,1292.35 L 4020.19,1298.18 L 4029.74,1306.01 L 4037.57,1315.55 L 4043.39,1326.45 L 4046.98,1338.26 L 4048.19,1350.55 L 4046.98,1362.84 L 4043.39,1374.66 L 4037.57,1385.55 L 4029.74,1395.09 L 4020.19,1402.93 L 4009.3,1408.75 L 3997.49,1412.33 L 3985.2,1413.54 L 3972.91,1412.33 L 3961.09,1408.75 L 3950.2,1402.93 L 3940.65,1395.09 L 3932.82,1385.55 L 3927,1374.66 L 3923.42,1362.84 L 3922.2,1350.55 z " style="fill-opacity:1.000000;fill:rgb(168,28,123);stroke:rgb(0,0,0);stroke-width:2"/></g>
<g fill-rule="evenodd"><path d="M 3943.46,3476.54 L 3944.75,3463.48 L 3948.56,3450.92 L 3954.74,3439.35 L 3963.07,3429.21 L 3973.21,3420.89 L 3984.78,3414.7 L 3997.34,3410.89 L 4010.39,3409.61 L 4023.45,3410.89 L 4036.01,3414.7 L 4047.58,3420.89 L 4057.72,3429.21 L 4066.04,3439.35 L 4072.23,3450.92 L 4076.04,3463.48 L 4077.32,3476.54 L 4076.04,3489.59 L 4072.23,3502.15 L 4066.04,3513.72 L 4057.72,3523.86 L 4047.58,3532.18 L 4036.01,3538.37 L 4023.45,3542.18 L 4010.39,3543.46 L 3997.34,3542.18 L 3984.78,3538.37 L 3973.21,3532.18 L 3963.07,3523.86 L 3954.74,3513.72 L 3948.56,3502.15 L 3944.75,3489.59 L 3943.46,3476.54 z " style="fill-opacity:1.000000;fill:rgb(100,197,20);stroke:rgb(0,0,0);stroke-width:2"/></g>
<g fill-rule="evenodd"><path d="M 4122.2,2550.55 L 4123.42,2538.26 L 4127,2526.45 L 4132.82,2515.55 L 4140.65,2506.01 L 4150.2,2498.18 L 4161.09,2492.35 L 4172.91,2488.77 L 4185.2,2487.56 L 4197.49,2488.77 L 4209.3,2492.35 L 4220.19,2498.18 L 4229.74,2506.01 L 4237.57,2515.55 L 4243.39,2526.45 L 4246.98,2538.26 L 4248.19,2550.55 L 4246.98,2562.84 L 4243.39,2574.66 L 4237.57,2585.55 L 4229.74,2595.09 L 4220.19,2602.93 L 4209.3,2608.75 L 4197.49,2612.33 L 4185.2,2613.54 L 4172.91,2612.33 L 4161.09,2608.75 L 4150.2,2602.93 L 4140.65,2595.09 L 4132.82,2585.55 L 4127,2574.66 L 4123.42,2562.84 L 4122.2,2550.55 z " style="fill-opacity:1.000000;fill:rgb(115,90,197);stroke:rgb(0,0,0);stroke-width:2"/></g>
<g fill-rule="evenodd"><path d="M 4122.2,1350.55 L 4123.42,1338.26 L 4127,1326.45 L 4132.82,1315.55 L 4140.65,1306.01 L 4150.2,1298.18 L 4161.09,1292.35 L 4172.91,1288.77 L 4185.2,1287.56 L 4197.49,1288.77 L 4209.3,1292.35 L 4220.19,1298.18 L 4229.74,1306.01 L 4237.57,1315.55 L 4243.39,1326.45 L 4246.98,1338.26 L 4248.19,1350.55 L 4246.98,1362.84 L 4243.39,1374.66 L 4237.57,1385.55 L 4229.74,1395.09 L 4220.19,1402.93 L 4209.3,1408.75 L 4197.49,1412.33 L 4185.2,1413.54 L 4172.91,1412.33 L 4161.09,1408.75 L 4150.2,1402.93 L 4140.65,1395.09 L 4132.82,1385.55 L 4127,1374.66 L 4123.42,1362.84 L 4122.2,1350.55 z " style="fill-opacity:1.000000;fill:rgb(94,75,121);stroke:rgb(0,0,0);stroke-width:2"/></g>
<g fill-rule="evenodd"><path d="M 4163.75,1752.69 L 4164.5,1745 L 4166.74,1737.62 L 4170.38,1730.81 L 4175.28,1724.85 L 4181.25,1719.95 L 4188.05,1716.31 L 4195.44,1714.07 L 4203.12,1713.31 L 4210.8,1714.07 L 4218.18,1716.31 L 4224.99,1719.95 L 4230.96,1724.85 L 4235.85,1730.81 L 4239.13,1736.94 L 4508.58,1736.94 L 4511.65,1737.24 L 4514.61,1738.14 L 4517.33,1739.59 L 4519.72,1741.55 L 5198.01,2419.84 L 5256.75,2419.84 L 5259.28,2411.48 L 5265.1,2400.59 L 5272.94,2391.05 L 5282.48,2383.21 L 5293.37,2377.39 L 5305.19,2373.81 L 5317.48,2372.6 L 5329.77,2373.81 L 5341.59,2377.39 L 5349.29,2381.51 L 5430.19,2300.6 L 5430.19,1213.6 L 5430.97,1208.73 L 5431.91,1206.45 L 5434.81,1202.46 L 5655.55,981.721 L 5657.94,979.763 L 5660.66,978.308 L 5663.61,977.412 L 5666.68,977.109 L 5711.09,977.109 L 5714.36,970.985 L 5719.26,965.019 L 5725.22,960.123 L 5732.03,956.485 L 5739.41,954.245 L 5747.09,953.488 L 5754.78,954.245 L 5761.42,956.26 L 5819.58,898.099 L 5823.57,895.203 L 5825.85,894.258 L 5830.71,893.487 L 5973.96,893.487 L 5976.42,893.681 L 5981.11,895.203 L 5985.09,898.099 L 6200.27,1113.27 L 6202.23,1115.66 L 6203.68,1118.38 L 6204.58,1121.34 L 6204.88,1124.41 L 6204.88,1962.14 L 6624.25,2381.51 L 6631.96,2377.39 L 6643.77,2373.81 L 6656.06,2372.6 L 6668.35,2373.81 L 6680.17,2377.39 L 6691.06,2383.21 L 6700.61,2391.05 L 6708.44,2400.59 L 6714.26,2411.48 L 6717.84,2423.3 L 6719.06,2435.59 L 6717.84,2447.88 L 6714.26,2459.7 L 6708.44,2470.59 L 6700.61,2480.13 L 6691.06,2487.97 L 6680.17,2493.79 L 6668.35,2497.37 L 6656.06,2498.58 L 6643.77,2497.37 L 6631.96,2493.79 L 6621.07,2487.97 L 6611.52,2480.13 L 6603.69,2470.59 L 6597.87,2459.7 L 6594.28,2447.88 L 6593.07,2435.59 L 6594.28,2423.3 L 6597.87,2411.48 L 6601.98,2403.78 L 6178,1979.8 L 6175.1,1975.81 L 6173.58,1971.12 L 6173.38,1968.66 L 6173.38,1130.93 L 5967.44,924.983 L 5837.24,924.983 L 5783.69,978.53 L 5785.71,985.178 L 5786.46,992.858 L 5785.71,1000.54 L 5783.47,1007.92 L 5779.83,1014.73 L 5774.93,1020.7 L 5768.97,1025.59 L 5762.16,1029.23 L 5754.78,1031.47 L 5747.09,1032.23 L 5739.41,1031.47 L 5732.03,1029.23 L 5725.22,1025.59 L 5719.26,1020.7 L 5714.36,1014.73 L 5711.09,1008.61 L 5673.21,1008.61 L 5461.69,1220.12 L 5461.69,2307.12 L 5461.39,2310.2 L 5460.49,2313.15 L 5459.04,2315.87 L 5457.08,2318.26 L 5371.56,2403.78 L 5375.68,2411.48 L 5379.26,2423.3 L 5380.47,2435.59 L 5379.26,2447.88 L 5375.68,2459.7 L 5369.86,2470.59 L 5362.02,2480.13 L 5352.48,2487.97 L 5341.59,2493.79 L 5329.77,2497.37 L 5317.48,2498.58 L 5305.19,2497.37 L 5293.37,2493.79 L 5282.48,2487.97 L 5272.94,2480.13 L 5265.1,2470.59 L 5259.28,2459.7 L 5256.75,2451.34 L 5191.49,2451.34 L 5188.41,2451.03 L 5185.46,2450.14 L 5182.74,2448.68 L 5180.35,2446.72 L 4502.06,1768.43 L 4239.13,1768.43 L 4235.85,1774.56 L 4230.96,1780.52 L 4224.99,1785.42 L 4218.18,1789.06 L 4210.8,1791.3 L 4203.12,1792.06 L 4195.44,1791.3 L 4188.05,1789.06 L 4181.25,1785.42 L 4175.28,1780.52 L 4170.38,1774.56 L 4166.74,1767.75 L 4164.5,1760.37 L 4163.75,1752.69 z " style="fill-opacity:1.000000;fill:rgb(99,59,112);stroke:rgb(0,0,0);stroke-width:2"/></g>
<g fill-rule="evenodd"><path d="M 5254.49,2235.59 L 5255.7,2223.3 L 5259.28,2211.48 L 5265.1,2200.59 L 5272.94,2191.05 L 5282.48,2183.21 L 5293.37,2177.39 L 5305.19,2173.81 L 5317.48,2172.6 L 5329.77,2173.81 L 5341.59,2177.39 L 5352.48,2183.21 L 5362.02,2191.05 L 5369.86,2200.59 L 5375.68,2211.48 L 5379.26,2223.3 L 5380.47,2235.59 L 5379.26,2247.88 L 5375.68,2259.7 L 5369.86,2270.59 L 5362.02,2280.13 L 5352.48,2287.97 L 5341.59,2293.79 L 5329.77,2297.37 L 5317.48,2298.58 L 5305.19,2297.37 L 5293.37,2293.79 L 5282.48,2287.97 L 5272.94,2280.13 L 5265.1,2270.59 L 5259.28,2259.7 L 5255.7,2247.88 L 5254.49,2235.59 z " style="fill-opacity:1.000000;fill:rgb(100,36,17);stroke:rgb(0,0,0);stroke-width:2"/></g>
<g fill-rule="evenodd"><path d="M 5254.49,2035.59 L 5255.7,2023.3 L 5259.28,2011.48 L 5265.1,2000.59 L 5272.94,1991.05 L 5282.48,1983.21 L 5293.37,1977.39 L 5305.19,1973.81 L 5317.48,1972.6 L 5329.77,1973.81 L 5341.59,1977.39 L 5352.48,1983.21 L 5362.02,1991.05 L 5369.86,2000.59 L 5375.68,2011.48 L 5379.26,2023.3 L 5380.47,2035.59 L 5379.26,2047.88 L 5375.68,2059.7 L 5369.86,2070.59 L 5362.02,2080.13 L 5352.48,2087.97 L 5341.59,2093.79 L 5329.77,2097.37 L 5317.48,2098.58 L 5305.19,2097.37 L 5293.37,2093.79 L 5282.48,2087.97 L 5272.94,2080.13 L 5265.1,2070.59 L 5259.28,2059.7 L 5255.7,2047.88 L 5254.49,2035.59 z " style="fill-opacity:1.000000;fill:rgb(158,9,220);stroke:rgb(0,0,0);stroke-width:2"/></g>
<g fill-rule="evenodd"><path d="M 5254.49,1835.59 L 5255.7,1823.3 L 5259.28,1811.48 L 5265.1,1800.59 L 5272.94,1791.05 L 5282.48,1783.21 L 5293.37,1777.39 L 5305.19,1773.81 L 5317.48,1772.6 L 5329.77,1773.81 L 5341.59,1777.39 L 5352.48,1783.21 L 5362.02,1791.05 L 5369.86,1800.59 L 5375.68,1811.48 L 5379.26,1823.3 L 5380.47,1835.59 L 5379.26,1847.88 L 5375.68,1859.7 L 5369.86,1870.59 L 5362.02,1880.13 L 5352.48,1887.97 L 5341.59,1893.79 L 5329.77,1897.37 L 5317.48,1898.58 L 5305.19,1897.37 L 5293.37,1893.79 L 5282.48,1887.97 L 5272.94,1880.13 L 5265.1,1870.59 L 5259.28,1859.7 L 5255.7,1847.88 L 5254.49,1835.59 z " style="fill-opacity:1.000000;fill:rgb(170,212,172);stroke:rgb(0,0,0);stroke-width:2"/></g>
<g fill-rule="evenodd"><path d="M 5254.49,1635.59 L 5255.7,1623.3 L 5259.28,1611.48 L 5265.1,1600.59 L 5272.94,1591.05 L 5282.48,1583.21 L 5293.37,1577.39 L 5305.19,1573.81 L 5317.48,1572.6 L 5329.77,1573.81 L 5341.59,1577.39 L 5352.48,1583.21 L 5362.02,1591.05 L 5369.86,1600.59 L 5375.68,1611.48 L 5379.26,1623.3 L 5380.47,1635.59 L 5379.26,1647.88 L 5375.68,1659.7 L 5369.86,1670.59 L 5362.02,1680.13 L 5352.48,1687.97 L 5341.59,1693.79 L 5329.77,1697.37 L 5317.48,1698.58 L 5305.19,1697.37 L 5293.37,1693.79 L 5282.48,1687.97 L 5272.94,1680.13 L 5265.1,1670.59 L 5259.28,1659.7 L 5255.7,1647.88 L 5254.49,1635.59 z " style="fill-opacity:1.000000;fill:rgb(242,27,16);stroke:rgb(0,0,0);stroke-width:2"/></g>
<g fill-rule="evenodd"><path d="M 5254.49,1435.59 L 5255.7,1423.3 L 5259.28,1411.48 L 5265.1,1400.59 L 5272.94,1391.05 L 5282.48,1383.21 L 5293.37,1377.39 L 5305.19,1373.81 L 5317.48,1372.6 L 5329.77,1373.81 L 5341.59,1377.39 L 5352.48,1383.21 L 5362.02,1391.05 L 5369.86,1400.59 L 5375.68,1411.48 L 5379.26,1423.3 L 5380.47,1435.59 L 5379.26,1447.88 L 5375.68,1459.7 L 5369.86,1470.59 L 5362.02,1480.13 L 5352.48,1487.97 L 5341.59,1493.79 L 5329.77,1497.37 L 5317.48,1498.58 L 5305.19,1497.37 L 5293.37,1493.79 L 5282.48,1487.97 L 5272.94,1480.13 L 5265.1,1470.59 L 5259.28,1459.7 L 5255.7,1447.88 L 5254.49,1435.59 z " style="fill-opacity:1.000000;fill:rgb(175,59,51);stroke:rgb(0,0,0);stroke-width:2"/></g>
<g fill-rule="evenodd"><path d="M 5254.49,1235.59 L 5255.7,1223.3 L 5259.28,1211.48 L 5265.1,1200.59 L 5272.94,1191.05 L 5282.48,1183.21 L 5293.37,1177.39 L 5305.19,1173.81 L 5317.48,1172.6 L 5329.77,1173.81 L 5341.59,1177.39 L 5352.48,1183.21 L 5362.02,1191.05 L 5369.86,1200.59 L 5375.68,1211.48 L 5379.26,1223.3 L 5380.47,1235.59 L 5379.26,1247.88 L 5375.68,1259.7 L 5369.86,1270.59 L 5362.02,1280.13 L 5352.48,1287.97 L 5341.59,1293.79 L 5329.77,1297.37 L 5317.48,1298.58 L 5305.19,1297.37 L 5293.37,1293.79 L 5282.48,1287.97 L 5272.94,1280.13 L 5265.1,1270.59 L 5259.28,1259.7 L 5255.7,1247.88 L 5254.49,1235.59 z " style="fill-opacity:1.000000;fill:rgb(205,227,80);stroke:rgb(0,0,0);stroke-width:2"/></g>
<g fill-rule="evenodd"><path d="M 5254.49,1098.58 L 5254.49,972.598 L 5380.47,972.598 L 5380.47,1098.58 L 5254.49,1098.58 z " style="fill-opacity:1.000000;fill:rgb(72,71,21);stroke:rgb(0,0,0);stroke-width:2"/></g>
<g fill-rule="evenodd"><path d="M 5532.87,1235.59 L 5533.62,1227.91 L 5535.86,1220.52 L 5539.5,1213.72 L 5544.4,1207.75 L 5550.36,1202.86 L 5557.17,1199.22 L 5564.56,1196.98 L 5572.24,1196.22 L 5579.92,1196.98 L 5587.3,1199.22 L 5594.11,1202.86 L 5600.08,1207.75 L 5604.97,1213.72 L 5608.24,1219.84 L 5856.75,1219.84 L 5859.28,1211.48 L 5865.1,1200.59 L 5872.94,1191.05 L 5882.48,1183.21 L 5893.37,1177.39 L 5905.19,1173.81 L 5917.48,1172.6 L 5929.77,1173.81 L 5941.59,1177.39 L 5952.48,1183.21 L 5962.02,1191.05 L 5969.86,1200.59 L 5975.68,1211.48 L 5979.26,1223.3 L 5980.47,1235.59 L 5979.26,1247.88 L 5975.68,1259.7 L 5969.86,1270.59 L 5962.02,1280.13 L 5952.48,1287.97 L 5941.59,1293.79 L 5929.77,1297.37 L 5917.48,1298.58 L 5905.19,1297.37 L 5893.37,1293.79 L 5882.48,1287.97 L 5872.94,1280.13 L 5865.1,1270.59 L 5859.28,1259.7 L 5856.75,1251.34 L 5608.25,1251.34 L 5604.97,1257.46 L 5600.08,1263.43 L 5594.11,1268.33 L 5587.3,1271.96 L 5579.92,1274.2 L 5572.24,1274.96 L 5564.56,1274.2 L 5557.17,1271.96 L 5550.36,1268.33 L 5544.4,1263.43 L 5539.5,1257.46 L 5535.86,1250.66 L 5533.62,1243.27 L 5532.87,1235.59 z " style="fill-opacity:1.000000;fill:rgb(92,187,111);stroke:rgb(0,0,0);stroke-width:2"/></g>
<g fill-rule="evenodd"><path d="M 5743.46,3476.54 L 5744.75,3463.48 L 5748.56,3450.92 L 5754.74,3439.35 L 5763.07,3429.21 L 5773.21,3420.89 L 5784.78,3414.7 L 5797.34,3410.89 L 5810.39,3409.61 L 5823.45,3410.89 L 5836.01,3414.7 L 5847.58,3420.89 L 5857.72,3429.21 L 5866.04,3439.35 L 5872.23,3450.92 L 5876.04,3463.48 L 5877.32,3476.54 L 5876.04,3489.59 L 5872.23,3502.15 L 5866.04,3513.72 L 5857.72,3523.86 L 5847.58,3532.18 L 5836.01,3538.37 L 5823.45,3542.18 L 5810.39,3543.46 L 5797.34,3542.18 L 5784.78,3538.37 L 5773.21,3532.18 L 5763.07,3523.86 L 5754.74,3513.72 L 5748.56,3502.15 L 5744.75,3489.59 L 5743.46,3476.54 z " style="fill-opacity:1.000000;fill:rgb(34,25,186);stroke:rgb(0,0,0);stroke-width:2"/></g>
<g fill-rule="evenodd"><path d="M 5854.49,2435.59 L 5855.7,2423.3 L 5859.28,2411.48 L 5865.1,2400.59 L 5872.94,2391.05 L 5882.48,2383.21 L 5893.37,2377.39 L 5905.19,2373.81 L 5917.48,2372.6 L 5929.77,2373.81 L 5941.59,2377.39 L 5952.48,2383.21 L 5962.02,2391.05 L 5969.86,2400.59 L 5975.68,2411.48 L 5978.21,2419.84 L 6043.47,2419.84 L 6048.34,2420.61 L 6050.62,2421.56 L 6054.61,2424.45 L 6335.03,2704.88 L 7144.55,2704.88 L 7368.83,2480.6 L 7368.83,2170.63 L 7287.87,2089.67 L 7280.17,2093.79 L 7268.35,2097.37 L 7256.06,2098.58 L 7243.77,2097.37 L 7231.96,2093.79 L 7221.07,2087.97 L 7211.52,2080.13 L 7203.69,2070.59 L 7197.87,2059.7 L 7194.28,2047.88 L 7193.07,2035.59 L 7194.28,2023.3 L 7197.87,2011.48 L 7203.69,2000.59 L 7211.52,1991.05 L 7221.07,1983.21 L 7231.96,1977.39 L 7243.77,1973.81 L 7256.06,1972.6 L 7268.35,1973.81 L 7280.17,1977.39 L 7287.87,1981.51 L 7369.92,1899.46 L 7369.92,1771.72 L 7287.87,1689.67 L 7280.17,1693.79 L 7268.35,1697.37 L 7256.06,1698.58 L 7243.77,1697.37 L 7231.96,1693.79 L 7221.07,1687.97 L 7211.52,1680.13 L 7203.69,1670.59 L 7197.87,1659.7 L 7194.28,1647.88 L 7193.07,1635.59 L 7194.28,1623.3 L 7197.87,1611.48 L 7203.69,1600.59 L 7211.52,1591.05 L 7221.07,1583.21 L 7231.96,1577.39 L 7243.77,1573.81 L 7256.06,1572.6 L 7268.35,1573.81 L 7280.17,1577.39 L 7291.06,1583.21 L 7300.61,1591.05 L 7308.44,1600.59 L 7314.26,1611.48 L 7317.84,1623.3 L 7319.06,1635.59 L 7317.84,1647.88 L 7314.26,1659.7 L 7310.14,1667.4 L 7396.8,1754.06 L 7398.76,1756.45 L 7400.22,1759.17 L 7401.11,1762.12 L 7401.42,1765.19 L 7401.42,1905.98 L 7401.11,1909.06 L 7400.22,1912.01 L 7398.76,1914.73 L 7396.8,1917.12 L 7310.14,2003.78 L 7314.26,2011.48 L 7317.84,2023.3 L 7319.06,2035.59 L 7317.84,2047.88 L 7314.26,2059.7 L 7310.14,2067.4 L 7395.72,2152.97 L 7397.68,2155.36 L 7399.13,2158.08 L 7400.03,2161.04 L 7400.33,2164.11 L 7400.33,2487.12 L 7400.03,2490.2 L 7399.13,2493.15 L 7397.67,2495.87 L 7395.72,2498.26 L 7162.21,2731.76 L 7158.23,2734.66 L 7155.94,2735.61 L 7151.08,2736.38 L 6326.05,2736.18 L 6321.36,2734.66 L 6317.38,2731.76 L 6036.95,2451.34 L 5978.21,2451.34 L 5975.68,2459.7 L 5969.86,2470.59 L 5962.02,2480.13 L 5952.48,2487.97 L 5941.59,2493.79 L 5929.77,2497.37 L 5917.48,2498.58 L 5905.19,2497.37 L 5893.37,2493.79 L 5882.48,2487.97 L 5872.94,2480.13 L 5865.1,2470.59 L 5859.28,2459.7 L 5855.7,2447.88 L 5854.49,2435.59 z " style="fill-opacity:1.000000;fill:rgb(155,125,245);stroke:rgb(0,0,0);stroke-width:2"/></g>
<g fill-rule="evenodd"><path d="M 5854.49,2035.59 L 5855.7,2023.3 L 5859.28,2011.48 L 5865.1,2000.59 L 5872.94,1991.05 L 5882.48,1983.21 L 5893.37,1977.39 L 5905.19,1973.81 L 5917.48,1972.6 L 5929.77,1973.81 L 5941.59,1977.39 L 5952.48,1983.21 L 5962.02,1991.05 L 5969.86,2000.59 L 5975.68,2011.48 L 5979.26,2023.3 L 5980.47,2035.59 L 5979.26,2047.88 L 5975.68,2059.7 L 5969.86,2070.59 L 5962.02,2080.13 L 5952.48,2087.97 L 5941.59,2093.79 L 5929.77,2097.37 L 5917.48,2098.58 L 5905.19,2097.37 L 5893.37,2093.79 L 5882.48,2087.97 L 5872.94,2080.13 L 5865.1,2070.59 L 5859.28,2059.7 L 5855.7,2047.88 L 5854.49,2035.59 z " style="fill-opacity:1.000000;fill:rgb(11,225,26);stroke:rgb(0,0,0);stroke-width:2"/></g>
<g fill-rule="evenodd"><path d="M 5854.49,1635.59 L 5855.7,1623.3 L 5859.28,1611.48 L 5865.1,1600.59 L 5872.94,1591.05 L 5882.48,1583.21 L 5893.37,1577.39 L 5905.19,1573.81 L 5917.48,1572.6 L 5929.77,1573.81 L 5941.59,1577.39 L 5952.48,1583.21 L 5962.02,1591.05 L 5969.86,1600.59 L 5975.68,1611.48 L 5979.26,1623.3 L 5980.47,1635.59 L 5979.26,1647.88 L 5975.68,1659.7 L 5969.86,1670.59 L 5962.02,1680.13 L 5952.48,1687.97 L 5941.59,1693.79 L 5929.77,1697.37 L 5917.48,1698.58 L 5905.19,1697.37 L 5893.37,1693.79 L 5882.48,1687.97 L 5872.94,1680.13 L 5865.1,1670.59 L 5859.28,1659.7 L 5855.7,1647.88 L 5854.49,1635.59 z " style="fill-opacity:1.000000;fill:rgb(28,127,35);stroke:rgb(0,0,0);stroke-width:2"/></g>
<g fill-rule="evenodd"><path d="M 5854.49,1035.59 L 5855.7,1023.3 L 5859.28,1011.48 L 5865.1,1000.59 L 5872.94,991.048 L 5882.48,983.215 L 5893.37,977.393 L 5905.19,973.809 L 5917.48,972.598 L 5929.77,973.809 L 5941.59,977.393 L 5952.48,983.215 L 5962.02,991.048 L 5969.86,1000.59 L 5975.68,1011.48 L 5979.26,1023.3 L 5980.47,1035.59 L 5979.26,1047.88 L 5975.68,1059.7 L 5969.86,1070.59 L 5962.02,1080.13 L 5952.48,1087.97 L 5941.59,1093.79 L 5929.77,1097.37 L 5917.48,1098.58 L 5905.19,1097.37 L 5893.37,1093.79 L 5882.48,1087.97 L 5872.94,1080.13 L 5865.1,1070.59 L 5859.28,1059.7 L 5855.7,1047.88 L 5854.49,1035.59 z " style="fill-opacity:1.000000;fill:rgb(248,41,248);stroke:rgb(0,0,0);stroke-width:2"/></g>
<g fill-rule="evenodd"><path d="M 5918.5,2882.53 L 5919.26,2874.85 L 5921.5,2867.46 L 5925.14,2860.65 L 5930.04,2854.69 L 5936,2849.79 L 5942.81,2846.15 L 5950.19,2843.91 L 5957.87,2843.16 L 5965.55,2843.91 L 5972.94,2846.15 L 5979.75,2849.79 L 5985.71,2854.69 L 5990.61,2860.65 L 5994.25,2867.46 L 5996.49,2874.85 L 5997.24,2882.53 L 5996.49,2890.21 L 5994.47,2896.85 L 6221.53,3123.91 L 6223.49,3126.3 L 6224.94,3129.02 L 6225.84,3131.97 L 6226.14,3135.05 L 6226.14,3411.71 L 6236.01,3414.7 L 6247.58,3420.89 L 6257.72,3429.21 L 6266.04,3439.35 L 6272.23,3450.92 L 6276.04,3463.48 L 6277.32,3476.54 L 6276.04,3489.59 L 6272.23,3502.15 L 6266.04,3513.72 L 6257.72,3523.86 L 6247.58,3532.18 L 6236.01,3538.37 L 6223.45,3542.18 L 6210.39,3543.46 L 6197.34,3542.18 L 6184.78,3538.37 L 6173.21,3532.18 L 6163.07,3523.86 L 6154.74,3513.72 L 6148.56,3502.15 L 6144.75,3489.59 L 6143.46,3476.54 L 6144.75,3463.48 L 6148.56,3450.92 L 6154.74,3439.35 L 6163.07,3429.21 L 6173.21,3420.89 L 6184.78,3414.7 L 6194.64,3411.71 L 6194.64,3141.57 L 5972.2,2919.13 L 5965.55,2921.14 L 5957.87,2921.9 L 5950.19,2921.14 L 5942.81,2918.9 L 5936,2915.26 L 5930.04,2910.37 L 5925.14,2904.4 L 5921.5,2897.59 L 5919.26,2890.21 L 5918.5,2882.53 z " style="fill-opacity:1.000000;fill:rgb(164,27,19);stroke:rgb(0,0,0);stroke-width:2"/></g>
<g fill-rule="evenodd"><path d="M 5943.46,3476.54 L 5944.75,3463.48 L 5948.56,3450.92 L 5954.74,3439.35 L 5963.07,3429.21 L 5973.21,3420.89 L 5984.78,3414.7 L 5997.34,3410.89 L 6010.39,3409.61 L 6023.45,3410.89 L 6036.01,3414.7 L 6047.58,3420.89 L 6057.72,3429.21 L 6066.04,3439.35 L 6072.23,3450.92 L 6076.04,3463.48 L 6077.32,3476.54 L 6076.04,3489.59 L 6072.23,3502.15 L 6066.04,3513.72 L 6057.72,3523.86 L 6047.58,3532.18 L 6036.01,3538.37 L 6023.45,3542.18 L 6010.39,3543.46 L 5997.34,3542.18 L 5984.78,3538.37 L 5973.21,3532.18 L 5963.07,3523.86 L 5954.74,3513.72 L 5948.56,3502.15 L 5944.75,3489.59 L 5943.46,3476.54 z " style="fill-opacity:1.000000;fill:rgb(181,202,78);stroke:rgb(0,0,0);stroke-width:2"/></g>
<g fill-rule="evenodd"><path d="M 6343.46,3476.54 L 6344.75,3463.48 L 6348.56,3450.92 L 6354.74,3439.35 L 6363.07,3429.21 L 6373.21,3420.89 L 6384.78,3414.7 L 6397.34,3410.89 L 6410.39,3409.61 L 6423.45,3410.89 L 6436.01,3414.7 L 6447.58,3420.89 L 6457.72,3429.21 L 6466.04,3439.35 L 6472.23,3450.92 L 6476.04,3463.48 L 6477.32,3476.54 L 6476.04,3489.59 L 6472.23,3502.15 L 6466.04,3513.72 L 6457.72,3523.86 L 6447.58,3532.18 L 6436.01,3538.37 L 6423.45,3542.18 L 6410.39,3543.46 L 6397.34,3542.18 L 6384.78,3538.37 L 6373.21,3532.18 L 6363.07,3523.86 L 6354.74,3513.72 L 6348.56,3502.15 L 6344.75,3489.59 L 6343.46,3476.54 z " style="fill-opacity:1.000000;fill:rgb(232,152,50);stroke:rgb(0,0,0);stroke-width:2"/></g>
<g fill-rule="evenodd"><path d="M 6543.46,3476.54 L 6544.75,3463.48 L 6548.56,3450.92 L 6554.74,3439.35 L 6563.07,3429.21 L 6573.21,3420.89 L 6584.78,3414.7 L 6597.34,3410.89 L 6610.39,3409.61 L 6623.45,3410.89 L 6636.01,3414.7 L 6647.58,3420.89 L 6657.72,3429.21 L 6666.04,3439.35 L 6672.23,3450.92 L 6676.04,3463.48 L 6677.32,3476.54 L 6676.04,3489.59 L 6672.23,3502.15 L 6666.04,3513.72 L 6657.72,3523.86 L 6647.58,3532.18 L 6636.01,3538.37 L 6623.45,3542.18 L 6610.39,3543.46 L 6597.34,3542.18 L 6584.78,3538.37 L 6573.21,3532.18 L 6563.07,3523.86 L 6554.74,3513.72 L 6548.56,3502.15 L 6544.75,3489.59 L 6543.46,3476.54 z " style="fill-opacity:1.000000;fill:rgb(56,224,121);stroke:rgb(0,0,0);stroke-width:2"/></g>
<g fill-rule="evenodd"><path d="M 6593.07,2235.59 L 6594.28,2223.3 L 6597.87,2211.48 L 6603.69,2200.59 L 6611.52,2191.05 L 6621.07,2183.21 L 6631.96,2177.39 L 6643.77,2173.81 L 6656.06,2172.6 L 6668.35,2173.81 L 6680.17,2177.39 L 6691.06,2183.21 L 6700.61,2191.05 L 6708.44,2200.59 L 6714.26,2211.48 L 6717.84,2223.3 L 6719.06,2235.59 L 6717.84,2247.88 L 6714.26,2259.7 L 6708.44,2270.59 L 6700.61,2280.13 L 6691.06,2287.97 L 6680.17,2293.79 L 6668.35,2297.37 L 6656.06,2298.58 L 6643.77,2297.37 L 6631.96,2293.79 L 6621.07,2287.97 L 6611.52,2280.13 L 6603.69,2270.59 L 6597.87,2259.7 L 6594.28,2247.88 L 6593.07,2235.59 z " style="fill-opacity:1.000000;fill:rgb(77,61,52);stroke:rgb(0,0,0);stroke-width:2"/></g>
<g fill-rule="evenodd"><path d="M 6593.07,2035.59 L 6594.28,2023.3 L 6597.87,2011.48 L 6603.69,2000.59 L 6611.52,1991.05 L 6621.07,1983.21 L 6631.96,1977.39 L 6643.77,1973.81 L 6656.06,1972.6 L 6668.35,1973.81 L 6680.17,1977.39 L 6691.06,1983.21 L 6700.61,1991.05 L 6708.44,2000.59 L 6714.26,2011.48 L 6717.84,2023.3 L 6719.06,2035.59 L 6717.84,2047.88 L 6714.26,2059.7 L 6708.44,2070.59 L 6700.61,2080.13 L 6691.06,2087.97 L 6680.17,2093.79 L 6668.35,2097.37 L 6656.06,2098.58 L 6643.77,2097.37 L 6631.96,2093.79 L 6621.07,2087.97 L 6611.52,2080.13 L 6603.69,2070.59 L 6597.87,2059.7 L 6594.28,2047.88 L 6593.07,2035.59 z " style="fill-opacity:1.000000;fill:rgb(188,95,78);stroke:rgb(0,0,0);stroke-width:2"/></g>
<g fill-rule="evenodd"><path d="M 6593.07,1835.59 L 6594.28,1823.3 L 6597.87,1811.48 L 6603.69,1800.59 L 6611.52,1791.05 L 6621.07,1783.21 L 6631.96,1777.39 L 6643.77,1773.81 L 6656.06,1772.6 L 6668.35,1773.81 L 6680.17,1777.39 L 6691.06,1783.21 L 6700.61,1791.05 L 6708.44,1800.59 L 6714.26,1811.48 L 6717.84,1823.3 L 6719.06,1835.59 L 6717.84,1847.88 L 6714.26,1859.7 L 6708.44,1870.59 L 6700.61,1880.13 L 6691.06,1887.97 L 6680.17,1893.79 L 6668.35,1897.37 L 6656.06,1898.58 L 6643.77,1897.37 L 6631.96,1893.79 L 6621.07,1887.97 L 6611.52,1880.13 L 6603.69,1870.59 L 6597.87,1859.7 L 6594.28,1847.88 L 6593.07,1835.59 z " style="fill-opacity:1.000000;fill:rgb(119,250,203);stroke:rgb(0,0,0);stroke-width:2"/></g>
<g fill-rule="evenodd"><path d="M 6593.07,1635.59 L 6594.28,1623.3 L 6597.87,1611.48 L 6603.69,1600.59 L 6611.52,1591.05 L 6621.07,1583.21 L 6631.96,1577.39 L 6643.77,1573.81 L 6656.06,1572.6 L 6668.35,1573.81 L 6680.17,1577.39 L 6691.06,1583.21 L 6700.61,1591.05 L 6708.44,1600.59 L 6714.26,1611.48 L 6717.84,1623.3 L 6719.06,1635.59 L 6717.84,1647.88 L 6714.26,1659.7 L 6708.44,1670.59 L 6700.61,1680.13 L 6691.06,1687.97 L 6680.17,1693.79 L 6668.35,1697.37 L 6656.06,1698.58 L 6643.77,1697.37 L 6631.96,1693.79 L 6621.07,1687.97 L 6611.52,1680.13 L 6603.69,1670.59 L 6597.87,1659.7 L 6594.28,1647.88 L 6593.07,1635.59 z " style="fill-opacity:1.000000;fill:rgb(108,5,172);stroke:rgb(0,0,0);stroke-width:2"/></g>
<g fill-rule="evenodd"><path d="M 6593.07,1235.59 L 6594.28,1223.3 L 6597.87,1211.48 L 6603.69,1200.59 L 6611.52,1191.05 L 6621.07,1183.21 L 6631.96,1177.39 L 6643.77,1173.81 L 6656.06,1172.6 L 6668.35,1173.81 L 6680.17,1177.39 L 6691.06,1183.21 L 6700.61,1191.05 L 6708.44,1200.59 L 6714.26,1211.48 L 6717.84,1223.3 L 6719.06,1235.59 L 6717.84,1247.88 L 6714.26,1259.7 L 6708.44,1270.59 L 6700.61,1280.13 L 6691.06,1287.97 L 6680.17,1293.79 L 6668.35,1297.37 L 6656.06,1298.58 L 6643.77,1297.37 L 6631.96,1293.79 L 6621.07,1287.97 L 6611.52,1280.13 L 6603.69,1270.59 L 6597.87,1259.7 L 6594.28,1247.88 L 6593.07,1235.59 z " style="fill-opacity:1.000000;fill:rgb(134,33,43);stroke:rgb(0,0,0);stroke-width:2"/></g>
<g fill-rule="evenodd"><path d="M 6743.46,3476.54 L 6744.75,3463.48 L 6748.56,3450.92 L 6754.74,3439.35 L 6763.07,3429.21 L 6773.21,3420.89 L 6784.78,3414.7 L 6797.34,3410.89 L 6810.39,3409.61 L 6823.45,3410.89 L 6836.01,3414.7 L 6847.58,3420.89 L 6857.72,3429.21 L 6866.04,3439.35 L 6872.23,3450.92 L 6876.04,3463.48 L 6877.32,3476.54 L 6876.04,3489.59 L 6872.23,3502.15 L 6866.04,3513.72 L 6857.72,3523.86 L 6847.58,3532.18 L 6836.01,3538.37 L 6823.45,3542.18 L 6810.39,3543.46 L 6797.34,3542.18 L 6784.78,3538.37 L 6773.21,3532.18 L 6763.07,3523.86 L 6754.74,3513.72 L 6748.56,3502.15 L 6744.75,3489.59 L 6743.46,3476.54 z " style="fill-opacity:1.000000;fill:rgb(170,26,85);stroke:rgb(0,0,0);stroke-width:2"/></g>
<g fill-rule="evenodd"><path d="M 6943.46,3476.54 L 6944.75,3463.48 L 6948.56,3450.92 L 6954.74,3439.35 L 6963.07,3429.21 L 6973.21,3420.89 L 6984.78,3414.7 L 6997.34,3410.89 L 7010.39,3409.61 L 7023.45,3410.89 L 7036.01,3414.7 L 7047.58,3420.89 L 7057.72,3429.21 L 7066.04,3439.35 L 7072.23,3450.92 L 7076.04,3463.48 L 7077.32,3476.54 L 7076.04,3489.59 L 7072.23,3502.15 L 7066.04,3513.72 L 7057.72,3523.86 L 7047.58,3532.18 L 7036.01,3538.37 L 7023.45,3542.18 L 7010.39,3543.46 L 6997.34,3542.18 L 6984.78,3538.37 L 6973.21,3532.18 L 6963.07,3523.86 L 6954.74,3513.72 L 6948.56,3502.15 L 6944.75,3489.59 L 6943.46,3476.54 z " style="fill-opacity:1.000000;fill:rgb(162,190,112);stroke:rgb(0,0,0);stroke-width:2"/></g>
<g fill-rule="evenodd"><path d="M 7143.46,3476.54 L 7144.75,3463.48 L 7148.56,3450.92 L 7154.74,3439.35 L 7163.07,3429.21 L 7173.21,3420.89 L 7184.78,3414.7 L 7197.34,3410.89 L 7210.39,3409.61 L 7223.45,3410.89 L 7236.01,3414.7 L 7247.58,3420.89 L 7257.72,3429.21 L 7266.04,3439.35 L 7272.23,3450.92 L 7276.04,3463.48 L 7277.32,3476.54 L 7276.04,3489.59 L 7272.23,3502.15 L 7266.04,3513.72 L 7257.72,3523.86 L 7247.58,3532.18 L 7236.01,3538.37 L 7223.45,3542.18 L 7210.39,3543.46 L 7197.34,3542.18 L 7184.78,3538.37 L 7173.21,3532.18 L 7163.07,3523.86 L 7154.74,3513.72 L 7148.56,3502.15 L 7144.75,3489.59 L 7143.46,3476.54 z " style="fill-opacity:1.000000;fill:rgb(181,115,59);stroke:rgb(0,0,0);stroke-width:2"/></g>
<g fill-rule="evenodd"><path d="M 7193.07,2435.59 L 7194.28,2423.3 L 7197.87,2411.48 L 7203.69,2400.59 L 7211.52,2391.05 L 7221.07,2383.21 L 7231.96,2377.39 L 7243.77,2373.81 L 7256.06,2372.6 L 7268.35,2373.81 L 7280.17,2377.39 L 7291.06,2383.21 L 7300.61,2391.05 L 7308.44,2400.59 L 7314.26,2411.48 L 7317.84,2423.3 L 7319.06,2435.59 L 7317.84,2447.88 L 7314.26,2459.7 L 7308.44,2470.59 L 7300.61,2480.13 L 7291.06,2487.97 L 7280.17,2493.79 L 7268.35,2497.37 L 7256.06,2498.58 L 7243.77,2497.37 L 7231.96,2493.79 L 7221.07,2487.97 L 7211.52,2480.13 L 7203.69,2470.59 L 7197.87,2459.7 L 7194.28,2447.88 L 7193.07,2435.59 z " style="fill-opacity:1.000000;fill:rgb(4,92,211);stroke:rgb(0,0,0);stroke-width:2"/></g>
</svg>
