<?xml version="1.0" standalone="no"?>
<!DOCTYPE svg PUBLIC "-//W3C//DTD SVG 1.1//EN"
"http://www.w3.org/Graphics/SVG/1.1/DTD/svg11.dtd">
<svg width="374.362" height="185.386" viewBox="0 0 7799.21 3862.2" version="1.1"
xmlns="http://www.w3.org/2000/svg"
xmlns:xlink="http://www.w3.org/1999/xlink">
<g fill-rule="evenodd"><path d="M 159.449,159.449 L 198.819,159.449 L 198.062,167.13 L 195.822,174.515 L 192.184,181.322 L 187.288,187.288 L 181.322,192.184 L 174.515,195.822 L 167.13,198.062 L 159.449,198.819 L 159.449,159.449 z " style="fill-opacity:1.000000;fill:rgb(103,198,105);stroke:rgb(0,0,0);stroke-width:2"/></g>
<g fill-rule="evenodd"><path d="M 407.48,3454.72 L 407.48,3320.87 L 541.339,3320.87 L 541.339,3454.72 L 407.48,3454.72 z " style="fill-opacity:1.000000;fill:rgb(115,81,255);stroke:rgb(0,0,0);stroke-width:2"/></g>
<g fill-rule="evenodd"><path d="M 407.48,3187.8 L 408.766,3174.74 L 412.575,3162.18 L 418.76,3150.61 L 427.083,3140.47 L 437.226,3132.15 L 448.797,3125.96 L 461.352,3122.15 L 474.409,3120.87 L 487.467,3122.15 L 500.022,3125.96 L 511.593,3132.15 L 521.735,3140.47 L 530.059,3150.61 L 536.244,3162.18 L 539.236,3172.05 L 597.814,3172.05 L 1193.19,2576.67 L 1195.58,2574.71 L 1198.3,2573.25 L 1201.26,2572.36 L 1204.33,2572.05 L 1280.71,2572.05 L 1280.71,2522.54 L 1272.35,2520.01 L 1261.46,2514.19 L 1251.91,2506.35 L 1244.08,2496.81 L 1238.26,2485.92 L 1234.67,2474.1 L 1233.46,2461.81 L 1234.67,2449.52 L 1238.26,2437.7 L 1244.08,2426.81 L 1251.91,2417.27 L 1261.46,2409.43 L 1272.35,2403.61 L 1284.17,2400.03 L 1296.46,2398.82 L 1308.75,2400.03 L 1320.56,2403.61 L 1331.45,2409.43 L 1341,2417.27 L 1348.83,2426.81 L 1354.65,2437.7 L 1358.24,2449.52 L 1359.45,2461.81 L 1358.24,2474.1 L 1354.65,2485.92 L 1348.83,2496.81 L 1341,2506.35 L 1331.45,2514.19 L 1320.56,2520.01 L 1312.2,2522.54 L 1312.2,2587.8 L 1311.9,2590.88 L 1311,2593.83 L 1309.55,2596.55 L 1307.59,2598.94 L 1305.2,2600.9 L 1302.48,2602.35 L 1299.53,2603.25 L 1296.45,2603.55 L 1210.85,2603.55 L 613.593,3200.54 L 609.203,3202.77 L 604.337,3203.54 L 539.236,3203.54 L 536.244,3213.41 L 530.059,3224.98 L 521.735,3235.12 L 511.593,3243.44 L 500.022,3249.63 L 487.467,3253.44 L 474.409,3254.72 L 461.352,3253.44 L 448.797,3249.63 L 437.226,3243.44 L 427.083,3235.12 L 418.76,3224.98 L 412.575,3213.41 L 408.766,3200.85 L 407.48,3187.8 z " style="fill-opacity:1.000000;fill:rgb(74,236,41);stroke:rgb(0,0,0);stroke-width:2"/></g>
<g fill-rule="evenodd"><path d="M 407.48,2987.8 L 408.766,2974.74 L 412.575,2962.18 L 418.76,2950.61 L 427.083,2940.47 L 437.226,2932.15 L 448.797,2925.96 L 461.352,2922.15 L 474.409,2920.87 L 487.467,2922.15 L 500.022,2925.96 L 511.593,2932.15 L 521.735,2940.47 L 530.059,2950.61 L 536.244,2962.18 L 540.053,2974.74 L 541.339,2987.8 L 540.053,3000.85 L 536.244,3013.41 L 530.059,3024.98 L 521.735,3035.12 L 511.593,3043.44 L 500.022,3049.63 L 487.467,3053.44 L 474.409,3054.72 L 461.352,3053.44 L 448.797,3049.63 L 437.226,3043.44 L 427.083,3035.12 L 418.76,3024.98 L 412.575,3013.41 L 408.766,3000.85 L 407.48,2987.8 z " style="fill-opacity:1.000000;fill:rgb(205,186,171);stroke:rgb(0,0,0);stroke-width:2"/></g>
<g fill-rule="evenodd"><path d="M 407.48,2787.8 L 408.766,2774.74 L 412.575,2762.18 L 418.76,2750.61 L 427.083,2740.47 L 437.226,2732.15 L 448.797,2725.96 L 461.352,2722.15 L 474.409,2720.87 L 487.467,2722.15 L 500.022,2725.96 L 511.593,2732.15 L 521.735,2740.47 L 530.059,2750.61 L 536.244,2762.18 L 540.053,2774.74 L 541.339,2787.8 L 540.053,2800.85 L 536.244,2813.41 L 530.059,2824.98 L 521.735,2835.12 L 511.593,2843.44 L 500.022,2849.63 L 487.467,2853.44 L 474.409,2854.72 L 461.352,2853.44 L 448.797,2849.63 L 437.226,2843.44 L 427.083,2835.12 L 418.76,2824.98 L 412.575,2813.41 L 408.766,2800.85 L 407.48,2787.8 z " style="fill-opacity:1.000000;fill:rgb(242,251,227);stroke:rgb(0,0,0);stroke-width:2"/></g>
<g fill-rule="evenodd"><path d="M 407.48,2587.8 L 408.766,2574.74 L 412.575,2562.18 L 418.76,2550.61 L 427.083,2540.47 L 437.226,2532.15 L 448.797,2525.96 L 461.352,2522.15 L 474.409,2520.87 L 487.467,2522.15 L 500.022,2525.96 L 511.593,2532.15 L 521.735,2540.47 L 530.059,2550.61 L 536.244,2562.18 L 539.236,2572.05 L 597.814,2572.05 L 1015.54,2154.32 L 1019.53,2151.42 L 1024.21,2149.9 L 1026.68,2149.71 L 1527.63,2149.71 L 1576.31,2101.03 L 1574.29,2094.39 L 1573.54,2086.71 L 1574.29,2079.03 L 1576.53,2071.64 L 1580.17,2064.84 L 1585.07,2058.87 L 1591.03,2053.97 L 1597.84,2050.34 L 1605.22,2048.1 L 1612.91,2047.34 L 1620.59,2048.1 L 1627.97,2050.34 L 1634.78,2053.97 L 1640.74,2058.87 L 1645.64,2064.84 L 1649.28,2071.64 L 1651.52,2079.03 L 1652.28,2086.71 L 1651.52,2094.39 L 1649.28,2101.77 L 1645.64,2108.58 L 1640.74,2114.55 L 1634.78,2119.44 L 1627.97,2123.08 L 1620.59,2125.32 L 1612.91,2126.08 L 1605.22,2125.32 L 1598.58,2123.31 L 1545.29,2176.59 L 1542.91,2178.55 L 1540.18,2180 L 1537.23,2180.9 L 1534.16,2181.2 L 1033.2,2181.2 L 613.593,2600.54 L 609.203,2602.77 L 604.337,2603.54 L 539.237,2603.54 L 536.244,2613.41 L 530.059,2624.98 L 521.735,2635.12 L 511.593,2643.44 L 500.022,2649.63 L 487.467,2653.44 L 474.409,2654.72 L 461.352,2653.44 L 448.797,2649.63 L 437.226,2643.44 L 427.083,2635.12 L 418.76,2624.98 L 412.575,2613.41 L 408.766,2600.85 L 407.48,2587.8 z " style="fill-opacity:1.000000;fill:rgb(70,124,194);stroke:rgb(0,0,0);stroke-width:2"/></g>
<g fill-rule="evenodd"><path d="M 407.48,2387.8 L 408.766,2374.74 L 412.575,2362.18 L 418.76,2350.61 L 427.083,2340.47 L 437.226,2332.15 L 448.797,2325.96 L 461.352,2322.15 L 474.409,2320.87 L 487.467,2322.15 L 500.022,2325.96 L 511.593,2332.15 L 521.735,2340.47 L 530.059,2350.61 L 536.244,2362.18 L 540.053,2374.74 L 541.339,2387.8 L 540.053,2400.85 L 536.244,2413.41 L 530.059,2424.98 L 521.735,2435.12 L 511.593,2443.44 L 500.022,2449.63 L 487.467,2453.44 L 474.409,2454.72 L 461.352,2453.44 L 448.797,2449.63 L 437.226,2443.44 L 427.083,2435.12 L 418.76,2424.98 L 412.575,2413.41 L 408.766,2400.85 L 407.48,2387.8 z " style="fill-opacity:1.000000;fill:rgb(84,248,27);stroke:rgb(0,0,0);stroke-width:2"/></g>
<g fill-rule="evenodd"><path d="M 407.48,2187.8 L 408.766,2174.74 L 412.575,2162.18 L 418.76,2150.61 L 427.083,2140.47 L 437.226,2132.15 L 448.797,2125.96 L 461.352,2122.15 L 474.409,2120.87 L 487.467,2122.15 L 500.022,2125.96 L 511.593,2132.15 L 521.735,2140.47 L 530.059,2150.61 L 536.244,2162.18 L 539.236,2172.05 L 597.813,2172.05 L 694.297,2075.56 L 698.283,2072.67 L 702.969,2071.14 L 1433.89,2070.95 L 1747.53,1757.31 L 1749.92,1755.35 L 1752.64,1753.9 L 1755.6,1753 L 1758.67,1752.7 L 4412.97,1752.7 L 4416.04,1753 L 4418.99,1753.9 L 4421.72,1755.35 L 4424.1,1757.31 L 5125.84,2459.05 L 5368.28,2459.05 L 5693.49,2134.11 L 5697.88,2131.87 L 5702.75,2131.1 L 5768.01,2131.1 L 5770.54,2122.74 L 5776.36,2111.85 L 5784.2,2102.31 L 5793.74,2094.47 L 5804.63,2088.65 L 5816.45,2085.07 L 5828.74,2083.86 L 5841.03,2085.07 L 5852.85,2088.65 L 5863.74,2094.47 L 5873.28,2102.31 L 5881.12,2111.85 L 5886.94,2122.74 L 5889.47,2131.1 L 5954.73,2131.1 L 5959.6,2131.87 L 5963.99,2134.11 L 6366.03,2535.87 L 6647.33,2535.87 L 7025.58,2157.63 L 7025.58,2146.85 L 7025.88,2143.78 L 7026.78,2140.82 L 7028.23,2138.1 L 7030.19,2135.71 L 7032.58,2133.75 L 7035.3,2132.3 L 7038.26,2131.4 L 7041.33,2131.1 L 7106.59,2131.1 L 7109.13,2122.74 L 7114.95,2111.85 L 7122.78,2102.31 L 7132.33,2094.47 L 7143.22,2088.65 L 7155.03,2085.07 L 7167.32,2083.86 L 7179.61,2085.07 L 7191.43,2088.65 L 7202.32,2094.47 L 7211.86,2102.31 L 7219.7,2111.85 L 7225.52,2122.74 L 7229.1,2134.56 L 7230.31,2146.85 L 7229.1,2159.14 L 7225.52,2170.96 L 7219.7,2181.85 L 7211.86,2191.39 L 7202.32,2199.23 L 7191.43,2205.05 L 7179.61,2208.63 L 7167.32,2209.84 L 7155.03,2208.63 L 7143.22,2205.05 L 7132.33,2199.23 L 7122.78,2191.39 L 7114.95,2181.85 L 7109.13,2170.96 L 7106.59,2162.6 L 7057.08,2162.6 L 7056.77,2167.22 L 7055.88,2170.18 L 7054.42,2172.9 L 7052.46,2175.28 L 6664.99,2562.76 L 6661.01,2565.65 L 6658.72,2566.6 L 6653.86,2567.37 L 6359.5,2567.37 L 6354.64,2566.6 L 6352.35,2565.65 L 6348.37,2562.76 L 5948.21,2162.6 L 5889.47,2162.6 L 5886.94,2170.96 L 5881.12,2181.85 L 5873.28,2191.39 L 5863.74,2199.23 L 5852.85,2205.05 L 5841.03,2208.63 L 5828.74,2209.84 L 5816.45,2208.63 L 5804.63,2205.05 L 5793.74,2199.23 L 5784.2,2191.39 L 5776.36,2181.85 L 5770.54,2170.96 L 5768.01,2162.6 L 5709.27,2162.6 L 5385.94,2485.93 L 5381.95,2488.83 L 5379.67,2489.77 L 5374.8,2490.54 L 5119.31,2490.54 L 5116.24,2490.24 L 5113.29,2489.34 L 5110.57,2487.89 L 5108.18,2485.93 L 4406.44,1784.2 L 1765.19,1784.2 L 1451.55,2097.83 L 1449.17,2099.79 L 1446.44,2101.25 L 1443.49,2102.14 L 1440.42,2102.45 L 711.956,2102.45 L 613.593,2200.54 L 609.203,2202.77 L 604.337,2203.54 L 539.236,2203.54 L 536.244,2213.41 L 530.059,2224.98 L 521.735,2235.12 L 511.593,2243.44 L 500.022,2249.63 L 487.467,2253.44 L 474.409,2254.72 L 461.352,2253.44 L 448.797,2249.63 L 437.226,2243.44 L 427.083,2235.12 L 418.76,2224.98 L 412.575,2213.41 L 408.766,2200.85 L 407.48,2187.8 z " style="fill-opacity:1.000000;fill:rgb(232,231,141);stroke:rgb(0,0,0);stroke-width:2"/></g>
<g fill-rule="evenodd"><path d="M 407.48,1987.8 L 408.766,1974.74 L 412.575,1962.18 L 418.76,1950.61 L 427.083,1940.47 L 437.226,1932.15 L 448.797,1925.96 L 461.352,1922.15 L 474.409,1920.87 L 487.467,1922.15 L 500.022,1925.96 L 511.593,1932.15 L 521.735,1940.47 L 530.059,1950.61 L 536.244,1962.18 L 539.236,1972.05 L 1294.48,1972.05 L 1294.98,1966.95 L 1297.23,1959.56 L 1300.86,1952.76 L 1305.76,1946.79 L 1311.73,1941.89 L 1318.53,1938.26 L 1325.92,1936.02 L 1333.6,1935.26 L 1341.28,1936.02 L 1348.66,1938.26 L 1355.47,1941.89 L 1361.44,1946.79 L 1366.33,1952.76 L 1369.97,1959.56 L 1372.21,1966.95 L 1372.97,1974.63 L 1372.21,1982.31 L 1369.97,1989.7 L 1366.33,1996.5 L 1361.44,2002.47 L 1355.47,2007.36 L 1348.66,2011 L 1341.28,2013.24 L 1333.6,2014 L 1325.92,2013.24 L 1318.53,2011 L 1311.73,2007.36 L 1307.07,2003.54 L 539.237,2003.54 L 536.244,2013.41 L 530.059,2024.98 L 521.735,2035.12 L 511.593,2043.44 L 500.022,2049.63 L 487.467,2053.44 L 474.409,2054.72 L 461.352,2053.44 L 448.797,2049.63 L 437.226,2043.44 L 427.083,2035.12 L 418.76,2024.98 L 412.575,2013.41 L 408.766,2000.85 L 407.48,1987.8 z " style="fill-opacity:1.000000;fill:rgb(118,90,46);stroke:rgb(0,0,0);stroke-width:2"/></g>
<g fill-rule="evenodd"><path d="M 407.48,1787.8 L 408.766,1774.74 L 412.575,1762.18 L 418.76,1750.61 L 427.083,1740.47 L 437.226,1732.15 L 448.797,1725.96 L 461.352,1722.15 L 474.409,1720.87 L 487.467,1722.15 L 500.022,1725.96 L 511.593,1732.15 L 521.735,1740.47 L 530.059,1750.61 L 536.244,1762.18 L 539.236,1772.05 L 1363.95,1772.05 L 1842.38,1293.62 L 1838.26,1285.92 L 1834.67,1274.1 L 1833.46,1261.81 L 1834.67,1249.52 L 1838.26,1237.7 L 1844.08,1226.81 L 1851.91,1217.27 L 1861.46,1209.43 L 1872.35,1203.61 L 1884.17,1200.03 L 1896.46,1198.82 L 1908.75,1200.03 L 1920.56,1203.61 L 1931.45,1209.43 L 1941,1217.27 L 1948.83,1226.81 L 1954.65,1237.7 L 1958.24,1249.52 L 1959.45,1261.81 L 1958.24,1274.1 L 1954.65,1285.92 L 1948.83,1296.81 L 1941,1306.35 L 1931.45,1314.19 L 1920.56,1320.01 L 1908.75,1323.59 L 1896.46,1324.8 L 1884.17,1323.59 L 1872.35,1320.01 L 1864.65,1315.89 L 1381.61,1798.93 L 1379.22,1800.89 L 1376.5,1802.34 L 1373.54,1803.24 L 1370.47,1803.54 L 539.236,1803.54 L 536.244,1813.41 L 530.059,1824.98 L 521.735,1835.12 L 511.593,1843.44 L 500.022,1849.63 L 487.467,1853.44 L 474.409,1854.72 L 461.352,1853.44 L 448.797,1849.63 L 437.226,1843.44 L 427.083,1835.12 L 418.76,1824.98 L 412.575,1813.41 L 408.766,1800.85 L 407.48,1787.8 z " style="fill-opacity:1.000000;fill:rgb(99,51,159);stroke:rgb(0,0,0);stroke-width:2"/></g>
<g fill-rule="evenodd"><path d="M 407.48,1587.8 L 408.766,1574.74 L 412.575,1562.18 L 418.76,1550.61 L 427.083,1540.47 L 437.226,1532.15 L 448.797,1525.96 L 461.352,1522.15 L 474.409,1520.87 L 487.467,1522.15 L 500.022,1525.96 L 511.593,1532.15 L 521.735,1540.47 L 530.059,1550.61 L 536.244,1562.18 L 539.236,1572.05 L 1020.23,1572.05 L 1023.31,1572.35 L 1026.26,1573.25 L 1028.98,1574.7 L 1031.37,1576.66 L 1091.74,1637.02 L 1098.38,1635.01 L 1106.06,1634.25 L 1113.74,1635.01 L 1121.13,1637.25 L 1127.94,1640.89 L 1133.9,1645.78 L 1138.8,1651.75 L 1142.44,1658.56 L 1144.68,1665.94 L 1145.43,1673.62 L 1144.68,1681.3 L 1142.44,1688.69 L 1138.8,1695.49 L 1133.9,1701.46 L 1127.94,1706.36 L 1121.13,1710 L 1113.74,1712.24 L 1106.06,1712.99 L 1098.38,1712.24 L 1091,1710 L 1084.19,1706.36 L 1078.22,1701.46 L 1073.33,1695.49 L 1069.69,1688.69 L 1067.45,1681.3 L 1066.69,1673.62 L 1067.45,1665.94 L 1069.47,1659.3 L 1013.71,1603.54 L 539.237,1603.54 L 536.244,1613.41 L 530.059,1624.98 L 521.735,1635.12 L 511.593,1643.44 L 500.022,1649.63 L 487.467,1653.44 L 474.409,1654.72 L 461.352,1653.44 L 448.797,1649.63 L 437.226,1643.44 L 427.083,1635.12 L 418.76,1624.98 L 412.575,1613.41 L 408.766,1600.85 L 407.48,1587.8 z " style="fill-opacity:1.000000;fill:rgb(201,154,102);stroke:rgb(0,0,0);stroke-width:2"/></g>
<g fill-rule="evenodd"><path d="M 407.48,1387.8 L 408.766,1374.74 L 412.575,1362.18 L 418.76,1350.61 L 427.083,1340.47 L 437.226,1332.15 L 448.797,1325.96 L 461.352,1322.15 L 474.409,1320.87 L 487.467,1322.15 L 500.022,1325.96 L 511.593,1332.15 L 521.735,1340.47 L 530.059,1350.61 L 536.244,1362.18 L 539.236,1372.05 L 1163.94,1372.05 L 1242.38,1293.62 L 1238.26,1285.92 L 1234.67,1274.1 L 1233.46,1261.81 L 1234.67,1249.52 L 1238.26,1237.7 L 1244.08,1226.81 L 1251.91,1217.27 L 1261.46,1209.43 L 1272.35,1203.61 L 1284.17,1200.03 L 1296.46,1198.82 L 1308.75,1200.03 L 1320.56,1203.61 L 1331.45,1209.43 L 1341,1217.27 L 1348.83,1226.81 L 1354.65,1237.7 L 1358.24,1249.52 L 1359.45,1261.81 L 1358.24,1274.1 L 1354.65,1285.92 L 1348.83,1296.81 L 1341,1306.35 L 1331.45,1314.19 L 1320.56,1320.01 L 1308.75,1323.59 L 1296.46,1324.8 L 1284.17,1323.59 L 1272.35,1320.01 L 1264.65,1315.89 L 1181.6,1398.94 L 1177.61,1401.83 L 1172.93,1403.36 L 539.236,1403.54 L 536.244,1413.41 L 530.059,1424.98 L 521.735,1435.12 L 511.593,1443.44 L 500.022,1449.63 L 487.467,1453.44 L 474.409,1454.72 L 461.352,1453.44 L 448.797,1449.63 L 437.226,1443.44 L 427.083,1435.12 L 418.76,1424.98 L 412.575,1413.41 L 408.766,1400.85 L 407.48,1387.8 z " style="fill-opacity:1.000000;fill:rgb(50,13,183);stroke:rgb(0,0,0);stroke-width:2"/></g>
<g fill-rule="evenodd"><path d="M 407.48,1187.8 L 408.766,1174.74 L 412.575,1162.18 L 418.76,1150.61 L 427.083,1140.47 L 437.226,1132.15 L 448.797,1125.96 L 461.352,1122.15 L 474.409,1120.87 L 487.467,1122.15 L 500.022,1125.96 L 511.593,1132.15 L 521.735,1140.47 L 530.059,1150.61 L 536.244,1162.18 L 539.236,1172.05 L 591.462,1172.05 L 593.201,1169.93 L 1356.36,406.769 L 1358.75,404.811 L 1361.47,403.356 L 1364.42,402.459 L 1367.49,402.157 L 6819.23,402.157 L 6822.3,402.459 L 6825.25,403.356 L 6827.98,404.811 L 6830.36,406.769 L 7304.55,880.957 L 7307.45,884.943 L 7308.97,889.629 L 7309.16,892.093 L 7309.16,1220.75 L 7308.97,1223.22 L 7307.45,1227.9 L 7304.55,1231.89 L 7221.4,1315.04 L 7225.52,1322.74 L 7229.1,1334.56 L 7230.31,1346.85 L 7229.1,1359.14 L 7225.52,1370.96 L 7219.7,1381.85 L 7211.86,1391.39 L 7202.32,1399.23 L 7191.43,1405.05 L 7179.61,1408.63 L 7167.32,1409.84 L 7155.03,1408.63 L 7143.22,1405.05 L 7135.51,1400.93 L 7057.08,1479.36 L 7057.08,1731.1 L 7106.59,1731.1 L 7109.13,1722.74 L 7114.95,1711.85 L 7122.78,1702.31 L 7132.33,1694.47 L 7143.22,1688.65 L 7155.03,1685.07 L 7167.32,1683.86 L 7179.61,1685.07 L 7191.43,1688.65 L 7202.32,1694.47 L 7211.86,1702.31 L 7219.7,1711.85 L 7225.52,1722.74 L 7229.1,1734.56 L 7230.31,1746.85 L 7229.1,1759.14 L 7225.52,1770.96 L 7219.7,1781.85 L 7211.86,1791.39 L 7202.32,1799.23 L 7191.43,1805.05 L 7179.61,1808.63 L 7167.32,1809.84 L 7155.03,1808.63 L 7143.22,1805.05 L 7132.33,1799.23 L 7122.78,1791.39 L 7114.95,1781.85 L 7109.13,1770.96 L 7106.59,1762.6 L 7047.85,1762.6 L 6913.75,1896.7 L 6913.75,2195.98 L 6913.45,2199.06 L 6912.56,2202.01 L 6911.1,2204.73 L 6909.14,2207.12 L 6632.25,2484.01 L 6628.27,2486.9 L 6625.98,2487.85 L 6621.12,2488.62 L 6512.06,2488.62 L 6508.99,2488.32 L 6506.04,2487.42 L 6503.31,2485.97 L 6500.93,2484.01 L 5943.6,1926.68 L 5940.7,1922.69 L 5939.18,1918.01 L 5938.98,1915.54 L 5938.98,1762.6 L 5889.47,1762.6 L 5886.94,1770.96 L 5881.12,1781.85 L 5873.28,1791.39 L 5863.74,1799.23 L 5852.85,1805.05 L 5841.03,1808.63 L 5828.74,1809.84 L 5816.45,1808.63 L 5804.63,1805.05 L 5793.74,1799.23 L 5784.2,1791.39 L 5776.36,1781.85 L 5770.54,1770.96 L 5766.96,1759.14 L 5765.75,1746.85 L 5766.96,1734.56 L 5770.54,1722.74 L 5776.36,1711.85 L 5784.2,1702.31 L 5793.74,1694.47 L 5804.63,1688.65 L 5816.45,1685.07 L 5828.74,1683.86 L 5841.03,1685.07 L 5852.85,1688.65 L 5863.74,1694.47 L 5873.28,1702.31 L 5881.12,1711.85 L 5886.94,1722.74 L 5889.47,1731.1 L 5938.98,1731.1 L 5938.98,1479.36 L 5860.55,1400.93 L 5852.85,1405.05 L 5841.03,1408.63 L 5828.74,1409.84 L 5816.45,1408.63 L 5804.63,1405.05 L 5793.74,1399.23 L 5784.2,1391.39 L 5776.36,1381.85 L 5770.54,1370.96 L 5766.96,1359.14 L 5765.75,1346.85 L 5766.96,1334.56 L 5770.54,1322.74 L 5776.36,1311.85 L 5784.2,1302.31 L 5793.74,1294.47 L 5804.63,1288.65 L 5816.45,1285.07 L 5828.74,1283.86 L 5841.03,1285.07 L 5852.85,1288.65 L 5863.74,1294.47 L 5873.28,1302.31 L 5881.12,1311.85 L 5886.94,1322.74 L 5890.52,1334.56 L 5891.73,1346.85 L 5890.52,1359.14 L 5886.94,1370.96 L 5882.82,1378.66 L 5965.87,1461.71 L 5967.82,1464.09 L 5969.28,1466.81 L 5970.18,1469.77 L 5970.48,1472.84 L 5970.48,1909.02 L 6518.59,2457.12 L 6614.59,2457.12 L 6882.26,2189.46 L 6882.26,1890.17 L 6882.56,1887.1 L 6883.46,1884.15 L 6884.91,1881.42 L 6886.87,1879.04 L 7025.58,1740.33 L 7025.58,1472.84 L 7026.35,1467.97 L 7027.3,1465.69 L 7030.19,1461.71 L 7113.24,1378.66 L 7109.13,1370.96 L 7105.54,1359.14 L 7104.33,1346.85 L 7105.54,1334.56 L 7109.13,1322.74 L 7114.95,1311.85 L 7122.78,1302.31 L 7132.33,1294.47 L 7143.22,1288.65 L 7155.03,1285.07 L 7167.32,1283.86 L 7179.61,1285.07 L 7191.43,1288.65 L 7199.13,1292.77 L 7277.67,1214.23 L 7277.67,898.616 L 6812.7,433.653 L 1374.02,433.653 L 620.085,1187.59 L 619.782,1190.87 L 618.886,1193.82 L 617.431,1196.54 L 615.472,1198.93 L 613.086,1200.89 L 610.363,1202.34 L 607.409,1203.24 L 604.337,1203.54 L 539.236,1203.54 L 536.244,1213.41 L 530.059,1224.98 L 521.735,1235.12 L 511.593,1243.44 L 500.022,1249.63 L 487.467,1253.44 L 474.409,1254.72 L 461.352,1253.44 L 448.797,1249.63 L 437.226,1243.44 L 427.083,1235.12 L 418.76,1224.98 L 412.575,1213.41 L 408.766,1200.85 L 407.48,1187.8 z " style="fill-opacity:1.000000;fill:rgb(49,88,163);stroke:rgb(0,0,0);stroke-width:2"/></g>
<g fill-rule="evenodd"><path d="M 407.48,987.795 L 408.766,974.738 L 412.575,962.183 L 418.76,950.611 L 427.083,940.469 L 437.226,932.146 L 448.797,925.961 L 461.352,922.152 L 474.409,920.866 L 487.467,922.152 L 500.022,925.961 L 511.593,932.146 L 521.735,940.469 L 530.059,950.611 L 536.244,962.183 L 540.053,974.738 L 541.339,987.795 L 540.053,1000.85 L 536.244,1013.41 L 530.059,1024.98 L 521.735,1035.12 L 511.593,1043.44 L 500.022,1049.63 L 487.467,1053.44 L 474.409,1054.72 L 461.352,1053.44 L 448.797,1049.63 L 437.226,1043.44 L 427.083,1035.12 L 418.76,1024.98 L 412.575,1013.41 L 408.766,1000.85 L 407.48,987.795 z " style="fill-opacity:1.000000;fill:rgb(90,37,93);stroke:rgb(0,0,0);stroke-width:2"/></g>
<g fill-rule="evenodd"><path d="M 407.48,787.795 L 408.766,774.738 L 412.575,762.183 L 418.76,750.611 L 427.083,740.469 L 437.226,732.146 L 448.797,725.961 L 461.352,722.152 L 474.409,720.866 L 487.467,722.152 L 500.022,725.961 L 511.593,732.146 L 521.735,740.469 L 530.059,750.611 L 536.244,762.183 L 540.053,774.738 L 541.339,787.795 L 540.053,800.853 L 536.244,813.408 L 530.059,824.979 L 521.735,835.121 L 511.593,843.445 L 500.022,849.63 L 487.467,853.438 L 474.409,854.724 L 461.352,853.438 L 448.797,849.63 L 437.226,843.445 L 427.083,835.121 L 418.76,824.979 L 412.575,813.408 L 408.766,800.853 L 407.48,787.795 z " style="fill-opacity:1.000000;fill:rgb(5,23,88);stroke:rgb(0,0,0);stroke-width:2"/></g>
<g fill-rule="evenodd"><path d="M 956.299,946.85 L 957.51,934.561 L 961.094,922.744 L 966.915,911.854 L 974.749,902.308 L 984.295,894.474 L 995.185,888.653 L 1007,885.069 L 1019.29,883.858 L 1031.58,885.069 L 1043.4,888.653 L 1054.29,894.474 L 1063.83,902.308 L 1071.67,911.854 L 1077.49,922.744 L 1080.02,931.101 L 1138.76,931.101 L 1579.27,490.587 L 1581.66,488.629 L 1584.38,487.174 L 1587.34,486.277 L 1590.41,485.975 L 6598.67,486.169 L 6603.35,487.691 L 6607.34,490.587 L 7047.85,931.101 L 7106.59,931.101 L 7109.13,922.744 L 7114.95,911.854 L 7122.78,902.308 L 7132.33,894.474 L 7143.22,888.653 L 7155.03,885.069 L 7167.32,883.858 L 7179.61,885.069 L 7191.43,888.653 L 7202.32,894.474 L 7211.86,902.308 L 7219.7,911.854 L 7225.52,922.744 L 7229.1,934.561 L 7230.31,946.85 L 7229.1,959.14 L 7225.52,970.956 L 7219.7,981.847 L 7211.86,991.393 L 7202.32,999.226 L 7191.43,1005.05 L 7179.61,1008.63 L 7167.32,1009.84 L 7155.03,1008.63 L 7143.22,1005.05 L 7132.33,999.226 L 7122.78,991.393 L 7114.95,981.847 L 7109.13,970.956 L 7106.59,962.597 L 7041.33,962.597 L 7036.46,961.826 L 7032.07,959.589 L 6589.68,517.471 L 1596.93,517.471 L 1156.42,957.984 L 1154.03,959.943 L 1151.31,961.398 L 1148.36,962.294 L 1145.28,962.597 L 1080.02,962.597 L 1077.49,970.956 L 1071.67,981.847 L 1063.83,991.393 L 1054.29,999.226 L 1043.4,1005.05 L 1031.58,1008.63 L 1019.29,1009.84 L 1007,1008.63 L 995.185,1005.05 L 984.295,999.226 L 974.749,991.393 L 966.915,981.847 L 961.094,970.956 L 957.51,959.14 L 956.299,946.85 z " style="fill-opacity:1.000000;fill:rgb(233,94,212);stroke:rgb(0,0,0);stroke-width:2"/></g>
<g fill-rule="evenodd"><path d="M 1033.46,2524.8 L 1033.46,2398.82 L 1159.45,2398.82 L 1159.45,2524.8 L 1033.46,2524.8 z " style="fill-opacity:1.000000;fill:rgb(171,178,205);stroke:rgb(0,0,0);stroke-width:2"/></g>
<g fill-rule="evenodd"><path d="M 1033.46,1261.81 L 1034.67,1249.52 L 1038.26,1237.7 L 1044.08,1226.81 L 1051.91,1217.27 L 1061.46,1209.43 L 1072.35,1203.61 L 1084.17,1200.03 L 1096.46,1198.82 L 1108.75,1200.03 L 1120.56,1203.61 L 1131.45,1209.43 L 1141,1217.27 L 1148.83,1226.81 L 1154.65,1237.7 L 1158.24,1249.52 L 1159.45,1261.81 L 1158.24,1274.1 L 1154.65,1285.92 L 1148.83,1296.81 L 1141,1306.35 L 1131.45,1314.19 L 1120.56,1320.01 L 1108.75,1323.59 L 1096.46,1324.8 L 1084.17,1323.59 L 1072.35,1320.01 L 1061.46,1314.19 L 1051.91,1306.35 L 1044.08,1296.81 L 1038.26,1285.92 L 1034.67,1274.1 L 1033.46,1261.81 z " style="fill-opacity:1.000000;fill:rgb(198,155,180);stroke:rgb(0,0,0);stroke-width:2"/></g>
<g fill-rule="evenodd"><path d="M 1433.46,2461.81 L 1434.67,2449.52 L 1438.26,2437.7 L 1444.08,2426.81 L 1451.91,2417.27 L 1461.46,2409.43 L 1472.35,2403.61 L 1484.17,2400.03 L 1496.46,2398.82 L 1508.75,2400.03 L 1520.56,2403.61 L 1531.45,2409.43 L 1541,2417.27 L 1548.83,2426.81 L 1554.65,2437.7 L 1558.24,2449.52 L 1559.45,2461.81 L 1558.24,2474.1 L 1554.65,2485.92 L 1548.83,2496.81 L 1541,2506.35 L 1531.45,2514.19 L 1520.56,2520.01 L 1508.75,2523.59 L 1496.46,2524.8 L 1484.17,2523.59 L 1472.35,2520.01 L 1461.46,2514.19 L 1451.91,2506.35 L 1444.08,2496.81 L 1438.26,2485.92 L 1434.67,2474.1 L 1433.46,2461.81 z " style="fill-opacity:1.000000;fill:rgb(84,17,14);stroke:rgb(0,0,0);stroke-width:2"/></g>
<g fill-rule="evenodd"><path d="M 1433.46,1261.81 L 1434.67,1249.52 L 1438.26,1237.7 L 1444.08,1226.81 L 1451.91,1217.27 L 1461.46,1209.43 L 1472.35,1203.61 L 1484.17,1200.03 L 1496.46,1198.82 L 1508.75,1200.03 L 1520.56,1203.61 L 1528.26,1207.73 L 1762.47,973.526 L 1761.09,970.956 L 1757.51,959.14 L 1756.3,946.85 L 1757.51,934.561 L 1761.09,922.744 L 1766.92,911.854 L 1774.75,902.308 L 1784.29,894.474 L 1795.19,888.653 L 1807,885.069 L 1819.29,883.858 L 1831.58,885.069 L 1843.4,888.653 L 1854.29,894.474 L 1863.83,902.308 L 1871.67,911.854 L 1877.49,922.744 L 1881.07,934.561 L 1882.28,946.85 L 1881.07,959.14 L 1877.49,970.956 L 1871.67,981.847 L 1863.83,991.393 L 1854.29,999.226 L 1843.4,1005.05 L 1831.58,1008.63 L 1819.29,1009.84 L 1807,1008.63 L 1795.19,1005.05 L 1784.29,999.226 L 1782.66,997.881 L 1550.54,1230 L 1554.65,1237.7 L 1558.24,1249.52 L 1559.45,1261.81 L 1558.24,1274.1 L 1554.65,1285.92 L 1548.83,1296.81 L 1541,1306.35 L 1531.45,1314.19 L 1520.56,1320.01 L 1508.75,1323.59 L 1496.46,1324.8 L 1484.17,1323.59 L 1472.35,1320.01 L 1461.46,1314.19 L 1451.91,1306.35 L 1444.08,1296.81 L 1438.26,1285.92 L 1434.67,1274.1 L 1433.46,1261.81 z " style="fill-opacity:1.000000;fill:rgb(130,116,65);stroke:rgb(0,0,0);stroke-width:2"/></g>
<g fill-rule="evenodd"><path d="M 1633.46,2461.81 L 1634.67,2449.52 L 1638.26,2437.7 L 1644.08,2426.81 L 1651.91,2417.27 L 1661.46,2409.43 L 1672.35,2403.61 L 1684.17,2400.03 L 1696.46,2398.82 L 1708.75,2400.03 L 1720.56,2403.61 L 1731.45,2409.43 L 1741,2417.27 L 1748.83,2426.81 L 1754.65,2437.7 L 1758.24,2449.52 L 1759.45,2461.81 L 1758.24,2474.1 L 1754.65,2485.92 L 1748.83,2496.81 L 1741,2506.35 L 1731.45,2514.19 L 1720.56,2520.01 L 1708.75,2523.59 L 1696.46,2524.8 L 1684.17,2523.59 L 1672.35,2520.01 L 1661.46,2514.19 L 1651.91,2506.35 L 1644.08,2496.81 L 1638.26,2485.92 L 1634.67,2474.1 L 1633.46,2461.81 z " style="fill-opacity:1.000000;fill:rgb(33,61,220);stroke:rgb(0,0,0);stroke-width:2"/></g>
<g fill-rule="evenodd"><path d="M 1633.46,1261.81 L 1634.67,1249.52 L 1638.26,1237.7 L 1644.08,1226.81 L 1651.91,1217.27 L 1661.46,1209.43 L 1672.35,1203.61 L 1684.17,1200.03 L 1696.46,1198.82 L 1708.75,1200.03 L 1720.56,1203.61 L 1731.45,1209.43 L 1741,1217.27 L 1748.83,1226.81 L 1754.65,1237.7 L 1758.24,1249.52 L 1759.45,1261.81 L 1758.24,1274.1 L 1754.65,1285.92 L 1748.83,1296.81 L 1741,1306.35 L 1731.45,1314.19 L 1720.56,1320.01 L 1708.75,1323.59 L 1696.46,1324.8 L 1684.17,1323.59 L 1672.35,1320.01 L 1661.46,1314.19 L 1651.91,1306.35 L 1644.08,1296.81 L 1638.26,1285.92 L 1634.67,1274.1 L 1633.46,1261.81 z " style="fill-opacity:1.000000;fill:rgb(135,112,233);stroke:rgb(0,0,0);stroke-width:2"/></g>
<g fill-rule="evenodd"><path d="M 1833.46,2461.81 L 1834.67,2449.52 L 1838.26,2437.7 L 1844.08,2426.81 L 1851.91,2417.27 L 1861.46,2409.43 L 1872.35,2403.61 L 1884.17,2400.03 L 1896.46,2398.82 L 1908.75,2400.03 L 1920.56,2403.61 L 1928.26,2407.73 L 2499.93,1836.07 L 2502.31,1834.11 L 2505.04,1832.65 L 2507.99,1831.76 L 2511.06,1831.45 L 4345.7,1831.45 L 4348.78,1831.76 L 4351.73,1832.65 L 4354.45,1834.11 L 4356.84,1836.07 L 5534.39,3013.89 L 5536.63,3018.28 L 5537.4,3023.15 L 5537.4,3322.97 L 5547.27,3325.96 L 5558.84,3332.15 L 5568.98,3340.47 L 5577.3,3350.61 L 5583.49,3362.18 L 5587.3,3374.74 L 5588.58,3387.8 L 5587.3,3400.85 L 5583.49,3413.41 L 5577.3,3424.98 L 5568.98,3435.12 L 5558.84,3443.44 L 5547.27,3449.63 L 5534.71,3453.44 L 5521.65,3454.72 L 5508.6,3453.44 L 5496.04,3449.63 L 5484.47,3443.44 L 5474.33,3435.12 L 5466,3424.98 L 5459.82,3413.41 L 5456.01,3400.85 L 5454.72,3387.8 L 5456.01,3374.74 L 5459.82,3362.18 L 5466,3350.61 L 5474.33,3340.47 L 5484.47,3332.15 L 5496.04,3325.96 L 5505.9,3322.97 L 5505.9,3029.67 L 4339.18,1862.95 L 2517.59,1862.95 L 1950.54,2430 L 1954.65,2437.7 L 1958.24,2449.52 L 1959.45,2461.81 L 1958.24,2474.1 L 1954.65,2485.92 L 1948.83,2496.81 L 1941,2506.35 L 1931.45,2514.19 L 1920.56,2520.01 L 1908.75,2523.59 L 1896.46,2524.8 L 1884.17,2523.59 L 1872.35,2520.01 L 1861.46,2514.19 L 1851.91,2506.35 L 1844.08,2496.81 L 1838.26,2485.92 L 1834.67,2474.1 L 1833.46,2461.81 z " style="fill-opacity:1.000000;fill:rgb(62,161,65);stroke:rgb(0,0,0);stroke-width:2"/></g>
<g fill-rule="evenodd"><path d="M 2033.46,2461.81 L 2034.67,2449.52 L 2038.26,2437.7 L 2044.08,2426.81 L 2051.91,2417.27 L 2061.46,2409.43 L 2072.35,2403.61 L 2084.17,2400.03 L 2096.46,2398.82 L 2108.75,2400.03 L 2120.56,2403.61 L 2128.26,2407.73 L 2621.18,1914.82 L 2623.57,1912.86 L 2626.29,1911.4 L 2629.24,1910.51 L 2632.31,1910.2 L 4313.09,1910.2 L 4317.96,1910.97 L 4320.24,1911.92 L 4324.23,1914.82 L 5332.79,2923.38 L 5334.75,2925.76 L 5336.2,2928.48 L 5337.1,2931.44 L 5337.4,2934.51 L 5337.4,3322.97 L 5347.27,3325.96 L 5358.84,3332.15 L 5368.98,3340.47 L 5377.3,3350.61 L 5383.49,3362.18 L 5387.3,3374.74 L 5388.58,3387.8 L 5387.3,3400.85 L 5383.49,3413.41 L 5377.3,3424.98 L 5368.98,3435.12 L 5358.84,3443.44 L 5347.27,3449.63 L 5334.71,3453.44 L 5321.65,3454.72 L 5308.6,3453.44 L 5296.04,3449.63 L 5284.47,3443.44 L 5274.33,3435.12 L 5266,3424.98 L 5259.82,3413.41 L 5256.01,3400.85 L 5254.72,3387.8 L 5256.01,3374.74 L 5259.82,3362.18 L 5266,3350.61 L 5274.33,3340.47 L 5284.47,3332.15 L 5296.04,3325.96 L 5305.9,3322.97 L 5305.9,2941.03 L 4306.57,1941.7 L 2638.84,1941.7 L 2150.54,2430 L 2154.65,2437.7 L 2158.24,2449.52 L 2159.45,2461.81 L 2158.24,2474.1 L 2154.65,2485.92 L 2148.83,2496.81 L 2141,2506.35 L 2131.45,2514.19 L 2120.56,2520.01 L 2108.75,2523.59 L 2096.46,2524.8 L 2084.17,2523.59 L 2072.35,2520.01 L 2061.46,2514.19 L 2051.91,2506.35 L 2044.08,2496.81 L 2038.26,2485.92 L 2034.67,2474.1 L 2033.46,2461.81 z " style="fill-opacity:1.000000;fill:rgb(225,252,103);stroke:rgb(0,0,0);stroke-width:2"/></g>
<g fill-rule="evenodd"><path d="M 2033.46,1261.81 L 2034.67,1249.52 L 2038.26,1237.7 L 2044.08,1226.81 L 2051.91,1217.27 L 2061.46,1209.43 L 2072.35,1203.61 L 2084.17,1200.03 L 2096.46,1198.82 L 2108.75,1200.03 L 2120.56,1203.61 L 2128.26,1207.73 L 2766.52,569.477 L 2768.9,567.519 L 2771.63,566.064 L 2774.58,565.167 L 2777.65,564.865 L 6477.56,565.059 L 6482.24,566.581 L 6486.23,569.477 L 7047.85,1131.1 L 7106.59,1131.1 L 7109.13,1122.74 L 7114.95,1111.85 L 7122.78,1102.31 L 7132.33,1094.47 L 7143.22,1088.65 L 7155.03,1085.07 L 7167.32,1083.86 L 7179.61,1085.07 L 7191.43,1088.65 L 7202.32,1094.47 L 7211.86,1102.31 L 7219.7,1111.85 L 7225.52,1122.74 L 7229.1,1134.56 L 7230.31,1146.85 L 7229.1,1159.14 L 7225.52,1170.96 L 7219.7,1181.85 L 7211.86,1191.39 L 7202.32,1199.23 L 7191.43,1205.05 L 7179.61,1208.63 L 7167.32,1209.84 L 7155.03,1208.63 L 7143.22,1205.05 L 7132.33,1199.23 L 7122.78,1191.39 L 7114.95,1181.85 L 7109.13,1170.96 L 7106.59,1162.6 L 7041.33,1162.6 L 7036.46,1161.83 L 7032.07,1159.59 L 6468.57,596.361 L 2784.18,596.361 L 2150.54,1230 L 2154.65,1237.7 L 2158.24,1249.52 L 2159.45,1261.81 L 2158.24,1274.1 L 2154.65,1285.92 L 2148.83,1296.81 L 2141,1306.35 L 2131.45,1314.19 L 2120.56,1320.01 L 2108.75,1323.59 L 2096.46,1324.8 L 2084.17,1323.59 L 2072.35,1320.01 L 2061.46,1314.19 L 2051.91,1306.35 L 2044.08,1296.81 L 2038.26,1285.92 L 2034.67,1274.1 L 2033.46,1261.81 z " style="fill-opacity:1.000000;fill:rgb(62,1,126);stroke:rgb(0,0,0);stroke-width:2"/></g>
<g fill-rule="evenodd"><path d="M 2233.46,2461.81 L 2234.67,2449.52 L 2238.26,2437.7 L 2244.08,2426.81 L 2251.91,2417.27 L 2261.46,2409.43 L 2272.35,2403.61 L 2284.17,2400.03 L 2296.46,2398.82 L 2308.75,2400.03 L 2320.56,2403.61 L 2328.26,2407.73 L 2742.43,1993.56 L 2744.82,1991.6 L 2747.54,1990.15 L 2750.49,1989.25 L 2753.57,1988.95 L 4280.48,1988.95 L 4285.35,1989.72 L 4287.63,1990.67 L 4291.61,1993.56 L 5132.79,2834.74 L 5134.75,2837.12 L 5136.2,2839.85 L 5137.1,2842.8 L 5137.4,2845.87 L 5137.4,3322.97 L 5147.27,3325.96 L 5158.84,3332.15 L 5168.98,3340.47 L 5177.3,3350.61 L 5183.49,3362.18 L 5187.3,3374.74 L 5188.58,3387.8 L 5187.3,3400.85 L 5183.49,3413.41 L 5177.3,3424.98 L 5168.98,3435.12 L 5158.84,3443.44 L 5147.27,3449.63 L 5134.71,3453.44 L 5121.65,3454.72 L 5108.6,3453.44 L 5096.04,3449.63 L 5084.47,3443.44 L 5074.33,3435.12 L 5066,3424.98 L 5059.82,3413.41 L 5056.01,3400.85 L 5054.72,3387.8 L 5056.01,3374.74 L 5059.82,3362.18 L 5066,3350.61 L 5074.33,3340.47 L 5084.47,3332.15 L 5096.04,3325.96 L 5105.9,3322.97 L 5105.9,2852.4 L 4273.96,2020.45 L 2760.09,2020.45 L 2350.54,2430 L 2354.65,2437.7 L 2358.24,2449.52 L 2359.45,2461.81 L 2358.24,2474.1 L 2354.65,2485.92 L 2348.83,2496.81 L 2341,2506.35 L 2331.45,2514.19 L 2320.56,2520.01 L 2308.75,2523.59 L 2296.46,2524.8 L 2284.17,2523.59 L 2272.35,2520.01 L 2261.46,2514.19 L 2251.91,2506.35 L 2244.08,2496.81 L 2238.26,2485.92 L 2234.67,2474.1 L 2233.46,2461.81 z " style="fill-opacity:1.000000;fill:rgb(151,234,220);stroke:rgb(0,0,0);stroke-width:2"/></g>
<g fill-rule="evenodd"><path d="M 2233.46,1261.81 L 2234.67,1249.52 L 2238.26,1237.7 L 2244.08,1226.81 L 2251.91,1217.27 L 2261.46,1209.43 L 2272.35,1203.61 L 2284.17,1200.03 L 2296.46,1198.82 L 2308.75,1200.03 L 2320.56,1203.61 L 2328.26,1207.73 L 2887.31,648.683 L 2889.7,646.725 L 2892.42,645.27 L 2895.38,644.373 L 2898.45,644.071 L 6154.3,644.071 L 6156.76,644.265 L 6161.45,645.787 L 6165.43,648.683 L 6447.85,931.101 L 6504.33,931.101 L 6504.33,883.858 L 6630.31,883.858 L 6630.31,1009.84 L 6504.33,1009.84 L 6504.33,962.596 L 6441.33,962.597 L 6436.46,961.826 L 6432.07,959.589 L 6147.78,675.567 L 2904.97,675.567 L 2350.54,1230 L 2354.65,1237.7 L 2358.24,1249.52 L 2359.45,1261.81 L 2358.24,1274.1 L 2354.65,1285.92 L 2348.83,1296.81 L 2341,1306.35 L 2331.45,1314.19 L 2320.56,1320.01 L 2308.75,1323.59 L 2296.46,1324.8 L 2284.17,1323.59 L 2272.35,1320.01 L 2261.46,1314.19 L 2251.91,1306.35 L 2244.08,1296.81 L 2238.26,1285.92 L 2234.67,1274.1 L 2233.46,1261.81 z " style="fill-opacity:1.000000;fill:rgb(107,150,143);stroke:rgb(0,0,0);stroke-width:2"/></g>
<g fill-rule="evenodd"><path d="M 2433.46,2461.81 L 2434.67,2449.52 L 2438.26,2437.7 L 2444.08,2426.81 L 2451.91,2417.27 L 2461.46,2409.43 L 2472.35,2403.61 L 2484.17,2400.03 L 2496.46,2398.82 L 2508.75,2400.03 L 2520.56,2403.61 L 2528.26,2407.73 L 2859.64,2076.35 L 2862.03,2074.39 L 2864.75,2072.94 L 2867.71,2072.04 L 2870.78,2071.74 L 4248.84,2071.74 L 4253.71,2072.51 L 4255.99,2073.46 L 4259.98,2076.35 L 4932.79,2749.16 L 4934.75,2751.55 L 4936.2,2754.27 L 4937.1,2757.23 L 4937.4,2760.3 L 4937.4,3322.97 L 4947.27,3325.96 L 4958.84,3332.15 L 4968.98,3340.47 L 4977.3,3350.61 L 4983.49,3362.18 L 4987.3,3374.74 L 4988.58,3387.8 L 4987.3,3400.85 L 4983.49,3413.41 L 4977.3,3424.98 L 4968.98,3435.12 L 4958.84,3443.44 L 4947.27,3449.63 L 4934.71,3453.44 L 4921.65,3454.72 L 4908.6,3453.44 L 4896.04,3449.63 L 4884.47,3443.44 L 4874.33,3435.12 L 4866,3424.98 L 4859.82,3413.41 L 4856.01,3400.85 L 4854.72,3387.8 L 4856.01,3374.74 L 4859.82,3362.18 L 4866,3350.61 L 4874.33,3340.47 L 4884.47,3332.15 L 4896.04,3325.96 L 4905.9,3322.97 L 4905.9,2766.82 L 4242.32,2103.23 L 2877.3,2103.23 L 2550.54,2430 L 2554.65,2437.7 L 2558.24,2449.52 L 2559.45,2461.81 L 2558.24,2474.1 L 2554.65,2485.92 L 2548.83,2496.81 L 2541,2506.35 L 2531.45,2514.19 L 2520.56,2520.01 L 2508.75,2523.59 L 2496.46,2524.8 L 2484.17,2523.59 L 2472.35,2520.01 L 2461.46,2514.19 L 2451.91,2506.35 L 2444.08,2496.81 L 2438.26,2485.92 L 2434.67,2474.1 L 2433.46,2461.81 z " style="fill-opacity:1.000000;fill:rgb(56,92,42);stroke:rgb(0,0,0);stroke-width:2"/></g>
<g fill-rule="evenodd"><path d="M 2433.46,1261.81 L 2434.67,1249.52 L 2438.26,1237.7 L 2444.08,1226.81 L 2451.91,1217.27 L 2461.46,1209.43 L 2472.35,1203.61 L 2484.17,1200.03 L 2496.46,1198.82 L 2508.75,1200.03 L 2520.56,1203.61 L 2528.26,1207.73 L 3006.97,729.021 L 3009.36,727.063 L 3012.08,725.608 L 3015.04,724.711 L 3018.11,724.409 L 5918.16,724.409 L 5923.03,725.18 L 5927.42,727.416 L 5929.3,729.021 L 6452.46,1252.19 L 6454.42,1254.57 L 6455.88,1257.3 L 6456.77,1260.25 L 6457.08,1263.32 L 6457.08,1331.1 L 6506.59,1331.1 L 6509.13,1322.74 L 6514.95,1311.85 L 6522.78,1302.31 L 6532.33,1294.47 L 6543.22,1288.65 L 6555.03,1285.07 L 6567.32,1283.86 L 6579.61,1285.07 L 6591.43,1288.65 L 6602.32,1294.47 L 6611.86,1302.31 L 6619.7,1311.85 L 6625.52,1322.74 L 6629.1,1334.56 L 6630.31,1346.85 L 6629.1,1359.14 L 6625.52,1370.96 L 6619.7,1381.85 L 6611.86,1391.39 L 6602.32,1399.23 L 6591.43,1405.05 L 6579.61,1408.63 L 6567.32,1409.84 L 6555.03,1408.63 L 6543.22,1405.05 L 6532.33,1399.23 L 6522.78,1391.39 L 6514.95,1381.85 L 6509.13,1370.96 L 6506.59,1362.6 L 6441.33,1362.6 L 6438.26,1362.29 L 6435.3,1361.4 L 6432.58,1359.94 L 6430.19,1357.98 L 6428.23,1355.6 L 6426.78,1352.88 L 6425.88,1349.92 L 6425.58,1346.85 L 6425.58,1269.85 L 5911.64,755.905 L 3024.63,755.905 L 2550.54,1230 L 2554.65,1237.7 L 2558.24,1249.52 L 2559.45,1261.81 L 2558.24,1274.1 L 2554.65,1285.92 L 2548.83,1296.81 L 2541,1306.35 L 2531.45,1314.19 L 2520.56,1320.01 L 2508.75,1323.59 L 2496.46,1324.8 L 2484.17,1323.59 L 2472.35,1320.01 L 2461.46,1314.19 L 2451.91,1306.35 L 2444.08,1296.81 L 2438.26,1285.92 L 2434.67,1274.1 L 2433.46,1261.81 z " style="fill-opacity:1.000000;fill:rgb(236,176,59);stroke:rgb(0,0,0);stroke-width:2"/></g>
<g fill-rule="evenodd"><path d="M 2454.72,3454.72 L 2454.72,3320.87 L 2588.58,3320.87 L 2588.58,3454.72 L 2454.72,3454.72 z " style="fill-opacity:1.000000;fill:rgb(251,50,175);stroke:rgb(0,0,0);stroke-width:2"/></g>
<g fill-rule="evenodd"><path d="M 2633.46,2461.81 L 2634.67,2449.52 L 2638.26,2437.7 L 2644.08,2426.81 L 2651.91,2417.27 L 2661.46,2409.43 L 2672.35,2403.61 L 2684.17,2400.03 L 2696.46,2398.82 L 2708.75,2400.03 L 2720.56,2403.61 L 2728.26,2407.73 L 2976.1,2159.9 L 2978.49,2157.94 L 2981.21,2156.48 L 2984.16,2155.59 L 2987.23,2155.28 L 4215.16,2155.28 L 4217.63,2155.48 L 4222.31,2157 L 4226.3,2159.9 L 4732.79,2666.38 L 4734.75,2668.77 L 4736.2,2671.49 L 4737.1,2674.45 L 4737.4,2677.52 L 4737.4,3322.97 L 4747.27,3325.96 L 4758.84,3332.15 L 4768.98,3340.47 L 4777.3,3350.61 L 4783.49,3362.18 L 4787.3,3374.74 L 4788.58,3387.8 L 4787.3,3400.85 L 4783.49,3413.41 L 4777.3,3424.98 L 4768.98,3435.12 L 4758.84,3443.44 L 4747.27,3449.63 L 4734.71,3453.44 L 4721.65,3454.72 L 4708.6,3453.44 L 4696.04,3449.63 L 4684.47,3443.44 L 4674.33,3435.12 L 4666,3424.98 L 4659.82,3413.41 L 4656.01,3400.85 L 4654.72,3387.8 L 4656.01,3374.74 L 4659.82,3362.18 L 4666,3350.61 L 4674.33,3340.47 L 4684.47,3332.15 L 4696.04,3325.96 L 4705.9,3322.97 L 4705.9,2684.04 L 4208.64,2186.78 L 2993.76,2186.78 L 2750.54,2430 L 2754.65,2437.7 L 2758.24,2449.52 L 2759.45,2461.81 L 2758.24,2474.1 L 2754.65,2485.92 L 2748.83,2496.81 L 2741,2506.35 L 2731.45,2514.19 L 2720.56,2520.01 L 2708.75,2523.59 L 2696.46,2524.8 L 2684.17,2523.59 L 2672.35,2520.01 L 2661.46,2514.19 L 2651.91,2506.35 L 2644.08,2496.81 L 2638.26,2485.92 L 2634.67,2474.1 L 2633.46,2461.81 z " style="fill-opacity:1.000000;fill:rgb(60,84,236);stroke:rgb(0,0,0);stroke-width:2"/></g>
<g fill-rule="evenodd"><path d="M 2633.46,1261.81 L 2634.67,1249.52 L 2638.26,1237.7 L 2644.08,1226.81 L 2651.91,1217.27 L 2661.46,1209.43 L 2672.35,1203.61 L 2684.17,1200.03 L 2696.46,1198.82 L 2708.75,1200.03 L 2720.56,1203.61 L 2731.45,1209.43 L 2741,1217.27 L 2748.83,1226.81 L 2754.65,1237.7 L 2758.24,1249.52 L 2759.45,1261.81 L 2758.24,1274.1 L 2754.65,1285.92 L 2748.83,1296.81 L 2741,1306.35 L 2731.45,1314.19 L 2720.56,1320.01 L 2708.75,1323.59 L 2696.46,1324.8 L 2684.17,1323.59 L 2672.35,1320.01 L 2661.46,1314.19 L 2651.91,1306.35 L 2644.08,1296.81 L 2638.26,1285.92 L 2634.67,1274.1 L 2633.46,1261.81 z " style="fill-opacity:1.000000;fill:rgb(24,219,92);stroke:rgb(0,0,0);stroke-width:2"/></g>
<g fill-rule="evenodd"><path d="M 2654.72,3387.8 L 2656.01,3374.74 L 2659.82,3362.18 L 2666,3350.61 L 2674.33,3340.47 L 2684.47,3332.15 L 2696.04,3325.96 L 2708.6,3322.15 L 2721.65,3320.87 L 2734.71,3322.15 L 2747.27,3325.96 L 2758.84,3332.15 L 2768.98,3340.47 L 2777.3,3350.61 L 2783.49,3362.18 L 2787.3,3374.74 L 2788.58,3387.8 L 2787.3,3400.85 L 2783.49,3413.41 L 2777.3,3424.98 L 2768.98,3435.12 L 2758.84,3443.44 L 2747.27,3449.63 L 2734.71,3453.44 L 2721.65,3454.72 L 2708.6,3453.44 L 2696.04,3449.63 L 2684.47,3443.44 L 2674.33,3435.12 L 2666,3424.98 L 2659.82,3413.41 L 2656.01,3400.85 L 2654.72,3387.8 z " style="fill-opacity:1.000000;fill:rgb(2,26,254);stroke:rgb(0,0,0);stroke-width:2"/></g>
<g fill-rule="evenodd"><path d="M 2833.46,2461.81 L 2834.67,2449.52 L 2838.26,2437.7 L 2844.08,2426.81 L 2851.91,2417.27 L 2861.46,2409.43 L 2872.35,2403.61 L 2884.17,2400.03 L 2896.46,2398.82 L 2908.75,2400.03 L 2920.56,2403.61 L 2928.26,2407.73 L 3095.46,2240.53 L 3097.85,2238.57 L 3100.57,2237.12 L 3103.52,2236.22 L 3106.6,2235.92 L 4181.5,2235.92 L 4186.37,2236.69 L 4188.65,2237.64 L 4192.64,2240.53 L 4532.79,2580.68 L 4534.75,2583.07 L 4536.2,2585.79 L 4537.1,2588.75 L 4537.4,2591.82 L 4537.4,3322.97 L 4547.27,3325.96 L 4558.84,3332.15 L 4568.98,3340.47 L 4577.3,3350.61 L 4583.49,3362.18 L 4587.3,3374.74 L 4588.58,3387.8 L 4587.3,3400.85 L 4583.49,3413.41 L 4577.3,3424.98 L 4568.98,3435.12 L 4558.84,3443.44 L 4547.27,3449.63 L 4534.71,3453.44 L 4521.65,3454.72 L 4508.6,3453.44 L 4496.04,3449.63 L 4484.47,3443.44 L 4474.33,3435.12 L 4466,3424.98 L 4459.82,3413.41 L 4456.01,3400.85 L 4454.72,3387.8 L 4456.01,3374.74 L 4459.82,3362.18 L 4466,3350.61 L 4474.33,3340.47 L 4484.47,3332.15 L 4496.04,3325.96 L 4505.9,3322.97 L 4505.9,2598.34 L 4174.98,2267.42 L 3113.12,2267.42 L 2950.54,2430 L 2954.65,2437.7 L 2958.24,2449.52 L 2959.45,2461.81 L 2958.24,2474.1 L 2954.65,2485.92 L 2948.83,2496.81 L 2941,2506.35 L 2931.45,2514.19 L 2920.56,2520.01 L 2908.75,2523.59 L 2896.46,2524.8 L 2884.17,2523.59 L 2872.35,2520.01 L 2861.46,2514.19 L 2851.91,2506.35 L 2844.08,2496.81 L 2838.26,2485.92 L 2834.67,2474.1 L 2833.46,2461.81 z " style="fill-opacity:1.000000;fill:rgb(67,251,250);stroke:rgb(0,0,0);stroke-width:2"/></g>
<g fill-rule="evenodd"><path d="M 2833.46,1261.81 L 2834.67,1249.52 L 2838.26,1237.7 L 2844.08,1226.81 L 2851.91,1217.27 L 2861.46,1209.43 L 2872.35,1203.61 L 2884.17,1200.03 L 2896.46,1198.82 L 2908.75,1200.03 L 2920.56,1203.61 L 2931.45,1209.43 L 2941,1217.27 L 2948.83,1226.81 L 2954.65,1237.7 L 2958.24,1249.52 L 2959.45,1261.81 L 2958.24,1274.1 L 2954.65,1285.92 L 2948.83,1296.81 L 2941,1306.35 L 2931.45,1314.19 L 2920.56,1320.01 L 2908.75,1323.59 L 2896.46,1324.8 L 2884.17,1323.59 L 2872.35,1320.01 L 2861.46,1314.19 L 2851.91,1306.35 L 2844.08,1296.81 L 2838.26,1285.92 L 2834.67,1274.1 L 2833.46,1261.81 z " style="fill-opacity:1.000000;fill:rgb(170,58,251);stroke:rgb(0,0,0);stroke-width:2"/></g>
<g fill-rule="evenodd"><path d="M 2854.72,3387.8 L 2856.01,3374.74 L 2859.82,3362.18 L 2866,3350.61 L 2874.33,3340.47 L 2884.47,3332.15 L 2896.04,3325.96 L 2908.6,3322.15 L 2921.65,3320.87 L 2934.71,3322.15 L 2947.27,3325.96 L 2958.84,3332.15 L 2968.98,3340.47 L 2977.3,3350.61 L 2983.49,3362.18 L 2987.3,3374.74 L 2988.58,3387.8 L 2987.3,3400.85 L 2983.49,3413.41 L 2977.3,3424.98 L 2968.98,3435.12 L 2958.84,3443.44 L 2947.27,3449.63 L 2934.71,3453.44 L 2921.65,3454.72 L 2908.6,3453.44 L 2896.04,3449.63 L 2884.47,3443.44 L 2874.33,3435.12 L 2866,3424.98 L 2859.82,3413.41 L 2856.01,3400.85 L 2854.72,3387.8 z " style="fill-opacity:1.000000;fill:rgb(41,209,230);stroke:rgb(0,0,0);stroke-width:2"/></g>
<g fill-rule="evenodd"><path d="M 3033.46,2461.81 L 3034.67,2449.52 L 3038.26,2437.7 L 3044.08,2426.81 L 3051.91,2417.27 L 3061.46,2409.43 L 3072.35,2403.61 L 3084.17,2400.03 L 3096.46,2398.82 L 3108.75,2400.03 L 3120.56,2403.61 L 3128.26,2407.73 L 3213.17,2322.82 L 3215.56,2320.86 L 3218.28,2319.41 L 3221.23,2318.51 L 3224.31,2318.21 L 4150.05,2318.21 L 4154.91,2318.98 L 4159.3,2321.22 L 4332.79,2494.43 L 4334.75,2496.82 L 4336.2,2499.54 L 4337.1,2502.49 L 4337.4,2505.57 L 4337.4,3322.97 L 4347.27,3325.96 L 4358.84,3332.15 L 4368.98,3340.47 L 4377.3,3350.61 L 4383.49,3362.18 L 4387.3,3374.74 L 4388.58,3387.8 L 4387.3,3400.85 L 4383.49,3413.41 L 4377.3,3424.98 L 4368.98,3435.12 L 4358.84,3443.44 L 4347.27,3449.63 L 4334.71,3453.44 L 4321.65,3454.72 L 4308.6,3453.44 L 4296.04,3449.63 L 4284.47,3443.44 L 4274.33,3435.12 L 4266,3424.98 L 4259.82,3413.41 L 4256.01,3400.85 L 4254.72,3387.8 L 4256.01,3374.74 L 4259.82,3362.18 L 4266,3350.61 L 4274.33,3340.47 L 4284.47,3332.15 L 4296.04,3325.96 L 4305.9,3322.97 L 4305.9,2512.09 L 4143.52,2349.71 L 3230.83,2349.71 L 3150.54,2430 L 3154.65,2437.7 L 3158.24,2449.52 L 3159.45,2461.81 L 3158.24,2474.1 L 3154.65,2485.92 L 3148.83,2496.81 L 3141,2506.35 L 3131.45,2514.19 L 3120.56,2520.01 L 3108.75,2523.59 L 3096.46,2524.8 L 3084.17,2523.59 L 3072.35,2520.01 L 3061.46,2514.19 L 3051.91,2506.35 L 3044.08,2496.81 L 3038.26,2485.92 L 3034.67,2474.1 L 3033.46,2461.81 z " style="fill-opacity:1.000000;fill:rgb(5,60,124);stroke:rgb(0,0,0);stroke-width:2"/></g>
<g fill-rule="evenodd"><path d="M 3033.46,1261.81 L 3034.67,1249.52 L 3038.26,1237.7 L 3044.08,1226.81 L 3051.91,1217.27 L 3061.46,1209.43 L 3072.35,1203.61 L 3084.17,1200.03 L 3096.46,1198.82 L 3108.75,1200.03 L 3120.56,1203.61 L 3131.45,1209.43 L 3141,1217.27 L 3148.83,1226.81 L 3154.65,1237.7 L 3158.24,1249.52 L 3159.45,1261.81 L 3158.24,1274.1 L 3154.65,1285.92 L 3148.83,1296.81 L 3141,1306.35 L 3131.45,1314.19 L 3120.56,1320.01 L 3108.75,1323.59 L 3096.46,1324.8 L 3084.17,1323.59 L 3072.35,1320.01 L 3061.46,1314.19 L 3051.91,1306.35 L 3044.08,1296.81 L 3038.26,1285.92 L 3034.67,1274.1 L 3033.46,1261.81 z " style="fill-opacity:1.000000;fill:rgb(148,117,216);stroke:rgb(0,0,0);stroke-width:2"/></g>
<g fill-rule="evenodd"><path d="M 3054.72,3387.8 L 3056.01,3374.74 L 3059.82,3362.18 L 3066,3350.61 L 3074.33,3340.47 L 3084.47,3332.15 L 3096.04,3325.96 L 3108.6,3322.15 L 3121.65,3320.87 L 3134.71,3322.15 L 3147.27,3325.96 L 3158.84,3332.15 L 3168.98,3340.47 L 3177.3,3350.61 L 3183.49,3362.18 L 3187.3,3374.74 L 3188.58,3387.8 L 3187.3,3400.85 L 3183.49,3413.41 L 3177.3,3424.98 L 3168.98,3435.12 L 3158.84,3443.44 L 3147.27,3449.63 L 3134.71,3453.44 L 3121.65,3454.72 L 3108.6,3453.44 L 3096.04,3449.63 L 3084.47,3443.44 L 3074.33,3435.12 L 3066,3424.98 L 3059.82,3413.41 L 3056.01,3400.85 L 3054.72,3387.8 z " style="fill-opacity:1.000000;fill:rgb(190,97,137);stroke:rgb(0,0,0);stroke-width:2"/></g>
<g fill-rule="evenodd"><path d="M 3233.46,2461.81 L 3234.67,2449.52 L 3238.26,2437.7 L 3244.08,2426.81 L 3251.91,2417.27 L 3261.46,2409.43 L 3272.35,2403.61 L 3284.17,2400.03 L 3296.46,2398.82 L 3308.75,2400.03 L 3320.56,2403.61 L 3331.45,2409.43 L 3341,2417.27 L 3348.83,2426.81 L 3354.65,2437.7 L 3358.24,2449.52 L 3359.45,2461.81 L 3358.24,2474.1 L 3354.65,2485.92 L 3348.83,2496.81 L 3341,2506.35 L 3331.45,2514.19 L 3320.56,2520.01 L 3312.2,2522.54 L 3312.2,2572.05 L 3321.66,2572.05 L 3324.73,2572.36 L 3327.69,2573.25 L 3330.41,2574.71 L 3332.8,2576.67 L 4086.95,3330.82 L 4096.04,3325.96 L 4108.6,3322.15 L 4121.65,3320.87 L 4134.71,3322.15 L 4147.27,3325.96 L 4158.84,3332.15 L 4168.98,3340.47 L 4177.3,3350.61 L 4183.49,3362.18 L 4187.3,3374.74 L 4188.58,3387.8 L 4187.3,3400.85 L 4183.49,3413.41 L 4177.3,3424.98 L 4168.98,3435.12 L 4158.84,3443.44 L 4147.27,3449.63 L 4134.71,3453.44 L 4121.65,3454.72 L 4108.6,3453.44 L 4096.04,3449.63 L 4084.47,3443.44 L 4074.33,3435.12 L 4066,3424.98 L 4059.82,3413.41 L 4056.01,3400.85 L 4054.72,3387.8 L 4056.01,3374.74 L 4059.82,3362.18 L 4064.68,3353.09 L 3315.14,2603.55 L 3296.45,2603.55 L 3293.38,2603.25 L 3290.43,2602.35 L 3287.71,2600.9 L 3285.32,2598.94 L 3283.36,2596.55 L 3281.91,2593.83 L 3281.01,2590.88 L 3280.71,2587.8 L 3280.71,2522.54 L 3272.35,2520.01 L 3261.46,2514.19 L 3251.91,2506.35 L 3244.08,2496.81 L 3238.26,2485.92 L 3234.67,2474.1 L 3233.46,2461.81 z " style="fill-opacity:1.000000;fill:rgb(249,92,187);stroke:rgb(0,0,0);stroke-width:2"/></g>
<g fill-rule="evenodd"><path d="M 3233.46,1261.81 L 3234.67,1249.52 L 3238.26,1237.7 L 3244.08,1226.81 L 3251.91,1217.27 L 3261.46,1209.43 L 3272.35,1203.61 L 3284.17,1200.03 L 3296.46,1198.82 L 3308.75,1200.03 L 3320.56,1203.61 L 3331.45,1209.43 L 3341,1217.27 L 3348.83,1226.81 L 3354.65,1237.7 L 3358.24,1249.52 L 3359.45,1261.81 L 3358.24,1274.1 L 3354.65,1285.92 L 3348.83,1296.81 L 3341,1306.35 L 3331.45,1314.19 L 3320.56,1320.01 L 3308.75,1323.59 L 3296.46,1324.8 L 3284.17,1323.59 L 3272.35,1320.01 L 3261.46,1314.19 L 3251.91,1306.35 L 3244.08,1296.81 L 3238.26,1285.92 L 3234.67,1274.1 L 3233.46,1261.81 z " style="fill-opacity:1.000000;fill:rgb(168,153,15);stroke:rgb(0,0,0);stroke-width:2"/></g>
<g fill-rule="evenodd"><path d="M 3254.72,3387.8 L 3256.01,3374.74 L 3259.82,3362.18 L 3266,3350.61 L 3274.33,3340.47 L 3284.47,3332.15 L 3296.04,3325.96 L 3308.6,3322.15 L 3321.65,3320.87 L 3334.71,3322.15 L 3347.27,3325.96 L 3358.84,3332.15 L 3368.98,3340.47 L 3377.3,3350.61 L 3383.49,3362.18 L 3387.3,3374.74 L 3388.58,3387.8 L 3387.3,3400.85 L 3383.49,3413.41 L 3377.3,3424.98 L 3368.98,3435.12 L 3358.84,3443.44 L 3347.27,3449.63 L 3334.71,3453.44 L 3321.65,3454.72 L 3308.6,3453.44 L 3296.04,3449.63 L 3284.47,3443.44 L 3274.33,3435.12 L 3266,3424.98 L 3259.82,3413.41 L 3256.01,3400.85 L 3254.72,3387.8 z " style="fill-opacity:1.000000;fill:rgb(149,177,235);stroke:rgb(0,0,0);stroke-width:2"/></g>
<g fill-rule="evenodd"><path d="M 3433.46,2461.81 L 3434.67,2449.52 L 3438.26,2437.7 L 3444.08,2426.81 L 3451.91,2417.27 L 3461.46,2409.43 L 3472.35,2403.61 L 3484.17,2400.03 L 3496.46,2398.82 L 3508.75,2400.03 L 3520.56,2403.61 L 3531.45,2409.43 L 3541,2417.27 L 3548.83,2426.81 L 3554.65,2437.7 L 3558.24,2449.52 L 3559.45,2461.81 L 3558.24,2474.1 L 3554.65,2485.92 L 3548.83,2496.81 L 3541,2506.35 L 3531.45,2514.19 L 3520.56,2520.01 L 3508.75,2523.59 L 3496.46,2524.8 L 3484.17,2523.59 L 3472.35,2520.01 L 3461.46,2514.19 L 3451.91,2506.35 L 3444.08,2496.81 L 3438.26,2485.92 L 3434.67,2474.1 L 3433.46,2461.81 z " style="fill-opacity:1.000000;fill:rgb(241,179,5);stroke:rgb(0,0,0);stroke-width:2"/></g>
<g fill-rule="evenodd"><path d="M 3433.46,1261.81 L 3434.67,1249.52 L 3438.26,1237.7 L 3444.08,1226.81 L 3451.91,1217.27 L 3461.46,1209.43 L 3472.35,1203.61 L 3484.17,1200.03 L 3496.46,1198.82 L 3508.75,1200.03 L 3520.56,1203.61 L 3531.45,1209.43 L 3541,1217.27 L 3548.83,1226.81 L 3554.65,1237.7 L 3558.24,1249.52 L 3559.45,1261.81 L 3558.24,1274.1 L 3554.65,1285.92 L 3548.83,1296.81 L 3541,1306.35 L 3531.45,1314.19 L 3520.56,1320.01 L 3508.75,1323.59 L 3496.46,1324.8 L 3484.17,1323.59 L 3472.35,1320.01 L 3461.46,1314.19 L 3451.91,1306.35 L 3444.08,1296.81 L 3438.26,1285.92 L 3434.67,1274.1 L 3433.46,1261.81 z " style="fill-opacity:1.000000;fill:rgb(239,247,0);stroke:rgb(0,0,0);stroke-width:2"/></g>
<g fill-rule="evenodd"><path d="M 3454.72,3387.8 L 3456.01,3374.74 L 3459.82,3362.18 L 3466,3350.61 L 3474.33,3340.47 L 3484.47,3332.15 L 3496.04,3325.96 L 3508.6,3322.15 L 3521.65,3320.87 L 3534.71,3322.15 L 3547.27,3325.96 L 3558.84,3332.15 L 3568.98,3340.47 L 3577.3,3350.61 L 3583.49,3362.18 L 3587.3,3374.74 L 3588.58,3387.8 L 3587.3,3400.85 L 3583.49,3413.41 L 3577.3,3424.98 L 3568.98,3435.12 L 3558.84,3443.44 L 3547.27,3449.63 L 3534.71,3453.44 L 3521.65,3454.72 L 3508.6,3453.44 L 3496.04,3449.63 L 3484.47,3443.44 L 3474.33,3435.12 L 3466,3424.98 L 3459.82,3413.41 L 3456.01,3400.85 L 3454.72,3387.8 z " style="fill-opacity:1.000000;fill:rgb(233,161,58);stroke:rgb(0,0,0);stroke-width:2"/></g>
<g fill-rule="evenodd"><path d="M 3633.46,2461.81 L 3634.67,2449.52 L 3638.26,2437.7 L 3644.08,2426.81 L 3651.91,2417.27 L 3661.46,2409.43 L 3672.35,2403.61 L 3684.17,2400.03 L 3696.46,2398.82 L 3708.75,2400.03 L 3720.56,2403.61 L 3731.45,2409.43 L 3741,2417.27 L 3748.83,2426.81 L 3754.65,2437.7 L 3758.24,2449.52 L 3759.45,2461.81 L 3758.24,2474.1 L 3754.65,2485.92 L 3748.83,2496.81 L 3741,2506.35 L 3731.45,2514.19 L 3720.56,2520.01 L 3708.75,2523.59 L 3696.46,2524.8 L 3684.17,2523.59 L 3672.35,2520.01 L 3661.46,2514.19 L 3651.91,2506.35 L 3644.08,2496.81 L 3638.26,2485.92 L 3634.67,2474.1 L 3633.46,2461.81 z " style="fill-opacity:1.000000;fill:rgb(229,202,11);stroke:rgb(0,0,0);stroke-width:2"/></g>
<g fill-rule="evenodd"><path d="M 3633.46,1261.81 L 3634.67,1249.52 L 3638.26,1237.7 L 3644.08,1226.81 L 3651.91,1217.27 L 3661.46,1209.43 L 3672.35,1203.61 L 3684.17,1200.03 L 3696.46,1198.82 L 3708.75,1200.03 L 3720.56,1203.61 L 3731.45,1209.43 L 3741,1217.27 L 3748.83,1226.81 L 3754.65,1237.7 L 3758.24,1249.52 L 3759.45,1261.81 L 3758.24,1274.1 L 3754.65,1285.92 L 3748.83,1296.81 L 3741,1306.35 L 3731.45,1314.19 L 3720.56,1320.01 L 3708.75,1323.59 L 3696.46,1324.8 L 3684.17,1323.59 L 3672.35,1320.01 L 3661.46,1314.19 L 3651.91,1306.35 L 3644.08,1296.81 L 3638.26,1285.92 L 3634.67,1274.1 L 3633.46,1261.81 z " style="fill-opacity:1.000000;fill:rgb(203,208,72);stroke:rgb(0,0,0);stroke-width:2"/></g>
<g fill-rule="evenodd"><path d="M 3654.72,3387.8 L 3656.01,3374.74 L 3659.82,3362.18 L 3666,3350.61 L 3674.33,3340.47 L 3684.47,3332.15 L 3696.04,3325.96 L 3708.6,3322.15 L 3721.65,3320.87 L 3734.71,3322.15 L 3747.27,3325.96 L 3758.84,3332.15 L 3768.98,3340.47 L 3777.3,3350.61 L 3783.49,3362.18 L 3787.3,3374.74 L 3788.58,3387.8 L 3787.3,3400.85 L 3783.49,3413.41 L 3777.3,3424.98 L 3768.98,3435.12 L 3758.84,3443.44 L 3747.27,3449.63 L 3734.71,3453.44 L 3721.65,3454.72 L 3708.6,3453.44 L 3696.04,3449.63 L 3684.47,3443.44 L 3674.33,3435.12 L 3666,3424.98 L 3659.82,3413.41 L 3656.01,3400.85 L 3654.72,3387.8 z " style="fill-opacity:1.000000;fill:rgb(71,100,189);stroke:rgb(0,0,0);stroke-width:2"/></g>
<g fill-rule="evenodd"><path d="M 3833.46,2461.81 L 3834.67,2449.52 L 3838.26,2437.7 L 3844.08,2426.81 L 3851.91,2417.27 L 3861.46,2409.43 L 3872.35,2403.61 L 3884.17,2400.03 L 3896.46,2398.82 L 3908.75,2400.03 L 3920.56,2403.61 L 3931.45,2409.43 L 3941,2417.27 L 3948.83,2426.81 L 3954.65,2437.7 L 3958.24,2449.52 L 3959.45,2461.81 L 3958.24,2474.1 L 3954.65,2485.92 L 3948.83,2496.81 L 3941,2506.35 L 3931.45,2514.19 L 3920.56,2520.01 L 3908.75,2523.59 L 3896.46,2524.8 L 3884.17,2523.59 L 3872.35,2520.01 L 3861.46,2514.19 L 3851.91,2506.35 L 3844.08,2496.81 L 3838.26,2485.92 L 3834.67,2474.1 L 3833.46,2461.81 z " style="fill-opacity:1.000000;fill:rgb(31,35,30);stroke:rgb(0,0,0);stroke-width:2"/></g>
<g fill-rule="evenodd"><path d="M 3833.46,1261.81 L 3834.67,1249.52 L 3838.26,1237.7 L 3844.08,1226.81 L 3851.91,1217.27 L 3861.46,1209.43 L 3872.35,1203.61 L 3884.17,1200.03 L 3896.46,1198.82 L 3908.75,1200.03 L 3920.56,1203.61 L 3931.45,1209.43 L 3941,1217.27 L 3948.83,1226.81 L 3954.65,1237.7 L 3958.24,1249.52 L 3959.45,1261.81 L 3958.24,1274.1 L 3954.65,1285.92 L 3948.83,1296.81 L 3941,1306.35 L 3931.45,1314.19 L 3920.56,1320.01 L 3908.75,1323.59 L 3896.46,1324.8 L 3884.17,1323.59 L 3872.35,1320.01 L 3861.46,1314.19 L 3851.91,1306.35 L 3844.08,1296.81 L 3838.26,1285.92 L 3834.67,1274.1 L 3833.46,1261.81 z " style="fill-opacity:1.000000;fill:rgb(168,28,123);stroke:rgb(0,0,0);stroke-width:2"/></g>
<g fill-rule="evenodd"><path d="M 3854.72,3387.8 L 3856.01,3374.74 L 3859.82,3362.18 L 3866,3350.61 L 3874.33,3340.47 L 3884.47,3332.15 L 3896.04,3325.96 L 3908.6,3322.15 L 3921.65,3320.87 L 3934.71,3322.15 L 3947.27,3325.96 L 3958.84,3332.15 L 3968.98,3340.47 L 3977.3,3350.61 L 3983.49,3362.18 L 3987.3,3374.74 L 3988.58,3387.8 L 3987.3,3400.85 L 3983.49,3413.41 L 3977.3,3424.98 L 3968.98,3435.12 L 3958.84,3443.44 L 3947.27,3449.63 L 3934.71,3453.44 L 3921.65,3454.72 L 3908.6,3453.44 L 3896.04,3449.63 L 3884.47,3443.44 L 3874.33,3435.12 L 3866,3424.98 L 3859.82,3413.41 L 3856.01,3400.85 L 3854.72,3387.8 z " style="fill-opacity:1.000000;fill:rgb(100,197,20);stroke:rgb(0,0,0);stroke-width:2"/></g>
<g fill-rule="evenodd"><path d="M 4033.46,2461.81 L 4034.67,2449.52 L 4038.26,2437.7 L 4044.08,2426.81 L 4051.91,2417.27 L 4061.46,2409.43 L 4072.35,2403.61 L 4084.17,2400.03 L 4096.46,2398.82 L 4108.75,2400.03 L 4120.56,2403.61 L 4131.45,2409.43 L 4141,2417.27 L 4148.83,2426.81 L 4154.65,2437.7 L 4158.24,2449.52 L 4159.45,2461.81 L 4158.24,2474.1 L 4154.65,2485.92 L 4148.83,2496.81 L 4141,2506.35 L 4131.45,2514.19 L 4120.56,2520.01 L 4108.75,2523.59 L 4096.46,2524.8 L 4084.17,2523.59 L 4072.35,2520.01 L 4061.46,2514.19 L 4051.91,2506.35 L 4044.08,2496.81 L 4038.26,2485.92 L 4034.67,2474.1 L 4033.46,2461.81 z " style="fill-opacity:1.000000;fill:rgb(115,90,197);stroke:rgb(0,0,0);stroke-width:2"/></g>
<g fill-rule="evenodd"><path d="M 4033.46,1261.81 L 4034.67,1249.52 L 4038.26,1237.7 L 4044.08,1226.81 L 4051.91,1217.27 L 4061.46,1209.43 L 4072.35,1203.61 L 4084.17,1200.03 L 4096.46,1198.82 L 4108.75,1200.03 L 4120.56,1203.61 L 4131.45,1209.43 L 4141,1217.27 L 4148.83,1226.81 L 4154.65,1237.7 L 4158.24,1249.52 L 4159.45,1261.81 L 4158.24,1274.1 L 4154.65,1285.92 L 4148.83,1296.81 L 4141,1306.35 L 4131.45,1314.19 L 4120.56,1320.01 L 4108.75,1323.59 L 4096.46,1324.8 L 4084.17,1323.59 L 4072.35,1320.01 L 4061.46,1314.19 L 4051.91,1306.35 L 4044.08,1296.81 L 4038.26,1285.92 L 4034.67,1274.1 L 4033.46,1261.81 z " style="fill-opacity:1.000000;fill:rgb(94,75,121);stroke:rgb(0,0,0);stroke-width:2"/></g>
<g fill-rule="evenodd"><path d="M 4075.01,1663.94 L 4075.76,1656.26 L 4078,1648.88 L 4081.64,1642.07 L 4086.54,1636.11 L 4092.51,1631.21 L 4099.31,1627.57 L 4106.7,1625.33 L 4114.38,1624.57 L 4122.06,1625.33 L 4129.44,1627.57 L 4136.25,1631.21 L 4142.22,1636.11 L 4147.11,1642.07 L 4150.39,1648.2 L 4419.84,1648.2 L 4422.91,1648.5 L 4425.87,1649.4 L 4428.59,1650.85 L 4430.98,1652.81 L 5109.27,2331.1 L 5168.01,2331.1 L 5170.54,2322.74 L 5176.36,2311.85 L 5184.2,2302.31 L 5193.74,2294.47 L 5204.63,2288.65 L 5216.45,2285.07 L 5228.74,2283.86 L 5241.03,2285.07 L 5252.85,2288.65 L 5260.55,2292.77 L 5341.45,2211.86 L 5341.45,1124.86 L 5342.23,1119.99 L 5343.17,1117.71 L 5346.07,1113.72 L 5566.81,892.981 L 5569.2,891.023 L 5571.92,889.568 L 5574.87,888.671 L 5577.94,888.369 L 5622.35,888.369 L 5625.62,882.245 L 5630.52,876.279 L 5636.48,871.383 L 5643.29,867.745 L 5650.67,865.505 L 5658.35,864.748 L 5666.04,865.505 L 5672.68,867.52 L 5730.84,809.359 L 5734.83,806.463 L 5737.11,805.518 L 5741.97,804.747 L 5885.22,804.747 L 5887.68,804.941 L 5892.37,806.463 L 5896.35,809.359 L 6111.53,1024.53 L 6113.49,1026.92 L 6114.94,1029.64 L 6115.84,1032.6 L 6116.14,1035.67 L 6116.14,1873.4 L 6535.51,2292.77 L 6543.22,2288.65 L 6555.03,2285.07 L 6567.32,2283.86 L 6579.61,2285.07 L 6591.43,2288.65 L 6602.32,2294.47 L 6611.86,2302.31 L 6619.7,2311.85 L 6625.52,2322.74 L 6629.1,2334.56 L 6630.31,2346.85 L 6629.1,2359.14 L 6625.52,2370.96 L 6619.7,2381.85 L 6611.86,2391.39 L 6602.32,2399.23 L 6591.43,2405.05 L 6579.61,2408.63 L 6567.32,2409.84 L 6555.03,2408.63 L 6543.22,2405.05 L 6532.33,2399.23 L 6522.78,2391.39 L 6514.95,2381.85 L 6509.13,2370.96 L 6505.54,2359.14 L 6504.33,2346.85 L 6505.54,2334.56 L 6509.13,2322.74 L 6513.24,2315.04 L 6089.26,1891.06 L 6086.36,1887.07 L 6084.84,1882.38 L 6084.64,1879.92 L 6084.64,1042.19 L 5878.7,836.243 L 5748.5,836.243 L 5694.95,889.79 L 5696.97,896.437 L 5697.72,904.118 L 5696.97,911.799 L 5694.73,919.184 L 5691.09,925.991 L 5686.19,931.957 L 5680.23,936.853 L 5673.42,940.491 L 5666.04,942.732 L 5658.35,943.488 L 5650.67,942.732 L 5643.29,940.491 L 5636.48,936.853 L 5630.52,931.957 L 5625.62,925.991 L 5622.34,919.865 L 5584.47,919.865 L 5372.95,1131.38 L 5372.95,2218.38 L 5372.65,2221.46 L 5371.75,2224.41 L 5370.3,2227.13 L 5368.34,2229.52 L 5282.82,2315.04 L 5286.94,2322.74 L 5290.52,2334.56 L 5291.73,2346.85 L 5290.52,2359.14 L 5286.94,2370.96 L 5281.12,2381.85 L 5273.28,2391.39 L 5263.74,2399.23 L 5252.85,2405.05 L 5241.03,2408.63 L 5228.74,2409.84 L 5216.45,2408.63 L 5204.63,2405.05 L 5193.74,2399.23 L 5184.2,2391.39 L 5176.36,2381.85 L 5170.54,2370.96 L 5168.01,2362.6 L 5102.75,2362.6 L 5099.67,2362.29 L 5096.72,2361.4 L 5094,2359.94 L 5091.61,2357.98 L 4413.32,1679.69 L 4150.39,1679.69 L 4147.11,1685.82 L 4142.22,1691.78 L 4136.25,1696.68 L 4129.44,1700.32 L 4122.06,1702.56 L 4114.38,1703.31 L 4106.7,1702.56 L 4099.31,1700.32 L 4092.51,1696.68 L 4086.54,1691.78 L 4081.64,1685.82 L 4078,1679.01 L 4075.76,1671.63 L 4075.01,1663.94 z " style="fill-opacity:1.000000;fill:rgb(99,59,112);stroke:rgb(0,0,0);stroke-width:2"/></g>
<g fill-rule="evenodd"><path d="M 5165.75,2146.85 L 5166.96,2134.56 L 5170.54,2122.74 L 5176.36,2111.85 L 5184.2,2102.31 L 5193.74,2094.47 L 5204.63,2088.65 L 5216.45,2085.07 L 5228.74,2083.86 L 5241.03,2085.07 L 5252.85,2088.65 L 5263.74,2094.47 L 5273.28,2102.31 L 5281.12,2111.85 L 5286.94,2122.74 L 5290.52,2134.56 L 5291.73,2146.85 L 5290.52,2159.14 L 5286.94,2170.96 L 5281.12,2181.85 L 5273.28,2191.39 L 5263.74,2199.23 L 5252.85,2205.05 L 5241.03,2208.63 L 5228.74,2209.84 L 5216.45,2208.63 L 5204.63,2205.05 L 5193.74,2199.23 L 5184.2,2191.39 L 5176.36,2181.85 L 5170.54,2170.96 L 5166.96,2159.14 L 5165.75,2146.85 z " style="fill-opacity:1.000000;fill:rgb(100,36,17);stroke:rgb(0,0,0);stroke-width:2"/></g>
<g fill-rule="evenodd"><path d="M 5165.75,1946.85 L 5166.96,1934.56 L 5170.54,1922.74 L 5176.36,1911.85 L 5184.2,1902.31 L 5193.74,1894.47 L 5204.63,1888.65 L 5216.45,1885.07 L 5228.74,1883.86 L 5241.03,1885.07 L 5252.85,1888.65 L 5263.74,1894.47 L 5273.28,1902.31 L 5281.12,1911.85 L 5286.94,1922.74 L 5290.52,1934.56 L 5291.73,1946.85 L 5290.52,1959.14 L 5286.94,1970.96 L 5281.12,1981.85 L 5273.28,1991.39 L 5263.74,1999.23 L 5252.85,2005.05 L 5241.03,2008.63 L 5228.74,2009.84 L 5216.45,2008.63 L 5204.63,2005.05 L 5193.74,1999.23 L 5184.2,1991.39 L 5176.36,1981.85 L 5170.54,1970.96 L 5166.96,1959.14 L 5165.75,1946.85 z " style="fill-opacity:1.000000;fill:rgb(158,9,220);stroke:rgb(0,0,0);stroke-width:2"/></g>
<g fill-rule="evenodd"><path d="M 5165.75,1746.85 L 5166.96,1734.56 L 5170.54,1722.74 L 5176.36,1711.85 L 5184.2,1702.31 L 5193.74,1694.47 L 5204.63,1688.65 L 5216.45,1685.07 L 5228.74,1683.86 L 5241.03,1685.07 L 5252.85,1688.65 L 5263.74,1694.47 L 5273.28,1702.31 L 5281.12,1711.85 L 5286.94,1722.74 L 5290.52,1734.56 L 5291.73,1746.85 L 5290.52,1759.14 L 5286.94,1770.96 L 5281.12,1781.85 L 5273.28,1791.39 L 5263.74,1799.23 L 5252.85,1805.05 L 5241.03,1808.63 L 5228.74,1809.84 L 5216.45,1808.63 L 5204.63,1805.05 L 5193.74,1799.23 L 5184.2,1791.39 L 5176.36,1781.85 L 5170.54,1770.96 L 5166.96,1759.14 L 5165.75,1746.85 z " style="fill-opacity:1.000000;fill:rgb(170,212,172);stroke:rgb(0,0,0);stroke-width:2"/></g>
<g fill-rule="evenodd"><path d="M 5165.75,1546.85 L 5166.96,1534.56 L 5170.54,1522.74 L 5176.36,1511.85 L 5184.2,1502.31 L 5193.74,1494.47 L 5204.63,1488.65 L 5216.45,1485.07 L 5228.74,1483.86 L 5241.03,1485.07 L 5252.85,1488.65 L 5263.74,1494.47 L 5273.28,1502.31 L 5281.12,1511.85 L 5286.94,1522.74 L 5290.52,1534.56 L 5291.73,1546.85 L 5290.52,1559.14 L 5286.94,1570.96 L 5281.12,1581.85 L 5273.28,1591.39 L 5263.74,1599.23 L 5252.85,1605.05 L 5241.03,1608.63 L 5228.74,1609.84 L 5216.45,1608.63 L 5204.63,1605.05 L 5193.74,1599.23 L 5184.2,1591.39 L 5176.36,1581.85 L 5170.54,1570.96 L 5166.96,1559.14 L 5165.75,1546.85 z " style="fill-opacity:1.000000;fill:rgb(242,27,16);stroke:rgb(0,0,0);stroke-width:2"/></g>
<g fill-rule="evenodd"><path d="M 5165.75,1346.85 L 5166.96,1334.56 L 5170.54,1322.74 L 5176.36,1311.85 L 5184.2,1302.31 L 5193.74,1294.47 L 5204.63,1288.65 L 5216.45,1285.07 L 5228.74,1283.86 L 5241.03,1285.07 L 5252.85,1288.65 L 5263.74,1294.47 L 5273.28,1302.31 L 5281.12,1311.85 L 5286.94,1322.74 L 5290.52,1334.56 L 5291.73,1346.85 L 5290.52,1359.14 L 5286.94,1370.96 L 5281.12,1381.85 L 5273.28,1391.39 L 5263.74,1399.23 L 5252.85,1405.05 L 5241.03,1408.63 L 5228.74,1409.84 L 5216.45,1408.63 L 5204.63,1405.05 L 5193.74,1399.23 L 5184.2,1391.39 L 5176.36,1381.85 L 5170.54,1370.96 L 5166.96,1359.14 L 5165.75,1346.85 z " style="fill-opacity:1.000000;fill:rgb(175,59,51);stroke:rgb(0,0,0);stroke-width:2"/></g>
<g fill-rule="evenodd"><path d="M 5165.75,1146.85 L 5166.96,1134.56 L 5170.54,1122.74 L 5176.36,1111.85 L 5184.2,1102.31 L 5193.74,1094.47 L 5204.63,1088.65 L 5216.45,1085.07 L 5228.74,1083.86 L 5241.03,1085.07 L 5252.85,1088.65 L 5263.74,1094.47 L 5273.28,1102.31 L 5281.12,1111.85 L 5286.94,1122.74 L 5290.52,1134.56 L 5291.73,1146.85 L 5290.52,1159.14 L 5286.94,1170.96 L 5281.12,1181.85 L 5273.28,1191.39 L 5263.74,1199.23 L 5252.85,1205.05 L 5241.03,1208.63 L 5228.74,1209.84 L 5216.45,1208.63 L 5204.63,1205.05 L 5193.74,1199.23 L 5184.2,1191.39 L 5176.36,1181.85 L 5170.54,1170.96 L 5166.96,1159.14 L 5165.75,1146.85 z " style="fill-opacity:1.000000;fill:rgb(205,227,80);stroke:rgb(0,0,0);stroke-width:2"/></g>
<g fill-rule="evenodd"><path d="M 5165.75,1009.84 L 5165.75,883.858 L 5291.73,883.858 L 5291.73,1009.84 L 5165.75,1009.84 z " style="fill-opacity:1.000000;fill:rgb(72,71,21);stroke:rgb(0,0,0);stroke-width:2"/></g>
<g fill-rule="evenodd"><path d="M 5444.13,1146.85 L 5444.88,1139.17 L 5447.12,1131.78 L 5450.76,1124.98 L 5455.66,1119.01 L 5461.62,1114.12 L 5468.43,1110.48 L 5475.82,1108.24 L 5483.5,1107.48 L 5491.18,1108.24 L 5498.56,1110.48 L 5505.37,1114.12 L 5511.33,1119.01 L 5516.23,1124.98 L 5519.5,1131.1 L 5768.01,1131.1 L 5770.54,1122.74 L 5776.36,1111.85 L 5784.2,1102.31 L 5793.74,1094.47 L 5804.63,1088.65 L 5816.45,1085.07 L 5828.74,1083.86 L 5841.03,1085.07 L 5852.85,1088.65 L 5863.74,1094.47 L 5873.28,1102.31 L 5881.12,1111.85 L 5886.94,1122.74 L 5890.52,1134.56 L 5891.73,1146.85 L 5890.52,1159.14 L 5886.94,1170.96 L 5881.12,1181.85 L 5873.28,1191.39 L 5863.74,1199.23 L 5852.85,1205.05 L 5841.03,1208.63 L 5828.74,1209.84 L 5816.45,1208.63 L 5804.63,1205.05 L 5793.74,1199.23 L 5784.2,1191.39 L 5776.36,1181.85 L 5770.54,1170.96 L 5768.01,1162.6 L 5519.51,1162.6 L 5516.23,1168.72 L 5511.33,1174.69 L 5505.37,1179.59 L 5498.56,1183.22 L 5491.18,1185.46 L 5483.5,1186.22 L 5475.82,1185.46 L 5468.43,1183.22 L 5461.62,1179.59 L 5455.66,1174.69 L 5450.76,1168.72 L 5447.12,1161.92 L 5444.88,1154.53 L 5444.13,1146.85 z " style="fill-opacity:1.000000;fill:rgb(92,187,111);stroke:rgb(0,0,0);stroke-width:2"/></g>
<g fill-rule="evenodd"><path d="M 5654.72,3387.8 L 5656.01,3374.74 L 5659.82,3362.18 L 5666,3350.61 L 5674.33,3340.47 L 5684.47,3332.15 L 5696.04,3325.96 L 5708.6,3322.15 L 5721.65,3320.87 L 5734.71,3322.15 L 5747.27,3325.96 L 5758.84,3332.15 L 5768.98,3340.47 L 5777.3,3350.61 L 5783.49,3362.18 L 5787.3,3374.74 L 5788.58,3387.8 L 5787.3,3400.85 L 5783.49,3413.41 L 5777.3,3424.98 L 5768.98,3435.12 L 5758.84,3443.44 L 5747.27,3449.63 L 5734.71,3453.44 L 5721.65,3454.72 L 5708.6,3453.44 L 5696.04,3449.63 L 5684.47,3443.44 L 5674.33,3435.12 L 5666,3424.98 L 5659.82,3413.41 L 5656.01,3400.85 L 5654.72,3387.8 z " style="fill-opacity:1.000000;fill:rgb(34,25,186);stroke:rgb(0,0,0);stroke-width:2"/></g>
<g fill-rule="evenodd"><path d="M 5765.75,2346.85 L 5766.96,2334.56 L 5770.54,2322.74 L 5776.36,2311.85 L 5784.2,2302.31 L 5793.74,2294.47 L 5804.63,2288.65 L 5816.45,2285.07 L 5828.74,2283.86 L 5841.03,2285.07 L 5852.85,2288.65 L 5863.74,2294.47 L 5873.28,2302.31 L 5881.12,2311.85 L 5886.94,2322.74 L 5889.47,2331.1 L 5954.73,2331.1 L 5959.6,2331.87 L 5961.88,2332.82 L 5965.87,2335.71 L 6246.29,2616.14 L 7055.81,2616.14 L 7280.09,2391.86 L 7280.09,2081.89 L 7199.13,2000.93 L 7191.43,2005.05 L 7179.61,2008.63 L 7167.32,2009.84 L 7155.03,2008.63 L 7143.22,2005.05 L 7132.33,1999.23 L 7122.78,1991.39 L 7114.95,1981.85 L 7109.13,1970.96 L 7105.54,1959.14 L 7104.33,1946.85 L 7105.54,1934.56 L 7109.13,1922.74 L 7114.95,1911.85 L 7122.78,1902.31 L 7132.33,1894.47 L 7143.22,1888.65 L 7155.03,1885.07 L 7167.32,1883.86 L 7179.61,1885.07 L 7191.43,1888.65 L 7199.13,1892.77 L 7281.18,1810.72 L 7281.18,1682.98 L 7199.13,1600.93 L 7191.43,1605.05 L 7179.61,1608.63 L 7167.32,1609.84 L 7155.03,1608.63 L 7143.22,1605.05 L 7132.33,1599.23 L 7122.78,1591.39 L 7114.95,1581.85 L 7109.13,1570.96 L 7105.54,1559.14 L 7104.33,1546.85 L 7105.54,1534.56 L 7109.13,1522.74 L 7114.95,1511.85 L 7122.78,1502.31 L 7132.33,1494.47 L 7143.22,1488.65 L 7155.03,1485.07 L 7167.32,1483.86 L 7179.61,1485.07 L 7191.43,1488.65 L 7202.32,1494.47 L 7211.86,1502.31 L 7219.7,1511.85 L 7225.52,1522.74 L 7229.1,1534.56 L 7230.31,1546.85 L 7229.1,1559.14 L 7225.52,1570.96 L 7221.4,1578.66 L 7308.06,1665.32 L 7310.02,1667.71 L 7311.48,1670.43 L 7312.37,1673.38 L 7312.68,1676.45 L 7312.68,1817.24 L 7312.37,1820.32 L 7311.48,1823.27 L 7310.02,1825.99 L 7308.06,1828.38 L 7221.4,1915.04 L 7225.52,1922.74 L 7229.1,1934.56 L 7230.31,1946.85 L 7229.1,1959.14 L 7225.52,1970.96 L 7221.4,1978.66 L 7306.98,2064.23 L 7308.93,2066.62 L 7310.39,2069.34 L 7311.29,2072.3 L 7311.59,2075.37 L 7311.59,2398.38 L 7311.29,2401.46 L 7310.39,2404.41 L 7308.93,2407.13 L 7306.98,2409.52 L 7073.47,2643.02 L 7069.49,2645.92 L 7067.2,2646.87 L 7062.34,2647.64 L 6237.31,2647.44 L 6232.62,2645.92 L 6228.64,2643.02 L 5948.21,2362.6 L 5889.47,2362.6 L 5886.94,2370.96 L 5881.12,2381.85 L 5873.28,2391.39 L 5863.74,2399.23 L 5852.85,2405.05 L 5841.03,2408.63 L 5828.74,2409.84 L 5816.45,2408.63 L 5804.63,2405.05 L 5793.74,2399.23 L 5784.2,2391.39 L 5776.36,2381.85 L 5770.54,2370.96 L 5766.96,2359.14 L 5765.75,2346.85 z " style="fill-opacity:1.000000;fill:rgb(155,125,245);stroke:rgb(0,0,0);stroke-width:2"/></g>
<g fill-rule="evenodd"><path d="M 5765.75,1946.85 L 5766.96,1934.56 L 5770.54,1922.74 L 5776.36,1911.85 L 5784.2,1902.31 L 5793.74,1894.47 L 5804.63,1888.65 L 5816.45,1885.07 L 5828.74,1883.86 L 5841.03,1885.07 L 5852.85,1888.65 L 5863.74,1894.47 L 5873.28,1902.31 L 5881.12,1911.85 L 5886.94,1922.74 L 5890.52,1934.56 L 5891.73,1946.85 L 5890.52,1959.14 L 5886.94,1970.96 L 5881.12,1981.85 L 5873.28,1991.39 L 5863.74,1999.23 L 5852.85,2005.05 L 5841.03,2008.63 L 5828.74,2009.84 L 5816.45,2008.63 L 5804.63,2005.05 L 5793.74,1999.23 L 5784.2,1991.39 L 5776.36,1981.85 L 5770.54,1970.96 L 5766.96,1959.14 L 5765.75,1946.85 z " style="fill-opacity:1.000000;fill:rgb(11,225,26);stroke:rgb(0,0,0);stroke-width:2"/></g>
<g fill-rule="evenodd"><path d="M 5765.75,1546.85 L 5766.96,1534.56 L 5770.54,1522.74 L 5776.36,1511.85 L 5784.2,1502.31 L 5793.74,1494.47 L 5804.63,1488.65 L 5816.45,1485.07 L 5828.74,1483.86 L 5841.03,1485.07 L 5852.85,1488.65 L 5863.74,1494.47 L 5873.28,1502.31 L 5881.12,1511.85 L 5886.94,1522.74 L 5890.52,1534.56 L 5891.73,1546.85 L 5890.52,1559.14 L 5886.94,1570.96 L 5881.12,1581.85 L 5873.28,1591.39 L 5863.74,1599.23 L 5852.85,1605.05 L 5841.03,1608.63 L 5828.74,1609.84 L 5816.45,1608.63 L 5804.63,1605.05 L 5793.74,1599.23 L 5784.2,1591.39 L 5776.36,1581.85 L 5770.54,1570.96 L 5766.96,1559.14 L 5765.75,1546.85 z " style="fill-opacity:1.000000;fill:rgb(28,127,35);stroke:rgb(0,0,0);stroke-width:2"/></g>
<g fill-rule="evenodd"><path d="M 5765.75,946.85 L 5766.96,934.561 L 5770.54,922.744 L 5776.36,911.854 L 5784.2,902.308 L 5793.74,894.474 L 5804.63,888.653 L 5816.45,885.069 L 5828.74,883.858 L 5841.03,885.069 L 5852.85,888.653 L 5863.74,894.474 L 5873.28,902.308 L 5881.12,911.854 L 5886.94,922.744 L 5890.52,934.561 L 5891.73,946.85 L 5890.52,959.14 L 5886.94,970.956 L 5881.12,981.847 L 5873.28,991.393 L 5863.74,999.226 L 5852.85,1005.05 L 5841.03,1008.63 L 5828.74,1009.84 L 5816.45,1008.63 L 5804.63,1005.05 L 5793.74,999.226 L 5784.2,991.393 L 5776.36,981.847 L 5770.54,970.956 L 5766.96,959.14 L 5765.75,946.85 z " style="fill-opacity:1.000000;fill:rgb(248,41,248);stroke:rgb(0,0,0);stroke-width:2"/></g>
<g fill-rule="evenodd"><path d="M 5829.76,2793.79 L 5830.52,2786.11 L 5832.76,2778.72 L 5836.4,2771.91 L 5841.3,2765.95 L 5847.26,2761.05 L 5854.07,2757.41 L 5861.45,2755.17 L 5869.13,2754.42 L 5876.81,2755.17 L 5884.2,2757.41 L 5891.01,2761.05 L 5896.97,2765.95 L 5901.87,2771.91 L 5905.51,2778.72 L 5907.75,2786.11 L 5908.5,2793.79 L 5907.75,2801.47 L 5905.73,2808.11 L 6132.79,3035.17 L 6134.75,3037.56 L 6136.2,3040.28 L 6137.1,3043.23 L 6137.4,3046.31 L 6137.4,3322.97 L 6147.27,3325.96 L 6158.84,3332.15 L 6168.98,3340.47 L 6177.3,3350.61 L 6183.49,3362.18 L 6187.3,3374.74 L 6188.58,3387.8 L 6187.3,3400.85 L 6183.49,3413.41 L 6177.3,3424.98 L 6168.98,3435.12 L 6158.84,3443.44 L 6147.27,3449.63 L 6134.71,3453.44 L 6121.65,3454.72 L 6108.6,3453.44 L 6096.04,3449.63 L 6084.47,3443.44 L 6074.33,3435.12 L 6066,3424.98 L 6059.82,3413.41 L 6056.01,3400.85 L 6054.72,3387.8 L 6056.01,3374.74 L 6059.82,3362.18 L 6066,3350.61 L 6074.33,3340.47 L 6084.47,3332.15 L 6096.04,3325.96 L 6105.9,3322.97 L 6105.9,3052.83 L 5883.46,2830.39 L 5876.81,2832.4 L 5869.13,2833.16 L 5861.45,2832.4 L 5854.07,2830.16 L 5847.26,2826.52 L 5841.3,2821.63 L 5836.4,2815.66 L 5832.76,2808.85 L 5830.52,2801.47 L 5829.76,2793.79 z " style="fill-opacity:1.000000;fill:rgb(164,27,19);stroke:rgb(0,0,0);stroke-width:2"/></g>
<g fill-rule="evenodd"><path d="M 5854.72,3387.8 L 5856.01,3374.74 L 5859.82,3362.18 L 5866,3350.61 L 5874.33,3340.47 L 5884.47,3332.15 L 5896.04,3325.96 L 5908.6,3322.15 L 5921.65,3320.87 L 5934.71,3322.15 L 5947.27,3325.96 L 5958.84,3332.15 L 5968.98,3340.47 L 5977.3,3350.61 L 5983.49,3362.18 L 5987.3,3374.74 L 5988.58,3387.8 L 5987.3,3400.85 L 5983.49,3413.41 L 5977.3,3424.98 L 5968.98,3435.12 L 5958.84,3443.44 L 5947.27,3449.63 L 5934.71,3453.44 L 5921.65,3454.72 L 5908.6,3453.44 L 5896.04,3449.63 L 5884.47,3443.44 L 5874.33,3435.12 L 5866,3424.98 L 5859.82,3413.41 L 5856.01,3400.85 L 5854.72,3387.8 z " style="fill-opacity:1.000000;fill:rgb(181,202,78);stroke:rgb(0,0,0);stroke-width:2"/></g>
<g fill-rule="evenodd"><path d="M 6254.72,3387.8 L 6256.01,3374.74 L 6259.82,3362.18 L 6266,3350.61 L 6274.33,3340.47 L 6284.47,3332.15 L 6296.04,3325.96 L 6308.6,3322.15 L 6321.65,3320.87 L 6334.71,3322.15 L 6347.27,3325.96 L 6358.84,3332.15 L 6368.98,3340.47 L 6377.3,3350.61 L 6383.49,3362.18 L 6387.3,3374.74 L 6388.58,3387.8 L 6387.3,3400.85 L 6383.49,3413.41 L 6377.3,3424.98 L 6368.98,3435.12 L 6358.84,3443.44 L 6347.27,3449.63 L 6334.71,3453.44 L 6321.65,3454.72 L 6308.6,3453.44 L 6296.04,3449.63 L 6284.47,3443.44 L 6274.33,3435.12 L 6266,3424.98 L 6259.82,3413.41 L 6256.01,3400.85 L 6254.72,3387.8 z " style="fill-opacity:1.000000;fill:rgb(232,152,50);stroke:rgb(0,0,0);stroke-width:2"/></g>
<g fill-rule="evenodd"><path d="M 6454.72,3387.8 L 6456.01,3374.74 L 6459.82,3362.18 L 6466,3350.61 L 6474.33,3340.47 L 6484.47,3332.15 L 6496.04,3325.96 L 6508.6,3322.15 L 6521.65,3320.87 L 6534.71,3322.15 L 6547.27,3325.96 L 6558.84,3332.15 L 6568.98,3340.47 L 6577.3,3350.61 L 6583.49,3362.18 L 6587.3,3374.74 L 6588.58,3387.8 L 6587.3,3400.85 L 6583.49,3413.41 L 6577.3,3424.98 L 6568.98,3435.12 L 6558.84,3443.44 L 6547.27,3449.63 L 6534.71,3453.44 L 6521.65,3454.72 L 6508.6,3453.44 L 6496.04,3449.63 L 6484.47,3443.44 L 6474.33,3435.12 L 6466,3424.98 L 6459.82,3413.41 L 6456.01,3400.85 L 6454.72,3387.8 z " style="fill-opacity:1.000000;fill:rgb(56,224,121);stroke:rgb(0,0,0);stroke-width:2"/></g>
<g fill-rule="evenodd"><path d="M 6504.33,2146.85 L 6505.54,2134.56 L 6509.13,2122.74 L 6514.95,2111.85 L 6522.78,2102.31 L 6532.33,2094.47 L 6543.22,2088.65 L 6555.03,2085.07 L 6567.32,2083.86 L 6579.61,2085.07 L 6591.43,2088.65 L 6602.32,2094.47 L 6611.86,2102.31 L 6619.7,2111.85 L 6625.52,2122.74 L 6629.1,2134.56 L 6630.31,2146.85 L 6629.1,2159.14 L 6625.52,2170.96 L 6619.7,2181.85 L 6611.86,2191.39 L 6602.32,2199.23 L 6591.43,2205.05 L 6579.61,2208.63 L 6567.32,2209.84 L 6555.03,2208.63 L 6543.22,2205.05 L 6532.33,2199.23 L 6522.78,2191.39 L 6514.95,2181.85 L 6509.13,2170.96 L 6505.54,2159.14 L 6504.33,2146.85 z " style="fill-opacity:1.000000;fill:rgb(77,61,52);stroke:rgb(0,0,0);stroke-width:2"/></g>
<g fill-rule="evenodd"><path d="M 6504.33,1946.85 L 6505.54,1934.56 L 6509.13,1922.74 L 6514.95,1911.85 L 6522.78,1902.31 L 6532.33,1894.47 L 6543.22,1888.65 L 6555.03,1885.07 L 6567.32,1883.86 L 6579.61,1885.07 L 6591.43,1888.65 L 6602.32,1894.47 L 6611.86,1902.31 L 6619.7,1911.85 L 6625.52,1922.74 L 6629.1,1934.56 L 6630.31,1946.85 L 6629.1,1959.14 L 6625.52,1970.96 L 6619.7,1981.85 L 6611.86,1991.39 L 6602.32,1999.23 L 6591.43,2005.05 L 6579.61,2008.63 L 6567.32,2009.84 L 6555.03,2008.63 L 6543.22,2005.05 L 6532.33,1999.23 L 6522.78,1991.39 L 6514.95,1981.85 L 6509.13,1970.96 L 6505.54,1959.14 L 6504.33,1946.85 z " style="fill-opacity:1.000000;fill:rgb(188,95,78);stroke:rgb(0,0,0);stroke-width:2"/></g>
<g fill-rule="evenodd"><path d="M 6504.33,1746.85 L 6505.54,1734.56 L 6509.13,1722.74 L 6514.95,1711.85 L 6522.78,1702.31 L 6532.33,1694.47 L 6543.22,1688.65 L 6555.03,1685.07 L 6567.32,1683.86 L 6579.61,1685.07 L 6591.43,1688.65 L 6602.32,1694.47 L 6611.86,1702.31 L 6619.7,1711.85 L 6625.52,1722.74 L 6629.1,1734.56 L 6630.31,1746.85 L 6629.1,1759.14 L 6625.52,1770.96 L 6619.7,1781.85 L 6611.86,1791.39 L 6602.32,1799.23 L 6591.43,1805.05 L 6579.61,1808.63 L 6567.32,1809.84 L 6555.03,1808.63 L 6543.22,1805.05 L 6532.33,1799.23 L 6522.78,1791.39 L 6514.95,1781.85 L 6509.13,1770.96 L 6505.54,1759.14 L 6504.33,1746.85 z " style="fill-opacity:1.000000;fill:rgb(119,250,203);stroke:rgb(0,0,0);stroke-width:2"/></g>
<g fill-rule="evenodd"><path d="M 6504.33,1546.85 L 6505.54,1534.56 L 6509.13,1522.74 L 6514.95,1511.85 L 6522.78,1502.31 L 6532.33,1494.47 L 6543.22,1488.65 L 6555.03,1485.07 L 6567.32,1483.86 L 6579.61,1485.07 L 6591.43,1488.65 L 6602.32,1494.47 L 6611.86,1502.31 L 6619.7,1511.85 L 6625.52,1522.74 L 6629.1,1534.56 L 6630.31,1546.85 L 6629.1,1559.14 L 6625.52,1570.96 L 6619.7,1581.85 L 6611.86,1591.39 L 6602.32,1599.23 L 6591.43,1605.05 L 6579.61,1608.63 L 6567.32,1609.84 L 6555.03,1608.63 L 6543.22,1605.05 L 6532.33,1599.23 L 6522.78,1591.39 L 6514.95,1581.85 L 6509.13,1570.96 L 6505.54,1559.14 L 6504.33,1546.85 z " style="fill-opacity:1.000000;fill:rgb(108,5,172);stroke:rgb(0,0,0);stroke-width:2"/></g>
<g fill-rule="evenodd"><path d="M 6504.33,1146.85 L 6505.54,1134.56 L 6509.13,1122.74 L 6514.95,1111.85 L 6522.78,1102.31 L 6532.33,1094.47 L 6543.22,1088.65 L 6555.03,1085.07 L 6567.32,1083.86 L 6579.61,1085.07 L 6591.43,1088.65 L 6602.32,1094.47 L 6611.86,1102.31 L 6619.7,1111.85 L 6625.52,1122.74 L 6629.1,1134.56 L 6630.31,1146.85 L 6629.1,1159.14 L 6625.52,1170.96 L 6619.7,1181.85 L 6611.86,1191.39 L 6602.32,1199.23 L 6591.43,1205.05 L 6579.61,1208.63 L 6567.32,1209.84 L 6555.03,1208.63 L 6543.22,1205.05 L 6532.33,1199.23 L 6522.78,1191.39 L 6514.95,1181.85 L 6509.13,1170.96 L 6505.54,1159.14 L 6504.33,1146.85 z " style="fill-opacity:1.000000;fill:rgb(134,33,43);stroke:rgb(0,0,0);stroke-width:2"/></g>
<g fill-rule="evenodd"><path d="M 6654.72,3387.8 L 6656.01,3374.74 L 6659.82,3362.18 L 6666,3350.61 L 6674.33,3340.47 L 6684.47,3332.15 L 6696.04,3325.96 L 6708.6,3322.15 L 6721.65,3320.87 L 6734.71,3322.15 L 6747.27,3325.96 L 6758.84,3332.15 L 6768.98,3340.47 L 6777.3,3350.61 L 6783.49,3362.18 L 6787.3,3374.74 L 6788.58,3387.8 L 6787.3,3400.85 L 6783.49,3413.41 L 6777.3,3424.98 L 6768.98,3435.12 L 6758.84,3443.44 L 6747.27,3449.63 L 6734.71,3453.44 L 6721.65,3454.72 L 6708.6,3453.44 L 6696.04,3449.63 L 6684.47,3443.44 L 6674.33,3435.12 L 6666,3424.98 L 6659.82,3413.41 L 6656.01,3400.85 L 6654.72,3387.8 z " style="fill-opacity:1.000000;fill:rgb(170,26,85);stroke:rgb(0,0,0);stroke-width:2"/></g>
<g fill-rule="evenodd"><path d="M 6854.72,3387.8 L 6856.01,3374.74 L 6859.82,3362.18 L 6866,3350.61 L 6874.33,3340.47 L 6884.47,3332.15 L 6896.04,3325.96 L 6908.6,3322.15 L 6921.65,3320.87 L 6934.71,3322.15 L 6947.27,3325.96 L 6958.84,3332.15 L 6968.98,3340.47 L 6977.3,3350.61 L 6983.49,3362.18 L 6987.3,3374.74 L 6988.58,3387.8 L 6987.3,3400.85 L 6983.49,3413.41 L 6977.3,3424.98 L 6968.98,3435.12 L 6958.84,3443.44 L 6947.27,3449.63 L 6934.71,3453.44 L 6921.65,3454.72 L 6908.6,3453.44 L 6896.04,3449.63 L 6884.47,3443.44 L 6874.33,3435.12 L 6866,3424.98 L 6859.82,3413.41 L 6856.01,3400.85 L 6854.72,3387.8 z " style="fill-opacity:1.000000;fill:rgb(162,190,112);stroke:rgb(0,0,0);stroke-width:2"/></g>
<g fill-rule="evenodd"><path d="M 7054.72,3387.8 L 7056.01,3374.74 L 7059.82,3362.18 L 7066,3350.61 L 7074.33,3340.47 L 7084.47,3332.15 L 7096.04,3325.96 L 7108.6,3322.15 L 7121.65,3320.87 L 7134.71,3322.15 L 7147.27,3325.96 L 7158.84,3332.15 L 7168.98,3340.47 L 7177.3,3350.61 L 7183.49,3362.18 L 7187.3,3374.74 L 7188.58,3387.8 L 7187.3,3400.85 L 7183.49,3413.41 L 7177.3,3424.98 L 7168.98,3435.12 L 7158.84,3443.44 L 7147.27,3449.63 L 7134.71,3453.44 L 7121.65,3454.72 L 7108.6,3453.44 L 7096.04,3449.63 L 7084.47,3443.44 L 7074.33,3435.12 L 7066,3424.98 L 7059.82,3413.41 L 7056.01,3400.85 L 7054.72,3387.8 z " style="fill-opacity:1.000000;fill:rgb(181,115,59);stroke:rgb(0,0,0);stroke-width:2"/></g>
<g fill-rule="evenodd"><path d="M 7104.33,2346.85 L 7105.54,2334.56 L 7109.13,2322.74 L 7114.95,2311.85 L 7122.78,2302.31 L 7132.33,2294.47 L 7143.22,2288.65 L 7155.03,2285.07 L 7167.32,2283.86 L 7179.61,2285.07 L 7191.43,2288.65 L 7202.32,2294.47 L 7211.86,2302.31 L 7219.7,2311.85 L 7225.52,2322.74 L 7229.1,2334.56 L 7230.31,2346.85 L 7229.1,2359.14 L 7225.52,2370.96 L 7219.7,2381.85 L 7211.86,2391.39 L 7202.32,2399.23 L 7191.43,2405.05 L 7179.61,2408.63 L 7167.32,2409.84 L 7155.03,2408.63 L 7143.22,2405.05 L 7132.33,2399.23 L 7122.78,2391.39 L 7114.95,2381.85 L 7109.13,2370.96 L 7105.54,2359.14 L 7104.33,2346.85 z " style="fill-opacity:1.000000;fill:rgb(4,92,211);stroke:rgb(0,0,0);stroke-width:2"/></g>
</svg>
