<?xml version="1.0" standalone="no"?>
<!DOCTYPE svg PUBLIC "-//W3C//DTD SVG 1.1//EN"
"http://www.w3.org/Graphics/SVG/1.1/DTD/svg11.dtd">
<svg width="382.881" height="193.905" viewBox="0 0 7976.69 4039.69" version="1.1"
xmlns="http://www.w3.org/2000/svg"
xmlns:xlink="http://www.w3.org/1999/xlink">
<g fill-rule="evenodd"><path d="M 248.189,248.189 L 287.559,248.189 L 286.803,255.87 L 284.562,263.255 L 280.924,270.062 L 276.028,276.028 L 270.062,280.924 L 263.255,284.562 L 255.87,286.803 L 248.189,287.559 L 248.189,248.189 z " style="fill-opacity:1.000000;fill:rgb(103,198,105);stroke:rgb(0,0,0);stroke-width:2"/></g>
<g fill-rule="evenodd"><path d="M 496.22,3543.46 L 496.22,3409.61 L 630.079,3409.61 L 630.079,3460.79 L 686.554,3460.79 L 993.393,3153.95 L 993.393,1652.6 L 993.696,1649.52 L 994.592,1646.57 L 996.047,1643.85 L 998.005,1641.46 L 1169.45,1470.02 L 1169.45,1411.28 L 1161.09,1408.75 L 1150.2,1402.93 L 1140.65,1395.09 L 1132.82,1385.55 L 1127,1374.66 L 1123.42,1362.84 L 1122.2,1350.55 L 1123.42,1338.26 L 1127,1326.45 L 1132.82,1315.55 L 1140.65,1306.01 L 1150.2,1298.18 L 1161.09,1292.35 L 1169.45,1289.82 L 1169.45,1240.18 L 1166.14,1239.54 L 1163.86,1238.59 L 1159.87,1235.69 L 1096.9,1172.72 L 1094.94,1170.33 L 1093.48,1167.61 L 1092.59,1164.65 L 1092.28,1161.58 L 1092.28,1096.32 L 1083.93,1093.79 L 1073.03,1087.97 L 1063.49,1080.13 L 1055.66,1070.59 L 1049.83,1059.7 L 1046.25,1047.88 L 1045.04,1035.59 L 1046.25,1023.3 L 1049.83,1011.48 L 1055.66,1000.59 L 1063.49,991.048 L 1073.03,983.215 L 1083.93,977.393 L 1095.74,973.809 L 1108.03,972.598 L 1120.32,973.809 L 1132.14,977.393 L 1143.03,983.215 L 1152.57,991.048 L 1160.41,1000.59 L 1166.23,1011.48 L 1169.81,1023.3 L 1171.02,1035.59 L 1169.81,1047.88 L 1166.23,1059.7 L 1160.41,1070.59 L 1152.57,1080.13 L 1143.03,1087.97 L 1132.14,1093.79 L 1123.78,1096.32 L 1123.78,1155.06 L 1177.53,1208.81 L 1185.19,1208.81 L 1188.27,1209.11 L 1191.22,1210.01 L 1193.94,1211.46 L 1196.33,1213.42 L 1198.29,1215.81 L 1199.74,1218.53 L 1200.64,1221.49 L 1200.94,1224.56 L 1200.94,1289.82 L 1209.3,1292.35 L 1220.19,1298.18 L 1229.74,1306.01 L 1237.57,1315.55 L 1243.39,1326.45 L 1246.98,1338.26 L 1248.19,1350.55 L 1246.98,1362.84 L 1243.39,1374.66 L 1237.57,1385.55 L 1229.74,1395.09 L 1220.19,1402.93 L 1209.3,1408.75 L 1200.94,1411.28 L 1200.94,1476.54 L 1200.64,1479.62 L 1199.74,1482.57 L 1198.29,1485.29 L 1196.33,1487.68 L 1024.89,1659.12 L 1024.89,3160.47 L 1024.59,3163.54 L 1023.69,3166.5 L 1022.23,3169.22 L 1020.28,3171.61 L 702.333,3489.28 L 697.943,3491.51 L 693.077,3492.28 L 630.079,3492.28 L 630.079,3543.46 L 496.22,3543.46 z " style="fill-opacity:1.000000;fill:rgb(115,81,255);stroke:rgb(0,0,0);stroke-width:2"/></g>
<g fill-rule="evenodd"><path d="M 496.22,3276.54 L 497.506,3263.48 L 501.315,3250.92 L 507.5,3239.35 L 515.824,3229.21 L 525.966,3220.89 L 537.537,3214.7 L 550.092,3210.89 L 563.15,3209.61 L 576.207,3210.89 L 588.762,3214.7 L 600.333,3220.89 L 610.476,3229.21 L 618.799,3239.35 L 624.984,3250.92 L 628.793,3263.48 L 630.079,3276.54 L 628.793,3289.59 L 624.984,3302.15 L 618.799,3313.72 L 610.476,3323.86 L 600.333,3332.18 L 588.762,3338.37 L 576.207,3342.18 L 563.15,3343.46 L 550.092,3342.18 L 537.537,3338.37 L 525.966,3332.18 L 515.824,3323.86 L 507.5,3313.72 L 501.315,3302.15 L 497.506,3289.59 L 496.22,3276.54 z " style="fill-opacity:1.000000;fill:rgb(74,236,41);stroke:rgb(0,0,0);stroke-width:2"/></g>
<g fill-rule="evenodd"><path d="M 496.22,3076.54 L 497.506,3063.48 L 501.315,3050.92 L 507.5,3039.35 L 515.824,3029.21 L 525.966,3020.89 L 537.537,3014.7 L 550.092,3010.89 L 563.15,3009.61 L 576.207,3010.89 L 588.762,3014.7 L 597.853,3019.56 L 914.645,2702.77 L 914.645,1033.19 L 914.948,1030.12 L 915.844,1027.17 L 917.299,1024.45 L 919.257,1022.06 L 1045.68,895.635 L 1048.07,893.677 L 1050.79,892.222 L 1053.74,891.326 L 1056.82,891.023 L 1341.42,891.023 L 1346.28,891.794 L 1348.57,892.739 L 1352.55,895.635 L 1753.39,1296.47 L 1761.09,1292.35 L 1772.91,1288.77 L 1785.2,1287.56 L 1797.49,1288.77 L 1809.3,1292.35 L 1820.19,1298.18 L 1829.74,1306.01 L 1837.57,1315.55 L 1843.39,1326.45 L 1846.98,1338.26 L 1848.19,1350.55 L 1846.98,1362.84 L 1843.39,1374.66 L 1837.57,1385.55 L 1829.74,1395.09 L 1820.19,1402.93 L 1809.3,1408.75 L 1797.49,1412.33 L 1785.2,1413.54 L 1772.91,1412.33 L 1761.09,1408.75 L 1750.2,1402.93 L 1740.65,1395.09 L 1732.82,1385.55 L 1727,1374.66 L 1723.42,1362.84 L 1722.2,1350.55 L 1723.42,1338.26 L 1727,1326.45 L 1731.12,1318.74 L 1334.89,922.519 L 1063.34,922.519 L 946.141,1039.72 L 946.141,2709.29 L 945.838,2712.36 L 944.942,2715.32 L 943.487,2718.04 L 941.529,2720.43 L 620.124,3041.83 L 624.984,3050.92 L 628.793,3063.48 L 630.079,3076.54 L 628.793,3089.59 L 624.984,3102.15 L 618.799,3113.72 L 610.476,3123.86 L 600.333,3132.18 L 588.762,3138.37 L 576.207,3142.18 L 563.15,3143.46 L 550.092,3142.18 L 537.537,3138.37 L 525.966,3132.18 L 515.824,3123.86 L 507.5,3113.72 L 501.315,3102.15 L 497.506,3089.59 L 496.22,3076.54 z " style="fill-opacity:1.000000;fill:rgb(205,186,171);stroke:rgb(0,0,0);stroke-width:2"/></g>
<g fill-rule="evenodd"><path d="M 496.22,2876.54 L 497.506,2863.48 L 501.315,2850.92 L 507.5,2839.35 L 515.824,2829.21 L 525.966,2820.89 L 537.537,2814.7 L 550.092,2810.89 L 563.15,2809.61 L 576.207,2810.89 L 588.762,2814.7 L 597.853,2819.56 L 835.889,2581.52 L 835.889,996.211 L 836.192,993.139 L 837.088,990.184 L 838.543,987.462 L 840.501,985.075 L 1011.93,813.643 L 1014.32,811.685 L 1017.04,810.23 L 1020,809.334 L 1023.07,809.031 L 2259.42,809.031 L 2262.5,809.334 L 2265.45,810.23 L 2268.17,811.685 L 2270.56,813.643 L 2753.39,1296.47 L 2761.09,1292.35 L 2772.91,1288.77 L 2785.2,1287.56 L 2797.49,1288.77 L 2809.3,1292.35 L 2820.19,1298.18 L 2829.74,1306.01 L 2837.57,1315.55 L 2843.39,1326.45 L 2846.98,1338.26 L 2848.19,1350.55 L 2846.98,1362.84 L 2843.39,1374.66 L 2837.57,1385.55 L 2829.74,1395.09 L 2820.19,1402.93 L 2809.3,1408.75 L 2797.49,1412.33 L 2785.2,1413.54 L 2772.91,1412.33 L 2761.09,1408.75 L 2750.2,1402.93 L 2740.65,1395.09 L 2732.82,1385.55 L 2727,1374.66 L 2723.42,1362.84 L 2722.2,1350.55 L 2723.42,1338.26 L 2727,1326.45 L 2731.12,1318.74 L 2252.9,840.527 L 1029.59,840.527 L 867.385,1002.73 L 867.385,2588.05 L 867.082,2591.12 L 866.186,2594.07 L 864.731,2596.8 L 862.773,2599.18 L 620.124,2841.83 L 624.984,2850.92 L 628.793,2863.48 L 630.079,2876.54 L 628.793,2889.59 L 624.984,2902.15 L 618.799,2913.72 L 610.476,2923.86 L 600.333,2932.18 L 588.762,2938.37 L 576.207,2942.18 L 563.15,2943.46 L 550.092,2942.18 L 537.537,2938.37 L 525.966,2932.18 L 515.824,2923.86 L 507.5,2913.72 L 501.315,2902.15 L 497.506,2889.59 L 496.22,2876.54 z " style="fill-opacity:1.000000;fill:rgb(242,251,227);stroke:rgb(0,0,0);stroke-width:2"/></g>
<g fill-rule="evenodd"><path d="M 496.22,2676.54 L 497.506,2663.48 L 501.315,2650.92 L 507.5,2639.35 L 515.824,2629.21 L 525.966,2620.89 L 537.537,2614.7 L 550.092,2610.89 L 563.15,2609.61 L 576.207,2610.89 L 588.762,2614.7 L 600.333,2620.89 L 610.476,2629.21 L 618.799,2639.35 L 624.984,2650.92 L 628.793,2663.48 L 630.079,2676.54 L 628.793,2689.59 L 624.984,2702.15 L 618.799,2713.72 L 610.476,2723.86 L 600.333,2732.18 L 588.762,2738.37 L 576.207,2742.18 L 563.15,2743.46 L 550.092,2742.18 L 537.537,2738.37 L 525.966,2732.18 L 515.824,2723.86 L 507.5,2713.72 L 501.315,2702.15 L 497.506,2689.59 L 496.22,2676.54 z " style="fill-opacity:1.000000;fill:rgb(70,124,194);stroke:rgb(0,0,0);stroke-width:2"/></g>
<g fill-rule="evenodd"><path d="M 496.22,2476.54 L 497.506,2463.48 L 501.315,2450.92 L 507.5,2439.35 L 515.824,2429.21 L 525.966,2420.89 L 537.537,2414.7 L 550.092,2410.89 L 563.15,2409.61 L 576.207,2410.89 L 588.762,2414.7 L 597.852,2419.56 L 745.085,2272.33 L 745.085,970.425 L 745.388,967.353 L 746.284,964.398 L 747.739,961.676 L 749.697,959.289 L 974.311,734.675 L 978.298,731.779 L 982.983,730.257 L 5469.09,730.257 L 5473.78,731.779 L 5477.76,734.675 L 5651.25,908.163 L 5653.21,910.55 L 5654.67,913.272 L 5655.56,916.227 L 5655.87,919.299 L 5655.87,1024.14 L 5764.49,1132.76 L 5766.45,1135.15 L 5767.9,1137.87 L 5768.8,1140.82 L 5769.1,1143.9 L 5769.1,1464.94 L 5885.67,1581.51 L 5893.37,1577.39 L 5905.19,1573.81 L 5917.48,1572.6 L 5929.77,1573.81 L 5941.59,1577.39 L 5952.48,1583.21 L 5962.02,1591.05 L 5969.86,1600.59 L 5975.68,1611.48 L 5979.26,1623.3 L 5980.47,1635.59 L 5979.26,1647.88 L 5975.68,1659.7 L 5971.56,1667.4 L 6055.14,1750.98 L 6057.1,1753.37 L 6058.56,1756.09 L 6059.45,1759.04 L 6059.76,1762.12 L 6059.76,1909.06 L 6059.56,1911.53 L 6058.04,1916.21 L 6055.14,1920.2 L 5971.56,2003.78 L 5975.68,2011.48 L 5979.26,2023.3 L 5980.47,2035.59 L 5979.26,2047.88 L 5975.68,2059.7 L 5969.86,2070.59 L 5962.02,2080.13 L 5952.48,2087.97 L 5941.59,2093.79 L 5929.77,2097.37 L 5917.48,2098.58 L 5905.19,2097.37 L 5893.37,2093.79 L 5882.48,2087.97 L 5872.94,2080.13 L 5865.1,2070.59 L 5859.28,2059.7 L 5855.7,2047.88 L 5854.49,2035.59 L 5855.7,2023.3 L 5859.28,2011.48 L 5865.1,2000.59 L 5872.94,1991.05 L 5882.48,1983.21 L 5893.37,1977.39 L 5905.19,1973.81 L 5917.48,1972.6 L 5929.77,1973.81 L 5941.59,1977.39 L 5949.29,1981.51 L 6028.26,1902.54 L 6028.26,1768.64 L 5949.29,1689.67 L 5941.59,1693.79 L 5929.77,1697.37 L 5917.48,1698.58 L 5905.19,1697.37 L 5893.37,1693.79 L 5882.48,1687.97 L 5872.94,1680.13 L 5865.1,1670.59 L 5859.28,1659.7 L 5855.7,1647.88 L 5854.49,1635.59 L 5855.7,1623.3 L 5859.28,1611.48 L 5863.4,1603.78 L 5742.22,1482.6 L 5740.26,1480.21 L 5738.8,1477.49 L 5737.91,1474.54 L 5737.6,1471.46 L 5737.6,1150.42 L 5628.98,1041.8 L 5627.02,1039.41 L 5625.57,1036.69 L 5624.67,1033.73 L 5624.37,1030.66 L 5624.37,925.822 L 5460.11,761.559 L 991.97,761.559 L 776.581,976.948 L 776.581,2278.85 L 776.278,2281.92 L 775.382,2284.88 L 773.927,2287.6 L 771.969,2289.98 L 620.124,2441.83 L 624.984,2450.92 L 628.793,2463.48 L 630.079,2476.54 L 628.793,2489.59 L 624.984,2502.15 L 618.799,2513.72 L 610.476,2523.86 L 600.333,2532.18 L 588.762,2538.37 L 576.207,2542.18 L 563.15,2543.46 L 550.092,2542.18 L 537.537,2538.37 L 525.966,2532.18 L 515.824,2523.86 L 507.5,2513.72 L 501.315,2502.15 L 497.506,2489.59 L 496.22,2476.54 z " style="fill-opacity:1.000000;fill:rgb(84,248,27);stroke:rgb(0,0,0);stroke-width:2"/></g>
<g fill-rule="evenodd"><path d="M 496.22,2276.54 L 497.506,2263.48 L 501.315,2250.92 L 507.5,2239.35 L 515.824,2229.21 L 525.966,2220.89 L 537.537,2214.7 L 550.092,2210.89 L 563.15,2209.61 L 576.207,2210.89 L 588.762,2214.7 L 600.333,2220.89 L 610.476,2229.21 L 618.799,2239.35 L 624.984,2250.92 L 628.793,2263.48 L 630.079,2276.54 L 628.793,2289.59 L 624.984,2302.15 L 618.799,2313.72 L 610.476,2323.86 L 600.333,2332.18 L 588.762,2338.37 L 576.207,2342.18 L 563.15,2343.46 L 550.092,2342.18 L 537.537,2338.37 L 525.966,2332.18 L 515.824,2323.86 L 507.5,2313.72 L 501.315,2302.15 L 497.506,2289.59 L 496.22,2276.54 z " style="fill-opacity:1.000000;fill:rgb(232,231,141);stroke:rgb(0,0,0);stroke-width:2"/></g>
<g fill-rule="evenodd"><path d="M 496.22,2076.54 L 497.506,2063.48 L 501.315,2050.92 L 507.5,2039.35 L 515.824,2029.21 L 525.966,2020.89 L 537.537,2014.7 L 550.092,2010.89 L 563.15,2009.61 L 576.207,2010.89 L 588.762,2014.7 L 600.333,2020.89 L 610.476,2029.21 L 618.799,2039.35 L 624.984,2050.92 L 628.793,2063.48 L 630.079,2076.54 L 628.793,2089.59 L 624.984,2102.15 L 618.799,2113.72 L 610.476,2123.86 L 600.333,2132.18 L 588.762,2138.37 L 576.207,2142.18 L 563.15,2143.46 L 550.092,2142.18 L 537.537,2138.37 L 525.966,2132.18 L 515.824,2123.86 L 507.5,2113.72 L 501.315,2102.15 L 497.506,2089.59 L 496.22,2076.54 z " style="fill-opacity:1.000000;fill:rgb(118,90,46);stroke:rgb(0,0,0);stroke-width:2"/></g>
<g fill-rule="evenodd"><path d="M 496.22,1876.54 L 497.506,1863.48 L 501.315,1850.92 L 507.5,1839.35 L 515.824,1829.21 L 525.966,1820.89 L 537.537,1814.7 L 550.092,1810.89 L 563.15,1809.61 L 576.207,1810.89 L 588.762,1814.7 L 600.333,1820.89 L 610.476,1829.21 L 618.799,1839.35 L 624.984,1850.92 L 628.793,1863.48 L 630.079,1876.54 L 628.793,1889.59 L 624.984,1902.15 L 618.799,1913.72 L 610.476,1923.86 L 600.333,1932.18 L 588.762,1938.37 L 576.207,1942.18 L 563.15,1943.46 L 550.092,1942.18 L 537.537,1938.37 L 525.966,1932.18 L 515.824,1923.86 L 507.5,1913.72 L 501.315,1902.15 L 497.506,1889.59 L 496.22,1876.54 z " style="fill-opacity:1.000000;fill:rgb(99,51,159);stroke:rgb(0,0,0);stroke-width:2"/></g>
<g fill-rule="evenodd"><path d="M 496.22,1676.54 L 497.506,1663.48 L 501.315,1650.92 L 507.5,1639.35 L 515.824,1629.21 L 525.966,1620.89 L 537.537,1614.7 L 550.092,1610.89 L 563.15,1609.61 L 576.207,1610.89 L 588.762,1614.7 L 600.333,1620.89 L 610.476,1629.21 L 618.799,1639.35 L 624.984,1650.92 L 628.793,1663.48 L 630.079,1676.54 L 628.793,1689.59 L 624.984,1702.15 L 618.799,1713.72 L 610.476,1723.86 L 600.333,1732.18 L 588.762,1738.37 L 576.207,1742.18 L 563.15,1743.46 L 550.092,1742.18 L 537.537,1738.37 L 525.966,1732.18 L 515.824,1723.86 L 507.5,1713.72 L 501.315,1702.15 L 497.506,1689.59 L 496.22,1676.54 z " style="fill-opacity:1.000000;fill:rgb(201,154,102);stroke:rgb(0,0,0);stroke-width:2"/></g>
<g fill-rule="evenodd"><path d="M 496.22,1476.54 L 497.506,1463.48 L 501.315,1450.92 L 507.5,1439.35 L 515.824,1429.21 L 525.966,1420.89 L 537.537,1414.7 L 550.092,1410.89 L 563.15,1409.61 L 576.207,1410.89 L 588.762,1414.7 L 600.333,1420.89 L 610.476,1429.21 L 618.799,1439.35 L 624.984,1450.92 L 628.793,1463.48 L 630.079,1476.54 L 628.793,1489.59 L 624.984,1502.15 L 618.799,1513.72 L 610.476,1523.86 L 600.333,1532.18 L 588.762,1538.37 L 576.207,1542.18 L 563.15,1543.46 L 550.092,1542.18 L 537.537,1538.37 L 525.966,1532.18 L 515.824,1523.86 L 507.5,1513.72 L 501.315,1502.15 L 497.506,1489.59 L 496.22,1476.54 z " style="fill-opacity:1.000000;fill:rgb(50,13,183);stroke:rgb(0,0,0);stroke-width:2"/></g>
<g fill-rule="evenodd"><path d="M 496.22,1276.54 L 497.506,1263.48 L 501.315,1250.92 L 507.5,1239.35 L 515.824,1229.21 L 525.966,1220.89 L 537.537,1214.7 L 550.092,1210.89 L 563.15,1209.61 L 576.207,1210.89 L 588.762,1214.7 L 600.333,1220.89 L 610.476,1229.21 L 618.799,1239.35 L 624.984,1250.92 L 628.793,1263.48 L 630.079,1276.54 L 628.793,1289.59 L 624.984,1302.15 L 618.799,1313.72 L 610.476,1323.86 L 600.333,1332.18 L 588.762,1338.37 L 576.207,1342.18 L 563.15,1343.46 L 550.092,1342.18 L 537.537,1338.37 L 525.966,1332.18 L 515.824,1323.86 L 507.5,1313.72 L 501.315,1302.15 L 497.506,1289.59 L 496.22,1276.54 z " style="fill-opacity:1.000000;fill:rgb(49,88,163);stroke:rgb(0,0,0);stroke-width:2"/></g>
<g fill-rule="evenodd"><path d="M 496.22,1076.54 L 497.506,1063.48 L 501.315,1050.92 L 507.5,1039.35 L 515.824,1029.21 L 525.966,1020.89 L 537.537,1014.7 L 550.092,1010.89 L 563.15,1009.61 L 576.207,1010.89 L 588.762,1014.7 L 600.333,1020.89 L 610.476,1029.21 L 618.799,1039.35 L 624.984,1050.92 L 628.793,1063.48 L 630.079,1076.54 L 628.793,1089.59 L 624.984,1102.15 L 618.799,1113.72 L 610.476,1123.86 L 600.333,1132.18 L 588.762,1138.37 L 576.207,1142.18 L 563.15,1143.46 L 550.092,1142.18 L 537.537,1138.37 L 525.966,1132.18 L 515.824,1123.86 L 507.5,1113.72 L 501.315,1102.15 L 497.506,1089.59 L 496.22,1076.54 z " style="fill-opacity:1.000000;fill:rgb(90,37,93);stroke:rgb(0,0,0);stroke-width:2"/></g>
<g fill-rule="evenodd"><path d="M 496.22,876.535 L 497.506,863.478 L 501.315,850.923 L 507.5,839.352 L 515.824,829.209 L 525.966,820.886 L 537.537,814.701 L 550.092,810.892 L 563.15,809.606 L 576.207,810.892 L 588.762,814.701 L 600.333,820.886 L 610.476,829.209 L 618.799,839.352 L 624.984,850.923 L 627.976,860.786 L 686.554,860.787 L 893.855,653.485 L 897.842,650.589 L 900.125,649.644 L 904.991,648.873 L 5497,648.873 L 5499.46,649.067 L 5504.15,650.589 L 5508.13,653.485 L 5758.23,903.579 L 5760.19,905.966 L 5761.64,908.688 L 5762.54,911.643 L 5762.84,914.715 L 5762.84,956.849 L 5768.97,960.123 L 5774.93,965.019 L 5779.83,970.985 L 5783.47,977.792 L 5785.71,985.178 L 5786.46,992.858 L 5785.71,1000.54 L 5783.47,1007.92 L 5779.83,1014.73 L 5774.93,1020.7 L 5768.97,1025.59 L 5762.16,1029.23 L 5754.78,1031.47 L 5747.09,1032.23 L 5739.41,1031.47 L 5732.03,1029.23 L 5725.22,1025.59 L 5719.26,1020.7 L 5714.36,1014.73 L 5710.72,1007.92 L 5708.48,1000.54 L 5707.72,992.858 L 5708.48,985.178 L 5710.72,977.792 L 5714.36,970.985 L 5719.26,965.019 L 5725.22,960.123 L 5731.34,956.85 L 5731.34,921.238 L 5490.48,680.369 L 911.514,680.369 L 704.213,887.671 L 701.826,889.629 L 699.103,891.084 L 696.149,891.98 L 693.077,892.283 L 627.977,892.283 L 624.984,902.148 L 618.799,913.719 L 610.476,923.861 L 600.333,932.185 L 588.762,938.37 L 576.207,942.179 L 563.15,943.465 L 550.092,942.179 L 537.537,938.37 L 525.966,932.185 L 515.824,923.861 L 507.5,913.719 L 501.315,902.148 L 497.506,889.593 L 496.22,876.535 z " style="fill-opacity:1.000000;fill:rgb(5,23,88);stroke:rgb(0,0,0);stroke-width:2"/></g>
<g fill-rule="evenodd"><path d="M 1122.2,2613.54 L 1122.2,2487.56 L 1248.19,2487.56 L 1248.19,2613.54 L 1122.2,2613.54 z " style="fill-opacity:1.000000;fill:rgb(233,94,212);stroke:rgb(0,0,0);stroke-width:2"/></g>
<g fill-rule="evenodd"><path d="M 1155.43,1762.36 L 1156.19,1754.68 L 1158.43,1747.3 L 1162.07,1740.49 L 1166.96,1734.52 L 1172.93,1729.63 L 1179.74,1725.99 L 1187.12,1723.75 L 1194.8,1722.99 L 1202.48,1723.75 L 1209.87,1725.99 L 1216.68,1729.63 L 1222.64,1734.52 L 1227.54,1740.49 L 1231.18,1747.3 L 1233.42,1754.68 L 1234.17,1762.36 L 1233.42,1770.04 L 1231.18,1777.43 L 1227.54,1784.24 L 1222.64,1790.2 L 1216.68,1795.1 L 1210.55,1798.37 L 1210.55,2027.64 L 1596.33,2413.42 L 1598.29,2415.81 L 1599.74,2418.53 L 1600.64,2421.49 L 1600.94,2424.56 L 1600.94,2489.82 L 1609.3,2492.35 L 1620.19,2498.18 L 1629.74,2506.01 L 1637.57,2515.55 L 1643.39,2526.45 L 1646.98,2538.26 L 1648.19,2550.55 L 1646.98,2562.84 L 1643.39,2574.66 L 1637.57,2585.55 L 1629.74,2595.09 L 1620.19,2602.93 L 1609.3,2608.75 L 1597.49,2612.33 L 1585.2,2613.54 L 1572.91,2612.33 L 1561.09,2608.75 L 1550.2,2602.93 L 1540.65,2595.09 L 1532.82,2585.55 L 1527,2574.66 L 1523.42,2562.84 L 1522.2,2550.55 L 1523.42,2538.26 L 1527,2526.45 L 1532.82,2515.55 L 1540.65,2506.01 L 1550.2,2498.18 L 1561.09,2492.35 L 1569.45,2489.82 L 1569.45,2431.08 L 1183.67,2045.3 L 1181.71,2042.91 L 1180.25,2040.19 L 1179.36,2037.24 L 1179.05,2034.16 L 1179.06,1798.37 L 1172.93,1795.1 L 1166.96,1790.2 L 1162.07,1784.24 L 1158.43,1777.43 L 1156.19,1770.04 L 1155.43,1762.36 z " style="fill-opacity:1.000000;fill:rgb(171,178,205);stroke:rgb(0,0,0);stroke-width:2"/></g>
<g fill-rule="evenodd"><path d="M 1322.2,2550.55 L 1323.42,2538.26 L 1327,2526.45 L 1332.82,2515.55 L 1340.65,2506.01 L 1350.2,2498.18 L 1361.09,2492.35 L 1372.91,2488.77 L 1385.2,2487.56 L 1397.49,2488.77 L 1409.3,2492.35 L 1420.19,2498.18 L 1429.74,2506.01 L 1437.57,2515.55 L 1443.39,2526.45 L 1446.98,2538.26 L 1448.19,2550.55 L 1446.98,2562.84 L 1443.39,2574.66 L 1437.57,2585.55 L 1429.74,2595.09 L 1420.19,2602.93 L 1409.3,2608.75 L 1397.49,2612.33 L 1385.2,2613.54 L 1372.91,2612.33 L 1361.09,2608.75 L 1350.2,2602.93 L 1340.65,2595.09 L 1332.82,2585.55 L 1327,2574.66 L 1323.42,2562.84 L 1322.2,2550.55 z " style="fill-opacity:1.000000;fill:rgb(198,155,180);stroke:rgb(0,0,0);stroke-width:2"/></g>
<g fill-rule="evenodd"><path d="M 1322.2,1350.55 L 1323.42,1338.26 L 1327,1326.45 L 1332.82,1315.55 L 1340.65,1306.01 L 1350.2,1298.18 L 1361.09,1292.35 L 1372.91,1288.77 L 1385.2,1287.56 L 1397.49,1288.77 L 1409.3,1292.35 L 1420.19,1298.18 L 1429.74,1306.01 L 1437.57,1315.55 L 1443.39,1326.45 L 1446.98,1338.26 L 1448.19,1350.55 L 1446.98,1362.84 L 1443.39,1374.66 L 1437.57,1385.55 L 1429.74,1395.09 L 1420.19,1402.93 L 1409.3,1408.75 L 1397.49,1412.33 L 1385.2,1413.54 L 1372.91,1412.33 L 1361.09,1408.75 L 1350.2,1402.93 L 1340.65,1395.09 L 1332.82,1385.55 L 1327,1374.66 L 1323.42,1362.84 L 1322.2,1350.55 z " style="fill-opacity:1.000000;fill:rgb(84,17,14);stroke:rgb(0,0,0);stroke-width:2"/></g>
<g fill-rule="evenodd"><path d="M 1382.97,2063.37 L 1383.72,2055.69 L 1385.97,2048.3 L 1389.6,2041.5 L 1394.5,2035.53 L 1400.47,2030.64 L 1407.27,2027 L 1414.66,2024.76 L 1422.34,2024 L 1430.02,2024.76 L 1437.4,2027 L 1444.21,2030.64 L 1450.18,2035.53 L 1455.07,2041.5 L 1458.71,2048.3 L 1460.95,2055.69 L 1461.71,2063.37 L 1460.95,2071.05 L 1459.32,2076.42 L 1796.33,2413.42 L 1798.29,2415.81 L 1799.74,2418.53 L 1800.64,2421.49 L 1800.94,2424.56 L 1800.94,2489.82 L 1809.3,2492.35 L 1820.19,2498.18 L 1829.74,2506.01 L 1837.57,2515.55 L 1843.39,2526.45 L 1846.98,2538.26 L 1848.19,2550.55 L 1846.98,2562.84 L 1843.39,2574.66 L 1837.57,2585.55 L 1829.74,2595.09 L 1820.19,2602.93 L 1809.3,2608.75 L 1797.49,2612.33 L 1785.2,2613.54 L 1772.91,2612.33 L 1761.09,2608.75 L 1750.2,2602.93 L 1740.65,2595.09 L 1732.82,2585.55 L 1727,2574.66 L 1723.42,2562.84 L 1722.2,2550.55 L 1723.42,2538.26 L 1727,2526.45 L 1732.82,2515.55 L 1740.65,2506.01 L 1750.2,2498.18 L 1761.09,2492.35 L 1769.45,2489.82 L 1769.45,2431.08 L 1437.86,2099.5 L 1430.02,2101.98 L 1422.34,2102.74 L 1414.66,2101.98 L 1407.27,2099.74 L 1400.47,2096.11 L 1394.5,2091.21 L 1389.6,2085.24 L 1385.97,2078.44 L 1383.72,2071.05 L 1382.97,2063.37 z " style="fill-opacity:1.000000;fill:rgb(130,116,65);stroke:rgb(0,0,0);stroke-width:2"/></g>
<g fill-rule="evenodd"><path d="M 1522.2,1350.55 L 1523.42,1338.26 L 1527,1326.45 L 1532.82,1315.55 L 1540.65,1306.01 L 1550.2,1298.18 L 1561.09,1292.35 L 1572.91,1288.77 L 1585.2,1287.56 L 1597.49,1288.77 L 1609.3,1292.35 L 1620.19,1298.18 L 1629.74,1306.01 L 1637.57,1315.55 L 1643.39,1326.45 L 1646.98,1338.26 L 1648.19,1350.55 L 1646.98,1362.84 L 1643.39,1374.66 L 1637.57,1385.55 L 1629.74,1395.09 L 1620.19,1402.93 L 1609.3,1408.75 L 1597.49,1412.33 L 1585.2,1413.54 L 1572.91,1412.33 L 1561.09,1408.75 L 1550.2,1402.93 L 1540.65,1395.09 L 1532.82,1385.55 L 1527,1374.66 L 1523.42,1362.84 L 1522.2,1350.55 z " style="fill-opacity:1.000000;fill:rgb(33,61,220);stroke:rgb(0,0,0);stroke-width:2"/></g>
<g fill-rule="evenodd"><path d="M 1662.28,2175.45 L 1663.03,2167.77 L 1665.27,2160.38 L 1668.91,2153.58 L 1673.81,2147.61 L 1679.77,2142.71 L 1686.58,2139.08 L 1693.96,2136.84 L 1701.65,2136.08 L 1709.33,2136.84 L 1716.71,2139.08 L 1723.52,2142.71 L 1729.48,2147.61 L 1734.38,2153.58 L 1737.65,2159.7 L 2353.78,2159.7 L 3131.12,1382.36 L 3127,1374.66 L 3123.42,1362.84 L 3122.2,1350.55 L 3123.42,1338.26 L 3127,1326.45 L 3132.82,1315.55 L 3140.65,1306.01 L 3150.2,1298.18 L 3161.09,1292.35 L 3172.91,1288.77 L 3185.2,1287.56 L 3197.49,1288.77 L 3209.3,1292.35 L 3220.19,1298.18 L 3229.74,1306.01 L 3237.57,1315.55 L 3243.39,1326.45 L 3246.98,1338.26 L 3248.19,1350.55 L 3246.98,1362.84 L 3243.39,1374.66 L 3237.57,1385.55 L 3229.74,1395.09 L 3220.19,1402.93 L 3209.3,1408.75 L 3197.49,1412.33 L 3185.2,1413.54 L 3172.91,1412.33 L 3161.09,1408.75 L 3153.39,1404.63 L 2371.43,2186.58 L 2369.05,2188.54 L 2366.33,2190 L 2363.37,2190.89 L 2360.3,2191.2 L 1737.66,2191.19 L 1734.38,2197.32 L 1729.48,2203.29 L 1723.52,2208.18 L 1716.71,2211.82 L 1709.33,2214.06 L 1701.65,2214.82 L 1693.96,2214.06 L 1686.58,2211.82 L 1679.77,2208.18 L 1673.81,2203.29 L 1668.91,2197.32 L 1665.27,2190.52 L 1663.03,2183.13 L 1662.28,2175.45 z " style="fill-opacity:1.000000;fill:rgb(135,112,233);stroke:rgb(0,0,0);stroke-width:2"/></g>
<g fill-rule="evenodd"><path d="M 1845.04,1035.59 L 1846.25,1023.3 L 1849.83,1011.48 L 1855.66,1000.59 L 1863.49,991.048 L 1873.03,983.215 L 1883.93,977.393 L 1895.74,973.809 L 1908.03,972.598 L 1920.32,973.809 L 1932.14,977.393 L 1943.03,983.215 L 1952.57,991.048 L 1960.41,1000.59 L 1966.23,1011.48 L 1969.81,1023.3 L 1971.02,1035.59 L 1969.81,1047.88 L 1966.23,1059.7 L 1960.41,1070.59 L 1952.57,1080.13 L 1943.03,1087.97 L 1932.14,1093.79 L 1920.32,1097.37 L 1908.03,1098.58 L 1895.74,1097.37 L 1883.93,1093.79 L 1873.03,1087.97 L 1863.49,1080.13 L 1855.66,1070.59 L 1849.83,1059.7 L 1846.25,1047.88 L 1845.04,1035.59 z " style="fill-opacity:1.000000;fill:rgb(62,161,65);stroke:rgb(0,0,0);stroke-width:2"/></g>
<g fill-rule="evenodd"><path d="M 1922.2,2550.55 L 1923.42,2538.26 L 1927,2526.45 L 1932.82,2515.55 L 1940.65,2506.01 L 1950.2,2498.18 L 1961.09,2492.35 L 1972.91,2488.77 L 1985.2,2487.56 L 1997.49,2488.77 L 2009.3,2492.35 L 2020.19,2498.18 L 2029.74,2506.01 L 2037.57,2515.55 L 2043.39,2526.45 L 2046.98,2538.26 L 2048.19,2550.55 L 2046.98,2562.84 L 2043.39,2574.66 L 2037.57,2585.55 L 2029.74,2595.09 L 2020.19,2602.93 L 2009.3,2608.75 L 1997.49,2612.33 L 1985.2,2613.54 L 1972.91,2612.33 L 1961.09,2608.75 L 1950.2,2602.93 L 1940.65,2595.09 L 1932.82,2585.55 L 1927,2574.66 L 1923.42,2562.84 L 1922.2,2550.55 z " style="fill-opacity:1.000000;fill:rgb(225,252,103);stroke:rgb(0,0,0);stroke-width:2"/></g>
<g fill-rule="evenodd"><path d="M 1922.2,1350.55 L 1923.42,1338.26 L 1927,1326.45 L 1932.82,1315.55 L 1940.65,1306.01 L 1950.2,1298.18 L 1961.09,1292.35 L 1972.91,1288.77 L 1985.2,1287.56 L 1997.49,1288.77 L 2009.3,1292.35 L 2020.19,1298.18 L 2029.74,1306.01 L 2037.57,1315.55 L 2043.39,1326.45 L 2046.98,1338.26 L 2048.19,1350.55 L 2046.98,1362.84 L 2043.39,1374.66 L 2037.57,1385.55 L 2029.74,1395.09 L 2020.19,1402.93 L 2009.3,1408.75 L 1997.49,1412.33 L 1985.2,1413.54 L 1972.91,1412.33 L 1961.09,1408.75 L 1950.2,1402.93 L 1940.65,1395.09 L 1932.82,1385.55 L 1927,1374.66 L 1923.42,1362.84 L 1922.2,1350.55 z " style="fill-opacity:1.000000;fill:rgb(62,1,126);stroke:rgb(0,0,0);stroke-width:2"/></g>
<g fill-rule="evenodd"><path d="M 2122.2,2550.55 L 2123.42,2538.26 L 2127,2526.45 L 2132.82,2515.55 L 2140.65,2506.01 L 2150.2,2498.18 L 2161.09,2492.35 L 2172.91,2488.77 L 2185.2,2487.56 L 2197.49,2488.77 L 2209.3,2492.35 L 2220.19,2498.18 L 2229.74,2506.01 L 2237.57,2515.55 L 2243.39,2526.45 L 2246.98,2538.26 L 2248.19,2550.55 L 2246.98,2562.84 L 2243.39,2574.66 L 2237.57,2585.55 L 2229.74,2595.09 L 2220.19,2602.93 L 2209.3,2608.75 L 2197.49,2612.33 L 2185.2,2613.54 L 2172.91,2612.33 L 2161.09,2608.75 L 2150.2,2602.93 L 2140.65,2595.09 L 2132.82,2585.55 L 2127,2574.66 L 2123.42,2562.84 L 2122.2,2550.55 z " style="fill-opacity:1.000000;fill:rgb(151,234,220);stroke:rgb(0,0,0);stroke-width:2"/></g>
<g fill-rule="evenodd"><path d="M 2122.2,1350.55 L 2123.42,1338.26 L 2127,1326.45 L 2132.82,1315.55 L 2140.65,1306.01 L 2150.2,1298.18 L 2161.09,1292.35 L 2172.91,1288.77 L 2185.2,1287.56 L 2197.49,1288.77 L 2209.3,1292.35 L 2220.19,1298.18 L 2229.74,1306.01 L 2237.57,1315.55 L 2243.39,1326.45 L 2246.98,1338.26 L 2248.19,1350.55 L 2246.98,1362.84 L 2243.39,1374.66 L 2237.57,1385.55 L 2229.74,1395.09 L 2220.19,1402.93 L 2209.3,1408.75 L 2197.49,1412.33 L 2185.2,1413.54 L 2172.91,1412.33 L 2161.09,1408.75 L 2150.2,1402.93 L 2140.65,1395.09 L 2132.82,1385.55 L 2127,1374.66 L 2123.42,1362.84 L 2122.2,1350.55 z " style="fill-opacity:1.000000;fill:rgb(107,150,143);stroke:rgb(0,0,0);stroke-width:2"/></g>
<g fill-rule="evenodd"><path d="M 2322.2,2550.55 L 2323.42,2538.26 L 2327,2526.45 L 2332.82,2515.55 L 2340.65,2506.01 L 2350.2,2498.18 L 2361.09,2492.35 L 2372.91,2488.77 L 2385.2,2487.56 L 2397.49,2488.77 L 2409.3,2492.35 L 2420.19,2498.18 L 2429.74,2506.01 L 2437.57,2515.55 L 2443.39,2526.45 L 2446.98,2538.26 L 2448.19,2550.55 L 2446.98,2562.84 L 2443.39,2574.66 L 2437.57,2585.55 L 2429.74,2595.09 L 2420.19,2602.93 L 2409.3,2608.75 L 2397.49,2612.33 L 2385.2,2613.54 L 2372.91,2612.33 L 2361.09,2608.75 L 2350.2,2602.93 L 2340.65,2595.09 L 2332.82,2585.55 L 2327,2574.66 L 2323.42,2562.84 L 2322.2,2550.55 z " style="fill-opacity:1.000000;fill:rgb(56,92,42);stroke:rgb(0,0,0);stroke-width:2"/></g>
<g fill-rule="evenodd"><path d="M 2322.2,1350.55 L 2323.42,1338.26 L 2327,1326.45 L 2332.82,1315.55 L 2340.65,1306.01 L 2350.2,1298.18 L 2361.09,1292.35 L 2372.91,1288.77 L 2385.2,1287.56 L 2397.49,1288.77 L 2409.3,1292.35 L 2420.19,1298.18 L 2429.74,1306.01 L 2437.57,1315.55 L 2443.39,1326.45 L 2446.98,1338.26 L 2448.19,1350.55 L 2446.98,1362.84 L 2443.39,1374.66 L 2437.57,1385.55 L 2429.74,1395.09 L 2420.19,1402.93 L 2409.3,1408.75 L 2397.49,1412.33 L 2385.2,1413.54 L 2372.91,1412.33 L 2361.09,1408.75 L 2350.2,1402.93 L 2340.65,1395.09 L 2332.82,1385.55 L 2327,1374.66 L 2323.42,1362.84 L 2322.2,1350.55 z " style="fill-opacity:1.000000;fill:rgb(236,176,59);stroke:rgb(0,0,0);stroke-width:2"/></g>
<g fill-rule="evenodd"><path d="M 2522.2,2550.55 L 2523.42,2538.26 L 2527,2526.45 L 2532.82,2515.55 L 2540.65,2506.01 L 2550.2,2498.18 L 2561.09,2492.35 L 2572.91,2488.77 L 2585.2,2487.56 L 2597.49,2488.77 L 2609.3,2492.35 L 2620.19,2498.18 L 2629.74,2506.01 L 2637.57,2515.55 L 2643.39,2526.45 L 2646.98,2538.26 L 2648.19,2550.55 L 2646.98,2562.84 L 2643.39,2574.66 L 2637.57,2585.55 L 2629.74,2595.09 L 2620.19,2602.93 L 2609.3,2608.75 L 2597.49,2612.33 L 2585.2,2613.54 L 2572.91,2612.33 L 2561.09,2608.75 L 2550.2,2602.93 L 2540.65,2595.09 L 2532.82,2585.55 L 2527,2574.66 L 2523.42,2562.84 L 2522.2,2550.55 z " style="fill-opacity:1.000000;fill:rgb(251,50,175);stroke:rgb(0,0,0);stroke-width:2"/></g>
<g fill-rule="evenodd"><path d="M 2522.2,1350.55 L 2523.42,1338.26 L 2527,1326.45 L 2532.82,1315.55 L 2540.65,1306.01 L 2550.2,1298.18 L 2561.09,1292.35 L 2572.91,1288.77 L 2585.2,1287.56 L 2597.49,1288.77 L 2609.3,1292.35 L 2620.19,1298.18 L 2629.74,1306.01 L 2637.57,1315.55 L 2643.39,1326.45 L 2646.98,1338.26 L 2648.19,1350.55 L 2646.98,1362.84 L 2643.39,1374.66 L 2637.57,1385.55 L 2629.74,1395.09 L 2620.19,1402.93 L 2609.3,1408.75 L 2597.49,1412.33 L 2585.2,1413.54 L 2572.91,1412.33 L 2561.09,1408.75 L 2550.2,1402.93 L 2540.65,1395.09 L 2532.82,1385.55 L 2527,1374.66 L 2523.42,1362.84 L 2522.2,1350.55 z " style="fill-opacity:1.000000;fill:rgb(60,84,236);stroke:rgb(0,0,0);stroke-width:2"/></g>
<g fill-rule="evenodd"><path d="M 2543.46,3543.46 L 2543.46,3409.61 L 2655.05,3409.61 L 3052.44,3012.22 L 3056.42,3009.32 L 3061.11,3007.8 L 3105.87,3007.6 L 3531.12,2582.36 L 3527,2574.66 L 3523.42,2562.84 L 3522.2,2550.55 L 3523.42,2538.26 L 3527,2526.45 L 3532.82,2515.55 L 3540.65,2506.01 L 3550.2,2498.18 L 3561.09,2492.35 L 3572.91,2488.77 L 3585.2,2487.56 L 3597.49,2488.77 L 3609.3,2492.35 L 3620.19,2498.18 L 3629.74,2506.01 L 3637.57,2515.55 L 3643.39,2526.45 L 3646.98,2538.26 L 3648.19,2550.55 L 3646.98,2562.84 L 3643.39,2574.66 L 3637.57,2585.55 L 3629.74,2595.09 L 3620.19,2602.93 L 3609.3,2608.75 L 3597.49,2612.33 L 3585.2,2613.54 L 3572.91,2612.33 L 3561.09,2608.75 L 3553.39,2604.63 L 3123.53,3034.49 L 3121.14,3036.45 L 3118.42,3037.9 L 3115.47,3038.8 L 3112.39,3039.1 L 3070.1,3039.1 L 2677.32,3431.88 L 2677.32,3543.46 L 2543.46,3543.46 z " style="fill-opacity:1.000000;fill:rgb(24,219,92);stroke:rgb(0,0,0);stroke-width:2"/></g>
<g fill-rule="evenodd"><path d="M 2722.2,2550.55 L 2723.42,2538.26 L 2727,2526.45 L 2732.82,2515.55 L 2740.65,2506.01 L 2750.2,2498.18 L 2761.09,2492.35 L 2772.91,2488.77 L 2785.2,2487.56 L 2797.49,2488.77 L 2809.3,2492.35 L 2820.19,2498.18 L 2829.74,2506.01 L 2837.57,2515.55 L 2843.39,2526.45 L 2846.98,2538.26 L 2848.19,2550.55 L 2846.98,2562.84 L 2843.39,2574.66 L 2837.57,2585.55 L 2829.74,2595.09 L 2820.19,2602.93 L 2809.3,2608.75 L 2797.49,2612.33 L 2785.2,2613.54 L 2772.91,2612.33 L 2761.09,2608.75 L 2750.2,2602.93 L 2740.65,2595.09 L 2732.82,2585.55 L 2727,2574.66 L 2723.42,2562.84 L 2722.2,2550.55 z " style="fill-opacity:1.000000;fill:rgb(2,26,254);stroke:rgb(0,0,0);stroke-width:2"/></g>
<g fill-rule="evenodd"><path d="M 2743.46,3476.54 L 2744.75,3463.48 L 2748.56,3450.92 L 2754.74,3439.35 L 2763.07,3429.21 L 2773.21,3420.89 L 2784.78,3414.7 L 2797.34,3410.89 L 2810.39,3409.61 L 2823.45,3410.89 L 2836.01,3414.7 L 2845.1,3419.56 L 3252.44,3012.22 L 3256.42,3009.32 L 3261.11,3007.8 L 3305.87,3007.6 L 3731.12,2582.36 L 3727,2574.66 L 3723.42,2562.84 L 3722.2,2550.55 L 3723.42,2538.26 L 3727,2526.45 L 3732.82,2515.55 L 3740.65,2506.01 L 3750.2,2498.18 L 3761.09,2492.35 L 3772.91,2488.77 L 3785.2,2487.56 L 3797.49,2488.77 L 3809.3,2492.35 L 3820.19,2498.18 L 3829.74,2506.01 L 3837.57,2515.55 L 3843.39,2526.45 L 3846.98,2538.26 L 3848.19,2550.55 L 3846.98,2562.84 L 3843.39,2574.66 L 3837.57,2585.55 L 3829.74,2595.09 L 3820.19,2602.93 L 3809.3,2608.75 L 3797.49,2612.33 L 3785.2,2613.54 L 3772.91,2612.33 L 3761.09,2608.75 L 3753.39,2604.63 L 3323.53,3034.49 L 3321.14,3036.45 L 3318.42,3037.9 L 3315.47,3038.8 L 3312.39,3039.1 L 3270.1,3039.1 L 2867.37,3441.83 L 2872.23,3450.92 L 2876.04,3463.48 L 2877.32,3476.54 L 2876.04,3489.59 L 2872.23,3502.15 L 2866.04,3513.72 L 2857.72,3523.86 L 2847.58,3532.18 L 2836.01,3538.37 L 2823.45,3542.18 L 2810.39,3543.46 L 2797.34,3542.18 L 2784.78,3538.37 L 2773.21,3532.18 L 2763.07,3523.86 L 2754.74,3513.72 L 2748.56,3502.15 L 2744.75,3489.59 L 2743.46,3476.54 z " style="fill-opacity:1.000000;fill:rgb(67,251,250);stroke:rgb(0,0,0);stroke-width:2"/></g>
<g fill-rule="evenodd"><path d="M 2922.2,2550.55 L 2923.42,2538.26 L 2927,2526.45 L 2932.82,2515.55 L 2940.65,2506.01 L 2950.2,2498.18 L 2961.09,2492.35 L 2972.91,2488.77 L 2985.2,2487.56 L 2997.49,2488.77 L 3009.3,2492.35 L 3020.19,2498.18 L 3029.74,2506.01 L 3037.57,2515.55 L 3043.39,2526.45 L 3046.98,2538.26 L 3048.19,2550.55 L 3046.98,2562.84 L 3043.39,2574.66 L 3037.57,2585.55 L 3029.74,2595.09 L 3020.19,2602.93 L 3009.3,2608.75 L 2997.49,2612.33 L 2985.2,2613.54 L 2972.91,2612.33 L 2961.09,2608.75 L 2950.2,2602.93 L 2940.65,2595.09 L 2932.82,2585.55 L 2927,2574.66 L 2923.42,2562.84 L 2922.2,2550.55 z " style="fill-opacity:1.000000;fill:rgb(170,58,251);stroke:rgb(0,0,0);stroke-width:2"/></g>
<g fill-rule="evenodd"><path d="M 2922.2,1350.55 L 2923.42,1338.26 L 2927,1326.45 L 2932.82,1315.55 L 2940.65,1306.01 L 2950.2,1298.18 L 2961.09,1292.35 L 2972.91,1288.77 L 2985.2,1287.56 L 2997.49,1288.77 L 3009.3,1292.35 L 3017,1296.47 L 3497.41,816.067 L 3499.79,814.109 L 3502.52,812.654 L 3505.47,811.758 L 3508.54,811.455 L 5436.66,811.455 L 5439.12,811.649 L 5443.81,813.171 L 5447.8,816.068 L 5572.5,940.778 L 5574.46,943.164 L 5575.92,945.887 L 5576.81,948.841 L 5577.12,951.913 L 5577.12,1056.75 L 5685.74,1165.38 L 5687.7,1167.76 L 5689.15,1170.48 L 5690.05,1173.44 L 5690.35,1176.51 L 5690.35,2025.58 L 5802.61,2137.84 L 5804.57,2140.23 L 5806.03,2142.95 L 5806.92,2145.9 L 5807.23,2148.97 L 5807.23,2709.61 L 5943.55,2845.93 L 5950.19,2843.91 L 5957.87,2843.16 L 5965.55,2843.91 L 5972.94,2846.15 L 5979.75,2849.79 L 5985.71,2854.69 L 5990.61,2860.65 L 5994.25,2867.46 L 5996.49,2874.85 L 5997.24,2882.53 L 5996.49,2890.21 L 5994.25,2897.59 L 5990.61,2904.4 L 5985.71,2910.37 L 5979.75,2915.26 L 5972.94,2918.9 L 5965.55,2921.14 L 5957.87,2921.9 L 5950.19,2921.14 L 5942.81,2918.9 L 5936,2915.26 L 5930.04,2910.37 L 5925.14,2904.4 L 5921.5,2897.59 L 5919.26,2890.21 L 5918.5,2882.53 L 5919.26,2874.85 L 5921.28,2868.2 L 5780.34,2727.27 L 5778.38,2724.88 L 5776.93,2722.16 L 5776.03,2719.21 L 5775.73,2716.13 L 5775.73,2155.5 L 5663.47,2043.24 L 5661.51,2040.85 L 5660.06,2038.13 L 5659.16,2035.17 L 5658.86,2032.1 L 5658.86,1183.03 L 5550.23,1074.41 L 5548.27,1072.02 L 5546.82,1069.3 L 5545.92,1066.35 L 5545.62,1063.27 L 5545.62,958.436 L 5430.14,842.951 L 3515.07,842.951 L 3039.28,1318.74 L 3043.39,1326.45 L 3046.98,1338.26 L 3048.19,1350.55 L 3046.98,1362.84 L 3043.39,1374.66 L 3037.57,1385.55 L 3029.74,1395.09 L 3020.19,1402.93 L 3009.3,1408.75 L 2997.49,1412.33 L 2985.2,1413.54 L 2972.91,1412.33 L 2961.09,1408.75 L 2950.2,1402.93 L 2940.65,1395.09 L 2932.82,1385.55 L 2927,1374.66 L 2923.42,1362.84 L 2922.2,1350.55 z " style="fill-opacity:1.000000;fill:rgb(41,209,230);stroke:rgb(0,0,0);stroke-width:2"/></g>
<g fill-rule="evenodd"><path d="M 2943.46,3476.54 L 2944.75,3463.48 L 2948.56,3450.92 L 2954.74,3439.35 L 2963.07,3429.21 L 2973.21,3420.89 L 2984.78,3414.7 L 2997.34,3410.89 L 3010.39,3409.61 L 3023.45,3410.89 L 3036.01,3414.7 L 3045.1,3419.56 L 3144.9,3319.75 L 3147.29,3317.79 L 3150.01,3316.34 L 3152.97,3315.44 L 3156.04,3315.14 L 3198.33,3315.14 L 3931.12,2582.36 L 3927,2574.66 L 3923.42,2562.84 L 3922.2,2550.55 L 3923.42,2538.26 L 3927,2526.45 L 3932.82,2515.55 L 3940.65,2506.01 L 3950.2,2498.18 L 3961.09,2492.35 L 3972.91,2488.77 L 3985.2,2487.56 L 3997.49,2488.77 L 4009.3,2492.35 L 4020.19,2498.18 L 4029.74,2506.01 L 4037.57,2515.55 L 4043.39,2526.45 L 4046.98,2538.26 L 4048.19,2550.55 L 4046.98,2562.84 L 4043.39,2574.66 L 4037.57,2585.55 L 4029.74,2595.09 L 4020.19,2602.93 L 4009.3,2608.75 L 3997.49,2612.33 L 3985.2,2613.54 L 3972.91,2612.33 L 3961.09,2608.75 L 3953.39,2604.63 L 3215.99,3342.02 L 3213.61,3343.98 L 3210.88,3345.44 L 3207.93,3346.33 L 3204.86,3346.64 L 3162.56,3346.64 L 3067.37,3441.83 L 3072.23,3450.92 L 3076.04,3463.48 L 3077.32,3476.54 L 3076.04,3489.59 L 3072.23,3502.15 L 3066.04,3513.72 L 3057.72,3523.86 L 3047.58,3532.18 L 3036.01,3538.37 L 3023.45,3542.18 L 3010.39,3543.46 L 2997.34,3542.18 L 2984.78,3538.37 L 2973.21,3532.18 L 2963.07,3523.86 L 2954.74,3513.72 L 2948.56,3502.15 L 2944.75,3489.59 L 2943.46,3476.54 z " style="fill-opacity:1.000000;fill:rgb(5,60,124);stroke:rgb(0,0,0);stroke-width:2"/></g>
<g fill-rule="evenodd"><path d="M 3122.2,2550.55 L 3123.42,2538.26 L 3127,2526.45 L 3132.82,2515.55 L 3140.65,2506.01 L 3150.2,2498.18 L 3161.09,2492.35 L 3172.91,2488.77 L 3185.2,2487.56 L 3197.49,2488.77 L 3209.3,2492.35 L 3220.19,2498.18 L 3229.74,2506.01 L 3237.57,2515.55 L 3243.39,2526.45 L 3246.98,2538.26 L 3248.19,2550.55 L 3246.98,2562.84 L 3243.39,2574.66 L 3237.57,2585.55 L 3229.74,2595.09 L 3220.19,2602.93 L 3209.3,2608.75 L 3197.49,2612.33 L 3185.2,2613.54 L 3172.91,2612.33 L 3161.09,2608.75 L 3150.2,2602.93 L 3140.65,2595.09 L 3132.82,2585.55 L 3127,2574.66 L 3123.42,2562.84 L 3122.2,2550.55 z " style="fill-opacity:1.000000;fill:rgb(148,117,216);stroke:rgb(0,0,0);stroke-width:2"/></g>
<g fill-rule="evenodd"><path d="M 3143.46,3476.54 L 3144.75,3463.48 L 3148.56,3450.92 L 3154.74,3439.35 L 3163.07,3429.21 L 3173.21,3420.89 L 3184.78,3414.7 L 3197.34,3410.89 L 3210.39,3409.61 L 3223.45,3410.89 L 3236.01,3414.7 L 3245.1,3419.56 L 3999.24,2665.42 L 4001.63,2663.46 L 4004.35,2662 L 4007.3,2661.11 L 4010.38,2660.8 L 4233.58,2660.8 L 4295.53,2598.85 L 4295.53,1609.14 L 4172.45,1485.8 L 4170.22,1481.41 L 4169.45,1476.54 L 4169.45,1411.28 L 4161.09,1408.75 L 4150.2,1402.93 L 4140.65,1395.09 L 4132.82,1385.55 L 4127,1374.66 L 4123.42,1362.84 L 4122.2,1350.55 L 4123.42,1338.26 L 4127,1326.45 L 4132.82,1315.55 L 4140.65,1306.01 L 4150.2,1298.18 L 4161.09,1292.35 L 4172.91,1288.77 L 4185.2,1287.56 L 4197.49,1288.77 L 4209.3,1292.35 L 4220.19,1298.18 L 4229.74,1306.01 L 4237.57,1315.55 L 4243.39,1326.45 L 4246.98,1338.26 L 4248.19,1350.55 L 4246.98,1362.84 L 4243.39,1374.66 L 4237.57,1385.55 L 4229.74,1395.09 L 4220.19,1402.93 L 4209.3,1408.75 L 4200.94,1411.28 L 4200.94,1470.02 L 4322.41,1591.49 L 4325.31,1595.47 L 4326.83,1600.16 L 4327.02,2605.38 L 4326.72,2608.45 L 4325.82,2611.4 L 4324.37,2614.13 L 4322.41,2616.51 L 4251.24,2687.69 L 4249.36,2689.29 L 4244.97,2691.53 L 4240.1,2692.3 L 4016.9,2692.3 L 3267.37,3441.83 L 3272.23,3450.92 L 3276.04,3463.48 L 3277.32,3476.54 L 3276.04,3489.59 L 3272.23,3502.15 L 3266.04,3513.72 L 3257.72,3523.86 L 3247.58,3532.18 L 3236.01,3538.37 L 3223.45,3542.18 L 3210.39,3543.46 L 3197.34,3542.18 L 3184.78,3538.37 L 3173.21,3532.18 L 3163.07,3523.86 L 3154.74,3513.72 L 3148.56,3502.15 L 3144.75,3489.59 L 3143.46,3476.54 z " style="fill-opacity:1.000000;fill:rgb(190,97,137);stroke:rgb(0,0,0);stroke-width:2"/></g>
<g fill-rule="evenodd"><path d="M 3322.2,2550.55 L 3323.42,2538.26 L 3327,2526.45 L 3332.82,2515.55 L 3340.65,2506.01 L 3350.2,2498.18 L 3361.09,2492.35 L 3372.91,2488.77 L 3385.2,2487.56 L 3397.49,2488.77 L 3409.3,2492.35 L 3420.19,2498.18 L 3429.74,2506.01 L 3437.57,2515.55 L 3443.39,2526.45 L 3446.98,2538.26 L 3448.19,2550.55 L 3446.98,2562.84 L 3443.39,2574.66 L 3437.57,2585.55 L 3429.74,2595.09 L 3420.19,2602.93 L 3409.3,2608.75 L 3397.49,2612.33 L 3385.2,2613.54 L 3372.91,2612.33 L 3361.09,2608.75 L 3350.2,2602.93 L 3340.65,2595.09 L 3332.82,2585.55 L 3327,2574.66 L 3323.42,2562.84 L 3322.2,2550.55 z " style="fill-opacity:1.000000;fill:rgb(249,92,187);stroke:rgb(0,0,0);stroke-width:2"/></g>
<g fill-rule="evenodd"><path d="M 3322.2,1350.55 L 3323.42,1338.26 L 3327,1326.45 L 3332.82,1315.55 L 3340.65,1306.01 L 3350.2,1298.18 L 3361.09,1292.35 L 3372.91,1288.77 L 3385.2,1287.56 L 3397.49,1288.77 L 3409.3,1292.35 L 3417,1296.47 L 3737.88,975.595 L 3740.27,973.637 L 3742.99,972.182 L 3745.94,971.286 L 3749.01,970.983 L 4336.26,970.983 L 4339.33,971.286 L 4342.29,972.182 L 4345.01,973.637 L 4347.39,975.595 L 4637.5,1265.7 L 4640.39,1269.68 L 4641.92,1274.37 L 4642.11,2738.48 L 4641.81,2741.55 L 4640.91,2744.51 L 4639.45,2747.23 L 4637.5,2749.61 L 4029.37,3357.74 L 4026.14,3360.15 L 4026.14,3411.71 L 4036.01,3414.7 L 4047.58,3420.89 L 4057.72,3429.21 L 4066.04,3439.35 L 4072.23,3450.92 L 4076.04,3463.48 L 4077.32,3476.54 L 4076.04,3489.59 L 4072.23,3502.15 L 4066.04,3513.72 L 4057.72,3523.86 L 4047.58,3532.18 L 4036.01,3538.37 L 4023.45,3542.18 L 4010.39,3543.46 L 3997.34,3542.18 L 3984.78,3538.37 L 3973.21,3532.18 L 3963.07,3523.86 L 3954.74,3513.72 L 3948.56,3502.15 L 3944.75,3489.59 L 3943.46,3476.54 L 3944.75,3463.48 L 3948.56,3450.92 L 3954.74,3439.35 L 3963.07,3429.21 L 3973.21,3420.89 L 3984.78,3414.7 L 3994.64,3411.71 L 3994.64,3346.6 L 3994.95,3343.53 L 3995.84,3340.58 L 3997.3,3337.86 L 3999.26,3335.47 L 4001.64,3333.51 L 4004.37,3332.06 L 4007.32,3331.16 L 4011.71,3330.86 L 4610.61,2731.96 L 4610.61,1283.35 L 4329.74,1002.48 L 3755.54,1002.48 L 3439.28,1318.74 L 3443.39,1326.45 L 3446.98,1338.26 L 3448.19,1350.55 L 3446.98,1362.84 L 3443.39,1374.66 L 3437.57,1385.55 L 3429.74,1395.09 L 3420.19,1402.93 L 3409.3,1408.75 L 3397.49,1412.33 L 3385.2,1413.54 L 3372.91,1412.33 L 3361.09,1408.75 L 3350.2,1402.93 L 3340.65,1395.09 L 3332.82,1385.55 L 3327,1374.66 L 3323.42,1362.84 L 3322.2,1350.55 z " style="fill-opacity:1.000000;fill:rgb(168,153,15);stroke:rgb(0,0,0);stroke-width:2"/></g>
<g fill-rule="evenodd"><path d="M 3343.46,3476.54 L 3344.75,3463.48 L 3348.56,3450.92 L 3354.74,3439.35 L 3363.07,3429.21 L 3373.21,3420.89 L 3384.78,3414.7 L 3397.34,3410.89 L 3410.39,3409.61 L 3423.45,3410.89 L 3436.01,3414.7 L 3445.1,3419.56 L 3826.54,3038.12 L 3828.93,3036.16 L 3831.65,3034.7 L 3834.6,3033.81 L 3837.68,3033.5 L 3974.98,3033.5 L 4374.37,2634.11 L 4374.37,1381.2 L 4231.89,1238.72 L 4119.29,1238.72 L 4039.28,1318.74 L 4043.39,1326.45 L 4046.98,1338.26 L 4048.19,1350.55 L 4046.98,1362.84 L 4043.39,1374.66 L 4037.57,1385.55 L 4029.74,1395.09 L 4020.19,1402.93 L 4009.3,1408.75 L 3997.49,1412.33 L 3985.2,1413.54 L 3972.91,1412.33 L 3961.09,1408.75 L 3950.2,1402.93 L 3940.65,1395.09 L 3932.82,1385.55 L 3927,1374.66 L 3923.42,1362.84 L 3922.2,1350.55 L 3923.42,1338.26 L 3927,1326.45 L 3932.82,1315.55 L 3940.65,1306.01 L 3950.2,1298.18 L 3961.09,1292.35 L 3972.91,1288.77 L 3985.2,1287.56 L 3997.49,1288.77 L 4009.3,1292.35 L 4017,1296.47 L 4101.64,1211.84 L 4104.02,1209.88 L 4106.74,1208.43 L 4109.7,1207.53 L 4112.77,1207.23 L 4238.42,1207.23 L 4243.28,1208 L 4245.57,1208.94 L 4249.55,1211.84 L 4401.25,1363.54 L 4403.21,1365.93 L 4404.67,1368.65 L 4405.56,1371.6 L 4405.87,1374.68 L 4405.87,2640.64 L 4405.56,2643.71 L 4404.67,2646.66 L 4403.21,2649.39 L 4401.25,2651.77 L 3992.64,3060.39 L 3990.25,3062.34 L 3987.53,3063.8 L 3984.58,3064.7 L 3981.5,3065 L 3844.2,3065 L 3467.37,3441.83 L 3472.23,3450.92 L 3476.04,3463.48 L 3477.32,3476.54 L 3476.04,3489.59 L 3472.23,3502.15 L 3466.04,3513.72 L 3457.72,3523.86 L 3447.58,3532.18 L 3436.01,3538.37 L 3423.45,3542.18 L 3410.39,3543.46 L 3397.34,3542.18 L 3384.78,3538.37 L 3373.21,3532.18 L 3363.07,3523.86 L 3354.74,3513.72 L 3348.56,3502.15 L 3344.75,3489.59 L 3343.46,3476.54 z " style="fill-opacity:1.000000;fill:rgb(149,177,235);stroke:rgb(0,0,0);stroke-width:2"/></g>
<g fill-rule="evenodd"><path d="M 3522.2,1350.55 L 3523.42,1338.26 L 3527,1326.45 L 3532.82,1315.55 L 3540.65,1306.01 L 3550.2,1298.18 L 3561.09,1292.35 L 3572.91,1288.77 L 3585.2,1287.56 L 3597.49,1288.77 L 3609.3,1292.35 L 3617,1296.47 L 3859.13,1054.34 L 3861.52,1052.38 L 3864.24,1050.93 L 3867.19,1050.03 L 3870.27,1049.73 L 4306.11,1049.92 L 4310.79,1051.45 L 4314.78,1054.34 L 4558.75,1298.31 L 4560.71,1300.7 L 4562.16,1303.42 L 4563.06,1306.37 L 4563.36,1309.45 L 4563.36,2705.86 L 4563.06,2708.94 L 4562.16,2711.89 L 4560.71,2714.61 L 4558.75,2717 L 4057.87,3217.88 L 4055.48,3219.84 L 4052.76,3221.3 L 4049.8,3222.19 L 4046.73,3222.5 L 3956.77,3222.5 L 3826.14,3353.13 L 3826.14,3411.71 L 3836.01,3414.7 L 3847.58,3420.89 L 3857.72,3429.21 L 3866.04,3439.35 L 3872.23,3450.92 L 3876.04,3463.48 L 3877.32,3476.54 L 3876.04,3489.59 L 3872.23,3502.15 L 3866.04,3513.72 L 3857.72,3523.86 L 3847.58,3532.18 L 3836.01,3538.37 L 3823.45,3542.18 L 3810.39,3543.46 L 3797.34,3542.18 L 3784.78,3538.37 L 3773.21,3532.18 L 3763.07,3523.86 L 3754.74,3513.72 L 3748.56,3502.15 L 3744.75,3489.59 L 3743.46,3476.54 L 3744.75,3463.48 L 3748.56,3450.92 L 3754.74,3439.35 L 3763.07,3429.21 L 3773.21,3420.89 L 3784.78,3414.7 L 3794.64,3411.71 L 3794.64,3346.6 L 3794.95,3343.53 L 3795.84,3340.58 L 3797.3,3337.86 L 3799.26,3335.47 L 3939.12,3195.61 L 3941.5,3193.65 L 3944.22,3192.2 L 3947.18,3191.3 L 3950.25,3191 L 4040.21,3191 L 4531.86,2699.34 L 4531.86,1315.97 L 4297.12,1081.23 L 3876.79,1081.23 L 3639.28,1318.74 L 3643.39,1326.45 L 3646.98,1338.26 L 3648.19,1350.55 L 3646.98,1362.84 L 3643.39,1374.66 L 3637.57,1385.55 L 3629.74,1395.09 L 3620.19,1402.93 L 3609.3,1408.75 L 3597.49,1412.33 L 3585.2,1413.54 L 3572.91,1412.33 L 3561.09,1408.75 L 3550.2,1402.93 L 3540.65,1395.09 L 3532.82,1385.55 L 3527,1374.66 L 3523.42,1362.84 L 3522.2,1350.55 z " style="fill-opacity:1.000000;fill:rgb(241,179,5);stroke:rgb(0,0,0);stroke-width:2"/></g>
<g fill-rule="evenodd"><path d="M 3543.46,3476.54 L 3544.75,3463.48 L 3548.56,3450.92 L 3554.74,3439.35 L 3563.07,3429.21 L 3573.21,3420.89 L 3584.78,3414.7 L 3597.34,3410.89 L 3610.39,3409.61 L 3613.45,3409.91 L 3906.49,3116.86 L 3908.88,3114.9 L 3911.6,3113.45 L 3914.56,3112.55 L 3917.63,3112.25 L 4007.59,3112.25 L 4453.12,2666.73 L 4453.12,1348.59 L 4264.51,1159.98 L 3998.04,1159.98 L 3839.28,1318.74 L 3843.39,1326.45 L 3846.98,1338.26 L 3848.19,1350.55 L 3846.98,1362.84 L 3843.39,1374.66 L 3837.57,1385.55 L 3829.74,1395.09 L 3820.19,1402.93 L 3809.3,1408.75 L 3797.49,1412.33 L 3785.2,1413.54 L 3772.91,1412.33 L 3761.09,1408.75 L 3750.2,1402.93 L 3740.65,1395.09 L 3732.82,1385.55 L 3727,1374.66 L 3723.42,1362.84 L 3722.2,1350.55 L 3723.42,1338.26 L 3727,1326.45 L 3732.82,1315.55 L 3740.65,1306.01 L 3750.2,1298.18 L 3761.09,1292.35 L 3772.91,1288.77 L 3785.2,1287.56 L 3797.49,1288.77 L 3809.3,1292.35 L 3817,1296.47 L 3980.38,1133.09 L 3982.77,1131.13 L 3985.49,1129.68 L 3988.45,1128.78 L 3991.52,1128.48 L 4271.03,1128.48 L 4275.9,1129.25 L 4280.29,1131.49 L 4282.17,1133.09 L 4480,1330.93 L 4481.96,1333.31 L 4483.41,1336.04 L 4484.31,1338.99 L 4484.61,1342.06 L 4484.61,2673.25 L 4484.31,2676.32 L 4483.41,2679.28 L 4481.96,2682 L 4480,2684.39 L 4025.25,3139.13 L 4022.87,3141.09 L 4020.14,3142.55 L 4017.19,3143.44 L 4014.12,3143.75 L 3924.15,3143.75 L 3647.21,3420.69 L 3657.72,3429.21 L 3666.04,3439.35 L 3672.23,3450.92 L 3676.04,3463.48 L 3677.32,3476.54 L 3676.04,3489.59 L 3672.23,3502.15 L 3666.04,3513.72 L 3657.72,3523.86 L 3647.58,3532.18 L 3636.01,3538.37 L 3623.45,3542.18 L 3610.39,3543.46 L 3597.34,3542.18 L 3584.78,3538.37 L 3573.21,3532.18 L 3563.07,3523.86 L 3554.74,3513.72 L 3548.56,3502.15 L 3544.75,3489.59 L 3543.46,3476.54 z " style="fill-opacity:1.000000;fill:rgb(239,247,0);stroke:rgb(0,0,0);stroke-width:2"/></g>
<g fill-rule="evenodd"><path d="M 4122.2,2550.55 L 4123.42,2538.26 L 4127,2526.45 L 4132.82,2515.55 L 4140.65,2506.01 L 4150.2,2498.18 L 4161.09,2492.35 L 4169.45,2489.82 L 4169.45,1772.81 L 4166.74,1767.75 L 4164.5,1760.37 L 4163.75,1752.69 L 4164.5,1745 L 4166.74,1737.62 L 4170.38,1730.81 L 4175.28,1724.85 L 4181.25,1719.95 L 4188.05,1716.31 L 4195.44,1714.07 L 4203.12,1713.31 L 4210.8,1714.07 L 4218.18,1716.31 L 4224.99,1719.95 L 4230.96,1724.85 L 4235.85,1730.81 L 4239.49,1737.62 L 4241.73,1745 L 4242.49,1752.69 L 4241.73,1760.37 L 4239.49,1767.75 L 4235.85,1774.56 L 4230.96,1780.52 L 4224.99,1785.42 L 4218.18,1789.06 L 4210.8,1791.3 L 4203.12,1792.06 L 4200.94,1791.84 L 4200.94,2489.82 L 4209.3,2492.35 L 4220.19,2498.18 L 4229.74,2506.01 L 4237.57,2515.55 L 4243.39,2526.45 L 4246.98,2538.26 L 4248.19,2550.55 L 4246.98,2562.84 L 4243.39,2574.66 L 4237.57,2585.55 L 4229.74,2595.09 L 4220.19,2602.93 L 4209.3,2608.75 L 4197.49,2612.33 L 4185.2,2613.54 L 4172.91,2612.33 L 4161.09,2608.75 L 4150.2,2602.93 L 4140.65,2595.09 L 4132.82,2585.55 L 4127,2574.66 L 4123.42,2562.84 L 4122.2,2550.55 z " style="fill-opacity:1.000000;fill:rgb(233,161,58);stroke:rgb(0,0,0);stroke-width:2"/></g>
<g fill-rule="evenodd"><path d="M 4143.46,3476.54 L 4144.75,3463.48 L 4148.56,3450.92 L 4154.74,3439.35 L 4163.07,3429.21 L 4173.21,3420.89 L 4184.78,3414.7 L 4194.64,3411.71 L 4194.64,3346.6 L 4194.95,3343.53 L 4195.84,3340.58 L 4197.3,3337.86 L 4199.26,3335.47 L 4689.37,2845.36 L 4689.37,1428.9 L 4689.67,1425.83 L 4690.57,1422.88 L 4692.02,1420.16 L 4693.98,1417.77 L 5216.79,895.235 L 5221.18,892.998 L 5226.05,892.227 L 5404.94,892.227 L 5407.41,892.421 L 5412.09,893.943 L 5416.08,896.839 L 5454.61,935.375 L 5456.57,937.762 L 5458.03,940.484 L 5458.92,943.439 L 5459.23,946.511 L 5459.23,1100.31 L 5557.91,1198.99 L 5564.56,1196.98 L 5572.24,1196.22 L 5579.92,1196.98 L 5587.3,1199.22 L 5594.11,1202.86 L 5600.08,1207.75 L 5604.97,1213.72 L 5608.61,1220.52 L 5610.85,1227.91 L 5611.61,1235.59 L 5610.85,1243.27 L 5608.61,1250.66 L 5604.97,1257.46 L 5600.08,1263.43 L 5594.11,1268.33 L 5587.3,1271.96 L 5579.92,1274.2 L 5572.24,1274.96 L 5564.56,1274.2 L 5557.17,1271.96 L 5550.36,1268.33 L 5544.4,1263.43 L 5539.5,1257.46 L 5535.86,1250.66 L 5533.62,1243.27 L 5532.87,1235.59 L 5533.62,1227.91 L 5535.64,1221.26 L 5432.34,1117.97 L 5430.38,1115.58 L 5428.93,1112.86 L 5428.03,1109.91 L 5427.73,1106.83 L 5427.73,953.034 L 5398.42,923.723 L 5232.57,923.723 L 4720.87,1435.43 L 4720.87,2851.88 L 4720.56,2854.95 L 4719.67,2857.91 L 4718.21,2860.63 L 4716.25,2863.02 L 4226.14,3353.13 L 4226.14,3411.71 L 4236.01,3414.7 L 4247.58,3420.89 L 4257.72,3429.21 L 4266.04,3439.35 L 4272.23,3450.92 L 4276.04,3463.48 L 4277.32,3476.54 L 4276.04,3489.59 L 4272.23,3502.15 L 4266.04,3513.72 L 4257.72,3523.86 L 4247.58,3532.18 L 4236.01,3538.37 L 4223.45,3542.18 L 4210.39,3543.46 L 4197.34,3542.18 L 4184.78,3538.37 L 4173.21,3532.18 L 4163.07,3523.86 L 4154.74,3513.72 L 4148.56,3502.15 L 4144.75,3489.59 L 4143.46,3476.54 z " style="fill-opacity:1.000000;fill:rgb(229,202,11);stroke:rgb(0,0,0);stroke-width:2"/></g>
<g fill-rule="evenodd"><path d="M 4343.46,3476.54 L 4344.75,3463.48 L 4348.56,3450.92 L 4354.74,3439.35 L 4363.07,3429.21 L 4373.21,3420.89 L 4384.78,3414.7 L 4394.64,3411.71 L 4394.64,3346.6 L 4394.95,3343.53 L 4395.84,3340.58 L 4397.3,3337.86 L 4399.26,3335.47 L 4773.16,2961.56 L 4773.16,1564.16 L 4773.47,1561.08 L 4774.36,1558.13 L 4775.82,1555.41 L 4777.78,1553.02 L 5254.49,1076.31 L 5254.49,972.598 L 5380.47,972.598 L 5380.47,1098.58 L 5276.76,1098.58 L 4804.66,1570.68 L 4804.66,2968.08 L 4804.36,2971.16 L 4803.46,2974.11 L 4802.01,2976.83 L 4800.05,2979.22 L 4426.14,3353.13 L 4426.14,3411.71 L 4436.01,3414.7 L 4447.58,3420.89 L 4457.72,3429.21 L 4466.04,3439.35 L 4472.23,3450.92 L 4476.04,3463.48 L 4477.32,3476.54 L 4476.04,3489.59 L 4472.23,3502.15 L 4466.04,3513.72 L 4457.72,3523.86 L 4447.58,3532.18 L 4436.01,3538.37 L 4423.45,3542.18 L 4410.39,3543.46 L 4397.34,3542.18 L 4384.78,3538.37 L 4373.21,3532.18 L 4363.07,3523.86 L 4354.74,3513.72 L 4348.56,3502.15 L 4344.75,3489.59 L 4343.46,3476.54 z " style="fill-opacity:1.000000;fill:rgb(203,208,72);stroke:rgb(0,0,0);stroke-width:2"/></g>
<g fill-rule="evenodd"><path d="M 4543.46,3476.54 L 4544.75,3463.48 L 4548.56,3450.92 L 4554.74,3439.35 L 4563.07,3429.21 L 4573.21,3420.89 L 4584.78,3414.7 L 4594.64,3411.71 L 4594.64,3346.6 L 4594.95,3343.53 L 4595.84,3340.58 L 4597.3,3337.86 L 4599.26,3335.47 L 4851.91,3082.81 L 4851.91,1685.41 L 4852.22,1682.34 L 4853.11,1679.38 L 4854.57,1676.66 L 4856.53,1674.27 L 5263.4,1267.4 L 5259.28,1259.7 L 5255.7,1247.88 L 5254.49,1235.59 L 5255.7,1223.3 L 5259.28,1211.48 L 5265.1,1200.59 L 5272.94,1191.05 L 5282.48,1183.21 L 5293.37,1177.39 L 5305.19,1173.81 L 5317.48,1172.6 L 5329.77,1173.81 L 5341.59,1177.39 L 5352.48,1183.21 L 5362.02,1191.05 L 5369.86,1200.59 L 5375.68,1211.48 L 5379.26,1223.3 L 5380.47,1235.59 L 5379.26,1247.88 L 5375.68,1259.7 L 5369.86,1270.59 L 5362.02,1280.13 L 5352.48,1287.97 L 5341.59,1293.79 L 5329.77,1297.37 L 5317.48,1298.58 L 5305.19,1297.37 L 5293.37,1293.79 L 5285.67,1289.67 L 4883.41,1691.93 L 4883.41,3089.34 L 4883.11,3092.41 L 4882.21,3095.36 L 4880.75,3098.09 L 4878.8,3100.47 L 4626.14,3353.13 L 4626.14,3411.71 L 4636.01,3414.7 L 4647.58,3420.89 L 4657.72,3429.21 L 4666.04,3439.35 L 4672.23,3450.92 L 4676.04,3463.48 L 4677.32,3476.54 L 4676.04,3489.59 L 4672.23,3502.15 L 4666.04,3513.72 L 4657.72,3523.86 L 4647.58,3532.18 L 4636.01,3538.37 L 4623.45,3542.18 L 4610.39,3543.46 L 4597.34,3542.18 L 4584.78,3538.37 L 4573.21,3532.18 L 4563.07,3523.86 L 4554.74,3513.72 L 4548.56,3502.15 L 4544.75,3489.59 L 4543.46,3476.54 z " style="fill-opacity:1.000000;fill:rgb(71,100,189);stroke:rgb(0,0,0);stroke-width:2"/></g>
<g fill-rule="evenodd"><path d="M 4743.46,3476.54 L 4744.75,3463.48 L 4748.56,3450.92 L 4754.74,3439.35 L 4763.07,3429.21 L 4773.21,3420.89 L 4784.78,3414.7 L 4794.65,3411.71 L 4794.64,3346.6 L 4794.95,3343.53 L 4795.84,3340.58 L 4797.3,3337.86 L 4799.26,3335.47 L 4930.66,3204.07 L 4930.66,1806.66 L 4930.96,1803.59 L 4931.86,1800.63 L 4933.31,1797.91 L 4935.27,1795.53 L 5263.4,1467.4 L 5259.28,1459.7 L 5255.7,1447.88 L 5254.49,1435.59 L 5255.7,1423.3 L 5259.28,1411.48 L 5265.1,1400.59 L 5272.94,1391.05 L 5282.48,1383.21 L 5293.37,1377.39 L 5305.19,1373.81 L 5317.48,1372.6 L 5329.77,1373.81 L 5341.59,1377.39 L 5352.48,1383.21 L 5362.02,1391.05 L 5369.86,1400.59 L 5375.68,1411.48 L 5379.26,1423.3 L 5380.47,1435.59 L 5379.26,1447.88 L 5375.68,1459.7 L 5369.86,1470.59 L 5362.02,1480.13 L 5352.48,1487.97 L 5341.59,1493.79 L 5329.77,1497.37 L 5317.48,1498.58 L 5305.19,1497.37 L 5293.37,1493.79 L 5285.67,1489.67 L 4962.16,1813.18 L 4962.16,3210.59 L 4961.85,3213.66 L 4960.96,3216.62 L 4959.5,3219.34 L 4957.54,3221.72 L 4826.14,3353.13 L 4826.14,3411.71 L 4836.01,3414.7 L 4847.58,3420.89 L 4857.72,3429.21 L 4866.04,3439.35 L 4872.23,3450.92 L 4876.04,3463.48 L 4877.32,3476.54 L 4876.04,3489.59 L 4872.23,3502.15 L 4866.04,3513.72 L 4857.72,3523.86 L 4847.58,3532.18 L 4836.01,3538.37 L 4823.45,3542.18 L 4810.39,3543.46 L 4797.34,3542.18 L 4784.78,3538.37 L 4773.21,3532.18 L 4763.07,3523.86 L 4754.74,3513.72 L 4748.56,3502.15 L 4744.75,3489.59 L 4743.46,3476.54 z " style="fill-opacity:1.000000;fill:rgb(31,35,30);stroke:rgb(0,0,0);stroke-width:2"/></g>
<g fill-rule="evenodd"><path d="M 4943.46,3476.54 L 4944.75,3463.48 L 4948.56,3450.92 L 4954.74,3439.35 L 4963.07,3429.21 L 4973.21,3420.89 L 4984.78,3414.7 L 4994.64,3411.71 L 4994.84,3344.14 L 4995.42,3341.74 L 4997.65,3337.35 L 5009.41,3325.32 L 5009.41,1927.91 L 5009.71,1924.84 L 5010.61,1921.89 L 5012.06,1919.16 L 5014.02,1916.78 L 5263.4,1667.4 L 5259.28,1659.7 L 5255.7,1647.88 L 5254.49,1635.59 L 5255.7,1623.3 L 5259.28,1611.48 L 5265.1,1600.59 L 5272.94,1591.05 L 5282.48,1583.21 L 5293.37,1577.39 L 5305.19,1573.81 L 5317.48,1572.6 L 5329.77,1573.81 L 5341.59,1577.39 L 5352.48,1583.21 L 5362.02,1591.05 L 5369.86,1600.59 L 5375.68,1611.48 L 5379.26,1623.3 L 5380.47,1635.59 L 5379.26,1647.88 L 5375.68,1659.7 L 5369.86,1670.59 L 5362.02,1680.13 L 5352.48,1687.97 L 5341.59,1693.79 L 5329.77,1697.37 L 5317.48,1698.58 L 5305.19,1697.37 L 5293.37,1693.79 L 5285.67,1689.67 L 5040.91,1934.44 L 5040.91,3331.84 L 5040.13,3336.71 L 5037.9,3341.1 L 5026.14,3353.13 L 5026.14,3411.71 L 5036.01,3414.7 L 5047.58,3420.89 L 5057.72,3429.21 L 5066.04,3439.35 L 5072.23,3450.92 L 5076.04,3463.48 L 5077.32,3476.54 L 5076.04,3489.59 L 5072.23,3502.15 L 5066.04,3513.72 L 5057.72,3523.86 L 5047.58,3532.18 L 5036.01,3538.37 L 5023.45,3542.18 L 5010.39,3543.46 L 4997.34,3542.18 L 4984.78,3538.37 L 4973.21,3532.18 L 4963.07,3523.86 L 4954.74,3513.72 L 4948.56,3502.15 L 4944.75,3489.59 L 4943.46,3476.54 z " style="fill-opacity:1.000000;fill:rgb(168,28,123);stroke:rgb(0,0,0);stroke-width:2"/></g>
<g fill-rule="evenodd"><path d="M 5093.92,3245.88 L 5093.92,2043.4 L 5094.22,2040.33 L 5095.12,2037.37 L 5096.57,2034.65 L 5098.53,2032.27 L 5263.4,1867.4 L 5259.28,1859.7 L 5255.7,1847.88 L 5254.49,1835.59 L 5255.7,1823.3 L 5259.28,1811.48 L 5265.1,1800.59 L 5272.94,1791.05 L 5282.48,1783.21 L 5293.37,1777.39 L 5305.19,1773.81 L 5317.48,1772.6 L 5329.77,1773.81 L 5341.59,1777.39 L 5352.48,1783.21 L 5362.02,1791.05 L 5369.86,1800.59 L 5375.68,1811.48 L 5379.26,1823.3 L 5380.47,1835.59 L 5379.26,1847.88 L 5375.68,1859.7 L 5369.86,1870.59 L 5362.02,1880.13 L 5352.48,1887.97 L 5341.59,1893.79 L 5329.77,1897.37 L 5317.48,1898.58 L 5305.19,1897.37 L 5293.37,1893.79 L 5285.67,1889.67 L 5125.42,2049.92 L 5125.42,3239.36 L 5221.53,3335.47 L 5223.49,3337.86 L 5224.94,3340.58 L 5225.84,3343.53 L 5226.14,3346.6 L 5226.14,3411.71 L 5236.01,3414.7 L 5247.58,3420.89 L 5257.72,3429.21 L 5266.04,3439.35 L 5272.23,3450.92 L 5276.04,3463.48 L 5277.32,3476.54 L 5276.04,3489.59 L 5272.23,3502.15 L 5266.04,3513.72 L 5257.72,3523.86 L 5247.58,3532.18 L 5236.01,3538.37 L 5223.45,3542.18 L 5210.39,3543.46 L 5197.34,3542.18 L 5184.78,3538.37 L 5173.21,3532.18 L 5163.07,3523.86 L 5154.74,3513.72 L 5148.56,3502.15 L 5144.75,3489.59 L 5143.46,3476.54 L 5144.75,3463.48 L 5148.56,3450.92 L 5154.74,3439.35 L 5163.07,3429.21 L 5173.21,3420.89 L 5184.78,3414.7 L 5194.64,3411.71 L 5194.64,3353.13 L 5098.53,3257.02 L 5096.57,3254.63 L 5095.12,3251.91 L 5094.22,3248.95 L 5093.92,3245.88 z " style="fill-opacity:1.000000;fill:rgb(100,197,20);stroke:rgb(0,0,0);stroke-width:2"/></g>
<g fill-rule="evenodd"><path d="M 5174.2,3126.16 L 5174.2,2163.12 L 5174.51,2160.04 L 5175.4,2157.09 L 5176.86,2154.37 L 5178.82,2151.98 L 5263.4,2067.4 L 5259.28,2059.7 L 5255.7,2047.88 L 5254.49,2035.59 L 5255.7,2023.3 L 5259.28,2011.48 L 5265.1,2000.59 L 5272.94,1991.05 L 5282.48,1983.21 L 5293.37,1977.39 L 5305.19,1973.81 L 5317.48,1972.6 L 5329.77,1973.81 L 5341.59,1977.39 L 5352.48,1983.21 L 5362.02,1991.05 L 5369.86,2000.59 L 5375.68,2011.48 L 5379.26,2023.3 L 5380.47,2035.59 L 5379.26,2047.88 L 5375.68,2059.7 L 5369.86,2070.59 L 5362.02,2080.13 L 5352.48,2087.97 L 5341.59,2093.79 L 5329.77,2097.37 L 5317.48,2098.58 L 5305.19,2097.37 L 5293.37,2093.79 L 5285.67,2089.67 L 5205.7,2169.64 L 5205.7,3119.64 L 5421.53,3335.47 L 5424.42,3339.46 L 5425.37,3341.74 L 5426.14,3346.6 L 5426.14,3411.71 L 5436.01,3414.7 L 5447.58,3420.89 L 5457.72,3429.21 L 5466.04,3439.35 L 5472.23,3450.92 L 5476.04,3463.48 L 5477.32,3476.54 L 5476.04,3489.59 L 5472.23,3502.15 L 5466.04,3513.72 L 5457.72,3523.86 L 5447.58,3532.18 L 5436.01,3538.37 L 5423.45,3542.18 L 5410.39,3543.46 L 5397.34,3542.18 L 5384.78,3538.37 L 5373.21,3532.18 L 5363.07,3523.86 L 5354.74,3513.72 L 5348.56,3502.15 L 5344.75,3489.59 L 5343.46,3476.54 L 5344.75,3463.48 L 5348.56,3450.92 L 5354.74,3439.35 L 5363.07,3429.21 L 5373.21,3420.89 L 5384.78,3414.7 L 5394.65,3411.71 L 5394.64,3353.13 L 5178.82,3137.3 L 5177.21,3135.42 L 5174.97,3131.03 L 5174.2,3126.16 z " style="fill-opacity:1.000000;fill:rgb(115,90,197);stroke:rgb(0,0,0);stroke-width:2"/></g>
<g fill-rule="evenodd"><path d="M 5254.49,2435.59 L 5255.7,2423.3 L 5259.28,2411.48 L 5265.1,2400.59 L 5272.94,2391.05 L 5282.48,2383.21 L 5293.37,2377.39 L 5305.19,2373.81 L 5317.48,2372.6 L 5329.77,2373.81 L 5341.59,2377.39 L 5352.48,2383.21 L 5362.02,2391.05 L 5369.86,2400.59 L 5375.68,2411.48 L 5379.26,2423.3 L 5380.47,2435.59 L 5379.26,2447.88 L 5375.68,2459.7 L 5369.86,2470.59 L 5362.02,2480.13 L 5352.48,2487.97 L 5341.59,2493.79 L 5329.77,2497.37 L 5317.48,2498.58 L 5305.19,2497.37 L 5293.37,2493.79 L 5282.48,2487.97 L 5272.94,2480.13 L 5265.1,2470.59 L 5259.28,2459.7 L 5255.7,2447.88 L 5254.49,2435.59 z " style="fill-opacity:1.000000;fill:rgb(94,75,121);stroke:rgb(0,0,0);stroke-width:2"/></g>
<g fill-rule="evenodd"><path d="M 5254.49,2235.59 L 5255.7,2223.3 L 5259.28,2211.48 L 5265.1,2200.59 L 5272.94,2191.05 L 5282.48,2183.21 L 5293.37,2177.39 L 5305.19,2173.81 L 5317.48,2172.6 L 5329.77,2173.81 L 5341.59,2177.39 L 5352.48,2183.21 L 5362.02,2191.05 L 5369.86,2200.59 L 5375.68,2211.48 L 5379.26,2223.3 L 5380.47,2235.59 L 5379.26,2247.88 L 5375.68,2259.7 L 5371.56,2267.4 L 5621.53,2517.37 L 5623.49,2519.75 L 5624.94,2522.48 L 5625.84,2525.43 L 5626.14,2528.5 L 5626.14,3411.71 L 5636.01,3414.7 L 5647.58,3420.89 L 5657.72,3429.21 L 5666.04,3439.35 L 5672.23,3450.92 L 5676.04,3463.48 L 5677.32,3476.54 L 5676.04,3489.59 L 5672.23,3502.15 L 5666.04,3513.72 L 5657.72,3523.86 L 5647.58,3532.18 L 5636.01,3538.37 L 5623.45,3542.18 L 5610.39,3543.46 L 5597.34,3542.18 L 5584.78,3538.37 L 5573.21,3532.18 L 5563.07,3523.86 L 5554.74,3513.72 L 5548.56,3502.15 L 5544.75,3489.59 L 5543.46,3476.54 L 5544.75,3463.48 L 5548.56,3450.92 L 5554.74,3439.35 L 5563.07,3429.21 L 5573.21,3420.89 L 5584.78,3414.7 L 5594.64,3411.71 L 5594.64,2535.03 L 5349.29,2289.67 L 5341.59,2293.79 L 5329.77,2297.37 L 5317.48,2298.58 L 5305.19,2297.37 L 5293.37,2293.79 L 5282.48,2287.97 L 5272.94,2280.13 L 5265.1,2270.59 L 5259.28,2259.7 L 5255.7,2247.88 L 5254.49,2235.59 z " style="fill-opacity:1.000000;fill:rgb(99,59,112);stroke:rgb(0,0,0);stroke-width:2"/></g>
<g fill-rule="evenodd"><path d="M 5743.46,3476.54 L 5744.75,3463.48 L 5748.56,3450.92 L 5754.74,3439.35 L 5763.07,3429.21 L 5773.21,3420.89 L 5784.78,3414.7 L 5794.64,3411.71 L 5794.64,3190.35 L 5794.95,3187.28 L 5795.84,3184.33 L 5797.3,3181.6 L 5799.26,3179.22 L 6107.54,2870.93 L 6107.54,1353.17 L 6107.85,1350.1 L 6108.74,1347.15 L 6110.2,1344.42 L 6112.16,1342.04 L 6557.62,896.849 L 6562.01,894.612 L 6566.87,893.841 L 6804.07,893.841 L 6808.94,894.612 L 6811.22,895.557 L 6815.2,898.453 L 7136.59,1219.84 L 7195.33,1219.84 L 7197.87,1211.48 L 7203.69,1200.59 L 7211.52,1191.05 L 7221.07,1183.21 L 7231.96,1177.39 L 7243.77,1173.81 L 7256.06,1172.6 L 7268.35,1173.81 L 7280.17,1177.39 L 7291.06,1183.21 L 7300.61,1191.05 L 7308.44,1200.59 L 7314.26,1211.48 L 7317.84,1223.3 L 7319.06,1235.59 L 7317.84,1247.88 L 7314.26,1259.7 L 7308.44,1270.59 L 7300.61,1280.13 L 7291.06,1287.97 L 7280.17,1293.79 L 7268.35,1297.37 L 7256.06,1298.58 L 7243.77,1297.37 L 7231.96,1293.79 L 7221.07,1287.97 L 7211.52,1280.13 L 7203.69,1270.59 L 7197.87,1259.7 L 7195.33,1251.34 L 7130.07,1251.34 L 7125.2,1250.57 L 7120.81,1248.33 L 6797.55,925.337 L 6573.4,925.337 L 6139.04,1359.7 L 6139.04,2877.45 L 6138.74,2880.53 L 6137.84,2883.48 L 6136.38,2886.2 L 6134.43,2888.59 L 5826.14,3196.88 L 5826.14,3411.71 L 5836.01,3414.7 L 5847.58,3420.89 L 5857.72,3429.21 L 5866.04,3439.35 L 5872.23,3450.92 L 5876.04,3463.48 L 5877.32,3476.54 L 5876.04,3489.59 L 5872.23,3502.15 L 5866.04,3513.72 L 5857.72,3523.86 L 5847.58,3532.18 L 5836.01,3538.37 L 5823.45,3542.18 L 5810.39,3543.46 L 5797.34,3542.18 L 5784.78,3538.37 L 5773.21,3532.18 L 5763.07,3523.86 L 5754.74,3513.72 L 5748.56,3502.15 L 5744.75,3489.59 L 5743.46,3476.54 z " style="fill-opacity:1.000000;fill:rgb(100,36,17);stroke:rgb(0,0,0);stroke-width:2"/></g>
<g fill-rule="evenodd"><path d="M 5854.49,2435.59 L 5855.7,2423.3 L 5859.28,2411.48 L 5865.1,2400.59 L 5872.94,2391.05 L 5882.48,2383.21 L 5893.37,2377.39 L 5905.19,2373.81 L 5917.48,2372.6 L 5929.77,2373.81 L 5941.59,2377.39 L 5952.48,2383.21 L 5962.02,2391.05 L 5969.86,2400.59 L 5975.68,2411.48 L 5979.26,2423.3 L 5980.47,2435.59 L 5979.26,2447.88 L 5975.68,2459.7 L 5969.86,2470.59 L 5962.02,2480.13 L 5952.48,2487.97 L 5941.59,2493.79 L 5929.77,2497.37 L 5917.48,2498.58 L 5905.19,2497.37 L 5893.37,2493.79 L 5882.48,2487.97 L 5872.94,2480.13 L 5865.1,2470.59 L 5859.28,2459.7 L 5855.7,2447.88 L 5854.49,2435.59 z " style="fill-opacity:1.000000;fill:rgb(158,9,220);stroke:rgb(0,0,0);stroke-width:2"/></g>
<g fill-rule="evenodd"><path d="M 5854.49,2235.59 L 5855.7,2223.3 L 5859.28,2211.48 L 5865.1,2200.59 L 5872.94,2191.05 L 5882.48,2183.21 L 5893.37,2177.39 L 5905.19,2173.81 L 5917.48,2172.6 L 5929.77,2173.81 L 5941.59,2177.39 L 5952.48,2183.21 L 5962.02,2191.05 L 5969.86,2200.59 L 5975.68,2211.48 L 5979.26,2223.3 L 5980.47,2235.59 L 5979.26,2247.88 L 5975.68,2259.7 L 5969.86,2270.59 L 5962.02,2280.13 L 5952.48,2287.97 L 5941.59,2293.79 L 5929.77,2297.37 L 5917.48,2298.58 L 5905.19,2297.37 L 5893.37,2293.79 L 5882.48,2287.97 L 5872.94,2280.13 L 5865.1,2270.59 L 5859.28,2259.7 L 5855.7,2247.88 L 5854.49,2235.59 z " style="fill-opacity:1.000000;fill:rgb(170,212,172);stroke:rgb(0,0,0);stroke-width:2"/></g>
<g fill-rule="evenodd"><path d="M 5854.49,1835.59 L 5855.7,1823.3 L 5859.28,1811.48 L 5865.1,1800.59 L 5872.94,1791.05 L 5882.48,1783.21 L 5893.37,1777.39 L 5905.19,1773.81 L 5917.48,1772.6 L 5929.77,1773.81 L 5941.59,1777.39 L 5952.48,1783.21 L 5962.02,1791.05 L 5969.86,1800.59 L 5975.68,1811.48 L 5979.26,1823.3 L 5980.47,1835.59 L 5979.26,1847.88 L 5975.68,1859.7 L 5969.86,1870.59 L 5962.02,1880.13 L 5952.48,1887.97 L 5941.59,1893.79 L 5929.77,1897.37 L 5917.48,1898.58 L 5905.19,1897.37 L 5893.37,1893.79 L 5882.48,1887.97 L 5872.94,1880.13 L 5865.1,1870.59 L 5859.28,1859.7 L 5855.7,1847.88 L 5854.49,1835.59 z " style="fill-opacity:1.000000;fill:rgb(242,27,16);stroke:rgb(0,0,0);stroke-width:2"/></g>
<g fill-rule="evenodd"><path d="M 5854.49,1435.59 L 5855.7,1423.3 L 5859.28,1411.48 L 5865.1,1400.59 L 5872.94,1391.05 L 5882.48,1383.21 L 5893.37,1377.39 L 5905.19,1373.81 L 5917.48,1372.6 L 5929.77,1373.81 L 5941.59,1377.39 L 5952.48,1383.21 L 5962.02,1391.05 L 5969.86,1400.59 L 5975.68,1411.48 L 5979.26,1423.3 L 5980.47,1435.59 L 5979.26,1447.88 L 5975.68,1459.7 L 5969.86,1470.59 L 5962.02,1480.13 L 5952.48,1487.97 L 5941.59,1493.79 L 5929.77,1497.37 L 5917.48,1498.58 L 5905.19,1497.37 L 5893.37,1493.79 L 5882.48,1487.97 L 5872.94,1480.13 L 5865.1,1470.59 L 5859.28,1459.7 L 5855.7,1447.88 L 5854.49,1435.59 z " style="fill-opacity:1.000000;fill:rgb(175,59,51);stroke:rgb(0,0,0);stroke-width:2"/></g>
<g fill-rule="evenodd"><path d="M 5854.49,1235.59 L 5855.7,1223.3 L 5859.28,1211.48 L 5865.1,1200.59 L 5872.94,1191.05 L 5882.48,1183.21 L 5893.37,1177.39 L 5905.19,1173.81 L 5917.48,1172.6 L 5929.77,1173.81 L 5941.59,1177.39 L 5952.48,1183.21 L 5962.02,1191.05 L 5969.86,1200.59 L 5975.68,1211.48 L 5979.26,1223.3 L 5980.47,1235.59 L 5979.26,1247.88 L 5975.68,1259.7 L 5969.86,1270.59 L 5962.02,1280.13 L 5952.48,1287.97 L 5941.59,1293.79 L 5929.77,1297.37 L 5917.48,1298.58 L 5905.19,1297.37 L 5893.37,1293.79 L 5882.48,1287.97 L 5872.94,1280.13 L 5865.1,1270.59 L 5859.28,1259.7 L 5855.7,1247.88 L 5854.49,1235.59 z " style="fill-opacity:1.000000;fill:rgb(205,227,80);stroke:rgb(0,0,0);stroke-width:2"/></g>
<g fill-rule="evenodd"><path d="M 5854.49,1035.59 L 5855.7,1023.3 L 5859.28,1011.48 L 5865.1,1000.59 L 5872.94,991.048 L 5882.48,983.215 L 5893.37,977.393 L 5905.19,973.809 L 5917.48,972.598 L 5929.77,973.809 L 5941.59,977.393 L 5952.48,983.215 L 5962.02,991.048 L 5969.86,1000.59 L 5975.68,1011.48 L 5978.21,1019.84 L 6036.95,1019.84 L 6237.63,819.163 L 6240.01,817.205 L 6242.74,815.75 L 6245.69,814.854 L 6248.76,814.551 L 6927.24,814.745 L 6931.93,816.267 L 6935.91,819.163 L 7136.59,1019.84 L 7195.33,1019.84 L 7197.87,1011.48 L 7203.69,1000.59 L 7211.52,991.048 L 7221.07,983.215 L 7231.96,977.393 L 7243.77,973.809 L 7256.06,972.598 L 7268.35,973.809 L 7280.17,977.393 L 7291.06,983.215 L 7300.61,991.048 L 7308.44,1000.59 L 7314.26,1011.48 L 7317.84,1023.3 L 7319.06,1035.59 L 7317.84,1047.88 L 7314.26,1059.7 L 7308.44,1070.59 L 7300.61,1080.13 L 7291.06,1087.97 L 7280.17,1093.79 L 7268.35,1097.37 L 7256.06,1098.58 L 7243.77,1097.37 L 7231.96,1093.79 L 7221.07,1087.97 L 7211.52,1080.13 L 7203.69,1070.59 L 7197.87,1059.7 L 7195.33,1051.34 L 7130.07,1051.34 L 7127.61,1051.14 L 7122.92,1049.62 L 7118.93,1046.72 L 6918.26,846.047 L 6255.29,846.047 L 6054.61,1046.72 L 6052.22,1048.68 L 6049.5,1050.14 L 6046.54,1051.03 L 6043.47,1051.34 L 5978.21,1051.34 L 5975.68,1059.7 L 5969.86,1070.59 L 5962.02,1080.13 L 5952.48,1087.97 L 5941.59,1093.79 L 5929.77,1097.37 L 5917.48,1098.58 L 5905.19,1097.37 L 5893.37,1093.79 L 5882.48,1087.97 L 5872.94,1080.13 L 5865.1,1070.59 L 5859.28,1059.7 L 5855.7,1047.88 L 5854.49,1035.59 z " style="fill-opacity:1.000000;fill:rgb(72,71,21);stroke:rgb(0,0,0);stroke-width:2"/></g>
<g fill-rule="evenodd"><path d="M 5943.46,3476.54 L 5944.75,3463.48 L 5948.56,3450.92 L 5954.74,3439.35 L 5963.07,3429.21 L 5973.21,3420.89 L 5984.78,3414.7 L 5994.64,3411.71 L 5994.64,3346.6 L 5994.95,3343.53 L 5995.84,3340.58 L 5997.3,3337.86 L 5999.26,3335.47 L 6186.3,3148.43 L 6186.3,1489.6 L 6186.6,1486.53 L 6187.5,1483.58 L 6188.95,1480.86 L 6190.91,1478.47 L 6593.07,1076.31 L 6593.07,972.598 L 6719.06,972.598 L 6719.06,1098.58 L 6615.34,1098.58 L 6217.8,1496.13 L 6217.8,3154.95 L 6217.49,3158.02 L 6216.6,3160.98 L 6215.14,3163.7 L 6213.18,3166.09 L 6026.14,3353.13 L 6026.14,3411.71 L 6036.01,3414.7 L 6047.58,3420.89 L 6057.72,3429.21 L 6066.04,3439.35 L 6072.23,3450.92 L 6076.04,3463.48 L 6077.32,3476.54 L 6076.04,3489.59 L 6072.23,3502.15 L 6066.04,3513.72 L 6057.72,3523.86 L 6047.58,3532.18 L 6036.01,3538.37 L 6023.45,3542.18 L 6010.39,3543.46 L 5997.34,3542.18 L 5984.78,3538.37 L 5973.21,3532.18 L 5963.07,3523.86 L 5954.74,3513.72 L 5948.56,3502.15 L 5944.75,3489.59 L 5943.46,3476.54 z " style="fill-opacity:1.000000;fill:rgb(92,187,111);stroke:rgb(0,0,0);stroke-width:2"/></g>
<g fill-rule="evenodd"><path d="M 6143.46,3476.54 L 6144.75,3463.48 L 6148.56,3450.92 L 6154.74,3439.35 L 6163.07,3429.21 L 6173.21,3420.89 L 6184.78,3414.7 L 6194.64,3411.71 L 6194.64,3346.6 L 6194.95,3343.53 L 6195.84,3340.58 L 6197.3,3337.86 L 6199.26,3335.47 L 6343.79,3190.93 L 6343.79,1532.11 L 6344.1,1529.04 L 6344.99,1526.08 L 6346.45,1523.36 L 6348.41,1520.97 L 6601.98,1267.4 L 6597.87,1259.7 L 6594.28,1247.88 L 6593.07,1235.59 L 6594.28,1223.3 L 6597.87,1211.48 L 6603.69,1200.59 L 6611.52,1191.05 L 6621.07,1183.21 L 6631.96,1177.39 L 6643.77,1173.81 L 6656.06,1172.6 L 6668.35,1173.81 L 6680.17,1177.39 L 6691.06,1183.21 L 6700.61,1191.05 L 6708.44,1200.59 L 6714.26,1211.48 L 6717.84,1223.3 L 6719.06,1235.59 L 6717.84,1247.88 L 6714.26,1259.7 L 6708.44,1270.59 L 6700.61,1280.13 L 6691.06,1287.97 L 6680.17,1293.79 L 6668.35,1297.37 L 6656.06,1298.58 L 6643.77,1297.37 L 6631.96,1293.79 L 6624.25,1289.67 L 6375.29,1538.63 L 6375.29,3197.45 L 6374.99,3200.53 L 6374.09,3203.48 L 6372.64,3206.2 L 6370.68,3208.59 L 6226.14,3353.13 L 6226.14,3411.71 L 6236.01,3414.7 L 6247.58,3420.89 L 6257.72,3429.21 L 6266.04,3439.35 L 6272.23,3450.92 L 6276.04,3463.48 L 6277.32,3476.54 L 6276.04,3489.59 L 6272.23,3502.15 L 6266.04,3513.72 L 6257.72,3523.86 L 6247.58,3532.18 L 6236.01,3538.37 L 6223.45,3542.18 L 6210.39,3543.46 L 6197.34,3542.18 L 6184.78,3538.37 L 6173.21,3532.18 L 6163.07,3523.86 L 6154.74,3513.72 L 6148.56,3502.15 L 6144.75,3489.59 L 6143.46,3476.54 z " style="fill-opacity:1.000000;fill:rgb(34,25,186);stroke:rgb(0,0,0);stroke-width:2"/></g>
<g fill-rule="evenodd"><path d="M 6343.46,3476.54 L 6344.75,3463.48 L 6348.56,3450.92 L 6354.74,3439.35 L 6363.07,3429.21 L 6373.21,3420.89 L 6384.78,3414.7 L 6394.64,3411.71 L 6394.64,3346.6 L 6395.42,3341.74 L 6396.36,3339.46 L 6399.26,3335.47 L 6422.54,3312.18 L 6422.54,1653.36 L 6422.85,1650.29 L 6423.74,1647.33 L 6425.2,1644.61 L 6427.16,1642.23 L 6601.98,1467.4 L 6597.87,1459.7 L 6594.28,1447.88 L 6593.07,1435.59 L 6594.28,1423.3 L 6597.87,1411.48 L 6603.69,1400.59 L 6611.52,1391.05 L 6621.07,1383.21 L 6631.96,1377.39 L 6643.77,1373.81 L 6656.06,1372.6 L 6668.35,1373.81 L 6680.17,1377.39 L 6691.06,1383.21 L 6700.61,1391.05 L 6708.44,1400.59 L 6714.26,1411.48 L 6717.84,1423.3 L 6719.06,1435.59 L 6717.84,1447.88 L 6714.26,1459.7 L 6708.44,1470.59 L 6700.61,1480.13 L 6691.06,1487.97 L 6680.17,1493.79 L 6668.35,1497.37 L 6656.06,1498.58 L 6643.77,1497.37 L 6631.96,1493.79 L 6624.25,1489.67 L 6454.04,1659.88 L 6454.04,3318.71 L 6453.27,3323.57 L 6451.03,3327.96 L 6426.14,3353.13 L 6426.14,3411.71 L 6436.01,3414.7 L 6447.58,3420.89 L 6457.72,3429.21 L 6466.04,3439.35 L 6472.23,3450.92 L 6476.04,3463.48 L 6477.32,3476.54 L 6476.04,3489.59 L 6472.23,3502.15 L 6466.04,3513.72 L 6457.72,3523.86 L 6447.58,3532.18 L 6436.01,3538.37 L 6423.45,3542.18 L 6410.39,3543.46 L 6397.34,3542.18 L 6384.78,3538.37 L 6373.21,3532.18 L 6363.07,3523.86 L 6354.74,3513.72 L 6348.56,3502.15 L 6344.75,3489.59 L 6343.46,3476.54 z " style="fill-opacity:1.000000;fill:rgb(155,125,245);stroke:rgb(0,0,0);stroke-width:2"/></g>
<g fill-rule="evenodd"><path d="M 6543.46,3476.54 L 6544.75,3463.48 L 6548.56,3450.92 L 6554.74,3439.35 L 6563.07,3429.21 L 6573.21,3420.89 L 6584.78,3414.7 L 6597.34,3410.89 L 6610.39,3409.61 L 6623.45,3410.89 L 6636.01,3414.7 L 6647.58,3420.89 L 6657.72,3429.21 L 6666.04,3439.35 L 6672.23,3450.92 L 6676.04,3463.48 L 6677.32,3476.54 L 6676.04,3489.59 L 6672.23,3502.15 L 6666.04,3513.72 L 6657.72,3523.86 L 6647.58,3532.18 L 6636.01,3538.37 L 6623.45,3542.18 L 6610.39,3543.46 L 6597.34,3542.18 L 6584.78,3538.37 L 6573.21,3532.18 L 6563.07,3523.86 L 6554.74,3513.72 L 6548.56,3502.15 L 6544.75,3489.59 L 6543.46,3476.54 z " style="fill-opacity:1.000000;fill:rgb(11,225,26);stroke:rgb(0,0,0);stroke-width:2"/></g>
<g fill-rule="evenodd"><path d="M 6593.07,2435.59 L 6594.28,2423.3 L 6597.87,2411.48 L 6603.69,2400.59 L 6611.52,2391.05 L 6621.07,2383.21 L 6631.96,2377.39 L 6643.77,2373.81 L 6656.06,2372.6 L 6668.35,2373.81 L 6680.17,2377.39 L 6691.06,2383.21 L 6700.61,2391.05 L 6708.44,2400.59 L 6714.26,2411.48 L 6717.84,2423.3 L 6719.06,2435.59 L 6717.84,2447.88 L 6714.26,2459.7 L 6708.44,2470.59 L 6700.61,2480.13 L 6691.06,2487.97 L 6680.17,2493.79 L 6668.35,2497.37 L 6656.06,2498.58 L 6643.77,2497.37 L 6631.96,2493.79 L 6621.07,2487.97 L 6611.52,2480.13 L 6603.69,2470.59 L 6597.87,2459.7 L 6594.28,2447.88 L 6593.07,2435.59 z " style="fill-opacity:1.000000;fill:rgb(28,127,35);stroke:rgb(0,0,0);stroke-width:2"/></g>
<g fill-rule="evenodd"><path d="M 6593.07,2235.59 L 6594.28,2223.3 L 6597.87,2211.48 L 6603.69,2200.59 L 6611.52,2191.05 L 6621.07,2183.21 L 6631.96,2177.39 L 6643.77,2173.81 L 6656.06,2172.6 L 6668.35,2173.81 L 6680.17,2177.39 L 6691.06,2183.21 L 6700.61,2191.05 L 6708.44,2200.59 L 6714.26,2211.48 L 6717.84,2223.3 L 6719.06,2235.59 L 6717.84,2247.88 L 6714.26,2259.7 L 6708.44,2270.59 L 6700.61,2280.13 L 6691.06,2287.97 L 6680.17,2293.79 L 6668.35,2297.37 L 6656.06,2298.58 L 6643.77,2297.37 L 6631.96,2293.79 L 6621.07,2287.97 L 6611.52,2280.13 L 6603.69,2270.59 L 6597.87,2259.7 L 6594.28,2247.88 L 6593.07,2235.59 z " style="fill-opacity:1.000000;fill:rgb(248,41,248);stroke:rgb(0,0,0);stroke-width:2"/></g>
<g fill-rule="evenodd"><path d="M 6593.07,2035.59 L 6594.28,2023.3 L 6597.87,2011.48 L 6603.69,2000.59 L 6611.52,1991.05 L 6621.07,1983.21 L 6631.96,1977.39 L 6643.77,1973.81 L 6656.06,1972.6 L 6668.35,1973.81 L 6680.17,1977.39 L 6691.06,1983.21 L 6700.61,1991.05 L 6708.44,2000.59 L 6714.26,2011.48 L 6717.84,2023.3 L 6719.06,2035.59 L 6717.84,2047.88 L 6714.26,2059.7 L 6708.44,2070.59 L 6700.61,2080.13 L 6691.06,2087.97 L 6680.17,2093.79 L 6668.35,2097.37 L 6656.06,2098.58 L 6643.77,2097.37 L 6631.96,2093.79 L 6621.07,2087.97 L 6611.52,2080.13 L 6603.69,2070.59 L 6597.87,2059.7 L 6594.28,2047.88 L 6593.07,2035.59 z " style="fill-opacity:1.000000;fill:rgb(164,27,19);stroke:rgb(0,0,0);stroke-width:2"/></g>
<g fill-rule="evenodd"><path d="M 6593.07,1835.59 L 6594.28,1823.3 L 6597.87,1811.48 L 6603.69,1800.59 L 6611.52,1791.05 L 6621.07,1783.21 L 6631.96,1777.39 L 6643.77,1773.81 L 6656.06,1772.6 L 6668.35,1773.81 L 6680.17,1777.39 L 6691.06,1783.21 L 6700.61,1791.05 L 6708.44,1800.59 L 6714.26,1811.48 L 6717.84,1823.3 L 6719.06,1835.59 L 6717.84,1847.88 L 6714.26,1859.7 L 6708.44,1870.59 L 6700.61,1880.13 L 6691.06,1887.97 L 6680.17,1893.79 L 6668.35,1897.37 L 6656.06,1898.58 L 6643.77,1897.37 L 6631.96,1893.79 L 6621.07,1887.97 L 6611.52,1880.13 L 6603.69,1870.59 L 6597.87,1859.7 L 6594.28,1847.88 L 6593.07,1835.59 z " style="fill-opacity:1.000000;fill:rgb(181,202,78);stroke:rgb(0,0,0);stroke-width:2"/></g>
<g fill-rule="evenodd"><path d="M 6593.07,1635.59 L 6594.28,1623.3 L 6597.87,1611.48 L 6603.69,1600.59 L 6611.52,1591.05 L 6621.07,1583.21 L 6631.96,1577.39 L 6643.77,1573.81 L 6656.06,1572.6 L 6668.35,1573.81 L 6680.17,1577.39 L 6691.06,1583.21 L 6700.61,1591.05 L 6708.44,1600.59 L 6714.26,1611.48 L 6717.84,1623.3 L 6719.06,1635.59 L 6717.84,1647.88 L 6714.26,1659.7 L 6708.44,1670.59 L 6700.61,1680.13 L 6691.06,1687.97 L 6680.17,1693.79 L 6668.35,1697.37 L 6656.06,1698.58 L 6643.77,1697.37 L 6631.96,1693.79 L 6621.07,1687.97 L 6611.52,1680.13 L 6603.69,1670.59 L 6597.87,1659.7 L 6594.28,1647.88 L 6593.07,1635.59 z " style="fill-opacity:1.000000;fill:rgb(232,152,50);stroke:rgb(0,0,0);stroke-width:2"/></g>
<g fill-rule="evenodd"><path d="M 6743.46,3476.54 L 6744.75,3463.48 L 6748.56,3450.92 L 6754.74,3439.35 L 6763.07,3429.21 L 6773.21,3420.89 L 6784.78,3414.7 L 6797.34,3410.89 L 6810.39,3409.61 L 6823.45,3410.89 L 6836.01,3414.7 L 6847.58,3420.89 L 6857.72,3429.21 L 6866.04,3439.35 L 6872.23,3450.92 L 6876.04,3463.48 L 6877.32,3476.54 L 6876.04,3489.59 L 6872.23,3502.15 L 6866.04,3513.72 L 6857.72,3523.86 L 6847.58,3532.18 L 6836.01,3538.37 L 6823.45,3542.18 L 6810.39,3543.46 L 6797.34,3542.18 L 6784.78,3538.37 L 6773.21,3532.18 L 6763.07,3523.86 L 6754.74,3513.72 L 6748.56,3502.15 L 6744.75,3489.59 L 6743.46,3476.54 z " style="fill-opacity:1.000000;fill:rgb(56,224,121);stroke:rgb(0,0,0);stroke-width:2"/></g>
<g fill-rule="evenodd"><path d="M 6943.46,3476.54 L 6944.75,3463.48 L 6948.56,3450.92 L 6954.74,3439.35 L 6963.07,3429.21 L 6973.21,3420.89 L 6984.78,3414.7 L 6997.34,3410.89 L 7010.39,3409.61 L 7023.45,3410.89 L 7036.01,3414.7 L 7047.58,3420.89 L 7057.72,3429.21 L 7066.04,3439.35 L 7072.23,3450.92 L 7076.04,3463.48 L 7077.32,3476.54 L 7076.04,3489.59 L 7072.23,3502.15 L 7066.04,3513.72 L 7057.72,3523.86 L 7047.58,3532.18 L 7036.01,3538.37 L 7023.45,3542.18 L 7010.39,3543.46 L 6997.34,3542.18 L 6984.78,3538.37 L 6973.21,3532.18 L 6963.07,3523.86 L 6954.74,3513.72 L 6948.56,3502.15 L 6944.75,3489.59 L 6943.46,3476.54 z " style="fill-opacity:1.000000;fill:rgb(77,61,52);stroke:rgb(0,0,0);stroke-width:2"/></g>
<g fill-rule="evenodd"><path d="M 7143.46,3476.54 L 7144.75,3463.48 L 7148.56,3450.92 L 7154.74,3439.35 L 7163.07,3429.21 L 7173.21,3420.89 L 7184.78,3414.7 L 7197.34,3410.89 L 7210.39,3409.61 L 7223.45,3410.89 L 7236.01,3414.7 L 7247.58,3420.89 L 7257.72,3429.21 L 7266.04,3439.35 L 7272.23,3450.92 L 7276.04,3463.48 L 7277.32,3476.54 L 7276.04,3489.59 L 7272.23,3502.15 L 7266.04,3513.72 L 7257.72,3523.86 L 7247.58,3532.18 L 7236.01,3538.37 L 7223.45,3542.18 L 7210.39,3543.46 L 7197.34,3542.18 L 7184.78,3538.37 L 7173.21,3532.18 L 7163.07,3523.86 L 7154.74,3513.72 L 7148.56,3502.15 L 7144.75,3489.59 L 7143.46,3476.54 z " style="fill-opacity:1.000000;fill:rgb(188,95,78);stroke:rgb(0,0,0);stroke-width:2"/></g>
<g fill-rule="evenodd"><path d="M 7193.07,2435.59 L 7194.28,2423.3 L 7197.87,2411.48 L 7203.69,2400.59 L 7211.52,2391.05 L 7221.07,2383.21 L 7231.96,2377.39 L 7243.77,2373.81 L 7256.06,2372.6 L 7268.35,2373.81 L 7280.17,2377.39 L 7291.06,2383.21 L 7300.61,2391.05 L 7308.44,2400.59 L 7314.26,2411.48 L 7317.84,2423.3 L 7319.06,2435.59 L 7317.84,2447.88 L 7314.26,2459.7 L 7308.44,2470.59 L 7300.61,2480.13 L 7291.06,2487.97 L 7280.17,2493.79 L 7268.35,2497.37 L 7256.06,2498.58 L 7243.77,2497.37 L 7231.96,2493.79 L 7221.07,2487.97 L 7211.52,2480.13 L 7203.69,2470.59 L 7197.87,2459.7 L 7194.28,2447.88 L 7193.07,2435.59 z " style="fill-opacity:1.000000;fill:rgb(119,250,203);stroke:rgb(0,0,0);stroke-width:2"/></g>
<g fill-rule="evenodd"><path d="M 7193.07,2235.59 L 7194.28,2223.3 L 7197.87,2211.48 L 7203.69,2200.59 L 7211.52,2191.05 L 7221.07,2183.21 L 7231.96,2177.39 L 7243.77,2173.81 L 7256.06,2172.6 L 7268.35,2173.81 L 7280.17,2177.39 L 7291.06,2183.21 L 7300.61,2191.05 L 7308.44,2200.59 L 7314.26,2211.48 L 7317.84,2223.3 L 7319.06,2235.59 L 7317.84,2247.88 L 7314.26,2259.7 L 7308.44,2270.59 L 7300.61,2280.13 L 7291.06,2287.97 L 7280.17,2293.79 L 7268.35,2297.37 L 7256.06,2298.58 L 7243.77,2297.37 L 7231.96,2293.79 L 7221.07,2287.97 L 7211.52,2280.13 L 7203.69,2270.59 L 7197.87,2259.7 L 7194.28,2247.88 L 7193.07,2235.59 z " style="fill-opacity:1.000000;fill:rgb(108,5,172);stroke:rgb(0,0,0);stroke-width:2"/></g>
<g fill-rule="evenodd"><path d="M 7193.07,2035.59 L 7194.28,2023.3 L 7197.87,2011.48 L 7203.69,2000.59 L 7211.52,1991.05 L 7221.07,1983.21 L 7231.96,1977.39 L 7243.77,1973.81 L 7256.06,1972.6 L 7268.35,1973.81 L 7280.17,1977.39 L 7291.06,1983.21 L 7300.61,1991.05 L 7308.44,2000.59 L 7314.26,2011.48 L 7317.84,2023.3 L 7319.06,2035.59 L 7317.84,2047.88 L 7314.26,2059.7 L 7308.44,2070.59 L 7300.61,2080.13 L 7291.06,2087.97 L 7280.17,2093.79 L 7268.35,2097.37 L 7256.06,2098.58 L 7243.77,2097.37 L 7231.96,2093.79 L 7221.07,2087.97 L 7211.52,2080.13 L 7203.69,2070.59 L 7197.87,2059.7 L 7194.28,2047.88 L 7193.07,2035.59 z " style="fill-opacity:1.000000;fill:rgb(134,33,43);stroke:rgb(0,0,0);stroke-width:2"/></g>
<g fill-rule="evenodd"><path d="M 7193.07,1835.59 L 7194.28,1823.3 L 7197.87,1811.48 L 7203.69,1800.59 L 7211.52,1791.05 L 7221.07,1783.21 L 7231.96,1777.39 L 7243.77,1773.81 L 7256.06,1772.6 L 7268.35,1773.81 L 7280.17,1777.39 L 7291.06,1783.21 L 7300.61,1791.05 L 7308.44,1800.59 L 7314.26,1811.48 L 7317.84,1823.3 L 7319.06,1835.59 L 7317.84,1847.88 L 7314.26,1859.7 L 7308.44,1870.59 L 7300.61,1880.13 L 7291.06,1887.97 L 7280.17,1893.79 L 7268.35,1897.37 L 7256.06,1898.58 L 7243.77,1897.37 L 7231.96,1893.79 L 7221.07,1887.97 L 7211.52,1880.13 L 7203.69,1870.59 L 7197.87,1859.7 L 7194.28,1847.88 L 7193.07,1835.59 z " style="fill-opacity:1.000000;fill:rgb(170,26,85);stroke:rgb(0,0,0);stroke-width:2"/></g>
<g fill-rule="evenodd"><path d="M 7193.07,1635.59 L 7194.28,1623.3 L 7197.87,1611.48 L 7203.69,1600.59 L 7211.52,1591.05 L 7221.07,1583.21 L 7231.96,1577.39 L 7243.77,1573.81 L 7256.06,1572.6 L 7268.35,1573.81 L 7280.17,1577.39 L 7291.06,1583.21 L 7300.61,1591.05 L 7308.44,1600.59 L 7314.26,1611.48 L 7317.84,1623.3 L 7319.06,1635.59 L 7317.84,1647.88 L 7314.26,1659.7 L 7308.44,1670.59 L 7300.61,1680.13 L 7291.06,1687.97 L 7280.17,1693.79 L 7268.35,1697.37 L 7256.06,1698.58 L 7243.77,1697.37 L 7231.96,1693.79 L 7221.07,1687.97 L 7211.52,1680.13 L 7203.69,1670.59 L 7197.87,1659.7 L 7194.28,1647.88 L 7193.07,1635.59 z " style="fill-opacity:1.000000;fill:rgb(162,190,112);stroke:rgb(0,0,0);stroke-width:2"/></g>
<g fill-rule="evenodd"><path d="M 7193.07,1435.59 L 7194.28,1423.3 L 7197.87,1411.48 L 7203.69,1400.59 L 7211.52,1391.05 L 7221.07,1383.21 L 7231.96,1377.39 L 7243.77,1373.81 L 7256.06,1372.6 L 7268.35,1373.81 L 7280.17,1377.39 L 7291.06,1383.21 L 7300.61,1391.05 L 7308.44,1400.59 L 7314.26,1411.48 L 7317.84,1423.3 L 7319.06,1435.59 L 7317.84,1447.88 L 7314.26,1459.7 L 7308.44,1470.59 L 7300.61,1480.13 L 7291.06,1487.97 L 7280.17,1493.79 L 7268.35,1497.37 L 7256.06,1498.58 L 7243.77,1497.37 L 7231.96,1493.79 L 7221.07,1487.97 L 7211.52,1480.13 L 7203.69,1470.59 L 7197.87,1459.7 L 7194.28,1447.88 L 7193.07,1435.59 z " style="fill-opacity:1.000000;fill:rgb(181,115,59);stroke:rgb(0,0,0);stroke-width:2"/></g>
</svg>
