<?xml version="1.0" standalone="no"?>
<!DOCTYPE svg PUBLIC "-//W3C//DTD SVG 1.1//EN"
"http://www.w3.org/Graphics/SVG/1.1/DTD/svg11.dtd">
<svg width="374.362" height="185.386" viewBox="0 0 7799.21 3862.2" version="1.1"
xmlns="http://www.w3.org/2000/svg"
xmlns:xlink="http://www.w3.org/1999/xlink">
<g fill-rule="evenodd"><path d="M 120.079,159.449 L 120.835,151.768 L 123.076,144.383 L 126.714,137.576 L 131.61,131.61 L 137.576,126.714 L 144.383,123.076 L 151.768,120.835 L 159.449,120.079 L 167.13,120.835 L 174.515,123.076 L 181.322,126.714 L 187.288,131.61 L 192.184,137.576 L 195.822,144.383 L 198.062,151.768 L 198.819,159.449 L 198.062,167.13 L 195.822,174.515 L 192.184,181.322 L 187.288,187.288 L 181.322,192.184 L 174.515,195.822 L 167.13,198.062 L 159.449,198.819 L 151.768,198.062 L 144.383,195.822 L 137.576,192.184 L 131.61,187.288 L 126.714,181.322 L 123.076,174.515 L 120.835,167.13 L 120.079,159.449 z " style="fill-opacity:1.000000;fill:rgb(103,198,105);stroke:rgb(0,0,0);stroke-width:2"/></g>
<g fill-rule="evenodd"><path d="M 407.48,3454.72 L 407.48,3320.87 L 541.339,3320.87 L 541.339,3372.05 L 597.814,3372.05 L 904.653,3065.21 L 904.653,1563.86 L 904.955,1560.78 L 905.852,1557.83 L 907.307,1555.11 L 909.265,1552.72 L 1080.71,1381.28 L 1080.71,1322.54 L 1072.35,1320.01 L 1061.46,1314.19 L 1051.91,1306.35 L 1044.08,1296.81 L 1038.26,1285.92 L 1034.67,1274.1 L 1033.46,1261.81 L 1034.67,1249.52 L 1038.26,1237.7 L 1044.08,1226.81 L 1051.91,1217.27 L 1061.46,1209.43 L 1072.35,1203.61 L 1080.71,1201.08 L 1080.71,1151.44 L 1077.4,1150.8 L 1075.12,1149.85 L 1071.13,1146.95 L 1008.16,1083.98 L 1006.2,1081.59 L 1004.74,1078.87 L 1003.85,1075.91 L 1003.54,1072.84 L 1003.54,1007.58 L 995.185,1005.05 L 984.295,999.226 L 974.749,991.393 L 966.915,981.847 L 961.094,970.956 L 957.51,959.14 L 956.299,946.85 L 957.51,934.561 L 961.094,922.744 L 966.915,911.854 L 974.749,902.308 L 984.295,894.474 L 995.185,888.653 L 1007,885.069 L 1019.29,883.858 L 1031.58,885.069 L 1043.4,888.653 L 1054.29,894.474 L 1063.83,902.308 L 1071.67,911.854 L 1077.49,922.744 L 1081.07,934.561 L 1082.28,946.85 L 1081.07,959.14 L 1077.49,970.956 L 1071.67,981.847 L 1063.83,991.393 L 1054.29,999.226 L 1043.4,1005.05 L 1035.04,1007.58 L 1035.04,1066.32 L 1088.79,1120.07 L 1096.45,1120.07 L 1099.53,1120.37 L 1102.48,1121.27 L 1105.2,1122.72 L 1107.59,1124.68 L 1109.55,1127.07 L 1111,1129.79 L 1111.9,1132.75 L 1112.2,1135.82 L 1112.2,1201.08 L 1120.56,1203.61 L 1131.45,1209.43 L 1141,1217.27 L 1148.83,1226.81 L 1154.65,1237.7 L 1158.24,1249.52 L 1159.45,1261.81 L 1158.24,1274.1 L 1154.65,1285.92 L 1148.83,1296.81 L 1141,1306.35 L 1131.45,1314.19 L 1120.56,1320.01 L 1112.2,1322.54 L 1112.2,1387.8 L 1111.9,1390.88 L 1111,1393.83 L 1109.55,1396.55 L 1107.59,1398.94 L 936.149,1570.38 L 936.149,3071.73 L 935.846,3074.8 L 934.95,3077.76 L 933.495,3080.48 L 931.536,3082.87 L 613.593,3400.54 L 609.203,3402.77 L 604.337,3403.54 L 541.339,3403.54 L 541.339,3454.72 L 407.48,3454.72 z " style="fill-opacity:1.000000;fill:rgb(115,81,255);stroke:rgb(0,0,0);stroke-width:2"/></g>
<g fill-rule="evenodd"><path d="M 407.48,3187.8 L 408.766,3174.74 L 412.575,3162.18 L 418.76,3150.61 L 427.083,3140.47 L 437.226,3132.15 L 448.797,3125.96 L 461.352,3122.15 L 474.409,3120.87 L 487.467,3122.15 L 500.022,3125.96 L 511.593,3132.15 L 521.735,3140.47 L 530.059,3150.61 L 536.244,3162.18 L 540.053,3174.74 L 541.339,3187.8 L 540.053,3200.85 L 536.244,3213.41 L 530.059,3224.98 L 521.735,3235.12 L 511.593,3243.44 L 500.022,3249.63 L 487.467,3253.44 L 474.409,3254.72 L 461.352,3253.44 L 448.797,3249.63 L 437.226,3243.44 L 427.083,3235.12 L 418.76,3224.98 L 412.575,3213.41 L 408.766,3200.85 L 407.48,3187.8 z " style="fill-opacity:1.000000;fill:rgb(74,236,41);stroke:rgb(0,0,0);stroke-width:2"/></g>
<g fill-rule="evenodd"><path d="M 407.48,2987.8 L 408.766,2974.74 L 412.575,2962.18 L 418.76,2950.61 L 427.083,2940.47 L 437.226,2932.15 L 448.797,2925.96 L 461.352,2922.15 L 474.409,2920.87 L 487.467,2922.15 L 500.022,2925.96 L 509.113,2930.82 L 825.905,2614.03 L 825.905,944.455 L 826.207,941.383 L 827.104,938.428 L 828.559,935.706 L 830.517,933.319 L 956.941,806.895 L 959.328,804.937 L 962.05,803.482 L 965.005,802.585 L 968.077,802.283 L 1252.68,802.283 L 1257.54,803.054 L 1259.83,803.999 L 1263.81,806.895 L 1664.65,1207.73 L 1672.35,1203.61 L 1684.17,1200.03 L 1696.46,1198.82 L 1708.75,1200.03 L 1720.56,1203.61 L 1731.45,1209.43 L 1741,1217.27 L 1748.83,1226.81 L 1754.65,1237.7 L 1758.24,1249.52 L 1759.45,1261.81 L 1758.24,1274.1 L 1754.65,1285.92 L 1748.83,1296.81 L 1741,1306.35 L 1731.45,1314.19 L 1720.56,1320.01 L 1708.75,1323.59 L 1696.46,1324.8 L 1684.17,1323.59 L 1672.35,1320.01 L 1661.46,1314.19 L 1651.91,1306.35 L 1644.08,1296.81 L 1638.26,1285.92 L 1634.67,1274.1 L 1633.46,1261.81 L 1634.67,1249.52 L 1638.26,1237.7 L 1642.38,1230 L 1246.15,833.779 L 974.6,833.779 L 857.401,950.978 L 857.401,2620.55 L 857.098,2623.62 L 856.202,2626.58 L 854.747,2629.3 L 852.788,2631.69 L 531.384,2953.09 L 536.244,2962.18 L 540.053,2974.74 L 541.339,2987.8 L 540.053,3000.85 L 536.244,3013.41 L 530.059,3024.98 L 521.735,3035.12 L 511.593,3043.44 L 500.022,3049.63 L 487.467,3053.44 L 474.409,3054.72 L 461.352,3053.44 L 448.797,3049.63 L 437.226,3043.44 L 427.083,3035.12 L 418.76,3024.98 L 412.575,3013.41 L 408.766,3000.85 L 407.48,2987.8 z " style="fill-opacity:1.000000;fill:rgb(205,186,171);stroke:rgb(0,0,0);stroke-width:2"/></g>
<g fill-rule="evenodd"><path d="M 407.48,2787.8 L 408.766,2774.74 L 412.575,2762.18 L 418.76,2750.61 L 427.083,2740.47 L 437.226,2732.15 L 448.797,2725.96 L 461.352,2722.15 L 474.409,2720.87 L 487.467,2722.15 L 500.022,2725.96 L 509.113,2730.82 L 747.149,2492.78 L 747.149,907.471 L 747.451,904.399 L 748.348,901.444 L 749.803,898.722 L 751.761,896.335 L 923.193,724.903 L 925.58,722.945 L 928.302,721.49 L 931.257,720.593 L 934.329,720.291 L 2170.68,720.291 L 2173.76,720.593 L 2176.71,721.49 L 2179.43,722.945 L 2181.82,724.903 L 2664.65,1207.73 L 2672.35,1203.61 L 2684.17,1200.03 L 2696.46,1198.82 L 2708.75,1200.03 L 2720.56,1203.61 L 2731.45,1209.43 L 2741,1217.27 L 2748.83,1226.81 L 2754.65,1237.7 L 2758.24,1249.52 L 2759.45,1261.81 L 2758.24,1274.1 L 2754.65,1285.92 L 2748.83,1296.81 L 2741,1306.35 L 2731.45,1314.19 L 2720.56,1320.01 L 2708.75,1323.59 L 2696.46,1324.8 L 2684.17,1323.59 L 2672.35,1320.01 L 2661.46,1314.19 L 2651.91,1306.35 L 2644.08,1296.81 L 2638.26,1285.92 L 2634.67,1274.1 L 2633.46,1261.81 L 2634.67,1249.52 L 2638.26,1237.7 L 2642.38,1230 L 2164.16,751.787 L 940.852,751.787 L 778.645,913.994 L 778.645,2499.31 L 778.342,2502.38 L 777.446,2505.33 L 775.991,2508.06 L 774.032,2510.44 L 531.384,2753.09 L 536.244,2762.18 L 540.053,2774.74 L 541.339,2787.8 L 540.053,2800.85 L 536.244,2813.41 L 530.059,2824.98 L 521.735,2835.12 L 511.593,2843.44 L 500.022,2849.63 L 487.467,2853.44 L 474.409,2854.72 L 461.352,2853.44 L 448.797,2849.63 L 437.226,2843.44 L 427.083,2835.12 L 418.76,2824.98 L 412.575,2813.41 L 408.766,2800.85 L 407.48,2787.8 z " style="fill-opacity:1.000000;fill:rgb(242,251,227);stroke:rgb(0,0,0);stroke-width:2"/></g>
<g fill-rule="evenodd"><path d="M 407.48,2587.8 L 408.766,2574.74 L 412.575,2562.18 L 418.76,2550.61 L 427.083,2540.47 L 437.226,2532.15 L 448.797,2525.96 L 461.352,2522.15 L 474.409,2520.87 L 487.467,2522.15 L 500.022,2525.96 L 511.593,2532.15 L 521.735,2540.47 L 530.059,2550.61 L 536.244,2562.18 L 540.053,2574.74 L 541.339,2587.8 L 540.053,2600.85 L 536.244,2613.41 L 530.059,2624.98 L 521.735,2635.12 L 511.593,2643.44 L 500.022,2649.63 L 487.467,2653.44 L 474.409,2654.72 L 461.352,2653.44 L 448.797,2649.63 L 437.226,2643.44 L 427.083,2635.12 L 418.76,2624.98 L 412.575,2613.41 L 408.766,2600.85 L 407.48,2587.8 z " style="fill-opacity:1.000000;fill:rgb(70,124,194);stroke:rgb(0,0,0);stroke-width:2"/></g>
<g fill-rule="evenodd"><path d="M 407.48,2387.8 L 408.766,2374.74 L 412.575,2362.18 L 418.76,2350.61 L 427.083,2340.47 L 437.226,2332.15 L 448.797,2325.96 L 461.352,2322.15 L 474.409,2320.87 L 487.467,2322.15 L 500.022,2325.96 L 509.112,2330.82 L 656.345,2183.59 L 656.345,881.685 L 656.647,878.613 L 657.544,875.658 L 658.999,872.936 L 660.957,870.549 L 885.571,645.935 L 889.557,643.039 L 894.243,641.517 L 5380.35,641.517 L 5385.04,643.039 L 5389.02,645.935 L 5562.51,819.423 L 5564.47,821.81 L 5565.93,824.532 L 5566.82,827.487 L 5567.12,830.559 L 5567.12,935.397 L 5675.75,1044.02 L 5677.71,1046.41 L 5679.16,1049.13 L 5680.06,1052.08 L 5680.36,1055.16 L 5680.36,1376.2 L 5796.93,1492.77 L 5804.63,1488.65 L 5816.45,1485.07 L 5828.74,1483.86 L 5841.03,1485.07 L 5852.85,1488.65 L 5863.74,1494.47 L 5873.28,1502.31 L 5881.12,1511.85 L 5886.94,1522.74 L 5890.52,1534.56 L 5891.73,1546.85 L 5890.52,1559.14 L 5886.94,1570.96 L 5882.82,1578.66 L 5966.4,1662.24 L 5968.36,1664.63 L 5969.82,1667.35 L 5970.71,1670.3 L 5971.01,1673.38 L 5971.01,1820.32 L 5970.82,1822.79 L 5969.3,1827.47 L 5966.4,1831.46 L 5882.82,1915.04 L 5886.94,1922.74 L 5890.52,1934.56 L 5891.73,1946.85 L 5890.52,1959.14 L 5886.94,1970.96 L 5881.12,1981.85 L 5873.28,1991.39 L 5863.74,1999.23 L 5852.85,2005.05 L 5841.03,2008.63 L 5828.74,2009.84 L 5816.45,2008.63 L 5804.63,2005.05 L 5793.74,1999.23 L 5784.2,1991.39 L 5776.36,1981.85 L 5770.54,1970.96 L 5766.96,1959.14 L 5765.75,1946.85 L 5766.96,1934.56 L 5770.54,1922.74 L 5776.36,1911.85 L 5784.2,1902.31 L 5793.74,1894.47 L 5804.63,1888.65 L 5816.45,1885.07 L 5828.74,1883.86 L 5841.03,1885.07 L 5852.85,1888.65 L 5860.55,1892.77 L 5939.52,1813.8 L 5939.52,1679.9 L 5860.55,1600.93 L 5852.85,1605.05 L 5841.03,1608.63 L 5828.74,1609.84 L 5816.45,1608.63 L 5804.63,1605.05 L 5793.74,1599.23 L 5784.2,1591.39 L 5776.36,1581.85 L 5770.54,1570.96 L 5766.96,1559.14 L 5765.75,1546.85 L 5766.96,1534.56 L 5770.54,1522.74 L 5774.66,1515.04 L 5653.48,1393.86 L 5651.52,1391.47 L 5650.06,1388.75 L 5649.17,1385.8 L 5648.86,1382.72 L 5648.86,1061.68 L 5540.24,953.056 L 5538.28,950.67 L 5536.83,947.947 L 5535.93,944.993 L 5535.63,941.921 L 5535.63,837.082 L 5371.37,672.819 L 903.23,672.819 L 687.841,888.208 L 687.841,2190.11 L 687.538,2193.18 L 686.642,2196.14 L 685.187,2198.86 L 683.228,2201.24 L 531.384,2353.09 L 536.244,2362.18 L 540.053,2374.74 L 541.339,2387.8 L 540.053,2400.85 L 536.244,2413.41 L 530.059,2424.98 L 521.735,2435.12 L 511.593,2443.44 L 500.022,2449.63 L 487.467,2453.44 L 474.409,2454.72 L 461.352,2453.44 L 448.797,2449.63 L 437.226,2443.44 L 427.083,2435.12 L 418.76,2424.98 L 412.575,2413.41 L 408.766,2400.85 L 407.48,2387.8 z " style="fill-opacity:1.000000;fill:rgb(84,248,27);stroke:rgb(0,0,0);stroke-width:2"/></g>
<g fill-rule="evenodd"><path d="M 407.48,2187.8 L 408.766,2174.74 L 412.575,2162.18 L 418.76,2150.61 L 427.083,2140.47 L 437.226,2132.15 L 448.797,2125.96 L 461.352,2122.15 L 474.409,2120.87 L 487.467,2122.15 L 500.022,2125.96 L 511.593,2132.15 L 521.735,2140.47 L 530.059,2150.61 L 536.244,2162.18 L 540.053,2174.74 L 541.339,2187.8 L 540.053,2200.85 L 536.244,2213.41 L 530.059,2224.98 L 521.735,2235.12 L 511.593,2243.44 L 500.022,2249.63 L 487.467,2253.44 L 474.409,2254.72 L 461.352,2253.44 L 448.797,2249.63 L 437.226,2243.44 L 427.083,2235.12 L 418.76,2224.98 L 412.575,2213.41 L 408.766,2200.85 L 407.48,2187.8 z " style="fill-opacity:1.000000;fill:rgb(232,231,141);stroke:rgb(0,0,0);stroke-width:2"/></g>
<g fill-rule="evenodd"><path d="M 407.48,1987.8 L 408.766,1974.74 L 412.575,1962.18 L 418.76,1950.61 L 427.083,1940.47 L 437.226,1932.15 L 448.797,1925.96 L 461.352,1922.15 L 474.409,1920.87 L 487.467,1922.15 L 500.022,1925.96 L 511.593,1932.15 L 521.735,1940.47 L 530.059,1950.61 L 536.244,1962.18 L 540.053,1974.74 L 541.339,1987.8 L 540.053,2000.85 L 536.244,2013.41 L 530.059,2024.98 L 521.735,2035.12 L 511.593,2043.44 L 500.022,2049.63 L 487.467,2053.44 L 474.409,2054.72 L 461.352,2053.44 L 448.797,2049.63 L 437.226,2043.44 L 427.083,2035.12 L 418.76,2024.98 L 412.575,2013.41 L 408.766,2000.85 L 407.48,1987.8 z " style="fill-opacity:1.000000;fill:rgb(118,90,46);stroke:rgb(0,0,0);stroke-width:2"/></g>
<g fill-rule="evenodd"><path d="M 407.48,1787.8 L 408.766,1774.74 L 412.575,1762.18 L 418.76,1750.61 L 427.083,1740.47 L 437.226,1732.15 L 448.797,1725.96 L 461.352,1722.15 L 474.409,1720.87 L 487.467,1722.15 L 500.022,1725.96 L 511.593,1732.15 L 521.735,1740.47 L 530.059,1750.61 L 536.244,1762.18 L 540.053,1774.74 L 541.339,1787.8 L 540.053,1800.85 L 536.244,1813.41 L 530.059,1824.98 L 521.735,1835.12 L 511.593,1843.44 L 500.022,1849.63 L 487.467,1853.44 L 474.409,1854.72 L 461.352,1853.44 L 448.797,1849.63 L 437.226,1843.44 L 427.083,1835.12 L 418.76,1824.98 L 412.575,1813.41 L 408.766,1800.85 L 407.48,1787.8 z " style="fill-opacity:1.000000;fill:rgb(99,51,159);stroke:rgb(0,0,0);stroke-width:2"/></g>
<g fill-rule="evenodd"><path d="M 407.48,1587.8 L 408.766,1574.74 L 412.575,1562.18 L 418.76,1550.61 L 427.083,1540.47 L 437.226,1532.15 L 448.797,1525.96 L 461.352,1522.15 L 474.409,1520.87 L 487.467,1522.15 L 500.022,1525.96 L 511.593,1532.15 L 521.735,1540.47 L 530.059,1550.61 L 536.244,1562.18 L 540.053,1574.74 L 541.339,1587.8 L 540.053,1600.85 L 536.244,1613.41 L 530.059,1624.98 L 521.735,1635.12 L 511.593,1643.44 L 500.022,1649.63 L 487.467,1653.44 L 474.409,1654.72 L 461.352,1653.44 L 448.797,1649.63 L 437.226,1643.44 L 427.083,1635.12 L 418.76,1624.98 L 412.575,1613.41 L 408.766,1600.85 L 407.48,1587.8 z " style="fill-opacity:1.000000;fill:rgb(201,154,102);stroke:rgb(0,0,0);stroke-width:2"/></g>
<g fill-rule="evenodd"><path d="M 407.48,1387.8 L 408.766,1374.74 L 412.575,1362.18 L 418.76,1350.61 L 427.083,1340.47 L 437.226,1332.15 L 448.797,1325.96 L 461.352,1322.15 L 474.409,1320.87 L 487.467,1322.15 L 500.022,1325.96 L 511.593,1332.15 L 521.735,1340.47 L 530.059,1350.61 L 536.244,1362.18 L 540.053,1374.74 L 541.339,1387.8 L 540.053,1400.85 L 536.244,1413.41 L 530.059,1424.98 L 521.735,1435.12 L 511.593,1443.44 L 500.022,1449.63 L 487.467,1453.44 L 474.409,1454.72 L 461.352,1453.44 L 448.797,1449.63 L 437.226,1443.44 L 427.083,1435.12 L 418.76,1424.98 L 412.575,1413.41 L 408.766,1400.85 L 407.48,1387.8 z " style="fill-opacity:1.000000;fill:rgb(50,13,183);stroke:rgb(0,0,0);stroke-width:2"/></g>
<g fill-rule="evenodd"><path d="M 407.48,1187.8 L 408.766,1174.74 L 412.575,1162.18 L 418.76,1150.61 L 427.083,1140.47 L 437.226,1132.15 L 448.797,1125.96 L 461.352,1122.15 L 474.409,1120.87 L 487.467,1122.15 L 500.022,1125.96 L 511.593,1132.15 L 521.735,1140.47 L 530.059,1150.61 L 536.244,1162.18 L 540.053,1174.74 L 541.339,1187.8 L 540.053,1200.85 L 536.244,1213.41 L 530.059,1224.98 L 521.735,1235.12 L 511.593,1243.44 L 500.022,1249.63 L 487.467,1253.44 L 474.409,1254.72 L 461.352,1253.44 L 448.797,1249.63 L 437.226,1243.44 L 427.083,1235.12 L 418.76,1224.98 L 412.575,1213.41 L 408.766,1200.85 L 407.48,1187.8 z " style="fill-opacity:1.000000;fill:rgb(49,88,163);stroke:rgb(0,0,0);stroke-width:2"/></g>
<g fill-rule="evenodd"><path d="M 407.48,987.795 L 408.766,974.738 L 412.575,962.183 L 418.76,950.611 L 427.083,940.469 L 437.226,932.146 L 448.797,925.961 L 461.352,922.152 L 474.409,920.866 L 487.467,922.152 L 500.022,925.961 L 511.593,932.146 L 521.735,940.469 L 530.059,950.611 L 536.244,962.183 L 540.053,974.738 L 541.339,987.795 L 540.053,1000.85 L 536.244,1013.41 L 530.059,1024.98 L 521.735,1035.12 L 511.593,1043.44 L 500.022,1049.63 L 487.467,1053.44 L 474.409,1054.72 L 461.352,1053.44 L 448.797,1049.63 L 437.226,1043.44 L 427.083,1035.12 L 418.76,1024.98 L 412.575,1013.41 L 408.766,1000.85 L 407.48,987.795 z " style="fill-opacity:1.000000;fill:rgb(90,37,93);stroke:rgb(0,0,0);stroke-width:2"/></g>
<g fill-rule="evenodd"><path d="M 407.48,787.795 L 408.766,774.738 L 412.575,762.183 L 418.76,750.611 L 427.083,740.469 L 437.226,732.146 L 448.797,725.961 L 461.352,722.152 L 474.409,720.866 L 487.467,722.152 L 500.022,725.961 L 511.593,732.146 L 521.735,740.469 L 530.059,750.611 L 536.244,762.183 L 539.236,772.046 L 597.814,772.047 L 805.115,564.745 L 809.101,561.849 L 811.384,560.904 L 816.251,560.133 L 5408.26,560.133 L 5410.72,560.327 L 5415.41,561.849 L 5419.39,564.745 L 5669.49,814.839 L 5671.45,817.226 L 5672.9,819.948 L 5673.8,822.903 L 5674.1,825.975 L 5674.1,868.109 L 5680.23,871.383 L 5686.19,876.279 L 5691.09,882.245 L 5694.73,889.052 L 5696.97,896.437 L 5697.72,904.118 L 5696.97,911.799 L 5694.73,919.184 L 5691.09,925.991 L 5686.19,931.957 L 5680.23,936.853 L 5673.42,940.491 L 5666.04,942.732 L 5658.35,943.488 L 5650.67,942.732 L 5643.29,940.491 L 5636.48,936.853 L 5630.52,931.957 L 5625.62,925.991 L 5621.98,919.184 L 5619.74,911.799 L 5618.98,904.118 L 5619.74,896.437 L 5621.98,889.052 L 5625.62,882.245 L 5630.52,876.279 L 5636.48,871.383 L 5642.6,868.11 L 5642.6,832.498 L 5401.74,591.629 L 822.774,591.629 L 615.472,798.93 L 613.086,800.889 L 610.363,802.344 L 607.409,803.24 L 604.337,803.543 L 539.237,803.542 L 536.244,813.408 L 530.059,824.979 L 521.735,835.121 L 511.593,843.445 L 500.022,849.63 L 487.467,853.438 L 474.409,854.724 L 461.352,853.438 L 448.797,849.63 L 437.226,843.445 L 427.083,835.121 L 418.76,824.979 L 412.575,813.408 L 408.766,800.853 L 407.48,787.795 z " style="fill-opacity:1.000000;fill:rgb(5,23,88);stroke:rgb(0,0,0);stroke-width:2"/></g>
<g fill-rule="evenodd"><path d="M 1033.46,2524.8 L 1033.46,2398.82 L 1159.45,2398.82 L 1159.45,2524.8 L 1033.46,2524.8 z " style="fill-opacity:1.000000;fill:rgb(233,94,212);stroke:rgb(0,0,0);stroke-width:2"/></g>
<g fill-rule="evenodd"><path d="M 1066.69,1673.62 L 1067.45,1665.94 L 1069.69,1658.56 L 1073.33,1651.75 L 1078.22,1645.78 L 1084.19,1640.89 L 1091,1637.25 L 1098.38,1635.01 L 1106.06,1634.25 L 1113.74,1635.01 L 1121.13,1637.25 L 1127.94,1640.89 L 1133.9,1645.78 L 1138.8,1651.75 L 1142.44,1658.56 L 1144.68,1665.94 L 1145.43,1673.62 L 1144.68,1681.3 L 1142.44,1688.69 L 1138.8,1695.49 L 1133.9,1701.46 L 1127.94,1706.36 L 1121.81,1709.63 L 1121.81,1938.9 L 1507.59,2324.68 L 1509.55,2327.07 L 1511,2329.79 L 1511.9,2332.75 L 1512.2,2335.82 L 1512.2,2401.08 L 1520.56,2403.61 L 1531.45,2409.43 L 1541,2417.27 L 1548.83,2426.81 L 1554.65,2437.7 L 1558.24,2449.52 L 1559.45,2461.81 L 1558.24,2474.1 L 1554.65,2485.92 L 1548.83,2496.81 L 1541,2506.35 L 1531.45,2514.19 L 1520.56,2520.01 L 1508.75,2523.59 L 1496.46,2524.8 L 1484.17,2523.59 L 1472.35,2520.01 L 1461.46,2514.19 L 1451.91,2506.35 L 1444.08,2496.81 L 1438.26,2485.92 L 1434.67,2474.1 L 1433.46,2461.81 L 1434.67,2449.52 L 1438.26,2437.7 L 1444.08,2426.81 L 1451.91,2417.27 L 1461.46,2409.43 L 1472.35,2403.61 L 1480.71,2401.08 L 1480.71,2342.34 L 1094.93,1956.56 L 1092.97,1954.17 L 1091.51,1951.45 L 1090.62,1948.5 L 1090.31,1945.42 L 1090.31,1709.63 L 1084.19,1706.36 L 1078.22,1701.46 L 1073.33,1695.49 L 1069.69,1688.69 L 1067.45,1681.3 L 1066.69,1673.62 z " style="fill-opacity:1.000000;fill:rgb(171,178,205);stroke:rgb(0,0,0);stroke-width:2"/></g>
<g fill-rule="evenodd"><path d="M 1233.46,2461.81 L 1234.67,2449.52 L 1238.26,2437.7 L 1244.08,2426.81 L 1251.91,2417.27 L 1261.46,2409.43 L 1272.35,2403.61 L 1284.17,2400.03 L 1296.46,2398.82 L 1308.75,2400.03 L 1320.56,2403.61 L 1331.45,2409.43 L 1341,2417.27 L 1348.83,2426.81 L 1354.65,2437.7 L 1358.24,2449.52 L 1359.45,2461.81 L 1358.24,2474.1 L 1354.65,2485.92 L 1348.83,2496.81 L 1341,2506.35 L 1331.45,2514.19 L 1320.56,2520.01 L 1308.75,2523.59 L 1296.46,2524.8 L 1284.17,2523.59 L 1272.35,2520.01 L 1261.46,2514.19 L 1251.91,2506.35 L 1244.08,2496.81 L 1238.26,2485.92 L 1234.67,2474.1 L 1233.46,2461.81 z " style="fill-opacity:1.000000;fill:rgb(198,155,180);stroke:rgb(0,0,0);stroke-width:2"/></g>
<g fill-rule="evenodd"><path d="M 1233.46,1261.81 L 1234.67,1249.52 L 1238.26,1237.7 L 1244.08,1226.81 L 1251.91,1217.27 L 1261.46,1209.43 L 1272.35,1203.61 L 1284.17,1200.03 L 1296.46,1198.82 L 1308.75,1200.03 L 1320.56,1203.61 L 1331.45,1209.43 L 1341,1217.27 L 1348.83,1226.81 L 1354.65,1237.7 L 1358.24,1249.52 L 1359.45,1261.81 L 1358.24,1274.1 L 1354.65,1285.92 L 1348.83,1296.81 L 1341,1306.35 L 1331.45,1314.19 L 1320.56,1320.01 L 1308.75,1323.59 L 1296.46,1324.8 L 1284.17,1323.59 L 1272.35,1320.01 L 1261.46,1314.19 L 1251.91,1306.35 L 1244.08,1296.81 L 1238.26,1285.92 L 1234.67,1274.1 L 1233.46,1261.81 z " style="fill-opacity:1.000000;fill:rgb(84,17,14);stroke:rgb(0,0,0);stroke-width:2"/></g>
<g fill-rule="evenodd"><path d="M 1294.23,1974.63 L 1294.98,1966.95 L 1297.23,1959.56 L 1300.86,1952.76 L 1305.76,1946.79 L 1311.73,1941.89 L 1318.53,1938.26 L 1325.92,1936.02 L 1333.6,1935.26 L 1341.28,1936.02 L 1348.66,1938.26 L 1355.47,1941.89 L 1361.44,1946.79 L 1366.33,1952.76 L 1369.97,1959.56 L 1372.21,1966.95 L 1372.97,1974.63 L 1372.21,1982.31 L 1370.58,1987.68 L 1707.59,2324.68 L 1709.55,2327.07 L 1711,2329.79 L 1711.9,2332.75 L 1712.2,2335.82 L 1712.2,2401.08 L 1720.56,2403.61 L 1731.45,2409.43 L 1741,2417.27 L 1748.83,2426.81 L 1754.65,2437.7 L 1758.24,2449.52 L 1759.45,2461.81 L 1758.24,2474.1 L 1754.65,2485.92 L 1748.83,2496.81 L 1741,2506.35 L 1731.45,2514.19 L 1720.56,2520.01 L 1708.75,2523.59 L 1696.46,2524.8 L 1684.17,2523.59 L 1672.35,2520.01 L 1661.46,2514.19 L 1651.91,2506.35 L 1644.08,2496.81 L 1638.26,2485.92 L 1634.67,2474.1 L 1633.46,2461.81 L 1634.67,2449.52 L 1638.26,2437.7 L 1644.08,2426.81 L 1651.91,2417.27 L 1661.46,2409.43 L 1672.35,2403.61 L 1680.71,2401.08 L 1680.71,2342.34 L 1349.12,2010.76 L 1341.28,2013.24 L 1333.6,2014 L 1325.92,2013.24 L 1318.53,2011 L 1311.73,2007.36 L 1305.76,2002.47 L 1300.86,1996.5 L 1297.23,1989.7 L 1294.98,1982.31 L 1294.23,1974.63 z " style="fill-opacity:1.000000;fill:rgb(130,116,65);stroke:rgb(0,0,0);stroke-width:2"/></g>
<g fill-rule="evenodd"><path d="M 1433.46,1261.81 L 1434.67,1249.52 L 1438.26,1237.7 L 1444.08,1226.81 L 1451.91,1217.27 L 1461.46,1209.43 L 1472.35,1203.61 L 1484.17,1200.03 L 1496.46,1198.82 L 1508.75,1200.03 L 1520.56,1203.61 L 1531.45,1209.43 L 1541,1217.27 L 1548.83,1226.81 L 1554.65,1237.7 L 1558.24,1249.52 L 1559.45,1261.81 L 1558.24,1274.1 L 1554.65,1285.92 L 1548.83,1296.81 L 1541,1306.35 L 1531.45,1314.19 L 1520.56,1320.01 L 1508.75,1323.59 L 1496.46,1324.8 L 1484.17,1323.59 L 1472.35,1320.01 L 1461.46,1314.19 L 1451.91,1306.35 L 1444.08,1296.81 L 1438.26,1285.92 L 1434.67,1274.1 L 1433.46,1261.81 z " style="fill-opacity:1.000000;fill:rgb(33,61,220);stroke:rgb(0,0,0);stroke-width:2"/></g>
<g fill-rule="evenodd"><path d="M 1573.54,2086.71 L 1574.29,2079.03 L 1576.53,2071.64 L 1580.17,2064.84 L 1585.07,2058.87 L 1591.03,2053.97 L 1597.84,2050.34 L 1605.22,2048.1 L 1612.91,2047.34 L 1620.59,2048.1 L 1627.97,2050.34 L 1634.78,2053.97 L 1640.74,2058.87 L 1645.64,2064.84 L 1648.91,2070.96 L 2265.04,2070.96 L 3042.38,1293.62 L 3038.26,1285.92 L 3034.67,1274.1 L 3033.46,1261.81 L 3034.67,1249.52 L 3038.26,1237.7 L 3044.08,1226.81 L 3051.91,1217.27 L 3061.46,1209.43 L 3072.35,1203.61 L 3084.17,1200.03 L 3096.46,1198.82 L 3108.75,1200.03 L 3120.56,1203.61 L 3131.45,1209.43 L 3141,1217.27 L 3148.83,1226.81 L 3154.65,1237.7 L 3158.24,1249.52 L 3159.45,1261.81 L 3158.24,1274.1 L 3154.65,1285.92 L 3148.83,1296.81 L 3141,1306.35 L 3131.45,1314.19 L 3120.56,1320.01 L 3108.75,1323.59 L 3096.46,1324.8 L 3084.17,1323.59 L 3072.35,1320.01 L 3064.65,1315.89 L 2282.69,2097.84 L 2280.31,2099.8 L 2277.59,2101.26 L 2274.63,2102.15 L 2271.56,2102.45 L 1648.92,2102.45 L 1645.64,2108.58 L 1640.74,2114.55 L 1634.78,2119.44 L 1627.97,2123.08 L 1620.59,2125.32 L 1612.91,2126.08 L 1605.22,2125.32 L 1597.84,2123.08 L 1591.03,2119.44 L 1585.07,2114.55 L 1580.17,2108.58 L 1576.53,2101.77 L 1574.29,2094.39 L 1573.54,2086.71 z " style="fill-opacity:1.000000;fill:rgb(135,112,233);stroke:rgb(0,0,0);stroke-width:2"/></g>
<g fill-rule="evenodd"><path d="M 1756.3,946.85 L 1757.51,934.561 L 1761.09,922.744 L 1766.92,911.854 L 1774.75,902.308 L 1784.29,894.474 L 1795.19,888.653 L 1807,885.069 L 1819.29,883.858 L 1831.58,885.069 L 1843.4,888.653 L 1854.29,894.474 L 1863.83,902.308 L 1871.67,911.854 L 1877.49,922.744 L 1881.07,934.561 L 1882.28,946.85 L 1881.07,959.14 L 1877.49,970.956 L 1871.67,981.847 L 1863.83,991.393 L 1854.29,999.226 L 1843.4,1005.05 L 1831.58,1008.63 L 1819.29,1009.84 L 1807,1008.63 L 1795.19,1005.05 L 1784.29,999.226 L 1774.75,991.393 L 1766.92,981.847 L 1761.09,970.956 L 1757.51,959.14 L 1756.3,946.85 z " style="fill-opacity:1.000000;fill:rgb(62,161,65);stroke:rgb(0,0,0);stroke-width:2"/></g>
<g fill-rule="evenodd"><path d="M 1833.46,2461.81 L 1834.67,2449.52 L 1838.26,2437.7 L 1844.08,2426.81 L 1851.91,2417.27 L 1861.46,2409.43 L 1872.35,2403.61 L 1884.17,2400.03 L 1896.46,2398.82 L 1908.75,2400.03 L 1920.56,2403.61 L 1931.45,2409.43 L 1941,2417.27 L 1948.83,2426.81 L 1954.65,2437.7 L 1958.24,2449.52 L 1959.45,2461.81 L 1958.24,2474.1 L 1954.65,2485.92 L 1948.83,2496.81 L 1941,2506.35 L 1931.45,2514.19 L 1920.56,2520.01 L 1908.75,2523.59 L 1896.46,2524.8 L 1884.17,2523.59 L 1872.35,2520.01 L 1861.46,2514.19 L 1851.91,2506.35 L 1844.08,2496.81 L 1838.26,2485.92 L 1834.67,2474.1 L 1833.46,2461.81 z " style="fill-opacity:1.000000;fill:rgb(225,252,103);stroke:rgb(0,0,0);stroke-width:2"/></g>
<g fill-rule="evenodd"><path d="M 1833.46,1261.81 L 1834.67,1249.52 L 1838.26,1237.7 L 1844.08,1226.81 L 1851.91,1217.27 L 1861.46,1209.43 L 1872.35,1203.61 L 1884.17,1200.03 L 1896.46,1198.82 L 1908.75,1200.03 L 1920.56,1203.61 L 1931.45,1209.43 L 1941,1217.27 L 1948.83,1226.81 L 1954.65,1237.7 L 1958.24,1249.52 L 1959.45,1261.81 L 1958.24,1274.1 L 1954.65,1285.92 L 1948.83,1296.81 L 1941,1306.35 L 1931.45,1314.19 L 1920.56,1320.01 L 1908.75,1323.59 L 1896.46,1324.8 L 1884.17,1323.59 L 1872.35,1320.01 L 1861.46,1314.19 L 1851.91,1306.35 L 1844.08,1296.81 L 1838.26,1285.92 L 1834.67,1274.1 L 1833.46,1261.81 z " style="fill-opacity:1.000000;fill:rgb(62,1,126);stroke:rgb(0,0,0);stroke-width:2"/></g>
<g fill-rule="evenodd"><path d="M 2033.46,2461.81 L 2034.67,2449.52 L 2038.26,2437.7 L 2044.08,2426.81 L 2051.91,2417.27 L 2061.46,2409.43 L 2072.35,2403.61 L 2084.17,2400.03 L 2096.46,2398.82 L 2108.75,2400.03 L 2120.56,2403.61 L 2131.45,2409.43 L 2141,2417.27 L 2148.83,2426.81 L 2154.65,2437.7 L 2158.24,2449.52 L 2159.45,2461.81 L 2158.24,2474.1 L 2154.65,2485.92 L 2148.83,2496.81 L 2141,2506.35 L 2131.45,2514.19 L 2120.56,2520.01 L 2108.75,2523.59 L 2096.46,2524.8 L 2084.17,2523.59 L 2072.35,2520.01 L 2061.46,2514.19 L 2051.91,2506.35 L 2044.08,2496.81 L 2038.26,2485.92 L 2034.67,2474.1 L 2033.46,2461.81 z " style="fill-opacity:1.000000;fill:rgb(151,234,220);stroke:rgb(0,0,0);stroke-width:2"/></g>
<g fill-rule="evenodd"><path d="M 2033.46,1261.81 L 2034.67,1249.52 L 2038.26,1237.7 L 2044.08,1226.81 L 2051.91,1217.27 L 2061.46,1209.43 L 2072.35,1203.61 L 2084.17,1200.03 L 2096.46,1198.82 L 2108.75,1200.03 L 2120.56,1203.61 L 2131.45,1209.43 L 2141,1217.27 L 2148.83,1226.81 L 2154.65,1237.7 L 2158.24,1249.52 L 2159.45,1261.81 L 2158.24,1274.1 L 2154.65,1285.92 L 2148.83,1296.81 L 2141,1306.35 L 2131.45,1314.19 L 2120.56,1320.01 L 2108.75,1323.59 L 2096.46,1324.8 L 2084.17,1323.59 L 2072.35,1320.01 L 2061.46,1314.19 L 2051.91,1306.35 L 2044.08,1296.81 L 2038.26,1285.92 L 2034.67,1274.1 L 2033.46,1261.81 z " style="fill-opacity:1.000000;fill:rgb(107,150,143);stroke:rgb(0,0,0);stroke-width:2"/></g>
<g fill-rule="evenodd"><path d="M 2233.46,2461.81 L 2234.67,2449.52 L 2238.26,2437.7 L 2244.08,2426.81 L 2251.91,2417.27 L 2261.46,2409.43 L 2272.35,2403.61 L 2284.17,2400.03 L 2296.46,2398.82 L 2308.75,2400.03 L 2320.56,2403.61 L 2331.45,2409.43 L 2341,2417.27 L 2348.83,2426.81 L 2354.65,2437.7 L 2358.24,2449.52 L 2359.45,2461.81 L 2358.24,2474.1 L 2354.65,2485.92 L 2348.83,2496.81 L 2341,2506.35 L 2331.45,2514.19 L 2320.56,2520.01 L 2308.75,2523.59 L 2296.46,2524.8 L 2284.17,2523.59 L 2272.35,2520.01 L 2261.46,2514.19 L 2251.91,2506.35 L 2244.08,2496.81 L 2238.26,2485.92 L 2234.67,2474.1 L 2233.46,2461.81 z " style="fill-opacity:1.000000;fill:rgb(56,92,42);stroke:rgb(0,0,0);stroke-width:2"/></g>
<g fill-rule="evenodd"><path d="M 2233.46,1261.81 L 2234.67,1249.52 L 2238.26,1237.7 L 2244.08,1226.81 L 2251.91,1217.27 L 2261.46,1209.43 L 2272.35,1203.61 L 2284.17,1200.03 L 2296.46,1198.82 L 2308.75,1200.03 L 2320.56,1203.61 L 2331.45,1209.43 L 2341,1217.27 L 2348.83,1226.81 L 2354.65,1237.7 L 2358.24,1249.52 L 2359.45,1261.81 L 2358.24,1274.1 L 2354.65,1285.92 L 2348.83,1296.81 L 2341,1306.35 L 2331.45,1314.19 L 2320.56,1320.01 L 2308.75,1323.59 L 2296.46,1324.8 L 2284.17,1323.59 L 2272.35,1320.01 L 2261.46,1314.19 L 2251.91,1306.35 L 2244.08,1296.81 L 2238.26,1285.92 L 2234.67,1274.1 L 2233.46,1261.81 z " style="fill-opacity:1.000000;fill:rgb(236,176,59);stroke:rgb(0,0,0);stroke-width:2"/></g>
<g fill-rule="evenodd"><path d="M 2433.46,2461.81 L 2434.67,2449.52 L 2438.26,2437.7 L 2444.08,2426.81 L 2451.91,2417.27 L 2461.46,2409.43 L 2472.35,2403.61 L 2484.17,2400.03 L 2496.46,2398.82 L 2508.75,2400.03 L 2520.56,2403.61 L 2531.45,2409.43 L 2541,2417.27 L 2548.83,2426.81 L 2554.65,2437.7 L 2558.24,2449.52 L 2559.45,2461.81 L 2558.24,2474.1 L 2554.65,2485.92 L 2548.83,2496.81 L 2541,2506.35 L 2531.45,2514.19 L 2520.56,2520.01 L 2508.75,2523.59 L 2496.46,2524.8 L 2484.17,2523.59 L 2472.35,2520.01 L 2461.46,2514.19 L 2451.91,2506.35 L 2444.08,2496.81 L 2438.26,2485.92 L 2434.67,2474.1 L 2433.46,2461.81 z " style="fill-opacity:1.000000;fill:rgb(251,50,175);stroke:rgb(0,0,0);stroke-width:2"/></g>
<g fill-rule="evenodd"><path d="M 2433.46,1261.81 L 2434.67,1249.52 L 2438.26,1237.7 L 2444.08,1226.81 L 2451.91,1217.27 L 2461.46,1209.43 L 2472.35,1203.61 L 2484.17,1200.03 L 2496.46,1198.82 L 2508.75,1200.03 L 2520.56,1203.61 L 2531.45,1209.43 L 2541,1217.27 L 2548.83,1226.81 L 2554.65,1237.7 L 2558.24,1249.52 L 2559.45,1261.81 L 2558.24,1274.1 L 2554.65,1285.92 L 2548.83,1296.81 L 2541,1306.35 L 2531.45,1314.19 L 2520.56,1320.01 L 2508.75,1323.59 L 2496.46,1324.8 L 2484.17,1323.59 L 2472.35,1320.01 L 2461.46,1314.19 L 2451.91,1306.35 L 2444.08,1296.81 L 2438.26,1285.92 L 2434.67,1274.1 L 2433.46,1261.81 z " style="fill-opacity:1.000000;fill:rgb(60,84,236);stroke:rgb(0,0,0);stroke-width:2"/></g>
<g fill-rule="evenodd"><path d="M 2454.72,3454.72 L 2454.72,3320.87 L 2566.31,3320.87 L 2963.7,2923.48 L 2967.68,2920.58 L 2972.37,2919.06 L 3017.13,2918.86 L 3442.38,2493.62 L 3438.26,2485.92 L 3434.67,2474.1 L 3433.46,2461.81 L 3434.67,2449.52 L 3438.26,2437.7 L 3444.08,2426.81 L 3451.91,2417.27 L 3461.46,2409.43 L 3472.35,2403.61 L 3484.17,2400.03 L 3496.46,2398.82 L 3508.75,2400.03 L 3520.56,2403.61 L 3531.45,2409.43 L 3541,2417.27 L 3548.83,2426.81 L 3554.65,2437.7 L 3558.24,2449.52 L 3559.45,2461.81 L 3558.24,2474.1 L 3554.65,2485.92 L 3548.83,2496.81 L 3541,2506.35 L 3531.45,2514.19 L 3520.56,2520.01 L 3508.75,2523.59 L 3496.46,2524.8 L 3484.17,2523.59 L 3472.35,2520.01 L 3464.65,2515.89 L 3034.79,2945.75 L 3032.4,2947.71 L 3029.68,2949.16 L 3026.73,2950.06 L 3023.65,2950.36 L 2981.36,2950.36 L 2588.58,3343.14 L 2588.58,3454.72 L 2454.72,3454.72 z " style="fill-opacity:1.000000;fill:rgb(24,219,92);stroke:rgb(0,0,0);stroke-width:2"/></g>
<g fill-rule="evenodd"><path d="M 2633.46,2461.81 L 2634.67,2449.52 L 2638.26,2437.7 L 2644.08,2426.81 L 2651.91,2417.27 L 2661.46,2409.43 L 2672.35,2403.61 L 2684.17,2400.03 L 2696.46,2398.82 L 2708.75,2400.03 L 2720.56,2403.61 L 2731.45,2409.43 L 2741,2417.27 L 2748.83,2426.81 L 2754.65,2437.7 L 2758.24,2449.52 L 2759.45,2461.81 L 2758.24,2474.1 L 2754.65,2485.92 L 2748.83,2496.81 L 2741,2506.35 L 2731.45,2514.19 L 2720.56,2520.01 L 2708.75,2523.59 L 2696.46,2524.8 L 2684.17,2523.59 L 2672.35,2520.01 L 2661.46,2514.19 L 2651.91,2506.35 L 2644.08,2496.81 L 2638.26,2485.92 L 2634.67,2474.1 L 2633.46,2461.81 z " style="fill-opacity:1.000000;fill:rgb(2,26,254);stroke:rgb(0,0,0);stroke-width:2"/></g>
<g fill-rule="evenodd"><path d="M 2654.72,3387.8 L 2656.01,3374.74 L 2659.82,3362.18 L 2666,3350.61 L 2674.33,3340.47 L 2684.47,3332.15 L 2696.04,3325.96 L 2708.6,3322.15 L 2721.65,3320.87 L 2734.71,3322.15 L 2747.27,3325.96 L 2756.36,3330.82 L 3163.7,2923.48 L 3167.68,2920.58 L 3172.37,2919.06 L 3217.13,2918.86 L 3642.38,2493.62 L 3638.26,2485.92 L 3634.67,2474.1 L 3633.46,2461.81 L 3634.67,2449.52 L 3638.26,2437.7 L 3644.08,2426.81 L 3651.91,2417.27 L 3661.46,2409.43 L 3672.35,2403.61 L 3684.17,2400.03 L 3696.46,2398.82 L 3708.75,2400.03 L 3720.56,2403.61 L 3731.45,2409.43 L 3741,2417.27 L 3748.83,2426.81 L 3754.65,2437.7 L 3758.24,2449.52 L 3759.45,2461.81 L 3758.24,2474.1 L 3754.65,2485.92 L 3748.83,2496.81 L 3741,2506.35 L 3731.45,2514.19 L 3720.56,2520.01 L 3708.75,2523.59 L 3696.46,2524.8 L 3684.17,2523.59 L 3672.35,2520.01 L 3664.65,2515.89 L 3234.79,2945.75 L 3232.4,2947.71 L 3229.68,2949.16 L 3226.73,2950.06 L 3223.65,2950.36 L 3181.36,2950.36 L 2778.63,3353.09 L 2783.49,3362.18 L 2787.3,3374.74 L 2788.58,3387.8 L 2787.3,3400.85 L 2783.49,3413.41 L 2777.3,3424.98 L 2768.98,3435.12 L 2758.84,3443.44 L 2747.27,3449.63 L 2734.71,3453.44 L 2721.65,3454.72 L 2708.6,3453.44 L 2696.04,3449.63 L 2684.47,3443.44 L 2674.33,3435.12 L 2666,3424.98 L 2659.82,3413.41 L 2656.01,3400.85 L 2654.72,3387.8 z " style="fill-opacity:1.000000;fill:rgb(67,251,250);stroke:rgb(0,0,0);stroke-width:2"/></g>
<g fill-rule="evenodd"><path d="M 2833.46,2461.81 L 2834.67,2449.52 L 2838.26,2437.7 L 2844.08,2426.81 L 2851.91,2417.27 L 2861.46,2409.43 L 2872.35,2403.61 L 2884.17,2400.03 L 2896.46,2398.82 L 2908.75,2400.03 L 2920.56,2403.61 L 2931.45,2409.43 L 2941,2417.27 L 2948.83,2426.81 L 2954.65,2437.7 L 2958.24,2449.52 L 2959.45,2461.81 L 2958.24,2474.1 L 2954.65,2485.92 L 2948.83,2496.81 L 2941,2506.35 L 2931.45,2514.19 L 2920.56,2520.01 L 2908.75,2523.59 L 2896.46,2524.8 L 2884.17,2523.59 L 2872.35,2520.01 L 2861.46,2514.19 L 2851.91,2506.35 L 2844.08,2496.81 L 2838.26,2485.92 L 2834.67,2474.1 L 2833.46,2461.81 z " style="fill-opacity:1.000000;fill:rgb(170,58,251);stroke:rgb(0,0,0);stroke-width:2"/></g>
<g fill-rule="evenodd"><path d="M 2833.46,1261.81 L 2834.67,1249.52 L 2838.26,1237.7 L 2844.08,1226.81 L 2851.91,1217.27 L 2861.46,1209.43 L 2872.35,1203.61 L 2884.17,1200.03 L 2896.46,1198.82 L 2908.75,1200.03 L 2920.56,1203.61 L 2928.26,1207.73 L 3408.67,727.327 L 3411.05,725.369 L 3413.78,723.914 L 3416.73,723.017 L 3419.8,722.715 L 5347.92,722.715 L 5350.38,722.909 L 5355.07,724.431 L 5359.06,727.327 L 5483.76,852.037 L 5485.72,854.424 L 5487.18,857.146 L 5488.07,860.101 L 5488.38,863.173 L 5488.38,968.012 L 5597,1076.64 L 5598.96,1079.02 L 5600.41,1081.74 L 5601.31,1084.7 L 5601.61,1087.77 L 5601.61,1936.84 L 5713.87,2049.1 L 5715.83,2051.49 L 5717.29,2054.21 L 5718.18,2057.16 L 5718.49,2060.23 L 5718.49,2620.87 L 5854.81,2757.19 L 5861.45,2755.17 L 5869.13,2754.42 L 5876.81,2755.17 L 5884.2,2757.41 L 5891.01,2761.05 L 5896.97,2765.95 L 5901.87,2771.91 L 5905.51,2778.72 L 5907.75,2786.11 L 5908.5,2793.79 L 5907.75,2801.47 L 5905.51,2808.85 L 5901.87,2815.66 L 5896.97,2821.63 L 5891.01,2826.52 L 5884.2,2830.16 L 5876.81,2832.4 L 5869.13,2833.16 L 5861.45,2832.4 L 5854.07,2830.16 L 5847.26,2826.52 L 5841.3,2821.63 L 5836.4,2815.66 L 5832.76,2808.85 L 5830.52,2801.47 L 5829.76,2793.79 L 5830.52,2786.11 L 5832.54,2779.46 L 5691.6,2638.53 L 5689.64,2636.14 L 5688.19,2633.42 L 5687.29,2630.47 L 5686.99,2627.39 L 5686.99,2066.76 L 5574.73,1954.5 L 5572.77,1952.11 L 5571.32,1949.39 L 5570.42,1946.43 L 5570.12,1943.36 L 5570.12,1094.29 L 5461.49,985.67 L 5459.53,983.284 L 5458.08,980.561 L 5457.18,977.607 L 5456.88,974.535 L 5456.88,869.696 L 5341.4,754.211 L 3426.33,754.211 L 2950.54,1230 L 2954.65,1237.7 L 2958.24,1249.52 L 2959.45,1261.81 L 2958.24,1274.1 L 2954.65,1285.92 L 2948.83,1296.81 L 2941,1306.35 L 2931.45,1314.19 L 2920.56,1320.01 L 2908.75,1323.59 L 2896.46,1324.8 L 2884.17,1323.59 L 2872.35,1320.01 L 2861.46,1314.19 L 2851.91,1306.35 L 2844.08,1296.81 L 2838.26,1285.92 L 2834.67,1274.1 L 2833.46,1261.81 z " style="fill-opacity:1.000000;fill:rgb(41,209,230);stroke:rgb(0,0,0);stroke-width:2"/></g>
<g fill-rule="evenodd"><path d="M 2854.72,3387.8 L 2856.01,3374.74 L 2859.82,3362.18 L 2866,3350.61 L 2874.33,3340.47 L 2884.47,3332.15 L 2896.04,3325.96 L 2908.6,3322.15 L 2921.65,3320.87 L 2934.71,3322.15 L 2947.27,3325.96 L 2956.36,3330.82 L 3056.16,3231.01 L 3058.55,3229.05 L 3061.27,3227.6 L 3064.23,3226.7 L 3067.3,3226.4 L 3109.59,3226.4 L 3842.38,2493.62 L 3838.26,2485.92 L 3834.67,2474.1 L 3833.46,2461.81 L 3834.67,2449.52 L 3838.26,2437.7 L 3844.08,2426.81 L 3851.91,2417.27 L 3861.46,2409.43 L 3872.35,2403.61 L 3884.17,2400.03 L 3896.46,2398.82 L 3908.75,2400.03 L 3920.56,2403.61 L 3931.45,2409.43 L 3941,2417.27 L 3948.83,2426.81 L 3954.65,2437.7 L 3958.24,2449.52 L 3959.45,2461.81 L 3958.24,2474.1 L 3954.65,2485.92 L 3948.83,2496.81 L 3941,2506.35 L 3931.45,2514.19 L 3920.56,2520.01 L 3908.75,2523.59 L 3896.46,2524.8 L 3884.17,2523.59 L 3872.35,2520.01 L 3864.65,2515.89 L 3127.25,3253.28 L 3124.87,3255.24 L 3122.14,3256.7 L 3119.19,3257.59 L 3116.12,3257.9 L 3073.82,3257.9 L 2978.63,3353.09 L 2983.49,3362.18 L 2987.3,3374.74 L 2988.58,3387.8 L 2987.3,3400.85 L 2983.49,3413.41 L 2977.3,3424.98 L 2968.98,3435.12 L 2958.84,3443.44 L 2947.27,3449.63 L 2934.71,3453.44 L 2921.65,3454.72 L 2908.6,3453.44 L 2896.04,3449.63 L 2884.47,3443.44 L 2874.33,3435.12 L 2866,3424.98 L 2859.82,3413.41 L 2856.01,3400.85 L 2854.72,3387.8 z " style="fill-opacity:1.000000;fill:rgb(5,60,124);stroke:rgb(0,0,0);stroke-width:2"/></g>
<g fill-rule="evenodd"><path d="M 3033.46,2461.81 L 3034.67,2449.52 L 3038.26,2437.7 L 3044.08,2426.81 L 3051.91,2417.27 L 3061.46,2409.43 L 3072.35,2403.61 L 3084.17,2400.03 L 3096.46,2398.82 L 3108.75,2400.03 L 3120.56,2403.61 L 3131.45,2409.43 L 3141,2417.27 L 3148.83,2426.81 L 3154.65,2437.7 L 3158.24,2449.52 L 3159.45,2461.81 L 3158.24,2474.1 L 3154.65,2485.92 L 3148.83,2496.81 L 3141,2506.35 L 3131.45,2514.19 L 3120.56,2520.01 L 3108.75,2523.59 L 3096.46,2524.8 L 3084.17,2523.59 L 3072.35,2520.01 L 3061.46,2514.19 L 3051.91,2506.35 L 3044.08,2496.81 L 3038.26,2485.92 L 3034.67,2474.1 L 3033.46,2461.81 z " style="fill-opacity:1.000000;fill:rgb(148,117,216);stroke:rgb(0,0,0);stroke-width:2"/></g>
<g fill-rule="evenodd"><path d="M 3054.72,3387.8 L 3056.01,3374.74 L 3059.82,3362.18 L 3066,3350.61 L 3074.33,3340.47 L 3084.47,3332.15 L 3096.04,3325.96 L 3108.6,3322.15 L 3121.65,3320.87 L 3134.71,3322.15 L 3147.27,3325.96 L 3156.36,3330.82 L 3910.5,2576.68 L 3912.89,2574.72 L 3915.61,2573.26 L 3918.56,2572.37 L 3921.64,2572.06 L 4144.84,2572.06 L 4206.79,2510.11 L 4206.79,1520.4 L 4083.71,1397.06 L 4081.48,1392.67 L 4080.71,1387.8 L 4080.71,1322.54 L 4072.35,1320.01 L 4061.46,1314.19 L 4051.91,1306.35 L 4044.08,1296.81 L 4038.26,1285.92 L 4034.67,1274.1 L 4033.46,1261.81 L 4034.67,1249.52 L 4038.26,1237.7 L 4044.08,1226.81 L 4051.91,1217.27 L 4061.46,1209.43 L 4072.35,1203.61 L 4084.17,1200.03 L 4096.46,1198.82 L 4108.75,1200.03 L 4120.56,1203.61 L 4131.45,1209.43 L 4141,1217.27 L 4148.83,1226.81 L 4154.65,1237.7 L 4158.24,1249.52 L 4159.45,1261.81 L 4158.24,1274.1 L 4154.65,1285.92 L 4148.83,1296.81 L 4141,1306.35 L 4131.45,1314.19 L 4120.56,1320.01 L 4112.2,1322.54 L 4112.2,1381.28 L 4233.67,1502.75 L 4236.57,1506.73 L 4238.09,1511.42 L 4238.28,2516.64 L 4237.98,2519.71 L 4237.08,2522.66 L 4235.63,2525.39 L 4233.67,2527.77 L 4162.5,2598.95 L 4160.62,2600.55 L 4156.23,2602.79 L 4151.36,2603.56 L 3928.16,2603.56 L 3178.63,3353.09 L 3183.49,3362.18 L 3187.3,3374.74 L 3188.58,3387.8 L 3187.3,3400.85 L 3183.49,3413.41 L 3177.3,3424.98 L 3168.98,3435.12 L 3158.84,3443.44 L 3147.27,3449.63 L 3134.71,3453.44 L 3121.65,3454.72 L 3108.6,3453.44 L 3096.04,3449.63 L 3084.47,3443.44 L 3074.33,3435.12 L 3066,3424.98 L 3059.82,3413.41 L 3056.01,3400.85 L 3054.72,3387.8 z " style="fill-opacity:1.000000;fill:rgb(190,97,137);stroke:rgb(0,0,0);stroke-width:2"/></g>
<g fill-rule="evenodd"><path d="M 3233.46,2461.81 L 3234.67,2449.52 L 3238.26,2437.7 L 3244.08,2426.81 L 3251.91,2417.27 L 3261.46,2409.43 L 3272.35,2403.61 L 3284.17,2400.03 L 3296.46,2398.82 L 3308.75,2400.03 L 3320.56,2403.61 L 3331.45,2409.43 L 3341,2417.27 L 3348.83,2426.81 L 3354.65,2437.7 L 3358.24,2449.52 L 3359.45,2461.81 L 3358.24,2474.1 L 3354.65,2485.92 L 3348.83,2496.81 L 3341,2506.35 L 3331.45,2514.19 L 3320.56,2520.01 L 3308.75,2523.59 L 3296.46,2524.8 L 3284.17,2523.59 L 3272.35,2520.01 L 3261.46,2514.19 L 3251.91,2506.35 L 3244.08,2496.81 L 3238.26,2485.92 L 3234.67,2474.1 L 3233.46,2461.81 z " style="fill-opacity:1.000000;fill:rgb(249,92,187);stroke:rgb(0,0,0);stroke-width:2"/></g>
<g fill-rule="evenodd"><path d="M 3233.46,1261.81 L 3234.67,1249.52 L 3238.26,1237.7 L 3244.08,1226.81 L 3251.91,1217.27 L 3261.46,1209.43 L 3272.35,1203.61 L 3284.17,1200.03 L 3296.46,1198.82 L 3308.75,1200.03 L 3320.56,1203.61 L 3328.26,1207.73 L 3649.14,886.855 L 3651.53,884.897 L 3654.25,883.442 L 3657.2,882.545 L 3660.27,882.243 L 4247.52,882.243 L 4250.59,882.545 L 4253.55,883.442 L 4256.27,884.897 L 4258.65,886.855 L 4548.76,1176.96 L 4551.65,1180.94 L 4553.17,1185.63 L 4553.37,2649.74 L 4553.07,2652.81 L 4552.17,2655.77 L 4550.71,2658.49 L 4548.76,2660.87 L 3940.63,3269 L 3937.4,3271.41 L 3937.4,3322.97 L 3947.27,3325.96 L 3958.84,3332.15 L 3968.98,3340.47 L 3977.3,3350.61 L 3983.49,3362.18 L 3987.3,3374.74 L 3988.58,3387.8 L 3987.3,3400.85 L 3983.49,3413.41 L 3977.3,3424.98 L 3968.98,3435.12 L 3958.84,3443.44 L 3947.27,3449.63 L 3934.71,3453.44 L 3921.65,3454.72 L 3908.6,3453.44 L 3896.04,3449.63 L 3884.47,3443.44 L 3874.33,3435.12 L 3866,3424.98 L 3859.82,3413.41 L 3856.01,3400.85 L 3854.72,3387.8 L 3856.01,3374.74 L 3859.82,3362.18 L 3866,3350.61 L 3874.33,3340.47 L 3884.47,3332.15 L 3896.04,3325.96 L 3905.9,3322.97 L 3905.9,3257.86 L 3906.21,3254.79 L 3907.1,3251.84 L 3908.56,3249.12 L 3910.52,3246.73 L 3912.9,3244.77 L 3915.63,3243.32 L 3918.58,3242.42 L 3922.97,3242.12 L 4521.87,2643.22 L 4521.87,1194.61 L 4241,913.739 L 3666.8,913.739 L 3350.54,1230 L 3354.65,1237.7 L 3358.24,1249.52 L 3359.45,1261.81 L 3358.24,1274.1 L 3354.65,1285.92 L 3348.83,1296.81 L 3341,1306.35 L 3331.45,1314.19 L 3320.56,1320.01 L 3308.75,1323.59 L 3296.46,1324.8 L 3284.17,1323.59 L 3272.35,1320.01 L 3261.46,1314.19 L 3251.91,1306.35 L 3244.08,1296.81 L 3238.26,1285.92 L 3234.67,1274.1 L 3233.46,1261.81 z " style="fill-opacity:1.000000;fill:rgb(168,153,15);stroke:rgb(0,0,0);stroke-width:2"/></g>
<g fill-rule="evenodd"><path d="M 3254.72,3387.8 L 3256.01,3374.74 L 3259.82,3362.18 L 3266,3350.61 L 3274.33,3340.47 L 3284.47,3332.15 L 3296.04,3325.96 L 3308.6,3322.15 L 3321.65,3320.87 L 3334.71,3322.15 L 3347.27,3325.96 L 3356.36,3330.82 L 3737.8,2949.38 L 3740.19,2947.42 L 3742.91,2945.96 L 3745.86,2945.07 L 3748.94,2944.76 L 3886.24,2944.76 L 4285.63,2545.37 L 4285.63,1292.46 L 4143.15,1149.98 L 4030.55,1149.98 L 3950.54,1230 L 3954.65,1237.7 L 3958.24,1249.52 L 3959.45,1261.81 L 3958.24,1274.1 L 3954.65,1285.92 L 3948.83,1296.81 L 3941,1306.35 L 3931.45,1314.19 L 3920.56,1320.01 L 3908.75,1323.59 L 3896.46,1324.8 L 3884.17,1323.59 L 3872.35,1320.01 L 3861.46,1314.19 L 3851.91,1306.35 L 3844.08,1296.81 L 3838.26,1285.92 L 3834.67,1274.1 L 3833.46,1261.81 L 3834.67,1249.52 L 3838.26,1237.7 L 3844.08,1226.81 L 3851.91,1217.27 L 3861.46,1209.43 L 3872.35,1203.61 L 3884.17,1200.03 L 3896.46,1198.82 L 3908.75,1200.03 L 3920.56,1203.61 L 3928.26,1207.73 L 4012.9,1123.1 L 4015.28,1121.14 L 4018,1119.69 L 4020.96,1118.79 L 4024.03,1118.49 L 4149.68,1118.49 L 4154.54,1119.26 L 4156.83,1120.2 L 4160.81,1123.1 L 4312.51,1274.8 L 4314.47,1277.19 L 4315.93,1279.91 L 4316.82,1282.86 L 4317.12,1285.94 L 4317.12,2551.9 L 4316.82,2554.97 L 4315.93,2557.92 L 4314.47,2560.65 L 4312.51,2563.03 L 3903.9,2971.65 L 3901.51,2973.6 L 3898.79,2975.06 L 3895.84,2975.96 L 3892.76,2976.26 L 3755.46,2976.26 L 3378.63,3353.09 L 3383.49,3362.18 L 3387.3,3374.74 L 3388.58,3387.8 L 3387.3,3400.85 L 3383.49,3413.41 L 3377.3,3424.98 L 3368.98,3435.12 L 3358.84,3443.44 L 3347.27,3449.63 L 3334.71,3453.44 L 3321.65,3454.72 L 3308.6,3453.44 L 3296.04,3449.63 L 3284.47,3443.44 L 3274.33,3435.12 L 3266,3424.98 L 3259.82,3413.41 L 3256.01,3400.85 L 3254.72,3387.8 z " style="fill-opacity:1.000000;fill:rgb(149,177,235);stroke:rgb(0,0,0);stroke-width:2"/></g>
<g fill-rule="evenodd"><path d="M 3433.46,1261.81 L 3434.67,1249.52 L 3438.26,1237.7 L 3444.08,1226.81 L 3451.91,1217.27 L 3461.46,1209.43 L 3472.35,1203.61 L 3484.17,1200.03 L 3496.46,1198.82 L 3508.75,1200.03 L 3520.56,1203.61 L 3528.26,1207.73 L 3770.39,965.603 L 3772.78,963.645 L 3775.5,962.19 L 3778.45,961.293 L 3781.53,960.991 L 4217.37,961.185 L 4222.05,962.707 L 4226.04,965.603 L 4470.01,1209.57 L 4471.97,1211.96 L 4473.42,1214.68 L 4474.32,1217.63 L 4474.62,1220.71 L 4474.62,2617.12 L 4474.32,2620.2 L 4473.42,2623.15 L 4471.97,2625.87 L 4470.01,2628.26 L 3969.13,3129.14 L 3966.74,3131.1 L 3964.02,3132.56 L 3961.06,3133.45 L 3957.99,3133.75 L 3868.03,3133.75 L 3737.4,3264.39 L 3737.4,3322.97 L 3747.27,3325.96 L 3758.84,3332.15 L 3768.98,3340.47 L 3777.3,3350.61 L 3783.49,3362.18 L 3787.3,3374.74 L 3788.58,3387.8 L 3787.3,3400.85 L 3783.49,3413.41 L 3777.3,3424.98 L 3768.98,3435.12 L 3758.84,3443.44 L 3747.27,3449.63 L 3734.71,3453.44 L 3721.65,3454.72 L 3708.6,3453.44 L 3696.04,3449.63 L 3684.47,3443.44 L 3674.33,3435.12 L 3666,3424.98 L 3659.82,3413.41 L 3656.01,3400.85 L 3654.72,3387.8 L 3656.01,3374.74 L 3659.82,3362.18 L 3666,3350.61 L 3674.33,3340.47 L 3684.47,3332.15 L 3696.04,3325.96 L 3705.9,3322.97 L 3705.9,3257.86 L 3706.21,3254.79 L 3707.1,3251.84 L 3708.56,3249.12 L 3710.52,3246.73 L 3850.38,3106.87 L 3852.76,3104.91 L 3855.48,3103.46 L 3858.44,3102.56 L 3861.51,3102.26 L 3951.47,3102.26 L 4443.12,2610.6 L 4443.12,1227.23 L 4208.38,992.487 L 3788.05,992.487 L 3550.54,1230 L 3554.65,1237.7 L 3558.24,1249.52 L 3559.45,1261.81 L 3558.24,1274.1 L 3554.65,1285.92 L 3548.83,1296.81 L 3541,1306.35 L 3531.45,1314.19 L 3520.56,1320.01 L 3508.75,1323.59 L 3496.46,1324.8 L 3484.17,1323.59 L 3472.35,1320.01 L 3461.46,1314.19 L 3451.91,1306.35 L 3444.08,1296.81 L 3438.26,1285.92 L 3434.67,1274.1 L 3433.46,1261.81 z " style="fill-opacity:1.000000;fill:rgb(241,179,5);stroke:rgb(0,0,0);stroke-width:2"/></g>
<g fill-rule="evenodd"><path d="M 3454.72,3387.8 L 3456.01,3374.74 L 3459.82,3362.18 L 3466,3350.61 L 3474.33,3340.47 L 3484.47,3332.15 L 3496.04,3325.96 L 3508.6,3322.15 L 3521.65,3320.87 L 3524.71,3321.17 L 3817.75,3028.12 L 3820.14,3026.16 L 3822.86,3024.71 L 3825.82,3023.81 L 3828.89,3023.51 L 3918.85,3023.51 L 4364.38,2577.99 L 4364.38,1259.85 L 4175.77,1071.23 L 3909.3,1071.23 L 3750.54,1230 L 3754.65,1237.7 L 3758.24,1249.52 L 3759.45,1261.81 L 3758.24,1274.1 L 3754.65,1285.92 L 3748.83,1296.81 L 3741,1306.35 L 3731.45,1314.19 L 3720.56,1320.01 L 3708.75,1323.59 L 3696.46,1324.8 L 3684.17,1323.59 L 3672.35,1320.01 L 3661.46,1314.19 L 3651.91,1306.35 L 3644.08,1296.81 L 3638.26,1285.92 L 3634.67,1274.1 L 3633.46,1261.81 L 3634.67,1249.52 L 3638.26,1237.7 L 3644.08,1226.81 L 3651.91,1217.27 L 3661.46,1209.43 L 3672.35,1203.61 L 3684.17,1200.03 L 3696.46,1198.82 L 3708.75,1200.03 L 3720.56,1203.61 L 3728.26,1207.73 L 3891.64,1044.35 L 3894.03,1042.39 L 3896.75,1040.94 L 3899.71,1040.04 L 3902.78,1039.74 L 4182.29,1039.74 L 4187.16,1040.51 L 4191.55,1042.75 L 4193.43,1044.35 L 4391.26,1242.19 L 4393.22,1244.57 L 4394.67,1247.3 L 4395.57,1250.25 L 4395.87,1253.32 L 4395.87,2584.51 L 4395.57,2587.58 L 4394.67,2590.54 L 4393.22,2593.26 L 4391.26,2595.65 L 3936.51,3050.39 L 3934.13,3052.35 L 3931.4,3053.81 L 3928.45,3054.7 L 3925.38,3055.01 L 3835.41,3055.01 L 3558.47,3331.95 L 3568.98,3340.47 L 3577.3,3350.61 L 3583.49,3362.18 L 3587.3,3374.74 L 3588.58,3387.8 L 3587.3,3400.85 L 3583.49,3413.41 L 3577.3,3424.98 L 3568.98,3435.12 L 3558.84,3443.44 L 3547.27,3449.63 L 3534.71,3453.44 L 3521.65,3454.72 L 3508.6,3453.44 L 3496.04,3449.63 L 3484.47,3443.44 L 3474.33,3435.12 L 3466,3424.98 L 3459.82,3413.41 L 3456.01,3400.85 L 3454.72,3387.8 z " style="fill-opacity:1.000000;fill:rgb(239,247,0);stroke:rgb(0,0,0);stroke-width:2"/></g>
<g fill-rule="evenodd"><path d="M 4033.46,2461.81 L 4034.67,2449.52 L 4038.26,2437.7 L 4044.08,2426.81 L 4051.91,2417.27 L 4061.46,2409.43 L 4072.35,2403.61 L 4080.71,2401.08 L 4080.71,1684.07 L 4078,1679.01 L 4075.76,1671.63 L 4075.01,1663.94 L 4075.76,1656.26 L 4078,1648.88 L 4081.64,1642.07 L 4086.54,1636.11 L 4092.51,1631.21 L 4099.31,1627.57 L 4106.7,1625.33 L 4114.38,1624.57 L 4122.06,1625.33 L 4129.44,1627.57 L 4136.25,1631.21 L 4142.22,1636.11 L 4147.11,1642.07 L 4150.75,1648.88 L 4152.99,1656.26 L 4153.75,1663.94 L 4152.99,1671.63 L 4150.75,1679.01 L 4147.11,1685.82 L 4142.22,1691.78 L 4136.25,1696.68 L 4129.44,1700.32 L 4122.06,1702.56 L 4114.38,1703.31 L 4112.2,1703.1 L 4112.2,2401.08 L 4120.56,2403.61 L 4131.45,2409.43 L 4141,2417.27 L 4148.83,2426.81 L 4154.65,2437.7 L 4158.24,2449.52 L 4159.45,2461.81 L 4158.24,2474.1 L 4154.65,2485.92 L 4148.83,2496.81 L 4141,2506.35 L 4131.45,2514.19 L 4120.56,2520.01 L 4108.75,2523.59 L 4096.46,2524.8 L 4084.17,2523.59 L 4072.35,2520.01 L 4061.46,2514.19 L 4051.91,2506.35 L 4044.08,2496.81 L 4038.26,2485.92 L 4034.67,2474.1 L 4033.46,2461.81 z " style="fill-opacity:1.000000;fill:rgb(233,161,58);stroke:rgb(0,0,0);stroke-width:2"/></g>
<g fill-rule="evenodd"><path d="M 4054.72,3387.8 L 4056.01,3374.74 L 4059.82,3362.18 L 4066,3350.61 L 4074.33,3340.47 L 4084.47,3332.15 L 4096.04,3325.96 L 4105.9,3322.97 L 4105.9,3257.86 L 4106.21,3254.79 L 4107.1,3251.84 L 4108.56,3249.12 L 4110.52,3246.73 L 4600.63,2756.62 L 4600.63,1340.16 L 4600.93,1337.09 L 4601.83,1334.14 L 4603.28,1331.42 L 4605.24,1329.03 L 5128.05,806.494 L 5132.44,804.258 L 5137.31,803.487 L 5316.2,803.487 L 5318.67,803.681 L 5323.35,805.203 L 5327.34,808.099 L 5365.87,846.635 L 5367.83,849.022 L 5369.29,851.744 L 5370.18,854.699 L 5370.49,857.771 L 5370.49,1011.57 L 5469.17,1110.25 L 5475.82,1108.24 L 5483.5,1107.48 L 5491.18,1108.24 L 5498.56,1110.48 L 5505.37,1114.12 L 5511.33,1119.01 L 5516.23,1124.98 L 5519.87,1131.78 L 5522.11,1139.17 L 5522.87,1146.85 L 5522.11,1154.53 L 5519.87,1161.92 L 5516.23,1168.72 L 5511.33,1174.69 L 5505.37,1179.59 L 5498.56,1183.22 L 5491.18,1185.46 L 5483.5,1186.22 L 5475.82,1185.46 L 5468.43,1183.22 L 5461.62,1179.59 L 5455.66,1174.69 L 5450.76,1168.72 L 5447.12,1161.92 L 5444.88,1154.53 L 5444.13,1146.85 L 5444.88,1139.17 L 5446.9,1132.52 L 5343.6,1029.23 L 5341.64,1026.84 L 5340.19,1024.12 L 5339.29,1021.17 L 5338.99,1018.09 L 5338.99,864.294 L 5309.68,834.983 L 5143.83,834.983 L 4632.12,1346.69 L 4632.12,2763.14 L 4631.82,2766.21 L 4630.93,2769.17 L 4629.47,2771.89 L 4627.51,2774.28 L 4137.4,3264.39 L 4137.4,3322.97 L 4147.27,3325.96 L 4158.84,3332.15 L 4168.98,3340.47 L 4177.3,3350.61 L 4183.49,3362.18 L 4187.3,3374.74 L 4188.58,3387.8 L 4187.3,3400.85 L 4183.49,3413.41 L 4177.3,3424.98 L 4168.98,3435.12 L 4158.84,3443.44 L 4147.27,3449.63 L 4134.71,3453.44 L 4121.65,3454.72 L 4108.6,3453.44 L 4096.04,3449.63 L 4084.47,3443.44 L 4074.33,3435.12 L 4066,3424.98 L 4059.82,3413.41 L 4056.01,3400.85 L 4054.72,3387.8 z " style="fill-opacity:1.000000;fill:rgb(229,202,11);stroke:rgb(0,0,0);stroke-width:2"/></g>
<g fill-rule="evenodd"><path d="M 4254.72,3387.8 L 4256.01,3374.74 L 4259.82,3362.18 L 4266,3350.61 L 4274.33,3340.47 L 4284.47,3332.15 L 4296.04,3325.96 L 4305.9,3322.97 L 4305.9,3257.86 L 4306.21,3254.79 L 4307.1,3251.84 L 4308.56,3249.12 L 4310.52,3246.73 L 4684.42,2872.82 L 4684.42,1475.42 L 4684.73,1472.34 L 4685.62,1469.39 L 4687.08,1466.67 L 4689.04,1464.28 L 5165.75,987.569 L 5165.75,883.858 L 5291.73,883.858 L 5291.73,1009.84 L 5188.02,1009.84 L 4715.92,1481.94 L 4715.92,2879.34 L 4715.62,2882.42 L 4714.72,2885.37 L 4713.27,2888.09 L 4711.31,2890.48 L 4337.4,3264.39 L 4337.4,3322.97 L 4347.27,3325.96 L 4358.84,3332.15 L 4368.98,3340.47 L 4377.3,3350.61 L 4383.49,3362.18 L 4387.3,3374.74 L 4388.58,3387.8 L 4387.3,3400.85 L 4383.49,3413.41 L 4377.3,3424.98 L 4368.98,3435.12 L 4358.84,3443.44 L 4347.27,3449.63 L 4334.71,3453.44 L 4321.65,3454.72 L 4308.6,3453.44 L 4296.04,3449.63 L 4284.47,3443.44 L 4274.33,3435.12 L 4266,3424.98 L 4259.82,3413.41 L 4256.01,3400.85 L 4254.72,3387.8 z " style="fill-opacity:1.000000;fill:rgb(203,208,72);stroke:rgb(0,0,0);stroke-width:2"/></g>
<g fill-rule="evenodd"><path d="M 4454.72,3387.8 L 4456.01,3374.74 L 4459.82,3362.18 L 4466,3350.61 L 4474.33,3340.47 L 4484.47,3332.15 L 4496.04,3325.96 L 4505.9,3322.97 L 4505.9,3257.86 L 4506.21,3254.79 L 4507.1,3251.84 L 4508.56,3249.12 L 4510.52,3246.73 L 4763.17,2994.07 L 4763.17,1596.67 L 4763.48,1593.6 L 4764.37,1590.64 L 4765.83,1587.92 L 4767.79,1585.53 L 5174.66,1178.66 L 5170.54,1170.96 L 5166.96,1159.14 L 5165.75,1146.85 L 5166.96,1134.56 L 5170.54,1122.74 L 5176.36,1111.85 L 5184.2,1102.31 L 5193.74,1094.47 L 5204.63,1088.65 L 5216.45,1085.07 L 5228.74,1083.86 L 5241.03,1085.07 L 5252.85,1088.65 L 5263.74,1094.47 L 5273.28,1102.31 L 5281.12,1111.85 L 5286.94,1122.74 L 5290.52,1134.56 L 5291.73,1146.85 L 5290.52,1159.14 L 5286.94,1170.96 L 5281.12,1181.85 L 5273.28,1191.39 L 5263.74,1199.23 L 5252.85,1205.05 L 5241.03,1208.63 L 5228.74,1209.84 L 5216.45,1208.63 L 5204.63,1205.05 L 5196.93,1200.93 L 4794.67,1603.19 L 4794.67,3000.6 L 4794.37,3003.67 L 4793.47,3006.62 L 4792.01,3009.35 L 4790.06,3011.73 L 4537.4,3264.39 L 4537.4,3322.97 L 4547.27,3325.96 L 4558.84,3332.15 L 4568.98,3340.47 L 4577.3,3350.61 L 4583.49,3362.18 L 4587.3,3374.74 L 4588.58,3387.8 L 4587.3,3400.85 L 4583.49,3413.41 L 4577.3,3424.98 L 4568.98,3435.12 L 4558.84,3443.44 L 4547.27,3449.63 L 4534.71,3453.44 L 4521.65,3454.72 L 4508.6,3453.44 L 4496.04,3449.63 L 4484.47,3443.44 L 4474.33,3435.12 L 4466,3424.98 L 4459.82,3413.41 L 4456.01,3400.85 L 4454.72,3387.8 z " style="fill-opacity:1.000000;fill:rgb(71,100,189);stroke:rgb(0,0,0);stroke-width:2"/></g>
<g fill-rule="evenodd"><path d="M 4654.72,3387.8 L 4656.01,3374.74 L 4659.82,3362.18 L 4666,3350.61 L 4674.33,3340.47 L 4684.47,3332.15 L 4696.04,3325.96 L 4705.91,3322.97 L 4705.9,3257.86 L 4706.21,3254.79 L 4707.1,3251.84 L 4708.56,3249.12 L 4710.52,3246.73 L 4841.92,3115.33 L 4841.92,1717.92 L 4842.22,1714.85 L 4843.12,1711.89 L 4844.57,1709.17 L 4846.53,1706.79 L 5174.66,1378.66 L 5170.54,1370.96 L 5166.96,1359.14 L 5165.75,1346.85 L 5166.96,1334.56 L 5170.54,1322.74 L 5176.36,1311.85 L 5184.2,1302.31 L 5193.74,1294.47 L 5204.63,1288.65 L 5216.45,1285.07 L 5228.74,1283.86 L 5241.03,1285.07 L 5252.85,1288.65 L 5263.74,1294.47 L 5273.28,1302.31 L 5281.12,1311.85 L 5286.94,1322.74 L 5290.52,1334.56 L 5291.73,1346.85 L 5290.52,1359.14 L 5286.94,1370.96 L 5281.12,1381.85 L 5273.28,1391.39 L 5263.74,1399.23 L 5252.85,1405.05 L 5241.03,1408.63 L 5228.74,1409.84 L 5216.45,1408.63 L 5204.63,1405.05 L 5196.93,1400.93 L 4873.42,1724.44 L 4873.42,3121.85 L 4873.11,3124.92 L 4872.22,3127.88 L 4870.76,3130.6 L 4868.8,3132.98 L 4737.4,3264.39 L 4737.4,3322.97 L 4747.27,3325.96 L 4758.84,3332.15 L 4768.98,3340.47 L 4777.3,3350.61 L 4783.49,3362.18 L 4787.3,3374.74 L 4788.58,3387.8 L 4787.3,3400.85 L 4783.49,3413.41 L 4777.3,3424.98 L 4768.98,3435.12 L 4758.84,3443.44 L 4747.27,3449.63 L 4734.71,3453.44 L 4721.65,3454.72 L 4708.6,3453.44 L 4696.04,3449.63 L 4684.47,3443.44 L 4674.33,3435.12 L 4666,3424.98 L 4659.82,3413.41 L 4656.01,3400.85 L 4654.72,3387.8 z " style="fill-opacity:1.000000;fill:rgb(31,35,30);stroke:rgb(0,0,0);stroke-width:2"/></g>
<g fill-rule="evenodd"><path d="M 4854.72,3387.8 L 4856.01,3374.74 L 4859.82,3362.18 L 4866,3350.61 L 4874.33,3340.47 L 4884.47,3332.15 L 4896.04,3325.96 L 4905.9,3322.97 L 4906.1,3255.4 L 4906.68,3253 L 4908.91,3248.61 L 4920.67,3236.58 L 4920.67,1839.17 L 4920.97,1836.1 L 4921.87,1833.15 L 4923.32,1830.42 L 4925.28,1828.04 L 5174.66,1578.66 L 5170.54,1570.96 L 5166.96,1559.14 L 5165.75,1546.85 L 5166.96,1534.56 L 5170.54,1522.74 L 5176.36,1511.85 L 5184.2,1502.31 L 5193.74,1494.47 L 5204.63,1488.65 L 5216.45,1485.07 L 5228.74,1483.86 L 5241.03,1485.07 L 5252.85,1488.65 L 5263.74,1494.47 L 5273.28,1502.31 L 5281.12,1511.85 L 5286.94,1522.74 L 5290.52,1534.56 L 5291.73,1546.85 L 5290.52,1559.14 L 5286.94,1570.96 L 5281.12,1581.85 L 5273.28,1591.39 L 5263.74,1599.23 L 5252.85,1605.05 L 5241.03,1608.63 L 5228.74,1609.84 L 5216.45,1608.63 L 5204.63,1605.05 L 5196.93,1600.93 L 4952.16,1845.7 L 4952.16,3243.1 L 4951.39,3247.97 L 4949.16,3252.36 L 4937.4,3264.39 L 4937.4,3322.97 L 4947.27,3325.96 L 4958.84,3332.15 L 4968.98,3340.47 L 4977.3,3350.61 L 4983.49,3362.18 L 4987.3,3374.74 L 4988.58,3387.8 L 4987.3,3400.85 L 4983.49,3413.41 L 4977.3,3424.98 L 4968.98,3435.12 L 4958.84,3443.44 L 4947.27,3449.63 L 4934.71,3453.44 L 4921.65,3454.72 L 4908.6,3453.44 L 4896.04,3449.63 L 4884.47,3443.44 L 4874.33,3435.12 L 4866,3424.98 L 4859.82,3413.41 L 4856.01,3400.85 L 4854.72,3387.8 z " style="fill-opacity:1.000000;fill:rgb(168,28,123);stroke:rgb(0,0,0);stroke-width:2"/></g>
<g fill-rule="evenodd"><path d="M 5005.18,3157.14 L 5005.18,1954.66 L 5005.48,1951.59 L 5006.38,1948.63 L 5007.83,1945.91 L 5009.79,1943.53 L 5174.66,1778.66 L 5170.54,1770.96 L 5166.96,1759.14 L 5165.75,1746.85 L 5166.96,1734.56 L 5170.54,1722.74 L 5176.36,1711.85 L 5184.2,1702.31 L 5193.74,1694.47 L 5204.63,1688.65 L 5216.45,1685.07 L 5228.74,1683.86 L 5241.03,1685.07 L 5252.85,1688.65 L 5263.74,1694.47 L 5273.28,1702.31 L 5281.12,1711.85 L 5286.94,1722.74 L 5290.52,1734.56 L 5291.73,1746.85 L 5290.52,1759.14 L 5286.94,1770.96 L 5281.12,1781.85 L 5273.28,1791.39 L 5263.74,1799.23 L 5252.85,1805.05 L 5241.03,1808.63 L 5228.74,1809.84 L 5216.45,1808.63 L 5204.63,1805.05 L 5196.93,1800.93 L 5036.68,1961.18 L 5036.68,3150.62 L 5132.79,3246.73 L 5134.75,3249.12 L 5136.2,3251.84 L 5137.1,3254.79 L 5137.4,3257.86 L 5137.4,3322.97 L 5147.27,3325.96 L 5158.84,3332.15 L 5168.98,3340.47 L 5177.3,3350.61 L 5183.49,3362.18 L 5187.3,3374.74 L 5188.58,3387.8 L 5187.3,3400.85 L 5183.49,3413.41 L 5177.3,3424.98 L 5168.98,3435.12 L 5158.84,3443.44 L 5147.27,3449.63 L 5134.71,3453.44 L 5121.65,3454.72 L 5108.6,3453.44 L 5096.04,3449.63 L 5084.47,3443.44 L 5074.33,3435.12 L 5066,3424.98 L 5059.82,3413.41 L 5056.01,3400.85 L 5054.72,3387.8 L 5056.01,3374.74 L 5059.82,3362.18 L 5066,3350.61 L 5074.33,3340.47 L 5084.47,3332.15 L 5096.04,3325.96 L 5105.9,3322.97 L 5105.9,3264.39 L 5009.79,3168.28 L 5007.83,3165.89 L 5006.38,3163.17 L 5005.48,3160.21 L 5005.18,3157.14 z " style="fill-opacity:1.000000;fill:rgb(100,197,20);stroke:rgb(0,0,0);stroke-width:2"/></g>
<g fill-rule="evenodd"><path d="M 5085.46,3037.42 L 5085.46,2074.38 L 5085.77,2071.3 L 5086.66,2068.35 L 5088.12,2065.63 L 5090.08,2063.24 L 5174.66,1978.66 L 5170.54,1970.96 L 5166.96,1959.14 L 5165.75,1946.85 L 5166.96,1934.56 L 5170.54,1922.74 L 5176.36,1911.85 L 5184.2,1902.31 L 5193.74,1894.47 L 5204.63,1888.65 L 5216.45,1885.07 L 5228.74,1883.86 L 5241.03,1885.07 L 5252.85,1888.65 L 5263.74,1894.47 L 5273.28,1902.31 L 5281.12,1911.85 L 5286.94,1922.74 L 5290.52,1934.56 L 5291.73,1946.85 L 5290.52,1959.14 L 5286.94,1970.96 L 5281.12,1981.85 L 5273.28,1991.39 L 5263.74,1999.23 L 5252.85,2005.05 L 5241.03,2008.63 L 5228.74,2009.84 L 5216.45,2008.63 L 5204.63,2005.05 L 5196.93,2000.93 L 5116.96,2080.9 L 5116.96,3030.9 L 5332.79,3246.73 L 5335.68,3250.72 L 5336.63,3253 L 5337.4,3257.86 L 5337.4,3322.97 L 5347.27,3325.96 L 5358.84,3332.15 L 5368.98,3340.47 L 5377.3,3350.61 L 5383.49,3362.18 L 5387.3,3374.74 L 5388.58,3387.8 L 5387.3,3400.85 L 5383.49,3413.41 L 5377.3,3424.98 L 5368.98,3435.12 L 5358.84,3443.44 L 5347.27,3449.63 L 5334.71,3453.44 L 5321.65,3454.72 L 5308.6,3453.44 L 5296.04,3449.63 L 5284.47,3443.44 L 5274.33,3435.12 L 5266,3424.98 L 5259.82,3413.41 L 5256.01,3400.85 L 5254.72,3387.8 L 5256.01,3374.74 L 5259.82,3362.18 L 5266,3350.61 L 5274.33,3340.47 L 5284.47,3332.15 L 5296.04,3325.96 L 5305.91,3322.97 L 5305.9,3264.39 L 5090.08,3048.56 L 5088.47,3046.68 L 5086.23,3042.29 L 5085.46,3037.42 z " style="fill-opacity:1.000000;fill:rgb(115,90,197);stroke:rgb(0,0,0);stroke-width:2"/></g>
<g fill-rule="evenodd"><path d="M 5165.75,2346.85 L 5166.96,2334.56 L 5170.54,2322.74 L 5176.36,2311.85 L 5184.2,2302.31 L 5193.74,2294.47 L 5204.63,2288.65 L 5216.45,2285.07 L 5228.74,2283.86 L 5241.03,2285.07 L 5252.85,2288.65 L 5263.74,2294.47 L 5273.28,2302.31 L 5281.12,2311.85 L 5286.94,2322.74 L 5290.52,2334.56 L 5291.73,2346.85 L 5290.52,2359.14 L 5286.94,2370.96 L 5281.12,2381.85 L 5273.28,2391.39 L 5263.74,2399.23 L 5252.85,2405.05 L 5241.03,2408.63 L 5228.74,2409.84 L 5216.45,2408.63 L 5204.63,2405.05 L 5193.74,2399.23 L 5184.2,2391.39 L 5176.36,2381.85 L 5170.54,2370.96 L 5166.96,2359.14 L 5165.75,2346.85 z " style="fill-opacity:1.000000;fill:rgb(94,75,121);stroke:rgb(0,0,0);stroke-width:2"/></g>
<g fill-rule="evenodd"><path d="M 5165.75,2146.85 L 5166.96,2134.56 L 5170.54,2122.74 L 5176.36,2111.85 L 5184.2,2102.31 L 5193.74,2094.47 L 5204.63,2088.65 L 5216.45,2085.07 L 5228.74,2083.86 L 5241.03,2085.07 L 5252.85,2088.65 L 5263.74,2094.47 L 5273.28,2102.31 L 5281.12,2111.85 L 5286.94,2122.74 L 5290.52,2134.56 L 5291.73,2146.85 L 5290.52,2159.14 L 5286.94,2170.96 L 5282.82,2178.66 L 5532.79,2428.63 L 5534.75,2431.01 L 5536.2,2433.74 L 5537.1,2436.69 L 5537.4,2439.76 L 5537.4,3322.97 L 5547.27,3325.96 L 5558.84,3332.15 L 5568.98,3340.47 L 5577.3,3350.61 L 5583.49,3362.18 L 5587.3,3374.74 L 5588.58,3387.8 L 5587.3,3400.85 L 5583.49,3413.41 L 5577.3,3424.98 L 5568.98,3435.12 L 5558.84,3443.44 L 5547.27,3449.63 L 5534.71,3453.44 L 5521.65,3454.72 L 5508.6,3453.44 L 5496.04,3449.63 L 5484.47,3443.44 L 5474.33,3435.12 L 5466,3424.98 L 5459.82,3413.41 L 5456.01,3400.85 L 5454.72,3387.8 L 5456.01,3374.74 L 5459.82,3362.18 L 5466,3350.61 L 5474.33,3340.47 L 5484.47,3332.15 L 5496.04,3325.96 L 5505.9,3322.97 L 5505.9,2446.29 L 5260.55,2200.93 L 5252.85,2205.05 L 5241.03,2208.63 L 5228.74,2209.84 L 5216.45,2208.63 L 5204.63,2205.05 L 5193.74,2199.23 L 5184.2,2191.39 L 5176.36,2181.85 L 5170.54,2170.96 L 5166.96,2159.14 L 5165.75,2146.85 z " style="fill-opacity:1.000000;fill:rgb(99,59,112);stroke:rgb(0,0,0);stroke-width:2"/></g>
<g fill-rule="evenodd"><path d="M 5654.72,3387.8 L 5656.01,3374.74 L 5659.82,3362.18 L 5666,3350.61 L 5674.33,3340.47 L 5684.47,3332.15 L 5696.04,3325.96 L 5705.9,3322.97 L 5705.9,3101.61 L 5706.21,3098.54 L 5707.1,3095.59 L 5708.56,3092.86 L 5710.52,3090.48 L 6018.8,2782.19 L 6018.8,1264.43 L 6019.11,1261.36 L 6020,1258.41 L 6021.46,1255.68 L 6023.42,1253.3 L 6468.88,808.108 L 6473.27,805.872 L 6478.13,805.101 L 6715.33,805.101 L 6720.2,805.872 L 6722.48,806.817 L 6726.46,809.713 L 7047.85,1131.1 L 7106.59,1131.1 L 7109.13,1122.74 L 7114.95,1111.85 L 7122.78,1102.31 L 7132.33,1094.47 L 7143.22,1088.65 L 7155.03,1085.07 L 7167.32,1083.86 L 7179.61,1085.07 L 7191.43,1088.65 L 7202.32,1094.47 L 7211.86,1102.31 L 7219.7,1111.85 L 7225.52,1122.74 L 7229.1,1134.56 L 7230.31,1146.85 L 7229.1,1159.14 L 7225.52,1170.96 L 7219.7,1181.85 L 7211.86,1191.39 L 7202.32,1199.23 L 7191.43,1205.05 L 7179.61,1208.63 L 7167.32,1209.84 L 7155.03,1208.63 L 7143.22,1205.05 L 7132.33,1199.23 L 7122.78,1191.39 L 7114.95,1181.85 L 7109.13,1170.96 L 7106.59,1162.6 L 7041.33,1162.6 L 7036.46,1161.83 L 7032.07,1159.59 L 6708.81,836.597 L 6484.66,836.597 L 6050.3,1270.96 L 6050.3,2788.71 L 6050,2791.79 L 6049.1,2794.74 L 6047.64,2797.46 L 6045.69,2799.85 L 5737.4,3108.14 L 5737.4,3322.97 L 5747.27,3325.96 L 5758.84,3332.15 L 5768.98,3340.47 L 5777.3,3350.61 L 5783.49,3362.18 L 5787.3,3374.74 L 5788.58,3387.8 L 5787.3,3400.85 L 5783.49,3413.41 L 5777.3,3424.98 L 5768.98,3435.12 L 5758.84,3443.44 L 5747.27,3449.63 L 5734.71,3453.44 L 5721.65,3454.72 L 5708.6,3453.44 L 5696.04,3449.63 L 5684.47,3443.44 L 5674.33,3435.12 L 5666,3424.98 L 5659.82,3413.41 L 5656.01,3400.85 L 5654.72,3387.8 z " style="fill-opacity:1.000000;fill:rgb(100,36,17);stroke:rgb(0,0,0);stroke-width:2"/></g>
<g fill-rule="evenodd"><path d="M 5765.75,2346.85 L 5766.96,2334.56 L 5770.54,2322.74 L 5776.36,2311.85 L 5784.2,2302.31 L 5793.74,2294.47 L 5804.63,2288.65 L 5816.45,2285.07 L 5828.74,2283.86 L 5841.03,2285.07 L 5852.85,2288.65 L 5863.74,2294.47 L 5873.28,2302.31 L 5881.12,2311.85 L 5886.94,2322.74 L 5890.52,2334.56 L 5891.73,2346.85 L 5890.52,2359.14 L 5886.94,2370.96 L 5881.12,2381.85 L 5873.28,2391.39 L 5863.74,2399.23 L 5852.85,2405.05 L 5841.03,2408.63 L 5828.74,2409.84 L 5816.45,2408.63 L 5804.63,2405.05 L 5793.74,2399.23 L 5784.2,2391.39 L 5776.36,2381.85 L 5770.54,2370.96 L 5766.96,2359.14 L 5765.75,2346.85 z " style="fill-opacity:1.000000;fill:rgb(158,9,220);stroke:rgb(0,0,0);stroke-width:2"/></g>
<g fill-rule="evenodd"><path d="M 5765.75,2146.85 L 5766.96,2134.56 L 5770.54,2122.74 L 5776.36,2111.85 L 5784.2,2102.31 L 5793.74,2094.47 L 5804.63,2088.65 L 5816.45,2085.07 L 5828.74,2083.86 L 5841.03,2085.07 L 5852.85,2088.65 L 5863.74,2094.47 L 5873.28,2102.31 L 5881.12,2111.85 L 5886.94,2122.74 L 5890.52,2134.56 L 5891.73,2146.85 L 5890.52,2159.14 L 5886.94,2170.96 L 5881.12,2181.85 L 5873.28,2191.39 L 5863.74,2199.23 L 5852.85,2205.05 L 5841.03,2208.63 L 5828.74,2209.84 L 5816.45,2208.63 L 5804.63,2205.05 L 5793.74,2199.23 L 5784.2,2191.39 L 5776.36,2181.85 L 5770.54,2170.96 L 5766.96,2159.14 L 5765.75,2146.85 z " style="fill-opacity:1.000000;fill:rgb(170,212,172);stroke:rgb(0,0,0);stroke-width:2"/></g>
<g fill-rule="evenodd"><path d="M 5765.75,1746.85 L 5766.96,1734.56 L 5770.54,1722.74 L 5776.36,1711.85 L 5784.2,1702.31 L 5793.74,1694.47 L 5804.63,1688.65 L 5816.45,1685.07 L 5828.74,1683.86 L 5841.03,1685.07 L 5852.85,1688.65 L 5863.74,1694.47 L 5873.28,1702.31 L 5881.12,1711.85 L 5886.94,1722.74 L 5890.52,1734.56 L 5891.73,1746.85 L 5890.52,1759.14 L 5886.94,1770.96 L 5881.12,1781.85 L 5873.28,1791.39 L 5863.74,1799.23 L 5852.85,1805.05 L 5841.03,1808.63 L 5828.74,1809.84 L 5816.45,1808.63 L 5804.63,1805.05 L 5793.74,1799.23 L 5784.2,1791.39 L 5776.36,1781.85 L 5770.54,1770.96 L 5766.96,1759.14 L 5765.75,1746.85 z " style="fill-opacity:1.000000;fill:rgb(242,27,16);stroke:rgb(0,0,0);stroke-width:2"/></g>
<g fill-rule="evenodd"><path d="M 5765.75,1346.85 L 5766.96,1334.56 L 5770.54,1322.74 L 5776.36,1311.85 L 5784.2,1302.31 L 5793.74,1294.47 L 5804.63,1288.65 L 5816.45,1285.07 L 5828.74,1283.86 L 5841.03,1285.07 L 5852.85,1288.65 L 5863.74,1294.47 L 5873.28,1302.31 L 5881.12,1311.85 L 5886.94,1322.74 L 5890.52,1334.56 L 5891.73,1346.85 L 5890.52,1359.14 L 5886.94,1370.96 L 5881.12,1381.85 L 5873.28,1391.39 L 5863.74,1399.23 L 5852.85,1405.05 L 5841.03,1408.63 L 5828.74,1409.84 L 5816.45,1408.63 L 5804.63,1405.05 L 5793.74,1399.23 L 5784.2,1391.39 L 5776.36,1381.85 L 5770.54,1370.96 L 5766.96,1359.14 L 5765.75,1346.85 z " style="fill-opacity:1.000000;fill:rgb(175,59,51);stroke:rgb(0,0,0);stroke-width:2"/></g>
<g fill-rule="evenodd"><path d="M 5765.75,1146.85 L 5766.96,1134.56 L 5770.54,1122.74 L 5776.36,1111.85 L 5784.2,1102.31 L 5793.74,1094.47 L 5804.63,1088.65 L 5816.45,1085.07 L 5828.74,1083.86 L 5841.03,1085.07 L 5852.85,1088.65 L 5863.74,1094.47 L 5873.28,1102.31 L 5881.12,1111.85 L 5886.94,1122.74 L 5890.52,1134.56 L 5891.73,1146.85 L 5890.52,1159.14 L 5886.94,1170.96 L 5881.12,1181.85 L 5873.28,1191.39 L 5863.74,1199.23 L 5852.85,1205.05 L 5841.03,1208.63 L 5828.74,1209.84 L 5816.45,1208.63 L 5804.63,1205.05 L 5793.74,1199.23 L 5784.2,1191.39 L 5776.36,1181.85 L 5770.54,1170.96 L 5766.96,1159.14 L 5765.75,1146.85 z " style="fill-opacity:1.000000;fill:rgb(205,227,80);stroke:rgb(0,0,0);stroke-width:2"/></g>
<g fill-rule="evenodd"><path d="M 5765.75,946.85 L 5766.96,934.561 L 5770.54,922.744 L 5776.36,911.854 L 5784.2,902.308 L 5793.74,894.474 L 5804.63,888.653 L 5816.45,885.069 L 5828.74,883.858 L 5841.03,885.069 L 5852.85,888.653 L 5863.74,894.474 L 5873.28,902.308 L 5881.12,911.854 L 5886.94,922.744 L 5889.47,931.101 L 5948.21,931.101 L 6148.89,730.423 L 6151.27,728.465 L 6154,727.01 L 6156.95,726.113 L 6160.02,725.811 L 6838.5,726.005 L 6843.19,727.527 L 6847.17,730.423 L 7047.85,931.101 L 7106.59,931.101 L 7109.13,922.744 L 7114.95,911.854 L 7122.78,902.308 L 7132.33,894.474 L 7143.22,888.653 L 7155.03,885.069 L 7167.32,883.858 L 7179.61,885.069 L 7191.43,888.653 L 7202.32,894.474 L 7211.86,902.308 L 7219.7,911.854 L 7225.52,922.744 L 7229.1,934.561 L 7230.31,946.85 L 7229.1,959.14 L 7225.52,970.956 L 7219.7,981.847 L 7211.86,991.393 L 7202.32,999.226 L 7191.43,1005.05 L 7179.61,1008.63 L 7167.32,1009.84 L 7155.03,1008.63 L 7143.22,1005.05 L 7132.33,999.226 L 7122.78,991.393 L 7114.95,981.847 L 7109.13,970.956 L 7106.59,962.596 L 7041.33,962.597 L 7038.87,962.403 L 7034.18,960.88 L 7030.19,957.984 L 6829.52,757.307 L 6166.55,757.307 L 5965.87,957.984 L 5963.48,959.943 L 5960.76,961.398 L 5957.8,962.294 L 5954.73,962.597 L 5889.47,962.596 L 5886.94,970.956 L 5881.12,981.847 L 5873.28,991.393 L 5863.74,999.226 L 5852.85,1005.05 L 5841.03,1008.63 L 5828.74,1009.84 L 5816.45,1008.63 L 5804.63,1005.05 L 5793.74,999.226 L 5784.2,991.393 L 5776.36,981.847 L 5770.54,970.956 L 5766.96,959.14 L 5765.75,946.85 z " style="fill-opacity:1.000000;fill:rgb(72,71,21);stroke:rgb(0,0,0);stroke-width:2"/></g>
<g fill-rule="evenodd"><path d="M 5854.72,3387.8 L 5856.01,3374.74 L 5859.82,3362.18 L 5866,3350.61 L 5874.33,3340.47 L 5884.47,3332.15 L 5896.04,3325.96 L 5905.9,3322.97 L 5905.9,3257.86 L 5906.21,3254.79 L 5907.1,3251.84 L 5908.56,3249.12 L 5910.52,3246.73 L 6097.56,3059.69 L 6097.56,1400.86 L 6097.86,1397.79 L 6098.76,1394.84 L 6100.21,1392.12 L 6102.17,1389.73 L 6504.33,987.57 L 6504.33,883.858 L 6630.31,883.858 L 6630.31,1009.84 L 6526.6,1009.84 L 6129.05,1407.39 L 6129.05,3066.21 L 6128.75,3069.28 L 6127.86,3072.24 L 6126.4,3074.96 L 6124.44,3077.35 L 5937.4,3264.39 L 5937.4,3322.97 L 5947.27,3325.96 L 5958.84,3332.15 L 5968.98,3340.47 L 5977.3,3350.61 L 5983.49,3362.18 L 5987.3,3374.74 L 5988.58,3387.8 L 5987.3,3400.85 L 5983.49,3413.41 L 5977.3,3424.98 L 5968.98,3435.12 L 5958.84,3443.44 L 5947.27,3449.63 L 5934.71,3453.44 L 5921.65,3454.72 L 5908.6,3453.44 L 5896.04,3449.63 L 5884.47,3443.44 L 5874.33,3435.12 L 5866,3424.98 L 5859.82,3413.41 L 5856.01,3400.85 L 5854.72,3387.8 z " style="fill-opacity:1.000000;fill:rgb(92,187,111);stroke:rgb(0,0,0);stroke-width:2"/></g>
<g fill-rule="evenodd"><path d="M 6054.72,3387.8 L 6056.01,3374.74 L 6059.82,3362.18 L 6066,3350.61 L 6074.33,3340.47 L 6084.47,3332.15 L 6096.04,3325.96 L 6105.9,3322.97 L 6105.9,3257.86 L 6106.21,3254.79 L 6107.1,3251.84 L 6108.56,3249.12 L 6110.52,3246.73 L 6255.05,3102.19 L 6255.05,1443.37 L 6255.36,1440.3 L 6256.25,1437.34 L 6257.71,1434.62 L 6259.67,1432.23 L 6513.24,1178.66 L 6509.13,1170.96 L 6505.54,1159.14 L 6504.33,1146.85 L 6505.54,1134.56 L 6509.13,1122.74 L 6514.95,1111.85 L 6522.78,1102.31 L 6532.33,1094.47 L 6543.22,1088.65 L 6555.03,1085.07 L 6567.32,1083.86 L 6579.61,1085.07 L 6591.43,1088.65 L 6602.32,1094.47 L 6611.86,1102.31 L 6619.7,1111.85 L 6625.52,1122.74 L 6629.1,1134.56 L 6630.31,1146.85 L 6629.1,1159.14 L 6625.52,1170.96 L 6619.7,1181.85 L 6611.86,1191.39 L 6602.32,1199.23 L 6591.43,1205.05 L 6579.61,1208.63 L 6567.32,1209.84 L 6555.03,1208.63 L 6543.22,1205.05 L 6535.51,1200.93 L 6286.55,1449.89 L 6286.55,3108.71 L 6286.25,3111.79 L 6285.35,3114.74 L 6283.9,3117.46 L 6281.94,3119.85 L 6137.4,3264.39 L 6137.4,3322.97 L 6147.27,3325.96 L 6158.84,3332.15 L 6168.98,3340.47 L 6177.3,3350.61 L 6183.49,3362.18 L 6187.3,3374.74 L 6188.58,3387.8 L 6187.3,3400.85 L 6183.49,3413.41 L 6177.3,3424.98 L 6168.98,3435.12 L 6158.84,3443.44 L 6147.27,3449.63 L 6134.71,3453.44 L 6121.65,3454.72 L 6108.6,3453.44 L 6096.04,3449.63 L 6084.47,3443.44 L 6074.33,3435.12 L 6066,3424.98 L 6059.82,3413.41 L 6056.01,3400.85 L 6054.72,3387.8 z " style="fill-opacity:1.000000;fill:rgb(34,25,186);stroke:rgb(0,0,0);stroke-width:2"/></g>
<g fill-rule="evenodd"><path d="M 6254.72,3387.8 L 6256.01,3374.74 L 6259.82,3362.18 L 6266,3350.61 L 6274.33,3340.47 L 6284.47,3332.15 L 6296.04,3325.96 L 6305.9,3322.97 L 6305.9,3257.86 L 6306.68,3253 L 6307.62,3250.72 L 6310.52,3246.73 L 6333.8,3223.44 L 6333.8,1564.62 L 6334.11,1561.55 L 6335,1558.59 L 6336.46,1555.87 L 6338.42,1553.49 L 6513.24,1378.66 L 6509.13,1370.96 L 6505.54,1359.14 L 6504.33,1346.85 L 6505.54,1334.56 L 6509.13,1322.74 L 6514.95,1311.85 L 6522.78,1302.31 L 6532.33,1294.47 L 6543.22,1288.65 L 6555.03,1285.07 L 6567.32,1283.86 L 6579.61,1285.07 L 6591.43,1288.65 L 6602.32,1294.47 L 6611.86,1302.31 L 6619.7,1311.85 L 6625.52,1322.74 L 6629.1,1334.56 L 6630.31,1346.85 L 6629.1,1359.14 L 6625.52,1370.96 L 6619.7,1381.85 L 6611.86,1391.39 L 6602.32,1399.23 L 6591.43,1405.05 L 6579.61,1408.63 L 6567.32,1409.84 L 6555.03,1408.63 L 6543.22,1405.05 L 6535.51,1400.93 L 6365.3,1571.14 L 6365.3,3229.97 L 6364.53,3234.83 L 6362.29,3239.22 L 6337.4,3264.39 L 6337.4,3322.97 L 6347.27,3325.96 L 6358.84,3332.15 L 6368.98,3340.47 L 6377.3,3350.61 L 6383.49,3362.18 L 6387.3,3374.74 L 6388.58,3387.8 L 6387.3,3400.85 L 6383.49,3413.41 L 6377.3,3424.98 L 6368.98,3435.12 L 6358.84,3443.44 L 6347.27,3449.63 L 6334.71,3453.44 L 6321.65,3454.72 L 6308.6,3453.44 L 6296.04,3449.63 L 6284.47,3443.44 L 6274.33,3435.12 L 6266,3424.98 L 6259.82,3413.41 L 6256.01,3400.85 L 6254.72,3387.8 z " style="fill-opacity:1.000000;fill:rgb(155,125,245);stroke:rgb(0,0,0);stroke-width:2"/></g>
<g fill-rule="evenodd"><path d="M 6454.72,3387.8 L 6456.01,3374.74 L 6459.82,3362.18 L 6466,3350.61 L 6474.33,3340.47 L 6484.47,3332.15 L 6496.04,3325.96 L 6508.6,3322.15 L 6521.65,3320.87 L 6534.71,3322.15 L 6547.27,3325.96 L 6558.84,3332.15 L 6568.98,3340.47 L 6577.3,3350.61 L 6583.49,3362.18 L 6587.3,3374.74 L 6588.58,3387.8 L 6587.3,3400.85 L 6583.49,3413.41 L 6577.3,3424.98 L 6568.98,3435.12 L 6558.84,3443.44 L 6547.27,3449.63 L 6534.71,3453.44 L 6521.65,3454.72 L 6508.6,3453.44 L 6496.04,3449.63 L 6484.47,3443.44 L 6474.33,3435.12 L 6466,3424.98 L 6459.82,3413.41 L 6456.01,3400.85 L 6454.72,3387.8 z " style="fill-opacity:1.000000;fill:rgb(11,225,26);stroke:rgb(0,0,0);stroke-width:2"/></g>
<g fill-rule="evenodd"><path d="M 6504.33,2346.85 L 6505.54,2334.56 L 6509.13,2322.74 L 6514.95,2311.85 L 6522.78,2302.31 L 6532.33,2294.47 L 6543.22,2288.65 L 6555.03,2285.07 L 6567.32,2283.86 L 6579.61,2285.07 L 6591.43,2288.65 L 6602.32,2294.47 L 6611.86,2302.31 L 6619.7,2311.85 L 6625.52,2322.74 L 6629.1,2334.56 L 6630.31,2346.85 L 6629.1,2359.14 L 6625.52,2370.96 L 6619.7,2381.85 L 6611.86,2391.39 L 6602.32,2399.23 L 6591.43,2405.05 L 6579.61,2408.63 L 6567.32,2409.84 L 6555.03,2408.63 L 6543.22,2405.05 L 6532.33,2399.23 L 6522.78,2391.39 L 6514.95,2381.85 L 6509.13,2370.96 L 6505.54,2359.14 L 6504.33,2346.85 z " style="fill-opacity:1.000000;fill:rgb(28,127,35);stroke:rgb(0,0,0);stroke-width:2"/></g>
<g fill-rule="evenodd"><path d="M 6504.33,2146.85 L 6505.54,2134.56 L 6509.13,2122.74 L 6514.95,2111.85 L 6522.78,2102.31 L 6532.33,2094.47 L 6543.22,2088.65 L 6555.03,2085.07 L 6567.32,2083.86 L 6579.61,2085.07 L 6591.43,2088.65 L 6602.32,2094.47 L 6611.86,2102.31 L 6619.7,2111.85 L 6625.52,2122.74 L 6629.1,2134.56 L 6630.31,2146.85 L 6629.1,2159.14 L 6625.52,2170.96 L 6619.7,2181.85 L 6611.86,2191.39 L 6602.32,2199.23 L 6591.43,2205.05 L 6579.61,2208.63 L 6567.32,2209.84 L 6555.03,2208.63 L 6543.22,2205.05 L 6532.33,2199.23 L 6522.78,2191.39 L 6514.95,2181.85 L 6509.13,2170.96 L 6505.54,2159.14 L 6504.33,2146.85 z " style="fill-opacity:1.000000;fill:rgb(248,41,248);stroke:rgb(0,0,0);stroke-width:2"/></g>
<g fill-rule="evenodd"><path d="M 6504.33,1946.85 L 6505.54,1934.56 L 6509.13,1922.74 L 6514.95,1911.85 L 6522.78,1902.31 L 6532.33,1894.47 L 6543.22,1888.65 L 6555.03,1885.07 L 6567.32,1883.86 L 6579.61,1885.07 L 6591.43,1888.65 L 6602.32,1894.47 L 6611.86,1902.31 L 6619.7,1911.85 L 6625.52,1922.74 L 6629.1,1934.56 L 6630.31,1946.85 L 6629.1,1959.14 L 6625.52,1970.96 L 6619.7,1981.85 L 6611.86,1991.39 L 6602.32,1999.23 L 6591.43,2005.05 L 6579.61,2008.63 L 6567.32,2009.84 L 6555.03,2008.63 L 6543.22,2005.05 L 6532.33,1999.23 L 6522.78,1991.39 L 6514.95,1981.85 L 6509.13,1970.96 L 6505.54,1959.14 L 6504.33,1946.85 z " style="fill-opacity:1.000000;fill:rgb(164,27,19);stroke:rgb(0,0,0);stroke-width:2"/></g>
<g fill-rule="evenodd"><path d="M 6504.33,1746.85 L 6505.54,1734.56 L 6509.13,1722.74 L 6514.95,1711.85 L 6522.78,1702.31 L 6532.33,1694.47 L 6543.22,1688.65 L 6555.03,1685.07 L 6567.32,1683.86 L 6579.61,1685.07 L 6591.43,1688.65 L 6602.32,1694.47 L 6611.86,1702.31 L 6619.7,1711.85 L 6625.52,1722.74 L 6629.1,1734.56 L 6630.31,1746.85 L 6629.1,1759.14 L 6625.52,1770.96 L 6619.7,1781.85 L 6611.86,1791.39 L 6602.32,1799.23 L 6591.43,1805.05 L 6579.61,1808.63 L 6567.32,1809.84 L 6555.03,1808.63 L 6543.22,1805.05 L 6532.33,1799.23 L 6522.78,1791.39 L 6514.95,1781.85 L 6509.13,1770.96 L 6505.54,1759.14 L 6504.33,1746.85 z " style="fill-opacity:1.000000;fill:rgb(181,202,78);stroke:rgb(0,0,0);stroke-width:2"/></g>
<g fill-rule="evenodd"><path d="M 6504.33,1546.85 L 6505.54,1534.56 L 6509.13,1522.74 L 6514.95,1511.85 L 6522.78,1502.31 L 6532.33,1494.47 L 6543.22,1488.65 L 6555.03,1485.07 L 6567.32,1483.86 L 6579.61,1485.07 L 6591.43,1488.65 L 6602.32,1494.47 L 6611.86,1502.31 L 6619.7,1511.85 L 6625.52,1522.74 L 6629.1,1534.56 L 6630.31,1546.85 L 6629.1,1559.14 L 6625.52,1570.96 L 6619.7,1581.85 L 6611.86,1591.39 L 6602.32,1599.23 L 6591.43,1605.05 L 6579.61,1608.63 L 6567.32,1609.84 L 6555.03,1608.63 L 6543.22,1605.05 L 6532.33,1599.23 L 6522.78,1591.39 L 6514.95,1581.85 L 6509.13,1570.96 L 6505.54,1559.14 L 6504.33,1546.85 z " style="fill-opacity:1.000000;fill:rgb(232,152,50);stroke:rgb(0,0,0);stroke-width:2"/></g>
<g fill-rule="evenodd"><path d="M 6654.72,3387.8 L 6656.01,3374.74 L 6659.82,3362.18 L 6666,3350.61 L 6674.33,3340.47 L 6684.47,3332.15 L 6696.04,3325.96 L 6708.6,3322.15 L 6721.65,3320.87 L 6734.71,3322.15 L 6747.27,3325.96 L 6758.84,3332.15 L 6768.98,3340.47 L 6777.3,3350.61 L 6783.49,3362.18 L 6787.3,3374.74 L 6788.58,3387.8 L 6787.3,3400.85 L 6783.49,3413.41 L 6777.3,3424.98 L 6768.98,3435.12 L 6758.84,3443.44 L 6747.27,3449.63 L 6734.71,3453.44 L 6721.65,3454.72 L 6708.6,3453.44 L 6696.04,3449.63 L 6684.47,3443.44 L 6674.33,3435.12 L 6666,3424.98 L 6659.82,3413.41 L 6656.01,3400.85 L 6654.72,3387.8 z " style="fill-opacity:1.000000;fill:rgb(56,224,121);stroke:rgb(0,0,0);stroke-width:2"/></g>
<g fill-rule="evenodd"><path d="M 6854.72,3387.8 L 6856.01,3374.74 L 6859.82,3362.18 L 6866,3350.61 L 6874.33,3340.47 L 6884.47,3332.15 L 6896.04,3325.96 L 6908.6,3322.15 L 6921.65,3320.87 L 6934.71,3322.15 L 6947.27,3325.96 L 6958.84,3332.15 L 6968.98,3340.47 L 6977.3,3350.61 L 6983.49,3362.18 L 6987.3,3374.74 L 6988.58,3387.8 L 6987.3,3400.85 L 6983.49,3413.41 L 6977.3,3424.98 L 6968.98,3435.12 L 6958.84,3443.44 L 6947.27,3449.63 L 6934.71,3453.44 L 6921.65,3454.72 L 6908.6,3453.44 L 6896.04,3449.63 L 6884.47,3443.44 L 6874.33,3435.12 L 6866,3424.98 L 6859.82,3413.41 L 6856.01,3400.85 L 6854.72,3387.8 z " style="fill-opacity:1.000000;fill:rgb(77,61,52);stroke:rgb(0,0,0);stroke-width:2"/></g>
<g fill-rule="evenodd"><path d="M 7054.72,3387.8 L 7056.01,3374.74 L 7059.82,3362.18 L 7066,3350.61 L 7074.33,3340.47 L 7084.47,3332.15 L 7096.04,3325.96 L 7108.6,3322.15 L 7121.65,3320.87 L 7134.71,3322.15 L 7147.27,3325.96 L 7158.84,3332.15 L 7168.98,3340.47 L 7177.3,3350.61 L 7183.49,3362.18 L 7187.3,3374.74 L 7188.58,3387.8 L 7187.3,3400.85 L 7183.49,3413.41 L 7177.3,3424.98 L 7168.98,3435.12 L 7158.84,3443.44 L 7147.27,3449.63 L 7134.71,3453.44 L 7121.65,3454.72 L 7108.6,3453.44 L 7096.04,3449.63 L 7084.47,3443.44 L 7074.33,3435.12 L 7066,3424.98 L 7059.82,3413.41 L 7056.01,3400.85 L 7054.72,3387.8 z " style="fill-opacity:1.000000;fill:rgb(188,95,78);stroke:rgb(0,0,0);stroke-width:2"/></g>
<g fill-rule="evenodd"><path d="M 7104.33,2346.85 L 7105.54,2334.56 L 7109.13,2322.74 L 7114.95,2311.85 L 7122.78,2302.31 L 7132.33,2294.47 L 7143.22,2288.65 L 7155.03,2285.07 L 7167.32,2283.86 L 7179.61,2285.07 L 7191.43,2288.65 L 7202.32,2294.47 L 7211.86,2302.31 L 7219.7,2311.85 L 7225.52,2322.74 L 7229.1,2334.56 L 7230.31,2346.85 L 7229.1,2359.14 L 7225.52,2370.96 L 7219.7,2381.85 L 7211.86,2391.39 L 7202.32,2399.23 L 7191.43,2405.05 L 7179.61,2408.63 L 7167.32,2409.84 L 7155.03,2408.63 L 7143.22,2405.05 L 7132.33,2399.23 L 7122.78,2391.39 L 7114.95,2381.85 L 7109.13,2370.96 L 7105.54,2359.14 L 7104.33,2346.85 z " style="fill-opacity:1.000000;fill:rgb(119,250,203);stroke:rgb(0,0,0);stroke-width:2"/></g>
<g fill-rule="evenodd"><path d="M 7104.33,2146.85 L 7105.54,2134.56 L 7109.13,2122.74 L 7114.95,2111.85 L 7122.78,2102.31 L 7132.33,2094.47 L 7143.22,2088.65 L 7155.03,2085.07 L 7167.32,2083.86 L 7179.61,2085.07 L 7191.43,2088.65 L 7202.32,2094.47 L 7211.86,2102.31 L 7219.7,2111.85 L 7225.52,2122.74 L 7229.1,2134.56 L 7230.31,2146.85 L 7229.1,2159.14 L 7225.52,2170.96 L 7219.7,2181.85 L 7211.86,2191.39 L 7202.32,2199.23 L 7191.43,2205.05 L 7179.61,2208.63 L 7167.32,2209.84 L 7155.03,2208.63 L 7143.22,2205.05 L 7132.33,2199.23 L 7122.78,2191.39 L 7114.95,2181.85 L 7109.13,2170.96 L 7105.54,2159.14 L 7104.33,2146.85 z " style="fill-opacity:1.000000;fill:rgb(108,5,172);stroke:rgb(0,0,0);stroke-width:2"/></g>
<g fill-rule="evenodd"><path d="M 7104.33,1946.85 L 7105.54,1934.56 L 7109.13,1922.74 L 7114.95,1911.85 L 7122.78,1902.31 L 7132.33,1894.47 L 7143.22,1888.65 L 7155.03,1885.07 L 7167.32,1883.86 L 7179.61,1885.07 L 7191.43,1888.65 L 7202.32,1894.47 L 7211.86,1902.31 L 7219.7,1911.85 L 7225.52,1922.74 L 7229.1,1934.56 L 7230.31,1946.85 L 7229.1,1959.14 L 7225.52,1970.96 L 7219.7,1981.85 L 7211.86,1991.39 L 7202.32,1999.23 L 7191.43,2005.05 L 7179.61,2008.63 L 7167.32,2009.84 L 7155.03,2008.63 L 7143.22,2005.05 L 7132.33,1999.23 L 7122.78,1991.39 L 7114.95,1981.85 L 7109.13,1970.96 L 7105.54,1959.14 L 7104.33,1946.85 z " style="fill-opacity:1.000000;fill:rgb(134,33,43);stroke:rgb(0,0,0);stroke-width:2"/></g>
<g fill-rule="evenodd"><path d="M 7104.33,1746.85 L 7105.54,1734.56 L 7109.13,1722.74 L 7114.95,1711.85 L 7122.78,1702.31 L 7132.33,1694.47 L 7143.22,1688.65 L 7155.03,1685.07 L 7167.32,1683.86 L 7179.61,1685.07 L 7191.43,1688.65 L 7202.32,1694.47 L 7211.86,1702.31 L 7219.7,1711.85 L 7225.52,1722.74 L 7229.1,1734.56 L 7230.31,1746.85 L 7229.1,1759.14 L 7225.52,1770.96 L 7219.7,1781.85 L 7211.86,1791.39 L 7202.32,1799.23 L 7191.43,1805.05 L 7179.61,1808.63 L 7167.32,1809.84 L 7155.03,1808.63 L 7143.22,1805.05 L 7132.33,1799.23 L 7122.78,1791.39 L 7114.95,1781.85 L 7109.13,1770.96 L 7105.54,1759.14 L 7104.33,1746.85 z " style="fill-opacity:1.000000;fill:rgb(170,26,85);stroke:rgb(0,0,0);stroke-width:2"/></g>
<g fill-rule="evenodd"><path d="M 7104.33,1546.85 L 7105.54,1534.56 L 7109.13,1522.74 L 7114.95,1511.85 L 7122.78,1502.31 L 7132.33,1494.47 L 7143.22,1488.65 L 7155.03,1485.07 L 7167.32,1483.86 L 7179.61,1485.07 L 7191.43,1488.65 L 7202.32,1494.47 L 7211.86,1502.31 L 7219.7,1511.85 L 7225.52,1522.74 L 7229.1,1534.56 L 7230.31,1546.85 L 7229.1,1559.14 L 7225.52,1570.96 L 7219.7,1581.85 L 7211.86,1591.39 L 7202.32,1599.23 L 7191.43,1605.05 L 7179.61,1608.63 L 7167.32,1609.84 L 7155.03,1608.63 L 7143.22,1605.05 L 7132.33,1599.23 L 7122.78,1591.39 L 7114.95,1581.85 L 7109.13,1570.96 L 7105.54,1559.14 L 7104.33,1546.85 z " style="fill-opacity:1.000000;fill:rgb(162,190,112);stroke:rgb(0,0,0);stroke-width:2"/></g>
<g fill-rule="evenodd"><path d="M 7104.33,1346.85 L 7105.54,1334.56 L 7109.13,1322.74 L 7114.95,1311.85 L 7122.78,1302.31 L 7132.33,1294.47 L 7143.22,1288.65 L 7155.03,1285.07 L 7167.32,1283.86 L 7179.61,1285.07 L 7191.43,1288.65 L 7202.32,1294.47 L 7211.86,1302.31 L 7219.7,1311.85 L 7225.52,1322.74 L 7229.1,1334.56 L 7230.31,1346.85 L 7229.1,1359.14 L 7225.52,1370.96 L 7219.7,1381.85 L 7211.86,1391.39 L 7202.32,1399.23 L 7191.43,1405.05 L 7179.61,1408.63 L 7167.32,1409.84 L 7155.03,1408.63 L 7143.22,1405.05 L 7132.33,1399.23 L 7122.78,1391.39 L 7114.95,1381.85 L 7109.13,1370.96 L 7105.54,1359.14 L 7104.33,1346.85 z " style="fill-opacity:1.000000;fill:rgb(181,115,59);stroke:rgb(0,0,0);stroke-width:2"/></g>
</svg>
