<?xml version="1.0" standalone="no"?>
<!DOCTYPE svg PUBLIC "-//W3C//DTD SVG 1.1//EN"
"http://www.w3.org/Graphics/SVG/1.1/DTD/svg11.dtd">
<svg width="382.881" height="193.905" viewBox="0 0 7976.69 4039.69" version="1.1"
xmlns="http://www.w3.org/2000/svg"
xmlns:xlink="http://www.w3.org/1999/xlink">
<polyline points="121.143,3791.49 123.583,3816.28 130.813,3840.11 142.555,3862.08 158.355,3881.33 177.607,3897.13 199.571,3908.87 223.405,3916.1 248.189,3918.54 7728.5,3918.54 7753.29,3916.1 7777.12,3908.87 7799.08,3897.13 7818.34,3881.33 7834.14,3862.08 7845.88,3840.11 7853.11,3816.28 7855.55,3791.49 7855.55,248.189 7853.11,223.405 7845.88,199.571 7834.14,177.607 7818.34,158.355 7799.08,142.555 7777.12,130.813 7753.29,123.583 7728.5,121.143 248.189,121.143 223.405,123.583 199.571,130.813 177.607,142.555 158.355,158.355 142.555,177.607 130.813,199.571 123.583,223.405 121.143,248.189 121.143,3791.49" style="stroke:rgb(103,198,105);stroke-width:246.220472;fill:none;stroke-opacity:0.5;stroke-linecap:round;stroke-linejoin:round;;fill:none"/>
<polyline points="121.143,3791.49 123.583,3816.28 130.813,3840.11 142.555,3862.08 158.355,3881.33 177.607,3897.13 199.571,3908.87 223.405,3916.1 248.189,3918.54 7728.5,3918.54 7753.29,3916.1 7777.12,3908.87 7799.08,3897.13 7818.34,3881.33 7834.14,3862.08 7845.88,3840.11 7853.11,3816.28 7855.55,3791.49 7855.55,248.189 7853.11,223.405 7845.88,199.571 7834.14,177.607 7818.34,158.355 7799.08,142.555 7777.12,130.813 7753.29,123.583 7728.5,121.143 248.189,121.143 223.405,123.583 199.571,130.813 177.607,142.555 158.355,158.355 142.555,177.607 130.813,199.571 123.583,223.405 121.143,248.189 121.143,3791.49" style="stroke:rgb(0,0,0);stroke-width:1px;fill:none;stroke-opacity:1;stroke-linecap:round;stroke-linejoin:round;;fill:none"/>
</svg>
