%TF.GenerationSoftware,KiCad,Pcbnew,7.0.2*%
%TF.CreationDate,2023-06-04T09:38:05+01:00*%
%TF.ProjectId,ZXspectrum_Concept_v2.kicad_pro,5a587370-6563-4747-9275-6d5f436f6e63,rev?*%
%TF.SameCoordinates,PX280de80PY16e3600*%
%TF.FileFunction,Copper,L1,Top*%
%TF.FilePolarity,Positive*%
%FSLAX46Y46*%
G04 Gerber Fmt 4.6, Leading zero omitted, Abs format (unit mm)*
G04 Created by KiCad (PCBNEW 7.0.2) date 2023-06-04 09:38:05*
%MOMM*%
%LPD*%
G01*
G04 APERTURE LIST*
%TA.AperFunction,ComponentPad*%
%ADD10C,1.600000*%
%TD*%
%TA.AperFunction,ComponentPad*%
%ADD11O,1.600000X1.600000*%
%TD*%
%TA.AperFunction,ComponentPad*%
%ADD12R,1.700000X1.700000*%
%TD*%
%TA.AperFunction,ComponentPad*%
%ADD13O,1.700000X1.700000*%
%TD*%
%TA.AperFunction,ComponentPad*%
%ADD14R,1.600000X1.600000*%
%TD*%
%TA.AperFunction,ComponentPad*%
%ADD15R,2.000000X2.000000*%
%TD*%
%TA.AperFunction,ComponentPad*%
%ADD16O,2.000000X2.000000*%
%TD*%
%TA.AperFunction,ComponentPad*%
%ADD17O,2.400000X1.800000*%
%TD*%
%TA.AperFunction,ViaPad*%
%ADD18C,1.000000*%
%TD*%
%TA.AperFunction,Conductor*%
%ADD19C,0.400000*%
%TD*%
G04 APERTURE END LIST*
D10*
%TO.P,R4,1*%
%TO.N,+5V*%
X123840000Y-120000000D03*
D11*
%TO.P,R4,2*%
%TO.N,/CORE/ESP_WAIT_RESET*%
X134000000Y-120000000D03*
%TD*%
D10*
%TO.P,R2,1*%
%TO.N,GND*%
X178500000Y-120580000D03*
D11*
%TO.P,R2,2*%
%TO.N,/CORE/ESP_INT*%
X178500000Y-110420000D03*
%TD*%
D12*
%TO.P,RIO2,1,Pin_1*%
%TO.N,+5V*%
X193000000Y-55000000D03*
D13*
%TO.P,RIO2,2,Pin_2*%
%TO.N,/GLUE/RIO_CONTROL.A16*%
X190460000Y-55000000D03*
%TO.P,RIO2,3,Pin_3*%
%TO.N,/GLUE/RIO_CONTROL.A15*%
X187920000Y-55000000D03*
%TO.P,RIO2,4,Pin_4*%
%TO.N,/GLUE/RIO_CONTROL.A14*%
X185380000Y-55000000D03*
%TO.P,RIO2,5,Pin_5*%
%TO.N,/GLUE/RIO_CONTROL.WE*%
X182840000Y-55000000D03*
%TO.P,RIO2,6,Pin_6*%
%TO.N,/GLUE/RIO_CONTROL.CE*%
X180300000Y-55000000D03*
%TO.P,RIO2,7,Pin_7*%
%TO.N,/GLUE/RIO_CONTROL.OE*%
X177760000Y-55000000D03*
%TO.P,RIO2,8,Pin_8*%
%TO.N,/GLUE/RIO_CONTROL.ROM_RDY*%
X175220000Y-55000000D03*
%TO.P,RIO2,9,Pin_9*%
%TO.N,/CACHE connector/CACHE_SEL_0*%
X172680000Y-55000000D03*
%TO.P,RIO2,10,Pin_10*%
%TO.N,/CACHE connector/CACHE_SEL_1*%
X170140000Y-55000000D03*
%TO.P,RIO2,11,Pin_11*%
%TO.N,/CACHE connector/CACHE_SEL_2*%
X167600000Y-55000000D03*
%TO.P,RIO2,12,Pin_12*%
%TO.N,/CACHE connector/CACHE_SEL_3*%
X165060000Y-55000000D03*
%TO.P,RIO2,13,Pin_13*%
%TO.N,/CACHE connector/CACHE_DATASTATUS*%
X162520000Y-55000000D03*
%TO.P,RIO2,14,Pin_14*%
%TO.N,/GLUE/WAIT_IO*%
X159980000Y-55000000D03*
%TO.P,RIO2,15,Pin_15*%
%TO.N,/CORE/Z80_HARDLOCK_RESET*%
X157440000Y-55000000D03*
%TO.P,RIO2,16,Pin_16*%
%TO.N,/GLUE/Z80_HARDLOCK_SET*%
X154900000Y-55000000D03*
%TO.P,RIO2,17,Pin_17*%
%TO.N,/GLUE/PERM_Z80_IORQ*%
X152360000Y-55000000D03*
%TO.P,RIO2,18,Pin_18*%
%TO.N,GND*%
X149820000Y-55000000D03*
%TD*%
D14*
%TO.P,Z80-LOCAL_DATA1,1,A->B*%
%TO.N,/GLUE/Z80_BUS_CONTROL.Z80_DATA_DIR*%
X116580000Y-25380000D03*
D11*
%TO.P,Z80-LOCAL_DATA1,2,A0*%
%TO.N,/RIO connector/Z80_D0*%
X114040000Y-25380000D03*
%TO.P,Z80-LOCAL_DATA1,3,A1*%
%TO.N,/RIO connector/Z80_D1*%
X111500000Y-25380000D03*
%TO.P,Z80-LOCAL_DATA1,4,A2*%
%TO.N,/RIO connector/Z80_D2*%
X108960000Y-25380000D03*
%TO.P,Z80-LOCAL_DATA1,5,A3*%
%TO.N,/RIO connector/Z80_D3*%
X106420000Y-25380000D03*
%TO.P,Z80-LOCAL_DATA1,6,A4*%
%TO.N,/RIO connector/Z80_D4*%
X103880000Y-25380000D03*
%TO.P,Z80-LOCAL_DATA1,7,A5*%
%TO.N,/RIO connector/Z80_D5*%
X101340000Y-25380000D03*
%TO.P,Z80-LOCAL_DATA1,8,A6*%
%TO.N,/RIO connector/Z80_D6*%
X98800000Y-25380000D03*
%TO.P,Z80-LOCAL_DATA1,9,A7*%
%TO.N,/RIO connector/Z80_D7*%
X96260000Y-25380000D03*
%TO.P,Z80-LOCAL_DATA1,10,GND*%
%TO.N,GND*%
X93720000Y-25380000D03*
%TO.P,Z80-LOCAL_DATA1,11,B7*%
%TO.N,/CACHE connector/LOCAL_D7*%
X93720000Y-33000000D03*
%TO.P,Z80-LOCAL_DATA1,12,B6*%
%TO.N,/CACHE connector/LOCAL_D6*%
X96260000Y-33000000D03*
%TO.P,Z80-LOCAL_DATA1,13,B5*%
%TO.N,/CACHE connector/LOCAL_D5*%
X98800000Y-33000000D03*
%TO.P,Z80-LOCAL_DATA1,14,B4*%
%TO.N,/CACHE connector/LOCAL_D4*%
X101340000Y-33000000D03*
%TO.P,Z80-LOCAL_DATA1,15,B3*%
%TO.N,/CACHE connector/LOCAL_D3*%
X103880000Y-33000000D03*
%TO.P,Z80-LOCAL_DATA1,16,B2*%
%TO.N,/CACHE connector/LOCAL_D2*%
X106420000Y-33000000D03*
%TO.P,Z80-LOCAL_DATA1,17,B1*%
%TO.N,/CACHE connector/LOCAL_D1*%
X108960000Y-33000000D03*
%TO.P,Z80-LOCAL_DATA1,18,B0*%
%TO.N,/CACHE connector/LOCAL_D0*%
X111500000Y-33000000D03*
%TO.P,Z80-LOCAL_DATA1,19,CE*%
%TO.N,/GLUE/Z80_BUS_CONTROL.Z80_DATA_OE*%
X114040000Y-33000000D03*
%TO.P,Z80-LOCAL_DATA1,20,VCC*%
%TO.N,+5V*%
X116580000Y-33000000D03*
%TD*%
D12*
%TO.P,CACHE1,1,Pin_1*%
%TO.N,/CACHE connector/LOCAL_D0*%
X32500000Y-48780000D03*
D13*
%TO.P,CACHE1,2,Pin_2*%
%TO.N,/CACHE connector/LOCAL_D1*%
X35040000Y-48780000D03*
%TO.P,CACHE1,3,Pin_3*%
%TO.N,/CACHE connector/LOCAL_D2*%
X37580000Y-48780000D03*
%TO.P,CACHE1,4,Pin_4*%
%TO.N,/CACHE connector/LOCAL_D3*%
X40120000Y-48780000D03*
%TO.P,CACHE1,5,Pin_5*%
%TO.N,/CACHE connector/LOCAL_D4*%
X42660000Y-48780000D03*
%TO.P,CACHE1,6,Pin_6*%
%TO.N,/CACHE connector/LOCAL_D5*%
X45200000Y-48780000D03*
%TO.P,CACHE1,7,Pin_7*%
%TO.N,/CACHE connector/LOCAL_D6*%
X47740000Y-48780000D03*
%TO.P,CACHE1,8,Pin_8*%
%TO.N,/CACHE connector/LOCAL_D7*%
X50280000Y-48780000D03*
%TO.P,CACHE1,9,Pin_9*%
%TO.N,/CACHE connector/LOCAL_A0*%
X52820000Y-48780000D03*
%TO.P,CACHE1,10,Pin_10*%
%TO.N,/CACHE connector/LOCAL_A1*%
X55360000Y-48780000D03*
%TO.P,CACHE1,11,Pin_11*%
%TO.N,/CACHE connector/LOCAL_A2*%
X57900000Y-48780000D03*
%TO.P,CACHE1,12,Pin_12*%
%TO.N,/CACHE connector/LOCAL_A3*%
X60440000Y-48780000D03*
%TO.P,CACHE1,13,Pin_13*%
%TO.N,/CACHE connector/LOCAL_A4*%
X62980000Y-48780000D03*
%TO.P,CACHE1,14,Pin_14*%
%TO.N,/CACHE connector/LOCAL_A5*%
X65520000Y-48780000D03*
%TO.P,CACHE1,15,Pin_15*%
%TO.N,/CACHE connector/LOCAL_A6*%
X68060000Y-48780000D03*
%TO.P,CACHE1,16,Pin_16*%
%TO.N,/CACHE connector/LOCAL_A7*%
X70600000Y-48780000D03*
%TO.P,CACHE1,17,Pin_17*%
%TO.N,/CACHE connector/LOCAL_A8*%
X73140000Y-48780000D03*
%TO.P,CACHE1,18,Pin_18*%
%TO.N,/CACHE connector/LOCAL_A9*%
X75680000Y-48780000D03*
%TO.P,CACHE1,19,Pin_19*%
%TO.N,/CACHE connector/LOCAL_A10*%
X78220000Y-48780000D03*
%TO.P,CACHE1,20,Pin_20*%
%TO.N,/CACHE connector/LOCAL_A11*%
X80760000Y-48780000D03*
%TO.P,CACHE1,21,Pin_21*%
%TO.N,/CACHE connector/LOCAL_A12*%
X83300000Y-48780000D03*
%TO.P,CACHE1,22,Pin_22*%
%TO.N,/CACHE connector/LOCAL_A13*%
X85840000Y-48780000D03*
%TO.P,CACHE1,23,Pin_23*%
%TO.N,/CACHE connector/LOCAL_A14*%
X88380000Y-48780000D03*
%TO.P,CACHE1,24,Pin_24*%
%TO.N,/CACHE connector/LOCAL_A15*%
X90920000Y-48780000D03*
%TD*%
D14*
%TO.P,IC6,1*%
%TO.N,/GLUE/PERM_Z80_IORQ*%
X53700000Y-87875000D03*
D11*
%TO.P,IC6,2*%
%TO.N,Net-(IC5-Pad11)*%
X53700000Y-90415000D03*
%TO.P,IC6,3*%
%TO.N,/GLUE/RIO CONTROL/Z80_RD+ESP_IOD_CONFIG+PERM_Z80_IORQ*%
X53700000Y-92955000D03*
%TO.P,IC6,4*%
%TO.N,/SPI connector/ESP_CONTROL.MEMRQ*%
X53700000Y-95495000D03*
%TO.P,IC6,5*%
%TO.N,/SPI connector/ESP_CONTROL.IORQ*%
X53700000Y-98035000D03*
%TO.P,IC6,6*%
%TO.N,Net-(IC1-Pad13)*%
X53700000Y-100575000D03*
%TO.P,IC6,7,GND*%
%TO.N,unconnected-(IC6E-GND-Pad7)*%
X53700000Y-103115000D03*
%TO.P,IC6,8*%
%TO.N,unconnected-(IC6-Pad8)*%
X61320000Y-103115000D03*
%TO.P,IC6,9*%
%TO.N,GND*%
X61320000Y-100575000D03*
%TO.P,IC6,10*%
X61320000Y-98035000D03*
%TO.P,IC6,11*%
%TO.N,unconnected-(IC6-Pad11)*%
X61320000Y-95495000D03*
%TO.P,IC6,12*%
%TO.N,GND*%
X61320000Y-92955000D03*
%TO.P,IC6,13*%
X61320000Y-90415000D03*
%TO.P,IC6,14,VCC*%
%TO.N,unconnected-(IC6E-VCC-Pad14)*%
X61320000Y-87875000D03*
%TD*%
D12*
%TO.P,EX_SPI1,1,Pin_1*%
%TO.N,/CORE/EX_SS*%
X196000000Y-88040000D03*
D13*
%TO.P,EX_SPI1,2,Pin_2*%
%TO.N,/CORE/EX_SCK*%
X196000000Y-85500000D03*
%TO.P,EX_SPI1,3,Pin_3*%
%TO.N,/CORE/EX_MISO*%
X196000000Y-82960000D03*
%TO.P,EX_SPI1,4,Pin_4*%
%TO.N,/CORE/EX_MOSI*%
X196000000Y-80420000D03*
%TO.P,EX_SPI1,5,Pin_5*%
%TO.N,+5V*%
X196000000Y-77880000D03*
%TO.P,EX_SPI1,6,Pin_6*%
%TO.N,GND*%
X196000000Y-75340000D03*
%TD*%
D14*
%TO.P,C1,1*%
%TO.N,Net-(C1-Pad1)*%
X100000000Y-125000000D03*
D10*
%TO.P,C1,2*%
%TO.N,GND*%
X100000000Y-120000000D03*
%TD*%
D14*
%TO.P,IC3,1,~{R}*%
%TO.N,/GLUE/CLR_Z80_HARDLOCK*%
X83500000Y-67800000D03*
D11*
%TO.P,IC3,2,D*%
%TO.N,unconnected-(IC3A-D-Pad2)*%
X83500000Y-70340000D03*
%TO.P,IC3,3,C*%
%TO.N,unconnected-(IC3A-C-Pad3)*%
X83500000Y-72880000D03*
%TO.P,IC3,4,~{S}*%
%TO.N,/GLUE/PRE_Z80_HARDLOCK*%
X83500000Y-75420000D03*
%TO.P,IC3,5,Q*%
%TO.N,/CACHE connector/Z80_HARDLOCK*%
X83500000Y-77960000D03*
%TO.P,IC3,6,~{Q}*%
%TO.N,/GLUE/!Z80_HARDLOCK*%
X83500000Y-80500000D03*
%TO.P,IC3,7,GND*%
%TO.N,GND*%
X83500000Y-83040000D03*
%TO.P,IC3,8,~{Q}*%
%TO.N,Net-(D2-K)*%
X91120000Y-83040000D03*
%TO.P,IC3,9,Q*%
%TO.N,unconnected-(IC3B-Q-Pad9)*%
X91120000Y-80500000D03*
%TO.P,IC3,10,~{S}*%
%TO.N,Net-(IC3B-~{S})*%
X91120000Y-77960000D03*
%TO.P,IC3,11,C*%
%TO.N,unconnected-(IC3B-C-Pad11)*%
X91120000Y-75420000D03*
%TO.P,IC3,12,D*%
%TO.N,unconnected-(IC3B-D-Pad12)*%
X91120000Y-72880000D03*
%TO.P,IC3,13,~{R}*%
%TO.N,/CORE/ESP_WAIT_RESET*%
X91120000Y-70340000D03*
%TO.P,IC3,14,VCC*%
%TO.N,+5V*%
X91120000Y-67800000D03*
%TD*%
D15*
%TO.P,D7,1,K*%
%TO.N,/SPI connector/Z80_CONTROL.BUSRQ*%
X144920000Y-110000000D03*
D16*
%TO.P,D7,2,A*%
%TO.N,/GLUE/Z80 BUS CONTROL/Z80_ADD_CONNECT*%
X150000000Y-110000000D03*
%TD*%
D14*
%TO.P,IC2,1*%
%TO.N,Net-(IC1-Pad4)*%
X83880000Y-91840000D03*
D11*
%TO.P,IC2,2*%
%TO.N,/CORE/ESP_HARDLOCK*%
X83880000Y-94380000D03*
%TO.P,IC2,3*%
%TO.N,/GLUE/PRE_Z80_HARDLOCK*%
X83880000Y-96920000D03*
%TO.P,IC2,4*%
%TO.N,/GLUE/PERM_Z80_IORQ*%
X83880000Y-99460000D03*
%TO.P,IC2,5*%
%TO.N,/CACHE connector/CACHE_DATASTATUS*%
X83880000Y-102000000D03*
%TO.P,IC2,6*%
%TO.N,/CACHE connector/CACHE_CONTROL.DATASTATUS+PERM_Z80_IORQ*%
X83880000Y-104540000D03*
%TO.P,IC2,7,GND*%
%TO.N,GND*%
X83880000Y-107080000D03*
%TO.P,IC2,8*%
%TO.N,Net-(IC2-Pad13)*%
X91500000Y-107080000D03*
%TO.P,IC2,9*%
%TO.N,/CORE/ESP_HARDLOCK*%
X91500000Y-104540000D03*
%TO.P,IC2,10*%
%TO.N,/SPI connector/Z80_CONTROL.IORQ*%
X91500000Y-102000000D03*
%TO.P,IC2,11*%
%TO.N,/GLUE/PERM_Z80_IORQ*%
X91500000Y-99460000D03*
%TO.P,IC2,12*%
%TO.N,/RIO connector/Z80_A0*%
X91500000Y-96920000D03*
%TO.P,IC2,13*%
%TO.N,Net-(IC2-Pad13)*%
X91500000Y-94380000D03*
%TO.P,IC2,14,VCC*%
%TO.N,+5V*%
X91500000Y-91840000D03*
%TD*%
D12*
%TO.P,CACHE2,1,Pin_1*%
%TO.N,+5V*%
X6500000Y-48780000D03*
D13*
%TO.P,CACHE2,2,Pin_2*%
%TO.N,/CACHE connector/CACHE_CONTROL.A16*%
X6500000Y-46240000D03*
%TO.P,CACHE2,3,Pin_3*%
%TO.N,/CACHE connector/CACHE_CONTROL.WE*%
X6500000Y-43700000D03*
%TO.P,CACHE2,4,Pin_4*%
%TO.N,/CACHE connector/CACHE_CONTROL.OE*%
X6500000Y-41160000D03*
%TO.P,CACHE2,5,Pin_5*%
%TO.N,/CACHE connector/CACHE_CONTROL.CS*%
X6500000Y-38620000D03*
%TO.P,CACHE2,6,Pin_6*%
%TO.N,/CACHE connector/CACHE_CONTROL.DATASTATUS+PERM_Z80_IORQ*%
X6500000Y-36080000D03*
%TO.P,CACHE2,7,Pin_7*%
%TO.N,/CACHE connector/Z80_HARDLOCK*%
X6500000Y-33540000D03*
%TO.P,CACHE2,8,Pin_8*%
%TO.N,/CACHE connector/CACHE_SEL_0*%
X6500000Y-31000000D03*
%TO.P,CACHE2,9,Pin_9*%
%TO.N,/CACHE connector/CACHE_SEL_1*%
X6500000Y-28460000D03*
%TO.P,CACHE2,10,Pin_10*%
%TO.N,/CACHE connector/CACHE_SEL_2*%
X6500000Y-25920000D03*
%TO.P,CACHE2,11,Pin_11*%
%TO.N,/CACHE connector/CACHE_SEL_3*%
X6500000Y-23380000D03*
%TO.P,CACHE2,12,Pin_12*%
%TO.N,/CACHE connector/CACHE_DATASTATUS*%
X6500000Y-20840000D03*
%TO.P,CACHE2,13,Pin_13*%
%TO.N,unconnected-(CACHE2-Pin_13-Pad13)*%
X6500000Y-18300000D03*
%TO.P,CACHE2,14,Pin_14*%
%TO.N,GND*%
X6500000Y-15760000D03*
%TD*%
D14*
%TO.P,IC5,1*%
%TO.N,/GLUE/ESP_IOD_CONFIG*%
X101500000Y-91840000D03*
D11*
%TO.P,IC5,2*%
%TO.N,/SPI connector/Z80_CONTROL.WR*%
X101500000Y-94380000D03*
%TO.P,IC5,3*%
%TO.N,/GLUE/RIO CONTROL/Z80_WR+ESP_IOD_CONFIG*%
X101500000Y-96920000D03*
%TO.P,IC5,4*%
%TO.N,/SPI connector/ESP_CONTROL.WR*%
X101500000Y-99460000D03*
%TO.P,IC5,5*%
%TO.N,/GLUE/Z80 BUS CONTROL/Z80_DATA_CONNECT*%
X101500000Y-102000000D03*
%TO.P,IC5,6*%
%TO.N,Net-(IC5-Pad6)*%
X101500000Y-104540000D03*
%TO.P,IC5,7,GND*%
%TO.N,GND*%
X101500000Y-107080000D03*
%TO.P,IC5,8*%
%TO.N,/GLUE/RIO_CONTROL.ROM_RDY*%
X109120000Y-107080000D03*
%TO.P,IC5,9*%
%TO.N,/SPI connector/ESP_CONTROL.ROMCS*%
X109120000Y-104540000D03*
%TO.P,IC5,10*%
%TO.N,/SPI connector/Z80_CONTROL.MEMRQ*%
X109120000Y-102000000D03*
%TO.P,IC5,11*%
%TO.N,Net-(IC5-Pad11)*%
X109120000Y-99460000D03*
%TO.P,IC5,12*%
%TO.N,/SPI connector/Z80_CONTROL.RD*%
X109120000Y-96920000D03*
%TO.P,IC5,13*%
%TO.N,/GLUE/ESP_IOD_CONFIG*%
X109120000Y-94380000D03*
%TO.P,IC5,14,VCC*%
%TO.N,+5V*%
X109120000Y-91840000D03*
%TD*%
D12*
%TO.P,J3,1,Pin_1*%
%TO.N,/CACHE connector/LOCAL_D0*%
X119201200Y-104998800D03*
D13*
%TO.P,J3,2,Pin_2*%
%TO.N,/CACHE connector/LOCAL_D1*%
X119201200Y-102458800D03*
%TO.P,J3,3,Pin_3*%
%TO.N,/CACHE connector/LOCAL_D2*%
X119201200Y-99918800D03*
%TO.P,J3,4,Pin_4*%
%TO.N,/CACHE connector/LOCAL_D3*%
X119201200Y-97378800D03*
%TO.P,J3,5,Pin_5*%
%TO.N,/CACHE connector/LOCAL_D4*%
X119201200Y-94838800D03*
%TO.P,J3,6,Pin_6*%
%TO.N,/CACHE connector/LOCAL_D5*%
X119201200Y-92298800D03*
%TO.P,J3,7,Pin_7*%
%TO.N,/CACHE connector/LOCAL_D6*%
X119201200Y-89758800D03*
%TO.P,J3,8,Pin_8*%
%TO.N,/CACHE connector/LOCAL_D7*%
X119201200Y-87218800D03*
%TD*%
D12*
%TO.P,RIO1,1,Pin_1*%
%TO.N,/RIO connector/Z80_D0*%
X193000000Y-18000000D03*
D13*
%TO.P,RIO1,2,Pin_2*%
%TO.N,/RIO connector/Z80_D1*%
X190460000Y-18000000D03*
%TO.P,RIO1,3,Pin_3*%
%TO.N,/RIO connector/Z80_D2*%
X187920000Y-18000000D03*
%TO.P,RIO1,4,Pin_4*%
%TO.N,/RIO connector/Z80_D3*%
X185380000Y-18000000D03*
%TO.P,RIO1,5,Pin_5*%
%TO.N,/RIO connector/Z80_D4*%
X182840000Y-18000000D03*
%TO.P,RIO1,6,Pin_6*%
%TO.N,/RIO connector/Z80_D5*%
X180300000Y-18000000D03*
%TO.P,RIO1,7,Pin_7*%
%TO.N,/RIO connector/Z80_D6*%
X177760000Y-18000000D03*
%TO.P,RIO1,8,Pin_8*%
%TO.N,/RIO connector/Z80_D7*%
X175220000Y-18000000D03*
%TO.P,RIO1,9,Pin_9*%
%TO.N,/RIO connector/Z80_A0*%
X172680000Y-18000000D03*
%TO.P,RIO1,10,Pin_10*%
%TO.N,/RIO connector/Z80_A1*%
X170140000Y-18000000D03*
%TO.P,RIO1,11,Pin_11*%
%TO.N,/RIO connector/Z80_A2*%
X167600000Y-18000000D03*
%TO.P,RIO1,12,Pin_12*%
%TO.N,/RIO connector/Z80_A3*%
X165060000Y-18000000D03*
%TO.P,RIO1,13,Pin_13*%
%TO.N,/RIO connector/Z80_A4*%
X162520000Y-18000000D03*
%TO.P,RIO1,14,Pin_14*%
%TO.N,/RIO connector/Z80_A5*%
X159980000Y-18000000D03*
%TO.P,RIO1,15,Pin_15*%
%TO.N,/RIO connector/Z80_A6*%
X157440000Y-18000000D03*
%TO.P,RIO1,16,Pin_16*%
%TO.N,/RIO connector/Z80_A7*%
X154900000Y-18000000D03*
%TO.P,RIO1,17,Pin_17*%
%TO.N,/RIO connector/Z80_A8*%
X152360000Y-18000000D03*
%TO.P,RIO1,18,Pin_18*%
%TO.N,/RIO connector/Z80_A9*%
X149820000Y-18000000D03*
%TO.P,RIO1,19,Pin_19*%
%TO.N,/RIO connector/Z80_A10*%
X147280000Y-18000000D03*
%TO.P,RIO1,20,Pin_20*%
%TO.N,/RIO connector/Z80_A11*%
X144740000Y-18000000D03*
%TO.P,RIO1,21,Pin_21*%
%TO.N,/RIO connector/Z80_A12*%
X142200000Y-18000000D03*
%TO.P,RIO1,22,Pin_22*%
%TO.N,/RIO connector/Z80_A13*%
X139660000Y-18000000D03*
%TO.P,RIO1,23,Pin_23*%
%TO.N,/RIO connector/Z80_A14*%
X137120000Y-18000000D03*
%TO.P,RIO1,24,Pin_24*%
%TO.N,/RIO connector/Z80_A15*%
X134580000Y-18000000D03*
%TD*%
D10*
%TO.P,R3,1*%
%TO.N,+5V*%
X119790000Y-120000000D03*
D11*
%TO.P,R3,2*%
%TO.N,Net-(C1-Pad1)*%
X109630000Y-120000000D03*
%TD*%
D15*
%TO.P,D1,1,K*%
%TO.N,Net-(D1-K)*%
X157000000Y-110000000D03*
D16*
%TO.P,D1,2,A*%
%TO.N,/SPI connector/Z80_CONTROL.RESET*%
X157000000Y-115080000D03*
%TD*%
D12*
%TO.P,J5,1,Pin_1*%
%TO.N,/SPI connector/Z80_CONTROL.RD*%
X74201200Y-66998800D03*
D13*
%TO.P,J5,2,Pin_2*%
%TO.N,/SPI connector/Z80_CONTROL.WR*%
X71661200Y-66998800D03*
%TO.P,J5,3,Pin_3*%
%TO.N,/SPI connector/Z80_CONTROL.IORQ*%
X69121200Y-66998800D03*
%TO.P,J5,4,Pin_4*%
%TO.N,/SPI connector/Z80_CONTROL.MEMRQ*%
X66581200Y-66998800D03*
%TO.P,J5,5,Pin_5*%
%TO.N,/SPI connector/Z80_CONTROL.BUSRQ*%
X64041200Y-66998800D03*
%TO.P,J5,6,Pin_6*%
%TO.N,/SPI connector/Z80_CONTROL.WAIT*%
X61501200Y-66998800D03*
%TO.P,J5,7,Pin_7*%
%TO.N,/SPI connector/Z80_CONTROL.ROMCS*%
X58961200Y-66998800D03*
%TO.P,J5,8,Pin_8*%
%TO.N,/SPI connector/Z80_CONTROL.BUSACK*%
X56421200Y-66998800D03*
%TO.P,J5,9,Pin_9*%
%TO.N,/SPI connector/Z80_CONTROL.NMI*%
X53881200Y-66998800D03*
%TO.P,J5,10,Pin_10*%
%TO.N,/SPI connector/Z80_CONTROL.RESET*%
X51341200Y-66998800D03*
%TD*%
D14*
%TO.P,U1,1,1OE*%
%TO.N,/GLUE/RIO_CONTROL.A16*%
X163640000Y-35120000D03*
D11*
%TO.P,U1,2,1A0*%
%TO.N,/RIO connector/Z80_A15*%
X166180000Y-35120000D03*
%TO.P,U1,3,2Y0*%
%TO.N,/GLUE/RIO_CONTROL.A14*%
X168720000Y-35120000D03*
%TO.P,U1,4,1A1*%
%TO.N,/RIO connector/Z80_A14*%
X171260000Y-35120000D03*
%TO.P,U1,5,2Y1*%
%TO.N,/GLUE/RIO_CONTROL.A15*%
X173800000Y-35120000D03*
%TO.P,U1,6,1A2*%
%TO.N,/GLUE/RIO CONTROL/Z80_WR+ESP_IOD_CONFIG*%
X176340000Y-35120000D03*
%TO.P,U1,7,2Y2*%
%TO.N,/GLUE/RIO_CONTROL.WE*%
X178880000Y-35120000D03*
%TO.P,U1,8,1A3*%
%TO.N,/GLUE/RIO CONTROL/Z80_RD+ESP_IOD_CONFIG+PERM_Z80_IORQ*%
X181420000Y-35120000D03*
%TO.P,U1,9,2Y3*%
%TO.N,/GLUE/RIO_CONTROL.OE*%
X183960000Y-35120000D03*
%TO.P,U1,10,GND*%
%TO.N,GND*%
X186500000Y-35120000D03*
%TO.P,U1,11,2A3*%
%TO.N,/SPI connector/Z80_CONTROL.RD*%
X186500000Y-27500000D03*
%TO.P,U1,12,1Y3*%
%TO.N,/GLUE/RIO_CONTROL.OE*%
X183960000Y-27500000D03*
%TO.P,U1,13,2A2*%
%TO.N,/GLUE/RIO CONTROL/ROM_WR_PROTECT+Z80_WR*%
X181420000Y-27500000D03*
%TO.P,U1,14,1Y2*%
%TO.N,/GLUE/RIO_CONTROL.WE*%
X178880000Y-27500000D03*
%TO.P,U1,15,2A1*%
%TO.N,/CORE/ESP_ROMSEL_0*%
X176340000Y-27500000D03*
%TO.P,U1,16,1Y1*%
%TO.N,/GLUE/RIO_CONTROL.A15*%
X173800000Y-27500000D03*
%TO.P,U1,17,2A0*%
%TO.N,/CORE/ESP_ROMSEL_1*%
X171260000Y-27500000D03*
%TO.P,U1,18,1Y0*%
%TO.N,/GLUE/RIO_CONTROL.A14*%
X168720000Y-27500000D03*
%TO.P,U1,19,2OE*%
%TO.N,/GLUE/RIO_CONTROL.ROM_RDY*%
X166180000Y-27500000D03*
%TO.P,U1,20,VCC*%
%TO.N,+5V*%
X163640000Y-27500000D03*
%TD*%
D10*
%TO.P,R5,1*%
%TO.N,/GLUE/Z80 BUS CONTROL/Z80_ADD_CONNECT*%
X140000000Y-110000000D03*
D11*
%TO.P,R5,2*%
%TO.N,+5V*%
X129840000Y-110000000D03*
%TD*%
D15*
%TO.P,D5,1,K*%
%TO.N,/SPI connector/Z80_CONTROL.BUSACK*%
X173700000Y-100920000D03*
D16*
%TO.P,D5,2,A*%
%TO.N,/CORE/ESP_INT*%
X173700000Y-106000000D03*
%TD*%
D14*
%TO.P,C2,1*%
%TO.N,/CORE/ESP_WAIT_RESET*%
X142000000Y-124000000D03*
D10*
%TO.P,C2,2*%
%TO.N,GND*%
X142000000Y-119000000D03*
%TD*%
D12*
%TO.P,J6,1,Pin_1*%
%TO.N,/SPI connector/ESP_CONTROL.RD*%
X74201200Y-104998800D03*
D13*
%TO.P,J6,2,Pin_2*%
%TO.N,/SPI connector/ESP_CONTROL.WR*%
X74201200Y-102458800D03*
%TO.P,J6,3,Pin_3*%
%TO.N,/SPI connector/ESP_CONTROL.IORQ*%
X74201200Y-99918800D03*
%TO.P,J6,4,Pin_4*%
%TO.N,/SPI connector/ESP_CONTROL.MEMRQ*%
X74201200Y-97378800D03*
%TO.P,J6,5,Pin_5*%
%TO.N,/SPI connector/ESP_CONTROL.BUSRQ*%
X74201200Y-94838800D03*
%TO.P,J6,6,Pin_6*%
%TO.N,/SPI connector/ESP_CONTROL.WAIT*%
X74201200Y-92298800D03*
%TO.P,J6,7,Pin_7*%
%TO.N,/SPI connector/ESP_CONTROL.ROMCS*%
X74201200Y-89758800D03*
%TO.P,J6,8,Pin_8*%
%TO.N,/SPI connector/ESP_CONTROL.NMI*%
X74201200Y-87218800D03*
%TD*%
D10*
%TO.P,R6,1*%
%TO.N,+5V*%
X129840000Y-114000000D03*
D11*
%TO.P,R6,2*%
%TO.N,/GLUE/Z80 BUS CONTROL/Z80_DATA_CONNECT*%
X140000000Y-114000000D03*
%TD*%
D12*
%TO.P,LOCAL_CONTROL1,1,Pin_1*%
%TO.N,/SPI connector/LOCAL_CONTROL.RD*%
X42201200Y-66998800D03*
D13*
%TO.P,LOCAL_CONTROL1,2,Pin_2*%
%TO.N,/SPI connector/LOCAL_CONTROL.WR*%
X39661200Y-66998800D03*
%TO.P,LOCAL_CONTROL1,3,Pin_3*%
%TO.N,/SPI connector/LOCAL_CONTROL.IORQ*%
X37121200Y-66998800D03*
%TO.P,LOCAL_CONTROL1,4,Pin_4*%
%TO.N,/SPI connector/LOCAL_CONTROL.MEMRQ*%
X34581200Y-66998800D03*
%TD*%
D15*
%TO.P,D4,1,K*%
%TO.N,/CORE/Z80_HARDLOCK_RESET*%
X177850000Y-100920000D03*
D16*
%TO.P,D4,2,A*%
%TO.N,/CORE/ESP_INT*%
X177850000Y-106000000D03*
%TD*%
D15*
%TO.P,D8,1,K*%
%TO.N,/SPI connector/Z80_CONTROL.BUSRQ*%
X144920000Y-114000000D03*
D16*
%TO.P,D8,2,A*%
%TO.N,/GLUE/Z80 BUS CONTROL/Z80_DATA_CONNECT*%
X150000000Y-114000000D03*
%TD*%
D14*
%TO.P,IC4,1*%
%TO.N,Net-(C1-Pad1)*%
X129880000Y-56960000D03*
D11*
%TO.P,IC4,2*%
%TO.N,Net-(IC1-Pad6)*%
X129880000Y-59500000D03*
%TO.P,IC4,3*%
%TO.N,/GLUE/CLR_Z80_HARDLOCK*%
X129880000Y-62040000D03*
%TO.P,IC4,4*%
%TO.N,/GLUE/PERM_Z80_IORQ*%
X129880000Y-64580000D03*
%TO.P,IC4,5*%
%TO.N,/GLUE/ESP_IOD_CONFIG*%
X129880000Y-67120000D03*
%TO.P,IC4,6*%
%TO.N,/GLUE/RIO_CONTROL.A16*%
X129880000Y-69660000D03*
%TO.P,IC4,7,GND*%
%TO.N,GND*%
X129880000Y-72200000D03*
%TO.P,IC4,8*%
%TO.N,/GLUE/RIO_CONTROL.CE*%
X137500000Y-72200000D03*
%TO.P,IC4,9*%
%TO.N,Net-(IC4-Pad11)*%
X137500000Y-69660000D03*
%TO.P,IC4,10*%
%TO.N,/GLUE/RIO_CONTROL.A16*%
X137500000Y-67120000D03*
%TO.P,IC4,11*%
%TO.N,Net-(IC4-Pad11)*%
X137500000Y-64580000D03*
%TO.P,IC4,12*%
%TO.N,/GLUE/ESP_IOD_CONFIG*%
X137500000Y-62040000D03*
%TO.P,IC4,13*%
%TO.N,/GLUE/RIO_CONTROL.ROM_RDY*%
X137500000Y-59500000D03*
%TO.P,IC4,14,VCC*%
%TO.N,+5V*%
X137500000Y-56960000D03*
%TD*%
D14*
%TO.P,IC7,1*%
%TO.N,/GLUE/PERM_Z80_IORQ*%
X102380000Y-67760000D03*
D11*
%TO.P,IC7,2*%
%TO.N,/GLUE/Z80 BUS CONTROL/!CACHE_DATASTATUS*%
X102380000Y-70300000D03*
%TO.P,IC7,3*%
%TO.N,Net-(IC7-Pad3)*%
X102380000Y-72840000D03*
%TO.P,IC7,4*%
%TO.N,/GLUE/Z80 BUS CONTROL/Z80_DATA_CONNECT*%
X102380000Y-75380000D03*
%TO.P,IC7,5*%
%TO.N,/GLUE/PERM_Z80_IORQ*%
X102380000Y-77920000D03*
%TO.P,IC7,6*%
%TO.N,/GLUE/Z80_BUS_CONTROL.Z80_DATA_OE*%
X102380000Y-80460000D03*
%TO.P,IC7,7,GND*%
%TO.N,GND*%
X102380000Y-83000000D03*
%TO.P,IC7,8*%
%TO.N,/GLUE/ESP_IOD_CONFIG*%
X110000000Y-83000000D03*
%TO.P,IC7,9*%
%TO.N,Net-(IC1-Pad12)*%
X110000000Y-80460000D03*
%TO.P,IC7,10*%
%TO.N,/SPI connector/ESP_CONTROL.BUSRQ*%
X110000000Y-77920000D03*
%TO.P,IC7,11*%
%TO.N,/GLUE/RIO CONTROL/ROM_WR_PROTECT+Z80_WR*%
X110000000Y-75380000D03*
%TO.P,IC7,12*%
%TO.N,/SPI connector/Z80_CONTROL.WR*%
X110000000Y-72840000D03*
%TO.P,IC7,13*%
%TO.N,/CORE/ESP_ROM_WR_PROTECT*%
X110000000Y-70300000D03*
%TO.P,IC7,14,VCC*%
%TO.N,+5V*%
X110000000Y-67760000D03*
%TD*%
D15*
%TO.P,D3,1,K*%
%TO.N,/SPI connector/Z80_CONTROL.WAIT*%
X182000000Y-100920000D03*
D16*
%TO.P,D3,2,A*%
%TO.N,/CORE/ESP_INT*%
X182000000Y-106000000D03*
%TD*%
D12*
%TO.P,DIAG-HOST_SYSTEM_BUS1,1,Pin_1*%
%TO.N,/SPI connector/Z80_CONTROL.RD*%
X49500000Y-3500000D03*
D13*
%TO.P,DIAG-HOST_SYSTEM_BUS1,2,Pin_2*%
%TO.N,/SPI connector/Z80_CONTROL.WR*%
X52040000Y-3500000D03*
%TO.P,DIAG-HOST_SYSTEM_BUS1,3,Pin_3*%
%TO.N,/SPI connector/Z80_CONTROL.IORQ*%
X54580000Y-3500000D03*
%TO.P,DIAG-HOST_SYSTEM_BUS1,4,Pin_4*%
%TO.N,/SPI connector/Z80_CONTROL.MEMRQ*%
X57120000Y-3500000D03*
%TO.P,DIAG-HOST_SYSTEM_BUS1,5,Pin_5*%
%TO.N,/SPI connector/Z80_CONTROL.BUSRQ*%
X59660000Y-3500000D03*
%TO.P,DIAG-HOST_SYSTEM_BUS1,6,Pin_6*%
%TO.N,/SPI connector/Z80_CONTROL.WAIT*%
X62200000Y-3500000D03*
%TO.P,DIAG-HOST_SYSTEM_BUS1,7,Pin_7*%
%TO.N,/SPI connector/Z80_CONTROL.NMI*%
X64740000Y-3500000D03*
%TO.P,DIAG-HOST_SYSTEM_BUS1,8,Pin_8*%
%TO.N,/SPI connector/Z80_CONTROL.ROMCS*%
X67280000Y-3500000D03*
%TO.P,DIAG-HOST_SYSTEM_BUS1,9,Pin_9*%
%TO.N,/SPI connector/Z80_CONTROL.BUSACK*%
X69820000Y-3500000D03*
%TO.P,DIAG-HOST_SYSTEM_BUS1,10,Pin_10*%
%TO.N,/SPI connector/Z80_CONTROL.RESET*%
X72360000Y-3500000D03*
%TO.P,DIAG-HOST_SYSTEM_BUS1,11,Pin_11*%
%TO.N,/RIO connector/Z80_A7*%
X74900000Y-3500000D03*
%TO.P,DIAG-HOST_SYSTEM_BUS1,12,Pin_12*%
%TO.N,/RIO connector/Z80_A6*%
X77440000Y-3500000D03*
%TO.P,DIAG-HOST_SYSTEM_BUS1,13,Pin_13*%
%TO.N,/RIO connector/Z80_A5*%
X79980000Y-3500000D03*
%TO.P,DIAG-HOST_SYSTEM_BUS1,14,Pin_14*%
%TO.N,/RIO connector/Z80_A4*%
X82520000Y-3500000D03*
%TO.P,DIAG-HOST_SYSTEM_BUS1,15,Pin_15*%
%TO.N,/RIO connector/Z80_A3*%
X85060000Y-3500000D03*
%TO.P,DIAG-HOST_SYSTEM_BUS1,16,Pin_16*%
%TO.N,/RIO connector/Z80_A2*%
X87600000Y-3500000D03*
%TO.P,DIAG-HOST_SYSTEM_BUS1,17,Pin_17*%
%TO.N,/RIO connector/Z80_A1*%
X90140000Y-3500000D03*
%TO.P,DIAG-HOST_SYSTEM_BUS1,18,Pin_18*%
%TO.N,/RIO connector/Z80_A0*%
X92680000Y-3500000D03*
%TO.P,DIAG-HOST_SYSTEM_BUS1,19,Pin_19*%
%TO.N,/RIO connector/Z80_A15*%
X95220000Y-3500000D03*
%TO.P,DIAG-HOST_SYSTEM_BUS1,20,Pin_20*%
%TO.N,/RIO connector/Z80_A14*%
X97760000Y-3500000D03*
%TO.P,DIAG-HOST_SYSTEM_BUS1,21,Pin_21*%
%TO.N,/RIO connector/Z80_A13*%
X100300000Y-3500000D03*
%TO.P,DIAG-HOST_SYSTEM_BUS1,22,Pin_22*%
%TO.N,/RIO connector/Z80_A12*%
X102840000Y-3500000D03*
%TO.P,DIAG-HOST_SYSTEM_BUS1,23,Pin_23*%
%TO.N,/RIO connector/Z80_A11*%
X105380000Y-3500000D03*
%TO.P,DIAG-HOST_SYSTEM_BUS1,24,Pin_24*%
%TO.N,/RIO connector/Z80_A10*%
X107920000Y-3500000D03*
%TO.P,DIAG-HOST_SYSTEM_BUS1,25,Pin_25*%
%TO.N,/RIO connector/Z80_A9*%
X110460000Y-3500000D03*
%TO.P,DIAG-HOST_SYSTEM_BUS1,26,Pin_26*%
%TO.N,/RIO connector/Z80_A8*%
X113000000Y-3500000D03*
%TO.P,DIAG-HOST_SYSTEM_BUS1,27,Pin_27*%
%TO.N,/RIO connector/Z80_D7*%
X115540000Y-3500000D03*
%TO.P,DIAG-HOST_SYSTEM_BUS1,28,Pin_28*%
%TO.N,/RIO connector/Z80_D6*%
X118080000Y-3500000D03*
%TO.P,DIAG-HOST_SYSTEM_BUS1,29,Pin_29*%
%TO.N,/RIO connector/Z80_D5*%
X120620000Y-3500000D03*
%TO.P,DIAG-HOST_SYSTEM_BUS1,30,Pin_30*%
%TO.N,/RIO connector/Z80_D4*%
X123160000Y-3500000D03*
%TO.P,DIAG-HOST_SYSTEM_BUS1,31,Pin_31*%
%TO.N,/RIO connector/Z80_D3*%
X125700000Y-3500000D03*
%TO.P,DIAG-HOST_SYSTEM_BUS1,32,Pin_32*%
%TO.N,/RIO connector/Z80_D2*%
X128240000Y-3500000D03*
%TO.P,DIAG-HOST_SYSTEM_BUS1,33,Pin_33*%
%TO.N,/RIO connector/Z80_D1*%
X130780000Y-3500000D03*
%TO.P,DIAG-HOST_SYSTEM_BUS1,34,Pin_34*%
%TO.N,/RIO connector/Z80_D0*%
X133320000Y-3500000D03*
%TO.P,DIAG-HOST_SYSTEM_BUS1,35,Pin_35*%
%TO.N,unconnected-(DIAG-HOST_SYSTEM_BUS1-Pin_35-Pad35)*%
X135860000Y-3500000D03*
%TO.P,DIAG-HOST_SYSTEM_BUS1,36,Pin_36*%
%TO.N,unconnected-(DIAG-HOST_SYSTEM_BUS1-Pin_36-Pad36)*%
X138400000Y-3500000D03*
%TO.P,DIAG-HOST_SYSTEM_BUS1,37,Pin_37*%
%TO.N,unconnected-(DIAG-HOST_SYSTEM_BUS1-Pin_37-Pad37)*%
X140940000Y-3500000D03*
%TO.P,DIAG-HOST_SYSTEM_BUS1,38,Pin_38*%
%TO.N,unconnected-(DIAG-HOST_SYSTEM_BUS1-Pin_38-Pad38)*%
X143480000Y-3500000D03*
%TO.P,DIAG-HOST_SYSTEM_BUS1,39,Pin_39*%
%TO.N,/ZX80-BUS/HOST VCC*%
X146020000Y-3500000D03*
%TO.P,DIAG-HOST_SYSTEM_BUS1,40,Pin_40*%
%TO.N,GND*%
X148560000Y-3500000D03*
%TD*%
D15*
%TO.P,D6,1,K*%
%TO.N,Net-(D6-K)*%
X160080000Y-42000000D03*
D16*
%TO.P,D6,2,A*%
%TO.N,+5V*%
X155000000Y-42000000D03*
%TD*%
D14*
%TO.P,IC1,1*%
%TO.N,/CORE/ESP_HARDLOCK*%
X129880000Y-32460000D03*
D11*
%TO.P,IC1,2*%
%TO.N,/GLUE/!ESP_HARDLOCK*%
X129880000Y-35000000D03*
%TO.P,IC1,3*%
%TO.N,/GLUE/Z80_HARDLOCK_SET*%
X129880000Y-37540000D03*
%TO.P,IC1,4*%
%TO.N,Net-(IC1-Pad4)*%
X129880000Y-40080000D03*
%TO.P,IC1,5*%
%TO.N,/CORE/Z80_HARDLOCK_RESET*%
X129880000Y-42620000D03*
%TO.P,IC1,6*%
%TO.N,Net-(IC1-Pad6)*%
X129880000Y-45160000D03*
%TO.P,IC1,7,GND*%
%TO.N,GND*%
X129880000Y-47700000D03*
%TO.P,IC1,8*%
%TO.N,Net-(IC3B-~{S})*%
X137500000Y-47700000D03*
%TO.P,IC1,9*%
%TO.N,/GLUE/WAIT_IO*%
X137500000Y-45160000D03*
%TO.P,IC1,10*%
%TO.N,/GLUE/Z80 BUS CONTROL/!CACHE_DATASTATUS*%
X137500000Y-42620000D03*
%TO.P,IC1,11*%
%TO.N,/CACHE connector/CACHE_DATASTATUS*%
X137500000Y-40080000D03*
%TO.P,IC1,12*%
%TO.N,Net-(IC1-Pad12)*%
X137500000Y-37540000D03*
%TO.P,IC1,13*%
%TO.N,Net-(IC1-Pad13)*%
X137500000Y-35000000D03*
%TO.P,IC1,14,VCC*%
%TO.N,+5V*%
X137500000Y-32460000D03*
%TD*%
D14*
%TO.P,IC9,1*%
%TO.N,/SPI connector/Z80_CONTROL.RD*%
X143000000Y-87875000D03*
D11*
%TO.P,IC9,2*%
%TO.N,/GLUE/PERM_Z80_IORQ*%
X143000000Y-90415000D03*
%TO.P,IC9,3*%
%TO.N,Net-(IC9-Pad3)*%
X143000000Y-92955000D03*
%TO.P,IC9,4*%
X143000000Y-95495000D03*
%TO.P,IC9,5*%
%TO.N,Net-(IC5-Pad6)*%
X143000000Y-98035000D03*
%TO.P,IC9,6*%
%TO.N,/GLUE/Z80_BUS_CONTROL.Z80_DATA_DIR*%
X143000000Y-100575000D03*
%TO.P,IC9,7,GND*%
%TO.N,GND*%
X143000000Y-103115000D03*
%TO.P,IC9,8*%
%TO.N,/GLUE/Z80_BUS_CONTROL.Z80_ADD_OE*%
X150620000Y-103115000D03*
%TO.P,IC9,9*%
%TO.N,/GLUE/Z80 BUS CONTROL/Z80_ADD_CONNECT*%
X150620000Y-100575000D03*
%TO.P,IC9,10*%
%TO.N,Net-(IC7-Pad3)*%
X150620000Y-98035000D03*
%TO.P,IC9,11*%
%TO.N,/GLUE/Z80_BUS_CONTROL.Z80_ADD_DIR*%
X150620000Y-95495000D03*
%TO.P,IC9,12*%
%TO.N,/GLUE/ESP_IOD_CONFIG*%
X150620000Y-92955000D03*
%TO.P,IC9,13*%
%TO.N,/SPI connector/ESP_CONTROL.MEMRQ*%
X150620000Y-90415000D03*
%TO.P,IC9,14,VCC*%
%TO.N,+5V*%
X150620000Y-87875000D03*
%TD*%
D12*
%TO.P,J1,1,Pin_1*%
%TO.N,+5V*%
X157201200Y-66998800D03*
D13*
%TO.P,J1,2,Pin_2*%
%TO.N,/CORE/ESP_PULSE*%
X154661200Y-66998800D03*
%TO.P,J1,3,Pin_3*%
%TO.N,/GLUE/!ESP_HARDLOCK*%
X152121200Y-66998800D03*
%TO.P,J1,4,Pin_4*%
%TO.N,GND*%
X149581200Y-66998800D03*
%TD*%
D12*
%TO.P,J7,1,Pin_1*%
%TO.N,/CACHE connector/LOCAL_A0*%
X42201200Y-104998800D03*
D13*
%TO.P,J7,2,Pin_2*%
%TO.N,/CACHE connector/LOCAL_A1*%
X42201200Y-102458800D03*
%TO.P,J7,3,Pin_3*%
%TO.N,/CACHE connector/LOCAL_A2*%
X42201200Y-99918800D03*
%TO.P,J7,4,Pin_4*%
%TO.N,/CACHE connector/LOCAL_A3*%
X42201200Y-97378800D03*
%TO.P,J7,5,Pin_5*%
%TO.N,/CACHE connector/LOCAL_A4*%
X42201200Y-94838800D03*
%TO.P,J7,6,Pin_6*%
%TO.N,/CACHE connector/LOCAL_A5*%
X42201200Y-92298800D03*
%TO.P,J7,7,Pin_7*%
%TO.N,/CACHE connector/LOCAL_A6*%
X42201200Y-89758800D03*
%TO.P,J7,8,Pin_8*%
%TO.N,/CACHE connector/LOCAL_A7*%
X42201200Y-87218800D03*
%TD*%
D10*
%TO.P,R1,1*%
%TO.N,/CORE/ESP_INT*%
X182000000Y-110420000D03*
D11*
%TO.P,R1,2*%
%TO.N,+5V*%
X182000000Y-120580000D03*
%TD*%
D17*
%TO.P,U2,1,3V3*%
%TO.N,unconnected-(U2-3V3-Pad1)*%
X190500000Y-126000000D03*
%TO.P,U2,2,EN*%
%TO.N,unconnected-(U2-EN-Pad2)*%
X190500000Y-123460000D03*
%TO.P,U2,3,GPIO36*%
%TO.N,/CORE/ESP_INT*%
X190500000Y-120920000D03*
%TO.P,U2,4,GPIO39*%
%TO.N,/CACHE connector/Z80_HARDLOCK*%
X190500000Y-118380000D03*
%TO.P,U2,5,GPIO34*%
%TO.N,unconnected-(U2-GPIO34-Pad5)*%
X190500000Y-115840000D03*
%TO.P,U2,6,GPIO35*%
%TO.N,unconnected-(U2-GPIO35-Pad6)*%
X190500000Y-113300000D03*
%TO.P,U2,7,GPIO32*%
%TO.N,unconnected-(U2-GPIO32-Pad7)*%
X190500000Y-110760000D03*
%TO.P,U2,8,GPIO33*%
%TO.N,/CORE/ESP_SPI_INT.OE*%
X190500000Y-108220000D03*
%TO.P,U2,9,GPIO25*%
%TO.N,/CORE/ESP_SPI_INT.PL*%
X190500000Y-105680000D03*
%TO.P,U2,10,GPIO26*%
%TO.N,/CORE/ESP_SPI_INT.STC*%
X190500000Y-103140000D03*
%TO.P,U2,11,GPIO27*%
%TO.N,/CORE/ESP_PULSE*%
X190500000Y-100600000D03*
%TO.P,U2,12,GPIO14*%
%TO.N,/CORE/EX_SCK*%
X190500000Y-98060000D03*
%TO.P,U2,13,GPIO12*%
%TO.N,/CORE/EX_MISO*%
X190500000Y-95520000D03*
%TO.P,U2,14,GND*%
%TO.N,unconnected-(U2-GND-Pad14)*%
X190500000Y-92980000D03*
%TO.P,U2,15,GPIO13*%
%TO.N,/CORE/EX_MOSI*%
X190500000Y-90440000D03*
%TO.P,U2,16,GPIO9*%
%TO.N,unconnected-(U2-GPIO9-Pad16)*%
X190500000Y-87900000D03*
%TO.P,U2,17,GPIO10*%
%TO.N,unconnected-(U2-GPIO10-Pad17)*%
X190500000Y-85360000D03*
%TO.P,U2,18,GPIO11*%
%TO.N,/CORE/ESP_WAIT_RESET*%
X190500000Y-82820000D03*
%TO.P,U2,19,+5v*%
%TO.N,unconnected-(U2-+5v-Pad19)*%
X190500000Y-80280000D03*
%TO.P,U2,20,+5V*%
%TO.N,+5V*%
X190500000Y-77740000D03*
%TO.P,U2,21,GND*%
%TO.N,GND*%
X190500000Y-75200000D03*
%TO.P,U2,22,GPIO6*%
%TO.N,/CORE/ESP_ROMSEL_1*%
X165500000Y-75200000D03*
%TO.P,U2,23,GPIO7*%
%TO.N,/CORE/ESP_ROMSEL_0*%
X165500000Y-77740000D03*
%TO.P,U2,24,GPIO15*%
%TO.N,/CORE/SD_CARD_SS*%
X165500000Y-80280000D03*
%TO.P,U2,25,GPIO8*%
%TO.N,/CORE/EX_SS*%
X165500000Y-82820000D03*
%TO.P,U2,26,GPIO2*%
%TO.N,/CORE/ESP_HARDLOCK*%
X165500000Y-85360000D03*
%TO.P,U2,27,GPIO0*%
%TO.N,unconnected-(U2-GPIO0-Pad27)*%
X165500000Y-87900000D03*
%TO.P,U2,28,GPIO4*%
%TO.N,/CORE/ESP_ROM_WR_PROTECT*%
X165500000Y-90440000D03*
%TO.P,U2,29,GND*%
%TO.N,unconnected-(U2-GND-Pad29)*%
X165500000Y-92980000D03*
%TO.P,U2,30,GND*%
%TO.N,unconnected-(U2-GND-Pad30)*%
X165500000Y-95520000D03*
%TO.P,U2,31,GPIO5*%
%TO.N,/CORE/ESP_SPI_INT.CE*%
X165500000Y-98060000D03*
%TO.P,U2,32,GPIO18*%
%TO.N,/CORE/ESP_SPI_INT.SCK*%
X165500000Y-100600000D03*
%TO.P,U2,33,GPIO19*%
%TO.N,/CORE/ESP_SPI_INT.MISO*%
X165500000Y-103140000D03*
%TO.P,U2,34,GND*%
%TO.N,GND*%
X165500000Y-105680000D03*
%TO.P,U2,35,GPIO21*%
%TO.N,Net-(D1-K)*%
X165500000Y-108220000D03*
%TO.P,U2,36,RX_GPIO3*%
%TO.N,unconnected-(U2-RX_GPIO3-Pad36)*%
X165500000Y-110760000D03*
%TO.P,U2,37,TX_GPIO1*%
%TO.N,unconnected-(U2-TX_GPIO1-Pad37)*%
X165500000Y-113300000D03*
%TO.P,U2,38,GPIO22*%
%TO.N,/CORE/SD_CARD_SS*%
X165500000Y-115840000D03*
%TO.P,U2,39,GPIO23*%
%TO.N,/CORE/ESP_SPI_INT.MOSI*%
X165500000Y-118380000D03*
%TO.P,U2,40,GND*%
%TO.N,GND*%
X165500000Y-120920000D03*
%TO.P,U2,41*%
%TO.N,N/C*%
X165500000Y-123460000D03*
%TO.P,U2,42*%
X165500000Y-126000000D03*
%TD*%
D12*
%TO.P,J8,1,Pin_1*%
%TO.N,/CACHE connector/LOCAL_A8*%
X12201200Y-104998800D03*
D13*
%TO.P,J8,2,Pin_2*%
%TO.N,/CACHE connector/LOCAL_A9*%
X12201200Y-102458800D03*
%TO.P,J8,3,Pin_3*%
%TO.N,/CACHE connector/LOCAL_A10*%
X12201200Y-99918800D03*
%TO.P,J8,4,Pin_4*%
%TO.N,/CACHE connector/LOCAL_A11*%
X12201200Y-97378800D03*
%TO.P,J8,5,Pin_5*%
%TO.N,/CACHE connector/LOCAL_A12*%
X12201200Y-94838800D03*
%TO.P,J8,6,Pin_6*%
%TO.N,/CACHE connector/LOCAL_A13*%
X12201200Y-92298800D03*
%TO.P,J8,7,Pin_7*%
%TO.N,/CACHE connector/LOCAL_A14*%
X12201200Y-89758800D03*
%TO.P,J8,8,Pin_8*%
%TO.N,/CACHE connector/LOCAL_A15*%
X12201200Y-87218800D03*
%TD*%
D14*
%TO.P,Z80_ADDRLOW1,1,A->B*%
%TO.N,/GLUE/Z80_BUS_CONTROL.Z80_ADD_DIR*%
X53580000Y-25260000D03*
D11*
%TO.P,Z80_ADDRLOW1,2,A0*%
%TO.N,/RIO connector/Z80_A0*%
X51040000Y-25260000D03*
%TO.P,Z80_ADDRLOW1,3,A1*%
%TO.N,/RIO connector/Z80_A1*%
X48500000Y-25260000D03*
%TO.P,Z80_ADDRLOW1,4,A2*%
%TO.N,/RIO connector/Z80_A2*%
X45960000Y-25260000D03*
%TO.P,Z80_ADDRLOW1,5,A3*%
%TO.N,/RIO connector/Z80_A3*%
X43420000Y-25260000D03*
%TO.P,Z80_ADDRLOW1,6,A4*%
%TO.N,/RIO connector/Z80_A4*%
X40880000Y-25260000D03*
%TO.P,Z80_ADDRLOW1,7,A5*%
%TO.N,/RIO connector/Z80_A5*%
X38340000Y-25260000D03*
%TO.P,Z80_ADDRLOW1,8,A6*%
%TO.N,/RIO connector/Z80_A6*%
X35800000Y-25260000D03*
%TO.P,Z80_ADDRLOW1,9,A7*%
%TO.N,/RIO connector/Z80_A7*%
X33260000Y-25260000D03*
%TO.P,Z80_ADDRLOW1,10,GND*%
%TO.N,GND*%
X30720000Y-25260000D03*
%TO.P,Z80_ADDRLOW1,11,B7*%
%TO.N,/CACHE connector/LOCAL_A7*%
X30720000Y-32880000D03*
%TO.P,Z80_ADDRLOW1,12,B6*%
%TO.N,/CACHE connector/LOCAL_A6*%
X33260000Y-32880000D03*
%TO.P,Z80_ADDRLOW1,13,B5*%
%TO.N,/CACHE connector/LOCAL_A5*%
X35800000Y-32880000D03*
%TO.P,Z80_ADDRLOW1,14,B4*%
%TO.N,/CACHE connector/LOCAL_A4*%
X38340000Y-32880000D03*
%TO.P,Z80_ADDRLOW1,15,B3*%
%TO.N,/CACHE connector/LOCAL_A3*%
X40880000Y-32880000D03*
%TO.P,Z80_ADDRLOW1,16,B2*%
%TO.N,/CACHE connector/LOCAL_A2*%
X43420000Y-32880000D03*
%TO.P,Z80_ADDRLOW1,17,B1*%
%TO.N,/CACHE connector/LOCAL_A1*%
X45960000Y-32880000D03*
%TO.P,Z80_ADDRLOW1,18,B0*%
%TO.N,/CACHE connector/LOCAL_A0*%
X48500000Y-32880000D03*
%TO.P,Z80_ADDRLOW1,19,CE*%
%TO.N,/GLUE/Z80_BUS_CONTROL.Z80_ADD_OE*%
X51040000Y-32880000D03*
%TO.P,Z80_ADDRLOW1,20,VCC*%
%TO.N,+5V*%
X53580000Y-32880000D03*
%TD*%
D14*
%TO.P,Z80_ADDRHIGH1,1,A->B*%
%TO.N,/GLUE/Z80_BUS_CONTROL.Z80_ADD_DIR*%
X86540000Y-25260000D03*
D11*
%TO.P,Z80_ADDRHIGH1,2,A0*%
%TO.N,/RIO connector/Z80_A8*%
X84000000Y-25260000D03*
%TO.P,Z80_ADDRHIGH1,3,A1*%
%TO.N,/RIO connector/Z80_A9*%
X81460000Y-25260000D03*
%TO.P,Z80_ADDRHIGH1,4,A2*%
%TO.N,/RIO connector/Z80_A10*%
X78920000Y-25260000D03*
%TO.P,Z80_ADDRHIGH1,5,A3*%
%TO.N,/RIO connector/Z80_A11*%
X76380000Y-25260000D03*
%TO.P,Z80_ADDRHIGH1,6,A4*%
%TO.N,/RIO connector/Z80_A12*%
X73840000Y-25260000D03*
%TO.P,Z80_ADDRHIGH1,7,A5*%
%TO.N,/RIO connector/Z80_A13*%
X71300000Y-25260000D03*
%TO.P,Z80_ADDRHIGH1,8,A6*%
%TO.N,/RIO connector/Z80_A14*%
X68760000Y-25260000D03*
%TO.P,Z80_ADDRHIGH1,9,A7*%
%TO.N,/RIO connector/Z80_A15*%
X66220000Y-25260000D03*
%TO.P,Z80_ADDRHIGH1,10,GND*%
%TO.N,GND*%
X63680000Y-25260000D03*
%TO.P,Z80_ADDRHIGH1,11,B7*%
%TO.N,/CACHE connector/LOCAL_A15*%
X63680000Y-32880000D03*
%TO.P,Z80_ADDRHIGH1,12,B6*%
%TO.N,/CACHE connector/LOCAL_A14*%
X66220000Y-32880000D03*
%TO.P,Z80_ADDRHIGH1,13,B5*%
%TO.N,/CACHE connector/LOCAL_A13*%
X68760000Y-32880000D03*
%TO.P,Z80_ADDRHIGH1,14,B4*%
%TO.N,/CACHE connector/LOCAL_A12*%
X71300000Y-32880000D03*
%TO.P,Z80_ADDRHIGH1,15,B3*%
%TO.N,/CACHE connector/LOCAL_A11*%
X73840000Y-32880000D03*
%TO.P,Z80_ADDRHIGH1,16,B2*%
%TO.N,/CACHE connector/LOCAL_A10*%
X76380000Y-32880000D03*
%TO.P,Z80_ADDRHIGH1,17,B1*%
%TO.N,/CACHE connector/LOCAL_A9*%
X78920000Y-32880000D03*
%TO.P,Z80_ADDRHIGH1,18,B0*%
%TO.N,/CACHE connector/LOCAL_A8*%
X81460000Y-32880000D03*
%TO.P,Z80_ADDRHIGH1,19,CE*%
%TO.N,/GLUE/Z80_BUS_CONTROL.Z80_ADD_OE*%
X84000000Y-32880000D03*
%TO.P,Z80_ADDRHIGH1,20,VCC*%
%TO.N,+5V*%
X86540000Y-32880000D03*
%TD*%
D14*
%TO.P,RN1,1,common*%
%TO.N,Net-(D6-K)*%
X170500000Y-42000000D03*
D11*
%TO.P,RN1,2,R1*%
%TO.N,/GLUE/RIO_CONTROL.A14*%
X173040000Y-42000000D03*
%TO.P,RN1,3,R2*%
%TO.N,/GLUE/RIO_CONTROL.A15*%
X175580000Y-42000000D03*
%TO.P,RN1,4,R3*%
%TO.N,/GLUE/RIO_CONTROL.WE*%
X178120000Y-42000000D03*
%TO.P,RN1,5,R4*%
%TO.N,/GLUE/RIO_CONTROL.OE*%
X180660000Y-42000000D03*
%TO.P,RN1,6,R5*%
%TO.N,unconnected-(RN1-R5-Pad6)*%
X183200000Y-42000000D03*
%TO.P,RN1,7,R6*%
%TO.N,unconnected-(RN1-R6-Pad7)*%
X185740000Y-42000000D03*
%TO.P,RN1,8,R7*%
%TO.N,unconnected-(RN1-R7-Pad8)*%
X188280000Y-42000000D03*
%TO.P,RN1,9,R8*%
%TO.N,unconnected-(RN1-R8-Pad9)*%
X190820000Y-42000000D03*
%TD*%
D14*
%TO.P,IC8,1*%
%TO.N,/CACHE connector/CACHE_DATASTATUS*%
X19000000Y-88000000D03*
D11*
%TO.P,IC8,2*%
%TO.N,/SPI connector/LOCAL_CONTROL.IORQ*%
X19000000Y-90540000D03*
%TO.P,IC8,3*%
%TO.N,/CACHE connector/CACHE_CONTROL.A16*%
X19000000Y-93080000D03*
%TO.P,IC8,4*%
%TO.N,/SPI connector/Z80_CONTROL.WR*%
X19000000Y-95620000D03*
%TO.P,IC8,5*%
%TO.N,/SPI connector/LOCAL_CONTROL.WR*%
X19000000Y-98160000D03*
%TO.P,IC8,6*%
%TO.N,/CACHE connector/CACHE_CONTROL.WE*%
X19000000Y-100700000D03*
%TO.P,IC8,7,GND*%
%TO.N,unconnected-(IC8E-GND-Pad7)*%
X19000000Y-103240000D03*
%TO.P,IC8,8*%
%TO.N,/CACHE connector/CACHE_CONTROL.OE*%
X26620000Y-103240000D03*
%TO.P,IC8,9*%
%TO.N,/SPI connector/Z80_CONTROL.RD*%
X26620000Y-100700000D03*
%TO.P,IC8,10*%
%TO.N,/SPI connector/LOCAL_CONTROL.RD*%
X26620000Y-98160000D03*
%TO.P,IC8,11*%
%TO.N,/CACHE connector/CACHE_CONTROL.CS*%
X26620000Y-95620000D03*
%TO.P,IC8,12*%
%TO.N,/GLUE/PERM_Z80_IORQ*%
X26620000Y-93080000D03*
%TO.P,IC8,13*%
%TO.N,/SPI connector/LOCAL_CONTROL.MEMRQ*%
X26620000Y-90540000D03*
%TO.P,IC8,14,VCC*%
%TO.N,unconnected-(IC8E-VCC-Pad14)*%
X26620000Y-88000000D03*
%TD*%
D12*
%TO.P,J4,1,Pin_1*%
%TO.N,/CORE/ESP_SPI_INT.MOSI*%
X157201200Y-104998800D03*
D13*
%TO.P,J4,2,Pin_2*%
%TO.N,/CORE/ESP_SPI_INT.MISO*%
X157201200Y-102458800D03*
%TO.P,J4,3,Pin_3*%
%TO.N,/CORE/ESP_SPI_INT.SCK*%
X157201200Y-99918800D03*
%TO.P,J4,4,Pin_4*%
%TO.N,/CORE/ESP_SPI_INT.STC*%
X157201200Y-97378800D03*
%TO.P,J4,5,Pin_5*%
%TO.N,/CORE/ESP_SPI_INT.PL*%
X157201200Y-94838800D03*
%TO.P,J4,6,Pin_6*%
%TO.N,/CORE/ESP_SPI_INT.CE*%
X157201200Y-92298800D03*
%TO.P,J4,7,Pin_7*%
%TO.N,/CORE/ESP_SPI_INT.OE*%
X157201200Y-89758800D03*
%TO.P,J4,8,Pin_8*%
%TO.N,/CORE/ESP_SPI_INT.MR*%
X157201200Y-87218800D03*
%TD*%
D15*
%TO.P,D2,1,K*%
%TO.N,Net-(D2-K)*%
X62000000Y-77540000D03*
D16*
%TO.P,D2,2,A*%
%TO.N,/SPI connector/Z80_CONTROL.WAIT*%
X62000000Y-72460000D03*
%TD*%
D18*
%TO.N,*%
X0Y0D03*
%TO.N,Net-(C1-Pad1)*%
X120929500Y-61977900D03*
%TO.N,/SPI connector/Z80_CONTROL.RESET*%
X59424000Y-112821400D03*
X39696500Y-62635400D03*
%TO.N,/CORE/Z80_HARDLOCK_RESET*%
X137158800Y-53024600D03*
%TO.N,/SPI connector/Z80_CONTROL.WAIT*%
X154561200Y-112986600D03*
X66210600Y-111843600D03*
%TO.N,/SPI connector/Z80_CONTROL.BUSACK*%
X4667900Y-72431200D03*
%TO.N,/SPI connector/Z80_CONTROL.BUSRQ*%
X75452700Y-116945100D03*
X33892300Y-60577200D03*
X104571000Y-122314200D03*
%TO.N,/SPI connector/Z80_CONTROL.RD*%
X32385900Y-73767400D03*
X74031100Y-113640700D03*
X147763400Y-73857900D03*
X66925100Y-70712700D03*
X187065400Y-66277100D03*
X99390700Y-114338200D03*
X174658800Y-68634300D03*
%TO.N,/SPI connector/Z80_CONTROL.WR*%
X32000400Y-71543200D03*
X106357000Y-89020800D03*
X80568400Y-86180900D03*
%TO.N,+5V*%
X106211300Y-91035700D03*
X179009900Y-64567200D03*
X186146100Y-85700800D03*
X103603200Y-90371200D03*
%TO.N,/SPI connector/Z80_CONTROL.IORQ*%
X69732800Y-70955400D03*
X32786700Y-75403400D03*
X82798200Y-108733900D03*
X36043200Y-6652100D03*
%TO.N,/SPI connector/Z80_CONTROL.MEMRQ*%
X99662100Y-116542400D03*
X35083800Y-64009700D03*
X76252400Y-114272000D03*
%TO.N,/CORE/EX_SS*%
X193936500Y-75841800D03*
%TO.N,/CORE/EX_MOSI*%
X192832000Y-83386400D03*
%TO.N,GND*%
X172396300Y-84842300D03*
X63563500Y-109026400D03*
X96065600Y-84348900D03*
X15145000Y-109026400D03*
%TO.N,/CORE/ESP_SPI_INT.PL*%
X169498500Y-86204900D03*
%TO.N,/CACHE connector/LOCAL_D4*%
X116888900Y-41151400D03*
X108083400Y-39101100D03*
%TO.N,/CACHE connector/LOCAL_D5*%
X106662600Y-46010500D03*
X111311400Y-46010500D03*
X112227700Y-95936000D03*
%TO.N,/CACHE connector/LOCAL_D6*%
X122235600Y-87916300D03*
%TO.N,/CACHE connector/LOCAL_D7*%
X118489100Y-40868700D03*
X105516700Y-41667700D03*
%TO.N,/SPI connector/Z80_CONTROL.NMI*%
X38249200Y-63892600D03*
%TO.N,/SPI connector/Z80_CONTROL.ROMCS*%
X37767900Y-61570900D03*
%TO.N,/CACHE connector/LOCAL_D0*%
X112165400Y-44568000D03*
%TO.N,/GLUE/!ESP_HARDLOCK*%
X149308500Y-58699100D03*
X143368000Y-54334000D03*
%TO.N,Net-(IC1-Pad4)*%
X88950300Y-63580800D03*
%TO.N,Net-(IC3B-~{S})*%
X104397900Y-61237200D03*
%TO.N,/GLUE/Z80 BUS CONTROL/!CACHE_DATASTATUS*%
X105529500Y-60105800D03*
X104927200Y-68658300D03*
%TO.N,Net-(IC1-Pad12)*%
X112329600Y-55974500D03*
%TO.N,Net-(IC1-Pad13)*%
X59825500Y-75739900D03*
%TO.N,/GLUE/PERM_Z80_IORQ*%
X140042900Y-77942000D03*
%TO.N,/CORE/ESP_SPI_INT.STC*%
X167924000Y-84520500D03*
%TO.N,/CACHE connector/LOCAL_A7*%
X42145800Y-78985500D03*
X74602300Y-71545200D03*
%TO.N,/CACHE connector/LOCAL_A2*%
X51737800Y-46793000D03*
%TO.N,/CACHE connector/LOCAL_A3*%
X33676600Y-89845700D03*
X24901300Y-75116100D03*
X49983900Y-46301000D03*
%TO.N,/CORE/ESP_SPI_INT.OE*%
X171187600Y-92188700D03*
%TO.N,/CORE/ESP_PULSE*%
X176669000Y-88701500D03*
%TO.N,/CACHE connector/LOCAL_A12*%
X77111100Y-40080700D03*
%TO.N,/CACHE connector/LOCAL_A15*%
X73591700Y-43999900D03*
%TO.N,/CACHE connector/LOCAL_A8*%
X8207300Y-77853500D03*
X60564700Y-33732700D03*
%TO.N,/CACHE connector/LOCAL_A9*%
X30670700Y-99076200D03*
X76706600Y-71253800D03*
X38041100Y-80037500D03*
%TO.N,/CACHE connector/LOCAL_A10*%
X23083400Y-99420600D03*
X20294400Y-79643100D03*
%TO.N,/CACHE connector/LOCAL_A11*%
X76801200Y-41680900D03*
%TO.N,/RIO connector/Z80_A1*%
X127273200Y-17858600D03*
%TO.N,/RIO connector/Z80_A0*%
X119558000Y-23419100D03*
%TO.N,/RIO connector/Z80_D6*%
X157619000Y-26747100D03*
%TO.N,/RIO connector/Z80_D0*%
X180609900Y-11347000D03*
%TO.N,/GLUE/RIO_CONTROL.A16*%
X181075000Y-50778700D03*
%TO.N,/CACHE connector/CACHE_SEL_1*%
X30773100Y-78346700D03*
X131860100Y-84610400D03*
X164609000Y-60531000D03*
X143674200Y-68583200D03*
%TO.N,/CACHE connector/CACHE_SEL_2*%
X25810500Y-61950600D03*
X133539700Y-30167000D03*
%TO.N,/CACHE connector/CACHE_SEL_3*%
X134667800Y-32996300D03*
X27820900Y-62056700D03*
%TO.N,/CACHE connector/CACHE_DATASTATUS*%
X13192800Y-80899600D03*
X123730100Y-114589800D03*
X86961200Y-106787600D03*
%TO.N,/GLUE/RIO_CONTROL.ROM_RDY*%
X130534500Y-88883200D03*
%TO.N,/GLUE/RIO CONTROL/Z80_WR+ESP_IOD_CONFIG*%
X126249200Y-100175500D03*
%TO.N,/CACHE connector/CACHE_CONTROL.DATASTATUS+PERM_Z80_IORQ*%
X29645200Y-95386100D03*
%TO.N,/CACHE connector/Z80_HARDLOCK*%
X133193400Y-83293000D03*
X140776500Y-75359600D03*
X32873000Y-79907000D03*
X173712400Y-70358500D03*
%TO.N,/CORE/ESP_WAIT_RESET*%
X125872000Y-113346500D03*
X176779000Y-72425900D03*
X94869200Y-77387100D03*
X98276700Y-107318900D03*
X144633400Y-80486700D03*
%TO.N,/SPI connector/ESP_CONTROL.WR*%
X88886200Y-109635200D03*
%TO.N,/GLUE/RIO CONTROL/Z80_RD+ESP_IOD_CONFIG+PERM_Z80_IORQ*%
X166737100Y-43523200D03*
X160340100Y-44274800D03*
X148831500Y-50006100D03*
X88056600Y-67792500D03*
X87780400Y-90371200D03*
%TO.N,/SPI connector/ESP_CONTROL.MEMRQ*%
X144548200Y-123152100D03*
X85081100Y-117651600D03*
%TO.N,Net-(IC7-Pad3)*%
X145697400Y-79155900D03*
%TO.N,/CORE/ESP_HARDLOCK*%
X91587900Y-61535200D03*
X107826900Y-53868100D03*
X108564700Y-66405300D03*
%TO.N,/SPI connector/ESP_CONTROL.BUSRQ*%
X98908400Y-85110800D03*
X94965600Y-109845500D03*
X98142800Y-103431700D03*
%TO.N,/GLUE/RIO CONTROL/ROM_WR_PROTECT+Z80_WR*%
X143841200Y-28355100D03*
X125358900Y-78639700D03*
X157849700Y-28355100D03*
%TO.N,/SPI connector/LOCAL_CONTROL.MEMRQ*%
X34445500Y-85119900D03*
%TO.N,/GLUE/Z80_BUS_CONTROL.Z80_DATA_DIR*%
X128119100Y-103928300D03*
%TO.N,/GLUE/Z80_BUS_CONTROL.Z80_ADD_OE*%
X110296800Y-43054500D03*
X111630900Y-74066400D03*
X105265000Y-43267900D03*
X91801300Y-37101400D03*
%TO.N,/GLUE/Z80_BUS_CONTROL.Z80_ADD_DIR*%
X123718200Y-80803000D03*
%TO.N,/GLUE/RIO_CONTROL.WE*%
X178001200Y-51742300D03*
%TD*%
D19*
%TO.N,Net-(D1-K)*%
X160580100Y-108220000D02*
X158800100Y-110000000D01*
X157000000Y-110000000D02*
X158800100Y-110000000D01*
X165500000Y-108220000D02*
X160580100Y-108220000D01*
%TO.N,Net-(C1-Pad1)*%
X100000000Y-125000000D02*
X101600100Y-125000000D01*
X103800400Y-125000000D02*
X108029900Y-120770500D01*
X109630000Y-120000000D02*
X108029900Y-120000000D01*
X108029900Y-120770500D02*
X108029900Y-120000000D01*
X125947400Y-56960000D02*
X120929500Y-61977900D01*
X129880000Y-56960000D02*
X125947400Y-56960000D01*
X101600100Y-125000000D02*
X103800400Y-125000000D01*
%TO.N,/SPI connector/Z80_CONTROL.RESET*%
X87913900Y-115351400D02*
X84128400Y-115351400D01*
X62174700Y-115572100D02*
X59424000Y-112821400D01*
X51341200Y-66998800D02*
X49691100Y-66998800D01*
X101019000Y-117333700D02*
X100459200Y-117893500D01*
X155199900Y-115080000D02*
X152946200Y-117333700D01*
X100459200Y-117893500D02*
X90456000Y-117893500D01*
X157000000Y-115080000D02*
X155199900Y-115080000D01*
X84128400Y-115351400D02*
X83907700Y-115572100D01*
X83907700Y-115572100D02*
X62174700Y-115572100D01*
X90456000Y-117893500D02*
X87913900Y-115351400D01*
X152946200Y-117333700D02*
X101019000Y-117333700D01*
X45327700Y-62635400D02*
X39696500Y-62635400D01*
X49691100Y-66998800D02*
X45327700Y-62635400D01*
%TO.N,/CORE/ESP_INT*%
X188499900Y-120920000D02*
X188499900Y-116919900D01*
X182000000Y-106000000D02*
X177850000Y-106000000D01*
X182000000Y-110420000D02*
X180100100Y-110420000D01*
X188499900Y-116919900D02*
X182000000Y-110420000D01*
X190500000Y-120920000D02*
X188499900Y-120920000D01*
X177850000Y-106000000D02*
X173700000Y-106000000D01*
X178500000Y-110420000D02*
X180100100Y-110420000D01*
%TO.N,/CORE/Z80_HARDLOCK_RESET*%
X138149600Y-52033800D02*
X154473800Y-52033800D01*
X137158800Y-53024600D02*
X138149600Y-52033800D01*
X154473800Y-52033800D02*
X157440000Y-55000000D01*
%TO.N,Net-(D2-K)*%
X79955900Y-66165900D02*
X75876700Y-70245100D01*
X74063800Y-70245100D02*
X73302200Y-71006700D01*
X73302200Y-71006700D02*
X73302200Y-71097700D01*
X91120000Y-83040000D02*
X86101200Y-78021200D01*
X84597400Y-66165900D02*
X79955900Y-66165900D01*
X75876700Y-70245100D02*
X74063800Y-70245100D01*
X86101200Y-67669700D02*
X84597400Y-66165900D01*
X86101200Y-78021200D02*
X86101200Y-67669700D01*
X62000000Y-77540000D02*
X63800100Y-77540000D01*
X66859900Y-77540000D02*
X63800100Y-77540000D01*
X73302200Y-71097700D02*
X66859900Y-77540000D01*
%TO.N,/SPI connector/Z80_CONTROL.WAIT*%
X151649800Y-115898000D02*
X154561200Y-112986600D01*
X91288800Y-112215200D02*
X99368200Y-112215200D01*
X62200000Y-3500000D02*
X62200000Y-5150100D01*
X91009000Y-111935400D02*
X91288800Y-112215200D01*
X2800200Y-15711700D02*
X2800200Y-100048800D01*
X66302400Y-111935400D02*
X91009000Y-111935400D01*
X66210600Y-111843600D02*
X66302400Y-111935400D01*
X14167800Y-111416400D02*
X65783400Y-111416400D01*
X56235100Y-11115000D02*
X7396900Y-11115000D01*
X7396900Y-11115000D02*
X2800200Y-15711700D01*
X2800200Y-100048800D02*
X14167800Y-111416400D01*
X99368200Y-112215200D02*
X103051000Y-115898000D01*
X62200000Y-5150100D02*
X56235100Y-11115000D01*
X103051000Y-115898000D02*
X151649800Y-115898000D01*
X65783400Y-111416400D02*
X66210600Y-111843600D01*
%TO.N,/SPI connector/Z80_CONTROL.BUSACK*%
X3802100Y-71565400D02*
X3802100Y-16124300D01*
X3802100Y-16124300D02*
X7811300Y-12115100D01*
X4667900Y-72431200D02*
X3802100Y-71565400D01*
X7811300Y-12115100D02*
X61204900Y-12115100D01*
X61204900Y-12115100D02*
X69820000Y-3500000D01*
%TO.N,Net-(D6-K)*%
X170500000Y-42000000D02*
X168899900Y-42000000D01*
X160080000Y-42000000D02*
X161880100Y-42000000D01*
X168899900Y-42000000D02*
X161880100Y-42000000D01*
%TO.N,/SPI connector/Z80_CONTROL.BUSRQ*%
X85619700Y-116351500D02*
X84542600Y-116351500D01*
X43921700Y-60478700D02*
X57521100Y-60478700D01*
X83949000Y-116945100D02*
X75452700Y-116945100D01*
X84542600Y-116351500D02*
X83949000Y-116945100D01*
X43708600Y-60265600D02*
X43921700Y-60478700D01*
X33892300Y-60577200D02*
X34203900Y-60265600D01*
X104571000Y-122314200D02*
X91582400Y-122314200D01*
X34203900Y-60265600D02*
X43708600Y-60265600D01*
X91582400Y-122314200D02*
X85619700Y-116351500D01*
X57521100Y-60478700D02*
X64041200Y-66998800D01*
%TO.N,/GLUE/Z80 BUS CONTROL/Z80_ADD_CONNECT*%
X149019900Y-105579600D02*
X149019900Y-100575000D01*
X150000000Y-110000000D02*
X148199900Y-110000000D01*
X140000000Y-110000000D02*
X141800200Y-108199800D01*
X141800200Y-108199800D02*
X146399700Y-108199800D01*
X146399700Y-108199800D02*
X149019900Y-105579600D01*
X150620000Y-100575000D02*
X149019900Y-100575000D01*
X146399700Y-108199800D02*
X148199900Y-110000000D01*
%TO.N,/GLUE/Z80 BUS CONTROL/Z80_DATA_CONNECT*%
X104185900Y-112035700D02*
X99886000Y-107735800D01*
X138399900Y-114000000D02*
X136435600Y-112035700D01*
X140000000Y-114000000D02*
X138399900Y-114000000D01*
X99886000Y-103614000D02*
X101500000Y-102000000D01*
X146399700Y-112199800D02*
X143400300Y-112199800D01*
X148199900Y-114000000D02*
X146399700Y-112199800D01*
X136435600Y-112035700D02*
X104185900Y-112035700D01*
X99886000Y-107735800D02*
X99886000Y-103614000D01*
X140000000Y-114000000D02*
X141600100Y-114000000D01*
X143400300Y-112199800D02*
X141600100Y-114000000D01*
X150000000Y-114000000D02*
X148199900Y-114000000D01*
%TO.N,/SPI connector/Z80_CONTROL.RD*%
X142507900Y-87875000D02*
X143000000Y-87875000D01*
X187422400Y-66277100D02*
X187065400Y-66277100D01*
X196768800Y-39368900D02*
X196768800Y-56930700D01*
X74736300Y-112935500D02*
X90594700Y-112935500D01*
X32385900Y-73935300D02*
X25003000Y-81318200D01*
X91997400Y-114338200D02*
X99390700Y-114338200D01*
X142507900Y-87875000D02*
X141399900Y-87875000D01*
X171439100Y-70771000D02*
X150850300Y-70771000D01*
X25003000Y-81318200D02*
X25003000Y-99083000D01*
X186500000Y-29100100D02*
X196768800Y-39368900D01*
X74201200Y-66998800D02*
X71544700Y-69655300D01*
X74031100Y-113640700D02*
X74736300Y-112935500D01*
X173575800Y-68634300D02*
X171439100Y-70771000D01*
X130321600Y-85523100D02*
X132673500Y-87875000D01*
X32385900Y-73767400D02*
X32385900Y-73935300D01*
X174658800Y-68634300D02*
X173575800Y-68634300D01*
X109120000Y-96920000D02*
X117118600Y-88921400D01*
X61237300Y-70659900D02*
X59353800Y-72543400D01*
X117118600Y-86913600D02*
X118509100Y-85523100D01*
X33609900Y-72543400D02*
X32385900Y-73767400D01*
X25003000Y-99083000D02*
X26620000Y-100700000D01*
X186500000Y-27500000D02*
X186500000Y-29100100D01*
X59353800Y-72543400D02*
X33609900Y-72543400D01*
X132673500Y-87875000D02*
X141399900Y-87875000D01*
X196768800Y-56930700D02*
X187422400Y-66277100D01*
X117118600Y-88921400D02*
X117118600Y-86913600D01*
X118509100Y-85523100D02*
X130321600Y-85523100D01*
X71544700Y-69655300D02*
X67929700Y-69655300D01*
X67929700Y-69655300D02*
X66925100Y-70659900D01*
X66925100Y-70659900D02*
X61237300Y-70659900D01*
X150850300Y-70771000D02*
X147763400Y-73857900D01*
X66925100Y-70659900D02*
X66925100Y-70712700D01*
X90594700Y-112935500D02*
X91997400Y-114338200D01*
%TO.N,/SPI connector/Z80_CONTROL.WR*%
X71661200Y-66998800D02*
X70004800Y-68655200D01*
X104905200Y-89020800D02*
X106357000Y-89020800D01*
X83408300Y-89020800D02*
X104905200Y-89020800D01*
X104905200Y-92574900D02*
X103100100Y-94380000D01*
X27477100Y-77429800D02*
X27477100Y-76066500D01*
X27477100Y-76066500D02*
X32000400Y-71543200D01*
X21979400Y-92640600D02*
X21979400Y-82927500D01*
X66082700Y-69659700D02*
X59151500Y-69659700D01*
X21979400Y-82927500D02*
X27477100Y-77429800D01*
X80568400Y-86180900D02*
X83408300Y-89020800D01*
X104905200Y-89020800D02*
X104905200Y-92574900D01*
X19000000Y-95620000D02*
X21979400Y-92640600D01*
X67087200Y-68655200D02*
X66082700Y-69659700D01*
X57268000Y-71543200D02*
X32000400Y-71543200D01*
X59151500Y-69659700D02*
X57268000Y-71543200D01*
X70004800Y-68655200D02*
X67087200Y-68655200D01*
X101500000Y-94380000D02*
X103100100Y-94380000D01*
%TO.N,+5V*%
X109120000Y-91840000D02*
X107519900Y-91840000D01*
X119790000Y-120000000D02*
X123840000Y-120000000D01*
X91500000Y-91840000D02*
X93100100Y-91840000D01*
X116580000Y-33000000D02*
X118180100Y-33000000D01*
X190771500Y-77740000D02*
X190500000Y-77740000D01*
X137500000Y-32460000D02*
X137500000Y-30859900D01*
X8150100Y-48780000D02*
X22417400Y-34512700D01*
X131440100Y-110000000D02*
X133040200Y-108399900D01*
X188499900Y-77740000D02*
X188499900Y-83347000D01*
X29117500Y-32194500D02*
X29117500Y-34512700D01*
X86540000Y-32880000D02*
X86540000Y-31279900D01*
X114859900Y-31279900D02*
X116580000Y-33000000D01*
X51947300Y-34512700D02*
X53580000Y-32880000D01*
X188499900Y-83347000D02*
X186146100Y-85700800D01*
X106211300Y-91035700D02*
X106715600Y-91035700D01*
X29117500Y-34512700D02*
X51947300Y-34512700D01*
X103471800Y-90239800D02*
X94700300Y-90239800D01*
X86540000Y-31279900D02*
X114859900Y-31279900D01*
X158851300Y-66998800D02*
X161282900Y-64567200D01*
X140006800Y-108399900D02*
X147089600Y-101317100D01*
X31032700Y-30279300D02*
X29117500Y-32194500D01*
X192500100Y-77740000D02*
X192640100Y-77880000D01*
X22417400Y-34512700D02*
X29117500Y-34512700D01*
X161282900Y-64567200D02*
X179009900Y-64567200D01*
X135498000Y-28857900D02*
X137500000Y-30859900D01*
X94700300Y-90239800D02*
X93100100Y-91840000D01*
X192640100Y-77880000D02*
X196000000Y-77880000D01*
X155000000Y-42000000D02*
X155000000Y-37740100D01*
X118180100Y-33000000D02*
X121008500Y-33000000D01*
X163640000Y-27500000D02*
X163640000Y-29100100D01*
X190500000Y-77740000D02*
X188499900Y-77740000D01*
X147089600Y-101317100D02*
X147089600Y-91405400D01*
X6500000Y-48780000D02*
X8150100Y-48780000D01*
X121008500Y-33000000D02*
X125150600Y-28857900D01*
X106715600Y-91035700D02*
X107519900Y-91840000D01*
X155000000Y-37740100D02*
X163640000Y-29100100D01*
X86540000Y-31279900D02*
X85539400Y-30279300D01*
X190771500Y-77740000D02*
X192500100Y-77740000D01*
X133040200Y-108399900D02*
X140006800Y-108399900D01*
X85539400Y-30279300D02*
X31032700Y-30279300D01*
X129840000Y-110000000D02*
X131440100Y-110000000D01*
X103603200Y-90371200D02*
X103471800Y-90239800D01*
X157201200Y-66998800D02*
X158851300Y-66998800D01*
X147089600Y-91405400D02*
X150620000Y-87875000D01*
X125150600Y-28857900D02*
X135498000Y-28857900D01*
%TO.N,/SPI connector/Z80_CONTROL.IORQ*%
X84496600Y-108733900D02*
X82798200Y-108733900D01*
X51427900Y-6652100D02*
X36043200Y-6652100D01*
X89899900Y-102000000D02*
X85482600Y-106417300D01*
X91500000Y-102000000D02*
X89899900Y-102000000D01*
X33810000Y-74380100D02*
X32786700Y-75403400D01*
X66308100Y-74380100D02*
X33810000Y-74380100D01*
X54580000Y-3500000D02*
X51427900Y-6652100D01*
X69732800Y-70955400D02*
X66308100Y-74380100D01*
X85482600Y-106417300D02*
X85482600Y-107747900D01*
X85482600Y-107747900D02*
X84496600Y-108733900D01*
%TO.N,/SPI connector/Z80_CONTROL.MEMRQ*%
X66581200Y-66998800D02*
X64920500Y-68659500D01*
X92080200Y-116542400D02*
X89809800Y-114272000D01*
X64920500Y-68659500D02*
X55685900Y-68659500D01*
X47755300Y-69649200D02*
X43298800Y-65192700D01*
X55685900Y-68659500D02*
X54696200Y-69649200D01*
X43298800Y-65192700D02*
X36266800Y-65192700D01*
X89809800Y-114272000D02*
X76252400Y-114272000D01*
X54696200Y-69649200D02*
X47755300Y-69649200D01*
X36266800Y-65192700D02*
X35083800Y-64009700D01*
X99662100Y-116542400D02*
X92080200Y-116542400D01*
%TO.N,/CORE/EX_SS*%
X180372300Y-73499900D02*
X191594600Y-73499900D01*
X171052200Y-82820000D02*
X180372300Y-73499900D01*
X191594600Y-73499900D02*
X193936500Y-75841800D01*
X165500000Y-82820000D02*
X171052200Y-82820000D01*
%TO.N,/CORE/EX_SCK*%
X196000000Y-85500000D02*
X195683300Y-85500000D01*
X194201300Y-86982000D02*
X194201300Y-96358800D01*
X194201300Y-96358800D02*
X192500100Y-98060000D01*
X190500000Y-98060000D02*
X192500100Y-98060000D01*
X195683300Y-85500000D02*
X194201300Y-86982000D01*
%TO.N,/CORE/EX_MISO*%
X190500000Y-95520000D02*
X192500100Y-95520000D01*
X192500100Y-86459900D02*
X192500100Y-95520000D01*
X196000000Y-82960000D02*
X192500100Y-86459900D01*
%TO.N,/CORE/EX_MOSI*%
X194349900Y-81868500D02*
X192832000Y-83386400D01*
X194349900Y-80420000D02*
X194349900Y-81868500D01*
X196000000Y-80420000D02*
X194349900Y-80420000D01*
%TO.N,GND*%
X96065600Y-84348900D02*
X94729600Y-85684900D01*
X30720000Y-25260000D02*
X29119900Y-25260000D01*
X94729600Y-85684900D02*
X87745000Y-85684900D01*
X88152200Y-25380000D02*
X88152200Y-24089800D01*
X63563500Y-109026400D02*
X15145000Y-109026400D01*
X83500000Y-83040000D02*
X85100100Y-83040000D01*
X81147600Y-107080000D02*
X83880000Y-107080000D01*
X93720000Y-25380000D02*
X92145000Y-25380000D01*
X172396300Y-84842300D02*
X182038600Y-75200000D01*
X6500000Y-15760000D02*
X8150100Y-15760000D01*
X141390600Y-118390600D02*
X142000000Y-119000000D01*
X65280200Y-23659800D02*
X63680000Y-25260000D01*
X63563500Y-109026400D02*
X79201200Y-109026400D01*
X87722200Y-23659800D02*
X65280200Y-23659800D01*
X102380000Y-83000000D02*
X100779900Y-83000000D01*
X88152200Y-24089800D02*
X87722200Y-23659800D01*
X17650100Y-25260000D02*
X29119900Y-25260000D01*
X79201200Y-109026400D02*
X81147600Y-107080000D01*
X33360900Y-27900900D02*
X86638700Y-27900900D01*
X142000000Y-119000000D02*
X143920000Y-120920000D01*
X100000000Y-120000000D02*
X101609400Y-118390600D01*
X97414500Y-83000000D02*
X96065600Y-84348900D01*
X100779900Y-83000000D02*
X97414500Y-83000000D01*
X86638700Y-27900900D02*
X88152200Y-26387400D01*
X8150100Y-15760000D02*
X17650100Y-25260000D01*
X87745000Y-85684900D02*
X85100100Y-83040000D01*
X88152200Y-26387400D02*
X88152200Y-25380000D01*
X30720000Y-25260000D02*
X33360900Y-27900900D01*
X88152200Y-25380000D02*
X92145000Y-25380000D01*
X101609400Y-118390600D02*
X141390600Y-118390600D01*
X143920000Y-120920000D02*
X165500000Y-120920000D01*
X182038600Y-75200000D02*
X190500000Y-75200000D01*
%TO.N,/CORE/ESP_SPI_INT.PL*%
X169498500Y-86204900D02*
X170504100Y-86204900D01*
X190500000Y-105680000D02*
X188499900Y-105680000D01*
X170504100Y-86204900D02*
X184016300Y-99717100D01*
X184016300Y-101196400D02*
X188499900Y-105680000D01*
X184016300Y-99717100D02*
X184016300Y-101196400D01*
%TO.N,/CORE/ESP_SPI_INT.SCK*%
X165500000Y-100600000D02*
X163499900Y-100600000D01*
X162818700Y-99918800D02*
X163499900Y-100600000D01*
X157201200Y-99918800D02*
X162818700Y-99918800D01*
%TO.N,/CACHE connector/LOCAL_D4*%
X47358000Y-53478000D02*
X92889600Y-53478000D01*
X108083400Y-39101100D02*
X114838600Y-39101100D01*
X101340000Y-33000000D02*
X101340000Y-34600100D01*
X114838600Y-39101100D02*
X116888900Y-41151400D01*
X42660000Y-48780000D02*
X47358000Y-53478000D01*
X97279400Y-49088200D02*
X97279400Y-38660700D01*
X97279400Y-38660700D02*
X101340000Y-34600100D01*
X92889600Y-53478000D02*
X97279400Y-49088200D01*
%TO.N,/CACHE connector/LOCAL_D5*%
X96279200Y-48652300D02*
X92490400Y-52441100D01*
X119201200Y-92298800D02*
X117551100Y-92298800D01*
X113913900Y-95936000D02*
X112227700Y-95936000D01*
X98800000Y-33000000D02*
X98800000Y-34600100D01*
X96279200Y-37120900D02*
X96279200Y-48652300D01*
X117551100Y-92298800D02*
X113913900Y-95936000D01*
X92490400Y-52441100D02*
X48861100Y-52441100D01*
X111311400Y-46010500D02*
X106662600Y-46010500D01*
X98800000Y-34600100D02*
X96279200Y-37120900D01*
X48861100Y-52441100D02*
X45200000Y-48780000D01*
%TO.N,/CACHE connector/LOCAL_D6*%
X96260000Y-34600100D02*
X94279000Y-36581100D01*
X96260000Y-33000000D02*
X96260000Y-34600100D01*
X122235600Y-88374500D02*
X122235600Y-87916300D01*
X119201200Y-89758800D02*
X120851300Y-89758800D01*
X120851300Y-89758800D02*
X122235600Y-88374500D01*
X50397700Y-51437700D02*
X47740000Y-48780000D01*
X92056500Y-51437700D02*
X50397700Y-51437700D01*
X94279000Y-36581100D02*
X94279000Y-49215200D01*
X94279000Y-49215200D02*
X92056500Y-51437700D01*
%TO.N,/CACHE connector/LOCAL_D7*%
X113247000Y-42451600D02*
X117443100Y-42451600D01*
X93720000Y-33000000D02*
X93720000Y-34600100D01*
X93278900Y-35041200D02*
X93278900Y-48779400D01*
X93720000Y-34600100D02*
X93278900Y-35041200D01*
X117443100Y-42451600D02*
X118489100Y-41405600D01*
X118489100Y-41405600D02*
X118489100Y-40868700D01*
X112463100Y-41667700D02*
X113247000Y-42451600D01*
X91624400Y-50433900D02*
X51933900Y-50433900D01*
X105516700Y-41667700D02*
X112463100Y-41667700D01*
X93278900Y-48779400D02*
X91624400Y-50433900D01*
X51933900Y-50433900D02*
X50280000Y-48780000D01*
%TO.N,/SPI connector/Z80_CONTROL.NMI*%
X43456100Y-63935500D02*
X48169600Y-68649000D01*
X48169600Y-68649000D02*
X52231000Y-68649000D01*
X38249200Y-63892600D02*
X38292100Y-63935500D01*
X38292100Y-63935500D02*
X43456100Y-63935500D01*
X52231000Y-68649000D02*
X53881200Y-66998800D01*
%TO.N,/SPI connector/Z80_CONTROL.ROMCS*%
X43507500Y-61478800D02*
X53441200Y-61478800D01*
X38053500Y-61285300D02*
X43314000Y-61285300D01*
X53441200Y-61478800D02*
X58961200Y-66998800D01*
X43314000Y-61285300D02*
X43507500Y-61478800D01*
X37767900Y-61570900D02*
X38053500Y-61285300D01*
%TO.N,/CACHE connector/LOCAL_D0*%
X110745500Y-34600100D02*
X111500000Y-34600100D01*
X45164300Y-57478400D02*
X94546400Y-57478400D01*
X104456300Y-47568500D02*
X104456300Y-44568000D01*
X111500000Y-33000000D02*
X111500000Y-34600100D01*
X44196400Y-56510500D02*
X45164300Y-57478400D01*
X38580400Y-56510500D02*
X44196400Y-56510500D01*
X94546400Y-57478400D02*
X104456300Y-47568500D01*
X104456300Y-44568000D02*
X112165400Y-44568000D01*
X32500000Y-48780000D02*
X32500000Y-50430100D01*
X32500000Y-50430100D02*
X38580400Y-56510500D01*
X103964800Y-41380800D02*
X110745500Y-34600100D01*
X104456300Y-44568000D02*
X103964800Y-44076500D01*
X103964800Y-44076500D02*
X103964800Y-41380800D01*
%TO.N,/CACHE connector/LOCAL_D1*%
X100465200Y-50145300D02*
X100465200Y-43094900D01*
X35040000Y-48780000D02*
X41743900Y-55483900D01*
X41743900Y-55483900D02*
X44584100Y-55483900D01*
X94132200Y-56478300D02*
X100465200Y-50145300D01*
X44584100Y-55483900D02*
X45578500Y-56478300D01*
X108960000Y-33000000D02*
X108960000Y-34600100D01*
X100465200Y-43094900D02*
X108960000Y-34600100D01*
X45578500Y-56478300D02*
X94132200Y-56478300D01*
%TO.N,/CACHE connector/LOCAL_D2*%
X99465100Y-49731100D02*
X99465100Y-41555000D01*
X45992700Y-55478200D02*
X93718000Y-55478200D01*
X37580000Y-48780000D02*
X43282600Y-54482600D01*
X44997100Y-54482600D02*
X45992700Y-55478200D01*
X106420000Y-33000000D02*
X106420000Y-34600100D01*
X43282600Y-54482600D02*
X44997100Y-54482600D01*
X93718000Y-55478200D02*
X99465100Y-49731100D01*
X99465100Y-41555000D02*
X106420000Y-34600100D01*
%TO.N,/CACHE connector/LOCAL_D3*%
X44818000Y-53478000D02*
X45406800Y-53478000D01*
X98465000Y-40015100D02*
X103880000Y-34600100D01*
X103880000Y-33000000D02*
X103880000Y-34600100D01*
X98465000Y-49316900D02*
X98465000Y-40015100D01*
X46406900Y-54478100D02*
X93303800Y-54478100D01*
X45406800Y-53478000D02*
X46406900Y-54478100D01*
X40120000Y-48780000D02*
X44818000Y-53478000D01*
X93303800Y-54478100D02*
X98465000Y-49316900D01*
%TO.N,/CORE/ESP_SPI_INT.CE*%
X157201200Y-92298800D02*
X158851300Y-92298800D01*
X158851300Y-92298800D02*
X158851300Y-93411400D01*
X165500000Y-98060000D02*
X163499900Y-98060000D01*
X158851300Y-93411400D02*
X163499900Y-98060000D01*
%TO.N,/GLUE/!ESP_HARDLOCK*%
X147733100Y-58699100D02*
X143368000Y-54334000D01*
X149308500Y-58699100D02*
X147733100Y-58699100D01*
%TO.N,Net-(IC1-Pad4)*%
X102827400Y-55312200D02*
X94558800Y-63580800D01*
X108277100Y-55312200D02*
X102827400Y-55312200D01*
X121407900Y-46952000D02*
X116637300Y-46952000D01*
X128279900Y-40080000D02*
X121407900Y-46952000D01*
X129880000Y-40080000D02*
X128279900Y-40080000D01*
X94558800Y-63580800D02*
X88950300Y-63580800D01*
X116637300Y-46952000D02*
X108277100Y-55312200D01*
%TO.N,Net-(IC3B-~{S})*%
X135899900Y-48258500D02*
X135899900Y-47700000D01*
X104566600Y-61405900D02*
X106068100Y-61405900D01*
X104397900Y-61237200D02*
X104566600Y-61405900D01*
X121757900Y-53081700D02*
X131076700Y-53081700D01*
X106068100Y-61405900D02*
X107059200Y-60414800D01*
X114424800Y-60414800D02*
X121757900Y-53081700D01*
X137500000Y-47700000D02*
X135899900Y-47700000D01*
X107059200Y-60414800D02*
X114424800Y-60414800D01*
X131076700Y-53081700D02*
X135899900Y-48258500D01*
%TO.N,/GLUE/Z80 BUS CONTROL/!CACHE_DATASTATUS*%
X133756900Y-46363100D02*
X133756900Y-48987200D01*
X103980100Y-69605400D02*
X104927200Y-68658300D01*
X102380000Y-70300000D02*
X103980100Y-70300000D01*
X130662500Y-52081600D02*
X121343700Y-52081600D01*
X133756900Y-48987200D02*
X130662500Y-52081600D01*
X103980100Y-70300000D02*
X103980100Y-69605400D01*
X114310600Y-59114700D02*
X106520600Y-59114700D01*
X106520600Y-59114700D02*
X105529500Y-60105800D01*
X137500000Y-42620000D02*
X133756900Y-46363100D01*
X121343700Y-52081600D02*
X114310600Y-59114700D01*
%TO.N,Net-(IC1-Pad12)*%
X130248300Y-51081500D02*
X117222600Y-51081500D01*
X117222600Y-51081500D02*
X112329600Y-55974500D01*
X132756800Y-48573000D02*
X130248300Y-51081500D01*
X132756800Y-42283200D02*
X132756800Y-48573000D01*
X137500000Y-37540000D02*
X132756800Y-42283200D01*
%TO.N,Net-(IC1-Pad13)*%
X73649600Y-69245000D02*
X67154800Y-75739800D01*
X79826600Y-64880900D02*
X75462500Y-69245000D01*
X115772400Y-50081400D02*
X109283200Y-56570600D01*
X131480200Y-41019800D02*
X131480200Y-48435300D01*
X129834100Y-50081400D02*
X115772400Y-50081400D01*
X137500000Y-35000000D02*
X131480200Y-41019800D01*
X98086900Y-64880900D02*
X79826600Y-64880900D01*
X67154800Y-75739900D02*
X59825500Y-75739900D01*
X106397200Y-56570600D02*
X98086900Y-64880900D01*
X67154800Y-75739800D02*
X67154800Y-75739900D01*
X75462500Y-69245000D02*
X73649600Y-69245000D01*
X109283200Y-56570600D02*
X106397200Y-56570600D01*
X131480200Y-48435300D02*
X129834100Y-50081400D01*
%TO.N,/GLUE/PERM_Z80_IORQ*%
X89899900Y-99460000D02*
X85480100Y-99460000D01*
X134955200Y-73800200D02*
X139097000Y-77942000D01*
X52082500Y-103804200D02*
X52082500Y-89492500D01*
X35232300Y-87221500D02*
X34133600Y-87221500D01*
X119785900Y-64087200D02*
X120278700Y-64580000D01*
X139163000Y-53033900D02*
X150393900Y-53033900D01*
X132214300Y-62245700D02*
X132214300Y-59982600D01*
X129880000Y-64580000D02*
X128279900Y-64580000D01*
X63104500Y-106684800D02*
X63063100Y-106726200D01*
X150393900Y-53033900D02*
X152360000Y-55000000D01*
X51282500Y-88692400D02*
X52099900Y-87875000D01*
X84372200Y-99460000D02*
X85480100Y-99460000D01*
X48127500Y-85537500D02*
X36916300Y-85537500D01*
X103980100Y-67760000D02*
X103980100Y-67736800D01*
X139097000Y-77942000D02*
X140042900Y-77942000D01*
X84372200Y-99460000D02*
X83880000Y-99460000D01*
X51282500Y-88692400D02*
X48127500Y-85537500D01*
X103980100Y-67736800D02*
X107629700Y-64087200D01*
X128279900Y-64580000D02*
X128279900Y-72862800D01*
X129217300Y-73800200D02*
X134955200Y-73800200D01*
X129880000Y-64580000D02*
X132214300Y-62245700D01*
X82279900Y-99460000D02*
X78429200Y-103310700D01*
X55004500Y-106726200D02*
X52082500Y-103804200D01*
X78429200Y-103632100D02*
X75376500Y-106684800D01*
X83880000Y-99460000D02*
X82279900Y-99460000D01*
X107629700Y-64087200D02*
X119785900Y-64087200D01*
X128279900Y-72862800D02*
X129217300Y-73800200D01*
X63063100Y-106726200D02*
X55004500Y-106726200D01*
X91500000Y-99460000D02*
X89899900Y-99460000D01*
X120278700Y-64580000D02*
X128279900Y-64580000D01*
X132214300Y-59982600D02*
X139163000Y-53033900D01*
X33385200Y-87969900D02*
X33330200Y-87969900D01*
X53700000Y-87875000D02*
X52099900Y-87875000D01*
X52082500Y-89492500D02*
X51282500Y-88692400D01*
X26620000Y-93080000D02*
X28220100Y-93080000D01*
X34133600Y-87221500D02*
X33385200Y-87969900D01*
X75376500Y-106684800D02*
X63104500Y-106684800D01*
X36916300Y-85537500D02*
X35232300Y-87221500D01*
X78429200Y-103310700D02*
X78429200Y-103632100D01*
X33330200Y-87969900D02*
X28220100Y-93080000D01*
X102380000Y-67760000D02*
X103980100Y-67760000D01*
%TO.N,Net-(IC2-Pad13)*%
X93100200Y-95980200D02*
X91500000Y-94380000D01*
X91500000Y-107080000D02*
X93100200Y-105479800D01*
X93100200Y-105479800D02*
X93100200Y-95980200D01*
%TO.N,/CORE/ESP_SPI_INT.STC*%
X167924000Y-84520500D02*
X170234100Y-84520500D01*
X188499900Y-102786300D02*
X188499900Y-103140000D01*
X190500000Y-103140000D02*
X188499900Y-103140000D01*
X170234100Y-84520500D02*
X188499900Y-102786300D01*
%TO.N,/GLUE/CLR_Z80_HARDLOCK*%
X83500000Y-67800000D02*
X85100200Y-69400200D01*
X85100200Y-69400200D02*
X85100200Y-79341200D01*
X91833800Y-84662400D02*
X100759000Y-75737200D01*
X85100200Y-79341200D02*
X90421400Y-84662400D01*
X100759000Y-75737200D02*
X100759000Y-66637500D01*
X120391000Y-63278000D02*
X127041900Y-63278000D01*
X103859100Y-63537400D02*
X106765200Y-63537400D01*
X129880000Y-62040000D02*
X128279900Y-62040000D01*
X90421400Y-84662400D02*
X91833800Y-84662400D01*
X100759000Y-66637500D02*
X103859100Y-63537400D01*
X106765200Y-63537400D02*
X107215500Y-63087100D01*
X107215500Y-63087100D02*
X120200100Y-63087100D01*
X120200100Y-63087100D02*
X120391000Y-63278000D01*
X127041900Y-63278000D02*
X128279900Y-62040000D01*
%TO.N,/CACHE connector/LOCAL_A7*%
X42500400Y-79340100D02*
X42145800Y-78985500D01*
X66807400Y-79340100D02*
X42500400Y-79340100D01*
X74602300Y-71545200D02*
X66807400Y-79340100D01*
%TO.N,/CACHE connector/LOCAL_A2*%
X55913000Y-46793000D02*
X51737800Y-46793000D01*
X57900000Y-48780000D02*
X55913000Y-46793000D01*
%TO.N,/CACHE connector/LOCAL_A3*%
X42201200Y-97378800D02*
X40551100Y-97378800D01*
X57142500Y-45482500D02*
X50802400Y-45482500D01*
X24460200Y-53931600D02*
X24460200Y-74675000D01*
X50802400Y-45482500D02*
X49983900Y-46301000D01*
X49983900Y-46301000D02*
X32090800Y-46301000D01*
X60440000Y-48780000D02*
X57142500Y-45482500D01*
X33676600Y-89845700D02*
X40551100Y-96720200D01*
X32090800Y-46301000D02*
X24460200Y-53931600D01*
X40551100Y-96720200D02*
X40551100Y-97378800D01*
X24460200Y-74675000D02*
X24901300Y-75116100D01*
%TO.N,/CORE/ESP_SPI_INT.OE*%
X181054700Y-103106200D02*
X182056700Y-103106200D01*
X180199900Y-102251400D02*
X181054700Y-103106200D01*
X171187600Y-92188700D02*
X172294000Y-92188700D01*
X182056700Y-103106200D02*
X187170500Y-108220000D01*
X180199900Y-100094600D02*
X180199900Y-102251400D01*
X187170500Y-108220000D02*
X190500000Y-108220000D01*
X172294000Y-92188700D02*
X180199900Y-100094600D01*
%TO.N,/CORE/ESP_PULSE*%
X188499900Y-100600000D02*
X188499900Y-100532400D01*
X190500000Y-100600000D02*
X188499900Y-100600000D01*
X188499900Y-100532400D02*
X176669000Y-88701500D01*
%TO.N,/CACHE connector/LOCAL_A12*%
X67340200Y-35973500D02*
X61025300Y-42288400D01*
X71300000Y-35973500D02*
X67340200Y-35973500D01*
X75407200Y-40080700D02*
X71300000Y-35973500D01*
X17493200Y-56655700D02*
X17493200Y-83558200D01*
X16283300Y-84768100D02*
X16283300Y-90756700D01*
X77111100Y-40080700D02*
X75407200Y-40080700D01*
X16283300Y-90756700D02*
X12201200Y-94838800D01*
X17493200Y-83558200D02*
X16283300Y-84768100D01*
X31860500Y-42288400D02*
X17493200Y-56655700D01*
X71300000Y-32880000D02*
X71300000Y-35973500D01*
X61025300Y-42288400D02*
X31860500Y-42288400D01*
%TO.N,/CACHE connector/LOCAL_A13*%
X15261200Y-89238800D02*
X12201200Y-92298800D01*
X60351700Y-41288300D02*
X31446300Y-41288300D01*
X68760000Y-32880000D02*
X60351700Y-41288300D01*
X31446300Y-41288300D02*
X16493100Y-56241500D01*
X15261200Y-83498500D02*
X15261200Y-89238800D01*
X16493100Y-56241500D02*
X16493100Y-82266600D01*
X16493100Y-82266600D02*
X15261200Y-83498500D01*
%TO.N,/CACHE connector/LOCAL_A14*%
X15493000Y-55827300D02*
X15493000Y-81852400D01*
X31032100Y-40288200D02*
X15493000Y-55827300D01*
X14233100Y-83112300D02*
X14233100Y-87726900D01*
X66220000Y-32880000D02*
X58811800Y-40288200D01*
X15493000Y-81852400D02*
X14233100Y-83112300D01*
X14233100Y-87726900D02*
X12201200Y-89758800D01*
X58811800Y-40288200D02*
X31032100Y-40288200D01*
%TO.N,/CACHE connector/LOCAL_A15*%
X14492900Y-81438200D02*
X12201200Y-83729900D01*
X62079900Y-34056200D02*
X56848000Y-39288100D01*
X63680000Y-32880000D02*
X62079900Y-32880000D01*
X62079900Y-32880000D02*
X62079900Y-34056200D01*
X86139900Y-43999900D02*
X90920000Y-48780000D01*
X56848000Y-39288100D02*
X30617900Y-39288100D01*
X73591700Y-43999900D02*
X86139900Y-43999900D01*
X12201200Y-83729900D02*
X12201200Y-85568700D01*
X30617900Y-39288100D02*
X14492900Y-55413100D01*
X12201200Y-87218800D02*
X12201200Y-85568700D01*
X14492900Y-55413100D02*
X14492900Y-81438200D01*
%TO.N,/CORE/ESP_SPI_INT.MISO*%
X162818700Y-102458800D02*
X163499900Y-103140000D01*
X165500000Y-103140000D02*
X163499900Y-103140000D01*
X157201200Y-102458800D02*
X162818700Y-102458800D01*
%TO.N,/CACHE connector/LOCAL_A8*%
X30203800Y-38287900D02*
X8207300Y-60284400D01*
X60564700Y-33732700D02*
X56009500Y-38287900D01*
X56009500Y-38287900D02*
X30203800Y-38287900D01*
X8207300Y-60284400D02*
X8207300Y-77853500D01*
%TO.N,/CACHE connector/LOCAL_A9*%
X14073700Y-102458800D02*
X12201200Y-102458800D01*
X17470500Y-105855600D02*
X14073700Y-102458800D01*
X38343900Y-80340300D02*
X38041100Y-80037500D01*
X30670700Y-101477700D02*
X26292800Y-105855600D01*
X30670700Y-99076200D02*
X30670700Y-101477700D01*
X26292800Y-105855600D02*
X17470500Y-105855600D01*
X76706600Y-71354100D02*
X67720400Y-80340300D01*
X76706600Y-71253800D02*
X76706600Y-71354100D01*
X67720400Y-80340300D02*
X38343900Y-80340300D01*
%TO.N,/CACHE connector/LOCAL_A10*%
X72278900Y-44472000D02*
X72278900Y-44554900D01*
X72278900Y-44472000D02*
X32505500Y-44472000D01*
X19669000Y-104850200D02*
X18284300Y-104850200D01*
X76302900Y-46862900D02*
X78220000Y-48780000D01*
X12201200Y-99918800D02*
X13851300Y-99918800D01*
X74586900Y-46862900D02*
X76302900Y-46862900D01*
X76380000Y-34480100D02*
X79471300Y-37571400D01*
X20294400Y-56683100D02*
X20294400Y-79643100D01*
X75337300Y-42681100D02*
X73071700Y-42681100D01*
X72278900Y-44554900D02*
X74586900Y-46862900D01*
X13851300Y-100417200D02*
X13851300Y-99918800D01*
X73071700Y-42681100D02*
X72278900Y-43473900D01*
X23083400Y-101435800D02*
X19669000Y-104850200D01*
X77506000Y-42981100D02*
X75637300Y-42981100D01*
X75637300Y-42981100D02*
X75337300Y-42681100D01*
X72278900Y-43473900D02*
X72278900Y-44472000D01*
X79471300Y-41015800D02*
X77506000Y-42981100D01*
X23083400Y-99420600D02*
X23083400Y-101435800D01*
X79471300Y-37571400D02*
X79471300Y-41015800D01*
X76380000Y-32880000D02*
X76380000Y-34480100D01*
X32505500Y-44472000D02*
X20294400Y-56683100D01*
X18284300Y-104850200D02*
X13851300Y-100417200D01*
%TO.N,/CACHE connector/LOCAL_A11*%
X76801200Y-41680900D02*
X77349600Y-41680900D01*
X77349600Y-41680900D02*
X78411200Y-40619300D01*
X18741500Y-56821700D02*
X18741500Y-83724200D01*
X17283400Y-92296600D02*
X12201200Y-97378800D01*
X76801200Y-41680900D02*
X64033500Y-41680900D01*
X18741500Y-83724200D02*
X17283400Y-85182300D01*
X64033500Y-41680900D02*
X62325600Y-43388800D01*
X62325600Y-43388800D02*
X32174400Y-43388800D01*
X73840000Y-32880000D02*
X73840000Y-34480100D01*
X78411200Y-40619300D02*
X78411200Y-39051300D01*
X17283400Y-85182300D02*
X17283400Y-92296600D01*
X32174400Y-43388800D02*
X18741500Y-56821700D01*
X78411200Y-39051300D02*
X73840000Y-34480100D01*
%TO.N,/RIO connector/Z80_A7*%
X122167600Y-17118500D02*
X93162200Y-17118500D01*
X43632200Y-14887800D02*
X33260000Y-25260000D01*
X74900000Y-5150100D02*
X65162300Y-14887800D01*
X154900000Y-18000000D02*
X153218100Y-19681900D01*
X124731000Y-19681900D02*
X122167600Y-17118500D01*
X74900000Y-3500000D02*
X74900000Y-5150100D01*
X81193800Y-5150100D02*
X74900000Y-5150100D01*
X153218100Y-19681900D02*
X124731000Y-19681900D01*
X93162200Y-17118500D02*
X81193800Y-5150100D01*
X65162300Y-14887800D02*
X43632200Y-14887800D01*
%TO.N,/RIO connector/Z80_A6*%
X121753400Y-18118600D02*
X92748000Y-18118600D01*
X154758000Y-20682000D02*
X124316800Y-20682000D01*
X92748000Y-18118600D02*
X92237000Y-17607600D01*
X43452400Y-17607600D02*
X35800000Y-25260000D01*
X157440000Y-18000000D02*
X154758000Y-20682000D01*
X124316800Y-20682000D02*
X121753400Y-18118600D01*
X92237000Y-17607600D02*
X43452400Y-17607600D01*
%TO.N,/RIO connector/Z80_A5*%
X155188200Y-21682100D02*
X123902600Y-21682100D01*
X92333800Y-19118700D02*
X91822800Y-18607700D01*
X91822800Y-18607700D02*
X44992300Y-18607700D01*
X44992300Y-18607700D02*
X38340000Y-25260000D01*
X123902600Y-21682100D02*
X121339200Y-19118700D01*
X159980000Y-18000000D02*
X156636000Y-21344000D01*
X156636000Y-21344000D02*
X155526300Y-21344000D01*
X121339200Y-19118700D02*
X92333800Y-19118700D01*
X155526300Y-21344000D02*
X155188200Y-21682100D01*
%TO.N,/RIO connector/Z80_A4*%
X46532200Y-19607800D02*
X40880000Y-25260000D01*
X120925000Y-20118800D02*
X91919600Y-20118800D01*
X162520000Y-18000000D02*
X158175900Y-22344100D01*
X91408600Y-19607800D02*
X46532200Y-19607800D01*
X155596400Y-22688200D02*
X123494400Y-22688200D01*
X123494400Y-22688200D02*
X120925000Y-20118800D01*
X155940500Y-22344100D02*
X155596400Y-22688200D01*
X91919600Y-20118800D02*
X91408600Y-19607800D01*
X158175900Y-22344100D02*
X155940500Y-22344100D01*
%TO.N,/RIO connector/Z80_A3*%
X90996600Y-20610100D02*
X48069900Y-20610100D01*
X48069900Y-20610100D02*
X43420000Y-25260000D01*
X156010600Y-23688300D02*
X123080200Y-23688300D01*
X123080200Y-23688300D02*
X120510800Y-21118900D01*
X159715800Y-23344200D02*
X156354700Y-23344200D01*
X120510800Y-21118900D02*
X91505400Y-21118900D01*
X165060000Y-18000000D02*
X159715800Y-23344200D01*
X91505400Y-21118900D02*
X90996600Y-20610100D01*
X156354700Y-23344200D02*
X156010600Y-23688300D01*
%TO.N,/RIO connector/Z80_A2*%
X91091200Y-22119000D02*
X90582400Y-21610200D01*
X122666000Y-24688400D02*
X120096600Y-22119000D01*
X167600000Y-18000000D02*
X161255700Y-24344300D01*
X156424800Y-24688400D02*
X122666000Y-24688400D01*
X156768900Y-24344300D02*
X156424800Y-24688400D01*
X161255700Y-24344300D02*
X156768900Y-24344300D01*
X49609800Y-21610200D02*
X45960000Y-25260000D01*
X90582400Y-21610200D02*
X49609800Y-21610200D01*
X120096600Y-22119000D02*
X91091200Y-22119000D01*
%TO.N,/RIO connector/Z80_A1*%
X122581800Y-16118400D02*
X102758400Y-16118400D01*
X102758400Y-16118400D02*
X90140000Y-3500000D01*
X124322000Y-17858600D02*
X122581800Y-16118400D01*
X127273200Y-17858600D02*
X124322000Y-17858600D01*
%TO.N,/RIO connector/Z80_A0*%
X119558000Y-23419100D02*
X90477100Y-23419100D01*
X89668300Y-22610300D02*
X52089600Y-22610300D01*
X90477100Y-23419100D02*
X89668300Y-22610300D01*
X51040000Y-25260000D02*
X51040000Y-23659900D01*
X52089600Y-22610300D02*
X51040000Y-23659900D01*
%TO.N,/RIO connector/Z80_A15*%
X124436200Y-16558500D02*
X122996000Y-15118300D01*
X129253300Y-18000000D02*
X127811800Y-16558500D01*
X106838300Y-15118300D02*
X95220000Y-3500000D01*
X127811800Y-16558500D02*
X124436200Y-16558500D01*
X122996000Y-15118300D02*
X106838300Y-15118300D01*
X134580000Y-18000000D02*
X132929900Y-18000000D01*
X132929900Y-18000000D02*
X129253300Y-18000000D01*
%TO.N,/RIO connector/Z80_A14*%
X128226000Y-15558400D02*
X124850400Y-15558400D01*
X129012800Y-16345200D02*
X128226000Y-15558400D01*
X137120000Y-18000000D02*
X135465200Y-16345200D01*
X123410200Y-14118200D02*
X108378200Y-14118200D01*
X135465200Y-16345200D02*
X129012800Y-16345200D01*
X108378200Y-14118200D02*
X97760000Y-3500000D01*
X124850400Y-15558400D02*
X123410200Y-14118200D01*
%TO.N,/RIO connector/Z80_A13*%
X128640200Y-14558300D02*
X125264600Y-14558300D01*
X109918100Y-13118100D02*
X100300000Y-3500000D01*
X137005100Y-15345100D02*
X129427000Y-15345100D01*
X125264600Y-14558300D02*
X123824400Y-13118100D01*
X129427000Y-15345100D02*
X128640200Y-14558300D01*
X123824400Y-13118100D02*
X109918100Y-13118100D01*
X139660000Y-18000000D02*
X137005100Y-15345100D01*
%TO.N,/RIO connector/Z80_A12*%
X138545000Y-14345000D02*
X129841200Y-14345000D01*
X142200000Y-18000000D02*
X138545000Y-14345000D01*
X129054400Y-13558200D02*
X125678800Y-13558200D01*
X129841200Y-14345000D02*
X129054400Y-13558200D01*
X111458000Y-12118000D02*
X102840000Y-3500000D01*
X124238600Y-12118000D02*
X111458000Y-12118000D01*
X125678800Y-13558200D02*
X124238600Y-12118000D01*
%TO.N,/RIO connector/Z80_A11*%
X129468600Y-12558100D02*
X126403500Y-12558100D01*
X144740000Y-18000000D02*
X140084900Y-13344900D01*
X124963300Y-11117900D02*
X112997900Y-11117900D01*
X126403500Y-12558100D02*
X124963300Y-11117900D01*
X140084900Y-13344900D02*
X130255400Y-13344900D01*
X130255400Y-13344900D02*
X129468600Y-12558100D01*
X112997900Y-11117900D02*
X105380000Y-3500000D01*
%TO.N,/RIO connector/Z80_A10*%
X126817700Y-11558000D02*
X125377500Y-10117800D01*
X141624800Y-12344800D02*
X130669600Y-12344800D01*
X125377500Y-10117800D02*
X114537800Y-10117800D01*
X130669600Y-12344800D02*
X129882800Y-11558000D01*
X129882800Y-11558000D02*
X126817700Y-11558000D01*
X147280000Y-18000000D02*
X141624800Y-12344800D01*
X114537800Y-10117800D02*
X107920000Y-3500000D01*
%TO.N,/RIO connector/Z80_A9*%
X149820000Y-18000000D02*
X143164700Y-11344700D01*
X131083800Y-11344700D02*
X130297000Y-10557900D01*
X130297000Y-10557900D02*
X127231900Y-10557900D01*
X125791700Y-9117700D02*
X116077700Y-9117700D01*
X127231900Y-10557900D02*
X125791700Y-9117700D01*
X116077700Y-9117700D02*
X110460000Y-3500000D01*
X143164700Y-11344700D02*
X131083800Y-11344700D01*
%TO.N,/RIO connector/Z80_A8*%
X130711200Y-9557800D02*
X127646100Y-9557800D01*
X117617600Y-8117600D02*
X113000000Y-3500000D01*
X152360000Y-18000000D02*
X144704600Y-10344600D01*
X127646100Y-9557800D02*
X126205900Y-8117600D01*
X131498000Y-10344600D02*
X130711200Y-9557800D01*
X126205900Y-8117600D02*
X117617600Y-8117600D01*
X144704600Y-10344600D02*
X131498000Y-10344600D01*
%TO.N,/RIO connector/Z80_D7*%
X126620100Y-7117500D02*
X119157500Y-7117500D01*
X131125400Y-8557700D02*
X128060300Y-8557700D01*
X175220000Y-18000000D02*
X166564500Y-9344500D01*
X128060300Y-8557700D02*
X126620100Y-7117500D01*
X166564500Y-9344500D02*
X131912200Y-9344500D01*
X119157500Y-7117500D02*
X115540000Y-3500000D01*
X131912200Y-9344500D02*
X131125400Y-8557700D01*
%TO.N,/RIO connector/Z80_D6*%
X98800000Y-25380000D02*
X101446800Y-28026800D01*
X121175200Y-28026800D02*
X122454900Y-26747100D01*
X101446800Y-28026800D02*
X121175200Y-28026800D01*
X122454900Y-26747100D02*
X157619000Y-26747100D01*
%TO.N,/RIO connector/Z80_D5*%
X102940200Y-26980200D02*
X101340000Y-25380000D01*
X156809300Y-25718200D02*
X120655200Y-25718200D01*
X119393200Y-26980200D02*
X102940200Y-26980200D01*
X157183100Y-25344400D02*
X156809300Y-25718200D01*
X120655200Y-25718200D02*
X119393200Y-26980200D01*
X172955600Y-25344400D02*
X157183100Y-25344400D01*
X180300000Y-18000000D02*
X172955600Y-25344400D01*
%TO.N,/RIO connector/Z80_D4*%
X128474500Y-7557600D02*
X131539600Y-7557600D01*
X132326400Y-8344400D02*
X172726600Y-8344400D01*
X172726600Y-8344400D02*
X180366900Y-15984700D01*
X126067100Y-5150200D02*
X128474500Y-7557600D01*
X123160000Y-3500000D02*
X124810200Y-5150200D01*
X131539600Y-7557600D02*
X132326400Y-8344400D01*
X180366900Y-15984700D02*
X180824700Y-15984700D01*
X180824700Y-15984700D02*
X182840000Y-18000000D01*
X124810200Y-5150200D02*
X126067100Y-5150200D01*
%TO.N,/RIO connector/Z80_D3*%
X180730600Y-14764900D02*
X173310000Y-7344300D01*
X125831200Y-3500000D02*
X125700000Y-3500000D01*
X132740600Y-7344300D02*
X131953800Y-6557500D01*
X185380000Y-18000000D02*
X182144900Y-14764900D01*
X131953800Y-6557500D02*
X128888700Y-6557500D01*
X173310000Y-7344300D02*
X132740600Y-7344300D01*
X128888700Y-6557500D02*
X125831200Y-3500000D01*
X182144900Y-14764900D02*
X180730600Y-14764900D01*
%TO.N,/RIO connector/Z80_D2*%
X180331400Y-12951400D02*
X173724200Y-6344200D01*
X182871400Y-12951400D02*
X180331400Y-12951400D01*
X132368000Y-5557400D02*
X130297400Y-5557400D01*
X133154800Y-6344200D02*
X132368000Y-5557400D01*
X130297400Y-5557400D02*
X128240000Y-3500000D01*
X187920000Y-18000000D02*
X182871400Y-12951400D01*
X173724200Y-6344200D02*
X133154800Y-6344200D01*
%TO.N,/RIO connector/Z80_D0*%
X187997100Y-11347000D02*
X193000000Y-16349900D01*
X135164000Y-5344000D02*
X174606900Y-5344000D01*
X174606900Y-5344000D02*
X180609900Y-11347000D01*
X180609900Y-11347000D02*
X187997100Y-11347000D01*
X193000000Y-18000000D02*
X193000000Y-16349900D01*
X133320000Y-3500000D02*
X135164000Y-5344000D01*
%TO.N,/GLUE/ESP_IOD_CONFIG*%
X151289900Y-86256600D02*
X137995700Y-86256600D01*
X129880000Y-67120000D02*
X131480100Y-67120000D01*
X152236700Y-87203400D02*
X151289900Y-86256600D01*
X133732000Y-81992900D02*
X128926900Y-81992900D01*
X131480100Y-66459800D02*
X131480100Y-67120000D01*
X135899900Y-62040000D02*
X131480100Y-66459800D01*
X110000000Y-83000000D02*
X111600100Y-83000000D01*
X137500000Y-62040000D02*
X135899900Y-62040000D01*
X150620000Y-92955000D02*
X152236700Y-91338300D01*
X128926900Y-81992900D02*
X128532700Y-82387100D01*
X112213000Y-82387100D02*
X111600100Y-83000000D01*
X128532700Y-82387100D02*
X112213000Y-82387100D01*
X137995700Y-86256600D02*
X133732000Y-81992900D01*
X152236700Y-91338300D02*
X152236700Y-87203400D01*
%TO.N,/GLUE/RIO_CONTROL.A16*%
X178644200Y-50546600D02*
X173831400Y-45733800D01*
X167708300Y-69473000D02*
X167410500Y-69770800D01*
X190460000Y-55000000D02*
X179543100Y-65916900D01*
X132930600Y-69998000D02*
X132592600Y-69660000D01*
X132592600Y-69660000D02*
X129880000Y-69660000D01*
X136845600Y-73821600D02*
X133022000Y-69997900D01*
X158279800Y-40580200D02*
X162139900Y-36720100D01*
X162139900Y-36720100D02*
X163640000Y-36720100D01*
X149880400Y-69770800D02*
X145829600Y-73821600D01*
X173831400Y-45733800D02*
X159953500Y-45733800D01*
X174578900Y-65916900D02*
X171022800Y-69473000D01*
X158279800Y-44060100D02*
X158279800Y-40580200D01*
X145829600Y-73821600D02*
X136845600Y-73821600D01*
X167410500Y-69770800D02*
X149880400Y-69770800D01*
X133021900Y-69998000D02*
X132930600Y-69998000D01*
X137500000Y-67120000D02*
X135899900Y-67120000D01*
X163640000Y-35120000D02*
X163640000Y-36720100D01*
X159953500Y-45733800D02*
X158279800Y-44060100D01*
X180842900Y-50546600D02*
X178644200Y-50546600D01*
X181075000Y-50778700D02*
X180842900Y-50546600D01*
X133022000Y-69997900D02*
X133021900Y-69998000D01*
X135899900Y-67120000D02*
X133022000Y-69997900D01*
X179543100Y-65916900D02*
X174578900Y-65916900D01*
X171022800Y-69473000D02*
X167708300Y-69473000D01*
%TO.N,/GLUE/RIO_CONTROL.CE*%
X151887700Y-62266400D02*
X141954100Y-72200000D01*
X180300000Y-55000000D02*
X173033600Y-62266400D01*
X137500000Y-72200000D02*
X139100100Y-72200000D01*
X141954100Y-72200000D02*
X139100100Y-72200000D01*
X173033600Y-62266400D02*
X151887700Y-62266400D01*
%TO.N,/CACHE connector/CACHE_SEL_0*%
X124044200Y-27843000D02*
X137841700Y-27843000D01*
X6500000Y-31000000D02*
X8150100Y-31000000D01*
X8150100Y-31000000D02*
X9871600Y-29278500D01*
X168595600Y-50915600D02*
X172680000Y-55000000D01*
X9871600Y-29278500D02*
X122608700Y-29278500D01*
X122608700Y-29278500D02*
X124044200Y-27843000D01*
X160914300Y-50915600D02*
X168595600Y-50915600D01*
X137841700Y-27843000D02*
X160914300Y-50915600D01*
%TO.N,/CACHE connector/CACHE_SEL_1*%
X131719600Y-84469900D02*
X131860100Y-84610400D01*
X151726400Y-60531000D02*
X164609000Y-60531000D01*
X30773100Y-78346700D02*
X30773100Y-79645700D01*
X34729600Y-83602200D02*
X79892500Y-83602200D01*
X30773100Y-79645700D02*
X34729600Y-83602200D01*
X143674200Y-68583200D02*
X151726400Y-60531000D01*
X111950400Y-87705400D02*
X115185900Y-84469900D01*
X115185900Y-84469900D02*
X131719600Y-84469900D01*
X83995700Y-87705400D02*
X111950400Y-87705400D01*
X79892500Y-83602200D02*
X83995700Y-87705400D01*
%TO.N,/CACHE connector/CACHE_SEL_2*%
X29495700Y-58265400D02*
X44537000Y-58265400D01*
X110530900Y-48629700D02*
X113244200Y-45916400D01*
X128267300Y-29859800D02*
X133232500Y-29859800D01*
X113244200Y-45828000D02*
X115620500Y-43451700D01*
X44537000Y-58265400D02*
X44750100Y-58478500D01*
X119789200Y-38337900D02*
X128267300Y-29859800D01*
X25810500Y-61950600D02*
X29495700Y-58265400D01*
X44750100Y-58478500D02*
X95035200Y-58478500D01*
X95035200Y-58478500D02*
X104884000Y-48629700D01*
X113244200Y-45916400D02*
X113244200Y-45828000D01*
X119789200Y-41535400D02*
X119789200Y-38337900D01*
X115620500Y-43451700D02*
X117872900Y-43451700D01*
X104884000Y-48629700D02*
X110530900Y-48629700D01*
X117872900Y-43451700D02*
X119789200Y-41535400D01*
X133232500Y-29859800D02*
X133539700Y-30167000D01*
%TO.N,/CACHE connector/CACHE_SEL_3*%
X131025000Y-30859900D02*
X133161400Y-32996300D01*
X120789300Y-38755500D02*
X128684900Y-30859900D01*
X27820900Y-62056700D02*
X30612100Y-59265500D01*
X116123000Y-44451800D02*
X118296400Y-44451800D01*
X118296400Y-44451800D02*
X120789300Y-41958900D01*
X110945100Y-49629800D02*
X115416100Y-45158800D01*
X115416100Y-45158800D02*
X115416100Y-45158700D01*
X95449400Y-59478600D02*
X105298200Y-49629800D01*
X44122800Y-59265500D02*
X44335900Y-59478600D01*
X115416100Y-45158700D02*
X116123000Y-44451800D01*
X44335900Y-59478600D02*
X95449400Y-59478600D01*
X105298200Y-49629800D02*
X110945100Y-49629800D01*
X30612100Y-59265500D02*
X44122800Y-59265500D01*
X133161400Y-32996300D02*
X134667800Y-32996300D01*
X128684900Y-30859900D02*
X131025000Y-30859900D01*
X120789300Y-41958900D02*
X120789300Y-38755500D01*
%TO.N,/CACHE connector/CACHE_DATASTATUS*%
X9403200Y-80899600D02*
X10527500Y-80899600D01*
X91633500Y-111145600D02*
X100049100Y-111145600D01*
X100049100Y-111145600D02*
X103493300Y-114589800D01*
X86782700Y-110326500D02*
X86782700Y-106966100D01*
X137500000Y-40080000D02*
X139100100Y-40080000D01*
X10527500Y-80899600D02*
X10527500Y-106291800D01*
X6500000Y-20840000D02*
X4849800Y-22490200D01*
X6628700Y-78125100D02*
X9403200Y-80899600D01*
X86782700Y-106966100D02*
X86961200Y-106787600D01*
X91423200Y-110935300D02*
X91633500Y-111145600D01*
X148664200Y-40080000D02*
X161934100Y-53349900D01*
X161934100Y-53349900D02*
X162520000Y-53349900D01*
X10527500Y-106291800D02*
X14562200Y-110326500D01*
X14562200Y-110326500D02*
X86782700Y-110326500D01*
X139100100Y-40080000D02*
X148664200Y-40080000D01*
X162520000Y-55000000D02*
X162520000Y-53349900D01*
X4849800Y-70028500D02*
X6628700Y-71807400D01*
X4849800Y-22490200D02*
X4849800Y-70028500D01*
X6628700Y-71807400D02*
X6628700Y-78125100D01*
X87391500Y-110935300D02*
X91423200Y-110935300D01*
X86782700Y-110326500D02*
X87391500Y-110935300D01*
X103493300Y-114589800D02*
X123730100Y-114589800D01*
X10527500Y-80899600D02*
X13192800Y-80899600D01*
%TO.N,/GLUE/RIO_CONTROL.ROM_RDY*%
X137500000Y-59500000D02*
X139100100Y-59500000D01*
X121338400Y-105763000D02*
X120021400Y-107080000D01*
X130534500Y-88883200D02*
X121338400Y-98079300D01*
X175024500Y-55000000D02*
X168213200Y-48188700D01*
X160957700Y-48188700D02*
X157279600Y-44510600D01*
X157279600Y-44510600D02*
X157279600Y-38000500D01*
X166180000Y-27500000D02*
X166180000Y-29100100D01*
X150163500Y-59999200D02*
X139599300Y-59999200D01*
X139599300Y-59999200D02*
X139100100Y-59500000D01*
X175220000Y-55000000D02*
X175024500Y-55000000D01*
X157279600Y-38000500D02*
X166180000Y-29100100D01*
X175024500Y-55000000D02*
X170793600Y-59230900D01*
X150931800Y-59230900D02*
X150163500Y-59999200D01*
X170793600Y-59230900D02*
X150931800Y-59230900D01*
X121338400Y-98079300D02*
X121338400Y-105763000D01*
X120021400Y-107080000D02*
X109120000Y-107080000D01*
X168213200Y-48188700D02*
X160957700Y-48188700D01*
%TO.N,/GLUE/RIO CONTROL/Z80_WR+ESP_IOD_CONFIG*%
X106499600Y-106756400D02*
X108449500Y-108706300D01*
X126249200Y-102266700D02*
X126249200Y-100175500D01*
X108449500Y-108706300D02*
X119809600Y-108706300D01*
X119809600Y-108706300D02*
X126249200Y-102266700D01*
X106499600Y-101919600D02*
X106499600Y-106756400D01*
X101500000Y-96920000D02*
X106499600Y-101919600D01*
%TO.N,/CACHE connector/CACHE_CONTROL.DATASTATUS+PERM_Z80_IORQ*%
X83880000Y-104540000D02*
X82279900Y-104540000D01*
X78621500Y-107726300D02*
X41985400Y-107726300D01*
X41985400Y-107726300D02*
X29645200Y-95386100D01*
X81807800Y-104540000D02*
X78621500Y-107726300D01*
X82279900Y-104540000D02*
X81807800Y-104540000D01*
%TO.N,/CACHE connector/Z80_HARDLOCK*%
X155349200Y-75359600D02*
X140776500Y-75359600D01*
X79032400Y-80841500D02*
X81899900Y-77974000D01*
X171597600Y-72473300D02*
X158235500Y-72473300D01*
X78531300Y-81342600D02*
X79032400Y-80841500D01*
X32873000Y-79907000D02*
X34308600Y-81342600D01*
X113159400Y-83468300D02*
X129290200Y-83468300D01*
X129465500Y-83293000D02*
X133193400Y-83293000D01*
X109922500Y-86705200D02*
X113159400Y-83468300D01*
X173712400Y-70358500D02*
X171597600Y-72473300D01*
X83500000Y-77960000D02*
X81899900Y-77960000D01*
X158235500Y-72473300D02*
X155349200Y-75359600D01*
X81899900Y-77974000D02*
X81899900Y-77960000D01*
X84896100Y-86705200D02*
X109922500Y-86705200D01*
X129290200Y-83468300D02*
X129465500Y-83293000D01*
X34308600Y-81342600D02*
X78531300Y-81342600D01*
X79032400Y-80841500D02*
X84896100Y-86705200D01*
%TO.N,/CORE/ESP_WAIT_RESET*%
X144633400Y-80486700D02*
X153721100Y-80486700D01*
X125815200Y-113289700D02*
X104021400Y-113289700D01*
X125872000Y-113346500D02*
X125815200Y-113289700D01*
X153721100Y-80486700D02*
X160734300Y-73473500D01*
X104021400Y-113289700D02*
X98276700Y-107545000D01*
X175731400Y-73473500D02*
X176779000Y-72425900D01*
X94869200Y-74089200D02*
X94869200Y-77387100D01*
X160734300Y-73473500D02*
X175731400Y-73473500D01*
X98276700Y-107545000D02*
X98276700Y-107318900D01*
X91120000Y-70340000D02*
X94869200Y-74089200D01*
X142000000Y-124000000D02*
X139600100Y-124000000D01*
X134000000Y-120000000D02*
X135600100Y-120000000D01*
X139600100Y-124000000D02*
X135600100Y-120000000D01*
%TO.N,/SPI connector/ESP_CONTROL.WR*%
X101500000Y-99460000D02*
X99899900Y-99460000D01*
X93665400Y-107210900D02*
X91241100Y-109635200D01*
X91241100Y-109635200D02*
X88886200Y-109635200D01*
X99899900Y-99460000D02*
X95825200Y-103534700D01*
X95825200Y-103534700D02*
X95825200Y-104169300D01*
X95825200Y-104169300D02*
X93665400Y-106329100D01*
X93665400Y-106329100D02*
X93665400Y-107210900D01*
%TO.N,Net-(IC5-Pad6)*%
X101500000Y-104540000D02*
X103100100Y-104540000D01*
X103100100Y-104540000D02*
X103100100Y-104805200D01*
X120307000Y-109706500D02*
X131978500Y-98035000D01*
X131978500Y-98035000D02*
X141399900Y-98035000D01*
X103100100Y-104805200D02*
X108001400Y-109706500D01*
X108001400Y-109706500D02*
X120307000Y-109706500D01*
X143000000Y-98035000D02*
X141399900Y-98035000D01*
%TO.N,/GLUE/RIO CONTROL/Z80_RD+ESP_IOD_CONFIG+PERM_Z80_IORQ*%
X166737100Y-43523200D02*
X165985500Y-44274800D01*
X79401100Y-90021000D02*
X87430200Y-90021000D01*
X89734000Y-66115100D02*
X99095700Y-66115100D01*
X99095700Y-66115100D02*
X102673500Y-62537300D01*
X88056600Y-67792500D02*
X89734000Y-66115100D01*
X132985300Y-55081900D02*
X138061100Y-50006100D01*
X53700000Y-92955000D02*
X55300100Y-92955000D01*
X107218400Y-61669900D02*
X117412600Y-61669900D01*
X74947900Y-85567800D02*
X79401100Y-90021000D01*
X87430200Y-90021000D02*
X87780400Y-90371200D01*
X106351000Y-62537300D02*
X107218400Y-61669900D01*
X55300100Y-91554900D02*
X61287200Y-85567800D01*
X61287200Y-85567800D02*
X74947900Y-85567800D01*
X102673500Y-62537300D02*
X106351000Y-62537300D01*
X124000600Y-55081900D02*
X132985300Y-55081900D01*
X55300100Y-92955000D02*
X55300100Y-91554900D01*
X117412600Y-61669900D02*
X124000600Y-55081900D01*
X138061100Y-50006100D02*
X148831500Y-50006100D01*
X165985500Y-44274800D02*
X160340100Y-44274800D01*
%TO.N,/SPI connector/ESP_CONTROL.MEMRQ*%
X142113000Y-126657400D02*
X144548200Y-124222200D01*
X94086900Y-126657400D02*
X142113000Y-126657400D01*
X62240000Y-104720500D02*
X60643000Y-104720500D01*
X144548200Y-124222200D02*
X144548200Y-123152100D01*
X85081100Y-117651600D02*
X94086900Y-126657400D01*
X60643000Y-104720500D02*
X58838400Y-102915900D01*
X58838400Y-102915900D02*
X58838400Y-100633400D01*
X74201200Y-97378800D02*
X69581700Y-97378800D01*
X69581700Y-97378800D02*
X62240000Y-104720500D01*
X58838400Y-100633400D02*
X53700000Y-95495000D01*
%TO.N,/SPI connector/ESP_CONTROL.IORQ*%
X62648900Y-105726100D02*
X68456200Y-99918800D01*
X57630600Y-101965600D02*
X57630600Y-103141800D01*
X68456200Y-99918800D02*
X72551100Y-99918800D01*
X60214900Y-105726100D02*
X62648900Y-105726100D01*
X57630600Y-103141800D02*
X60214900Y-105726100D01*
X74201200Y-99918800D02*
X72551100Y-99918800D01*
X53700000Y-98035000D02*
X57630600Y-101965600D01*
%TO.N,Net-(IC7-Pad3)*%
X138339400Y-79305900D02*
X143560200Y-79305900D01*
X103980100Y-72840000D02*
X107246700Y-69573400D01*
X119089500Y-65087300D02*
X129835100Y-75832900D01*
X129835100Y-75832900D02*
X134866400Y-75832900D01*
X107246700Y-69573400D02*
X107246700Y-65884500D01*
X107246700Y-65884500D02*
X108043900Y-65087300D01*
X102380000Y-72840000D02*
X103980100Y-72840000D01*
X134866400Y-75832900D02*
X138339400Y-79305900D01*
X108043900Y-65087300D02*
X119089500Y-65087300D01*
X143560200Y-79305900D02*
X143710200Y-79155900D01*
X143710200Y-79155900D02*
X145697400Y-79155900D01*
%TO.N,/CORE/ESP_ROM_WR_PROTECT*%
X134078800Y-78096800D02*
X128882600Y-78096800D01*
X121085800Y-70300000D02*
X111600100Y-70300000D01*
X163499900Y-90440000D02*
X156316100Y-83256200D01*
X128882600Y-78096800D02*
X121085800Y-70300000D01*
X110000000Y-70300000D02*
X111600100Y-70300000D01*
X165500000Y-90440000D02*
X163499900Y-90440000D01*
X156316100Y-83256200D02*
X139238200Y-83256200D01*
X139238200Y-83256200D02*
X134078800Y-78096800D01*
%TO.N,/CORE/ESP_ROMSEL_0*%
X188701900Y-63561500D02*
X195727000Y-56536400D01*
X179079200Y-73378700D02*
X179079200Y-72366600D01*
X195727000Y-56536400D02*
X195727000Y-40640100D01*
X187884300Y-63561500D02*
X188701900Y-63561500D01*
X178774100Y-29934100D02*
X176340000Y-27500000D01*
X165500000Y-77740000D02*
X174717900Y-77740000D01*
X179079200Y-72366600D02*
X187884300Y-63561500D01*
X195727000Y-40640100D02*
X185021000Y-29934100D01*
X185021000Y-29934100D02*
X178774100Y-29934100D01*
X174717900Y-77740000D02*
X179079200Y-73378700D01*
%TO.N,/CORE/ESP_ROMSEL_1*%
X165500000Y-75200000D02*
X167500100Y-75200000D01*
X178079100Y-72964500D02*
X178079100Y-71952100D01*
X187823100Y-62208100D02*
X188640800Y-62208100D01*
X167500100Y-75200000D02*
X175843600Y-75200000D01*
X176235700Y-32475700D02*
X171260000Y-27500000D01*
X175843600Y-75200000D02*
X178079100Y-72964500D01*
X188640800Y-62208100D02*
X194698600Y-56150300D01*
X178079100Y-71952100D02*
X187823100Y-62208100D01*
X194698600Y-56150300D02*
X194698600Y-41026300D01*
X194698600Y-41026300D02*
X186148000Y-32475700D01*
X186148000Y-32475700D02*
X176235700Y-32475700D01*
%TO.N,/CORE/ESP_HARDLOCK*%
X165500000Y-85360000D02*
X160605900Y-85360000D01*
X157064500Y-81818600D02*
X139214900Y-81818600D01*
X102857000Y-53868100D02*
X107826900Y-53868100D01*
X108857100Y-66112900D02*
X108564700Y-66405300D01*
X95189900Y-61535200D02*
X102857000Y-53868100D01*
X118711300Y-45451900D02*
X116537200Y-45451900D01*
X126978700Y-37184500D02*
X118711300Y-45451900D01*
X91587900Y-61535200D02*
X95189900Y-61535200D01*
X134493000Y-77096700D02*
X129297000Y-77096700D01*
X108121100Y-53868100D02*
X107826900Y-53868100D01*
X160605900Y-85360000D02*
X157064500Y-81818600D01*
X129297000Y-77096700D02*
X118313200Y-66112900D01*
X116537200Y-45451900D02*
X116537200Y-45452000D01*
X116537200Y-45452000D02*
X108121100Y-53868100D01*
X139214900Y-81818600D02*
X134493000Y-77096700D01*
X126978700Y-35361300D02*
X126978700Y-37184500D01*
X118313200Y-66112900D02*
X108857100Y-66112900D01*
X129880000Y-32460000D02*
X126978700Y-35361300D01*
%TO.N,/SPI connector/ESP_CONTROL.BUSRQ*%
X102609200Y-85110800D02*
X98908400Y-85110800D01*
X110000000Y-77920000D02*
X108399900Y-77920000D01*
X108399900Y-77920000D02*
X108399900Y-79320100D01*
X108399900Y-79320100D02*
X102609200Y-85110800D01*
X94965600Y-106608900D02*
X94965600Y-109845500D01*
X98142800Y-103431700D02*
X94965600Y-106608900D01*
%TO.N,/GLUE/RIO CONTROL/ROM_WR_PROTECT+Z80_WR*%
X111600100Y-75380000D02*
X114859800Y-78639700D01*
X143841200Y-28355100D02*
X157849700Y-28355100D01*
X110000000Y-75380000D02*
X111600100Y-75380000D01*
X114859800Y-78639700D02*
X125358900Y-78639700D01*
%TO.N,/SPI connector/LOCAL_CONTROL.IORQ*%
X26477000Y-75942200D02*
X26477000Y-75228000D01*
X26477000Y-75228000D02*
X31461900Y-70243100D01*
X33876900Y-70243100D02*
X37121200Y-66998800D01*
X31461900Y-70243100D02*
X33876900Y-70243100D01*
X20600100Y-81819100D02*
X26477000Y-75942200D01*
X19000000Y-90540000D02*
X20600100Y-90540000D01*
X20600100Y-90540000D02*
X20600100Y-81819100D01*
%TO.N,/SPI connector/LOCAL_CONTROL.MEMRQ*%
X33640200Y-85119900D02*
X28220100Y-90540000D01*
X34445500Y-85119900D02*
X33640200Y-85119900D01*
X26620000Y-90540000D02*
X28220100Y-90540000D01*
%TO.N,/GLUE/Z80_BUS_CONTROL.Z80_DATA_DIR*%
X143000000Y-100575000D02*
X141399900Y-100575000D01*
X141399900Y-100575000D02*
X131472400Y-100575000D01*
X131472400Y-100575000D02*
X128119100Y-103928300D01*
%TO.N,/GLUE/Z80_BUS_CONTROL.Z80_ADD_OE*%
X82399600Y-31279600D02*
X52640400Y-31279600D01*
X52640400Y-31279600D02*
X51040000Y-32880000D01*
X88221400Y-37101400D02*
X84000000Y-32880000D01*
X138824100Y-84256400D02*
X133664600Y-79096900D01*
X154262200Y-86355100D02*
X152163500Y-84256400D01*
X152163500Y-84256400D02*
X138824100Y-84256400D01*
X110296800Y-43054500D02*
X105478400Y-43054500D01*
X91801300Y-37101400D02*
X88221400Y-37101400D01*
X150620000Y-103115000D02*
X154262200Y-99472800D01*
X84000000Y-32880000D02*
X82399600Y-31279600D01*
X105478400Y-43054500D02*
X105265000Y-43267900D01*
X128468400Y-79096900D02*
X123437900Y-74066400D01*
X154262200Y-99472800D02*
X154262200Y-86355100D01*
X123437900Y-74066400D02*
X111630900Y-74066400D01*
X133664600Y-79096900D02*
X128468400Y-79096900D01*
%TO.N,/GLUE/Z80_BUS_CONTROL.Z80_ADD_DIR*%
X133956400Y-80803000D02*
X123718200Y-80803000D01*
X84939900Y-26860100D02*
X56780200Y-26860100D01*
X153262000Y-92853000D02*
X153262000Y-86769400D01*
X53580000Y-25260000D02*
X55180100Y-25260000D01*
X150620000Y-95495000D02*
X153262000Y-92853000D01*
X153262000Y-86769400D02*
X151749100Y-85256500D01*
X86540000Y-25260000D02*
X84939900Y-26860100D01*
X138409900Y-85256500D02*
X133956400Y-80803000D01*
X56780200Y-26860100D02*
X55180100Y-25260000D01*
X151749100Y-85256500D02*
X138409900Y-85256500D01*
%TO.N,/GLUE/RIO_CONTROL.A15*%
X175580000Y-42000000D02*
X175580000Y-38500100D01*
X187920000Y-55000000D02*
X187920000Y-53349900D01*
X186929900Y-53349900D02*
X175580000Y-42000000D01*
X173800000Y-35120000D02*
X173800000Y-36720100D01*
X187920000Y-53349900D02*
X186929900Y-53349900D01*
X175580000Y-38500100D02*
X173800000Y-36720100D01*
%TO.N,/GLUE/RIO_CONTROL.A14*%
X168720000Y-35120000D02*
X168720000Y-36720100D01*
X180518600Y-49478600D02*
X173040000Y-42000000D01*
X173040000Y-42000000D02*
X173040000Y-40399900D01*
X185380000Y-53349900D02*
X185380000Y-53245000D01*
X168720000Y-35120000D02*
X168720000Y-27500000D01*
X173040000Y-40399900D02*
X172399800Y-40399900D01*
X172399800Y-40399900D02*
X168720000Y-36720100D01*
X181613600Y-49478600D02*
X180518600Y-49478600D01*
X185380000Y-53245000D02*
X181613600Y-49478600D01*
X185380000Y-55000000D02*
X185380000Y-53349900D01*
%TO.N,/GLUE/RIO_CONTROL.WE*%
X178880000Y-35120000D02*
X178880000Y-36720100D01*
X178120000Y-40399900D02*
X178120000Y-37480100D01*
X179582300Y-51742300D02*
X178001200Y-51742300D01*
X182840000Y-55000000D02*
X179582300Y-51742300D01*
X178120000Y-42000000D02*
X178120000Y-40399900D01*
X178120000Y-37480100D02*
X178880000Y-36720100D01*
%TD*%
M02*
