M48
; DRILL file {KiCad 7.0.2} date Sun 04 Jun 2023 09:38:00 BST
; FORMAT={-:-/ absolute / metric / decimal}
; #@! TF.CreationDate,2023-06-04T09:38:00+01:00
; #@! TF.GenerationSoftware,Kicad,Pcbnew,7.0.2
; #@! TF.FileFunction,Plated,1,2,PTH
FMAT,2
METRIC
; #@! TA.AperFunction,Plated,PTH,ViaDrill
T1C0.500
; #@! TA.AperFunction,Plated,PTH,ComponentDrill
T2C0.800
; #@! TA.AperFunction,Plated,PTH,ComponentDrill
T3C1.000
%
G90
G05
T1
X0.0Y0.0
X4.668Y-72.431
X8.207Y-77.853
X13.193Y-80.9
X15.145Y-109.026
X20.294Y-79.643
X23.083Y-99.421
X24.901Y-75.116
X25.81Y-61.951
X27.821Y-62.057
X29.645Y-95.386
X30.671Y-99.076
X30.773Y-78.347
X32.0Y-71.543
X32.386Y-73.767
X32.787Y-75.403
X32.873Y-79.907
X33.677Y-89.846
X33.892Y-60.577
X34.445Y-85.12
X35.084Y-64.01
X36.043Y-6.652
X37.768Y-61.571
X38.041Y-80.037
X38.249Y-63.893
X39.697Y-62.635
X42.146Y-78.986
X49.984Y-46.301
X51.738Y-46.793
X59.424Y-112.821
X59.825Y-75.74
X60.565Y-33.733
X63.563Y-109.026
X66.211Y-111.844
X66.925Y-70.713
X69.733Y-70.955
X73.592Y-44.0
X74.031Y-113.641
X74.602Y-71.545
X75.453Y-116.945
X76.252Y-114.272
X76.707Y-71.254
X76.801Y-41.681
X77.111Y-40.081
X80.568Y-86.181
X82.798Y-108.734
X85.081Y-117.652
X86.961Y-106.788
X87.78Y-90.371
X88.057Y-67.793
X88.886Y-109.635
X88.95Y-63.581
X91.588Y-61.535
X91.801Y-37.101
X94.869Y-77.387
X94.966Y-109.846
X96.066Y-84.349
X98.143Y-103.432
X98.277Y-107.319
X98.908Y-85.111
X99.391Y-114.338
X99.662Y-116.542
X103.603Y-90.371
X104.398Y-61.237
X104.571Y-122.314
X104.927Y-68.658
X105.265Y-43.268
X105.517Y-41.668
X105.529Y-60.106
X106.211Y-91.036
X106.357Y-89.021
X106.663Y-46.011
X107.827Y-53.868
X108.083Y-39.101
X108.565Y-66.405
X110.297Y-43.054
X111.311Y-46.011
X111.631Y-74.066
X112.165Y-44.568
X112.228Y-95.936
X112.33Y-55.974
X116.889Y-41.151
X118.489Y-40.869
X119.558Y-23.419
X120.929Y-61.978
X122.236Y-87.916
X123.718Y-80.803
X123.73Y-114.59
X125.359Y-78.64
X125.872Y-113.346
X126.249Y-100.175
X127.273Y-17.859
X128.119Y-103.928
X130.534Y-88.883
X131.86Y-84.61
X133.193Y-83.293
X133.54Y-30.167
X134.668Y-32.996
X137.159Y-53.025
X140.043Y-77.942
X140.776Y-75.36
X143.368Y-54.334
X143.674Y-68.583
X143.841Y-28.355
X144.548Y-123.152
X144.633Y-80.487
X145.697Y-79.156
X147.763Y-73.858
X148.832Y-50.006
X149.308Y-58.699
X154.561Y-112.987
X157.619Y-26.747
X157.85Y-28.355
X160.34Y-44.275
X164.609Y-60.531
X166.737Y-43.523
X167.924Y-84.52
X169.498Y-86.205
X171.188Y-92.189
X172.396Y-84.842
X173.712Y-70.358
X174.659Y-68.634
X176.669Y-88.701
X176.779Y-72.426
X178.001Y-51.742
X179.01Y-64.567
X180.61Y-11.347
X181.075Y-50.779
X186.146Y-85.701
X187.065Y-66.277
X192.832Y-83.386
X193.936Y-75.842
T2
X19.0Y-88.0
X19.0Y-90.54
X19.0Y-93.08
X19.0Y-95.62
X19.0Y-98.16
X19.0Y-100.7
X19.0Y-103.24
X26.62Y-88.0
X26.62Y-90.54
X26.62Y-93.08
X26.62Y-95.62
X26.62Y-98.16
X26.62Y-100.7
X26.62Y-103.24
X30.72Y-25.26
X30.72Y-32.88
X33.26Y-25.26
X33.26Y-32.88
X35.8Y-25.26
X35.8Y-32.88
X38.34Y-25.26
X38.34Y-32.88
X40.88Y-25.26
X40.88Y-32.88
X43.42Y-25.26
X43.42Y-32.88
X45.96Y-25.26
X45.96Y-32.88
X48.5Y-25.26
X48.5Y-32.88
X51.04Y-25.26
X51.04Y-32.88
X53.58Y-25.26
X53.58Y-32.88
X53.7Y-87.875
X53.7Y-90.415
X53.7Y-92.955
X53.7Y-95.495
X53.7Y-98.035
X53.7Y-100.575
X53.7Y-103.115
X61.32Y-87.875
X61.32Y-90.415
X61.32Y-92.955
X61.32Y-95.495
X61.32Y-98.035
X61.32Y-100.575
X61.32Y-103.115
X63.68Y-25.26
X63.68Y-32.88
X66.22Y-25.26
X66.22Y-32.88
X68.76Y-25.26
X68.76Y-32.88
X71.3Y-25.26
X71.3Y-32.88
X73.84Y-25.26
X73.84Y-32.88
X76.38Y-25.26
X76.38Y-32.88
X78.92Y-25.26
X78.92Y-32.88
X81.46Y-25.26
X81.46Y-32.88
X83.5Y-67.8
X83.5Y-70.34
X83.5Y-72.88
X83.5Y-75.42
X83.5Y-77.96
X83.5Y-80.5
X83.5Y-83.04
X83.88Y-91.84
X83.88Y-94.38
X83.88Y-96.92
X83.88Y-99.46
X83.88Y-102.0
X83.88Y-104.54
X83.88Y-107.08
X84.0Y-25.26
X84.0Y-32.88
X86.54Y-25.26
X86.54Y-32.88
X91.12Y-67.8
X91.12Y-70.34
X91.12Y-72.88
X91.12Y-75.42
X91.12Y-77.96
X91.12Y-80.5
X91.12Y-83.04
X91.5Y-91.84
X91.5Y-94.38
X91.5Y-96.92
X91.5Y-99.46
X91.5Y-102.0
X91.5Y-104.54
X91.5Y-107.08
X93.72Y-25.38
X93.72Y-33.0
X96.26Y-25.38
X96.26Y-33.0
X98.8Y-25.38
X98.8Y-33.0
X100.0Y-120.0
X100.0Y-125.0
X101.34Y-25.38
X101.34Y-33.0
X101.5Y-91.84
X101.5Y-94.38
X101.5Y-96.92
X101.5Y-99.46
X101.5Y-102.0
X101.5Y-104.54
X101.5Y-107.08
X102.38Y-67.76
X102.38Y-70.3
X102.38Y-72.84
X102.38Y-75.38
X102.38Y-77.92
X102.38Y-80.46
X102.38Y-83.0
X103.88Y-25.38
X103.88Y-33.0
X106.42Y-25.38
X106.42Y-33.0
X108.96Y-25.38
X108.96Y-33.0
X109.12Y-91.84
X109.12Y-94.38
X109.12Y-96.92
X109.12Y-99.46
X109.12Y-102.0
X109.12Y-104.54
X109.12Y-107.08
X109.63Y-120.0
X110.0Y-67.76
X110.0Y-70.3
X110.0Y-72.84
X110.0Y-75.38
X110.0Y-77.92
X110.0Y-80.46
X110.0Y-83.0
X111.5Y-25.38
X111.5Y-33.0
X114.04Y-25.38
X114.04Y-33.0
X116.58Y-25.38
X116.58Y-33.0
X119.79Y-120.0
X123.84Y-120.0
X129.84Y-110.0
X129.84Y-114.0
X129.88Y-32.46
X129.88Y-35.0
X129.88Y-37.54
X129.88Y-40.08
X129.88Y-42.62
X129.88Y-45.16
X129.88Y-47.7
X129.88Y-56.96
X129.88Y-59.5
X129.88Y-62.04
X129.88Y-64.58
X129.88Y-67.12
X129.88Y-69.66
X129.88Y-72.2
X134.0Y-120.0
X137.5Y-32.46
X137.5Y-35.0
X137.5Y-37.54
X137.5Y-40.08
X137.5Y-42.62
X137.5Y-45.16
X137.5Y-47.7
X137.5Y-56.96
X137.5Y-59.5
X137.5Y-62.04
X137.5Y-64.58
X137.5Y-67.12
X137.5Y-69.66
X137.5Y-72.2
X140.0Y-110.0
X140.0Y-114.0
X142.0Y-119.0
X142.0Y-124.0
X143.0Y-87.875
X143.0Y-90.415
X143.0Y-92.955
X143.0Y-95.495
X143.0Y-98.035
X143.0Y-100.575
X143.0Y-103.115
X150.62Y-87.875
X150.62Y-90.415
X150.62Y-92.955
X150.62Y-95.495
X150.62Y-98.035
X150.62Y-100.575
X150.62Y-103.115
X163.64Y-27.5
X163.64Y-35.12
X166.18Y-27.5
X166.18Y-35.12
X168.72Y-27.5
X168.72Y-35.12
X170.5Y-42.0
X171.26Y-27.5
X171.26Y-35.12
X173.04Y-42.0
X173.8Y-27.5
X173.8Y-35.12
X175.58Y-42.0
X176.34Y-27.5
X176.34Y-35.12
X178.12Y-42.0
X178.5Y-110.42
X178.5Y-120.58
X178.88Y-27.5
X178.88Y-35.12
X180.66Y-42.0
X181.42Y-27.5
X181.42Y-35.12
X182.0Y-110.42
X182.0Y-120.58
X183.2Y-42.0
X183.96Y-27.5
X183.96Y-35.12
X185.74Y-42.0
X186.5Y-27.5
X186.5Y-35.12
X188.28Y-42.0
X190.82Y-42.0
T3
X6.5Y-15.76
X6.5Y-18.3
X6.5Y-20.84
X6.5Y-23.38
X6.5Y-25.92
X6.5Y-28.46
X6.5Y-31.0
X6.5Y-33.54
X6.5Y-36.08
X6.5Y-38.62
X6.5Y-41.16
X6.5Y-43.7
X6.5Y-46.24
X6.5Y-48.78
X12.201Y-87.219
X12.201Y-89.759
X12.201Y-92.299
X12.201Y-94.839
X12.201Y-97.379
X12.201Y-99.919
X12.201Y-102.459
X12.201Y-104.999
X32.5Y-48.78
X34.581Y-66.999
X35.04Y-48.78
X37.121Y-66.999
X37.58Y-48.78
X39.661Y-66.999
X40.12Y-48.78
X42.201Y-66.999
X42.201Y-87.219
X42.201Y-89.759
X42.201Y-92.299
X42.201Y-94.839
X42.201Y-97.379
X42.201Y-99.919
X42.201Y-102.459
X42.201Y-104.999
X42.66Y-48.78
X45.2Y-48.78
X47.74Y-48.78
X49.5Y-3.5
X50.28Y-48.78
X51.341Y-66.999
X52.04Y-3.5
X52.82Y-48.78
X53.881Y-66.999
X54.58Y-3.5
X55.36Y-48.78
X56.421Y-66.999
X57.12Y-3.5
X57.9Y-48.78
X58.961Y-66.999
X59.66Y-3.5
X60.44Y-48.78
X61.501Y-66.999
X62.0Y-72.46
X62.0Y-77.54
X62.2Y-3.5
X62.98Y-48.78
X64.041Y-66.999
X64.74Y-3.5
X65.52Y-48.78
X66.581Y-66.999
X67.28Y-3.5
X68.06Y-48.78
X69.121Y-66.999
X69.82Y-3.5
X70.6Y-48.78
X71.661Y-66.999
X72.36Y-3.5
X73.14Y-48.78
X74.201Y-66.999
X74.201Y-87.219
X74.201Y-89.759
X74.201Y-92.299
X74.201Y-94.839
X74.201Y-97.379
X74.201Y-99.919
X74.201Y-102.459
X74.201Y-104.999
X74.9Y-3.5
X75.68Y-48.78
X77.44Y-3.5
X78.22Y-48.78
X79.98Y-3.5
X80.76Y-48.78
X82.52Y-3.5
X83.3Y-48.78
X85.06Y-3.5
X85.84Y-48.78
X87.6Y-3.5
X88.38Y-48.78
X90.14Y-3.5
X90.92Y-48.78
X92.68Y-3.5
X95.22Y-3.5
X97.76Y-3.5
X100.3Y-3.5
X102.84Y-3.5
X105.38Y-3.5
X107.92Y-3.5
X110.46Y-3.5
X113.0Y-3.5
X115.54Y-3.5
X118.08Y-3.5
X119.201Y-87.219
X119.201Y-89.759
X119.201Y-92.299
X119.201Y-94.839
X119.201Y-97.379
X119.201Y-99.919
X119.201Y-102.459
X119.201Y-104.999
X120.62Y-3.5
X123.16Y-3.5
X125.7Y-3.5
X128.24Y-3.5
X130.78Y-3.5
X133.32Y-3.5
X134.58Y-18.0
X135.86Y-3.5
X137.12Y-18.0
X138.4Y-3.5
X139.66Y-18.0
X140.94Y-3.5
X142.2Y-18.0
X143.48Y-3.5
X144.74Y-18.0
X144.92Y-110.0
X144.92Y-114.0
X146.02Y-3.5
X147.28Y-18.0
X148.56Y-3.5
X149.581Y-66.999
X149.82Y-18.0
X149.82Y-55.0
X150.0Y-110.0
X150.0Y-114.0
X152.121Y-66.999
X152.36Y-18.0
X152.36Y-55.0
X154.661Y-66.999
X154.9Y-18.0
X154.9Y-55.0
X155.0Y-42.0
X157.0Y-110.0
X157.0Y-115.08
X157.201Y-66.999
X157.201Y-87.219
X157.201Y-89.759
X157.201Y-92.299
X157.201Y-94.839
X157.201Y-97.379
X157.201Y-99.919
X157.201Y-102.459
X157.201Y-104.999
X157.44Y-18.0
X157.44Y-55.0
X159.98Y-18.0
X159.98Y-55.0
X160.08Y-42.0
X162.52Y-18.0
X162.52Y-55.0
X165.06Y-18.0
X165.06Y-55.0
X165.5Y-75.2
X165.5Y-77.74
X165.5Y-80.28
X165.5Y-82.82
X165.5Y-85.36
X165.5Y-87.9
X165.5Y-90.44
X165.5Y-92.98
X165.5Y-95.52
X165.5Y-98.06
X165.5Y-100.6
X165.5Y-103.14
X165.5Y-105.68
X165.5Y-108.22
X165.5Y-110.76
X165.5Y-113.3
X165.5Y-115.84
X165.5Y-118.38
X165.5Y-120.92
X165.5Y-123.46
X165.5Y-126.0
X167.6Y-18.0
X167.6Y-55.0
X170.14Y-18.0
X170.14Y-55.0
X172.68Y-18.0
X172.68Y-55.0
X173.7Y-100.92
X173.7Y-106.0
X175.22Y-18.0
X175.22Y-55.0
X177.76Y-18.0
X177.76Y-55.0
X177.85Y-100.92
X177.85Y-106.0
X180.3Y-18.0
X180.3Y-55.0
X182.0Y-100.92
X182.0Y-106.0
X182.84Y-18.0
X182.84Y-55.0
X185.38Y-18.0
X185.38Y-55.0
X187.92Y-18.0
X187.92Y-55.0
X190.46Y-18.0
X190.46Y-55.0
X190.5Y-75.2
X190.5Y-77.74
X190.5Y-80.28
X190.5Y-82.82
X190.5Y-85.36
X190.5Y-87.9
X190.5Y-90.44
X190.5Y-92.98
X190.5Y-95.52
X190.5Y-98.06
X190.5Y-100.6
X190.5Y-103.14
X190.5Y-105.68
X190.5Y-108.22
X190.5Y-110.76
X190.5Y-113.3
X190.5Y-115.84
X190.5Y-118.38
X190.5Y-120.92
X190.5Y-123.46
X190.5Y-126.0
X193.0Y-18.0
X193.0Y-55.0
X196.0Y-75.34
X196.0Y-77.88
X196.0Y-80.42
X196.0Y-82.96
X196.0Y-85.5
X196.0Y-88.04
T0
M30
