%TF.GenerationSoftware,KiCad,Pcbnew,7.0.2*%
%TF.CreationDate,2023-06-04T09:28:39+01:00*%
%TF.ProjectId,IOCACHE-128K_ZXspectrum_impl_narrow,494f4341-4348-4452-9d31-32384b5f5a58,rev?*%
%TF.SameCoordinates,PX6cb8080PY3dfd240*%
%TF.FileFunction,Copper,L1,Top*%
%TF.FilePolarity,Positive*%
%FSLAX46Y46*%
G04 Gerber Fmt 4.6, Leading zero omitted, Abs format (unit mm)*
G04 Created by KiCad (PCBNEW 7.0.2) date 2023-06-04 09:28:39*
%MOMM*%
%LPD*%
G01*
G04 APERTURE LIST*
%TA.AperFunction,ComponentPad*%
%ADD10R,1.700000X1.700000*%
%TD*%
%TA.AperFunction,ComponentPad*%
%ADD11O,1.700000X1.700000*%
%TD*%
%TA.AperFunction,ComponentPad*%
%ADD12R,1.600000X1.600000*%
%TD*%
%TA.AperFunction,ComponentPad*%
%ADD13O,1.600000X1.600000*%
%TD*%
%TA.AperFunction,ComponentPad*%
%ADD14C,1.600000*%
%TD*%
%TA.AperFunction,ViaPad*%
%ADD15C,1.000000*%
%TD*%
%TA.AperFunction,Conductor*%
%ADD16C,0.400000*%
%TD*%
G04 APERTURE END LIST*
D10*
%TO.P,J1,1,Pin_1*%
%TO.N,+5V*%
X4000000Y-4000000D03*
D11*
%TO.P,J1,2,Pin_2*%
%TO.N,/IOCACHE-128K_ZXspectrum/CACHE_CONTROL.A16*%
X6540000Y-4000000D03*
%TO.P,J1,3,Pin_3*%
%TO.N,/IOCACHE-128K_ZXspectrum/CACHE_CONTROL.WE*%
X9080000Y-4000000D03*
%TO.P,J1,4,Pin_4*%
%TO.N,/IOCACHE-128K_ZXspectrum/CACHE_CONTROL.OE*%
X11620000Y-4000000D03*
%TO.P,J1,5,Pin_5*%
%TO.N,/IOCACHE-128K_ZXspectrum/CACHE_CONTROL.CS*%
X14160000Y-4000000D03*
%TO.P,J1,6,Pin_6*%
%TO.N,/IOCACHE-128K_ZXspectrum/CACHE_CONTROL.DATASTATUS+PERM_Z80_IORQ*%
X16700000Y-4000000D03*
%TO.P,J1,7,Pin_7*%
%TO.N,/IOCACHE-128K_ZXspectrum/Z80_HARDLOCK*%
X19240000Y-4000000D03*
%TO.P,J1,8,Pin_8*%
%TO.N,/IOCACHE-128K_ZXspectrum/CACHE_SEL_0*%
X21780000Y-4000000D03*
%TO.P,J1,9,Pin_9*%
%TO.N,/IOCACHE-128K_ZXspectrum/CACHE_SEL_1*%
X24320000Y-4000000D03*
%TO.P,J1,10,Pin_10*%
%TO.N,/IOCACHE-128K_ZXspectrum/CACHE_SEL_2*%
X26860000Y-4000000D03*
%TO.P,J1,11,Pin_11*%
%TO.N,/IOCACHE-128K_ZXspectrum/CACHE_SEL_3*%
X29400000Y-4000000D03*
%TO.P,J1,12,Pin_12*%
%TO.N,/IOCACHE-128K_ZXspectrum/CACHE_DATASTATUS*%
X31940000Y-4000000D03*
%TO.P,J1,13,Pin_13*%
%TO.N,unconnected-(J1-Pin_13-Pad13)*%
X34480000Y-4000000D03*
%TO.P,J1,14,Pin_14*%
%TO.N,GND*%
X37020000Y-4000000D03*
%TD*%
D12*
%TO.P,IC1,1,Q1*%
%TO.N,/IOCACHE-128K_ZXspectrum/LOCAL_A1*%
X35000000Y-64380000D03*
D13*
%TO.P,IC1,2,Q2*%
%TO.N,/IOCACHE-128K_ZXspectrum/LOCAL_A2*%
X32460000Y-64380000D03*
%TO.P,IC1,3,Q3*%
%TO.N,/IOCACHE-128K_ZXspectrum/LOCAL_A3*%
X29920000Y-64380000D03*
%TO.P,IC1,4,Q4*%
%TO.N,/IOCACHE-128K_ZXspectrum/LOCAL_A4*%
X27380000Y-64380000D03*
%TO.P,IC1,5,Q5*%
%TO.N,/IOCACHE-128K_ZXspectrum/LOCAL_A5*%
X24840000Y-64380000D03*
%TO.P,IC1,6,Q6*%
%TO.N,/IOCACHE-128K_ZXspectrum/LOCAL_A6*%
X22300000Y-64380000D03*
%TO.P,IC1,7,Q7*%
%TO.N,/IOCACHE-128K_ZXspectrum/LOCAL_A7*%
X19760000Y-64380000D03*
%TO.P,IC1,8,GND*%
%TO.N,GND*%
X17220000Y-64380000D03*
%TO.P,IC1,9,~{RCO}*%
%TO.N,Net-(IC1-~{RCO})*%
X17220000Y-72000000D03*
%TO.P,IC1,10,~{MRC}*%
%TO.N,/IOCACHE-128K_ZXspectrum/Z80_HARDLOCK*%
X19760000Y-72000000D03*
%TO.P,IC1,11,CPC*%
%TO.N,/IOCACHE-128K_ZXspectrum/CACHE_CONTROL.DATASTATUS+PERM_Z80_IORQ*%
X22300000Y-72000000D03*
%TO.P,IC1,12,~{CE}*%
%TO.N,/IOCACHE-128K_ZXspectrum/CACHE_DATASTATUS*%
X24840000Y-72000000D03*
%TO.P,IC1,13,CPR*%
%TO.N,/IOCACHE-128K_ZXspectrum/CACHE_CONTROL.DATASTATUS+PERM_Z80_IORQ*%
X27380000Y-72000000D03*
%TO.P,IC1,14,~{OE}*%
%TO.N,/IOCACHE-128K_ZXspectrum/CACHE_DATASTATUS*%
X29920000Y-72000000D03*
%TO.P,IC1,15,Q0*%
%TO.N,/IOCACHE-128K_ZXspectrum/LOCAL_A0*%
X32460000Y-72000000D03*
%TO.P,IC1,16,VCC*%
%TO.N,+5V*%
X35000000Y-72000000D03*
%TD*%
D12*
%TO.P,IC2,1,Q1*%
%TO.N,/IOCACHE-128K_ZXspectrum/LOCAL_A9*%
X35000000Y-81380000D03*
D13*
%TO.P,IC2,2,Q2*%
%TO.N,/IOCACHE-128K_ZXspectrum/LOCAL_A10*%
X32460000Y-81380000D03*
%TO.P,IC2,3,Q3*%
%TO.N,/IOCACHE-128K_ZXspectrum/LOCAL_A11*%
X29920000Y-81380000D03*
%TO.P,IC2,4,Q4*%
%TO.N,unconnected-(IC2-Q4-Pad4)*%
X27380000Y-81380000D03*
%TO.P,IC2,5,Q5*%
%TO.N,unconnected-(IC2-Q5-Pad5)*%
X24840000Y-81380000D03*
%TO.P,IC2,6,Q6*%
%TO.N,unconnected-(IC2-Q6-Pad6)*%
X22300000Y-81380000D03*
%TO.P,IC2,7,Q7*%
%TO.N,unconnected-(IC2-Q7-Pad7)*%
X19760000Y-81380000D03*
%TO.P,IC2,8,GND*%
%TO.N,GND*%
X17220000Y-81380000D03*
%TO.P,IC2,9,~{RCO}*%
%TO.N,unconnected-(IC2-~{RCO}-Pad9)*%
X17220000Y-89000000D03*
%TO.P,IC2,10,~{MRC}*%
%TO.N,/IOCACHE-128K_ZXspectrum/Z80_HARDLOCK*%
X19760000Y-89000000D03*
%TO.P,IC2,11,CPC*%
%TO.N,Net-(IC1-~{RCO})*%
X22300000Y-89000000D03*
%TO.P,IC2,12,~{CE}*%
%TO.N,/IOCACHE-128K_ZXspectrum/CACHE_DATASTATUS*%
X24840000Y-89000000D03*
%TO.P,IC2,13,CPR*%
%TO.N,Net-(IC1-~{RCO})*%
X27380000Y-89000000D03*
%TO.P,IC2,14,~{OE}*%
%TO.N,/IOCACHE-128K_ZXspectrum/CACHE_DATASTATUS*%
X29920000Y-89000000D03*
%TO.P,IC2,15,Q0*%
%TO.N,/IOCACHE-128K_ZXspectrum/LOCAL_A8*%
X32460000Y-89000000D03*
%TO.P,IC2,16,VCC*%
%TO.N,+5V*%
X35000000Y-89000000D03*
%TD*%
D12*
%TO.P,CACHE1,1,NC*%
%TO.N,unconnected-(CACHE1-NC-Pad1)*%
X15760000Y-11900000D03*
D13*
%TO.P,CACHE1,2,A16*%
%TO.N,/IOCACHE-128K_ZXspectrum/CACHE_CONTROL.A16*%
X15760000Y-14440000D03*
%TO.P,CACHE1,3,A14*%
%TO.N,/IOCACHE-128K_ZXspectrum/CACHE_SEL_2*%
X15760000Y-16980000D03*
%TO.P,CACHE1,4,A12*%
%TO.N,/IOCACHE-128K_ZXspectrum/CACHE_SEL_0*%
X15760000Y-19520000D03*
%TO.P,CACHE1,5,A7*%
%TO.N,/IOCACHE-128K_ZXspectrum/LOCAL_A7*%
X15760000Y-22060000D03*
%TO.P,CACHE1,6,A6*%
%TO.N,/IOCACHE-128K_ZXspectrum/LOCAL_A6*%
X15760000Y-24600000D03*
%TO.P,CACHE1,7,A5*%
%TO.N,/IOCACHE-128K_ZXspectrum/LOCAL_A5*%
X15760000Y-27140000D03*
%TO.P,CACHE1,8,A4*%
%TO.N,/IOCACHE-128K_ZXspectrum/LOCAL_A4*%
X15760000Y-29680000D03*
%TO.P,CACHE1,9,A3*%
%TO.N,/IOCACHE-128K_ZXspectrum/LOCAL_A3*%
X15760000Y-32220000D03*
%TO.P,CACHE1,10,A2*%
%TO.N,/IOCACHE-128K_ZXspectrum/LOCAL_A2*%
X15760000Y-34760000D03*
%TO.P,CACHE1,11,A1*%
%TO.N,/IOCACHE-128K_ZXspectrum/LOCAL_A1*%
X15760000Y-37300000D03*
%TO.P,CACHE1,12,A0*%
%TO.N,/IOCACHE-128K_ZXspectrum/LOCAL_A0*%
X15760000Y-39840000D03*
%TO.P,CACHE1,13,DQ0*%
%TO.N,/IOCACHE-128K_ZXspectrum/LOCAL_D0*%
X15760000Y-42380000D03*
%TO.P,CACHE1,14,DQ1*%
%TO.N,/IOCACHE-128K_ZXspectrum/LOCAL_D1*%
X15760000Y-44920000D03*
%TO.P,CACHE1,15,DQ2*%
%TO.N,/IOCACHE-128K_ZXspectrum/LOCAL_D2*%
X15760000Y-47460000D03*
%TO.P,CACHE1,16,VSS*%
%TO.N,GND*%
X15760000Y-50000000D03*
%TO.P,CACHE1,17,DQ3*%
%TO.N,/IOCACHE-128K_ZXspectrum/LOCAL_D3*%
X31000000Y-50000000D03*
%TO.P,CACHE1,18,DQ4*%
%TO.N,/IOCACHE-128K_ZXspectrum/LOCAL_D4*%
X31000000Y-47460000D03*
%TO.P,CACHE1,19,DQ5*%
%TO.N,/IOCACHE-128K_ZXspectrum/LOCAL_D5*%
X31000000Y-44920000D03*
%TO.P,CACHE1,20,DQ6*%
%TO.N,/IOCACHE-128K_ZXspectrum/LOCAL_D6*%
X31000000Y-42380000D03*
%TO.P,CACHE1,21,DQ7*%
%TO.N,/IOCACHE-128K_ZXspectrum/LOCAL_D7*%
X31000000Y-39840000D03*
%TO.P,CACHE1,22,CE#*%
%TO.N,/IOCACHE-128K_ZXspectrum/CACHE_CONTROL.CS*%
X31000000Y-37300000D03*
%TO.P,CACHE1,23,A10*%
%TO.N,/IOCACHE-128K_ZXspectrum/LOCAL_A10*%
X31000000Y-34760000D03*
%TO.P,CACHE1,24,OE#*%
%TO.N,/IOCACHE-128K_ZXspectrum/CACHE_CONTROL.OE*%
X31000000Y-32220000D03*
%TO.P,CACHE1,25,A11*%
%TO.N,/IOCACHE-128K_ZXspectrum/LOCAL_A11*%
X31000000Y-29680000D03*
%TO.P,CACHE1,26,A9*%
%TO.N,/IOCACHE-128K_ZXspectrum/LOCAL_A9*%
X31000000Y-27140000D03*
%TO.P,CACHE1,27,A8*%
%TO.N,/IOCACHE-128K_ZXspectrum/LOCAL_A8*%
X31000000Y-24600000D03*
%TO.P,CACHE1,28,A13*%
%TO.N,/IOCACHE-128K_ZXspectrum/CACHE_SEL_1*%
X31000000Y-22060000D03*
%TO.P,CACHE1,29,WE#*%
%TO.N,/IOCACHE-128K_ZXspectrum/CACHE_CONTROL.WE*%
X31000000Y-19520000D03*
%TO.P,CACHE1,30,CE2#*%
%TO.N,/IOCACHE-128K_ZXspectrum/CACHE_CE2*%
X31000000Y-16980000D03*
%TO.P,CACHE1,31,A15*%
%TO.N,/IOCACHE-128K_ZXspectrum/CACHE_SEL_3*%
X31000000Y-14440000D03*
%TO.P,CACHE1,32,VCC*%
%TO.N,+5V*%
X31000000Y-11900000D03*
%TD*%
D14*
%TO.P,R1,1*%
%TO.N,/IOCACHE-128K_ZXspectrum/CACHE_CE2*%
X35000000Y-21080000D03*
D13*
%TO.P,R1,2*%
%TO.N,+5V*%
X35000000Y-10920000D03*
%TD*%
D10*
%TO.P,J2,1,Pin_1*%
%TO.N,/IOCACHE-128K_ZXspectrum/LOCAL_D0*%
X4000000Y-30000000D03*
D11*
%TO.P,J2,2,Pin_2*%
%TO.N,/IOCACHE-128K_ZXspectrum/LOCAL_D1*%
X4000000Y-32540000D03*
%TO.P,J2,3,Pin_3*%
%TO.N,/IOCACHE-128K_ZXspectrum/LOCAL_D2*%
X4000000Y-35080000D03*
%TO.P,J2,4,Pin_4*%
%TO.N,/IOCACHE-128K_ZXspectrum/LOCAL_D3*%
X4000000Y-37620000D03*
%TO.P,J2,5,Pin_5*%
%TO.N,/IOCACHE-128K_ZXspectrum/LOCAL_D4*%
X4000000Y-40160000D03*
%TO.P,J2,6,Pin_6*%
%TO.N,/IOCACHE-128K_ZXspectrum/LOCAL_D5*%
X4000000Y-42700000D03*
%TO.P,J2,7,Pin_7*%
%TO.N,/IOCACHE-128K_ZXspectrum/LOCAL_D6*%
X4000000Y-45240000D03*
%TO.P,J2,8,Pin_8*%
%TO.N,/IOCACHE-128K_ZXspectrum/LOCAL_D7*%
X4000000Y-47780000D03*
%TO.P,J2,9,Pin_9*%
%TO.N,/IOCACHE-128K_ZXspectrum/LOCAL_A0*%
X4000000Y-50320000D03*
%TO.P,J2,10,Pin_10*%
%TO.N,/IOCACHE-128K_ZXspectrum/LOCAL_A1*%
X4000000Y-52860000D03*
%TO.P,J2,11,Pin_11*%
%TO.N,/IOCACHE-128K_ZXspectrum/LOCAL_A2*%
X4000000Y-55400000D03*
%TO.P,J2,12,Pin_12*%
%TO.N,/IOCACHE-128K_ZXspectrum/LOCAL_A3*%
X4000000Y-57940000D03*
%TO.P,J2,13,Pin_13*%
%TO.N,/IOCACHE-128K_ZXspectrum/LOCAL_A4*%
X4000000Y-60480000D03*
%TO.P,J2,14,Pin_14*%
%TO.N,/IOCACHE-128K_ZXspectrum/LOCAL_A5*%
X4000000Y-63020000D03*
%TO.P,J2,15,Pin_15*%
%TO.N,/IOCACHE-128K_ZXspectrum/LOCAL_A6*%
X4000000Y-65560000D03*
%TO.P,J2,16,Pin_16*%
%TO.N,/IOCACHE-128K_ZXspectrum/LOCAL_A7*%
X4000000Y-68100000D03*
%TO.P,J2,17,Pin_17*%
%TO.N,/IOCACHE-128K_ZXspectrum/LOCAL_A8*%
X4000000Y-70640000D03*
%TO.P,J2,18,Pin_18*%
%TO.N,/IOCACHE-128K_ZXspectrum/LOCAL_A9*%
X4000000Y-73180000D03*
%TO.P,J2,19,Pin_19*%
%TO.N,/IOCACHE-128K_ZXspectrum/LOCAL_A10*%
X4000000Y-75720000D03*
%TO.P,J2,20,Pin_20*%
%TO.N,/IOCACHE-128K_ZXspectrum/LOCAL_A11*%
X4000000Y-78260000D03*
%TO.P,J2,21,Pin_21*%
%TO.N,/IOCACHE-128K_ZXspectrum/LOCAL_A12*%
X4000000Y-80800000D03*
%TO.P,J2,22,Pin_22*%
%TO.N,/IOCACHE-128K_ZXspectrum/LOCAL_A13*%
X4000000Y-83340000D03*
%TO.P,J2,23,Pin_23*%
%TO.N,/IOCACHE-128K_ZXspectrum/LOCAL_A14*%
X4000000Y-85880000D03*
%TO.P,J2,24,Pin_24*%
%TO.N,/IOCACHE-128K_ZXspectrum/LOCAL_A15*%
X4000000Y-88420000D03*
%TD*%
D15*
%TO.N,*%
X0Y0D03*
%TO.N,/IOCACHE-128K_ZXspectrum/CACHE_SEL_2*%
X25770000Y-12022000D03*
%TO.N,/IOCACHE-128K_ZXspectrum/CACHE_SEL_0*%
X21947200Y-14911700D03*
%TO.N,/IOCACHE-128K_ZXspectrum/LOCAL_A0*%
X32460000Y-67615400D03*
%TO.N,GND*%
X25892900Y-50227600D03*
X35542700Y-69836100D03*
%TO.N,/IOCACHE-128K_ZXspectrum/CACHE_CONTROL.CS*%
X20523800Y-18458900D03*
%TO.N,/IOCACHE-128K_ZXspectrum/LOCAL_A10*%
X11543900Y-72513000D03*
%TD*%
D16*
%TO.N,/IOCACHE-128K_ZXspectrum/CACHE_SEL_2*%
X22318100Y-12022000D02*
X25770000Y-12022000D01*
X15760000Y-16980000D02*
X17360100Y-16980000D01*
X17360100Y-16980000D02*
X22318100Y-12022000D01*
%TO.N,/IOCACHE-128K_ZXspectrum/CACHE_SEL_0*%
X15760000Y-19520000D02*
X17360100Y-19520000D01*
X21947200Y-14932900D02*
X21947200Y-14911700D01*
X17360100Y-19520000D02*
X21947200Y-14932900D01*
%TO.N,/IOCACHE-128K_ZXspectrum/LOCAL_A7*%
X19760000Y-64380000D02*
X16040000Y-68100000D01*
X4000000Y-68100000D02*
X5650100Y-68100000D01*
X16040000Y-68100000D02*
X5650100Y-68100000D01*
%TO.N,/IOCACHE-128K_ZXspectrum/LOCAL_A6*%
X5650100Y-65560000D02*
X8449700Y-62760400D01*
X8449700Y-62760400D02*
X20680400Y-62760400D01*
X4000000Y-65560000D02*
X5650100Y-65560000D01*
X20680400Y-62760400D02*
X22300000Y-64380000D01*
%TO.N,/IOCACHE-128K_ZXspectrum/LOCAL_A5*%
X24840000Y-64380000D02*
X22200800Y-61740800D01*
X22200800Y-61740800D02*
X6929300Y-61740800D01*
X6929300Y-61740800D02*
X5650100Y-63020000D01*
X4000000Y-63020000D02*
X5650100Y-63020000D01*
%TO.N,/IOCACHE-128K_ZXspectrum/LOCAL_A4*%
X5837600Y-60667500D02*
X23667500Y-60667500D01*
X23667500Y-60667500D02*
X27380000Y-64380000D01*
X5650100Y-60480000D02*
X5837600Y-60667500D01*
X4000000Y-60480000D02*
X5650100Y-60480000D01*
%TO.N,/IOCACHE-128K_ZXspectrum/LOCAL_A3*%
X7377500Y-59667400D02*
X25207400Y-59667400D01*
X4000000Y-57940000D02*
X5650100Y-57940000D01*
X25207400Y-59667400D02*
X29920000Y-64380000D01*
X5650100Y-57940000D02*
X7377500Y-59667400D01*
%TO.N,/IOCACHE-128K_ZXspectrum/LOCAL_A2*%
X5650100Y-55400000D02*
X8917400Y-58667300D01*
X8917400Y-58667300D02*
X26747300Y-58667300D01*
X26747300Y-58667300D02*
X32460000Y-64380000D01*
X4000000Y-55400000D02*
X5650100Y-55400000D01*
%TO.N,/IOCACHE-128K_ZXspectrum/LOCAL_A1*%
X10457300Y-57667200D02*
X28287200Y-57667200D01*
X4000000Y-52860000D02*
X5650100Y-52860000D01*
X5650100Y-52860000D02*
X10457300Y-57667200D01*
X28287200Y-57667200D02*
X35000000Y-64380000D01*
%TO.N,/IOCACHE-128K_ZXspectrum/LOCAL_A0*%
X30004900Y-56603000D02*
X36620700Y-63218800D01*
X4000000Y-50320000D02*
X5650100Y-50320000D01*
X36620700Y-63218800D02*
X36620700Y-65490800D01*
X5650100Y-50320000D02*
X11933100Y-56603000D01*
X34095200Y-65980200D02*
X32460000Y-67615400D01*
X11933100Y-56603000D02*
X30004900Y-56603000D01*
X36620700Y-65490800D02*
X36131300Y-65980200D01*
X36131300Y-65980200D02*
X34095200Y-65980200D01*
%TO.N,/IOCACHE-128K_ZXspectrum/LOCAL_D0*%
X9755400Y-35755400D02*
X4000000Y-30000000D01*
X15760000Y-42380000D02*
X9755400Y-36375400D01*
X9755400Y-36375400D02*
X9755400Y-35755400D01*
%TO.N,/IOCACHE-128K_ZXspectrum/LOCAL_D1*%
X15760000Y-44920000D02*
X9755400Y-38915400D01*
X9755400Y-38295400D02*
X4000000Y-32540000D01*
X9755400Y-38915400D02*
X9755400Y-38295400D01*
%TO.N,/IOCACHE-128K_ZXspectrum/LOCAL_D2*%
X15760000Y-47460000D02*
X5849700Y-37549700D01*
X5849700Y-36929700D02*
X4000000Y-35080000D01*
X5849700Y-37549700D02*
X5849700Y-36929700D01*
%TO.N,GND*%
X37020000Y-5650100D02*
X39711300Y-8341400D01*
X39711300Y-8341400D02*
X39711300Y-66659900D01*
X36535100Y-69836100D02*
X35542700Y-69836100D01*
X39711300Y-66659900D02*
X36535100Y-69836100D01*
X15760000Y-50000000D02*
X25665300Y-50000000D01*
X37020000Y-4000000D02*
X37020000Y-5650100D01*
X25665300Y-50000000D02*
X25892900Y-50227600D01*
%TO.N,/IOCACHE-128K_ZXspectrum/LOCAL_D3*%
X14159800Y-50697300D02*
X14159800Y-47779800D01*
X31000000Y-50000000D02*
X29399900Y-50000000D01*
X14159800Y-47779800D02*
X4000000Y-37620000D01*
X29399900Y-50000000D02*
X27798700Y-51601200D01*
X27798700Y-51601200D02*
X15063700Y-51601200D01*
X15063700Y-51601200D02*
X14159800Y-50697300D01*
%TO.N,/IOCACHE-128K_ZXspectrum/LOCAL_D4*%
X9426500Y-45586500D02*
X9426500Y-47413100D01*
X9426500Y-47413100D02*
X14615900Y-52602500D01*
X32620200Y-50675900D02*
X32620200Y-49080200D01*
X32620200Y-49080200D02*
X31000000Y-47460000D01*
X30693600Y-52602500D02*
X32620200Y-50675900D01*
X4000000Y-40160000D02*
X9426500Y-45586500D01*
X14615900Y-52602500D02*
X30693600Y-52602500D01*
%TO.N,/IOCACHE-128K_ZXspectrum/LOCAL_D5*%
X4524500Y-42700000D02*
X8426400Y-46601900D01*
X8426400Y-46601900D02*
X8426400Y-47827300D01*
X14201700Y-53602600D02*
X31107800Y-53602600D01*
X4000000Y-42700000D02*
X4524500Y-42700000D01*
X8426400Y-47827300D02*
X14201700Y-53602600D01*
X31107800Y-53602600D02*
X33620300Y-51090100D01*
X33620300Y-51090100D02*
X33620300Y-47540300D01*
X33620300Y-47540300D02*
X31000000Y-44920000D01*
%TO.N,/IOCACHE-128K_ZXspectrum/LOCAL_D6*%
X7426300Y-48241500D02*
X13787500Y-54602700D01*
X13787500Y-54602700D02*
X31522000Y-54602700D01*
X34620400Y-51504300D02*
X34620400Y-46000400D01*
X5650100Y-45240000D02*
X7426300Y-47016200D01*
X4000000Y-45240000D02*
X5650100Y-45240000D01*
X31522000Y-54602700D02*
X34620400Y-51504300D01*
X34620400Y-46000400D02*
X31000000Y-42380000D01*
X7426300Y-47016200D02*
X7426300Y-48241500D01*
%TO.N,/IOCACHE-128K_ZXspectrum/LOCAL_D7*%
X5650100Y-47780000D02*
X5650100Y-47879600D01*
X4000000Y-47780000D02*
X5650100Y-47780000D01*
X31936200Y-55602800D02*
X35620500Y-51918500D01*
X5650100Y-47879600D02*
X13373300Y-55602800D01*
X13373300Y-55602800D02*
X31936200Y-55602800D01*
X35620500Y-44460500D02*
X31000000Y-39840000D01*
X35620500Y-51918500D02*
X35620500Y-44460500D01*
%TO.N,/IOCACHE-128K_ZXspectrum/CACHE_CONTROL.CS*%
X31000000Y-37300000D02*
X20523800Y-26823800D01*
X20523800Y-26823800D02*
X20523800Y-18458900D01*
%TO.N,/IOCACHE-128K_ZXspectrum/LOCAL_A10*%
X22344300Y-68915500D02*
X33210300Y-68915500D01*
X37646500Y-41406500D02*
X31000000Y-34760000D01*
X13657100Y-70399800D02*
X20860000Y-70399800D01*
X28694200Y-77614200D02*
X32460000Y-81380000D01*
X34648400Y-67477400D02*
X36062700Y-67477400D01*
X20860000Y-70399800D02*
X22344300Y-68915500D01*
X33210300Y-68915500D02*
X34648400Y-67477400D01*
X4000000Y-75720000D02*
X5650100Y-75720000D01*
X37646500Y-65893600D02*
X37646500Y-41406500D01*
X11543900Y-72513000D02*
X13657100Y-70399800D01*
X5650100Y-75720000D02*
X7544300Y-77614200D01*
X36062700Y-67477400D02*
X37646500Y-65893600D01*
X7544300Y-77614200D02*
X28694200Y-77614200D01*
%TO.N,/IOCACHE-128K_ZXspectrum/CACHE_CONTROL.OE*%
X15283800Y-7663800D02*
X11620000Y-4000000D01*
X31000000Y-32220000D02*
X37677300Y-25542700D01*
X37677300Y-25542700D02*
X37677300Y-9841000D01*
X35500100Y-7663800D02*
X15283800Y-7663800D01*
X37677300Y-9841000D02*
X35500100Y-7663800D01*
%TO.N,/IOCACHE-128K_ZXspectrum/LOCAL_A11*%
X4000000Y-78260000D02*
X5650100Y-78260000D01*
X5650100Y-78260000D02*
X6004400Y-78614300D01*
X27154300Y-78614300D02*
X29920000Y-81380000D01*
X6004400Y-78614300D02*
X27154300Y-78614300D01*
%TO.N,/IOCACHE-128K_ZXspectrum/LOCAL_A9*%
X5650100Y-73180000D02*
X8084100Y-75614000D01*
X4000000Y-73180000D02*
X5650100Y-73180000D01*
X8084100Y-75614000D02*
X29234000Y-75614000D01*
X29234000Y-75614000D02*
X35000000Y-81380000D01*
%TO.N,/IOCACHE-128K_ZXspectrum/LOCAL_A8*%
X36600200Y-83259700D02*
X36600200Y-80247300D01*
X36600200Y-80247300D02*
X30966700Y-74613800D01*
X30966700Y-74613800D02*
X11608300Y-74613800D01*
X32460000Y-87399900D02*
X36600200Y-83259700D01*
X32460000Y-89000000D02*
X32460000Y-87399900D01*
X7634500Y-70640000D02*
X4000000Y-70640000D01*
X11608300Y-74613800D02*
X7634500Y-70640000D01*
%TO.N,/IOCACHE-128K_ZXspectrum/CACHE_CONTROL.WE*%
X36636000Y-10269600D02*
X35030400Y-8664000D01*
X36636000Y-13884000D02*
X36636000Y-10269600D01*
X31000000Y-19520000D02*
X36636000Y-13884000D01*
X13744000Y-8664000D02*
X9080000Y-4000000D01*
X35030400Y-8664000D02*
X13744000Y-8664000D01*
%TO.N,+5V*%
X35000000Y-73600100D02*
X37607200Y-76207300D01*
X35000000Y-89000000D02*
X35000000Y-87399900D01*
X31000000Y-11900000D02*
X32600100Y-11900000D01*
X27164000Y-9664100D02*
X29399900Y-11900000D01*
X8014000Y-9664100D02*
X27164000Y-9664100D01*
X4000000Y-5650100D02*
X8014000Y-9664100D01*
X31000000Y-11900000D02*
X29399900Y-11900000D01*
X32600100Y-11900000D02*
X32600100Y-11719800D01*
X4000000Y-4000000D02*
X4000000Y-5650100D01*
X35000000Y-72000000D02*
X35000000Y-73600100D01*
X35000000Y-10920000D02*
X33399900Y-10920000D01*
X37607200Y-84792700D02*
X35000000Y-87399900D01*
X37607200Y-76207300D02*
X37607200Y-84792700D01*
X32600100Y-11719800D02*
X33399900Y-10920000D01*
%TO.N,/IOCACHE-128K_ZXspectrum/CACHE_CONTROL.DATASTATUS+PERM_Z80_IORQ*%
X35062600Y-68477500D02*
X36476900Y-68477500D01*
X19210600Y-6510600D02*
X16700000Y-4000000D01*
X38680200Y-9363200D02*
X35827600Y-6510600D01*
X23906900Y-73606900D02*
X25773100Y-73606900D01*
X38680200Y-66274200D02*
X38680200Y-9363200D01*
X36476900Y-68477500D02*
X38680200Y-66274200D01*
X25773100Y-73606900D02*
X27380000Y-72000000D01*
X27380000Y-72000000D02*
X29464400Y-69915600D01*
X33624500Y-69915600D02*
X35062600Y-68477500D01*
X29464400Y-69915600D02*
X33624500Y-69915600D01*
X35827600Y-6510600D02*
X19210600Y-6510600D01*
X22300000Y-72000000D02*
X23906900Y-73606900D01*
%TD*%
M02*
