M48
; DRILL file {KiCad 7.0.2} date Sun 04 Jun 2023 09:28:32 BST
; FORMAT={-:-/ absolute / metric / decimal}
; #@! TF.CreationDate,2023-06-04T09:28:32+01:00
; #@! TF.GenerationSoftware,Kicad,Pcbnew,7.0.2
; #@! TF.FileFunction,Plated,1,2,PTH
FMAT,2
METRIC
; #@! TA.AperFunction,Plated,PTH,ViaDrill
T1C0.500
; #@! TA.AperFunction,Plated,PTH,ComponentDrill
T2C0.800
; #@! TA.AperFunction,Plated,PTH,ComponentDrill
T3C1.000
%
G90
G05
T1
X0.0Y0.0
X11.544Y-72.513
X20.524Y-18.459
X21.947Y-14.912
X25.77Y-12.022
X25.893Y-50.228
X32.46Y-67.615
X35.543Y-69.836
T2
X15.76Y-11.9
X15.76Y-14.44
X15.76Y-16.98
X15.76Y-19.52
X15.76Y-22.06
X15.76Y-24.6
X15.76Y-27.14
X15.76Y-29.68
X15.76Y-32.22
X15.76Y-34.76
X15.76Y-37.3
X15.76Y-39.84
X15.76Y-42.38
X15.76Y-44.92
X15.76Y-47.46
X15.76Y-50.0
X17.22Y-64.38
X17.22Y-72.0
X17.22Y-81.38
X17.22Y-89.0
X19.76Y-64.38
X19.76Y-72.0
X19.76Y-81.38
X19.76Y-89.0
X22.3Y-64.38
X22.3Y-72.0
X22.3Y-81.38
X22.3Y-89.0
X24.84Y-64.38
X24.84Y-72.0
X24.84Y-81.38
X24.84Y-89.0
X27.38Y-64.38
X27.38Y-72.0
X27.38Y-81.38
X27.38Y-89.0
X29.92Y-64.38
X29.92Y-72.0
X29.92Y-81.38
X29.92Y-89.0
X31.0Y-11.9
X31.0Y-14.44
X31.0Y-16.98
X31.0Y-19.52
X31.0Y-22.06
X31.0Y-24.6
X31.0Y-27.14
X31.0Y-29.68
X31.0Y-32.22
X31.0Y-34.76
X31.0Y-37.3
X31.0Y-39.84
X31.0Y-42.38
X31.0Y-44.92
X31.0Y-47.46
X31.0Y-50.0
X32.46Y-64.38
X32.46Y-72.0
X32.46Y-81.38
X32.46Y-89.0
X35.0Y-10.92
X35.0Y-21.08
X35.0Y-64.38
X35.0Y-72.0
X35.0Y-81.38
X35.0Y-89.0
T3
X4.0Y-4.0
X4.0Y-30.0
X4.0Y-32.54
X4.0Y-35.08
X4.0Y-37.62
X4.0Y-40.16
X4.0Y-42.7
X4.0Y-45.24
X4.0Y-47.78
X4.0Y-50.32
X4.0Y-52.86
X4.0Y-55.4
X4.0Y-57.94
X4.0Y-60.48
X4.0Y-63.02
X4.0Y-65.56
X4.0Y-68.1
X4.0Y-70.64
X4.0Y-73.18
X4.0Y-75.72
X4.0Y-78.26
X4.0Y-80.8
X4.0Y-83.34
X4.0Y-85.88
X4.0Y-88.42
X6.54Y-4.0
X9.08Y-4.0
X11.62Y-4.0
X14.16Y-4.0
X16.7Y-4.0
X19.24Y-4.0
X21.78Y-4.0
X24.32Y-4.0
X26.86Y-4.0
X29.4Y-4.0
X31.94Y-4.0
X34.48Y-4.0
X37.02Y-4.0
T0
M30
