%TF.GenerationSoftware,KiCad,Pcbnew,7.0.2*%
%TF.CreationDate,2023-06-04T12:35:09+01:00*%
%TF.ProjectId,IOCACHE-128K_ZXspectrum_impl_narrow,494f4341-4348-4452-9d31-32384b5f5a58,rev?*%
%TF.SameCoordinates,PX56c8cc0PY510ff40*%
%TF.FileFunction,Copper,L2,Bot*%
%TF.FilePolarity,Positive*%
%FSLAX46Y46*%
G04 Gerber Fmt 4.6, Leading zero omitted, Abs format (unit mm)*
G04 Created by KiCad (PCBNEW 7.0.2) date 2023-06-04 12:35:09*
%MOMM*%
%LPD*%
G01*
G04 APERTURE LIST*
%TA.AperFunction,ComponentPad*%
%ADD10R,1.700000X1.700000*%
%TD*%
%TA.AperFunction,ComponentPad*%
%ADD11O,1.700000X1.700000*%
%TD*%
%TA.AperFunction,ComponentPad*%
%ADD12R,1.600000X1.600000*%
%TD*%
%TA.AperFunction,ComponentPad*%
%ADD13O,1.600000X1.600000*%
%TD*%
%TA.AperFunction,ComponentPad*%
%ADD14C,1.600000*%
%TD*%
%TA.AperFunction,ViaPad*%
%ADD15C,1.000000*%
%TD*%
%TA.AperFunction,Conductor*%
%ADD16C,0.400000*%
%TD*%
G04 APERTURE END LIST*
D10*
%TO.P,J1,1,Pin_1*%
%TO.N,+5V*%
X4000000Y-41000000D03*
D11*
%TO.P,J1,2,Pin_2*%
%TO.N,/IOCACHE-128K_ZXspectrum/CACHE_CONTROL.A16*%
X4000000Y-38460000D03*
%TO.P,J1,3,Pin_3*%
%TO.N,/IOCACHE-128K_ZXspectrum/CACHE_CONTROL.WE*%
X4000000Y-35920000D03*
%TO.P,J1,4,Pin_4*%
%TO.N,/IOCACHE-128K_ZXspectrum/CACHE_CONTROL.OE*%
X4000000Y-33380000D03*
%TO.P,J1,5,Pin_5*%
%TO.N,/IOCACHE-128K_ZXspectrum/CACHE_CONTROL.CS*%
X4000000Y-30840000D03*
%TO.P,J1,6,Pin_6*%
%TO.N,/IOCACHE-128K_ZXspectrum/CACHE_CONTROL.DATASTATUS+PERM_Z80_IORQ*%
X4000000Y-28300000D03*
%TO.P,J1,7,Pin_7*%
%TO.N,/IOCACHE-128K_ZXspectrum/Z80_HARDLOCK*%
X4000000Y-25760000D03*
%TO.P,J1,8,Pin_8*%
%TO.N,/IOCACHE-128K_ZXspectrum/CACHE_SEL_0*%
X4000000Y-23220000D03*
%TO.P,J1,9,Pin_9*%
%TO.N,/IOCACHE-128K_ZXspectrum/CACHE_SEL_1*%
X4000000Y-20680000D03*
%TO.P,J1,10,Pin_10*%
%TO.N,/IOCACHE-128K_ZXspectrum/CACHE_SEL_2*%
X4000000Y-18140000D03*
%TO.P,J1,11,Pin_11*%
%TO.N,/IOCACHE-128K_ZXspectrum/CACHE_SEL_3*%
X4000000Y-15600000D03*
%TO.P,J1,12,Pin_12*%
%TO.N,/IOCACHE-128K_ZXspectrum/CACHE_DATASTATUS*%
X4000000Y-13060000D03*
%TO.P,J1,13,Pin_13*%
%TO.N,unconnected-(J1-Pin_13-Pad13)*%
X4000000Y-10520000D03*
%TO.P,J1,14,Pin_14*%
%TO.N,GND*%
X4000000Y-7980000D03*
%TD*%
D12*
%TO.P,IC1,1,Q1*%
%TO.N,/IOCACHE-128K_ZXspectrum/LOCAL_A1*%
X64380000Y-10000000D03*
D13*
%TO.P,IC1,2,Q2*%
%TO.N,/IOCACHE-128K_ZXspectrum/LOCAL_A2*%
X64380000Y-12540000D03*
%TO.P,IC1,3,Q3*%
%TO.N,/IOCACHE-128K_ZXspectrum/LOCAL_A3*%
X64380000Y-15080000D03*
%TO.P,IC1,4,Q4*%
%TO.N,/IOCACHE-128K_ZXspectrum/LOCAL_A4*%
X64380000Y-17620000D03*
%TO.P,IC1,5,Q5*%
%TO.N,/IOCACHE-128K_ZXspectrum/LOCAL_A5*%
X64380000Y-20160000D03*
%TO.P,IC1,6,Q6*%
%TO.N,/IOCACHE-128K_ZXspectrum/LOCAL_A6*%
X64380000Y-22700000D03*
%TO.P,IC1,7,Q7*%
%TO.N,/IOCACHE-128K_ZXspectrum/LOCAL_A7*%
X64380000Y-25240000D03*
%TO.P,IC1,8,GND*%
%TO.N,GND*%
X64380000Y-27780000D03*
%TO.P,IC1,9,~{RCO}*%
%TO.N,Net-(IC1-~{RCO})*%
X72000000Y-27780000D03*
%TO.P,IC1,10,~{MRC}*%
%TO.N,/IOCACHE-128K_ZXspectrum/Z80_HARDLOCK*%
X72000000Y-25240000D03*
%TO.P,IC1,11,CPC*%
%TO.N,/IOCACHE-128K_ZXspectrum/CACHE_CONTROL.DATASTATUS+PERM_Z80_IORQ*%
X72000000Y-22700000D03*
%TO.P,IC1,12,~{CE}*%
%TO.N,/IOCACHE-128K_ZXspectrum/CACHE_DATASTATUS*%
X72000000Y-20160000D03*
%TO.P,IC1,13,CPR*%
%TO.N,/IOCACHE-128K_ZXspectrum/CACHE_CONTROL.DATASTATUS+PERM_Z80_IORQ*%
X72000000Y-17620000D03*
%TO.P,IC1,14,~{OE}*%
%TO.N,/IOCACHE-128K_ZXspectrum/CACHE_DATASTATUS*%
X72000000Y-15080000D03*
%TO.P,IC1,15,Q0*%
%TO.N,/IOCACHE-128K_ZXspectrum/LOCAL_A0*%
X72000000Y-12540000D03*
%TO.P,IC1,16,VCC*%
%TO.N,+5V*%
X72000000Y-10000000D03*
%TD*%
D12*
%TO.P,IC2,1,Q1*%
%TO.N,/IOCACHE-128K_ZXspectrum/LOCAL_A9*%
X81380000Y-10000000D03*
D13*
%TO.P,IC2,2,Q2*%
%TO.N,/IOCACHE-128K_ZXspectrum/LOCAL_A10*%
X81380000Y-12540000D03*
%TO.P,IC2,3,Q3*%
%TO.N,/IOCACHE-128K_ZXspectrum/LOCAL_A11*%
X81380000Y-15080000D03*
%TO.P,IC2,4,Q4*%
%TO.N,unconnected-(IC2-Q4-Pad4)*%
X81380000Y-17620000D03*
%TO.P,IC2,5,Q5*%
%TO.N,unconnected-(IC2-Q5-Pad5)*%
X81380000Y-20160000D03*
%TO.P,IC2,6,Q6*%
%TO.N,unconnected-(IC2-Q6-Pad6)*%
X81380000Y-22700000D03*
%TO.P,IC2,7,Q7*%
%TO.N,unconnected-(IC2-Q7-Pad7)*%
X81380000Y-25240000D03*
%TO.P,IC2,8,GND*%
%TO.N,GND*%
X81380000Y-27780000D03*
%TO.P,IC2,9,~{RCO}*%
%TO.N,unconnected-(IC2-~{RCO}-Pad9)*%
X89000000Y-27780000D03*
%TO.P,IC2,10,~{MRC}*%
%TO.N,/IOCACHE-128K_ZXspectrum/Z80_HARDLOCK*%
X89000000Y-25240000D03*
%TO.P,IC2,11,CPC*%
%TO.N,Net-(IC1-~{RCO})*%
X89000000Y-22700000D03*
%TO.P,IC2,12,~{CE}*%
%TO.N,/IOCACHE-128K_ZXspectrum/CACHE_DATASTATUS*%
X89000000Y-20160000D03*
%TO.P,IC2,13,CPR*%
%TO.N,Net-(IC1-~{RCO})*%
X89000000Y-17620000D03*
%TO.P,IC2,14,~{OE}*%
%TO.N,/IOCACHE-128K_ZXspectrum/CACHE_DATASTATUS*%
X89000000Y-15080000D03*
%TO.P,IC2,15,Q0*%
%TO.N,/IOCACHE-128K_ZXspectrum/LOCAL_A8*%
X89000000Y-12540000D03*
%TO.P,IC2,16,VCC*%
%TO.N,+5V*%
X89000000Y-10000000D03*
%TD*%
D12*
%TO.P,CACHE1,1,NC*%
%TO.N,unconnected-(CACHE1-NC-Pad1)*%
X11900000Y-29240000D03*
D13*
%TO.P,CACHE1,2,A16*%
%TO.N,/IOCACHE-128K_ZXspectrum/CACHE_CONTROL.A16*%
X14440000Y-29240000D03*
%TO.P,CACHE1,3,A14*%
%TO.N,/IOCACHE-128K_ZXspectrum/CACHE_SEL_2*%
X16980000Y-29240000D03*
%TO.P,CACHE1,4,A12*%
%TO.N,/IOCACHE-128K_ZXspectrum/CACHE_SEL_0*%
X19520000Y-29240000D03*
%TO.P,CACHE1,5,A7*%
%TO.N,/IOCACHE-128K_ZXspectrum/LOCAL_A7*%
X22060000Y-29240000D03*
%TO.P,CACHE1,6,A6*%
%TO.N,/IOCACHE-128K_ZXspectrum/LOCAL_A6*%
X24600000Y-29240000D03*
%TO.P,CACHE1,7,A5*%
%TO.N,/IOCACHE-128K_ZXspectrum/LOCAL_A5*%
X27140000Y-29240000D03*
%TO.P,CACHE1,8,A4*%
%TO.N,/IOCACHE-128K_ZXspectrum/LOCAL_A4*%
X29680000Y-29240000D03*
%TO.P,CACHE1,9,A3*%
%TO.N,/IOCACHE-128K_ZXspectrum/LOCAL_A3*%
X32220000Y-29240000D03*
%TO.P,CACHE1,10,A2*%
%TO.N,/IOCACHE-128K_ZXspectrum/LOCAL_A2*%
X34760000Y-29240000D03*
%TO.P,CACHE1,11,A1*%
%TO.N,/IOCACHE-128K_ZXspectrum/LOCAL_A1*%
X37300000Y-29240000D03*
%TO.P,CACHE1,12,A0*%
%TO.N,/IOCACHE-128K_ZXspectrum/LOCAL_A0*%
X39840000Y-29240000D03*
%TO.P,CACHE1,13,DQ0*%
%TO.N,/IOCACHE-128K_ZXspectrum/LOCAL_D0*%
X42380000Y-29240000D03*
%TO.P,CACHE1,14,DQ1*%
%TO.N,/IOCACHE-128K_ZXspectrum/LOCAL_D1*%
X44920000Y-29240000D03*
%TO.P,CACHE1,15,DQ2*%
%TO.N,/IOCACHE-128K_ZXspectrum/LOCAL_D2*%
X47460000Y-29240000D03*
%TO.P,CACHE1,16,VSS*%
%TO.N,GND*%
X50000000Y-29240000D03*
%TO.P,CACHE1,17,DQ3*%
%TO.N,/IOCACHE-128K_ZXspectrum/LOCAL_D3*%
X50000000Y-14000000D03*
%TO.P,CACHE1,18,DQ4*%
%TO.N,/IOCACHE-128K_ZXspectrum/LOCAL_D4*%
X47460000Y-14000000D03*
%TO.P,CACHE1,19,DQ5*%
%TO.N,/IOCACHE-128K_ZXspectrum/LOCAL_D5*%
X44920000Y-14000000D03*
%TO.P,CACHE1,20,DQ6*%
%TO.N,/IOCACHE-128K_ZXspectrum/LOCAL_D6*%
X42380000Y-14000000D03*
%TO.P,CACHE1,21,DQ7*%
%TO.N,/IOCACHE-128K_ZXspectrum/LOCAL_D7*%
X39840000Y-14000000D03*
%TO.P,CACHE1,22,CE#*%
%TO.N,/IOCACHE-128K_ZXspectrum/CACHE_CONTROL.CS*%
X37300000Y-14000000D03*
%TO.P,CACHE1,23,A10*%
%TO.N,/IOCACHE-128K_ZXspectrum/LOCAL_A10*%
X34760000Y-14000000D03*
%TO.P,CACHE1,24,OE#*%
%TO.N,/IOCACHE-128K_ZXspectrum/CACHE_CONTROL.OE*%
X32220000Y-14000000D03*
%TO.P,CACHE1,25,A11*%
%TO.N,/IOCACHE-128K_ZXspectrum/LOCAL_A11*%
X29680000Y-14000000D03*
%TO.P,CACHE1,26,A9*%
%TO.N,/IOCACHE-128K_ZXspectrum/LOCAL_A9*%
X27140000Y-14000000D03*
%TO.P,CACHE1,27,A8*%
%TO.N,/IOCACHE-128K_ZXspectrum/LOCAL_A8*%
X24600000Y-14000000D03*
%TO.P,CACHE1,28,A13*%
%TO.N,/IOCACHE-128K_ZXspectrum/CACHE_SEL_1*%
X22060000Y-14000000D03*
%TO.P,CACHE1,29,WE#*%
%TO.N,/IOCACHE-128K_ZXspectrum/CACHE_CONTROL.WE*%
X19520000Y-14000000D03*
%TO.P,CACHE1,30,CE2#*%
%TO.N,/IOCACHE-128K_ZXspectrum/CACHE_CE2*%
X16980000Y-14000000D03*
%TO.P,CACHE1,31,A15*%
%TO.N,/IOCACHE-128K_ZXspectrum/CACHE_SEL_3*%
X14440000Y-14000000D03*
%TO.P,CACHE1,32,VCC*%
%TO.N,+5V*%
X11900000Y-14000000D03*
%TD*%
D14*
%TO.P,R1,1*%
%TO.N,/IOCACHE-128K_ZXspectrum/CACHE_CE2*%
X21080000Y-10000000D03*
D13*
%TO.P,R1,2*%
%TO.N,+5V*%
X10920000Y-10000000D03*
%TD*%
D10*
%TO.P,J2,1,Pin_1*%
%TO.N,/IOCACHE-128K_ZXspectrum/LOCAL_D0*%
X30000000Y-41000000D03*
D11*
%TO.P,J2,2,Pin_2*%
%TO.N,/IOCACHE-128K_ZXspectrum/LOCAL_D1*%
X32540000Y-41000000D03*
%TO.P,J2,3,Pin_3*%
%TO.N,/IOCACHE-128K_ZXspectrum/LOCAL_D2*%
X35080000Y-41000000D03*
%TO.P,J2,4,Pin_4*%
%TO.N,/IOCACHE-128K_ZXspectrum/LOCAL_D3*%
X37620000Y-41000000D03*
%TO.P,J2,5,Pin_5*%
%TO.N,/IOCACHE-128K_ZXspectrum/LOCAL_D4*%
X40160000Y-41000000D03*
%TO.P,J2,6,Pin_6*%
%TO.N,/IOCACHE-128K_ZXspectrum/LOCAL_D5*%
X42700000Y-41000000D03*
%TO.P,J2,7,Pin_7*%
%TO.N,/IOCACHE-128K_ZXspectrum/LOCAL_D6*%
X45240000Y-41000000D03*
%TO.P,J2,8,Pin_8*%
%TO.N,/IOCACHE-128K_ZXspectrum/LOCAL_D7*%
X47780000Y-41000000D03*
%TO.P,J2,9,Pin_9*%
%TO.N,/IOCACHE-128K_ZXspectrum/LOCAL_A0*%
X50320000Y-41000000D03*
%TO.P,J2,10,Pin_10*%
%TO.N,/IOCACHE-128K_ZXspectrum/LOCAL_A1*%
X52860000Y-41000000D03*
%TO.P,J2,11,Pin_11*%
%TO.N,/IOCACHE-128K_ZXspectrum/LOCAL_A2*%
X55400000Y-41000000D03*
%TO.P,J2,12,Pin_12*%
%TO.N,/IOCACHE-128K_ZXspectrum/LOCAL_A3*%
X57940000Y-41000000D03*
%TO.P,J2,13,Pin_13*%
%TO.N,/IOCACHE-128K_ZXspectrum/LOCAL_A4*%
X60480000Y-41000000D03*
%TO.P,J2,14,Pin_14*%
%TO.N,/IOCACHE-128K_ZXspectrum/LOCAL_A5*%
X63020000Y-41000000D03*
%TO.P,J2,15,Pin_15*%
%TO.N,/IOCACHE-128K_ZXspectrum/LOCAL_A6*%
X65560000Y-41000000D03*
%TO.P,J2,16,Pin_16*%
%TO.N,/IOCACHE-128K_ZXspectrum/LOCAL_A7*%
X68100000Y-41000000D03*
%TO.P,J2,17,Pin_17*%
%TO.N,/IOCACHE-128K_ZXspectrum/LOCAL_A8*%
X70640000Y-41000000D03*
%TO.P,J2,18,Pin_18*%
%TO.N,/IOCACHE-128K_ZXspectrum/LOCAL_A9*%
X73180000Y-41000000D03*
%TO.P,J2,19,Pin_19*%
%TO.N,/IOCACHE-128K_ZXspectrum/LOCAL_A10*%
X75720000Y-41000000D03*
%TO.P,J2,20,Pin_20*%
%TO.N,/IOCACHE-128K_ZXspectrum/LOCAL_A11*%
X78260000Y-41000000D03*
%TO.P,J2,21,Pin_21*%
%TO.N,/IOCACHE-128K_ZXspectrum/LOCAL_A12*%
X80800000Y-41000000D03*
%TO.P,J2,22,Pin_22*%
%TO.N,/IOCACHE-128K_ZXspectrum/LOCAL_A13*%
X83340000Y-41000000D03*
%TO.P,J2,23,Pin_23*%
%TO.N,/IOCACHE-128K_ZXspectrum/LOCAL_A14*%
X85880000Y-41000000D03*
%TO.P,J2,24,Pin_24*%
%TO.N,/IOCACHE-128K_ZXspectrum/LOCAL_A15*%
X88420000Y-41000000D03*
%TD*%
D15*
%TO.N,*%
X0Y0D03*
%TO.N,/IOCACHE-128K_ZXspectrum/CACHE_SEL_2*%
X12022000Y-19230000D03*
%TO.N,/IOCACHE-128K_ZXspectrum/CACHE_SEL_0*%
X14911700Y-23052800D03*
%TO.N,/IOCACHE-128K_ZXspectrum/LOCAL_A0*%
X67615400Y-12540000D03*
%TO.N,GND*%
X50227600Y-19107100D03*
X69836100Y-9457300D03*
%TO.N,/IOCACHE-128K_ZXspectrum/CACHE_CONTROL.CS*%
X18458900Y-24476200D03*
%TO.N,/IOCACHE-128K_ZXspectrum/LOCAL_A10*%
X72513000Y-33456100D03*
%TD*%
D16*
%TO.N,/IOCACHE-128K_ZXspectrum/CACHE_CONTROL.A16*%
X14440000Y-30840100D02*
X13270000Y-30840100D01*
X13270000Y-30840100D02*
X5650100Y-38460000D01*
X14440000Y-29240000D02*
X14440000Y-30840100D01*
X4000000Y-38460000D02*
X5650100Y-38460000D01*
%TO.N,/IOCACHE-128K_ZXspectrum/CACHE_SEL_2*%
X12022000Y-19230000D02*
X10932000Y-18140000D01*
X10932000Y-18140000D02*
X4000000Y-18140000D01*
%TO.N,/IOCACHE-128K_ZXspectrum/CACHE_SEL_0*%
X14744500Y-23220000D02*
X14911700Y-23052800D01*
X4000000Y-23220000D02*
X14744500Y-23220000D01*
%TO.N,/IOCACHE-128K_ZXspectrum/LOCAL_A7*%
X29865500Y-21434500D02*
X53165500Y-21434500D01*
X22060000Y-29240000D02*
X29865500Y-21434500D01*
X53165500Y-21434500D02*
X68100000Y-36369000D01*
X68100000Y-36369000D02*
X68100000Y-41000000D01*
%TO.N,/IOCACHE-128K_ZXspectrum/LOCAL_A6*%
X31405400Y-22434600D02*
X52751300Y-22434600D01*
X65560000Y-35243300D02*
X65560000Y-41000000D01*
X24600000Y-29240000D02*
X31405400Y-22434600D01*
X52751300Y-22434600D02*
X65560000Y-35243300D01*
%TO.N,/IOCACHE-128K_ZXspectrum/LOCAL_A5*%
X52337100Y-23434700D02*
X63020000Y-34117600D01*
X63020000Y-34117600D02*
X63020000Y-41000000D01*
X27140000Y-29240000D02*
X32945300Y-23434700D01*
X32945300Y-23434700D02*
X52337100Y-23434700D01*
%TO.N,/IOCACHE-128K_ZXspectrum/LOCAL_A4*%
X60480000Y-33030800D02*
X60480000Y-39349900D01*
X51935300Y-24486100D02*
X60480000Y-33030800D01*
X60480000Y-41000000D02*
X60480000Y-39349900D01*
X29680000Y-29240000D02*
X34433900Y-24486100D01*
X34433900Y-24486100D02*
X51935300Y-24486100D01*
%TO.N,/IOCACHE-128K_ZXspectrum/LOCAL_A3*%
X32220000Y-29240000D02*
X35912900Y-25547100D01*
X51507600Y-25547100D02*
X57940000Y-31979500D01*
X35912900Y-25547100D02*
X51507600Y-25547100D01*
X57940000Y-31979500D02*
X57940000Y-39349900D01*
X57940000Y-41000000D02*
X57940000Y-39349900D01*
%TO.N,/IOCACHE-128K_ZXspectrum/LOCAL_A2*%
X55400000Y-41000000D02*
X55400000Y-39349900D01*
X37428800Y-26571200D02*
X51080100Y-26571200D01*
X51080100Y-26571200D02*
X55400000Y-30891100D01*
X55400000Y-30891100D02*
X55400000Y-39349900D01*
X34760000Y-29240000D02*
X37428800Y-26571200D01*
%TO.N,/IOCACHE-128K_ZXspectrum/LOCAL_A1*%
X38923700Y-27616300D02*
X50680600Y-27616300D01*
X37300000Y-29240000D02*
X38923700Y-27616300D01*
X52860000Y-29795700D02*
X52860000Y-41000000D01*
X50680600Y-27616300D02*
X52860000Y-29795700D01*
%TO.N,/IOCACHE-128K_ZXspectrum/LOCAL_A0*%
X39840000Y-30840100D02*
X40160100Y-30840100D01*
X40160100Y-30840100D02*
X50320000Y-41000000D01*
X72000000Y-12540000D02*
X67615400Y-12540000D01*
X39840000Y-29240000D02*
X39840000Y-30840100D01*
%TO.N,GND*%
X54107000Y-19107100D02*
X62779900Y-27780000D01*
X68814900Y-9457300D02*
X66011500Y-12260700D01*
X70898100Y-8395300D02*
X69836100Y-9457300D01*
X66011500Y-12260700D02*
X66011500Y-26148500D01*
X66011500Y-26148500D02*
X64380000Y-27780000D01*
X69836100Y-9457300D02*
X68814900Y-9457300D01*
X64380000Y-27780000D02*
X62779900Y-27780000D01*
X72717300Y-8395300D02*
X70898100Y-8395300D01*
X50227600Y-19107100D02*
X54107000Y-19107100D01*
X81380000Y-27780000D02*
X75450000Y-21850000D01*
X75450000Y-21850000D02*
X75450000Y-11128000D01*
X75450000Y-11128000D02*
X72717300Y-8395300D01*
%TO.N,/IOCACHE-128K_ZXspectrum/CACHE_CONTROL.CS*%
X17458800Y-25476300D02*
X18458900Y-24476200D01*
X4000000Y-30840000D02*
X5650100Y-30840000D01*
X11013800Y-25476300D02*
X17458800Y-25476300D01*
X5650100Y-30840000D02*
X11013800Y-25476300D01*
%TO.N,/IOCACHE-128K_ZXspectrum/LOCAL_A10*%
X75720000Y-36663100D02*
X72513000Y-33456100D01*
X75720000Y-41000000D02*
X75720000Y-36663100D01*
%TO.N,/IOCACHE-128K_ZXspectrum/LOCAL_A11*%
X73135700Y-7375000D02*
X79779900Y-14019200D01*
X36305000Y-7375000D02*
X73135700Y-7375000D01*
X79779900Y-14019200D02*
X79779900Y-15080000D01*
X81380000Y-15080000D02*
X79779900Y-15080000D01*
X29680000Y-14000000D02*
X36305000Y-7375000D01*
%TO.N,/IOCACHE-128K_ZXspectrum/LOCAL_A9*%
X34785300Y-6354700D02*
X76134600Y-6354700D01*
X76134600Y-6354700D02*
X79779900Y-10000000D01*
X81380000Y-10000000D02*
X79779900Y-10000000D01*
X27140000Y-14000000D02*
X34785300Y-6354700D01*
%TO.N,/IOCACHE-128K_ZXspectrum/LOCAL_A8*%
X33251200Y-5348800D02*
X80208700Y-5348800D01*
X80208700Y-5348800D02*
X87399900Y-12540000D01*
X24600000Y-14000000D02*
X33251200Y-5348800D01*
X89000000Y-12540000D02*
X87399900Y-12540000D01*
%TO.N,/IOCACHE-128K_ZXspectrum/CACHE_SEL_1*%
X15380000Y-20680000D02*
X22060000Y-14000000D01*
X4000000Y-20680000D02*
X5650100Y-20680000D01*
X5650100Y-20680000D02*
X15380000Y-20680000D01*
%TO.N,/IOCACHE-128K_ZXspectrum/CACHE_CE2*%
X20980000Y-10000000D02*
X16980000Y-14000000D01*
X21080000Y-10000000D02*
X20980000Y-10000000D01*
%TO.N,/IOCACHE-128K_ZXspectrum/CACHE_SEL_3*%
X14440000Y-14000000D02*
X12839900Y-15600100D01*
X12839900Y-15600100D02*
X5650100Y-15600100D01*
X4000000Y-15600000D02*
X5650100Y-15600000D01*
X5650100Y-15600100D02*
X5650100Y-15600000D01*
%TO.N,+5V*%
X10920000Y-10000000D02*
X12520100Y-10000000D01*
X89000000Y-10000000D02*
X87399900Y-10000000D01*
X81746800Y-4346900D02*
X87399900Y-10000000D01*
X12520100Y-10000000D02*
X18173200Y-4346900D01*
X18173200Y-4346900D02*
X81746800Y-4346900D01*
%TO.N,Net-(IC1-~{RCO})*%
X87666700Y-31400000D02*
X77220100Y-31400000D01*
X90646000Y-21054000D02*
X89000000Y-22700000D01*
X89000000Y-17620000D02*
X90646000Y-19266000D01*
X77220100Y-31400000D02*
X73600100Y-27780000D01*
X89000000Y-22700000D02*
X90632200Y-24332200D01*
X90632200Y-28434500D02*
X87666700Y-31400000D01*
X90632200Y-24332200D02*
X90632200Y-28434500D01*
X72000000Y-27780000D02*
X73600100Y-27780000D01*
X90646000Y-19266000D02*
X90646000Y-21054000D01*
%TO.N,/IOCACHE-128K_ZXspectrum/Z80_HARDLOCK*%
X6934000Y-24476100D02*
X5650100Y-25760000D01*
X73600100Y-25240000D02*
X78740700Y-30380600D01*
X89000000Y-25240000D02*
X87399900Y-25240000D01*
X16268300Y-24476100D02*
X6934000Y-24476100D01*
X72000000Y-25240000D02*
X70399900Y-25240000D01*
X82479000Y-30380600D02*
X87399900Y-25459700D01*
X66235000Y-29404900D02*
X62990300Y-29404900D01*
X54019700Y-20434300D02*
X20310100Y-20434300D01*
X4000000Y-25760000D02*
X5650100Y-25760000D01*
X87399900Y-25459700D02*
X87399900Y-25240000D01*
X62990300Y-29404900D02*
X54019700Y-20434300D01*
X78740700Y-30380600D02*
X82479000Y-30380600D01*
X20310100Y-20434300D02*
X16268300Y-24476100D01*
X70399900Y-25240000D02*
X66235000Y-29404900D01*
X72000000Y-25240000D02*
X73600100Y-25240000D01*
%TO.N,/IOCACHE-128K_ZXspectrum/CACHE_DATASTATUS*%
X73600100Y-16680100D02*
X72000000Y-15080000D01*
X84579200Y-3282400D02*
X15342200Y-3282400D01*
X15342200Y-3282400D02*
X5650100Y-12974500D01*
X85579700Y-21980200D02*
X87399900Y-20160000D01*
X87399900Y-20160000D02*
X87399900Y-16680100D01*
X90601400Y-13478600D02*
X90601400Y-9304600D01*
X73600100Y-22302400D02*
X80678200Y-29380500D01*
X5650100Y-12974500D02*
X5650100Y-13060000D01*
X72000000Y-20160000D02*
X73600100Y-20160000D01*
X73600100Y-20160000D02*
X73600100Y-22302400D01*
X89000000Y-20160000D02*
X87399900Y-20160000D01*
X4000000Y-13060000D02*
X5650100Y-13060000D01*
X85579700Y-25864000D02*
X85579700Y-21980200D01*
X90601400Y-9304600D02*
X84579200Y-3282400D01*
X89000000Y-15080000D02*
X90601400Y-13478600D01*
X87399900Y-16680100D02*
X89000000Y-15080000D01*
X82063200Y-29380500D02*
X85579700Y-25864000D01*
X73600100Y-20160000D02*
X73600100Y-16680100D01*
X80678200Y-29380500D02*
X82063200Y-29380500D01*
%TD*%
M02*
