%TF.GenerationSoftware,KiCad,Pcbnew,7.0.2*%
%TF.CreationDate,2023-06-04T12:35:08+01:00*%
%TF.ProjectId,IOCACHE-128K_ZXspectrum_impl_narrow,494f4341-4348-4452-9d31-32384b5f5a58,rev?*%
%TF.SameCoordinates,PX56c8cc0PY510ff40*%
%TF.FileFunction,Copper,L1,Top*%
%TF.FilePolarity,Positive*%
%FSLAX46Y46*%
G04 Gerber Fmt 4.6, Leading zero omitted, Abs format (unit mm)*
G04 Created by KiCad (PCBNEW 7.0.2) date 2023-06-04 12:35:08*
%MOMM*%
%LPD*%
G01*
G04 APERTURE LIST*
%TA.AperFunction,ComponentPad*%
%ADD10R,1.700000X1.700000*%
%TD*%
%TA.AperFunction,ComponentPad*%
%ADD11O,1.700000X1.700000*%
%TD*%
%TA.AperFunction,ComponentPad*%
%ADD12R,1.600000X1.600000*%
%TD*%
%TA.AperFunction,ComponentPad*%
%ADD13O,1.600000X1.600000*%
%TD*%
%TA.AperFunction,ComponentPad*%
%ADD14C,1.600000*%
%TD*%
%TA.AperFunction,ViaPad*%
%ADD15C,1.000000*%
%TD*%
%TA.AperFunction,Conductor*%
%ADD16C,0.400000*%
%TD*%
G04 APERTURE END LIST*
D10*
%TO.P,J1,1,Pin_1*%
%TO.N,+5V*%
X4000000Y-41000000D03*
D11*
%TO.P,J1,2,Pin_2*%
%TO.N,/IOCACHE-128K_ZXspectrum/CACHE_CONTROL.A16*%
X4000000Y-38460000D03*
%TO.P,J1,3,Pin_3*%
%TO.N,/IOCACHE-128K_ZXspectrum/CACHE_CONTROL.WE*%
X4000000Y-35920000D03*
%TO.P,J1,4,Pin_4*%
%TO.N,/IOCACHE-128K_ZXspectrum/CACHE_CONTROL.OE*%
X4000000Y-33380000D03*
%TO.P,J1,5,Pin_5*%
%TO.N,/IOCACHE-128K_ZXspectrum/CACHE_CONTROL.CS*%
X4000000Y-30840000D03*
%TO.P,J1,6,Pin_6*%
%TO.N,/IOCACHE-128K_ZXspectrum/CACHE_CONTROL.DATASTATUS+PERM_Z80_IORQ*%
X4000000Y-28300000D03*
%TO.P,J1,7,Pin_7*%
%TO.N,/IOCACHE-128K_ZXspectrum/Z80_HARDLOCK*%
X4000000Y-25760000D03*
%TO.P,J1,8,Pin_8*%
%TO.N,/IOCACHE-128K_ZXspectrum/CACHE_SEL_0*%
X4000000Y-23220000D03*
%TO.P,J1,9,Pin_9*%
%TO.N,/IOCACHE-128K_ZXspectrum/CACHE_SEL_1*%
X4000000Y-20680000D03*
%TO.P,J1,10,Pin_10*%
%TO.N,/IOCACHE-128K_ZXspectrum/CACHE_SEL_2*%
X4000000Y-18140000D03*
%TO.P,J1,11,Pin_11*%
%TO.N,/IOCACHE-128K_ZXspectrum/CACHE_SEL_3*%
X4000000Y-15600000D03*
%TO.P,J1,12,Pin_12*%
%TO.N,/IOCACHE-128K_ZXspectrum/CACHE_DATASTATUS*%
X4000000Y-13060000D03*
%TO.P,J1,13,Pin_13*%
%TO.N,unconnected-(J1-Pin_13-Pad13)*%
X4000000Y-10520000D03*
%TO.P,J1,14,Pin_14*%
%TO.N,GND*%
X4000000Y-7980000D03*
%TD*%
D12*
%TO.P,IC1,1,Q1*%
%TO.N,/IOCACHE-128K_ZXspectrum/LOCAL_A1*%
X64380000Y-10000000D03*
D13*
%TO.P,IC1,2,Q2*%
%TO.N,/IOCACHE-128K_ZXspectrum/LOCAL_A2*%
X64380000Y-12540000D03*
%TO.P,IC1,3,Q3*%
%TO.N,/IOCACHE-128K_ZXspectrum/LOCAL_A3*%
X64380000Y-15080000D03*
%TO.P,IC1,4,Q4*%
%TO.N,/IOCACHE-128K_ZXspectrum/LOCAL_A4*%
X64380000Y-17620000D03*
%TO.P,IC1,5,Q5*%
%TO.N,/IOCACHE-128K_ZXspectrum/LOCAL_A5*%
X64380000Y-20160000D03*
%TO.P,IC1,6,Q6*%
%TO.N,/IOCACHE-128K_ZXspectrum/LOCAL_A6*%
X64380000Y-22700000D03*
%TO.P,IC1,7,Q7*%
%TO.N,/IOCACHE-128K_ZXspectrum/LOCAL_A7*%
X64380000Y-25240000D03*
%TO.P,IC1,8,GND*%
%TO.N,GND*%
X64380000Y-27780000D03*
%TO.P,IC1,9,~{RCO}*%
%TO.N,Net-(IC1-~{RCO})*%
X72000000Y-27780000D03*
%TO.P,IC1,10,~{MRC}*%
%TO.N,/IOCACHE-128K_ZXspectrum/Z80_HARDLOCK*%
X72000000Y-25240000D03*
%TO.P,IC1,11,CPC*%
%TO.N,/IOCACHE-128K_ZXspectrum/CACHE_CONTROL.DATASTATUS+PERM_Z80_IORQ*%
X72000000Y-22700000D03*
%TO.P,IC1,12,~{CE}*%
%TO.N,/IOCACHE-128K_ZXspectrum/CACHE_DATASTATUS*%
X72000000Y-20160000D03*
%TO.P,IC1,13,CPR*%
%TO.N,/IOCACHE-128K_ZXspectrum/CACHE_CONTROL.DATASTATUS+PERM_Z80_IORQ*%
X72000000Y-17620000D03*
%TO.P,IC1,14,~{OE}*%
%TO.N,/IOCACHE-128K_ZXspectrum/CACHE_DATASTATUS*%
X72000000Y-15080000D03*
%TO.P,IC1,15,Q0*%
%TO.N,/IOCACHE-128K_ZXspectrum/LOCAL_A0*%
X72000000Y-12540000D03*
%TO.P,IC1,16,VCC*%
%TO.N,+5V*%
X72000000Y-10000000D03*
%TD*%
D12*
%TO.P,IC2,1,Q1*%
%TO.N,/IOCACHE-128K_ZXspectrum/LOCAL_A9*%
X81380000Y-10000000D03*
D13*
%TO.P,IC2,2,Q2*%
%TO.N,/IOCACHE-128K_ZXspectrum/LOCAL_A10*%
X81380000Y-12540000D03*
%TO.P,IC2,3,Q3*%
%TO.N,/IOCACHE-128K_ZXspectrum/LOCAL_A11*%
X81380000Y-15080000D03*
%TO.P,IC2,4,Q4*%
%TO.N,unconnected-(IC2-Q4-Pad4)*%
X81380000Y-17620000D03*
%TO.P,IC2,5,Q5*%
%TO.N,unconnected-(IC2-Q5-Pad5)*%
X81380000Y-20160000D03*
%TO.P,IC2,6,Q6*%
%TO.N,unconnected-(IC2-Q6-Pad6)*%
X81380000Y-22700000D03*
%TO.P,IC2,7,Q7*%
%TO.N,unconnected-(IC2-Q7-Pad7)*%
X81380000Y-25240000D03*
%TO.P,IC2,8,GND*%
%TO.N,GND*%
X81380000Y-27780000D03*
%TO.P,IC2,9,~{RCO}*%
%TO.N,unconnected-(IC2-~{RCO}-Pad9)*%
X89000000Y-27780000D03*
%TO.P,IC2,10,~{MRC}*%
%TO.N,/IOCACHE-128K_ZXspectrum/Z80_HARDLOCK*%
X89000000Y-25240000D03*
%TO.P,IC2,11,CPC*%
%TO.N,Net-(IC1-~{RCO})*%
X89000000Y-22700000D03*
%TO.P,IC2,12,~{CE}*%
%TO.N,/IOCACHE-128K_ZXspectrum/CACHE_DATASTATUS*%
X89000000Y-20160000D03*
%TO.P,IC2,13,CPR*%
%TO.N,Net-(IC1-~{RCO})*%
X89000000Y-17620000D03*
%TO.P,IC2,14,~{OE}*%
%TO.N,/IOCACHE-128K_ZXspectrum/CACHE_DATASTATUS*%
X89000000Y-15080000D03*
%TO.P,IC2,15,Q0*%
%TO.N,/IOCACHE-128K_ZXspectrum/LOCAL_A8*%
X89000000Y-12540000D03*
%TO.P,IC2,16,VCC*%
%TO.N,+5V*%
X89000000Y-10000000D03*
%TD*%
D12*
%TO.P,CACHE1,1,NC*%
%TO.N,unconnected-(CACHE1-NC-Pad1)*%
X11900000Y-29240000D03*
D13*
%TO.P,CACHE1,2,A16*%
%TO.N,/IOCACHE-128K_ZXspectrum/CACHE_CONTROL.A16*%
X14440000Y-29240000D03*
%TO.P,CACHE1,3,A14*%
%TO.N,/IOCACHE-128K_ZXspectrum/CACHE_SEL_2*%
X16980000Y-29240000D03*
%TO.P,CACHE1,4,A12*%
%TO.N,/IOCACHE-128K_ZXspectrum/CACHE_SEL_0*%
X19520000Y-29240000D03*
%TO.P,CACHE1,5,A7*%
%TO.N,/IOCACHE-128K_ZXspectrum/LOCAL_A7*%
X22060000Y-29240000D03*
%TO.P,CACHE1,6,A6*%
%TO.N,/IOCACHE-128K_ZXspectrum/LOCAL_A6*%
X24600000Y-29240000D03*
%TO.P,CACHE1,7,A5*%
%TO.N,/IOCACHE-128K_ZXspectrum/LOCAL_A5*%
X27140000Y-29240000D03*
%TO.P,CACHE1,8,A4*%
%TO.N,/IOCACHE-128K_ZXspectrum/LOCAL_A4*%
X29680000Y-29240000D03*
%TO.P,CACHE1,9,A3*%
%TO.N,/IOCACHE-128K_ZXspectrum/LOCAL_A3*%
X32220000Y-29240000D03*
%TO.P,CACHE1,10,A2*%
%TO.N,/IOCACHE-128K_ZXspectrum/LOCAL_A2*%
X34760000Y-29240000D03*
%TO.P,CACHE1,11,A1*%
%TO.N,/IOCACHE-128K_ZXspectrum/LOCAL_A1*%
X37300000Y-29240000D03*
%TO.P,CACHE1,12,A0*%
%TO.N,/IOCACHE-128K_ZXspectrum/LOCAL_A0*%
X39840000Y-29240000D03*
%TO.P,CACHE1,13,DQ0*%
%TO.N,/IOCACHE-128K_ZXspectrum/LOCAL_D0*%
X42380000Y-29240000D03*
%TO.P,CACHE1,14,DQ1*%
%TO.N,/IOCACHE-128K_ZXspectrum/LOCAL_D1*%
X44920000Y-29240000D03*
%TO.P,CACHE1,15,DQ2*%
%TO.N,/IOCACHE-128K_ZXspectrum/LOCAL_D2*%
X47460000Y-29240000D03*
%TO.P,CACHE1,16,VSS*%
%TO.N,GND*%
X50000000Y-29240000D03*
%TO.P,CACHE1,17,DQ3*%
%TO.N,/IOCACHE-128K_ZXspectrum/LOCAL_D3*%
X50000000Y-14000000D03*
%TO.P,CACHE1,18,DQ4*%
%TO.N,/IOCACHE-128K_ZXspectrum/LOCAL_D4*%
X47460000Y-14000000D03*
%TO.P,CACHE1,19,DQ5*%
%TO.N,/IOCACHE-128K_ZXspectrum/LOCAL_D5*%
X44920000Y-14000000D03*
%TO.P,CACHE1,20,DQ6*%
%TO.N,/IOCACHE-128K_ZXspectrum/LOCAL_D6*%
X42380000Y-14000000D03*
%TO.P,CACHE1,21,DQ7*%
%TO.N,/IOCACHE-128K_ZXspectrum/LOCAL_D7*%
X39840000Y-14000000D03*
%TO.P,CACHE1,22,CE#*%
%TO.N,/IOCACHE-128K_ZXspectrum/CACHE_CONTROL.CS*%
X37300000Y-14000000D03*
%TO.P,CACHE1,23,A10*%
%TO.N,/IOCACHE-128K_ZXspectrum/LOCAL_A10*%
X34760000Y-14000000D03*
%TO.P,CACHE1,24,OE#*%
%TO.N,/IOCACHE-128K_ZXspectrum/CACHE_CONTROL.OE*%
X32220000Y-14000000D03*
%TO.P,CACHE1,25,A11*%
%TO.N,/IOCACHE-128K_ZXspectrum/LOCAL_A11*%
X29680000Y-14000000D03*
%TO.P,CACHE1,26,A9*%
%TO.N,/IOCACHE-128K_ZXspectrum/LOCAL_A9*%
X27140000Y-14000000D03*
%TO.P,CACHE1,27,A8*%
%TO.N,/IOCACHE-128K_ZXspectrum/LOCAL_A8*%
X24600000Y-14000000D03*
%TO.P,CACHE1,28,A13*%
%TO.N,/IOCACHE-128K_ZXspectrum/CACHE_SEL_1*%
X22060000Y-14000000D03*
%TO.P,CACHE1,29,WE#*%
%TO.N,/IOCACHE-128K_ZXspectrum/CACHE_CONTROL.WE*%
X19520000Y-14000000D03*
%TO.P,CACHE1,30,CE2#*%
%TO.N,/IOCACHE-128K_ZXspectrum/CACHE_CE2*%
X16980000Y-14000000D03*
%TO.P,CACHE1,31,A15*%
%TO.N,/IOCACHE-128K_ZXspectrum/CACHE_SEL_3*%
X14440000Y-14000000D03*
%TO.P,CACHE1,32,VCC*%
%TO.N,+5V*%
X11900000Y-14000000D03*
%TD*%
D14*
%TO.P,R1,1*%
%TO.N,/IOCACHE-128K_ZXspectrum/CACHE_CE2*%
X21080000Y-10000000D03*
D13*
%TO.P,R1,2*%
%TO.N,+5V*%
X10920000Y-10000000D03*
%TD*%
D10*
%TO.P,J2,1,Pin_1*%
%TO.N,/IOCACHE-128K_ZXspectrum/LOCAL_D0*%
X30000000Y-41000000D03*
D11*
%TO.P,J2,2,Pin_2*%
%TO.N,/IOCACHE-128K_ZXspectrum/LOCAL_D1*%
X32540000Y-41000000D03*
%TO.P,J2,3,Pin_3*%
%TO.N,/IOCACHE-128K_ZXspectrum/LOCAL_D2*%
X35080000Y-41000000D03*
%TO.P,J2,4,Pin_4*%
%TO.N,/IOCACHE-128K_ZXspectrum/LOCAL_D3*%
X37620000Y-41000000D03*
%TO.P,J2,5,Pin_5*%
%TO.N,/IOCACHE-128K_ZXspectrum/LOCAL_D4*%
X40160000Y-41000000D03*
%TO.P,J2,6,Pin_6*%
%TO.N,/IOCACHE-128K_ZXspectrum/LOCAL_D5*%
X42700000Y-41000000D03*
%TO.P,J2,7,Pin_7*%
%TO.N,/IOCACHE-128K_ZXspectrum/LOCAL_D6*%
X45240000Y-41000000D03*
%TO.P,J2,8,Pin_8*%
%TO.N,/IOCACHE-128K_ZXspectrum/LOCAL_D7*%
X47780000Y-41000000D03*
%TO.P,J2,9,Pin_9*%
%TO.N,/IOCACHE-128K_ZXspectrum/LOCAL_A0*%
X50320000Y-41000000D03*
%TO.P,J2,10,Pin_10*%
%TO.N,/IOCACHE-128K_ZXspectrum/LOCAL_A1*%
X52860000Y-41000000D03*
%TO.P,J2,11,Pin_11*%
%TO.N,/IOCACHE-128K_ZXspectrum/LOCAL_A2*%
X55400000Y-41000000D03*
%TO.P,J2,12,Pin_12*%
%TO.N,/IOCACHE-128K_ZXspectrum/LOCAL_A3*%
X57940000Y-41000000D03*
%TO.P,J2,13,Pin_13*%
%TO.N,/IOCACHE-128K_ZXspectrum/LOCAL_A4*%
X60480000Y-41000000D03*
%TO.P,J2,14,Pin_14*%
%TO.N,/IOCACHE-128K_ZXspectrum/LOCAL_A5*%
X63020000Y-41000000D03*
%TO.P,J2,15,Pin_15*%
%TO.N,/IOCACHE-128K_ZXspectrum/LOCAL_A6*%
X65560000Y-41000000D03*
%TO.P,J2,16,Pin_16*%
%TO.N,/IOCACHE-128K_ZXspectrum/LOCAL_A7*%
X68100000Y-41000000D03*
%TO.P,J2,17,Pin_17*%
%TO.N,/IOCACHE-128K_ZXspectrum/LOCAL_A8*%
X70640000Y-41000000D03*
%TO.P,J2,18,Pin_18*%
%TO.N,/IOCACHE-128K_ZXspectrum/LOCAL_A9*%
X73180000Y-41000000D03*
%TO.P,J2,19,Pin_19*%
%TO.N,/IOCACHE-128K_ZXspectrum/LOCAL_A10*%
X75720000Y-41000000D03*
%TO.P,J2,20,Pin_20*%
%TO.N,/IOCACHE-128K_ZXspectrum/LOCAL_A11*%
X78260000Y-41000000D03*
%TO.P,J2,21,Pin_21*%
%TO.N,/IOCACHE-128K_ZXspectrum/LOCAL_A12*%
X80800000Y-41000000D03*
%TO.P,J2,22,Pin_22*%
%TO.N,/IOCACHE-128K_ZXspectrum/LOCAL_A13*%
X83340000Y-41000000D03*
%TO.P,J2,23,Pin_23*%
%TO.N,/IOCACHE-128K_ZXspectrum/LOCAL_A14*%
X85880000Y-41000000D03*
%TO.P,J2,24,Pin_24*%
%TO.N,/IOCACHE-128K_ZXspectrum/LOCAL_A15*%
X88420000Y-41000000D03*
%TD*%
D15*
%TO.N,*%
X0Y0D03*
%TO.N,/IOCACHE-128K_ZXspectrum/CACHE_SEL_2*%
X12022000Y-19230000D03*
%TO.N,/IOCACHE-128K_ZXspectrum/CACHE_SEL_0*%
X14911700Y-23052800D03*
%TO.N,/IOCACHE-128K_ZXspectrum/LOCAL_A0*%
X67615400Y-12540000D03*
%TO.N,GND*%
X50227600Y-19107100D03*
X69836100Y-9457300D03*
%TO.N,/IOCACHE-128K_ZXspectrum/CACHE_CONTROL.CS*%
X18458900Y-24476200D03*
%TO.N,/IOCACHE-128K_ZXspectrum/LOCAL_A10*%
X72513000Y-33456100D03*
%TD*%
D16*
%TO.N,/IOCACHE-128K_ZXspectrum/CACHE_SEL_2*%
X12022000Y-22681900D02*
X12022000Y-19230000D01*
X16980000Y-29240000D02*
X16980000Y-27639900D01*
X16980000Y-27639900D02*
X12022000Y-22681900D01*
%TO.N,/IOCACHE-128K_ZXspectrum/CACHE_SEL_0*%
X19520000Y-29240000D02*
X19520000Y-27639900D01*
X14932900Y-23052800D02*
X14911700Y-23052800D01*
X19520000Y-27639900D02*
X14932900Y-23052800D01*
%TO.N,/IOCACHE-128K_ZXspectrum/LOCAL_A7*%
X64380000Y-25240000D02*
X68100000Y-28960000D01*
X68100000Y-41000000D02*
X68100000Y-39349900D01*
X68100000Y-28960000D02*
X68100000Y-39349900D01*
%TO.N,/IOCACHE-128K_ZXspectrum/LOCAL_A6*%
X65560000Y-39349900D02*
X62760400Y-36550300D01*
X62760400Y-36550300D02*
X62760400Y-24319600D01*
X65560000Y-41000000D02*
X65560000Y-39349900D01*
X62760400Y-24319600D02*
X64380000Y-22700000D01*
%TO.N,/IOCACHE-128K_ZXspectrum/LOCAL_A5*%
X64380000Y-20160000D02*
X61740800Y-22799200D01*
X61740800Y-22799200D02*
X61740800Y-38070700D01*
X61740800Y-38070700D02*
X63020000Y-39349900D01*
X63020000Y-41000000D02*
X63020000Y-39349900D01*
%TO.N,/IOCACHE-128K_ZXspectrum/LOCAL_A4*%
X60667500Y-39162400D02*
X60667500Y-21332500D01*
X60667500Y-21332500D02*
X64380000Y-17620000D01*
X60480000Y-39349900D02*
X60667500Y-39162400D01*
X60480000Y-41000000D02*
X60480000Y-39349900D01*
%TO.N,/IOCACHE-128K_ZXspectrum/LOCAL_A3*%
X59667400Y-37622500D02*
X59667400Y-19792600D01*
X57940000Y-41000000D02*
X57940000Y-39349900D01*
X59667400Y-19792600D02*
X64380000Y-15080000D01*
X57940000Y-39349900D02*
X59667400Y-37622500D01*
%TO.N,/IOCACHE-128K_ZXspectrum/LOCAL_A2*%
X55400000Y-39349900D02*
X58667300Y-36082600D01*
X58667300Y-36082600D02*
X58667300Y-18252700D01*
X58667300Y-18252700D02*
X64380000Y-12540000D01*
X55400000Y-41000000D02*
X55400000Y-39349900D01*
%TO.N,/IOCACHE-128K_ZXspectrum/LOCAL_A1*%
X57667200Y-34542700D02*
X57667200Y-16712800D01*
X52860000Y-41000000D02*
X52860000Y-39349900D01*
X52860000Y-39349900D02*
X57667200Y-34542700D01*
X57667200Y-16712800D02*
X64380000Y-10000000D01*
%TO.N,/IOCACHE-128K_ZXspectrum/LOCAL_A0*%
X56603000Y-14995100D02*
X63218800Y-8379300D01*
X50320000Y-41000000D02*
X50320000Y-39349900D01*
X63218800Y-8379300D02*
X65490800Y-8379300D01*
X50320000Y-39349900D02*
X56603000Y-33066900D01*
X65980200Y-10904800D02*
X67615400Y-12540000D01*
X56603000Y-33066900D02*
X56603000Y-14995100D01*
X65490800Y-8379300D02*
X65980200Y-8868700D01*
X65980200Y-8868700D02*
X65980200Y-10904800D01*
%TO.N,/IOCACHE-128K_ZXspectrum/LOCAL_D0*%
X35755400Y-35244600D02*
X30000000Y-41000000D01*
X42380000Y-29240000D02*
X36375400Y-35244600D01*
X36375400Y-35244600D02*
X35755400Y-35244600D01*
%TO.N,/IOCACHE-128K_ZXspectrum/LOCAL_D1*%
X44920000Y-29240000D02*
X38915400Y-35244600D01*
X38295400Y-35244600D02*
X32540000Y-41000000D01*
X38915400Y-35244600D02*
X38295400Y-35244600D01*
%TO.N,/IOCACHE-128K_ZXspectrum/LOCAL_D2*%
X47460000Y-29240000D02*
X37549700Y-39150300D01*
X36929700Y-39150300D02*
X35080000Y-41000000D01*
X37549700Y-39150300D02*
X36929700Y-39150300D01*
%TO.N,GND*%
X5650100Y-7980000D02*
X8341400Y-5288700D01*
X8341400Y-5288700D02*
X66659900Y-5288700D01*
X69836100Y-8464900D02*
X69836100Y-9457300D01*
X66659900Y-5288700D02*
X69836100Y-8464900D01*
X50000000Y-29240000D02*
X50000000Y-19334700D01*
X4000000Y-7980000D02*
X5650100Y-7980000D01*
X50000000Y-19334700D02*
X50227600Y-19107100D01*
%TO.N,/IOCACHE-128K_ZXspectrum/LOCAL_D3*%
X50697300Y-30840200D02*
X47779800Y-30840200D01*
X50000000Y-14000000D02*
X50000000Y-15600100D01*
X47779800Y-30840200D02*
X37620000Y-41000000D01*
X50000000Y-15600100D02*
X51601200Y-17201300D01*
X51601200Y-17201300D02*
X51601200Y-29936300D01*
X51601200Y-29936300D02*
X50697300Y-30840200D01*
%TO.N,/IOCACHE-128K_ZXspectrum/LOCAL_D4*%
X45586500Y-35573500D02*
X47413100Y-35573500D01*
X47413100Y-35573500D02*
X52602500Y-30384100D01*
X50675900Y-12379800D02*
X49080200Y-12379800D01*
X49080200Y-12379800D02*
X47460000Y-14000000D01*
X52602500Y-14306400D02*
X50675900Y-12379800D01*
X40160000Y-41000000D02*
X45586500Y-35573500D01*
X52602500Y-30384100D02*
X52602500Y-14306400D01*
%TO.N,/IOCACHE-128K_ZXspectrum/LOCAL_D5*%
X42700000Y-40475500D02*
X46601900Y-36573600D01*
X46601900Y-36573600D02*
X47827300Y-36573600D01*
X53602600Y-30798300D02*
X53602600Y-13892200D01*
X42700000Y-41000000D02*
X42700000Y-40475500D01*
X47827300Y-36573600D02*
X53602600Y-30798300D01*
X53602600Y-13892200D02*
X51090100Y-11379700D01*
X51090100Y-11379700D02*
X47540300Y-11379700D01*
X47540300Y-11379700D02*
X44920000Y-14000000D01*
%TO.N,/IOCACHE-128K_ZXspectrum/LOCAL_D6*%
X48241500Y-37573700D02*
X54602700Y-31212500D01*
X54602700Y-31212500D02*
X54602700Y-13478000D01*
X51504300Y-10379600D02*
X46000400Y-10379600D01*
X45240000Y-39349900D02*
X47016200Y-37573700D01*
X45240000Y-41000000D02*
X45240000Y-39349900D01*
X54602700Y-13478000D02*
X51504300Y-10379600D01*
X46000400Y-10379600D02*
X42380000Y-14000000D01*
X47016200Y-37573700D02*
X48241500Y-37573700D01*
%TO.N,/IOCACHE-128K_ZXspectrum/LOCAL_D7*%
X47780000Y-39349900D02*
X47879600Y-39349900D01*
X47780000Y-41000000D02*
X47780000Y-39349900D01*
X55602800Y-13063800D02*
X51918500Y-9379500D01*
X47879600Y-39349900D02*
X55602800Y-31626700D01*
X55602800Y-31626700D02*
X55602800Y-13063800D01*
X44460500Y-9379500D02*
X39840000Y-14000000D01*
X51918500Y-9379500D02*
X44460500Y-9379500D01*
%TO.N,/IOCACHE-128K_ZXspectrum/CACHE_CONTROL.CS*%
X37300000Y-14000000D02*
X26823800Y-24476200D01*
X26823800Y-24476200D02*
X18458900Y-24476200D01*
%TO.N,/IOCACHE-128K_ZXspectrum/LOCAL_A10*%
X68915500Y-22655700D02*
X68915500Y-11789700D01*
X41406500Y-7353500D02*
X34760000Y-14000000D01*
X70399800Y-31342900D02*
X70399800Y-24140000D01*
X77614200Y-16305800D02*
X81380000Y-12540000D01*
X67477400Y-10351600D02*
X67477400Y-8937300D01*
X70399800Y-24140000D02*
X68915500Y-22655700D01*
X68915500Y-11789700D02*
X67477400Y-10351600D01*
X75720000Y-41000000D02*
X75720000Y-39349900D01*
X65893600Y-7353500D02*
X41406500Y-7353500D01*
X72513000Y-33456100D02*
X70399800Y-31342900D01*
X75720000Y-39349900D02*
X77614200Y-37455700D01*
X67477400Y-8937300D02*
X65893600Y-7353500D01*
X77614200Y-37455700D02*
X77614200Y-16305800D01*
%TO.N,/IOCACHE-128K_ZXspectrum/CACHE_CONTROL.OE*%
X7663800Y-29716200D02*
X4000000Y-33380000D01*
X32220000Y-14000000D02*
X25542700Y-7322700D01*
X25542700Y-7322700D02*
X9841000Y-7322700D01*
X7663800Y-9499900D02*
X7663800Y-29716200D01*
X9841000Y-7322700D02*
X7663800Y-9499900D01*
%TO.N,/IOCACHE-128K_ZXspectrum/LOCAL_A11*%
X78260000Y-41000000D02*
X78260000Y-39349900D01*
X78260000Y-39349900D02*
X78614300Y-38995600D01*
X78614300Y-17845700D02*
X81380000Y-15080000D01*
X78614300Y-38995600D02*
X78614300Y-17845700D01*
%TO.N,/IOCACHE-128K_ZXspectrum/LOCAL_A9*%
X73180000Y-39349900D02*
X75614000Y-36915900D01*
X73180000Y-41000000D02*
X73180000Y-39349900D01*
X75614000Y-36915900D02*
X75614000Y-15766000D01*
X75614000Y-15766000D02*
X81380000Y-10000000D01*
%TO.N,/IOCACHE-128K_ZXspectrum/LOCAL_A8*%
X83259700Y-8399800D02*
X80247300Y-8399800D01*
X80247300Y-8399800D02*
X74613800Y-14033300D01*
X74613800Y-14033300D02*
X74613800Y-33391700D01*
X87399900Y-12540000D02*
X83259700Y-8399800D01*
X89000000Y-12540000D02*
X87399900Y-12540000D01*
X70640000Y-37365500D02*
X70640000Y-41000000D01*
X74613800Y-33391700D02*
X70640000Y-37365500D01*
%TO.N,/IOCACHE-128K_ZXspectrum/CACHE_CONTROL.WE*%
X10269600Y-8364000D02*
X8664000Y-9969600D01*
X13884000Y-8364000D02*
X10269600Y-8364000D01*
X19520000Y-14000000D02*
X13884000Y-8364000D01*
X8664000Y-31256000D02*
X4000000Y-35920000D01*
X8664000Y-9969600D02*
X8664000Y-31256000D01*
%TO.N,+5V*%
X73600100Y-10000000D02*
X76207300Y-7392800D01*
X89000000Y-10000000D02*
X87399900Y-10000000D01*
X11900000Y-14000000D02*
X11900000Y-12399900D01*
X9664100Y-17836000D02*
X11900000Y-15600100D01*
X9664100Y-36986000D02*
X9664100Y-17836000D01*
X5650100Y-41000000D02*
X9664100Y-36986000D01*
X11900000Y-14000000D02*
X11900000Y-15600100D01*
X11900000Y-12399900D02*
X11719800Y-12399900D01*
X4000000Y-41000000D02*
X5650100Y-41000000D01*
X72000000Y-10000000D02*
X73600100Y-10000000D01*
X10920000Y-10000000D02*
X10920000Y-11600100D01*
X84792700Y-7392800D02*
X87399900Y-10000000D01*
X76207300Y-7392800D02*
X84792700Y-7392800D01*
X11719800Y-12399900D02*
X10920000Y-11600100D01*
%TO.N,/IOCACHE-128K_ZXspectrum/CACHE_CONTROL.DATASTATUS+PERM_Z80_IORQ*%
X68477500Y-9937400D02*
X68477500Y-8523100D01*
X6510600Y-25789400D02*
X4000000Y-28300000D01*
X9363200Y-6319800D02*
X6510600Y-9172400D01*
X73606900Y-21093100D02*
X73606900Y-19226900D01*
X66274200Y-6319800D02*
X9363200Y-6319800D01*
X68477500Y-8523100D02*
X66274200Y-6319800D01*
X73606900Y-19226900D02*
X72000000Y-17620000D01*
X72000000Y-17620000D02*
X69915600Y-15535600D01*
X69915600Y-11375500D02*
X68477500Y-9937400D01*
X69915600Y-15535600D02*
X69915600Y-11375500D01*
X6510600Y-9172400D02*
X6510600Y-25789400D01*
X72000000Y-22700000D02*
X73606900Y-21093100D01*
%TD*%
M02*
