<?xml version="1.0" standalone="no"?>
<!DOCTYPE svg PUBLIC "-//W3C//DTD SVG 1.1//EN"
"http://www.w3.org/Graphics/SVG/1.1/DTD/svg11.dtd">
<svg width="771.213" height="506.646" viewBox="0 0 16066.9 10555.1" version="1.1"
xmlns="http://www.w3.org/2000/svg"
xmlns:xlink="http://www.w3.org/1999/xlink">
<polyline points="76.7728,10395.7 78.3608,10411.8 83.0668,10427.3 90.7068,10441.6 100.989,10454.1 113.517,10464.4 127.811,10472.1 143.321,10476.8 159.449,10478.3 15907.5,10478.3 15923.6,10476.8 15939.1,10472.1 15953.4,10464.4 15965.9,10454.1 15976.2,10441.6 15983.9,10427.3 15988.6,10411.8 15990.2,10395.7 15990.2,159.449 15988.6,143.321 15983.9,127.811 15976.2,113.517 15965.9,100.989 15953.4,90.7068 15939.1,83.0668 15923.6,78.3608 15907.5,76.7728 159.449,76.7728 143.321,78.3608 127.811,83.0668 113.517,90.7068 100.989,100.989 90.7068,113.517 83.0668,127.811 78.3608,143.321 76.7728,159.449 76.7728,10395.7" style="stroke:rgb(103,198,105);stroke-width:157.480315;fill:none;stroke-opacity:0.5;stroke-linecap:round;stroke-linejoin:round;;fill:none"/>
<polyline points="76.7728,10395.7 78.3608,10411.8 83.0668,10427.3 90.7068,10441.6 100.989,10454.1 113.517,10464.4 127.811,10472.1 143.321,10476.8 159.449,10478.3 15907.5,10478.3 15923.6,10476.8 15939.1,10472.1 15953.4,10464.4 15965.9,10454.1 15976.2,10441.6 15983.9,10427.3 15988.6,10411.8 15990.2,10395.7 15990.2,159.449 15988.6,143.321 15983.9,127.811 15976.2,113.517 15965.9,100.989 15953.4,90.7068 15939.1,83.0668 15923.6,78.3608 15907.5,76.7728 159.449,76.7728 143.321,78.3608 127.811,83.0668 113.517,90.7068 100.989,100.989 90.7068,113.517 83.0668,127.811 78.3608,143.321 76.7728,159.449 76.7728,10395.7" style="stroke:rgb(0,0,0);stroke-width:1px;fill:none;stroke-opacity:1;stroke-linecap:round;stroke-linejoin:round;;fill:none"/>
</svg>
