M48
; DRILL file {KiCad 7.0.2} date Sun 21 May 2023 12:10:31 BST
; FORMAT={-:-/ absolute / metric / decimal}
; #@! TF.CreationDate,2023-05-21T12:10:31+01:00
; #@! TF.GenerationSoftware,Kicad,Pcbnew,7.0.2
; #@! TF.FileFunction,Plated,1,2,PTH
FMAT,2
METRIC
; #@! TA.AperFunction,Plated,PTH,ViaDrill
T1C0.500
; #@! TA.AperFunction,Plated,PTH,ComponentDrill
T2C0.800
; #@! TA.AperFunction,Plated,PTH,ComponentDrill
T3C0.900
; #@! TA.AperFunction,Plated,PTH,ComponentDrill
T4C1.000
%
G90
G05
T1
X65.128Y-133.604
X65.186Y-138.457
X66.83Y-94.342
X68.253Y-85.308
X68.325Y-64.841
X69.436Y-139.475
X69.509Y-80.43
X70.072Y-78.184
X72.046Y-109.295
X73.303Y-114.053
X75.244Y-71.72
X80.295Y-141.935
X82.052Y-80.698
X82.578Y-101.687
X85.89Y-64.176
X87.539Y-65.403
X88.052Y-55.896
X88.789Y-66.653
X89.37Y-34.568
X91.382Y-150.288
X94.101Y-107.927
X94.667Y-60.211
X95.966Y-127.24
X96.742Y-80.698
X97.658Y-151.757
X98.387Y-122.125
X98.929Y-104.141
X101.027Y-95.796
X101.143Y-109.171
X101.175Y-122.843
X102.011Y-125.67
X102.283Y-142.827
X103.951Y-127.786
X105.98Y-60.424
X106.254Y-138.939
X106.716Y-119.736
X106.82Y-55.12
X106.868Y-108.418
X107.15Y-116.769
X107.852Y-88.426
X107.859Y-89.926
X107.922Y-62.398
X108.353Y-112.718
X108.853Y-86.926
X109.845Y-72.456
X109.853Y-84.425
X110.086Y-93.568
X110.206Y-45.642
X110.33Y-63.309
X110.515Y-104.141
X110.606Y-83.057
X111.683Y-70.618
X112.095Y-88.643
X112.188Y-52.115
X112.353Y-85.676
X113.037Y-75.725
X113.074Y-74.035
X113.593Y-95.13
X114.328Y-77.059
X115.368Y-49.067
X116.207Y-126.689
X116.993Y-98.429
X118.754Y-47.217
X120.434Y-122.413
X120.659Y-144.109
X121.988Y-101.214
X122.443Y-147.318
X123.814Y-73.768
X124.862Y-151.492
X126.05Y-54.46
X126.708Y-119.922
X129.641Y-52.025
X129.872Y-121.232
X131.269Y-66.991
X134.038Y-129.998
X136.07Y-80.415
X136.408Y-36.287
X137.401Y-88.909
X137.527Y-38.18
X140.425Y-77.161
X140.77Y-134.703
X142.528Y-146.257
X142.559Y-79.143
X143.203Y-43.323
X143.519Y-133.853
X143.776Y-86.637
X144.468Y-148.207
X144.519Y-132.449
X144.61Y-68.043
X144.624Y-51.598
X144.625Y-113.098
X144.768Y-145.257
X144.934Y-102.28
X145.145Y-128.126
X145.396Y-138.831
X145.934Y-108.248
X145.934Y-117.52
X146.563Y-153.911
X147.945Y-144.29
X148.512Y-155.86
X148.835Y-94.465
X148.995Y-76.478
X151.874Y-151.74
X153.938Y-153.893
X154.236Y-78.507
X154.236Y-148.353
X154.394Y-150.738
X155.394Y-89.632
X155.695Y-95.273
X156.227Y-126.761
X156.265Y-138.992
X156.607Y-148.611
X157.783Y-155.86
X158.871Y-59.543
X158.871Y-90.329
X158.973Y-147.283
X159.118Y-123.933
X160.597Y-85.584
X160.748Y-89.66
X160.892Y-132.832
X162.308Y-156.8
X162.441Y-143.09
X162.752Y-88.382
X162.799Y-84.85
X163.92Y-67.309
X164.001Y-139.686
X164.333Y-114.644
X166.617Y-71.773
X167.431Y-78.641
X167.96Y-85.916
X169.078Y-44.634
X169.236Y-64.233
X169.33Y-32.47
X170.307Y-138.765
X170.393Y-88.516
X170.772Y-118.762
X171.447Y-72.12
X172.02Y-93.58
X172.266Y-124.964
X172.666Y-43.177
X173.247Y-144.192
X173.441Y-91.32
X173.769Y-45.176
X174.862Y-130.046
X174.994Y-123.769
X175.162Y-156.061
X175.61Y-113.448
X176.747Y-121.63
X177.307Y-127.54
X177.96Y-148.459
X179.674Y-112.738
X180.761Y-72.12
X181.136Y-107.619
X181.154Y-55.92
X182.438Y-136.707
X183.629Y-148.475
X183.693Y-142.327
X183.996Y-89.314
X184.002Y-136.027
X184.305Y-42.097
X184.823Y-35.703
X185.789Y-92.237
X186.693Y-89.828
X187.036Y-153.743
X189.047Y-130.19
X189.254Y-79.63
X189.405Y-70.788
X189.637Y-111.584
X190.815Y-108.043
X191.835Y-96.767
X192.321Y-81.189
X192.503Y-106.012
X192.512Y-141.345
X192.515Y-66.276
X193.266Y-99.057
X193.898Y-89.076
X194.207Y-94.188
X194.266Y-115.988
X194.565Y-43.57
X196.056Y-70.887
X196.622Y-57.318
X196.952Y-134.88
X197.017Y-88.905
X197.703Y-151.039
X198.015Y-136.183
X198.223Y-51.894
X198.302Y-85.095
X198.495Y-46.005
X198.963Y-76.595
X199.272Y-50.821
X199.353Y-64.329
X199.907Y-66.957
X200.369Y-135.072
X200.427Y-68.864
X200.533Y-141.55
X200.981Y-123.88
X200.981Y-82.4
X200.99Y-148.975
X201.423Y-80.01
X202.243Y-100.602
X203.358Y-41.882
X203.66Y-115.988
X203.784Y-88.539
X203.838Y-119.702
X203.936Y-59.54
X204.036Y-112.644
X204.164Y-100.306
X204.42Y-55.581
X204.828Y-95.959
X204.838Y-121.63
X205.338Y-117.58
X207.056Y-126.131
X208.161Y-96.443
X208.187Y-109.334
X209.94Y-37.884
X210.205Y-95.193
X213.032Y-70.445
X213.269Y-97.533
X213.269Y-105.837
X214.757Y-100.306
X214.957Y-67.349
X214.997Y-38.423
X215.176Y-107.531
X215.667Y-85.835
X215.94Y-113.917
X216.005Y-99.413
X216.663Y-83.794
X217.039Y-148.891
X218.595Y-149.964
X220.05Y-93.109
X220.505Y-145.424
X221.111Y-107.549
X221.273Y-100.547
X221.527Y-146.968
X225.37Y-74.37
X226.946Y-66.959
X227.766Y-44.633
X229.368Y-105.837
X230.414Y-49.335
X230.431Y-40.186
X230.786Y-96.518
X231.281Y-69.912
X232.61Y-151.246
X232.91Y-48.038
X233.584Y-142.283
X234.133Y-89.61
X234.558Y-114.917
X235.076Y-67.365
X235.674Y-96.346
X235.765Y-141.453
X236.016Y-49.335
X236.076Y-55.539
X237.016Y-124.41
X237.067Y-95.393
X240.289Y-79.172
X241.412Y-119.743
X241.86Y-53.111
X242.461Y-158.982
X243.218Y-156.382
X244.686Y-86.47
X246.982Y-157.72
X246.982Y-50.007
X248.133Y-45.105
X248.289Y-69.644
X250.383Y-67.055
X250.561Y-37.131
X250.706Y-73.954
X252.832Y-34.034
X253.624Y-102.945
X255.737Y-105.886
X257.101Y-74.159
X257.101Y-110.667
X258.286Y-102.945
X259.687Y-95.155
X260.19Y-43.183
X260.426Y-111.602
X260.426Y-126.034
X262.018Y-41.354
T2
X69.33Y-137.34
X69.33Y-147.5
X71.92Y-54.0
X71.92Y-61.62
X73.18Y-74.88
X73.18Y-82.5
X74.38Y-45.62
X74.46Y-54.0
X74.46Y-61.62
X75.62Y-90.09
X75.72Y-74.88
X75.72Y-82.5
X76.5Y-103.0
X76.5Y-105.54
X76.5Y-108.08
X76.5Y-110.62
X76.5Y-113.16
X76.5Y-115.7
X76.5Y-118.24
X76.5Y-120.78
X76.92Y-45.62
X77.0Y-54.0
X77.0Y-61.62
X77.33Y-137.42
X77.33Y-147.58
X78.16Y-90.09
X78.26Y-74.88
X78.26Y-82.5
X79.46Y-45.62
X79.54Y-54.0
X79.54Y-61.62
X80.7Y-90.09
X80.8Y-74.88
X80.8Y-82.5
X82.0Y-45.62
X82.08Y-54.0
X82.08Y-61.62
X83.24Y-90.09
X83.34Y-74.88
X83.34Y-82.5
X84.12Y-103.0
X84.12Y-105.54
X84.12Y-108.08
X84.12Y-110.62
X84.12Y-113.16
X84.12Y-115.7
X84.12Y-118.24
X84.12Y-120.78
X84.54Y-45.62
X84.62Y-54.0
X84.62Y-61.62
X85.78Y-90.09
X85.88Y-74.88
X85.88Y-82.5
X87.08Y-45.62
X87.16Y-54.0
X87.16Y-61.62
X88.32Y-90.09
X88.42Y-74.88
X88.42Y-82.5
X89.62Y-45.62
X89.7Y-54.0
X89.7Y-61.62
X90.86Y-90.09
X90.96Y-74.88
X90.96Y-82.5
X92.16Y-45.62
X93.4Y-90.09
X93.5Y-74.88
X93.5Y-82.5
X94.7Y-45.62
X95.94Y-90.09
X96.04Y-74.88
X96.04Y-82.5
X111.26Y-35.88
X111.26Y-43.5
X113.8Y-35.88
X113.8Y-43.5
X116.34Y-35.88
X116.34Y-43.5
X118.88Y-35.88
X118.88Y-43.5
X121.42Y-35.88
X121.42Y-43.5
X123.96Y-35.88
X123.96Y-43.5
X124.22Y-110.5
X124.22Y-118.12
X126.5Y-35.88
X126.5Y-43.5
X126.76Y-110.5
X126.76Y-118.12
X127.0Y-137.34
X127.0Y-147.5
X129.3Y-110.5
X129.3Y-118.12
X131.84Y-110.5
X131.84Y-118.12
X132.88Y-82.0
X132.88Y-84.54
X132.88Y-87.08
X132.88Y-89.62
X132.88Y-92.16
X132.88Y-94.7
X132.88Y-97.24
X132.88Y-99.78
X133.14Y-54.5
X133.14Y-62.12
X134.38Y-110.5
X134.38Y-118.12
X135.68Y-54.5
X135.68Y-62.12
X136.92Y-110.5
X136.92Y-118.12
X138.22Y-54.5
X138.22Y-62.12
X139.46Y-110.5
X139.46Y-118.12
X140.5Y-82.0
X140.5Y-84.54
X140.5Y-87.08
X140.5Y-89.62
X140.5Y-92.16
X140.5Y-94.7
X140.5Y-97.24
X140.5Y-99.78
X140.76Y-54.5
X140.76Y-62.12
X142.0Y-110.5
X142.0Y-118.12
X143.3Y-54.5
X143.3Y-62.12
X145.84Y-54.5
X145.84Y-62.12
X148.38Y-54.5
X148.38Y-62.12
X150.92Y-54.5
X150.92Y-62.12
X151.22Y-75.7
X151.22Y-83.32
X152.0Y-92.12
X152.0Y-94.66
X152.0Y-97.2
X152.0Y-99.74
X152.0Y-102.28
X152.0Y-104.82
X152.0Y-107.36
X152.0Y-109.9
X152.0Y-112.44
X152.0Y-114.98
X152.0Y-117.52
X152.0Y-120.06
X152.0Y-122.6
X152.0Y-125.14
X152.0Y-127.68
X152.0Y-130.22
X153.46Y-54.5
X153.46Y-62.12
X153.76Y-75.7
X153.76Y-83.32
X156.0Y-54.5
X156.0Y-62.12
X156.3Y-75.7
X156.3Y-83.32
X158.84Y-75.7
X158.84Y-83.32
X161.38Y-75.7
X161.38Y-83.32
X162.72Y-146.0
X162.72Y-153.62
X163.92Y-75.7
X163.92Y-83.32
X165.26Y-146.0
X165.26Y-153.62
X166.46Y-75.7
X166.46Y-83.32
X167.24Y-92.12
X167.24Y-94.66
X167.24Y-97.2
X167.24Y-99.74
X167.24Y-102.28
X167.24Y-104.82
X167.24Y-107.36
X167.24Y-109.9
X167.24Y-112.44
X167.24Y-114.98
X167.24Y-117.52
X167.24Y-120.06
X167.24Y-122.6
X167.24Y-125.14
X167.24Y-127.68
X167.24Y-130.22
X167.8Y-146.0
X167.8Y-153.62
X169.0Y-75.7
X169.0Y-83.32
X170.34Y-146.0
X170.34Y-153.62
X172.18Y-53.88
X172.18Y-61.5
X172.88Y-146.0
X172.88Y-153.62
X174.72Y-53.88
X174.72Y-61.5
X175.0Y-105.42
X175.0Y-115.58
X175.42Y-146.0
X175.42Y-153.62
X177.26Y-53.88
X177.26Y-61.5
X177.96Y-146.0
X177.96Y-153.62
X179.22Y-120.0
X179.22Y-127.62
X179.8Y-53.88
X179.8Y-61.5
X180.5Y-146.0
X180.5Y-153.62
X181.76Y-120.0
X181.76Y-127.62
X181.88Y-84.0
X181.88Y-86.54
X181.88Y-89.08
X181.88Y-91.62
X181.88Y-94.16
X181.88Y-96.7
X181.88Y-99.24
X181.88Y-101.78
X182.34Y-53.88
X182.34Y-61.5
X184.3Y-120.0
X184.3Y-127.62
X184.88Y-53.88
X184.88Y-61.5
X186.84Y-120.0
X186.84Y-127.62
X187.42Y-53.88
X187.42Y-61.5
X189.38Y-120.0
X189.38Y-127.62
X189.5Y-84.0
X189.5Y-86.54
X189.5Y-89.08
X189.5Y-91.62
X189.5Y-94.16
X189.5Y-96.7
X189.5Y-99.24
X189.5Y-101.78
X189.96Y-53.88
X189.96Y-61.5
X191.92Y-120.0
X191.92Y-127.62
X192.5Y-53.88
X192.5Y-61.5
X194.22Y-145.88
X194.22Y-153.5
X194.46Y-120.0
X194.46Y-127.62
X195.04Y-53.88
X195.04Y-61.5
X196.76Y-145.88
X196.76Y-153.5
X197.0Y-120.0
X197.0Y-127.62
X199.3Y-145.88
X199.3Y-153.5
X201.84Y-145.88
X201.84Y-153.5
X204.38Y-145.88
X204.38Y-153.5
X206.92Y-145.88
X206.92Y-153.5
X209.46Y-145.88
X209.46Y-153.5
X210.745Y-130.12
X210.86Y-118.34
X210.86Y-125.96
X212.0Y-145.88
X212.0Y-153.5
X213.285Y-130.12
X213.4Y-118.34
X213.4Y-125.96
X215.825Y-130.12
X215.94Y-118.34
X215.94Y-125.96
X218.365Y-130.12
X218.48Y-118.34
X218.48Y-125.96
X220.905Y-130.12
X221.02Y-118.34
X221.02Y-125.96
X222.495Y-71.83
X222.495Y-74.37
X222.495Y-76.91
X222.495Y-79.45
X222.495Y-81.99
X222.495Y-84.53
X222.495Y-87.07
X222.495Y-89.61
X222.495Y-92.15
X222.495Y-94.69
X223.445Y-130.12
X223.56Y-118.34
X223.56Y-125.96
X223.72Y-146.5
X223.72Y-154.12
X225.985Y-130.12
X226.1Y-118.34
X226.1Y-125.96
X226.26Y-146.5
X226.26Y-154.12
X228.525Y-130.12
X228.64Y-118.34
X228.64Y-125.96
X228.8Y-146.5
X228.8Y-154.12
X230.115Y-71.83
X230.115Y-74.37
X230.115Y-76.91
X230.115Y-79.45
X230.115Y-81.99
X230.115Y-84.53
X230.115Y-87.07
X230.115Y-89.61
X230.115Y-92.15
X230.115Y-94.69
X231.065Y-130.12
X231.18Y-118.34
X231.18Y-125.96
X231.34Y-146.5
X231.34Y-154.12
X231.375Y-99.41
X231.375Y-107.03
X233.72Y-118.34
X233.72Y-125.96
X233.88Y-146.5
X233.88Y-154.12
X233.915Y-99.41
X233.915Y-107.03
X236.42Y-146.5
X236.42Y-154.12
X236.455Y-99.41
X236.455Y-107.03
X238.375Y-53.45
X238.375Y-55.99
X238.375Y-58.53
X238.375Y-61.07
X238.375Y-63.61
X238.375Y-66.15
X238.375Y-68.69
X238.375Y-71.23
X238.375Y-73.77
X238.375Y-76.31
X238.375Y-78.85
X238.375Y-81.39
X238.375Y-83.93
X238.375Y-86.47
X238.375Y-89.01
X238.375Y-91.55
X238.4Y-125.92
X238.4Y-136.08
X238.96Y-146.5
X238.96Y-154.12
X238.995Y-99.41
X238.995Y-107.03
X241.5Y-146.5
X241.5Y-154.12
X241.535Y-99.41
X241.535Y-107.03
X244.075Y-99.41
X244.075Y-107.03
X246.615Y-99.41
X246.615Y-107.03
X249.155Y-99.41
X249.155Y-107.03
X251.403Y-132.097
X251.403Y-143.5
X251.403Y-154.5
X251.695Y-99.41
X251.695Y-107.03
X253.615Y-53.45
X253.615Y-55.99
X253.615Y-58.53
X253.615Y-61.07
X253.615Y-63.61
X253.615Y-66.15
X253.615Y-68.69
X253.615Y-71.23
X253.615Y-73.77
X253.615Y-76.31
X253.615Y-78.85
X253.615Y-81.39
X253.615Y-83.93
X253.615Y-86.47
X253.615Y-89.01
X253.615Y-91.55
X254.235Y-99.41
X254.235Y-107.03
X256.403Y-132.097
X256.403Y-143.5
X256.403Y-154.5
X257.615Y-48.45
X257.615Y-58.61
X259.115Y-98.45
X259.115Y-108.61
X261.325Y-121.647
X261.325Y-131.807
T3
X254.285Y-121.727
X256.825Y-121.727
T4
X66.8Y-55.72
X66.8Y-58.26
X66.8Y-60.8
X66.83Y-90.01
X69.2Y-130.0
X69.2Y-155.0
X71.74Y-130.0
X71.74Y-155.0
X71.91Y-90.01
X73.04Y-35.92
X73.04Y-41.0
X74.28Y-130.0
X74.28Y-155.0
X74.42Y-50.12
X76.54Y-35.96
X76.54Y-41.04
X76.82Y-130.0
X76.82Y-155.0
X76.96Y-50.12
X79.36Y-130.0
X79.36Y-155.0
X79.5Y-50.12
X80.04Y-36.0
X80.04Y-41.08
X81.9Y-130.0
X81.9Y-155.0
X82.04Y-50.12
X83.54Y-35.96
X83.54Y-41.04
X84.44Y-130.0
X84.44Y-155.0
X84.58Y-50.12
X86.18Y-142.42
X86.18Y-147.5
X86.98Y-130.0
X86.98Y-155.0
X87.12Y-50.12
X89.52Y-130.0
X89.52Y-155.0
X89.66Y-50.12
X90.33Y-142.42
X90.33Y-147.5
X92.06Y-130.0
X92.06Y-155.0
X92.2Y-50.12
X94.33Y-142.42
X94.33Y-147.5
X94.6Y-130.0
X94.6Y-155.0
X96.5Y-50.04
X96.5Y-55.12
X97.14Y-130.0
X97.14Y-155.0
X99.68Y-130.0
X99.68Y-155.0
X102.22Y-130.0
X102.22Y-155.0
X104.33Y-136.5
X104.76Y-130.0
X104.76Y-155.0
X107.3Y-130.0
X107.3Y-155.0
X109.41Y-136.5
X109.84Y-130.0
X109.84Y-155.0
X112.38Y-130.0
X112.38Y-155.0
X114.92Y-130.0
X114.92Y-155.0
X117.46Y-54.46
X117.46Y-57.0
X117.46Y-59.54
X117.46Y-62.08
X117.46Y-64.62
X117.46Y-67.16
X117.46Y-69.7
X117.46Y-72.24
X117.46Y-74.78
X117.46Y-77.32
X117.46Y-79.86
X117.46Y-82.4
X117.46Y-84.94
X117.46Y-87.48
X117.46Y-90.02
X117.46Y-92.56
X117.46Y-130.0
X117.46Y-155.0
X120.0Y-54.46
X120.0Y-57.0
X120.0Y-59.54
X120.0Y-62.08
X120.0Y-64.62
X120.0Y-67.16
X120.0Y-69.7
X120.0Y-72.24
X120.0Y-74.78
X120.0Y-77.32
X120.0Y-79.86
X120.0Y-82.4
X120.0Y-84.94
X120.0Y-87.48
X120.0Y-90.02
X120.0Y-92.56
X120.0Y-130.0
X120.0Y-155.0
X128.84Y-155.0
X131.38Y-155.0
X133.18Y-66.62
X133.92Y-155.0
X135.72Y-66.62
X136.46Y-155.0
X138.26Y-66.62
X139.0Y-155.0
X140.8Y-66.62
X141.54Y-155.0
X142.3Y-41.0
X143.34Y-66.62
X144.84Y-41.0
X145.88Y-66.62
X147.38Y-41.0
X148.42Y-66.62
X149.92Y-41.0
X150.28Y-34.0
X150.96Y-66.62
X152.46Y-41.0
X152.82Y-34.0
X155.0Y-41.0
X155.36Y-34.0
X157.54Y-41.0
X157.9Y-34.0
X160.08Y-41.0
X160.44Y-34.0
X162.98Y-34.0
X165.52Y-34.0
X168.06Y-34.0
X170.6Y-34.0
X172.56Y-65.88
X173.14Y-34.0
X175.1Y-65.88
X175.68Y-34.0
X177.64Y-65.88
X178.22Y-34.0
X180.18Y-65.88
X180.76Y-34.0
X182.72Y-65.88
X183.3Y-34.0
X185.26Y-65.88
X185.84Y-34.0
X187.8Y-65.88
X188.38Y-34.0
X190.34Y-65.88
X190.92Y-34.0
X193.46Y-34.0
X196.0Y-34.0
X198.54Y-34.0
X201.08Y-34.0
X203.62Y-34.0
X206.16Y-34.0
X207.96Y-54.46
X207.96Y-57.0
X207.96Y-59.54
X207.96Y-62.08
X207.96Y-64.62
X207.96Y-67.16
X207.96Y-69.7
X207.96Y-72.24
X207.96Y-74.78
X207.96Y-77.32
X207.96Y-79.86
X207.96Y-82.4
X207.96Y-84.94
X207.96Y-87.48
X207.96Y-90.02
X207.96Y-92.56
X208.7Y-34.0
X210.5Y-54.46
X210.5Y-57.0
X210.5Y-59.54
X210.5Y-62.08
X210.5Y-64.62
X210.5Y-67.16
X210.5Y-69.7
X210.5Y-72.24
X210.5Y-74.78
X210.5Y-77.32
X210.5Y-79.86
X210.5Y-82.4
X210.5Y-84.94
X210.5Y-87.48
X210.5Y-90.02
X210.5Y-92.56
X210.9Y-134.42
X211.24Y-34.0
X213.44Y-134.42
X213.78Y-34.0
X215.98Y-134.42
X216.32Y-34.0
X218.52Y-134.42
X218.86Y-34.0
X221.06Y-134.42
X221.4Y-34.0
X223.6Y-134.42
X223.94Y-34.0
X226.14Y-134.42
X226.48Y-34.0
X228.68Y-134.42
X229.02Y-34.0
X231.56Y-34.0
X234.1Y-34.0
X234.64Y-129.38
X234.64Y-134.46
X236.64Y-34.0
X239.18Y-34.0
X241.72Y-34.0
X244.26Y-34.0
X244.745Y-119.727
X244.825Y-124.647
X244.825Y-127.187
X244.825Y-129.727
X246.8Y-34.0
X249.34Y-34.0
X249.825Y-119.727
T0
M30
