%TF.GenerationSoftware,KiCad,Pcbnew,7.0.2*%
%TF.CreationDate,2023-05-21T12:10:35+01:00*%
%TF.ProjectId,FujiNet_Z80Bus_ReferenceDesign,46756a69-4e65-4745-9f5a-38304275735f,rev?*%
%TF.SameCoordinates,Original*%
%TF.FileFunction,Copper,L2,Bot*%
%TF.FilePolarity,Positive*%
%FSLAX46Y46*%
G04 Gerber Fmt 4.6, Leading zero omitted, Abs format (unit mm)*
G04 Created by KiCad (PCBNEW 7.0.2) date 2023-05-21 12:10:35*
%MOMM*%
%LPD*%
G01*
G04 APERTURE LIST*
%TA.AperFunction,ComponentPad*%
%ADD10R,2.000000X2.000000*%
%TD*%
%TA.AperFunction,ComponentPad*%
%ADD11O,2.000000X2.000000*%
%TD*%
%TA.AperFunction,ComponentPad*%
%ADD12R,1.700000X1.700000*%
%TD*%
%TA.AperFunction,ComponentPad*%
%ADD13O,1.700000X1.700000*%
%TD*%
%TA.AperFunction,ComponentPad*%
%ADD14R,1.600000X1.600000*%
%TD*%
%TA.AperFunction,ComponentPad*%
%ADD15O,1.600000X1.600000*%
%TD*%
%TA.AperFunction,ComponentPad*%
%ADD16C,1.600000*%
%TD*%
%TA.AperFunction,ComponentPad*%
%ADD17R,1.800000X1.800000*%
%TD*%
%TA.AperFunction,ComponentPad*%
%ADD18C,1.800000*%
%TD*%
%TA.AperFunction,ComponentPad*%
%ADD19O,1.800000X2.400000*%
%TD*%
%TA.AperFunction,ViaPad*%
%ADD20C,1.000000*%
%TD*%
%TA.AperFunction,Conductor*%
%ADD21C,0.500000*%
%TD*%
G04 APERTURE END LIST*
D10*
%TO.P,D11,1,K*%
%TO.N,Net-(D11-K)*%
X234640000Y-134460000D03*
D11*
%TO.P,D11,2,A*%
%TO.N,+5V*%
X234640000Y-129380000D03*
%TD*%
D12*
%TO.P,DIAG-ESP_CONTROL1,1,Pin_1*%
%TO.N,/ESP_CONTROL.RD*%
X92200000Y-50120000D03*
D13*
%TO.P,DIAG-ESP_CONTROL1,2,Pin_2*%
%TO.N,/ESP_CONTROL.WR*%
X89660000Y-50120000D03*
%TO.P,DIAG-ESP_CONTROL1,3,Pin_3*%
%TO.N,/ESP_CONTROL.IORQ*%
X87120000Y-50120000D03*
%TO.P,DIAG-ESP_CONTROL1,4,Pin_4*%
%TO.N,/ESP_CONTROL.MEMRQ*%
X84580000Y-50120000D03*
%TO.P,DIAG-ESP_CONTROL1,5,Pin_5*%
%TO.N,/ESP_CONTROL.BUSRQ*%
X82040000Y-50120000D03*
%TO.P,DIAG-ESP_CONTROL1,6,Pin_6*%
%TO.N,/ESP_CONTROL.WAIT*%
X79500000Y-50120000D03*
%TO.P,DIAG-ESP_CONTROL1,7,Pin_7*%
%TO.N,/ESP_CONTROL.ROMCS*%
X76960000Y-50120000D03*
%TO.P,DIAG-ESP_CONTROL1,8,Pin_8*%
%TO.N,/ESP_CONTROL.NMI*%
X74420000Y-50120000D03*
%TD*%
D12*
%TO.P,J12,1,Pin_1*%
%TO.N,/Z80_CONTROL.RD*%
X117460000Y-54460000D03*
D13*
%TO.P,J12,2,Pin_2*%
%TO.N,/ESP_CONTROL.WR*%
X120000000Y-54460000D03*
%TO.P,J12,3,Pin_3*%
%TO.N,/Z80_CONTROL.WR*%
X117460000Y-57000000D03*
%TO.P,J12,4,Pin_4*%
%TO.N,/ESP_CONTROL.IORQ*%
X120000000Y-57000000D03*
%TO.P,J12,5,Pin_5*%
%TO.N,/Z80_CONTROL.IORQ*%
X117460000Y-59540000D03*
%TO.P,J12,6,Pin_6*%
%TO.N,/ESP_CONTROL.MEMRQ*%
X120000000Y-59540000D03*
%TO.P,J12,7,Pin_7*%
%TO.N,/Z80_CONTROL.MEMRQ*%
X117460000Y-62080000D03*
%TO.P,J12,8,Pin_8*%
%TO.N,/ESP_CONTROL.BUSRQ*%
X120000000Y-62080000D03*
%TO.P,J12,9,Pin_9*%
%TO.N,/Z80_CONTROL.BUSRQ*%
X117460000Y-64620000D03*
%TO.P,J12,10,Pin_10*%
%TO.N,/ESP_CONTROL.ROMCS*%
X120000000Y-64620000D03*
%TO.P,J12,11,Pin_11*%
%TO.N,/Z80_CONTROL.WAIT*%
X117460000Y-67160000D03*
%TO.P,J12,12,Pin_12*%
%TO.N,/ESP_ROM_WR_PROTECT*%
X120000000Y-67160000D03*
%TO.P,J12,13,Pin_13*%
%TO.N,/LOCAL_CONTROL.RD*%
X117460000Y-69700000D03*
%TO.P,J12,14,Pin_14*%
%TO.N,/ESP_ROMSEL_0*%
X120000000Y-69700000D03*
%TO.P,J12,15,Pin_15*%
%TO.N,/LOCAL_CONTROL.WR*%
X117460000Y-72240000D03*
%TO.P,J12,16,Pin_16*%
%TO.N,/ESP_ROMSEL_1*%
X120000000Y-72240000D03*
%TO.P,J12,17,Pin_17*%
%TO.N,/LOCAL_CONTROL.IORQ*%
X117460000Y-74780000D03*
%TO.P,J12,18,Pin_18*%
%TO.N,/ESP_HARDLOCK*%
X120000000Y-74780000D03*
%TO.P,J12,19,Pin_19*%
%TO.N,/LOCAL_CONTROL.MEMRQ*%
X117460000Y-77320000D03*
%TO.P,J12,20,Pin_20*%
%TO.N,/!ESP_HARDLOCK*%
X120000000Y-77320000D03*
%TO.P,J12,21,Pin_21*%
%TO.N,+5V*%
X117460000Y-79860000D03*
%TO.P,J12,22,Pin_22*%
%TO.N,unconnected-(J12-Pin_22-Pad22)*%
X120000000Y-79860000D03*
%TO.P,J12,23,Pin_23*%
%TO.N,GND*%
X117460000Y-82400000D03*
%TO.P,J12,24,Pin_24*%
%TO.N,unconnected-(J12-Pin_24-Pad24)*%
X120000000Y-82400000D03*
%TO.P,J12,25*%
%TO.N,N/C*%
X117460000Y-84940000D03*
%TO.P,J12,26*%
X120000000Y-84940000D03*
%TO.P,J12,27*%
X117460000Y-87480000D03*
%TO.P,J12,28*%
X120000000Y-87480000D03*
%TO.P,J12,29*%
X117460000Y-90020000D03*
%TO.P,J12,30*%
X120000000Y-90020000D03*
%TO.P,J12,31*%
X117460000Y-92560000D03*
%TO.P,J12,32*%
X120000000Y-92560000D03*
%TD*%
D12*
%TO.P,DIAG-LOCAL_DATA1,1,Pin_1*%
%TO.N,/LOCAL_D0*%
X228680000Y-134420000D03*
D13*
%TO.P,DIAG-LOCAL_DATA1,2,Pin_2*%
%TO.N,/LOCAL_D1*%
X226140000Y-134420000D03*
%TO.P,DIAG-LOCAL_DATA1,3,Pin_3*%
%TO.N,/LOCAL_D2*%
X223600000Y-134420000D03*
%TO.P,DIAG-LOCAL_DATA1,4,Pin_4*%
%TO.N,/LOCAL_D3*%
X221060000Y-134420000D03*
%TO.P,DIAG-LOCAL_DATA1,5,Pin_5*%
%TO.N,/LOCAL_D4*%
X218520000Y-134420000D03*
%TO.P,DIAG-LOCAL_DATA1,6,Pin_6*%
%TO.N,/LOCAL_D5*%
X215980000Y-134420000D03*
%TO.P,DIAG-LOCAL_DATA1,7,Pin_7*%
%TO.N,/LOCAL_D6*%
X213440000Y-134420000D03*
%TO.P,DIAG-LOCAL_DATA1,8,Pin_8*%
%TO.N,/LOCAL_D7*%
X210900000Y-134420000D03*
%TD*%
D14*
%TO.P,Z80_ADDRHIGH1,1,A->B*%
%TO.N,/Z80_BUS_CONTROL.Z80_ADD_DIR*%
X195040000Y-53880000D03*
D15*
%TO.P,Z80_ADDRHIGH1,2,A0*%
%TO.N,/Z80_A8*%
X192500000Y-53880000D03*
%TO.P,Z80_ADDRHIGH1,3,A1*%
%TO.N,/Z80_A9*%
X189960000Y-53880000D03*
%TO.P,Z80_ADDRHIGH1,4,A2*%
%TO.N,/Z80_A10*%
X187420000Y-53880000D03*
%TO.P,Z80_ADDRHIGH1,5,A3*%
%TO.N,/Z80_A11*%
X184880000Y-53880000D03*
%TO.P,Z80_ADDRHIGH1,6,A4*%
%TO.N,/Z80_A12*%
X182340000Y-53880000D03*
%TO.P,Z80_ADDRHIGH1,7,A5*%
%TO.N,/Z80_A13*%
X179800000Y-53880000D03*
%TO.P,Z80_ADDRHIGH1,8,A6*%
%TO.N,/Z80_A14*%
X177260000Y-53880000D03*
%TO.P,Z80_ADDRHIGH1,9,A7*%
%TO.N,/Z80_A15*%
X174720000Y-53880000D03*
%TO.P,Z80_ADDRHIGH1,10,GND*%
%TO.N,GND*%
X172180000Y-53880000D03*
%TO.P,Z80_ADDRHIGH1,11,B7*%
%TO.N,/LOCAL_A15*%
X172180000Y-61500000D03*
%TO.P,Z80_ADDRHIGH1,12,B6*%
%TO.N,/LOCAL_A14*%
X174720000Y-61500000D03*
%TO.P,Z80_ADDRHIGH1,13,B5*%
%TO.N,/LOCAL_A13*%
X177260000Y-61500000D03*
%TO.P,Z80_ADDRHIGH1,14,B4*%
%TO.N,/LOCAL_A12*%
X179800000Y-61500000D03*
%TO.P,Z80_ADDRHIGH1,15,B3*%
%TO.N,/LOCAL_A11*%
X182340000Y-61500000D03*
%TO.P,Z80_ADDRHIGH1,16,B2*%
%TO.N,/LOCAL_A10*%
X184880000Y-61500000D03*
%TO.P,Z80_ADDRHIGH1,17,B1*%
%TO.N,/LOCAL_A9*%
X187420000Y-61500000D03*
%TO.P,Z80_ADDRHIGH1,18,B0*%
%TO.N,/LOCAL_A8*%
X189960000Y-61500000D03*
%TO.P,Z80_ADDRHIGH1,19,CE*%
%TO.N,/Z80_BUS_CONTROL.Z80_ADD_OE*%
X192500000Y-61500000D03*
%TO.P,Z80_ADDRHIGH1,20,VCC*%
%TO.N,+5V*%
X195040000Y-61500000D03*
%TD*%
D16*
%TO.P,R5,1*%
%TO.N,+5V*%
X257615000Y-48450000D03*
D15*
%TO.P,R5,2*%
%TO.N,/RIO-128K_ZXspectrum/RIO_CE2*%
X257615000Y-58610000D03*
%TD*%
D14*
%TO.P,C1,1*%
%TO.N,+5V*%
X256402700Y-132097300D03*
D16*
%TO.P,C1,2*%
%TO.N,GND*%
X251402700Y-132097300D03*
%TD*%
D14*
%TO.P,C3,1*%
%TO.N,+5V*%
X256402700Y-154500000D03*
D16*
%TO.P,C3,2*%
%TO.N,GND*%
X251402700Y-154500000D03*
%TD*%
D14*
%TO.P,SPI-Z80_CONTROL.IN1,1,~{PL}*%
%TO.N,/CORE_ESP32-WROVER/ESP_SPI_INT.PL*%
X76500000Y-103000000D03*
D15*
%TO.P,SPI-Z80_CONTROL.IN1,2,CP*%
%TO.N,/CORE_ESP32-WROVER/ESP_SPI_INT.SCK*%
X76500000Y-105540000D03*
%TO.P,SPI-Z80_CONTROL.IN1,3,D4*%
%TO.N,/Z80_CONTROL.BUSRQ*%
X76500000Y-108080000D03*
%TO.P,SPI-Z80_CONTROL.IN1,4,D5*%
%TO.N,/Z80_CONTROL.WAIT*%
X76500000Y-110620000D03*
%TO.P,SPI-Z80_CONTROL.IN1,5,D6*%
%TO.N,/Z80_CONTROL.BUSACK*%
X76500000Y-113160000D03*
%TO.P,SPI-Z80_CONTROL.IN1,6,D7*%
%TO.N,/Z80_CONTROL.NMI*%
X76500000Y-115700000D03*
%TO.P,SPI-Z80_CONTROL.IN1,7,~{Q7}*%
%TO.N,Net-(SPI-LOCAL_ADDR_L.IN1-DS)*%
X76500000Y-118240000D03*
%TO.P,SPI-Z80_CONTROL.IN1,8,GND*%
%TO.N,GND*%
X76500000Y-120780000D03*
%TO.P,SPI-Z80_CONTROL.IN1,9,Q7*%
%TO.N,unconnected-(SPI-Z80_CONTROL.IN1-Q7-Pad9)*%
X84120000Y-120780000D03*
%TO.P,SPI-Z80_CONTROL.IN1,10,DS*%
%TO.N,Net-(SPI-LOCAL_DATA.IN1-~{Q7})*%
X84120000Y-118240000D03*
%TO.P,SPI-Z80_CONTROL.IN1,11,D0*%
%TO.N,/Z80_CONTROL.RD*%
X84120000Y-115700000D03*
%TO.P,SPI-Z80_CONTROL.IN1,12,D1*%
%TO.N,/Z80_CONTROL.WR*%
X84120000Y-113160000D03*
%TO.P,SPI-Z80_CONTROL.IN1,13,D2*%
%TO.N,/Z80_CONTROL.IORQ*%
X84120000Y-110620000D03*
%TO.P,SPI-Z80_CONTROL.IN1,14,D3*%
%TO.N,/Z80_CONTROL.MEMRQ*%
X84120000Y-108080000D03*
%TO.P,SPI-Z80_CONTROL.IN1,15,~{CE}*%
%TO.N,/CORE_ESP32-WROVER/ESP_SPI_INT.CE*%
X84120000Y-105540000D03*
%TO.P,SPI-Z80_CONTROL.IN1,16,VCC*%
%TO.N,+5V*%
X84120000Y-103000000D03*
%TD*%
D12*
%TO.P,EX_SPI1,1,Pin_1*%
%TO.N,/CORE_ESP32-WROVER/EX_SS*%
X128840000Y-155000000D03*
D13*
%TO.P,EX_SPI1,2,Pin_2*%
%TO.N,/CORE_ESP32-WROVER/EX_SCK*%
X131380000Y-155000000D03*
%TO.P,EX_SPI1,3,Pin_3*%
%TO.N,/CORE_ESP32-WROVER/EX_MISO*%
X133920000Y-155000000D03*
%TO.P,EX_SPI1,4,Pin_4*%
%TO.N,/CORE_ESP32-WROVER/EX_MOSI*%
X136460000Y-155000000D03*
%TO.P,EX_SPI1,5,Pin_5*%
%TO.N,+5V*%
X139000000Y-155000000D03*
%TO.P,EX_SPI1,6,Pin_6*%
%TO.N,GND*%
X141540000Y-155000000D03*
%TD*%
D12*
%TO.P,DIAG-LOCAL_ADD_LOW1,1,Pin_1*%
%TO.N,/LOCAL_A0*%
X150960000Y-66620000D03*
D13*
%TO.P,DIAG-LOCAL_ADD_LOW1,2,Pin_2*%
%TO.N,/LOCAL_A1*%
X148420000Y-66620000D03*
%TO.P,DIAG-LOCAL_ADD_LOW1,3,Pin_3*%
%TO.N,/LOCAL_A2*%
X145880000Y-66620000D03*
%TO.P,DIAG-LOCAL_ADD_LOW1,4,Pin_4*%
%TO.N,/LOCAL_A3*%
X143340000Y-66620000D03*
%TO.P,DIAG-LOCAL_ADD_LOW1,5,Pin_5*%
%TO.N,/LOCAL_A4*%
X140800000Y-66620000D03*
%TO.P,DIAG-LOCAL_ADD_LOW1,6,Pin_6*%
%TO.N,/LOCAL_A5*%
X138260000Y-66620000D03*
%TO.P,DIAG-LOCAL_ADD_LOW1,7,Pin_7*%
%TO.N,/LOCAL_A6*%
X135720000Y-66620000D03*
%TO.P,DIAG-LOCAL_ADD_LOW1,8,Pin_8*%
%TO.N,/LOCAL_A7*%
X133180000Y-66620000D03*
%TD*%
D12*
%TO.P,JP2,1,Pin_1*%
%TO.N,GND*%
X66800000Y-60800000D03*
D13*
%TO.P,JP2,2,Pin_2*%
%TO.N,/IORQ_FILTER_BIT*%
X66800000Y-58260000D03*
%TO.P,JP2,3,Pin_3*%
%TO.N,/Z80_A0*%
X66800000Y-55720000D03*
%TD*%
D10*
%TO.P,D3,1,K*%
%TO.N,/Z80_CONTROL.WAIT*%
X90330000Y-142420000D03*
D11*
%TO.P,D3,2,A*%
%TO.N,/CORE_ESP32-WROVER/ESP_INT*%
X90330000Y-147500000D03*
%TD*%
D14*
%TO.P,RIO_DECODER1,1,A->B*%
%TO.N,Net-(RIO_DECODER1-A->B)*%
X254235000Y-99410000D03*
D15*
%TO.P,RIO_DECODER1,2,A0*%
%TO.N,/RIO-128K_ZXspectrum/ROM_D0*%
X251695000Y-99410000D03*
%TO.P,RIO_DECODER1,3,A1*%
%TO.N,/RIO-128K_ZXspectrum/ROM_D1*%
X249155000Y-99410000D03*
%TO.P,RIO_DECODER1,4,A2*%
%TO.N,/RIO-128K_ZXspectrum/ROM_D2*%
X246615000Y-99410000D03*
%TO.P,RIO_DECODER1,5,A3*%
%TO.N,/RIO-128K_ZXspectrum/ROM_D3*%
X244075000Y-99410000D03*
%TO.P,RIO_DECODER1,6,A4*%
%TO.N,/RIO-128K_ZXspectrum/ROM_D4*%
X241535000Y-99410000D03*
%TO.P,RIO_DECODER1,7,A5*%
%TO.N,/RIO-128K_ZXspectrum/ROM_D5*%
X238995000Y-99410000D03*
%TO.P,RIO_DECODER1,8,A6*%
%TO.N,/RIO-128K_ZXspectrum/ROM_D6*%
X236455000Y-99410000D03*
%TO.P,RIO_DECODER1,9,A7*%
%TO.N,/RIO-128K_ZXspectrum/ROM_D7*%
X233915000Y-99410000D03*
%TO.P,RIO_DECODER1,10,GND*%
%TO.N,GND*%
X231375000Y-99410000D03*
%TO.P,RIO_DECODER1,11,B7*%
%TO.N,/Z80_HARDLOCK_SET*%
X231375000Y-107030000D03*
%TO.P,RIO_DECODER1,12,B6*%
%TO.N,/Z80_HARDLOCK_RESET*%
X233915000Y-107030000D03*
%TO.P,RIO_DECODER1,13,B5*%
%TO.N,/WAIT_IO*%
X236455000Y-107030000D03*
%TO.P,RIO_DECODER1,14,B4*%
%TO.N,/CACHE_DATASTATUS*%
X238995000Y-107030000D03*
%TO.P,RIO_DECODER1,15,B3*%
%TO.N,/CACHE_SEL_3*%
X241535000Y-107030000D03*
%TO.P,RIO_DECODER1,16,B2*%
%TO.N,/CACHE_SEL_2*%
X244075000Y-107030000D03*
%TO.P,RIO_DECODER1,17,B1*%
%TO.N,/CACHE_SEL_1*%
X246615000Y-107030000D03*
%TO.P,RIO_DECODER1,18,B0*%
%TO.N,/CACHE_SEL_0*%
X249155000Y-107030000D03*
%TO.P,RIO_DECODER1,19,CE*%
%TO.N,/PERM_Z80_IORQ*%
X251695000Y-107030000D03*
%TO.P,RIO_DECODER1,20,VCC*%
%TO.N,+5V*%
X254235000Y-107030000D03*
%TD*%
D14*
%TO.P,RN2,1,common*%
%TO.N,Net-(D11-K)*%
X231065000Y-130120000D03*
D15*
%TO.P,RN2,2,R1*%
%TO.N,/LOCAL_D0*%
X228525000Y-130120000D03*
%TO.P,RN2,3,R2*%
%TO.N,/LOCAL_D1*%
X225985000Y-130120000D03*
%TO.P,RN2,4,R3*%
%TO.N,/LOCAL_D2*%
X223445000Y-130120000D03*
%TO.P,RN2,5,R4*%
%TO.N,/LOCAL_D3*%
X220905000Y-130120000D03*
%TO.P,RN2,6,R5*%
%TO.N,/LOCAL_D4*%
X218365000Y-130120000D03*
%TO.P,RN2,7,R6*%
%TO.N,/LOCAL_D5*%
X215825000Y-130120000D03*
%TO.P,RN2,8,R7*%
%TO.N,/LOCAL_D6*%
X213285000Y-130120000D03*
%TO.P,RN2,9,R8*%
%TO.N,/LOCAL_D7*%
X210745000Y-130120000D03*
%TD*%
D12*
%TO.P,JP1,1,Pin_1*%
%TO.N,/Z80_CONTROL.RESET*%
X244825000Y-129727100D03*
D13*
%TO.P,JP1,2,Pin_2*%
%TO.N,GND*%
X244825000Y-127187100D03*
%TO.P,JP1,3,Pin_3*%
%TO.N,Net-(D_PSUsafety1-K)*%
X244825000Y-124647100D03*
%TD*%
D14*
%TO.P,SPI-LOCAL_DATA.IN1,1,~{PL}*%
%TO.N,/CORE_ESP32-WROVER/ESP_SPI_INT.PL*%
X212000000Y-145880000D03*
D15*
%TO.P,SPI-LOCAL_DATA.IN1,2,CP*%
%TO.N,/CORE_ESP32-WROVER/ESP_SPI_INT.SCK*%
X209460000Y-145880000D03*
%TO.P,SPI-LOCAL_DATA.IN1,3,D4*%
%TO.N,/LOCAL_D4*%
X206920000Y-145880000D03*
%TO.P,SPI-LOCAL_DATA.IN1,4,D5*%
%TO.N,/LOCAL_D5*%
X204380000Y-145880000D03*
%TO.P,SPI-LOCAL_DATA.IN1,5,D6*%
%TO.N,/LOCAL_D6*%
X201840000Y-145880000D03*
%TO.P,SPI-LOCAL_DATA.IN1,6,D7*%
%TO.N,/LOCAL_D7*%
X199300000Y-145880000D03*
%TO.P,SPI-LOCAL_DATA.IN1,7,~{Q7}*%
%TO.N,Net-(SPI-LOCAL_DATA.IN1-~{Q7})*%
X196760000Y-145880000D03*
%TO.P,SPI-LOCAL_DATA.IN1,8,GND*%
%TO.N,GND*%
X194220000Y-145880000D03*
%TO.P,SPI-LOCAL_DATA.IN1,9,Q7*%
%TO.N,unconnected-(SPI-LOCAL_DATA.IN1-Q7-Pad9)*%
X194220000Y-153500000D03*
%TO.P,SPI-LOCAL_DATA.IN1,10,DS*%
%TO.N,GND*%
X196760000Y-153500000D03*
%TO.P,SPI-LOCAL_DATA.IN1,11,D0*%
%TO.N,/LOCAL_D0*%
X199300000Y-153500000D03*
%TO.P,SPI-LOCAL_DATA.IN1,12,D1*%
%TO.N,/LOCAL_D1*%
X201840000Y-153500000D03*
%TO.P,SPI-LOCAL_DATA.IN1,13,D2*%
%TO.N,/LOCAL_D2*%
X204380000Y-153500000D03*
%TO.P,SPI-LOCAL_DATA.IN1,14,D3*%
%TO.N,/LOCAL_D3*%
X206920000Y-153500000D03*
%TO.P,SPI-LOCAL_DATA.IN1,15,~{CE}*%
%TO.N,/CORE_ESP32-WROVER/ESP_SPI_INT.CE*%
X209460000Y-153500000D03*
%TO.P,SPI-LOCAL_DATA.IN1,16,VCC*%
%TO.N,+5V*%
X212000000Y-153500000D03*
%TD*%
D14*
%TO.P,RN1,1,common*%
%TO.N,Net-(D10-K)*%
X75620000Y-90090000D03*
D15*
%TO.P,RN1,2,R1*%
%TO.N,/LOCAL_CONTROL.MEMRQ*%
X78160000Y-90090000D03*
%TO.P,RN1,3,R2*%
%TO.N,/LOCAL_CONTROL.IORQ*%
X80700000Y-90090000D03*
%TO.P,RN1,4,R3*%
%TO.N,/LOCAL_CONTROL.WR*%
X83240000Y-90090000D03*
%TO.P,RN1,5,R4*%
%TO.N,/LOCAL_CONTROL.RD*%
X85780000Y-90090000D03*
%TO.P,RN1,6,R5*%
%TO.N,unconnected-(RN1-R5-Pad6)*%
X88320000Y-90090000D03*
%TO.P,RN1,7,R6*%
%TO.N,unconnected-(RN1-R6-Pad7)*%
X90860000Y-90090000D03*
%TO.P,RN1,8,R7*%
%TO.N,unconnected-(RN1-R7-Pad8)*%
X93400000Y-90090000D03*
%TO.P,RN1,9,R8*%
%TO.N,unconnected-(RN1-R8-Pad9)*%
X95940000Y-90090000D03*
%TD*%
D14*
%TO.P,Z80-LOCAL_DATA1,1,A->B*%
%TO.N,/Z80_BUS_CONTROL.Z80_DATA_DIR*%
X233720000Y-118340000D03*
D15*
%TO.P,Z80-LOCAL_DATA1,2,A0*%
%TO.N,/Z80_D0*%
X231180000Y-118340000D03*
%TO.P,Z80-LOCAL_DATA1,3,A1*%
%TO.N,/Z80_D1*%
X228640000Y-118340000D03*
%TO.P,Z80-LOCAL_DATA1,4,A2*%
%TO.N,/Z80_D2*%
X226100000Y-118340000D03*
%TO.P,Z80-LOCAL_DATA1,5,A3*%
%TO.N,/Z80_D3*%
X223560000Y-118340000D03*
%TO.P,Z80-LOCAL_DATA1,6,A4*%
%TO.N,/Z80_D4*%
X221020000Y-118340000D03*
%TO.P,Z80-LOCAL_DATA1,7,A5*%
%TO.N,/Z80_D5*%
X218480000Y-118340000D03*
%TO.P,Z80-LOCAL_DATA1,8,A6*%
%TO.N,/Z80_D6*%
X215940000Y-118340000D03*
%TO.P,Z80-LOCAL_DATA1,9,A7*%
%TO.N,/Z80_D7*%
X213400000Y-118340000D03*
%TO.P,Z80-LOCAL_DATA1,10,GND*%
%TO.N,GND*%
X210860000Y-118340000D03*
%TO.P,Z80-LOCAL_DATA1,11,B7*%
%TO.N,/LOCAL_D7*%
X210860000Y-125960000D03*
%TO.P,Z80-LOCAL_DATA1,12,B6*%
%TO.N,/LOCAL_D6*%
X213400000Y-125960000D03*
%TO.P,Z80-LOCAL_DATA1,13,B5*%
%TO.N,/LOCAL_D5*%
X215940000Y-125960000D03*
%TO.P,Z80-LOCAL_DATA1,14,B4*%
%TO.N,/LOCAL_D4*%
X218480000Y-125960000D03*
%TO.P,Z80-LOCAL_DATA1,15,B3*%
%TO.N,/LOCAL_D3*%
X221020000Y-125960000D03*
%TO.P,Z80-LOCAL_DATA1,16,B2*%
%TO.N,/LOCAL_D2*%
X223560000Y-125960000D03*
%TO.P,Z80-LOCAL_DATA1,17,B1*%
%TO.N,/LOCAL_D1*%
X226100000Y-125960000D03*
%TO.P,Z80-LOCAL_DATA1,18,B0*%
%TO.N,/LOCAL_D0*%
X228640000Y-125960000D03*
%TO.P,Z80-LOCAL_DATA1,19,CE*%
%TO.N,/Z80_BUS_CONTROL.Z80_DATA_OE*%
X231180000Y-125960000D03*
%TO.P,Z80-LOCAL_DATA1,20,VCC*%
%TO.N,+5V*%
X233720000Y-125960000D03*
%TD*%
D14*
%TO.P,IC3,1,Q1*%
%TO.N,/LOCAL_A1*%
X169000000Y-75700000D03*
D15*
%TO.P,IC3,2,Q2*%
%TO.N,/LOCAL_A2*%
X166460000Y-75700000D03*
%TO.P,IC3,3,Q3*%
%TO.N,/LOCAL_A3*%
X163920000Y-75700000D03*
%TO.P,IC3,4,Q4*%
%TO.N,/LOCAL_A4*%
X161380000Y-75700000D03*
%TO.P,IC3,5,Q5*%
%TO.N,/LOCAL_A5*%
X158840000Y-75700000D03*
%TO.P,IC3,6,Q6*%
%TO.N,/LOCAL_A6*%
X156300000Y-75700000D03*
%TO.P,IC3,7,Q7*%
%TO.N,/LOCAL_A7*%
X153760000Y-75700000D03*
%TO.P,IC3,8,GND*%
%TO.N,GND*%
X151220000Y-75700000D03*
%TO.P,IC3,9,~{RCO}*%
%TO.N,Net-(IC3-~{RCO})*%
X151220000Y-83320000D03*
%TO.P,IC3,10,~{MRC}*%
%TO.N,/Z80_HARDLOCK*%
X153760000Y-83320000D03*
%TO.P,IC3,11,CPC*%
%TO.N,/CACHE_CONTROL.DATASTATUS+PERM_Z80_IORQ*%
X156300000Y-83320000D03*
%TO.P,IC3,12,~{CE}*%
%TO.N,/CACHE_DATASTATUS*%
X158840000Y-83320000D03*
%TO.P,IC3,13,CPR*%
%TO.N,/CACHE_CONTROL.DATASTATUS+PERM_Z80_IORQ*%
X161380000Y-83320000D03*
%TO.P,IC3,14,~{OE}*%
%TO.N,/CACHE_DATASTATUS*%
X163920000Y-83320000D03*
%TO.P,IC3,15,Q0*%
%TO.N,/LOCAL_A0*%
X166460000Y-83320000D03*
%TO.P,IC3,16,VCC*%
%TO.N,+5V*%
X169000000Y-83320000D03*
%TD*%
D14*
%TO.P,SPI-LOCAL_ADD_HIGH.OUT1,1,QB*%
%TO.N,/LOCAL_A9*%
X197000000Y-120000000D03*
D15*
%TO.P,SPI-LOCAL_ADD_HIGH.OUT1,2,QC*%
%TO.N,/LOCAL_A10*%
X194460000Y-120000000D03*
%TO.P,SPI-LOCAL_ADD_HIGH.OUT1,3,QD*%
%TO.N,/LOCAL_A11*%
X191920000Y-120000000D03*
%TO.P,SPI-LOCAL_ADD_HIGH.OUT1,4,QE*%
%TO.N,/LOCAL_A12*%
X189380000Y-120000000D03*
%TO.P,SPI-LOCAL_ADD_HIGH.OUT1,5,QF*%
%TO.N,/LOCAL_A13*%
X186840000Y-120000000D03*
%TO.P,SPI-LOCAL_ADD_HIGH.OUT1,6,QG*%
%TO.N,/LOCAL_A14*%
X184300000Y-120000000D03*
%TO.P,SPI-LOCAL_ADD_HIGH.OUT1,7,QH*%
%TO.N,/LOCAL_A15*%
X181760000Y-120000000D03*
%TO.P,SPI-LOCAL_ADD_HIGH.OUT1,8,GND*%
%TO.N,GND*%
X179220000Y-120000000D03*
%TO.P,SPI-LOCAL_ADD_HIGH.OUT1,9,QH'*%
%TO.N,unconnected-(SPI-LOCAL_ADD_HIGH.OUT1-QH'-Pad9)*%
X179220000Y-127620000D03*
%TO.P,SPI-LOCAL_ADD_HIGH.OUT1,10,~{SRCLR}*%
%TO.N,/CORE_ESP32-WROVER/ESP_SPI_INT.MR*%
X181760000Y-127620000D03*
%TO.P,SPI-LOCAL_ADD_HIGH.OUT1,11,SRCLK*%
%TO.N,/CORE_ESP32-WROVER/ESP_SPI_INT.SCK*%
X184300000Y-127620000D03*
%TO.P,SPI-LOCAL_ADD_HIGH.OUT1,12,RCLK*%
%TO.N,/CORE_ESP32-WROVER/ESP_SPI_INT.STC*%
X186840000Y-127620000D03*
%TO.P,SPI-LOCAL_ADD_HIGH.OUT1,13,~{OE}*%
%TO.N,/CORE_ESP32-WROVER/ESP_SPI_INT.OE*%
X189380000Y-127620000D03*
%TO.P,SPI-LOCAL_ADD_HIGH.OUT1,14,SER*%
%TO.N,Net-(SPI-LOCAL_ADD_HIGH.OUT1-SER)*%
X191920000Y-127620000D03*
%TO.P,SPI-LOCAL_ADD_HIGH.OUT1,15,QA*%
%TO.N,/LOCAL_A8*%
X194460000Y-127620000D03*
%TO.P,SPI-LOCAL_ADD_HIGH.OUT1,16,VCC*%
%TO.N,+5V*%
X197000000Y-127620000D03*
%TD*%
D10*
%TO.P,D7,1,K*%
%TO.N,/ESP_CONTROL.ROMCS*%
X76540000Y-41040000D03*
D11*
%TO.P,D7,2,A*%
%TO.N,/Z80_CONTROL.ROMCS*%
X76540000Y-35960000D03*
%TD*%
D10*
%TO.P,D5,1,K*%
%TO.N,/Z80_CONTROL.BUSACK*%
X94330000Y-142420000D03*
D11*
%TO.P,D5,2,A*%
%TO.N,/CORE_ESP32-WROVER/ESP_INT*%
X94330000Y-147500000D03*
%TD*%
D12*
%TO.P,DIAG-Z80_CONTROL1,1,Pin_1*%
%TO.N,/Z80_CONTROL.RD*%
X142300000Y-41000000D03*
D13*
%TO.P,DIAG-Z80_CONTROL1,2,Pin_2*%
%TO.N,/Z80_CONTROL.WR*%
X144840000Y-41000000D03*
%TO.P,DIAG-Z80_CONTROL1,3,Pin_3*%
%TO.N,/Z80_CONTROL.IORQ*%
X147380000Y-41000000D03*
%TO.P,DIAG-Z80_CONTROL1,4,Pin_4*%
%TO.N,/Z80_CONTROL.MEMRQ*%
X149920000Y-41000000D03*
%TO.P,DIAG-Z80_CONTROL1,5,Pin_5*%
%TO.N,/Z80_CONTROL.BUSRQ*%
X152460000Y-41000000D03*
%TO.P,DIAG-Z80_CONTROL1,6,Pin_6*%
%TO.N,/Z80_CONTROL.WAIT*%
X155000000Y-41000000D03*
%TO.P,DIAG-Z80_CONTROL1,7,Pin_7*%
%TO.N,/Z80_CONTROL.NMI*%
X157540000Y-41000000D03*
%TO.P,DIAG-Z80_CONTROL1,8,Pin_8*%
%TO.N,/Z80_CONTROL.BUSACK*%
X160080000Y-41000000D03*
%TD*%
D17*
%TO.P,D1,1,K*%
%TO.N,GND*%
X254285000Y-121727100D03*
D18*
%TO.P,D1,2,A*%
%TO.N,Net-(D1-A)*%
X256825000Y-121727100D03*
%TD*%
D14*
%TO.P,SPI-LOCAL_ADD_L.OUT1,1,QB*%
%TO.N,/LOCAL_A1*%
X142000000Y-110500000D03*
D15*
%TO.P,SPI-LOCAL_ADD_L.OUT1,2,QC*%
%TO.N,/LOCAL_A2*%
X139460000Y-110500000D03*
%TO.P,SPI-LOCAL_ADD_L.OUT1,3,QD*%
%TO.N,/LOCAL_A3*%
X136920000Y-110500000D03*
%TO.P,SPI-LOCAL_ADD_L.OUT1,4,QE*%
%TO.N,/LOCAL_A4*%
X134380000Y-110500000D03*
%TO.P,SPI-LOCAL_ADD_L.OUT1,5,QF*%
%TO.N,/LOCAL_A5*%
X131840000Y-110500000D03*
%TO.P,SPI-LOCAL_ADD_L.OUT1,6,QG*%
%TO.N,/LOCAL_A6*%
X129300000Y-110500000D03*
%TO.P,SPI-LOCAL_ADD_L.OUT1,7,QH*%
%TO.N,/LOCAL_A7*%
X126760000Y-110500000D03*
%TO.P,SPI-LOCAL_ADD_L.OUT1,8,GND*%
%TO.N,GND*%
X124220000Y-110500000D03*
%TO.P,SPI-LOCAL_ADD_L.OUT1,9,QH'*%
%TO.N,Net-(SPI-LOCAL_ADD_HIGH.OUT1-SER)*%
X124220000Y-118120000D03*
%TO.P,SPI-LOCAL_ADD_L.OUT1,10,~{SRCLR}*%
%TO.N,/CORE_ESP32-WROVER/ESP_SPI_INT.MR*%
X126760000Y-118120000D03*
%TO.P,SPI-LOCAL_ADD_L.OUT1,11,SRCLK*%
%TO.N,/CORE_ESP32-WROVER/ESP_SPI_INT.SCK*%
X129300000Y-118120000D03*
%TO.P,SPI-LOCAL_ADD_L.OUT1,12,RCLK*%
%TO.N,/CORE_ESP32-WROVER/ESP_SPI_INT.STC*%
X131840000Y-118120000D03*
%TO.P,SPI-LOCAL_ADD_L.OUT1,13,~{OE}*%
%TO.N,/CORE_ESP32-WROVER/ESP_SPI_INT.OE*%
X134380000Y-118120000D03*
%TO.P,SPI-LOCAL_ADD_L.OUT1,14,SER*%
%TO.N,Net-(SPI-ESP_CONTROL.OUT1-QH')*%
X136920000Y-118120000D03*
%TO.P,SPI-LOCAL_ADD_L.OUT1,15,QA*%
%TO.N,/LOCAL_A0*%
X139460000Y-118120000D03*
%TO.P,SPI-LOCAL_ADD_L.OUT1,16,VCC*%
%TO.N,+5V*%
X142000000Y-118120000D03*
%TD*%
D14*
%TO.P,IC4,1,Q1*%
%TO.N,/LOCAL_A9*%
X180500000Y-146000000D03*
D15*
%TO.P,IC4,2,Q2*%
%TO.N,/LOCAL_A10*%
X177960000Y-146000000D03*
%TO.P,IC4,3,Q3*%
%TO.N,/LOCAL_A11*%
X175420000Y-146000000D03*
%TO.P,IC4,4,Q4*%
%TO.N,unconnected-(IC4-Q4-Pad4)*%
X172880000Y-146000000D03*
%TO.P,IC4,5,Q5*%
%TO.N,unconnected-(IC4-Q5-Pad5)*%
X170340000Y-146000000D03*
%TO.P,IC4,6,Q6*%
%TO.N,unconnected-(IC4-Q6-Pad6)*%
X167800000Y-146000000D03*
%TO.P,IC4,7,Q7*%
%TO.N,unconnected-(IC4-Q7-Pad7)*%
X165260000Y-146000000D03*
%TO.P,IC4,8,GND*%
%TO.N,GND*%
X162720000Y-146000000D03*
%TO.P,IC4,9,~{RCO}*%
%TO.N,unconnected-(IC4-~{RCO}-Pad9)*%
X162720000Y-153620000D03*
%TO.P,IC4,10,~{MRC}*%
%TO.N,/Z80_HARDLOCK*%
X165260000Y-153620000D03*
%TO.P,IC4,11,CPC*%
%TO.N,Net-(IC3-~{RCO})*%
X167800000Y-153620000D03*
%TO.P,IC4,12,~{CE}*%
%TO.N,/CACHE_DATASTATUS*%
X170340000Y-153620000D03*
%TO.P,IC4,13,CPR*%
%TO.N,Net-(IC3-~{RCO})*%
X172880000Y-153620000D03*
%TO.P,IC4,14,~{OE}*%
%TO.N,/CACHE_DATASTATUS*%
X175420000Y-153620000D03*
%TO.P,IC4,15,Q0*%
%TO.N,/LOCAL_A8*%
X177960000Y-153620000D03*
%TO.P,IC4,16,VCC*%
%TO.N,+5V*%
X180500000Y-153620000D03*
%TD*%
D10*
%TO.P,D8,1,K*%
%TO.N,/ESP_CONTROL.WAIT*%
X80040000Y-41080000D03*
D11*
%TO.P,D8,2,A*%
%TO.N,/Z80_CONTROL.WAIT*%
X80040000Y-36000000D03*
%TD*%
D16*
%TO.P,R8,1*%
%TO.N,/IOCACHE-128K_ZXspectrum/CACHE_CE2*%
X175000000Y-115580000D03*
D15*
%TO.P,R8,2*%
%TO.N,+5V*%
X175000000Y-105420000D03*
%TD*%
D14*
%TO.P,IC1,1,1OE*%
%TO.N,/ESP_CONTROL.BUSRQ*%
X96040000Y-74880000D03*
D15*
%TO.P,IC1,2,1A0*%
%TO.N,/ESP_CONTROL.RD*%
X93500000Y-74880000D03*
%TO.P,IC1,3,2Y0*%
%TO.N,/Z80_CONTROL.RD*%
X90960000Y-74880000D03*
%TO.P,IC1,4,1A1*%
%TO.N,/SPI-Z80-BUS_ZXspectrum/ESP_CONTROL.WR+ESP_PULSE*%
X88420000Y-74880000D03*
%TO.P,IC1,5,2Y1*%
%TO.N,/Z80_CONTROL.WR*%
X85880000Y-74880000D03*
%TO.P,IC1,6,1A2*%
%TO.N,/ESP_CONTROL.IORQ*%
X83340000Y-74880000D03*
%TO.P,IC1,7,2Y2*%
%TO.N,/Z80_CONTROL.IORQ*%
X80800000Y-74880000D03*
%TO.P,IC1,8,1A3*%
%TO.N,/ESP_CONTROL.MEMRQ*%
X78260000Y-74880000D03*
%TO.P,IC1,9,2Y3*%
%TO.N,/Z80_CONTROL.MEMRQ*%
X75720000Y-74880000D03*
%TO.P,IC1,10,GND*%
%TO.N,GND*%
X73180000Y-74880000D03*
%TO.P,IC1,11,2A3*%
%TO.N,/ESP_CONTROL.MEMRQ*%
X73180000Y-82500000D03*
%TO.P,IC1,12,1Y3*%
%TO.N,/LOCAL_CONTROL.MEMRQ*%
X75720000Y-82500000D03*
%TO.P,IC1,13,2A2*%
%TO.N,/ESP_CONTROL.IORQ*%
X78260000Y-82500000D03*
%TO.P,IC1,14,1Y2*%
%TO.N,/LOCAL_CONTROL.IORQ*%
X80800000Y-82500000D03*
%TO.P,IC1,15,2A1*%
%TO.N,/SPI-Z80-BUS_ZXspectrum/ESP_CONTROL.WR+ESP_PULSE*%
X83340000Y-82500000D03*
%TO.P,IC1,16,1Y1*%
%TO.N,/LOCAL_CONTROL.WR*%
X85880000Y-82500000D03*
%TO.P,IC1,17,2A0*%
%TO.N,/ESP_CONTROL.RD*%
X88420000Y-82500000D03*
%TO.P,IC1,18,1Y0*%
%TO.N,/LOCAL_CONTROL.RD*%
X90960000Y-82500000D03*
%TO.P,IC1,19,2OE*%
%TO.N,/!ESP_HARDLOCK*%
X93500000Y-82500000D03*
%TO.P,IC1,20,VCC*%
%TO.N,+5V*%
X96040000Y-82500000D03*
%TD*%
D12*
%TO.P,J1,1,Pin_1*%
%TO.N,/Z80_CONTROL.RD*%
X150280000Y-34000000D03*
D13*
%TO.P,J1,2,Pin_2*%
%TO.N,/Z80_CONTROL.WR*%
X152820000Y-34000000D03*
%TO.P,J1,3,Pin_3*%
%TO.N,/Z80_CONTROL.IORQ*%
X155360000Y-34000000D03*
%TO.P,J1,4,Pin_4*%
%TO.N,/Z80_CONTROL.MEMRQ*%
X157900000Y-34000000D03*
%TO.P,J1,5,Pin_5*%
%TO.N,/Z80_CONTROL.BUSRQ*%
X160440000Y-34000000D03*
%TO.P,J1,6,Pin_6*%
%TO.N,/Z80_CONTROL.WAIT*%
X162980000Y-34000000D03*
%TO.P,J1,7,Pin_7*%
%TO.N,/Z80_CONTROL.NMI*%
X165520000Y-34000000D03*
%TO.P,J1,8,Pin_8*%
%TO.N,/Z80_CONTROL.ROMCS*%
X168060000Y-34000000D03*
%TO.P,J1,9,Pin_9*%
%TO.N,/Z80_CONTROL.BUSACK*%
X170600000Y-34000000D03*
%TO.P,J1,10,Pin_10*%
%TO.N,/Z80_CONTROL.RESET*%
X173140000Y-34000000D03*
%TO.P,J1,11,Pin_11*%
%TO.N,/Z80_A7*%
X175680000Y-34000000D03*
%TO.P,J1,12,Pin_12*%
%TO.N,/Z80_A6*%
X178220000Y-34000000D03*
%TO.P,J1,13,Pin_13*%
%TO.N,/Z80_A5*%
X180760000Y-34000000D03*
%TO.P,J1,14,Pin_14*%
%TO.N,/Z80_A4*%
X183300000Y-34000000D03*
%TO.P,J1,15,Pin_15*%
%TO.N,/Z80_A3*%
X185840000Y-34000000D03*
%TO.P,J1,16,Pin_16*%
%TO.N,/Z80_A2*%
X188380000Y-34000000D03*
%TO.P,J1,17,Pin_17*%
%TO.N,/Z80_A1*%
X190920000Y-34000000D03*
%TO.P,J1,18,Pin_18*%
%TO.N,/Z80_A0*%
X193460000Y-34000000D03*
%TO.P,J1,19,Pin_19*%
%TO.N,/Z80_A15*%
X196000000Y-34000000D03*
%TO.P,J1,20,Pin_20*%
%TO.N,/Z80_A14*%
X198540000Y-34000000D03*
%TO.P,J1,21,Pin_21*%
%TO.N,/Z80_A13*%
X201080000Y-34000000D03*
%TO.P,J1,22,Pin_22*%
%TO.N,/Z80_A12*%
X203620000Y-34000000D03*
%TO.P,J1,23,Pin_23*%
%TO.N,/Z80_A11*%
X206160000Y-34000000D03*
%TO.P,J1,24,Pin_24*%
%TO.N,/Z80_A10*%
X208700000Y-34000000D03*
%TO.P,J1,25,Pin_25*%
%TO.N,/Z80_A9*%
X211240000Y-34000000D03*
%TO.P,J1,26,Pin_26*%
%TO.N,/Z80_A8*%
X213780000Y-34000000D03*
%TO.P,J1,27,Pin_27*%
%TO.N,/Z80_D7*%
X216320000Y-34000000D03*
%TO.P,J1,28,Pin_28*%
%TO.N,/Z80_D6*%
X218860000Y-34000000D03*
%TO.P,J1,29,Pin_29*%
%TO.N,/Z80_D5*%
X221400000Y-34000000D03*
%TO.P,J1,30,Pin_30*%
%TO.N,/Z80_D4*%
X223940000Y-34000000D03*
%TO.P,J1,31,Pin_31*%
%TO.N,/Z80_D3*%
X226480000Y-34000000D03*
%TO.P,J1,32,Pin_32*%
%TO.N,/Z80_D2*%
X229020000Y-34000000D03*
%TO.P,J1,33,Pin_33*%
%TO.N,/Z80_D1*%
X231560000Y-34000000D03*
%TO.P,J1,34,Pin_34*%
%TO.N,/Z80_D0*%
X234100000Y-34000000D03*
%TO.P,J1,35,Pin_35*%
%TO.N,unconnected-(J1-Pin_35-Pad35)*%
X236640000Y-34000000D03*
%TO.P,J1,36,Pin_36*%
%TO.N,unconnected-(J1-Pin_36-Pad36)*%
X239180000Y-34000000D03*
%TO.P,J1,37,Pin_37*%
%TO.N,unconnected-(J1-Pin_37-Pad37)*%
X241720000Y-34000000D03*
%TO.P,J1,38,Pin_38*%
%TO.N,unconnected-(J1-Pin_38-Pad38)*%
X244260000Y-34000000D03*
%TO.P,J1,39,Pin_39*%
%TO.N,/Z80-BUS_ZXspectrum48K/HOST VCC*%
X246800000Y-34000000D03*
%TO.P,J1,40,Pin_40*%
%TO.N,GND*%
X249340000Y-34000000D03*
%TD*%
D14*
%TO.P,Z80-RIO_DATA1,1,A->B*%
%TO.N,/RIO_CONTROL.OE*%
X222495000Y-71830000D03*
D15*
%TO.P,Z80-RIO_DATA1,2,A0*%
%TO.N,/Z80_D0*%
X222495000Y-74370000D03*
%TO.P,Z80-RIO_DATA1,3,A1*%
%TO.N,/Z80_D1*%
X222495000Y-76910000D03*
%TO.P,Z80-RIO_DATA1,4,A2*%
%TO.N,/Z80_D2*%
X222495000Y-79450000D03*
%TO.P,Z80-RIO_DATA1,5,A3*%
%TO.N,/Z80_D3*%
X222495000Y-81990000D03*
%TO.P,Z80-RIO_DATA1,6,A4*%
%TO.N,/Z80_D4*%
X222495000Y-84530000D03*
%TO.P,Z80-RIO_DATA1,7,A5*%
%TO.N,/Z80_D5*%
X222495000Y-87070000D03*
%TO.P,Z80-RIO_DATA1,8,A6*%
%TO.N,/Z80_D6*%
X222495000Y-89610000D03*
%TO.P,Z80-RIO_DATA1,9,A7*%
%TO.N,/Z80_D7*%
X222495000Y-92150000D03*
%TO.P,Z80-RIO_DATA1,10,GND*%
%TO.N,GND*%
X222495000Y-94690000D03*
%TO.P,Z80-RIO_DATA1,11,B7*%
%TO.N,/RIO-128K_ZXspectrum/ROM_D7*%
X230115000Y-94690000D03*
%TO.P,Z80-RIO_DATA1,12,B6*%
%TO.N,/RIO-128K_ZXspectrum/ROM_D6*%
X230115000Y-92150000D03*
%TO.P,Z80-RIO_DATA1,13,B5*%
%TO.N,/RIO-128K_ZXspectrum/ROM_D5*%
X230115000Y-89610000D03*
%TO.P,Z80-RIO_DATA1,14,B4*%
%TO.N,/RIO-128K_ZXspectrum/ROM_D4*%
X230115000Y-87070000D03*
%TO.P,Z80-RIO_DATA1,15,B3*%
%TO.N,/RIO-128K_ZXspectrum/ROM_D3*%
X230115000Y-84530000D03*
%TO.P,Z80-RIO_DATA1,16,B2*%
%TO.N,/RIO-128K_ZXspectrum/ROM_D2*%
X230115000Y-81990000D03*
%TO.P,Z80-RIO_DATA1,17,B1*%
%TO.N,/RIO-128K_ZXspectrum/ROM_D1*%
X230115000Y-79450000D03*
%TO.P,Z80-RIO_DATA1,18,B0*%
%TO.N,/RIO-128K_ZXspectrum/ROM_D0*%
X230115000Y-76910000D03*
%TO.P,Z80-RIO_DATA1,19,CE*%
%TO.N,/RIO_CONTROL.ROM_RDY*%
X230115000Y-74370000D03*
%TO.P,Z80-RIO_DATA1,20,VCC*%
%TO.N,+5V*%
X230115000Y-71830000D03*
%TD*%
D14*
%TO.P,SPI-LOCAL_ADDR_L.IN1,1,~{PL}*%
%TO.N,/CORE_ESP32-WROVER/ESP_SPI_INT.PL*%
X132880000Y-82000000D03*
D15*
%TO.P,SPI-LOCAL_ADDR_L.IN1,2,CP*%
%TO.N,/CORE_ESP32-WROVER/ESP_SPI_INT.SCK*%
X132880000Y-84540000D03*
%TO.P,SPI-LOCAL_ADDR_L.IN1,3,D4*%
%TO.N,/LOCAL_A4*%
X132880000Y-87080000D03*
%TO.P,SPI-LOCAL_ADDR_L.IN1,4,D5*%
%TO.N,/LOCAL_A5*%
X132880000Y-89620000D03*
%TO.P,SPI-LOCAL_ADDR_L.IN1,5,D6*%
%TO.N,/LOCAL_A6*%
X132880000Y-92160000D03*
%TO.P,SPI-LOCAL_ADDR_L.IN1,6,D7*%
%TO.N,/LOCAL_A7*%
X132880000Y-94700000D03*
%TO.P,SPI-LOCAL_ADDR_L.IN1,7,~{Q7}*%
%TO.N,Net-(SPI-LOCAL_ADDR_L.IN1-~{Q7})*%
X132880000Y-97240000D03*
%TO.P,SPI-LOCAL_ADDR_L.IN1,8,GND*%
%TO.N,GND*%
X132880000Y-99780000D03*
%TO.P,SPI-LOCAL_ADDR_L.IN1,9,Q7*%
%TO.N,unconnected-(SPI-LOCAL_ADDR_L.IN1-Q7-Pad9)*%
X140500000Y-99780000D03*
%TO.P,SPI-LOCAL_ADDR_L.IN1,10,DS*%
%TO.N,Net-(SPI-LOCAL_ADDR_L.IN1-DS)*%
X140500000Y-97240000D03*
%TO.P,SPI-LOCAL_ADDR_L.IN1,11,D0*%
%TO.N,/LOCAL_A0*%
X140500000Y-94700000D03*
%TO.P,SPI-LOCAL_ADDR_L.IN1,12,D1*%
%TO.N,/LOCAL_A1*%
X140500000Y-92160000D03*
%TO.P,SPI-LOCAL_ADDR_L.IN1,13,D2*%
%TO.N,/LOCAL_A2*%
X140500000Y-89620000D03*
%TO.P,SPI-LOCAL_ADDR_L.IN1,14,D3*%
%TO.N,/LOCAL_A3*%
X140500000Y-87080000D03*
%TO.P,SPI-LOCAL_ADDR_L.IN1,15,~{CE}*%
%TO.N,/CORE_ESP32-WROVER/ESP_SPI_INT.CE*%
X140500000Y-84540000D03*
%TO.P,SPI-LOCAL_ADDR_L.IN1,16,VCC*%
%TO.N,+5V*%
X140500000Y-82000000D03*
%TD*%
D14*
%TO.P,IC2,1*%
%TO.N,/CORE_ESP32-WROVER/ESP_PULSE*%
X126500000Y-35880000D03*
D15*
%TO.P,IC2,2*%
%TO.N,/ESP_CONTROL.WR*%
X123960000Y-35880000D03*
%TO.P,IC2,3*%
%TO.N,/SPI-Z80-BUS_ZXspectrum/ESP_CONTROL.WR+ESP_PULSE*%
X121420000Y-35880000D03*
%TO.P,IC2,4*%
%TO.N,GND*%
X118880000Y-35880000D03*
%TO.P,IC2,5*%
X116340000Y-35880000D03*
%TO.P,IC2,6*%
%TO.N,unconnected-(IC2-Pad6)*%
X113800000Y-35880000D03*
%TO.P,IC2,7,GND*%
%TO.N,GND*%
X111260000Y-35880000D03*
%TO.P,IC2,8*%
%TO.N,unconnected-(IC2-Pad8)*%
X111260000Y-43500000D03*
%TO.P,IC2,9*%
%TO.N,GND*%
X113800000Y-43500000D03*
%TO.P,IC2,10*%
X116340000Y-43500000D03*
%TO.P,IC2,11*%
%TO.N,unconnected-(IC2-Pad11)*%
X118880000Y-43500000D03*
%TO.P,IC2,12*%
%TO.N,GND*%
X121420000Y-43500000D03*
%TO.P,IC2,13*%
X123960000Y-43500000D03*
%TO.P,IC2,14,VCC*%
%TO.N,+5V*%
X126500000Y-43500000D03*
%TD*%
D14*
%TO.P,C2,1*%
%TO.N,+5V*%
X256402700Y-143500000D03*
D16*
%TO.P,C2,2*%
%TO.N,GND*%
X251402700Y-143500000D03*
%TD*%
D14*
%TO.P,SPI-LOCAL_ADD_H.IN1,1,~{PL}*%
%TO.N,/CORE_ESP32-WROVER/ESP_SPI_INT.PL*%
X181880000Y-84000000D03*
D15*
%TO.P,SPI-LOCAL_ADD_H.IN1,2,CP*%
%TO.N,/CORE_ESP32-WROVER/ESP_SPI_INT.SCK*%
X181880000Y-86540000D03*
%TO.P,SPI-LOCAL_ADD_H.IN1,3,D4*%
%TO.N,/LOCAL_A12*%
X181880000Y-89080000D03*
%TO.P,SPI-LOCAL_ADD_H.IN1,4,D5*%
%TO.N,/LOCAL_A13*%
X181880000Y-91620000D03*
%TO.P,SPI-LOCAL_ADD_H.IN1,5,D6*%
%TO.N,/LOCAL_A14*%
X181880000Y-94160000D03*
%TO.P,SPI-LOCAL_ADD_H.IN1,6,D7*%
%TO.N,/LOCAL_A15*%
X181880000Y-96700000D03*
%TO.P,SPI-LOCAL_ADD_H.IN1,7,~{Q7}*%
%TO.N,/CORE_ESP32-WROVER/ESP_SPI_INT.MISO*%
X181880000Y-99240000D03*
%TO.P,SPI-LOCAL_ADD_H.IN1,8,GND*%
%TO.N,GND*%
X181880000Y-101780000D03*
%TO.P,SPI-LOCAL_ADD_H.IN1,9,Q7*%
%TO.N,unconnected-(SPI-LOCAL_ADD_H.IN1-Q7-Pad9)*%
X189500000Y-101780000D03*
%TO.P,SPI-LOCAL_ADD_H.IN1,10,DS*%
%TO.N,Net-(SPI-LOCAL_ADDR_L.IN1-~{Q7})*%
X189500000Y-99240000D03*
%TO.P,SPI-LOCAL_ADD_H.IN1,11,D0*%
%TO.N,/LOCAL_A8*%
X189500000Y-96700000D03*
%TO.P,SPI-LOCAL_ADD_H.IN1,12,D1*%
%TO.N,/LOCAL_A9*%
X189500000Y-94160000D03*
%TO.P,SPI-LOCAL_ADD_H.IN1,13,D2*%
%TO.N,/LOCAL_A10*%
X189500000Y-91620000D03*
%TO.P,SPI-LOCAL_ADD_H.IN1,14,D3*%
%TO.N,/LOCAL_A11*%
X189500000Y-89080000D03*
%TO.P,SPI-LOCAL_ADD_H.IN1,15,~{CE}*%
%TO.N,/CORE_ESP32-WROVER/ESP_SPI_INT.CE*%
X189500000Y-86540000D03*
%TO.P,SPI-LOCAL_ADD_H.IN1,16,VCC*%
%TO.N,+5V*%
X189500000Y-84000000D03*
%TD*%
D10*
%TO.P,D10,1,K*%
%TO.N,Net-(D10-K)*%
X71910000Y-90010000D03*
D11*
%TO.P,D10,2,A*%
%TO.N,+5V*%
X66830000Y-90010000D03*
%TD*%
D16*
%TO.P,R7,1*%
%TO.N,/CACHE_DATASTATUS*%
X238400000Y-136080000D03*
D15*
%TO.P,R7,2*%
%TO.N,+5V*%
X238400000Y-125920000D03*
%TD*%
D14*
%TO.P,CACHE1,1,NC*%
%TO.N,unconnected-(CACHE1-NC-Pad1)*%
X152000000Y-92120000D03*
D15*
%TO.P,CACHE1,2,A16*%
%TO.N,/CACHE_CONTROL.A16*%
X152000000Y-94660000D03*
%TO.P,CACHE1,3,A14*%
%TO.N,/CACHE_SEL_2*%
X152000000Y-97200000D03*
%TO.P,CACHE1,4,A12*%
%TO.N,/CACHE_SEL_0*%
X152000000Y-99740000D03*
%TO.P,CACHE1,5,A7*%
%TO.N,/LOCAL_A7*%
X152000000Y-102280000D03*
%TO.P,CACHE1,6,A6*%
%TO.N,/LOCAL_A6*%
X152000000Y-104820000D03*
%TO.P,CACHE1,7,A5*%
%TO.N,/LOCAL_A5*%
X152000000Y-107360000D03*
%TO.P,CACHE1,8,A4*%
%TO.N,/LOCAL_A4*%
X152000000Y-109900000D03*
%TO.P,CACHE1,9,A3*%
%TO.N,/LOCAL_A3*%
X152000000Y-112440000D03*
%TO.P,CACHE1,10,A2*%
%TO.N,/LOCAL_A2*%
X152000000Y-114980000D03*
%TO.P,CACHE1,11,A1*%
%TO.N,/LOCAL_A1*%
X152000000Y-117520000D03*
%TO.P,CACHE1,12,A0*%
%TO.N,/LOCAL_A0*%
X152000000Y-120060000D03*
%TO.P,CACHE1,13,DQ0*%
%TO.N,/LOCAL_D0*%
X152000000Y-122600000D03*
%TO.P,CACHE1,14,DQ1*%
%TO.N,/LOCAL_D1*%
X152000000Y-125140000D03*
%TO.P,CACHE1,15,DQ2*%
%TO.N,/LOCAL_D2*%
X152000000Y-127680000D03*
%TO.P,CACHE1,16,VSS*%
%TO.N,GND*%
X152000000Y-130220000D03*
%TO.P,CACHE1,17,DQ3*%
%TO.N,/LOCAL_D3*%
X167240000Y-130220000D03*
%TO.P,CACHE1,18,DQ4*%
%TO.N,/LOCAL_D4*%
X167240000Y-127680000D03*
%TO.P,CACHE1,19,DQ5*%
%TO.N,/LOCAL_D5*%
X167240000Y-125140000D03*
%TO.P,CACHE1,20,DQ6*%
%TO.N,/LOCAL_D6*%
X167240000Y-122600000D03*
%TO.P,CACHE1,21,DQ7*%
%TO.N,/LOCAL_D7*%
X167240000Y-120060000D03*
%TO.P,CACHE1,22,CE#*%
%TO.N,/CACHE_CONTROL.CS*%
X167240000Y-117520000D03*
%TO.P,CACHE1,23,A10*%
%TO.N,/LOCAL_A11*%
X167240000Y-114980000D03*
%TO.P,CACHE1,24,OE#*%
%TO.N,/CACHE_CONTROL.OE*%
X167240000Y-112440000D03*
%TO.P,CACHE1,25,A11*%
%TO.N,/LOCAL_A10*%
X167240000Y-109900000D03*
%TO.P,CACHE1,26,A9*%
%TO.N,/LOCAL_A9*%
X167240000Y-107360000D03*
%TO.P,CACHE1,27,A8*%
%TO.N,/LOCAL_A8*%
X167240000Y-104820000D03*
%TO.P,CACHE1,28,A13*%
%TO.N,/CACHE_SEL_1*%
X167240000Y-102280000D03*
%TO.P,CACHE1,29,WE#*%
%TO.N,/CACHE_CONTROL.WE*%
X167240000Y-99740000D03*
%TO.P,CACHE1,30,CE2#*%
%TO.N,/IOCACHE-128K_ZXspectrum/CACHE_CE2*%
X167240000Y-97200000D03*
%TO.P,CACHE1,31,A15*%
%TO.N,/CACHE_SEL_3*%
X167240000Y-94660000D03*
%TO.P,CACHE1,32,VCC*%
%TO.N,+5V*%
X167240000Y-92120000D03*
%TD*%
D12*
%TO.P,DIAG-LOCAL_ADD_HIGH1,1,Pin_1*%
%TO.N,/LOCAL_A8*%
X190340000Y-65880000D03*
D13*
%TO.P,DIAG-LOCAL_ADD_HIGH1,2,Pin_2*%
%TO.N,/LOCAL_A9*%
X187800000Y-65880000D03*
%TO.P,DIAG-LOCAL_ADD_HIGH1,3,Pin_3*%
%TO.N,/LOCAL_A10*%
X185260000Y-65880000D03*
%TO.P,DIAG-LOCAL_ADD_HIGH1,4,Pin_4*%
%TO.N,/LOCAL_A11*%
X182720000Y-65880000D03*
%TO.P,DIAG-LOCAL_ADD_HIGH1,5,Pin_5*%
%TO.N,/LOCAL_A12*%
X180180000Y-65880000D03*
%TO.P,DIAG-LOCAL_ADD_HIGH1,6,Pin_6*%
%TO.N,/LOCAL_A13*%
X177640000Y-65880000D03*
%TO.P,DIAG-LOCAL_ADD_HIGH1,7,Pin_7*%
%TO.N,/LOCAL_A14*%
X175100000Y-65880000D03*
%TO.P,DIAG-LOCAL_ADD_HIGH1,8,Pin_8*%
%TO.N,/LOCAL_A15*%
X172560000Y-65880000D03*
%TD*%
D14*
%TO.P,SPI-ESP_CONTROL.OUT1,1,QB*%
%TO.N,/ESP_CONTROL.WR*%
X89700000Y-54000000D03*
D15*
%TO.P,SPI-ESP_CONTROL.OUT1,2,QC*%
%TO.N,/ESP_CONTROL.IORQ*%
X87160000Y-54000000D03*
%TO.P,SPI-ESP_CONTROL.OUT1,3,QD*%
%TO.N,/ESP_CONTROL.MEMRQ*%
X84620000Y-54000000D03*
%TO.P,SPI-ESP_CONTROL.OUT1,4,QE*%
%TO.N,/ESP_CONTROL.BUSRQ*%
X82080000Y-54000000D03*
%TO.P,SPI-ESP_CONTROL.OUT1,5,QF*%
%TO.N,/ESP_CONTROL.WAIT*%
X79540000Y-54000000D03*
%TO.P,SPI-ESP_CONTROL.OUT1,6,QG*%
%TO.N,/ESP_CONTROL.ROMCS*%
X77000000Y-54000000D03*
%TO.P,SPI-ESP_CONTROL.OUT1,7,QH*%
%TO.N,/ESP_CONTROL.NMI*%
X74460000Y-54000000D03*
%TO.P,SPI-ESP_CONTROL.OUT1,8,GND*%
%TO.N,GND*%
X71920000Y-54000000D03*
%TO.P,SPI-ESP_CONTROL.OUT1,9,QH'*%
%TO.N,Net-(SPI-ESP_CONTROL.OUT1-QH')*%
X71920000Y-61620000D03*
%TO.P,SPI-ESP_CONTROL.OUT1,10,~{SRCLR}*%
%TO.N,/CORE_ESP32-WROVER/ESP_SPI_INT.MR*%
X74460000Y-61620000D03*
%TO.P,SPI-ESP_CONTROL.OUT1,11,SRCLK*%
%TO.N,/CORE_ESP32-WROVER/ESP_SPI_INT.SCK*%
X77000000Y-61620000D03*
%TO.P,SPI-ESP_CONTROL.OUT1,12,RCLK*%
%TO.N,/CORE_ESP32-WROVER/ESP_SPI_INT.STC*%
X79540000Y-61620000D03*
%TO.P,SPI-ESP_CONTROL.OUT1,13,~{OE}*%
%TO.N,/CORE_ESP32-WROVER/ESP_SPI_INT.OE*%
X82080000Y-61620000D03*
%TO.P,SPI-ESP_CONTROL.OUT1,14,SER*%
%TO.N,Net-(SPI-ESP_CONTROL.OUT1-SER)*%
X84620000Y-61620000D03*
%TO.P,SPI-ESP_CONTROL.OUT1,15,QA*%
%TO.N,/ESP_CONTROL.RD*%
X87160000Y-61620000D03*
%TO.P,SPI-ESP_CONTROL.OUT1,16,VCC*%
%TO.N,+5V*%
X89700000Y-61620000D03*
%TD*%
D14*
%TO.P,Z80_ADDRLOW1,1,A->B*%
%TO.N,/Z80_BUS_CONTROL.Z80_ADD_DIR*%
X156000000Y-54500000D03*
D15*
%TO.P,Z80_ADDRLOW1,2,A0*%
%TO.N,/Z80_A0*%
X153460000Y-54500000D03*
%TO.P,Z80_ADDRLOW1,3,A1*%
%TO.N,/Z80_A1*%
X150920000Y-54500000D03*
%TO.P,Z80_ADDRLOW1,4,A2*%
%TO.N,/Z80_A2*%
X148380000Y-54500000D03*
%TO.P,Z80_ADDRLOW1,5,A3*%
%TO.N,/Z80_A3*%
X145840000Y-54500000D03*
%TO.P,Z80_ADDRLOW1,6,A4*%
%TO.N,/Z80_A4*%
X143300000Y-54500000D03*
%TO.P,Z80_ADDRLOW1,7,A5*%
%TO.N,/Z80_A5*%
X140760000Y-54500000D03*
%TO.P,Z80_ADDRLOW1,8,A6*%
%TO.N,/Z80_A6*%
X138220000Y-54500000D03*
%TO.P,Z80_ADDRLOW1,9,A7*%
%TO.N,/Z80_A7*%
X135680000Y-54500000D03*
%TO.P,Z80_ADDRLOW1,10,GND*%
%TO.N,GND*%
X133140000Y-54500000D03*
%TO.P,Z80_ADDRLOW1,11,B7*%
%TO.N,/LOCAL_A7*%
X133140000Y-62120000D03*
%TO.P,Z80_ADDRLOW1,12,B6*%
%TO.N,/LOCAL_A6*%
X135680000Y-62120000D03*
%TO.P,Z80_ADDRLOW1,13,B5*%
%TO.N,/LOCAL_A5*%
X138220000Y-62120000D03*
%TO.P,Z80_ADDRLOW1,14,B4*%
%TO.N,/LOCAL_A4*%
X140760000Y-62120000D03*
%TO.P,Z80_ADDRLOW1,15,B3*%
%TO.N,/LOCAL_A3*%
X143300000Y-62120000D03*
%TO.P,Z80_ADDRLOW1,16,B2*%
%TO.N,/LOCAL_A2*%
X145840000Y-62120000D03*
%TO.P,Z80_ADDRLOW1,17,B1*%
%TO.N,/LOCAL_A1*%
X148380000Y-62120000D03*
%TO.P,Z80_ADDRLOW1,18,B0*%
%TO.N,/LOCAL_A0*%
X150920000Y-62120000D03*
%TO.P,Z80_ADDRLOW1,19,CE*%
%TO.N,/Z80_BUS_CONTROL.Z80_ADD_OE*%
X153460000Y-62120000D03*
%TO.P,Z80_ADDRLOW1,20,VCC*%
%TO.N,+5V*%
X156000000Y-62120000D03*
%TD*%
D10*
%TO.P,D2,1,K*%
%TO.N,Net-(D2-K)*%
X104330000Y-136500000D03*
D11*
%TO.P,D2,2,A*%
%TO.N,/Z80_CONTROL.RESET*%
X109410000Y-136500000D03*
%TD*%
D14*
%TO.P,RN3,1,common*%
%TO.N,Net-(D12-K)*%
X94700000Y-45620000D03*
D15*
%TO.P,RN3,2,R1*%
%TO.N,/ESP_CONTROL.RD*%
X92160000Y-45620000D03*
%TO.P,RN3,3,R2*%
%TO.N,/ESP_CONTROL.WR*%
X89620000Y-45620000D03*
%TO.P,RN3,4,R3*%
%TO.N,/ESP_CONTROL.IORQ*%
X87080000Y-45620000D03*
%TO.P,RN3,5,R4*%
%TO.N,/ESP_CONTROL.MEMRQ*%
X84540000Y-45620000D03*
%TO.P,RN3,6,R5*%
%TO.N,/ESP_CONTROL.BUSRQ*%
X82000000Y-45620000D03*
%TO.P,RN3,7,R6*%
%TO.N,/ESP_CONTROL.WAIT*%
X79460000Y-45620000D03*
%TO.P,RN3,8,R7*%
%TO.N,/ESP_CONTROL.ROMCS*%
X76920000Y-45620000D03*
%TO.P,RN3,9,R8*%
%TO.N,/ESP_CONTROL.NMI*%
X74380000Y-45620000D03*
%TD*%
D12*
%TO.P,J3,1,Pin_1*%
%TO.N,/IORQ_FILTER_BIT*%
X207960000Y-54460000D03*
D13*
%TO.P,J3,2,Pin_2*%
%TO.N,/Z80_BUS_CONTROL.Z80_ADD_OE*%
X210500000Y-54460000D03*
%TO.P,J3,3,Pin_3*%
%TO.N,/Z80_HARDLOCK_RESET*%
X207960000Y-57000000D03*
%TO.P,J3,4,Pin_4*%
%TO.N,/Z80_BUS_CONTROL.Z80_ADD_DIR*%
X210500000Y-57000000D03*
%TO.P,J3,5,Pin_5*%
%TO.N,/Z80_HARDLOCK_SET*%
X207960000Y-59540000D03*
%TO.P,J3,6,Pin_6*%
%TO.N,/Z80_BUS_CONTROL.Z80_DATA_DIR*%
X210500000Y-59540000D03*
%TO.P,J3,7,Pin_7*%
%TO.N,/WAIT_IO*%
X207960000Y-62080000D03*
%TO.P,J3,8,Pin_8*%
%TO.N,/Z80_BUS_CONTROL.Z80_DATA_OE*%
X210500000Y-62080000D03*
%TO.P,J3,9,Pin_9*%
%TO.N,/CACHE_DATASTATUS*%
X207960000Y-64620000D03*
%TO.P,J3,10,Pin_10*%
%TO.N,/CACHE_CONTROL.DATASTATUS+PERM_Z80_IORQ*%
X210500000Y-64620000D03*
%TO.P,J3,11,Pin_11*%
%TO.N,/ESP_WAIT_RESET*%
X207960000Y-67160000D03*
%TO.P,J3,12,Pin_12*%
%TO.N,/CACHE_CONTROL.A16*%
X210500000Y-67160000D03*
%TO.P,J3,13,Pin_13*%
%TO.N,/Z80_A15*%
X207960000Y-69700000D03*
%TO.P,J3,14,Pin_14*%
%TO.N,/CACHE_CONTROL.WE*%
X210500000Y-69700000D03*
%TO.P,J3,15,Pin_15*%
%TO.N,/Z80_A14*%
X207960000Y-72240000D03*
%TO.P,J3,16,Pin_16*%
%TO.N,/CACHE_CONTROL.OE*%
X210500000Y-72240000D03*
%TO.P,J3,17,Pin_17*%
%TO.N,/RIO_CONTROL.A14*%
X207960000Y-74780000D03*
%TO.P,J3,18,Pin_18*%
%TO.N,/CACHE_CONTROL.CS*%
X210500000Y-74780000D03*
%TO.P,J3,19,Pin_19*%
%TO.N,/RIO_CONTROL.A15*%
X207960000Y-77320000D03*
%TO.P,J3,20,Pin_20*%
%TO.N,/Z80_HARDLOCK*%
X210500000Y-77320000D03*
%TO.P,J3,21,Pin_21*%
%TO.N,/RIO_CONTROL.WE*%
X207960000Y-79860000D03*
%TO.P,J3,22,Pin_22*%
%TO.N,/!Z80_HARDLOCK*%
X210500000Y-79860000D03*
%TO.P,J3,23,Pin_23*%
%TO.N,/RIO_CONTROL.OE*%
X207960000Y-82400000D03*
%TO.P,J3,24,Pin_24*%
%TO.N,/PERM_Z80_IORQ*%
X210500000Y-82400000D03*
%TO.P,J3,25*%
%TO.N,N/C*%
X207960000Y-84940000D03*
%TO.P,J3,26*%
X210500000Y-84940000D03*
%TO.P,J3,27*%
X207960000Y-87480000D03*
%TO.P,J3,28*%
X210500000Y-87480000D03*
%TO.P,J3,29*%
X207960000Y-90020000D03*
%TO.P,J3,30*%
X210500000Y-90020000D03*
%TO.P,J3,31*%
X207960000Y-92560000D03*
%TO.P,J3,32*%
X210500000Y-92560000D03*
%TD*%
D16*
%TO.P,R2,1*%
%TO.N,/CORE_ESP32-WROVER/ESP_INT*%
X69330000Y-147500000D03*
D15*
%TO.P,R2,2*%
%TO.N,+5V*%
X69330000Y-137340000D03*
%TD*%
D10*
%TO.P,D6,1,K*%
%TO.N,/ESP_CONTROL.NMI*%
X73040000Y-41000000D03*
D11*
%TO.P,D6,2,A*%
%TO.N,/Z80_CONTROL.NMI*%
X73040000Y-35920000D03*
%TD*%
D16*
%TO.P,R1,1*%
%TO.N,+5V*%
X261325000Y-131807100D03*
D15*
%TO.P,R1,2*%
%TO.N,Net-(D1-A)*%
X261325000Y-121647100D03*
%TD*%
D10*
%TO.P,D_PSUsafety1,1,K*%
%TO.N,Net-(D_PSUsafety1-K)*%
X244745000Y-119727100D03*
D11*
%TO.P,D_PSUsafety1,2,A*%
%TO.N,+5V*%
X249825000Y-119727100D03*
%TD*%
D16*
%TO.P,R3,1*%
%TO.N,GND*%
X77330000Y-137420000D03*
D15*
%TO.P,R3,2*%
%TO.N,/CORE_ESP32-WROVER/ESP_INT*%
X77330000Y-147580000D03*
%TD*%
D14*
%TO.P,SPI-LOCAL_DATA.OUT1,1,QB*%
%TO.N,/LOCAL_D1*%
X241500000Y-146500000D03*
D15*
%TO.P,SPI-LOCAL_DATA.OUT1,2,QC*%
%TO.N,/LOCAL_D2*%
X238960000Y-146500000D03*
%TO.P,SPI-LOCAL_DATA.OUT1,3,QD*%
%TO.N,/LOCAL_D3*%
X236420000Y-146500000D03*
%TO.P,SPI-LOCAL_DATA.OUT1,4,QE*%
%TO.N,/LOCAL_D4*%
X233880000Y-146500000D03*
%TO.P,SPI-LOCAL_DATA.OUT1,5,QF*%
%TO.N,/LOCAL_D5*%
X231340000Y-146500000D03*
%TO.P,SPI-LOCAL_DATA.OUT1,6,QG*%
%TO.N,/LOCAL_D6*%
X228800000Y-146500000D03*
%TO.P,SPI-LOCAL_DATA.OUT1,7,QH*%
%TO.N,/LOCAL_D7*%
X226260000Y-146500000D03*
%TO.P,SPI-LOCAL_DATA.OUT1,8,GND*%
%TO.N,GND*%
X223720000Y-146500000D03*
%TO.P,SPI-LOCAL_DATA.OUT1,9,QH'*%
%TO.N,Net-(SPI-ESP_CONTROL.OUT1-SER)*%
X223720000Y-154120000D03*
%TO.P,SPI-LOCAL_DATA.OUT1,10,~{SRCLR}*%
%TO.N,/CORE_ESP32-WROVER/ESP_SPI_INT.MR*%
X226260000Y-154120000D03*
%TO.P,SPI-LOCAL_DATA.OUT1,11,SRCLK*%
%TO.N,/CORE_ESP32-WROVER/ESP_SPI_INT.SCK*%
X228800000Y-154120000D03*
%TO.P,SPI-LOCAL_DATA.OUT1,12,RCLK*%
%TO.N,/CORE_ESP32-WROVER/ESP_SPI_INT.STC*%
X231340000Y-154120000D03*
%TO.P,SPI-LOCAL_DATA.OUT1,13,~{OE}*%
%TO.N,/ESP_CONTROL.WR*%
X233880000Y-154120000D03*
%TO.P,SPI-LOCAL_DATA.OUT1,14,SER*%
%TO.N,/CORE_ESP32-WROVER/ESP_SPI_INT.MOSI*%
X236420000Y-154120000D03*
%TO.P,SPI-LOCAL_DATA.OUT1,15,QA*%
%TO.N,/LOCAL_D0*%
X238960000Y-154120000D03*
%TO.P,SPI-LOCAL_DATA.OUT1,16,VCC*%
%TO.N,+5V*%
X241500000Y-154120000D03*
%TD*%
D10*
%TO.P,D9,1,K*%
%TO.N,/ESP_CONTROL.BUSRQ*%
X83540000Y-41040000D03*
D11*
%TO.P,D9,2,A*%
%TO.N,/Z80_CONTROL.BUSRQ*%
X83540000Y-35960000D03*
%TD*%
D10*
%TO.P,D12,1,K*%
%TO.N,Net-(D12-K)*%
X96500000Y-50040000D03*
D11*
%TO.P,D12,2,A*%
%TO.N,+5V*%
X96500000Y-55120000D03*
%TD*%
D19*
%TO.P,ESP1,1,3V3*%
%TO.N,unconnected-(ESP1-3V3-Pad1)*%
X69200000Y-155000000D03*
%TO.P,ESP1,2,EN*%
%TO.N,unconnected-(ESP1-EN-Pad2)*%
X71740000Y-155000000D03*
%TO.P,ESP1,3,GPIO36*%
%TO.N,/CORE_ESP32-WROVER/ESP_INT*%
X74280000Y-155000000D03*
%TO.P,ESP1,4,GPIO39*%
%TO.N,/Z80_HARDLOCK*%
X76820000Y-155000000D03*
%TO.P,ESP1,5,GPIO34*%
%TO.N,unconnected-(ESP1-GPIO34-Pad5)*%
X79360000Y-155000000D03*
%TO.P,ESP1,6,GPIO35*%
%TO.N,unconnected-(ESP1-GPIO35-Pad6)*%
X81900000Y-155000000D03*
%TO.P,ESP1,7,GPIO32*%
%TO.N,unconnected-(ESP1-GPIO32-Pad7)*%
X84440000Y-155000000D03*
%TO.P,ESP1,8,GPIO33*%
%TO.N,/CORE_ESP32-WROVER/ESP_SPI_INT.OE*%
X86980000Y-155000000D03*
%TO.P,ESP1,9,GPIO25*%
%TO.N,/CORE_ESP32-WROVER/ESP_SPI_INT.PL*%
X89520000Y-155000000D03*
%TO.P,ESP1,10,GPIO26*%
%TO.N,/CORE_ESP32-WROVER/ESP_SPI_INT.STC*%
X92060000Y-155000000D03*
%TO.P,ESP1,11,GPIO27*%
%TO.N,/CORE_ESP32-WROVER/ESP_PULSE*%
X94600000Y-155000000D03*
%TO.P,ESP1,12,GPIO14*%
%TO.N,/CORE_ESP32-WROVER/EX_SCK*%
X97140000Y-155000000D03*
%TO.P,ESP1,13,GPIO12*%
%TO.N,/CORE_ESP32-WROVER/EX_MISO*%
X99680000Y-155000000D03*
%TO.P,ESP1,14,GND*%
%TO.N,unconnected-(ESP1-GND-Pad14)*%
X102220000Y-155000000D03*
%TO.P,ESP1,15,GPIO13*%
%TO.N,/CORE_ESP32-WROVER/EX_MOSI*%
X104760000Y-155000000D03*
%TO.P,ESP1,16,GPIO9*%
%TO.N,unconnected-(ESP1-GPIO9-Pad16)*%
X107300000Y-155000000D03*
%TO.P,ESP1,17,GPIO10*%
%TO.N,unconnected-(ESP1-GPIO10-Pad17)*%
X109840000Y-155000000D03*
%TO.P,ESP1,18,GPIO11*%
%TO.N,/ESP_WAIT_RESET*%
X112380000Y-155000000D03*
%TO.P,ESP1,19,+5v*%
%TO.N,unconnected-(ESP1-+5v-Pad19)*%
X114920000Y-155000000D03*
%TO.P,ESP1,20,+5V*%
%TO.N,+5V*%
X117460000Y-155000000D03*
%TO.P,ESP1,21,GND*%
%TO.N,GND*%
X120000000Y-155000000D03*
%TO.P,ESP1,22,GPIO6*%
%TO.N,/ESP_ROMSEL_1*%
X120000000Y-130000000D03*
%TO.P,ESP1,23,GPIO7*%
%TO.N,/ESP_ROMSEL_0*%
X117460000Y-130000000D03*
%TO.P,ESP1,24,GPIO15*%
%TO.N,/CORE_ESP32-WROVER/SD_CARD_SS*%
X114920000Y-130000000D03*
%TO.P,ESP1,25,GPIO8*%
%TO.N,/CORE_ESP32-WROVER/EX_SS*%
X112380000Y-130000000D03*
%TO.P,ESP1,26,GPIO2*%
%TO.N,/ESP_HARDLOCK*%
X109840000Y-130000000D03*
%TO.P,ESP1,27,GPIO0*%
%TO.N,unconnected-(ESP1-GPIO0-Pad27)*%
X107300000Y-130000000D03*
%TO.P,ESP1,28,GPIO4*%
%TO.N,/ESP_ROM_WR_PROTECT*%
X104760000Y-130000000D03*
%TO.P,ESP1,29,GND*%
%TO.N,unconnected-(ESP1-GND-Pad29)*%
X102220000Y-130000000D03*
%TO.P,ESP1,30,GND*%
%TO.N,unconnected-(ESP1-GND-Pad30)*%
X99680000Y-130000000D03*
%TO.P,ESP1,31,GPIO5*%
%TO.N,/CORE_ESP32-WROVER/ESP_SPI_INT.CE*%
X97140000Y-130000000D03*
%TO.P,ESP1,32,GPIO18*%
%TO.N,/CORE_ESP32-WROVER/ESP_SPI_INT.SCK*%
X94600000Y-130000000D03*
%TO.P,ESP1,33,GPIO19*%
%TO.N,/CORE_ESP32-WROVER/ESP_SPI_INT.MISO*%
X92060000Y-130000000D03*
%TO.P,ESP1,34,GND*%
%TO.N,GND*%
X89520000Y-130000000D03*
%TO.P,ESP1,35,GPIO21*%
%TO.N,Net-(D2-K)*%
X86980000Y-130000000D03*
%TO.P,ESP1,36,RX_GPIO3*%
%TO.N,unconnected-(ESP1-RX_GPIO3-Pad36)*%
X84440000Y-130000000D03*
%TO.P,ESP1,37,TX_GPIO1*%
%TO.N,unconnected-(ESP1-TX_GPIO1-Pad37)*%
X81900000Y-130000000D03*
%TO.P,ESP1,38,GPIO22*%
%TO.N,/CORE_ESP32-WROVER/SD_CARD_SS*%
X79360000Y-130000000D03*
%TO.P,ESP1,39,GPIO23*%
%TO.N,/CORE_ESP32-WROVER/ESP_SPI_INT.MOSI*%
X76820000Y-130000000D03*
%TO.P,ESP1,40,GND*%
%TO.N,GND*%
X74280000Y-130000000D03*
%TO.P,ESP1,41*%
%TO.N,N/C*%
X71740000Y-130000000D03*
%TO.P,ESP1,42*%
X69200000Y-130000000D03*
%TD*%
D16*
%TO.P,R4,1*%
%TO.N,+5V*%
X127000000Y-147500000D03*
D15*
%TO.P,R4,2*%
%TO.N,/CORE_ESP32-WROVER/ESP_SPI_INT.MR*%
X127000000Y-137340000D03*
%TD*%
D16*
%TO.P,R6,1*%
%TO.N,Net-(RIO_DECODER1-A->B)*%
X259115000Y-98450000D03*
D15*
%TO.P,R6,2*%
%TO.N,+5V*%
X259115000Y-108610000D03*
%TD*%
D14*
%TO.P,RIO1,1,NC*%
%TO.N,unconnected-(RIO1-NC-Pad1)*%
X238375000Y-53450000D03*
D15*
%TO.P,RIO1,2,A16*%
%TO.N,/RIO_CONTROL.A16*%
X238375000Y-55990000D03*
%TO.P,RIO1,3,A14*%
%TO.N,/RIO_CONTROL.A14*%
X238375000Y-58530000D03*
%TO.P,RIO1,4,A12*%
%TO.N,/Z80_A12*%
X238375000Y-61070000D03*
%TO.P,RIO1,5,A7*%
%TO.N,/Z80_A7*%
X238375000Y-63610000D03*
%TO.P,RIO1,6,A6*%
%TO.N,/Z80_A6*%
X238375000Y-66150000D03*
%TO.P,RIO1,7,A5*%
%TO.N,/Z80_A5*%
X238375000Y-68690000D03*
%TO.P,RIO1,8,A4*%
%TO.N,/Z80_A4*%
X238375000Y-71230000D03*
%TO.P,RIO1,9,A3*%
%TO.N,/Z80_A3*%
X238375000Y-73770000D03*
%TO.P,RIO1,10,A2*%
%TO.N,/Z80_A2*%
X238375000Y-76310000D03*
%TO.P,RIO1,11,A1*%
%TO.N,/Z80_A1*%
X238375000Y-78850000D03*
%TO.P,RIO1,12,A0*%
%TO.N,/Z80_A0*%
X238375000Y-81390000D03*
%TO.P,RIO1,13,DQ0*%
%TO.N,/RIO-128K_ZXspectrum/ROM_D0*%
X238375000Y-83930000D03*
%TO.P,RIO1,14,DQ1*%
%TO.N,/RIO-128K_ZXspectrum/ROM_D1*%
X238375000Y-86470000D03*
%TO.P,RIO1,15,DQ2*%
%TO.N,/RIO-128K_ZXspectrum/ROM_D2*%
X238375000Y-89010000D03*
%TO.P,RIO1,16,VSS*%
%TO.N,GND*%
X238375000Y-91550000D03*
%TO.P,RIO1,17,DQ3*%
%TO.N,/RIO-128K_ZXspectrum/ROM_D3*%
X253615000Y-91550000D03*
%TO.P,RIO1,18,DQ4*%
%TO.N,/RIO-128K_ZXspectrum/ROM_D4*%
X253615000Y-89010000D03*
%TO.P,RIO1,19,DQ5*%
%TO.N,/RIO-128K_ZXspectrum/ROM_D5*%
X253615000Y-86470000D03*
%TO.P,RIO1,20,DQ6*%
%TO.N,/RIO-128K_ZXspectrum/ROM_D6*%
X253615000Y-83930000D03*
%TO.P,RIO1,21,DQ7*%
%TO.N,/RIO-128K_ZXspectrum/ROM_D7*%
X253615000Y-81390000D03*
%TO.P,RIO1,22,CE#*%
%TO.N,/RIO_CONTROL.CE*%
X253615000Y-78850000D03*
%TO.P,RIO1,23,A10*%
%TO.N,/Z80_A10*%
X253615000Y-76310000D03*
%TO.P,RIO1,24,OE#*%
%TO.N,/RIO_CONTROL.OE*%
X253615000Y-73770000D03*
%TO.P,RIO1,25,A11*%
%TO.N,/Z80_A11*%
X253615000Y-71230000D03*
%TO.P,RIO1,26,A9*%
%TO.N,/Z80_A9*%
X253615000Y-68690000D03*
%TO.P,RIO1,27,A8*%
%TO.N,/Z80_A8*%
X253615000Y-66150000D03*
%TO.P,RIO1,28,A13*%
%TO.N,/Z80_A13*%
X253615000Y-63610000D03*
%TO.P,RIO1,29,WE#*%
%TO.N,/RIO_CONTROL.WE*%
X253615000Y-61070000D03*
%TO.P,RIO1,30,CE2#*%
%TO.N,/RIO-128K_ZXspectrum/RIO_CE2*%
X253615000Y-58530000D03*
%TO.P,RIO1,31,A15*%
%TO.N,/RIO_CONTROL.A15*%
X253615000Y-55990000D03*
%TO.P,RIO1,32,VCC*%
%TO.N,+5V*%
X253615000Y-53450000D03*
%TD*%
D10*
%TO.P,D4,1,K*%
%TO.N,/Z80_HARDLOCK_RESET*%
X86180000Y-142420000D03*
D11*
%TO.P,D4,2,A*%
%TO.N,/CORE_ESP32-WROVER/ESP_INT*%
X86180000Y-147500000D03*
%TD*%
D20*
%TO.N,/ESP_WAIT_RESET*%
X164001500Y-139686000D03*
X198015000Y-136183300D03*
X162441300Y-143090000D03*
X106253600Y-138939300D03*
X196621900Y-57318000D03*
%TO.N,GND*%
X131269000Y-66990600D03*
X109852700Y-84425500D03*
X179674300Y-112738100D03*
X116992800Y-98429400D03*
%TO.N,/Z80_HARDLOCK*%
X189253700Y-79629800D03*
X192321000Y-81189400D03*
X154235500Y-148352700D03*
X167431000Y-78640700D03*
X210205100Y-95193100D03*
%TO.N,/CORE_ESP32-WROVER/ESP_PULSE*%
X97657900Y-151757000D03*
X122442600Y-147318000D03*
%TO.N,+5V*%
X246982400Y-50007100D03*
X66830000Y-94341600D03*
X65128300Y-133604000D03*
X230413800Y-49335000D03*
X106820400Y-55120000D03*
X236015800Y-49335000D03*
%TO.N,/ESP_ROMSEL_1*%
X116207200Y-126689200D03*
%TO.N,/ESP_ROM_WR_PROTECT*%
X123814100Y-73767700D03*
%TO.N,/CACHE_DATASTATUS*%
X162798800Y-84849700D03*
X148835500Y-94464500D03*
X192503300Y-106012400D03*
X146562800Y-153910600D03*
X204828300Y-95959300D03*
X155393600Y-89632200D03*
X193266400Y-99056700D03*
X158973100Y-147283200D03*
X157783400Y-155860300D03*
X148512500Y-155860300D03*
%TO.N,/CACHE_CONTROL.A16*%
X160748400Y-89659600D03*
X155695300Y-95272900D03*
X199352700Y-64328800D03*
X169236400Y-64232800D03*
X170393300Y-88516400D03*
%TO.N,/LOCAL_A7*%
X144934000Y-102280000D03*
X144624700Y-113098200D03*
%TO.N,/LOCAL_A4*%
X145934100Y-108248300D03*
X154235500Y-78507000D03*
%TO.N,/LOCAL_A3*%
X163920000Y-67308600D03*
%TO.N,/LOCAL_A1*%
X145934100Y-117520000D03*
X148995000Y-76478400D03*
X137401300Y-88908700D03*
X140424600Y-77160900D03*
%TO.N,/LOCAL_A0*%
X144610000Y-68043300D03*
X162752500Y-88382100D03*
X143775700Y-86637000D03*
%TO.N,/LOCAL_D0*%
X182437600Y-136706900D03*
X200990100Y-148975000D03*
X170306600Y-138764800D03*
%TO.N,/LOCAL_D1*%
X173246900Y-144192100D03*
X235765400Y-141453100D03*
%TO.N,/CORE_ESP32-WROVER/ESP_SPI_INT.MOSI*%
X65185800Y-138457100D03*
X243218100Y-156382300D03*
X80294800Y-141935000D03*
X69436500Y-139475400D03*
%TO.N,/CORE_ESP32-WROVER/ESP_SPI_INT.MISO*%
X158870700Y-59543000D03*
X113593500Y-95130200D03*
X180761000Y-72119700D03*
X183996400Y-89314100D03*
X98386700Y-122124900D03*
X171447400Y-72119700D03*
X110515200Y-104141000D03*
X98929500Y-104141000D03*
%TO.N,/CORE_ESP32-WROVER/ESP_SPI_INT.STC*%
X144768000Y-145257000D03*
X85890000Y-64176200D03*
X102283000Y-142826900D03*
X144519100Y-132448900D03*
X108352600Y-112718200D03*
%TO.N,/CORE_ESP32-WROVER/ESP_SPI_INT.OE*%
X142527600Y-146257100D03*
X120434100Y-122413500D03*
X120658600Y-144108600D03*
X94667400Y-60210800D03*
X106868500Y-108418000D03*
X101175200Y-122842600D03*
X143519000Y-133853300D03*
X101143400Y-109170800D03*
X88051800Y-55896300D03*
X91381800Y-150288300D03*
%TO.N,/CORE_ESP32-WROVER/ESP_SPI_INT.SCK*%
X101027200Y-95795600D03*
X156226800Y-126760700D03*
X156265000Y-138992300D03*
X145395600Y-138831000D03*
X160891900Y-132832400D03*
X167960500Y-85915700D03*
X159118500Y-123932700D03*
X145145500Y-128125700D03*
%TO.N,/CORE_ESP32-WROVER/ESP_SPI_INT.CE*%
X203660500Y-115988500D03*
X217038600Y-148891100D03*
X94101000Y-107927400D03*
X191835200Y-96767200D03*
X194266400Y-115988500D03*
X142559000Y-79143100D03*
X194206800Y-94188200D03*
X220505400Y-145424300D03*
%TO.N,/ESP_HARDLOCK*%
X103951300Y-127786200D03*
%TO.N,/LOCAL_D2*%
X233584200Y-142283200D03*
%TO.N,/LOCAL_D3*%
X207055900Y-126130700D03*
%TO.N,/LOCAL_D5*%
X192512100Y-141345400D03*
X200532900Y-141549800D03*
%TO.N,/CORE_ESP32-WROVER/ESP_SPI_INT.PL*%
X197703000Y-151039200D03*
X136070000Y-80415200D03*
X187035800Y-153743000D03*
X175162500Y-156060800D03*
%TO.N,/LOCAL_D7*%
X172266100Y-124964000D03*
%TO.N,/!ESP_HARDLOCK*%
X110605600Y-83056700D03*
%TO.N,/CACHE_CONTROL.CS*%
X203783800Y-88539300D03*
X170772400Y-118762300D03*
X198302500Y-85094800D03*
X200980900Y-123880500D03*
X174994000Y-123769400D03*
%TO.N,/LOCAL_A10*%
X186692800Y-89828000D03*
%TO.N,/CACHE_CONTROL.OE*%
X173441400Y-91320300D03*
X215667500Y-85834700D03*
X214957100Y-67348700D03*
X175610000Y-113448000D03*
X213032400Y-70445100D03*
X216005400Y-99412600D03*
%TO.N,/LOCAL_A11*%
X185789300Y-92236700D03*
X164333000Y-114644400D03*
%TO.N,/LOCAL_A9*%
X174862500Y-130045800D03*
X177307100Y-127539900D03*
%TO.N,/LOCAL_A8*%
X193897700Y-89076000D03*
X177960000Y-148458900D03*
X184001800Y-136026700D03*
%TO.N,/CACHE_CONTROL.WE*%
X208186600Y-109333900D03*
%TO.N,/Z80_CONTROL.RESET*%
X260425800Y-126034500D03*
X124862100Y-151491600D03*
X162308500Y-156799700D03*
X144467600Y-148207300D03*
X246982100Y-157720000D03*
X153937700Y-153893000D03*
X151873700Y-151740000D03*
X252832000Y-34034000D03*
%TO.N,/Z80_CONTROL.BUSRQ*%
X89369700Y-34568400D03*
X68325500Y-64841100D03*
X69508900Y-80429600D03*
X72046000Y-109294900D03*
%TO.N,/Z80_CONTROL.WAIT*%
X114328000Y-77058600D03*
X112095200Y-88643100D03*
%TO.N,/Z80_CONTROL.BUSACK*%
X143203200Y-43323100D03*
X107859000Y-89926200D03*
X110085900Y-93567700D03*
%TO.N,/ESP_CONTROL.BUSRQ*%
X105980300Y-60424100D03*
%TO.N,/ESP_CONTROL.ROMCS*%
X118753900Y-47217100D03*
%TO.N,Net-(IC3-~{RCO})*%
X160597200Y-85583700D03*
X156607200Y-148611300D03*
%TO.N,/Z80_CONTROL.NMI*%
X73302700Y-114052800D03*
%TO.N,/ESP_CONTROL.WR*%
X260189700Y-43182700D03*
X136408300Y-36287400D03*
X260425800Y-111601500D03*
X262018000Y-41354400D03*
X232610000Y-151246000D03*
X126050000Y-54460000D03*
%TO.N,/ESP_CONTROL.IORQ*%
X115367600Y-49067500D03*
%TO.N,/ESP_CONTROL.MEMRQ*%
X112187600Y-52115300D03*
%TO.N,/Z80_CONTROL.MEMRQ*%
X110205900Y-45642400D03*
X137527000Y-38179800D03*
%TO.N,/Z80_CONTROL.IORQ*%
X129641400Y-52024800D03*
X82578500Y-101686600D03*
X121988000Y-101213600D03*
X75244400Y-71720200D03*
X68253300Y-85308500D03*
X70072500Y-78184500D03*
%TO.N,/Z80_CONTROL.WR*%
X110330200Y-63309200D03*
X82052100Y-80698300D03*
X96741900Y-80698300D03*
%TO.N,/Z80_CONTROL.RD*%
X107922000Y-62397900D03*
%TO.N,/LOCAL_CONTROL.IORQ*%
X113036600Y-75725100D03*
X112353000Y-85675700D03*
%TO.N,/LOCAL_CONTROL.WR*%
X108852600Y-86925800D03*
X113073900Y-74035400D03*
%TO.N,/LOCAL_CONTROL.RD*%
X107852500Y-88426000D03*
X111682900Y-70618400D03*
X109845100Y-72456100D03*
%TO.N,/CACHE_CONTROL.DATASTATUS+PERM_Z80_IORQ*%
X192514900Y-66276400D03*
X166617000Y-71773500D03*
X199906900Y-66957100D03*
X189404700Y-70788200D03*
%TO.N,/IORQ_FILTER_BIT*%
X169077700Y-44633900D03*
%TO.N,/Z80_BUS_CONTROL.Z80_ADD_OE*%
X198223200Y-51894200D03*
%TO.N,/Z80_BUS_CONTROL.Z80_ADD_DIR*%
X204419900Y-55581400D03*
%TO.N,/Z80_BUS_CONTROL.Z80_DATA_DIR*%
X226946400Y-66958900D03*
%TO.N,/CACHE_SEL_2*%
X158871200Y-90328800D03*
%TO.N,/CACHE_SEL_0*%
X172019600Y-93579600D03*
X181135800Y-107619000D03*
%TO.N,/Z80_BUS_CONTROL.Z80_DATA_OE*%
X255737400Y-105886500D03*
X237015600Y-124409900D03*
%TO.N,/Z80_A0*%
X241859900Y-53111200D03*
X184305300Y-42097200D03*
X144623700Y-51597800D03*
%TO.N,/Z80_A1*%
X227766300Y-44633200D03*
%TO.N,/Z80_A2*%
X232910500Y-48037900D03*
%TO.N,/Z80_A3*%
X199271900Y-50821200D03*
X184823300Y-35703100D03*
X198494700Y-46005500D03*
%TO.N,/CACHE_SEL_1*%
X189636700Y-111584200D03*
X190814800Y-108043500D03*
%TO.N,/Z80_A4*%
X173769400Y-45175600D03*
%TO.N,/Z80_HARDLOCK_SET*%
X221110800Y-107548700D03*
X203936500Y-59540000D03*
X197017400Y-88904800D03*
X200426900Y-68864100D03*
X221272600Y-100546600D03*
X196056500Y-70887400D03*
%TO.N,/Z80_HARDLOCK_RESET*%
X215175900Y-107531300D03*
X204163900Y-100306000D03*
X147945500Y-144290400D03*
X241412400Y-119743400D03*
X242460700Y-158982400D03*
X234557700Y-114917100D03*
X214756900Y-100306000D03*
X154393600Y-150738500D03*
%TO.N,/Z80_A6*%
X250383100Y-67055200D03*
X250560700Y-37131300D03*
X169330000Y-32470200D03*
%TO.N,/Z80_A7*%
X235076400Y-67365400D03*
X172666200Y-43177400D03*
%TO.N,/Z80_D0*%
X225370200Y-74370000D03*
X248132800Y-45104700D03*
%TO.N,/Z80_D3*%
X216662800Y-83794000D03*
%TO.N,/Z80_D6*%
X215940000Y-113916900D03*
X220050100Y-93108900D03*
%TO.N,/Z80_A9*%
X203357900Y-41882100D03*
%TO.N,/Z80_A11*%
X236076500Y-55538600D03*
X194564800Y-43570500D03*
X248289400Y-69644300D03*
%TO.N,/Z80_A12*%
X230430900Y-40185900D03*
%TO.N,/Z80_A15*%
X181153700Y-55920000D03*
%TO.N,/RIO_CONTROL.A14*%
X259687200Y-95154900D03*
X213269500Y-105836700D03*
X240288900Y-79172500D03*
X213269500Y-97533300D03*
X253624500Y-102944900D03*
X229368400Y-105836700D03*
X258285600Y-102944900D03*
X208161400Y-96443200D03*
%TO.N,/RIO_CONTROL.A15*%
X209940200Y-37884200D03*
X198963200Y-76595300D03*
%TO.N,/RIO_CONTROL.OE*%
X204036100Y-112644200D03*
X257101100Y-74159500D03*
X257101100Y-110666600D03*
X231281200Y-69912200D03*
X200981500Y-82400000D03*
X250705500Y-73954000D03*
%TO.N,/RIO_CONTROL.WE*%
X201423000Y-80010300D03*
X214997100Y-38423200D03*
%TO.N,Net-(SPI-ESP_CONTROL.OUT1-QH')*%
X106716000Y-119736500D03*
X88789200Y-66653000D03*
X126708000Y-119921700D03*
%TO.N,Net-(SPI-ESP_CONTROL.OUT1-SER)*%
X183693200Y-142327000D03*
X102011100Y-125670200D03*
X183629500Y-148475200D03*
%TO.N,Net-(SPI-LOCAL_ADDR_L.IN1-~{Q7})*%
X200369000Y-135072100D03*
X196951800Y-134880200D03*
X203838000Y-119702000D03*
X205338100Y-117580400D03*
X140770500Y-134703100D03*
X202243500Y-100602300D03*
X189046800Y-130189600D03*
%TO.N,Net-(SPI-LOCAL_ADD_HIGH.OUT1-SER)*%
X134038100Y-129998400D03*
%TO.N,Net-(SPI-LOCAL_DATA.IN1-~{Q7})*%
X95965700Y-127240500D03*
%TO.N,/CORE_ESP32-WROVER/ESP_SPI_INT.MR*%
X87539100Y-65402900D03*
X176746700Y-121630200D03*
X204838100Y-121630200D03*
X221527200Y-146968300D03*
X107150400Y-116768800D03*
X218595100Y-149963600D03*
X129872400Y-121232400D03*
%TO.N,/RIO-128K_ZXspectrum/ROM_D3*%
X237067300Y-95392800D03*
%TO.N,/RIO-128K_ZXspectrum/ROM_D4*%
X235674400Y-96346500D03*
%TO.N,/RIO-128K_ZXspectrum/ROM_D5*%
X244685700Y-86470000D03*
X234133500Y-89610000D03*
%TO.N,/RIO-128K_ZXspectrum/ROM_D6*%
X230785700Y-96517900D03*
%TD*%
D21*
%TO.N,/ESP_WAIT_RESET*%
X198015000Y-135658000D02*
X202587800Y-131085200D01*
X202410300Y-116683900D02*
X202410300Y-114925100D01*
X199577700Y-90344300D02*
X199533400Y-90300000D01*
X164001500Y-139686000D02*
X162441300Y-141246200D01*
X197306600Y-80960300D02*
X197306600Y-70369500D01*
X199577700Y-102586300D02*
X199577700Y-90344300D01*
X162441300Y-141246200D02*
X162441300Y-143090000D01*
X199577700Y-83231400D02*
X197306600Y-80960300D01*
X202410300Y-114925100D02*
X199120100Y-111634900D01*
X202587800Y-131085200D02*
X202587800Y-116861400D01*
X106253600Y-140077700D02*
X106253600Y-138939300D01*
X196621900Y-69684800D02*
X196621900Y-66194700D01*
X196621900Y-66194700D02*
X196102400Y-65675200D01*
X196102400Y-62982400D02*
X196621900Y-62462900D01*
X199533400Y-86778600D02*
X199577700Y-86734300D01*
X202587800Y-116861400D02*
X202410300Y-116683900D01*
X199533400Y-90300000D02*
X199533400Y-86778600D01*
X112380000Y-146204100D02*
X106253600Y-140077700D01*
X198015000Y-136183300D02*
X198015000Y-135658000D01*
X199120100Y-103043900D02*
X199577700Y-102586300D01*
X196621900Y-62462900D02*
X196621900Y-57318000D01*
X196102400Y-65675200D02*
X196102400Y-62982400D01*
X199577700Y-86734300D02*
X199577700Y-83231400D01*
X199120100Y-111634900D02*
X199120100Y-103043900D01*
X197306600Y-70369500D02*
X196621900Y-69684800D01*
X112380000Y-155000000D02*
X112380000Y-146204100D01*
%TO.N,GND*%
X152000000Y-136551900D02*
X159898000Y-144449900D01*
X249310600Y-35629500D02*
X249310600Y-38937100D01*
X210860000Y-118340000D02*
X210860000Y-116789900D01*
X116992800Y-96761400D02*
X109370500Y-89139100D01*
X246492500Y-127187100D02*
X251402700Y-132097300D01*
X249600200Y-68040200D02*
X249600200Y-73291400D01*
X120777800Y-34329800D02*
X118880000Y-36227600D01*
X133140000Y-52949900D02*
X133140000Y-39761800D01*
X120000000Y-155000000D02*
X120000000Y-153049900D01*
X114748000Y-34288000D02*
X116340000Y-35880000D01*
X109370500Y-89139100D02*
X109370500Y-88175900D01*
X222555800Y-96300900D02*
X222495000Y-96240100D01*
X159898000Y-144449900D02*
X162720000Y-144449900D01*
X181880000Y-101780000D02*
X174725400Y-94625400D01*
X222555800Y-110483600D02*
X222555800Y-96300900D01*
X102878800Y-131950100D02*
X89520000Y-131950100D01*
X170585400Y-57024700D02*
X172180000Y-55430100D01*
X125260200Y-108949900D02*
X132880000Y-101330100D01*
X118880000Y-36227600D02*
X118880000Y-36407500D01*
X132880000Y-99780000D02*
X132880000Y-101330100D01*
X179220000Y-113192400D02*
X179674300Y-112738100D01*
X251402700Y-154500000D02*
X251402700Y-143500000D01*
X179220000Y-120000000D02*
X179220000Y-118449900D01*
X254285000Y-121727100D02*
X254285000Y-129215000D01*
X110102700Y-84675500D02*
X109852700Y-84425500D01*
X210860000Y-116789900D02*
X216249500Y-116789900D01*
X133140000Y-56050100D02*
X131269000Y-57921100D01*
X249383000Y-39009500D02*
X249383000Y-66287400D01*
X249600200Y-73291400D02*
X240453100Y-82438500D01*
X118880000Y-36407500D02*
X118880000Y-35880000D01*
X116340000Y-43500000D02*
X116340000Y-41949900D01*
X116992800Y-98429400D02*
X116992800Y-96761400D01*
X74280000Y-134370000D02*
X77330000Y-137420000D01*
X112852000Y-34288000D02*
X114748000Y-34288000D01*
X71920000Y-54000000D02*
X71920000Y-55680000D01*
X240453100Y-82438500D02*
X240453100Y-89471900D01*
X131269000Y-57921100D02*
X131269000Y-66990600D01*
X249340000Y-34000000D02*
X249340000Y-35600100D01*
X249383000Y-66287400D02*
X249133000Y-66537400D01*
X249340000Y-35600100D02*
X249310600Y-35629500D01*
X89520000Y-130000000D02*
X89520000Y-131950100D01*
X124220000Y-108949900D02*
X125260200Y-108949900D01*
X74280000Y-124550100D02*
X74280000Y-130000000D01*
X216249500Y-116789900D02*
X222555800Y-110483600D01*
X183386000Y-109026400D02*
X183386000Y-106343500D01*
X76500000Y-122330100D02*
X74280000Y-124550100D01*
X249133000Y-67573000D02*
X249600200Y-68040200D01*
X240453100Y-89471900D02*
X238375000Y-91550000D01*
X120000000Y-152205700D02*
X107516400Y-139722100D01*
X249310600Y-38937100D02*
X249383000Y-39009500D01*
X152000000Y-130220000D02*
X152000000Y-131770100D01*
X251402700Y-143500000D02*
X251402700Y-132097300D01*
X116340000Y-41949900D02*
X118880000Y-39409900D01*
X127708000Y-34329800D02*
X120777800Y-34329800D01*
X74280000Y-130000000D02*
X74280000Y-134370000D01*
X170585400Y-67438200D02*
X170585400Y-57024700D01*
X249133000Y-66537400D02*
X249133000Y-67573000D01*
X183386000Y-106343500D02*
X181880000Y-104837500D01*
X71920000Y-55680000D02*
X66800000Y-60800000D01*
X179674300Y-112738100D02*
X183386000Y-109026400D01*
X181880000Y-104837500D02*
X181880000Y-103330100D01*
X107516400Y-136587700D02*
X102878800Y-131950100D01*
X121420000Y-41949900D02*
X118880000Y-39409900D01*
X109370500Y-88175900D02*
X110102700Y-87443700D01*
X181880000Y-102555000D02*
X181880000Y-103330100D01*
X118880000Y-39409900D02*
X118880000Y-36407500D01*
X133140000Y-39761800D02*
X127708000Y-34329800D01*
X111260000Y-35880000D02*
X112852000Y-34288000D01*
X244825000Y-127187100D02*
X246492500Y-127187100D01*
X121420000Y-43500000D02*
X121420000Y-41949900D01*
X76500000Y-120780000D02*
X76500000Y-122330100D01*
X172180000Y-53880000D02*
X172180000Y-55430100D01*
X181880000Y-102555000D02*
X181880000Y-101780000D01*
X110102700Y-87443700D02*
X110102700Y-84675500D01*
X133140000Y-54500000D02*
X133140000Y-56050100D01*
X174725400Y-71578200D02*
X170585400Y-67438200D01*
X152000000Y-131770100D02*
X152000000Y-136551900D01*
X254285000Y-129215000D02*
X251402700Y-132097300D01*
X107516400Y-139722100D02*
X107516400Y-136587700D01*
X120000000Y-153049900D02*
X120000000Y-152205700D01*
X179220000Y-118449900D02*
X179220000Y-113192400D01*
X174725400Y-94625400D02*
X174725400Y-71578200D01*
X133140000Y-54500000D02*
X133140000Y-52949900D01*
X124220000Y-110500000D02*
X124220000Y-108949900D01*
X222495000Y-94690000D02*
X222495000Y-96240100D01*
X162720000Y-146000000D02*
X162720000Y-144449900D01*
%TO.N,/Z80_HARDLOCK*%
X146564000Y-100680100D02*
X146564000Y-92066100D01*
X153760000Y-83320000D02*
X158439300Y-78640700D01*
X146564000Y-92066100D02*
X153760000Y-84870100D01*
X146395700Y-131143100D02*
X146395700Y-125046900D01*
X146769300Y-135449900D02*
X146769300Y-131516700D01*
X158439300Y-78640700D02*
X167431000Y-78640700D01*
X212143900Y-93254300D02*
X210205100Y-95193100D01*
X146738900Y-137167900D02*
X146395700Y-136824700D01*
X153760000Y-83847500D02*
X153760000Y-83320000D01*
X146395700Y-125046900D02*
X147184300Y-124258300D01*
X189253700Y-79629800D02*
X190813300Y-81189400D01*
X146395700Y-136824700D02*
X146395700Y-135823500D01*
X146395700Y-135823500D02*
X146769300Y-135449900D01*
X146769300Y-131516700D02*
X146395700Y-131143100D01*
X153760000Y-83847500D02*
X153760000Y-84870100D01*
X146738900Y-140856100D02*
X146738900Y-137167900D01*
X154235500Y-148352700D02*
X146738900Y-140856100D01*
X210500000Y-77320000D02*
X212143900Y-78963900D01*
X147184300Y-124258300D02*
X147184300Y-101300400D01*
X212143900Y-78963900D02*
X212143900Y-93254300D01*
X190813300Y-81189400D02*
X192321000Y-81189400D01*
X147184300Y-101300400D02*
X146564000Y-100680100D01*
%TO.N,/IOCACHE-128K_ZXspectrum/CACHE_CE2*%
X174359900Y-114939900D02*
X175000000Y-115580000D01*
X167240000Y-97200000D02*
X168790100Y-97200000D01*
X168790100Y-97200000D02*
X168790100Y-101822600D01*
X168790100Y-101822600D02*
X174359900Y-107392400D01*
X174359900Y-107392400D02*
X174359900Y-114939900D01*
%TO.N,/CORE_ESP32-WROVER/ESP_PULSE*%
X121777100Y-121988500D02*
X121640700Y-121852100D01*
X130948800Y-53946000D02*
X130948800Y-41878900D01*
X122707500Y-124227500D02*
X121777100Y-123297100D01*
X121777100Y-123297100D02*
X121777100Y-121988500D01*
X94600000Y-155000000D02*
X94600000Y-153049900D01*
X96365000Y-153049900D02*
X97657900Y-151757000D01*
X130948800Y-41878900D02*
X126500000Y-37430100D01*
X128283200Y-99852700D02*
X128283200Y-56611600D01*
X121640700Y-106495200D02*
X128283200Y-99852700D01*
X122707500Y-147053100D02*
X122707500Y-124227500D01*
X126500000Y-35880000D02*
X126500000Y-37430100D01*
X128283200Y-56611600D02*
X130948800Y-53946000D01*
X121640700Y-121852100D02*
X121640700Y-106495200D01*
X94600000Y-153049900D02*
X96365000Y-153049900D01*
X122442600Y-147318000D02*
X122707500Y-147053100D01*
%TO.N,+5V*%
X259115000Y-129597100D02*
X259115000Y-108610000D01*
X141825800Y-130332800D02*
X141825800Y-119844300D01*
X141268700Y-150367200D02*
X140393800Y-150367200D01*
X175000000Y-105420000D02*
X175000000Y-103869900D01*
X65128300Y-96043300D02*
X66830000Y-94341600D01*
X249825000Y-116957800D02*
X240927300Y-116957800D01*
X171602600Y-79167300D02*
X171602600Y-74154300D01*
X147410300Y-152990100D02*
X144787400Y-150367200D01*
X254235000Y-107030000D02*
X254235000Y-105479900D01*
X141268700Y-136055100D02*
X142268800Y-135055000D01*
X66830000Y-90010000D02*
X68580100Y-90010000D01*
X196577400Y-101757100D02*
X196577400Y-104075300D01*
X195767300Y-89422600D02*
X197577500Y-91232800D01*
X140393800Y-150367200D02*
X139000000Y-151761000D01*
X115859900Y-79860000D02*
X115859900Y-75034900D01*
X175000000Y-103869900D02*
X170708800Y-99578700D01*
X230031100Y-49717700D02*
X230031100Y-71746100D01*
X167240000Y-89901800D02*
X167240000Y-90569900D01*
X196753700Y-107773200D02*
X196577400Y-107949500D01*
X157550100Y-62706600D02*
X157550100Y-62120000D01*
X256402700Y-143500000D02*
X256402700Y-132097300D01*
X171602600Y-74154300D02*
X167971700Y-70523400D01*
X254165100Y-51899900D02*
X253615000Y-51899900D01*
X195767300Y-88892400D02*
X195767300Y-89422600D01*
X81570100Y-103000000D02*
X68580100Y-90010000D01*
X200410100Y-117512500D02*
X200587500Y-117689900D01*
X200587500Y-122482400D02*
X197000000Y-126069900D01*
X253615000Y-52512400D02*
X255800600Y-54698000D01*
X126500000Y-43500000D02*
X126500000Y-45050100D01*
X115859900Y-75034900D02*
X113165800Y-72340800D01*
X210446200Y-155053800D02*
X183483900Y-155053800D01*
X106820400Y-53018000D02*
X106820400Y-55120000D01*
X199587500Y-115224300D02*
X200410100Y-116046900D01*
X238400000Y-125920000D02*
X238400000Y-124369900D01*
X196753700Y-104251600D02*
X196753700Y-107773200D01*
X195040000Y-62275000D02*
X195040000Y-61500000D01*
X96500000Y-58900000D02*
X93970100Y-58900000D01*
X84120000Y-103000000D02*
X85670100Y-103000000D01*
X255800600Y-54698000D02*
X255800600Y-103914300D01*
X254235000Y-107030000D02*
X254235000Y-108580100D01*
X183483900Y-155053800D02*
X182050100Y-153620000D01*
X240927300Y-116957800D02*
X238400000Y-119485100D01*
X169210600Y-85080700D02*
X169210600Y-87931200D01*
X246982400Y-50007100D02*
X236687900Y-50007100D01*
X97531500Y-91138600D02*
X85670100Y-103000000D01*
X154378800Y-152582200D02*
X152799500Y-152582200D01*
X113165800Y-72340800D02*
X111535300Y-72340800D01*
X156000000Y-62120000D02*
X157550100Y-62120000D01*
X233720000Y-126735000D02*
X233720000Y-125960000D01*
X249825000Y-116957800D02*
X249825000Y-112990100D01*
X114788300Y-45050100D02*
X106820400Y-53018000D01*
X89700000Y-61620000D02*
X91250100Y-61620000D01*
X142268800Y-130775800D02*
X141825800Y-130332800D01*
X141268700Y-150367200D02*
X141268700Y-136055100D01*
X199587500Y-114931100D02*
X199587500Y-115224300D01*
X230031100Y-71746100D02*
X230115000Y-71830000D01*
X236687900Y-50007100D02*
X236015800Y-49335000D01*
X126500000Y-45050100D02*
X114788300Y-45050100D01*
X200587500Y-117689900D02*
X200587500Y-122482400D01*
X194058500Y-82449900D02*
X189500000Y-82449900D01*
X194058500Y-82449900D02*
X194058500Y-87183600D01*
X139000000Y-151761000D02*
X139000000Y-153649900D01*
X167971700Y-70523400D02*
X165366900Y-70523400D01*
X212000000Y-153500000D02*
X210446200Y-155053800D01*
X234640000Y-129380000D02*
X234640000Y-127629900D01*
X197000000Y-127620000D02*
X197000000Y-126069900D01*
X165366900Y-70523400D02*
X157550100Y-62706600D01*
X152799500Y-152582200D02*
X152391600Y-152990100D01*
X233720000Y-126735000D02*
X233720000Y-127510100D01*
X93970100Y-58900000D02*
X91250100Y-61620000D01*
X170708800Y-93345000D02*
X167933700Y-90569900D01*
X196577400Y-104075300D02*
X196753700Y-104251600D01*
X139000000Y-155000000D02*
X139000000Y-153649900D01*
X194058500Y-87183600D02*
X195767300Y-88892400D01*
X255800600Y-103914300D02*
X254235000Y-105479900D01*
X261325000Y-131807100D02*
X259115000Y-129597100D01*
X249825000Y-119727100D02*
X249825000Y-116957800D01*
X170708800Y-99578700D02*
X170708800Y-93345000D01*
X169000000Y-84870100D02*
X169210600Y-85080700D01*
X195040000Y-63050100D02*
X194058500Y-64031600D01*
X117460000Y-79860000D02*
X115859900Y-79860000D01*
X155904700Y-151056300D02*
X154378800Y-152582200D01*
X197577500Y-100757000D02*
X196577400Y-101757100D01*
X180500000Y-153620000D02*
X177936300Y-151056300D01*
X196577400Y-107949500D02*
X196577400Y-108947000D01*
X97531500Y-85541600D02*
X97531500Y-91138600D01*
X195040000Y-62275000D02*
X195040000Y-63050100D01*
X167240000Y-92120000D02*
X167240000Y-90569900D01*
X152391600Y-152990100D02*
X147410300Y-152990100D01*
X96040000Y-82500000D02*
X96040000Y-84050100D01*
X65128300Y-133604000D02*
X65128300Y-96043300D01*
X169000000Y-83320000D02*
X169000000Y-81769900D01*
X141825800Y-119844300D02*
X142000000Y-119670100D01*
X197577500Y-91232800D02*
X197577500Y-100757000D01*
X257615000Y-48450000D02*
X254165100Y-51899900D01*
X167933700Y-90569900D02*
X167240000Y-90569900D01*
X256402700Y-154500000D02*
X256402700Y-143500000D01*
X200410100Y-116046900D02*
X200410100Y-117512500D01*
X249825000Y-112990100D02*
X254235000Y-108580100D01*
X98094500Y-58900000D02*
X96500000Y-58900000D01*
X96040000Y-84050100D02*
X97531500Y-85541600D01*
X127000000Y-147500000D02*
X131261000Y-151761000D01*
X142268800Y-135055000D02*
X142268800Y-130775800D01*
X169210600Y-87931200D02*
X167240000Y-89901800D01*
X197119900Y-112463500D02*
X199587500Y-114931100D01*
X238400000Y-119485100D02*
X238400000Y-124369900D01*
X169000000Y-81769900D02*
X171602600Y-79167300D01*
X96500000Y-55120000D02*
X96500000Y-56870100D01*
X230413800Y-49335000D02*
X230031100Y-49717700D01*
X142000000Y-118120000D02*
X142000000Y-119670100D01*
X177936300Y-151056300D02*
X155904700Y-151056300D01*
X169000000Y-83320000D02*
X169000000Y-84870100D01*
X253615000Y-53450000D02*
X253615000Y-52512400D01*
X189500000Y-84000000D02*
X189500000Y-82449900D01*
X111535300Y-72340800D02*
X98094500Y-58900000D01*
X233839800Y-127629900D02*
X234640000Y-127629900D01*
X197119900Y-109489500D02*
X197119900Y-112463500D01*
X144787400Y-150367200D02*
X141268700Y-150367200D01*
X84120000Y-103000000D02*
X81570100Y-103000000D01*
X131261000Y-151761000D02*
X139000000Y-151761000D01*
X96500000Y-58900000D02*
X96500000Y-56870100D01*
X180500000Y-153620000D02*
X182050100Y-153620000D01*
X253615000Y-52512400D02*
X253615000Y-51899900D01*
X233720000Y-127510100D02*
X233839800Y-127629900D01*
X194058500Y-64031600D02*
X194058500Y-82449900D01*
X196577400Y-108947000D02*
X197119900Y-109489500D01*
%TO.N,/ESP_ROMSEL_1*%
X123647600Y-75887600D02*
X123647600Y-94143700D01*
X120000000Y-72240000D02*
X123647600Y-75887600D01*
X119612600Y-98178700D02*
X119612600Y-98992200D01*
X123647600Y-94143700D02*
X119612600Y-98178700D01*
X118737700Y-99867100D02*
X118737700Y-100360100D01*
X118737700Y-100360100D02*
X116207200Y-102890600D01*
X119612600Y-98992200D02*
X118737700Y-99867100D01*
X116207200Y-102890600D02*
X116207200Y-126689200D01*
%TO.N,/ESP_ROMSEL_0*%
X118816300Y-127262500D02*
X117460000Y-128618800D01*
X118816300Y-103213600D02*
X118816300Y-127262500D01*
X120737900Y-100695700D02*
X120737900Y-101292000D01*
X125647800Y-95860300D02*
X121544700Y-99963400D01*
X121600100Y-69700000D02*
X125647800Y-73747700D01*
X125647800Y-73747700D02*
X125647800Y-95860300D01*
X120737900Y-101292000D02*
X118816300Y-103213600D01*
X121544700Y-99963400D02*
X121470200Y-99963400D01*
X120000000Y-69700000D02*
X121600100Y-69700000D01*
X117460000Y-128618800D02*
X117460000Y-130000000D01*
X121470200Y-99963400D02*
X120737900Y-100695700D01*
%TO.N,/ESP_ROM_WR_PROTECT*%
X104760000Y-129892100D02*
X104760000Y-130000000D01*
X116725100Y-127939300D02*
X106712800Y-127939300D01*
X106712800Y-127939300D02*
X104760000Y-129892100D01*
X120612700Y-98666400D02*
X120612700Y-99406500D01*
X120612700Y-99406500D02*
X119737800Y-100281400D01*
X119737800Y-100776000D02*
X117457300Y-103056500D01*
X123814100Y-73767700D02*
X124647700Y-74601300D01*
X117457300Y-127207100D02*
X116725100Y-127939300D01*
X124647700Y-94631400D02*
X120612700Y-98666400D01*
X117457300Y-103056500D02*
X117457300Y-127207100D01*
X124647700Y-74601300D02*
X124647700Y-94631400D01*
X119737800Y-100281400D02*
X119737800Y-100776000D01*
%TO.N,/CORE_ESP32-WROVER/ESP_INT*%
X74280000Y-155000000D02*
X74280000Y-152180100D01*
X77330000Y-147580000D02*
X77330000Y-148355000D01*
X86180000Y-147500000D02*
X84429900Y-147500000D01*
X77330000Y-148355000D02*
X83574900Y-148355000D01*
X83574900Y-148355000D02*
X84429900Y-147500000D01*
X74280000Y-152180100D02*
X77330000Y-149130100D01*
X77330000Y-148355000D02*
X77330000Y-149130100D01*
%TO.N,/CACHE_DATASTATUS*%
X173827200Y-155212800D02*
X171932800Y-155212800D01*
X237383200Y-110191900D02*
X237383200Y-120353000D01*
X235765500Y-121970700D02*
X235765500Y-127353000D01*
X168789800Y-155170200D02*
X158473500Y-155170200D01*
X158109900Y-86915900D02*
X155393600Y-89632200D01*
X162798800Y-84849700D02*
X162798800Y-85163300D01*
X238995000Y-107555000D02*
X238995000Y-107030000D01*
X146562800Y-153910600D02*
X148512500Y-155860300D01*
X148835500Y-94464500D02*
X149314100Y-94943100D01*
X177881700Y-156081700D02*
X175420000Y-153620000D01*
X206034100Y-74805400D02*
X205034000Y-75805500D01*
X237383200Y-120353000D02*
X235765500Y-121970700D01*
X171932800Y-155212800D02*
X170340000Y-153620000D01*
X205034000Y-75805500D02*
X205034000Y-95753600D01*
X235765500Y-127353000D02*
X238400000Y-129987500D01*
X238400000Y-136080000D02*
X244081700Y-141761700D01*
X206034100Y-66545900D02*
X206034100Y-74805400D01*
X238995000Y-108580100D02*
X237383200Y-110191900D01*
X238400000Y-129987500D02*
X238400000Y-136080000D01*
X149314100Y-94943100D02*
X149314100Y-137624200D01*
X244081700Y-153750800D02*
X241750800Y-156081700D01*
X158473500Y-155170200D02*
X157783400Y-155860300D01*
X244081700Y-141761700D02*
X244081700Y-153750800D01*
X238995000Y-107555000D02*
X238995000Y-108580100D01*
X175420000Y-153620000D02*
X173827200Y-155212800D01*
X241750800Y-156081700D02*
X177881700Y-156081700D01*
X149314100Y-137624200D02*
X158973100Y-147283200D01*
X193266400Y-99056700D02*
X192503300Y-99819800D01*
X205034000Y-95753600D02*
X204828300Y-95959300D01*
X162798800Y-85163300D02*
X161046200Y-86915900D01*
X192503300Y-99819800D02*
X192503300Y-106012400D01*
X170340000Y-153620000D02*
X168789800Y-155170200D01*
X207960000Y-64620000D02*
X206034100Y-66545900D01*
X161046200Y-86915900D02*
X158109900Y-86915900D01*
%TO.N,/CACHE_CONTROL.A16*%
X160748400Y-89659600D02*
X160748400Y-90219800D01*
X200373200Y-63308300D02*
X199352700Y-64328800D01*
X205922300Y-50828400D02*
X200373200Y-56377500D01*
X214163700Y-52972700D02*
X212019400Y-50828400D01*
X200373200Y-56377500D02*
X200373200Y-63308300D01*
X212019400Y-50828400D02*
X205922300Y-50828400D01*
X214163700Y-63496300D02*
X214163700Y-52972700D01*
X169236400Y-67605000D02*
X169236400Y-64232800D01*
X210500000Y-67160000D02*
X214163700Y-63496300D01*
X172758000Y-71126600D02*
X169236400Y-67605000D01*
X172758000Y-86151700D02*
X172758000Y-71126600D01*
X170393300Y-88516400D02*
X172758000Y-86151700D01*
X160748400Y-90219800D02*
X155695300Y-95272900D01*
%TO.N,/LOCAL_A7*%
X133140000Y-62120000D02*
X133140000Y-63670100D01*
X129283700Y-91103700D02*
X132880000Y-94700000D01*
X126760000Y-110500000D02*
X126760000Y-108949900D01*
X133140000Y-63670100D02*
X133180000Y-63710100D01*
X133180000Y-68220100D02*
X129283700Y-72116400D01*
X129283700Y-72116400D02*
X129283700Y-91103700D01*
X144624700Y-113098200D02*
X144624700Y-102589300D01*
X134430100Y-101279800D02*
X134430100Y-96250100D01*
X133180000Y-63710100D02*
X133180000Y-66620000D01*
X133180000Y-66620000D02*
X133180000Y-68220100D01*
X134430100Y-96250100D02*
X132880000Y-94700000D01*
X126760000Y-108949900D02*
X134430100Y-101279800D01*
X144624700Y-102589300D02*
X144934000Y-102280000D01*
%TO.N,/LOCAL_A6*%
X135720000Y-73814500D02*
X130283800Y-79250700D01*
X135680000Y-63670100D02*
X135720000Y-63710100D01*
X135720000Y-63710100D02*
X135720000Y-66620000D01*
X135680000Y-62120000D02*
X135680000Y-63670100D01*
X130283800Y-89563800D02*
X132880000Y-92160000D01*
X129300000Y-110500000D02*
X129300000Y-108949900D01*
X135720000Y-66620000D02*
X135720000Y-73814500D01*
X135430200Y-94710200D02*
X132880000Y-92160000D01*
X129300000Y-108949900D02*
X135430200Y-102819700D01*
X130283800Y-79250700D02*
X130283800Y-89563800D01*
X135430200Y-102819700D02*
X135430200Y-94710200D01*
%TO.N,/LOCAL_A5*%
X132880000Y-89620000D02*
X131283900Y-88023900D01*
X131283900Y-88023900D02*
X131283900Y-80165200D01*
X138260000Y-66620000D02*
X138260000Y-68220100D01*
X137018200Y-69461900D02*
X138260000Y-68220100D01*
X138220000Y-62120000D02*
X138220000Y-63670100D01*
X131840000Y-108949900D02*
X136482400Y-104307500D01*
X136482400Y-104307500D02*
X136482400Y-93222400D01*
X138220000Y-63670100D02*
X138260000Y-63710100D01*
X137018200Y-74430900D02*
X137018200Y-69461900D01*
X136482400Y-93222400D02*
X132880000Y-89620000D01*
X131840000Y-110500000D02*
X131840000Y-108949900D01*
X138260000Y-63710100D02*
X138260000Y-66620000D01*
X131283900Y-80165200D02*
X137018200Y-74430900D01*
%TO.N,/LOCAL_A4*%
X153833600Y-78507000D02*
X154235500Y-78507000D01*
X137320200Y-80535500D02*
X137320200Y-84189900D01*
X149611000Y-82729600D02*
X153833600Y-78507000D01*
X146184200Y-101714700D02*
X145563900Y-101094400D01*
X149611000Y-86378400D02*
X149611000Y-82729600D01*
X145563900Y-101094400D02*
X145563900Y-90425500D01*
X140800000Y-63710100D02*
X140800000Y-66620000D01*
X132880000Y-87080000D02*
X134430100Y-87080000D01*
X140800000Y-68220100D02*
X138320300Y-70699800D01*
X145934100Y-108248300D02*
X146184200Y-107998200D01*
X146184200Y-107998200D02*
X146184200Y-101714700D01*
X138320300Y-79535400D02*
X137320200Y-80535500D01*
X140760000Y-63670100D02*
X140800000Y-63710100D01*
X138320300Y-70699800D02*
X138320300Y-79535400D01*
X137320200Y-84189900D02*
X134430100Y-87080000D01*
X140800000Y-66620000D02*
X140800000Y-68220100D01*
X140760000Y-62120000D02*
X140760000Y-63670100D01*
X145563900Y-90425500D02*
X149611000Y-86378400D01*
%TO.N,/LOCAL_A3*%
X138651400Y-89426600D02*
X138651400Y-88928600D01*
X143809100Y-69010300D02*
X143809100Y-83906600D01*
X143340000Y-68541200D02*
X143809100Y-69010300D01*
X144891100Y-60528900D02*
X157417100Y-60528900D01*
X143809100Y-83906600D02*
X142050100Y-85665600D01*
X138651400Y-88928600D02*
X140500000Y-87080000D01*
X143300000Y-62120000D02*
X144891100Y-60528900D01*
X163920000Y-67031800D02*
X163920000Y-67308600D01*
X143300000Y-62647500D02*
X143300000Y-63670100D01*
X137553900Y-108316000D02*
X137553900Y-90524100D01*
X143340000Y-66620000D02*
X143340000Y-68220100D01*
X136920000Y-110500000D02*
X136920000Y-108949900D01*
X143340000Y-63710100D02*
X143340000Y-66620000D01*
X143340000Y-68220100D02*
X143340000Y-68541200D01*
X137553900Y-90524100D02*
X138651400Y-89426600D01*
X143300000Y-62647500D02*
X143300000Y-62120000D01*
X157417100Y-60528900D02*
X163920000Y-67031800D01*
X140500000Y-87080000D02*
X142050100Y-87080000D01*
X136920000Y-108949900D02*
X137553900Y-108316000D01*
X142050100Y-85665600D02*
X142050100Y-87080000D01*
X143300000Y-63670100D02*
X143340000Y-63710100D01*
%TO.N,/LOCAL_A2*%
X139460000Y-110500000D02*
X139460000Y-108949900D01*
X139460000Y-108949900D02*
X138920200Y-108410100D01*
X147320000Y-77728500D02*
X147320000Y-69660100D01*
X147320000Y-84860700D02*
X142560700Y-89620000D01*
X147320000Y-77728500D02*
X149512900Y-77728500D01*
X142560700Y-89620000D02*
X142050100Y-89620000D01*
X145880000Y-66620000D02*
X145880000Y-68220100D01*
X145840000Y-63670100D02*
X145880000Y-63710100D01*
X138920200Y-91199800D02*
X140500000Y-89620000D01*
X147320000Y-77728500D02*
X147320000Y-84860700D01*
X147320000Y-69660100D02*
X145880000Y-68220100D01*
X164903100Y-77256900D02*
X166460000Y-75700000D01*
X145840000Y-62120000D02*
X145840000Y-63670100D01*
X138920200Y-108410100D02*
X138920200Y-91199800D01*
X140500000Y-89620000D02*
X142050100Y-89620000D01*
X145880000Y-63710100D02*
X145880000Y-66620000D01*
X149512900Y-77728500D02*
X149984500Y-77256900D01*
X149984500Y-77256900D02*
X164903100Y-77256900D01*
%TO.N,/LOCAL_A1*%
X148995000Y-74102600D02*
X148995000Y-68795100D01*
X138320300Y-81450000D02*
X140424600Y-79345700D01*
X148420000Y-66620000D02*
X148420000Y-68220100D01*
X138320300Y-86144700D02*
X138320300Y-81450000D01*
X142775100Y-94435100D02*
X142775100Y-110500000D01*
X148995000Y-68795100D02*
X148420000Y-68220100D01*
X148995000Y-74102600D02*
X167402600Y-74102600D01*
X137401300Y-87063700D02*
X138320300Y-86144700D01*
X140424600Y-79345700D02*
X140424600Y-77160900D01*
X137401300Y-88908700D02*
X137401300Y-87063700D01*
X142775100Y-113275700D02*
X145934100Y-116434700D01*
X148380000Y-63670100D02*
X148420000Y-63710100D01*
X140500000Y-92160000D02*
X142775100Y-94435100D01*
X167402600Y-74102600D02*
X169000000Y-75700000D01*
X148995000Y-76478400D02*
X148995000Y-74102600D01*
X142000000Y-110500000D02*
X142775100Y-110500000D01*
X148380000Y-62120000D02*
X148380000Y-63670100D01*
X142775100Y-110500000D02*
X142775100Y-113275700D01*
X145934100Y-116434700D02*
X145934100Y-117520000D01*
X148420000Y-63710100D02*
X148420000Y-66620000D01*
%TO.N,/LOCAL_A0*%
X162752500Y-109307500D02*
X162752500Y-88382100D01*
X166460000Y-84095000D02*
X166460000Y-83320000D01*
X150920000Y-64979900D02*
X150960000Y-65019900D01*
X166460000Y-84870100D02*
X162948000Y-88382100D01*
X152000000Y-120060000D02*
X162752500Y-109307500D01*
X162948000Y-88382100D02*
X162752500Y-88382100D01*
X150920000Y-62120000D02*
X150920000Y-64979900D01*
X150960000Y-66620000D02*
X150960000Y-65019900D01*
X144809300Y-85603400D02*
X144809300Y-68242600D01*
X143775700Y-86637000D02*
X144809300Y-85603400D01*
X166460000Y-84095000D02*
X166460000Y-84870100D01*
X144809300Y-68242600D02*
X144610000Y-68043300D01*
%TO.N,/LOCAL_D0*%
X187877500Y-138063100D02*
X184351800Y-134537400D01*
X200412500Y-148397400D02*
X194465200Y-148397400D01*
X243064600Y-148465300D02*
X243064600Y-145379600D01*
X200990100Y-148975000D02*
X200412500Y-148397400D01*
X182437600Y-135798500D02*
X182437600Y-136706900D01*
X163332800Y-130643200D02*
X155289600Y-122600000D01*
X238960000Y-154120000D02*
X238960000Y-152569900D01*
X243064600Y-145379600D02*
X234542400Y-136857400D01*
X228640000Y-127510100D02*
X228525000Y-127625100D01*
X238960000Y-152569900D02*
X243064600Y-148465300D01*
X163332800Y-131791000D02*
X163332800Y-130643200D01*
X228640000Y-125960000D02*
X228640000Y-127510100D01*
X183698700Y-134537400D02*
X182437600Y-135798500D01*
X194465200Y-148397400D02*
X187877500Y-141809700D01*
X228525000Y-130120000D02*
X228525000Y-132664900D01*
X228525000Y-132664900D02*
X228680000Y-132819900D01*
X187877500Y-141809700D02*
X187877500Y-138063100D01*
X234542400Y-136857400D02*
X232717500Y-136857400D01*
X228680000Y-134420000D02*
X228680000Y-132819900D01*
X228525000Y-127625100D02*
X228525000Y-130120000D01*
X170306600Y-138764800D02*
X163332800Y-131791000D01*
X228680000Y-134420000D02*
X230280100Y-134420000D01*
X155289600Y-122600000D02*
X152000000Y-122600000D01*
X184351800Y-134537400D02*
X183698700Y-134537400D01*
X232717500Y-136857400D02*
X230280100Y-134420000D01*
%TO.N,/LOCAL_D1*%
X225985000Y-129592500D02*
X225985000Y-128569900D01*
X225985000Y-129592500D02*
X225985000Y-130120000D01*
X226100000Y-128454900D02*
X226100000Y-125960000D01*
X236453100Y-141453100D02*
X241500000Y-146500000D01*
X226140000Y-133619900D02*
X226140000Y-134420000D01*
X226140000Y-133619900D02*
X226140000Y-132819900D01*
X231669900Y-137357600D02*
X235765400Y-141453100D01*
X226140000Y-134701400D02*
X228796200Y-137357600D01*
X156396700Y-125140000D02*
X162142100Y-130885400D01*
X225985000Y-130120000D02*
X225985000Y-132664900D01*
X162142100Y-133087300D02*
X173246900Y-144192100D01*
X225985000Y-128569900D02*
X226100000Y-128454900D01*
X152000000Y-125140000D02*
X156396700Y-125140000D01*
X226140000Y-134420000D02*
X226140000Y-134701400D01*
X225985000Y-132664900D02*
X226140000Y-132819900D01*
X162142100Y-130885400D02*
X162142100Y-133087300D01*
X228796200Y-137357600D02*
X231669900Y-137357600D01*
X235765400Y-141453100D02*
X236453100Y-141453100D01*
%TO.N,Net-(D2-K)*%
X86980000Y-131950100D02*
X91529900Y-136500000D01*
X86980000Y-130000000D02*
X86980000Y-131950100D01*
X91529900Y-136500000D02*
X102579900Y-136500000D01*
X104330000Y-136500000D02*
X102579900Y-136500000D01*
%TO.N,Net-(D12-K)*%
X94700000Y-45620000D02*
X94700000Y-47170100D01*
X96500000Y-50040000D02*
X96500000Y-48289900D01*
X94700000Y-47170100D02*
X95819800Y-48289900D01*
X95819800Y-48289900D02*
X96500000Y-48289900D01*
%TO.N,/CORE_ESP32-WROVER/ESP_SPI_INT.MOSI*%
X69436500Y-139475400D02*
X71896100Y-141935000D01*
X65185800Y-155104800D02*
X69191600Y-159110600D01*
X65185800Y-138457100D02*
X65185800Y-155104800D01*
X240489800Y-159110600D02*
X243218100Y-156382300D01*
X71896100Y-141935000D02*
X80294800Y-141935000D01*
X69191600Y-159110600D02*
X240489800Y-159110600D01*
%TO.N,/CORE_ESP32-WROVER/ESP_SPI_INT.MISO*%
X158870700Y-59543000D02*
X171447400Y-72119700D01*
X113593500Y-101062700D02*
X113593500Y-95130200D01*
X183996400Y-89314100D02*
X183996400Y-75355100D01*
X98386700Y-104683800D02*
X98929500Y-104141000D01*
X110515200Y-104141000D02*
X113593500Y-101062700D01*
X98386700Y-122124900D02*
X98386700Y-104683800D01*
X183996400Y-75355100D02*
X180761000Y-72119700D01*
%TO.N,/CORE_ESP32-WROVER/ESP_SPI_INT.STC*%
X219046800Y-147713300D02*
X219554600Y-147713300D01*
X186840000Y-127620000D02*
X186840000Y-129170100D01*
X144769100Y-132698900D02*
X144769100Y-134621300D01*
X226383500Y-149163500D02*
X231340000Y-154120000D01*
X131840000Y-118120000D02*
X134426500Y-115533500D01*
X144395500Y-137279000D02*
X144138400Y-137536100D01*
X194580900Y-137494100D02*
X198934900Y-137494100D01*
X144138400Y-137536100D02*
X144138400Y-144627400D01*
X85956500Y-64109700D02*
X95257400Y-64109700D01*
X144769100Y-134621300D02*
X144395500Y-134994900D01*
X95257400Y-64109700D02*
X105602200Y-74454500D01*
X144684000Y-117155600D02*
X144684000Y-126351200D01*
X134426500Y-115533500D02*
X143061900Y-115533500D01*
X144138400Y-144627400D02*
X144768000Y-145257000D01*
X143895400Y-129228100D02*
X144269000Y-129601700D01*
X144519100Y-132448900D02*
X144769100Y-132698900D01*
X92060000Y-155000000D02*
X92060000Y-153049900D01*
X144269000Y-129601700D02*
X144269000Y-132198800D01*
X199716500Y-136712500D02*
X208046000Y-136712500D01*
X186840000Y-129170100D02*
X186840000Y-129753200D01*
X219554600Y-147713300D02*
X219559600Y-147718300D01*
X208046000Y-136712500D02*
X219046800Y-147713300D01*
X221954500Y-149163500D02*
X226383500Y-149163500D01*
X143061900Y-115533500D02*
X144684000Y-117155600D01*
X85890000Y-64176200D02*
X85956500Y-64109700D01*
X144395500Y-134994900D02*
X144395500Y-137279000D01*
X186840000Y-129753200D02*
X194580900Y-137494100D01*
X143895400Y-127139800D02*
X143895400Y-129228100D01*
X219559600Y-147718300D02*
X220509300Y-147718300D01*
X105602200Y-74454500D02*
X105602200Y-109967800D01*
X105602200Y-109967800D02*
X108352600Y-112718200D01*
X102283000Y-142826900D02*
X92060000Y-153049900D01*
X144684000Y-126351200D02*
X143895400Y-127139800D01*
X220509300Y-147718300D02*
X221954500Y-149163500D01*
X144269000Y-132198800D02*
X144519100Y-132448900D01*
X198934900Y-137494100D02*
X199716500Y-136712500D01*
%TO.N,/CORE_ESP32-WROVER/ESP_SPI_INT.OE*%
X120434100Y-127764800D02*
X120434100Y-122413500D01*
X143268900Y-133853300D02*
X143268900Y-130016000D01*
X106602300Y-108151800D02*
X106868500Y-108418000D01*
X121678300Y-129009000D02*
X120434100Y-127764800D01*
X120658600Y-144108600D02*
X121678300Y-143088900D01*
X143268900Y-130016000D02*
X142895300Y-129642400D01*
X101143400Y-122810800D02*
X101143400Y-109170800D01*
X121678300Y-143088900D02*
X121678300Y-129009000D01*
X135966400Y-116533600D02*
X134380000Y-118120000D01*
X86980000Y-153049900D02*
X88620200Y-153049900D01*
X88051800Y-55896300D02*
X87803700Y-55896300D01*
X142895300Y-129642400D02*
X142895300Y-126725400D01*
X143683900Y-125936800D02*
X143683900Y-117569900D01*
X88620200Y-153049900D02*
X91381800Y-150288300D01*
X142895300Y-126725400D02*
X143683900Y-125936800D01*
X142647600Y-116533600D02*
X135966400Y-116533600D01*
X86980000Y-155000000D02*
X86980000Y-153049900D01*
X94667400Y-60210800D02*
X106602300Y-72145700D01*
X87803700Y-55896300D02*
X82080000Y-61620000D01*
X142527600Y-136210600D02*
X143268900Y-135469300D01*
X101175200Y-122842600D02*
X101143400Y-122810800D01*
X106602300Y-72145700D02*
X106602300Y-108151800D01*
X143683900Y-117569900D02*
X142647600Y-116533600D01*
X142527600Y-146257100D02*
X142527600Y-136210600D01*
X143268900Y-135469300D02*
X143268900Y-133853300D01*
X143268900Y-133853300D02*
X143519000Y-133853300D01*
%TO.N,/CORE_ESP32-WROVER/ESP_SPI_INT.SCK*%
X156226800Y-126760700D02*
X156226800Y-133245000D01*
X157051700Y-134069900D02*
X157051700Y-138205600D01*
X77000000Y-63170100D02*
X86107100Y-72277200D01*
X97587000Y-72277200D02*
X101027200Y-75717400D01*
X145395600Y-138831000D02*
X145395600Y-135409200D01*
X101027200Y-75717400D02*
X101027200Y-95795600D01*
X164769400Y-109541700D02*
X164769400Y-89106800D01*
X159118500Y-115192600D02*
X164769400Y-109541700D01*
X209460000Y-144329900D02*
X214249000Y-144329900D01*
X209460000Y-145880000D02*
X209460000Y-144329900D01*
X218632500Y-148713400D02*
X219140300Y-148713400D01*
X159118500Y-123932700D02*
X159118500Y-115192600D01*
X164769400Y-89106800D02*
X167960500Y-85915700D01*
X204093200Y-138963100D02*
X209460000Y-144329900D01*
X214249000Y-144329900D02*
X218632500Y-148713400D01*
X145769200Y-135035600D02*
X145769200Y-131931000D01*
X156226800Y-133245000D02*
X157051700Y-134069900D01*
X145395600Y-131557400D02*
X145395600Y-128375800D01*
X77000000Y-61620000D02*
X77000000Y-63170100D01*
X159654400Y-134069900D02*
X157051700Y-134069900D01*
X157051700Y-138205600D02*
X156265000Y-138992300D01*
X145395600Y-128375800D02*
X145145500Y-128125700D01*
X184300000Y-129170100D02*
X194093000Y-138963100D01*
X160891900Y-132832400D02*
X159654400Y-134069900D01*
X80310000Y-109350000D02*
X80310000Y-119172300D01*
X194093000Y-138963100D02*
X204093200Y-138963100D01*
X184300000Y-127620000D02*
X184300000Y-129170100D01*
X145769200Y-131931000D02*
X145395600Y-131557400D01*
X86107100Y-72277200D02*
X97587000Y-72277200D01*
X80310000Y-119172300D02*
X89187600Y-128049900D01*
X220590500Y-150163600D02*
X224843600Y-150163600D01*
X224843600Y-150163600D02*
X228800000Y-154120000D01*
X94600000Y-130000000D02*
X94600000Y-128049900D01*
X89187600Y-128049900D02*
X94600000Y-128049900D01*
X76500000Y-105540000D02*
X80310000Y-109350000D01*
X145395600Y-135409200D02*
X145769200Y-135035600D01*
X219140300Y-148713400D02*
X220590500Y-150163600D01*
%TO.N,/CORE_ESP32-WROVER/ESP_SPI_INT.CE*%
X209460000Y-153500000D02*
X214068900Y-148891100D01*
X191835200Y-96767200D02*
X191171600Y-97430800D01*
X214068900Y-148891100D02*
X217038600Y-148891100D01*
X194206800Y-91246800D02*
X189500000Y-86540000D01*
X191171600Y-106632100D02*
X192577000Y-108037500D01*
X205805700Y-122953800D02*
X206088200Y-122671300D01*
X208695300Y-134533000D02*
X208695300Y-130486100D01*
X97215800Y-122721900D02*
X97215800Y-127974100D01*
X205088100Y-119864300D02*
X205088100Y-119184100D01*
X191171600Y-97430800D02*
X191171600Y-106632100D01*
X97215800Y-127974100D02*
X97140000Y-128049900D01*
X206088200Y-122671300D02*
X206088200Y-120864400D01*
X94101000Y-107927400D02*
X94101000Y-119607100D01*
X208695300Y-130486100D02*
X205805700Y-127596500D01*
X219875400Y-145713100D02*
X208695300Y-134533000D01*
X220216600Y-145713100D02*
X219875400Y-145713100D01*
X140500000Y-84540000D02*
X142559000Y-82481000D01*
X205805700Y-127596500D02*
X205805700Y-122953800D01*
X206088200Y-120864400D02*
X205088100Y-119864300D01*
X97140000Y-130000000D02*
X97140000Y-128049900D01*
X192577000Y-108037500D02*
X192577000Y-114299100D01*
X142559000Y-82481000D02*
X142559000Y-79143100D01*
X203660500Y-117756500D02*
X203660500Y-115988500D01*
X205088100Y-119184100D02*
X203660500Y-117756500D01*
X194206800Y-94188200D02*
X194206800Y-91246800D01*
X192577000Y-114299100D02*
X194266400Y-115988500D01*
X220505400Y-145424300D02*
X220216600Y-145713100D01*
X94101000Y-119607100D02*
X97215800Y-122721900D01*
%TO.N,/ESP_HARDLOCK*%
X118612500Y-97720200D02*
X118612500Y-98577900D01*
X110227700Y-106962700D02*
X110227700Y-121509800D01*
X120000000Y-74780000D02*
X122647500Y-77427500D01*
X118612500Y-98577900D02*
X110227700Y-106962700D01*
X110227700Y-121509800D02*
X103951300Y-127786200D01*
X122647500Y-93685200D02*
X118612500Y-97720200D01*
X122647500Y-77427500D02*
X122647500Y-93685200D01*
%TO.N,/LOCAL_D2*%
X223445000Y-130120000D02*
X223445000Y-132664900D01*
X230158700Y-138857700D02*
X228037700Y-138857700D01*
X150444200Y-129235800D02*
X150444200Y-136481800D01*
X223445000Y-132664900D02*
X223600000Y-132819900D01*
X234743200Y-142283200D02*
X238960000Y-146500000D01*
X223445000Y-130120000D02*
X223445000Y-128569900D01*
X223560000Y-128454900D02*
X223445000Y-128569900D01*
X233584200Y-142283200D02*
X230158700Y-138857700D01*
X228037700Y-138857700D02*
X223600000Y-134420000D01*
X163690700Y-149728300D02*
X199975500Y-149728300D01*
X223560000Y-125960000D02*
X223560000Y-128454900D01*
X199975500Y-149728300D02*
X202197100Y-151949900D01*
X202197100Y-151949900D02*
X204380000Y-151949900D01*
X223600000Y-134420000D02*
X223600000Y-132819900D01*
X233584200Y-142283200D02*
X234743200Y-142283200D01*
X204380000Y-153500000D02*
X204380000Y-151949900D01*
X152000000Y-127680000D02*
X150444200Y-129235800D01*
X150444200Y-136481800D02*
X163690700Y-149728300D01*
%TO.N,/LOCAL_D3*%
X221020000Y-125960000D02*
X221020000Y-128454900D01*
X221060000Y-134420000D02*
X221060000Y-132819900D01*
X221060000Y-134420000D02*
X226605000Y-139965000D01*
X229498100Y-139965000D02*
X233066400Y-143533300D01*
X220905000Y-130120000D02*
X220905000Y-132664900D01*
X208816200Y-124370400D02*
X207055900Y-126130700D01*
X226605000Y-139965000D02*
X229498100Y-139965000D01*
X221020000Y-128454900D02*
X220905000Y-128569900D01*
X220905000Y-130120000D02*
X220905000Y-128569900D01*
X221020000Y-125960000D02*
X219430400Y-124370400D01*
X220905000Y-132664900D02*
X221060000Y-132819900D01*
X233066400Y-143533300D02*
X233453300Y-143533300D01*
X219430400Y-124370400D02*
X208816200Y-124370400D01*
X233453300Y-143533300D02*
X236420000Y-146500000D01*
%TO.N,/LOCAL_D4*%
X176112600Y-129527900D02*
X175380400Y-128795700D01*
X218480000Y-125960000D02*
X218480000Y-127510100D01*
X228345100Y-140965100D02*
X224788200Y-140965100D01*
X175380400Y-128795700D02*
X169905800Y-128795700D01*
X191994300Y-142595500D02*
X188877600Y-139478800D01*
X184766100Y-133537300D02*
X180019500Y-133537300D01*
X218365000Y-134541900D02*
X218365000Y-130120000D01*
X180019500Y-133537300D02*
X176112600Y-129630400D01*
X233880000Y-146500000D02*
X228345100Y-140965100D01*
X176112600Y-129630400D02*
X176112600Y-129527900D01*
X206920000Y-145880000D02*
X206920000Y-144329900D01*
X218365000Y-127625100D02*
X218365000Y-130120000D01*
X202886000Y-140295900D02*
X195329600Y-140295900D01*
X188877600Y-137648800D02*
X184766100Y-133537300D01*
X206920000Y-144329900D02*
X202886000Y-140295900D01*
X188877600Y-139478800D02*
X188877600Y-137648800D01*
X195329600Y-140295900D02*
X193030000Y-142595500D01*
X218480000Y-127510100D02*
X218365000Y-127625100D01*
X193030000Y-142595500D02*
X191994300Y-142595500D01*
X224788200Y-140965100D02*
X218365000Y-134541900D01*
X169905800Y-128795700D02*
X168790100Y-127680000D01*
X167240000Y-127680000D02*
X168790100Y-127680000D01*
%TO.N,/LOCAL_D5*%
X192512100Y-141345400D02*
X192512100Y-139868900D01*
X215825000Y-130120000D02*
X215825000Y-132664900D01*
X215980000Y-134420000D02*
X215980000Y-132819900D01*
X171445700Y-127795600D02*
X168790100Y-125140000D01*
X215993300Y-134420000D02*
X215980000Y-134420000D01*
X175794700Y-127795600D02*
X171445700Y-127795600D01*
X204380000Y-145880000D02*
X204380000Y-144329900D01*
X215940000Y-128454900D02*
X215825000Y-128569900D01*
X167240000Y-125140000D02*
X168790100Y-125140000D01*
X231340000Y-146500000D02*
X226805200Y-141965200D01*
X201600000Y-141549900D02*
X200532900Y-141549900D01*
X204380000Y-144329900D02*
X201600000Y-141549900D01*
X226805200Y-141965200D02*
X223538500Y-141965200D01*
X215940000Y-125960000D02*
X215940000Y-128454900D01*
X177830800Y-129831700D02*
X175794700Y-127795600D01*
X215825000Y-132664900D02*
X215980000Y-132819900D01*
X182474900Y-129831700D02*
X177830800Y-129831700D01*
X215825000Y-130120000D02*
X215825000Y-128569900D01*
X192512100Y-139868900D02*
X182474900Y-129831700D01*
X223538500Y-141965200D02*
X215993300Y-134420000D01*
X200532900Y-141549900D02*
X200532900Y-141549800D01*
%TO.N,/CORE_ESP32-WROVER/ESP_SPI_INT.PL*%
X89520000Y-156950000D02*
X90680500Y-158110500D01*
X136014900Y-80415200D02*
X136070000Y-80415200D01*
X134430100Y-82000000D02*
X136014900Y-80415200D01*
X187035800Y-153743000D02*
X189739600Y-151039200D01*
X89520000Y-156950000D02*
X89520000Y-156950100D01*
X173112800Y-158110500D02*
X175162500Y-156060800D01*
X89520000Y-156700000D02*
X89520000Y-156950000D01*
X89520000Y-155000000D02*
X89520000Y-156700000D01*
X90680500Y-158110500D02*
X173112800Y-158110500D01*
X132880000Y-82000000D02*
X134430100Y-82000000D01*
X68503100Y-156950100D02*
X66496600Y-154943600D01*
X66496600Y-154943600D02*
X66496600Y-113003400D01*
X189739600Y-151039200D02*
X197703000Y-151039200D01*
X66496600Y-113003400D02*
X76500000Y-103000000D01*
X89520000Y-156950100D02*
X68503100Y-156950100D01*
%TO.N,Net-(D11-K)*%
X231065000Y-130120000D02*
X231065000Y-131670100D01*
X232889900Y-133495000D02*
X232889900Y-134460000D01*
X234640000Y-134460000D02*
X232889900Y-134460000D01*
X231065000Y-131670100D02*
X232889900Y-133495000D01*
%TO.N,/LOCAL_D6*%
X222997900Y-142839000D02*
X221859000Y-142839000D01*
X213400000Y-128454900D02*
X213285000Y-128569900D01*
X213285000Y-130120000D02*
X213285000Y-128569900D01*
X213285000Y-132664900D02*
X213440000Y-132819900D01*
X213400000Y-125960000D02*
X213400000Y-128454900D01*
X221859000Y-142839000D02*
X213440000Y-134420000D01*
X225265300Y-142965300D02*
X223124200Y-142965300D01*
X228800000Y-146500000D02*
X225265300Y-142965300D01*
X213440000Y-134420000D02*
X213440000Y-132819900D01*
X223124200Y-142965300D02*
X222997900Y-142839000D01*
X213285000Y-130120000D02*
X213285000Y-132664900D01*
%TO.N,/LOCAL_D7*%
X210745000Y-129592500D02*
X210745000Y-128569900D01*
X223209900Y-144465400D02*
X222583600Y-143839100D01*
X210745000Y-128569900D02*
X210860000Y-128454900D01*
X224225400Y-144465400D02*
X223209900Y-144465400D01*
X226260000Y-146500000D02*
X224225400Y-144465400D01*
X210745000Y-130120000D02*
X210745000Y-132664900D01*
X222583600Y-143839100D02*
X220319100Y-143839100D01*
X210745000Y-129592500D02*
X210745000Y-130120000D01*
X168790100Y-120060000D02*
X168790100Y-121488000D01*
X210745000Y-132664900D02*
X210900000Y-132819900D01*
X220319100Y-143839100D02*
X210900000Y-134420000D01*
X167240000Y-120060000D02*
X168790100Y-120060000D01*
X210860000Y-128454900D02*
X210860000Y-125960000D01*
X210900000Y-134420000D02*
X210900000Y-132819900D01*
X168790100Y-121488000D02*
X172266100Y-124964000D01*
%TO.N,/!ESP_HARDLOCK*%
X120000000Y-77320000D02*
X121644000Y-78964000D01*
X110739600Y-88221200D02*
X111102800Y-87858000D01*
X115870900Y-94196000D02*
X110739600Y-89064700D01*
X121644000Y-78964000D02*
X121644000Y-93207300D01*
X120655300Y-94196000D02*
X115870900Y-94196000D01*
X111102800Y-87858000D02*
X111102800Y-83553900D01*
X111102800Y-83553900D02*
X110605600Y-83056700D01*
X110739600Y-89064700D02*
X110739600Y-88221200D01*
X121644000Y-93207300D02*
X120655300Y-94196000D01*
%TO.N,/CACHE_CONTROL.CS*%
X198120000Y-112049200D02*
X201410200Y-115339400D01*
X198577600Y-90758600D02*
X198577600Y-102172000D01*
X174994000Y-122983900D02*
X170772400Y-118762300D01*
X203783800Y-88539300D02*
X204033900Y-88789400D01*
X201410200Y-117098200D02*
X201587700Y-117275700D01*
X209539400Y-97693300D02*
X213144100Y-94088600D01*
X201587700Y-123273700D02*
X200980900Y-123880500D01*
X204745800Y-97693300D02*
X209539400Y-97693300D01*
X204033900Y-88789400D02*
X204033900Y-94972200D01*
X203578100Y-96525600D02*
X204745800Y-97693300D01*
X201587700Y-117275700D02*
X201587700Y-123273700D01*
X198302500Y-85094800D02*
X198302500Y-90483500D01*
X213144100Y-77424100D02*
X210500000Y-74780000D01*
X198120000Y-102629600D02*
X198120000Y-112049200D01*
X198302500Y-90483500D02*
X198577600Y-90758600D01*
X213144100Y-94088600D02*
X213144100Y-77424100D01*
X204033900Y-94972200D02*
X203578100Y-95428000D01*
X203578100Y-95428000D02*
X203578100Y-96525600D01*
X174994000Y-123769400D02*
X174994000Y-122983900D01*
X198577600Y-102172000D02*
X198120000Y-102629600D01*
X201410200Y-115339400D02*
X201410200Y-117098200D01*
%TO.N,/SPI-Z80-BUS_ZXspectrum/ESP_CONTROL.WR+ESP_PULSE*%
X88420000Y-74880000D02*
X88420000Y-76430100D01*
X87859800Y-76430100D02*
X88420000Y-76430100D01*
X83340000Y-80949900D02*
X87859800Y-76430100D01*
X83340000Y-82500000D02*
X83340000Y-80949900D01*
%TO.N,/LOCAL_A10*%
X165643800Y-130919600D02*
X165643800Y-111496200D01*
X194577200Y-107120900D02*
X194577200Y-111335300D01*
X191050100Y-91620000D02*
X191050100Y-92799700D01*
X191050100Y-92799700D02*
X195577300Y-97326900D01*
X194460000Y-120000000D02*
X194460000Y-121550100D01*
X177960000Y-143684700D02*
X172556800Y-138281500D01*
X186692800Y-68912900D02*
X185260000Y-67480100D01*
X198550200Y-121176300D02*
X198176400Y-121550100D01*
X194577200Y-100928500D02*
X194577200Y-104903900D01*
X177960000Y-146000000D02*
X177960000Y-143684700D01*
X184880000Y-63050100D02*
X185260000Y-63430100D01*
X194753500Y-106944600D02*
X194577200Y-107120900D01*
X195577300Y-99928400D02*
X194577200Y-100928500D01*
X186692800Y-89828000D02*
X186692800Y-68912900D01*
X189500000Y-91620000D02*
X191050100Y-91620000D01*
X194753500Y-105080200D02*
X194753500Y-106944600D01*
X185260000Y-63430100D02*
X185260000Y-65880000D01*
X196577300Y-116508500D02*
X198550200Y-118481400D01*
X196577300Y-114749700D02*
X196577300Y-116508500D01*
X195577300Y-97326900D02*
X195577300Y-99928400D01*
X195119700Y-111877800D02*
X195119700Y-113292100D01*
X172556800Y-137832600D02*
X165643800Y-130919600D01*
X165643800Y-111496200D02*
X167240000Y-109900000D01*
X195119700Y-113292100D02*
X196577300Y-114749700D01*
X184880000Y-61500000D02*
X184880000Y-63050100D01*
X194577200Y-111335300D02*
X195119700Y-111877800D01*
X198176400Y-121550100D02*
X194460000Y-121550100D01*
X194577200Y-104903900D02*
X194753500Y-105080200D01*
X185260000Y-65880000D02*
X185260000Y-67480100D01*
X172556800Y-138281500D02*
X172556800Y-137832600D01*
X198550200Y-118481400D02*
X198550200Y-121176300D01*
%TO.N,/CACHE_CONTROL.OE*%
X182385900Y-106976800D02*
X173441400Y-98032300D01*
X177074800Y-113448000D02*
X182385900Y-108136900D01*
X182385900Y-108136900D02*
X182385900Y-106976800D01*
X216005400Y-99412600D02*
X216005400Y-86172600D01*
X173441400Y-98032300D02*
X173441400Y-91320300D01*
X213032400Y-69273400D02*
X213032400Y-70445100D01*
X216005400Y-86172600D02*
X215667500Y-85834700D01*
X214957100Y-67348700D02*
X213032400Y-69273400D01*
X175610000Y-113448000D02*
X177074800Y-113448000D01*
%TO.N,/LOCAL_A11*%
X191920000Y-120000000D02*
X191920000Y-118449900D01*
X175420000Y-143057200D02*
X171556700Y-139193900D01*
X182720000Y-67480100D02*
X185442700Y-70202800D01*
X185442700Y-91890100D02*
X185789300Y-92236700D01*
X187627400Y-94074800D02*
X185789300Y-92236700D01*
X188386500Y-114916400D02*
X188386500Y-104272000D01*
X170824500Y-137514700D02*
X170706100Y-137514700D01*
X187627400Y-103512900D02*
X187627400Y-94074800D01*
X182720000Y-65880000D02*
X182720000Y-64279900D01*
X191920000Y-118449900D02*
X188386500Y-114916400D01*
X175420000Y-146000000D02*
X175420000Y-143057200D01*
X171556700Y-138246900D02*
X170824500Y-137514700D01*
X164333000Y-131141600D02*
X164333000Y-114644400D01*
X171556700Y-139193900D02*
X171556700Y-138246900D01*
X170706100Y-137514700D02*
X164333000Y-131141600D01*
X182720000Y-64279900D02*
X182340000Y-63899900D01*
X182340000Y-63899900D02*
X182340000Y-61500000D01*
X188386500Y-104272000D02*
X187627400Y-103512900D01*
X185442700Y-70202800D02*
X185442700Y-91890100D01*
X182720000Y-65880000D02*
X182720000Y-67480100D01*
%TO.N,/LOCAL_A9*%
X194577200Y-98392600D02*
X193085300Y-96900700D01*
X190857100Y-95517100D02*
X189500000Y-94160000D01*
X170190200Y-119948000D02*
X170190200Y-120733500D01*
X170190200Y-120733500D02*
X176996600Y-127539900D01*
X193577100Y-113163900D02*
X193577100Y-106706600D01*
X187942900Y-92602900D02*
X187942900Y-67623000D01*
X180500000Y-144449900D02*
X174862500Y-138812400D01*
X193085300Y-96249300D02*
X192353100Y-95517100D01*
X193085300Y-96900700D02*
X193085300Y-96249300D01*
X193753400Y-106530300D02*
X193753400Y-105494500D01*
X169522300Y-119280100D02*
X170190200Y-119948000D01*
X195577200Y-115164000D02*
X193577100Y-113163900D01*
X174862500Y-138812400D02*
X174862500Y-130045800D01*
X187420000Y-63050100D02*
X187800000Y-63430100D01*
X194577200Y-99514100D02*
X194577200Y-98392600D01*
X187800000Y-63430100D02*
X187800000Y-65880000D01*
X187420000Y-61500000D02*
X187420000Y-63050100D01*
X197000000Y-120000000D02*
X197000000Y-118449900D01*
X187942900Y-67623000D02*
X187800000Y-67480100D01*
X180500000Y-146000000D02*
X180500000Y-144449900D01*
X197000000Y-118449900D02*
X195577200Y-117027100D01*
X193577100Y-106706600D02*
X193753400Y-106530300D01*
X169522300Y-109642300D02*
X169522300Y-119280100D01*
X193577100Y-105318200D02*
X193577100Y-100514200D01*
X176996600Y-127539900D02*
X177307100Y-127539900D01*
X192353100Y-95517100D02*
X190857100Y-95517100D01*
X167240000Y-107360000D02*
X169522300Y-109642300D01*
X189500000Y-94160000D02*
X187942900Y-92602900D01*
X193577100Y-100514200D02*
X194577200Y-99514100D01*
X187800000Y-65880000D02*
X187800000Y-67480100D01*
X195577200Y-117027100D02*
X195577200Y-115164000D01*
X193753400Y-105494500D02*
X193577100Y-105318200D01*
%TO.N,/LOCAL_A8*%
X196077500Y-111421200D02*
X196119800Y-111463500D01*
X171293500Y-108873500D02*
X171293500Y-114323300D01*
X178977100Y-122006900D02*
X188846900Y-122006900D01*
X199410000Y-117926800D02*
X199569400Y-118086200D01*
X188846900Y-122006900D02*
X194460000Y-127620000D01*
X189960000Y-61500000D02*
X189960000Y-63899900D01*
X182437600Y-146736100D02*
X182437600Y-138474900D01*
X199410000Y-117550800D02*
X199410000Y-117926800D01*
X195138200Y-126069900D02*
X194460000Y-126069900D01*
X195577300Y-101342800D02*
X195577300Y-104489600D01*
X196577400Y-100342700D02*
X195577300Y-101342800D01*
X193897700Y-89076000D02*
X196577400Y-91755700D01*
X189960000Y-63899900D02*
X190340000Y-64279900D01*
X177960000Y-148458900D02*
X177960000Y-148458800D01*
X182437600Y-138474900D02*
X184001800Y-136910700D01*
X194460000Y-127620000D02*
X194460000Y-126069900D01*
X199569400Y-118086200D02*
X199569400Y-121638700D01*
X196119800Y-112877800D02*
X197577400Y-114335400D01*
X195753600Y-104665900D02*
X195753600Y-107358900D01*
X195577300Y-107535200D02*
X195577300Y-109361300D01*
X195577300Y-109361300D02*
X196077500Y-109861500D01*
X177960000Y-148458800D02*
X180714900Y-148458800D01*
X195753600Y-107358900D02*
X195577300Y-107535200D01*
X196077500Y-109861500D02*
X196077500Y-111421200D01*
X180714900Y-148458800D02*
X182437600Y-146736100D01*
X199569400Y-121638700D02*
X195138200Y-126069900D01*
X195577300Y-104489600D02*
X195753600Y-104665900D01*
X196119800Y-111463500D02*
X196119800Y-112877800D01*
X184001800Y-136910700D02*
X184001800Y-136026700D01*
X196577400Y-91755700D02*
X196577400Y-100342700D01*
X190340000Y-65880000D02*
X190340000Y-64279900D01*
X197577400Y-115718200D02*
X199410000Y-117550800D01*
X167240000Y-104820000D02*
X171293500Y-108873500D01*
X171293500Y-114323300D02*
X178977100Y-122006900D01*
X197577400Y-114335400D02*
X197577400Y-115718200D01*
%TO.N,/CACHE_CONTROL.WE*%
X210500000Y-69700000D02*
X214144300Y-73344300D01*
X208186600Y-100762600D02*
X208186600Y-109333900D01*
X214144300Y-73344300D02*
X214144300Y-94804900D01*
X214144300Y-94804900D02*
X208186600Y-100762600D01*
%TO.N,/Z80_CONTROL.RESET*%
X153937700Y-153893000D02*
X157155100Y-157110400D01*
X260425800Y-126034500D02*
X262879000Y-123581300D01*
X244825000Y-131327200D02*
X246982100Y-133484300D01*
X244825000Y-129727100D02*
X244825000Y-131327200D01*
X151873700Y-151740000D02*
X148341000Y-148207300D01*
X124862100Y-151491600D02*
X122651500Y-151491600D01*
X148341000Y-148207300D02*
X144467600Y-148207300D01*
X262879000Y-123581300D02*
X262879000Y-44081000D01*
X161997800Y-157110400D02*
X162308500Y-156799700D01*
X262879000Y-44081000D02*
X252832000Y-34034000D01*
X157155100Y-157110400D02*
X161997800Y-157110400D01*
X246982100Y-133484300D02*
X246982100Y-157720000D01*
X109410000Y-136500000D02*
X109410000Y-138250100D01*
X122651500Y-151491600D02*
X109410000Y-138250100D01*
%TO.N,/Z80_CONTROL.BUSRQ*%
X154776100Y-38683900D02*
X152460000Y-41000000D01*
X114859800Y-65620100D02*
X115859900Y-64620000D01*
X87978100Y-35960000D02*
X89369700Y-34568400D01*
X76500000Y-108080000D02*
X73260900Y-108080000D01*
X68325500Y-79246200D02*
X68325500Y-64841100D01*
X117460000Y-64620000D02*
X115859900Y-64620000D01*
X160440000Y-34000000D02*
X155756100Y-38683900D01*
X73260900Y-108080000D02*
X72046000Y-109294900D01*
X69508900Y-80429600D02*
X68325500Y-79246200D01*
X107945000Y-65620100D02*
X114859800Y-65620100D01*
X103507700Y-61182800D02*
X107945000Y-65620100D01*
X103507700Y-48706400D02*
X103507700Y-61182800D01*
X155756100Y-38683900D02*
X154776100Y-38683900D01*
X89369700Y-34568400D02*
X103507700Y-48706400D01*
X83540000Y-35960000D02*
X85290100Y-35960000D01*
X85290100Y-35960000D02*
X87978100Y-35960000D01*
%TO.N,/Z80_CONTROL.WAIT*%
X80040000Y-36000000D02*
X82893700Y-38853700D01*
X112095200Y-88643100D02*
X114328000Y-86410300D01*
X157316100Y-38683900D02*
X155000000Y-41000000D01*
X88579900Y-141750000D02*
X88579900Y-142420000D01*
X77220700Y-140669900D02*
X87499800Y-140669900D01*
X158296100Y-38683900D02*
X157316100Y-38683900D01*
X108070500Y-67160000D02*
X117460000Y-67160000D01*
X90658000Y-38853700D02*
X102507600Y-50703300D01*
X114328000Y-86410300D02*
X114328000Y-77058600D01*
X102507600Y-61597100D02*
X108070500Y-67160000D01*
X74949900Y-110620000D02*
X67520400Y-118049500D01*
X162980000Y-34000000D02*
X158296100Y-38683900D01*
X67520400Y-118049500D02*
X67520400Y-130969600D01*
X67520400Y-130969600D02*
X77220700Y-140669900D01*
X90330000Y-142420000D02*
X88579900Y-142420000D01*
X76500000Y-110620000D02*
X74949900Y-110620000D01*
X82893700Y-38853700D02*
X90658000Y-38853700D01*
X87499800Y-140669900D02*
X88579900Y-141750000D01*
X102507600Y-50703300D02*
X102507600Y-61597100D01*
%TO.N,/Z80_CONTROL.BUSACK*%
X110085900Y-93567700D02*
X110085900Y-92153100D01*
X160080000Y-41000000D02*
X157756900Y-43323100D01*
X163600000Y-41000000D02*
X170600000Y-34000000D01*
X110085900Y-92153100D02*
X107859000Y-89926200D01*
X160080000Y-41000000D02*
X163600000Y-41000000D01*
X157756900Y-43323100D02*
X143203200Y-43323100D01*
%TO.N,/ESP_CONTROL.BUSRQ*%
X82260200Y-44069900D02*
X83540000Y-42790100D01*
X117503800Y-47735000D02*
X118236100Y-48467300D01*
X105980300Y-60424100D02*
X109846200Y-56558200D01*
X118236100Y-48467300D02*
X119208000Y-48467300D01*
X113117400Y-49357800D02*
X113117400Y-48135400D01*
X109846200Y-56558200D02*
X109846200Y-52629000D01*
X82080000Y-54000000D02*
X82080000Y-52449900D01*
X117503800Y-47703100D02*
X117503800Y-47735000D01*
X82040000Y-52409900D02*
X82040000Y-50120000D01*
X82000000Y-45620000D02*
X82000000Y-44069900D01*
X82000000Y-48479900D02*
X82000000Y-45620000D01*
X82080000Y-52449900D02*
X82040000Y-52409900D01*
X82040000Y-50120000D02*
X82040000Y-48519900D01*
X82040000Y-48519900D02*
X82000000Y-48479900D01*
X82000000Y-44069900D02*
X82260200Y-44069900D01*
X116618000Y-46817300D02*
X117503800Y-47703100D01*
X113117400Y-48135400D02*
X114435500Y-46817300D01*
X123678300Y-52937600D02*
X123678300Y-58401700D01*
X114435500Y-46817300D02*
X116618000Y-46817300D01*
X83540000Y-41040000D02*
X83540000Y-42790100D01*
X109846200Y-52629000D02*
X113117400Y-49357800D01*
X119208000Y-48467300D02*
X123678300Y-52937600D01*
X123678300Y-58401700D02*
X120000000Y-62080000D01*
%TO.N,/ESP_CONTROL.WAIT*%
X79460000Y-48479900D02*
X79460000Y-45620000D01*
X79500000Y-50120000D02*
X79500000Y-48519900D01*
X79540000Y-52449900D02*
X79500000Y-52409900D01*
X79460000Y-43410100D02*
X80040000Y-42830100D01*
X79500000Y-52409900D02*
X79500000Y-50120000D01*
X79460000Y-45620000D02*
X79460000Y-43410100D01*
X79540000Y-54000000D02*
X79540000Y-52449900D01*
X79500000Y-48519900D02*
X79460000Y-48479900D01*
X80040000Y-41080000D02*
X80040000Y-42830100D01*
%TO.N,/ESP_CONTROL.ROMCS*%
X77000000Y-54000000D02*
X77000000Y-52449900D01*
X76960000Y-52409900D02*
X76960000Y-50120000D01*
X76920000Y-45620000D02*
X76920000Y-43170100D01*
X124728500Y-59891500D02*
X120000000Y-64620000D01*
X77000000Y-52449900D02*
X76960000Y-52409900D01*
X118753900Y-47217100D02*
X119401500Y-47217100D01*
X124728500Y-52544100D02*
X124728500Y-59891500D01*
X76960000Y-50120000D02*
X76960000Y-48519900D01*
X119401500Y-47217100D02*
X124728500Y-52544100D01*
X76960000Y-48519900D02*
X76920000Y-48479900D01*
X76920000Y-48479900D02*
X76920000Y-45620000D01*
X76920000Y-43170100D02*
X76540000Y-42790100D01*
X76540000Y-41040000D02*
X76540000Y-42790100D01*
%TO.N,Net-(IC3-~{RCO})*%
X147769400Y-135864200D02*
X147769400Y-131102400D01*
X147739000Y-139743100D02*
X147739000Y-136753600D01*
X147395800Y-125461200D02*
X148184400Y-124672600D01*
X148184400Y-124672600D02*
X148184400Y-100886100D01*
X147395800Y-136237800D02*
X147769400Y-135864200D01*
X172880000Y-153620000D02*
X171316700Y-152056700D01*
X147739000Y-136753600D02*
X147395800Y-136410400D01*
X147769400Y-131102400D02*
X147395800Y-130728800D01*
X169363300Y-152056700D02*
X167800000Y-153620000D01*
X155862600Y-85583700D02*
X160597200Y-85583700D01*
X147564100Y-93882200D02*
X155862600Y-85583700D01*
X147395800Y-136410400D02*
X147395800Y-136237800D01*
X148184400Y-100886100D02*
X147564100Y-100265800D01*
X156607200Y-148611300D02*
X147739000Y-139743100D01*
X147564100Y-100265800D02*
X147564100Y-93882200D01*
X171316700Y-152056700D02*
X169363300Y-152056700D01*
X147395800Y-130728800D02*
X147395800Y-125461200D01*
%TO.N,/ESP_CONTROL.NMI*%
X74380000Y-48479900D02*
X74380000Y-45620000D01*
X74420000Y-50120000D02*
X74420000Y-48519900D01*
X74380000Y-44069900D02*
X73060200Y-42750100D01*
X74460000Y-54000000D02*
X74460000Y-52449900D01*
X74380000Y-45620000D02*
X74380000Y-44069900D01*
X74460000Y-52449900D02*
X74420000Y-52409900D01*
X73040000Y-41000000D02*
X73040000Y-42750100D01*
X73060200Y-42750100D02*
X73040000Y-42750100D01*
X74420000Y-48519900D02*
X74380000Y-48479900D01*
X74420000Y-52409900D02*
X74420000Y-50120000D01*
%TO.N,/Z80_CONTROL.NMI*%
X74949900Y-115700000D02*
X73302700Y-114052800D01*
X159856100Y-38683900D02*
X157540000Y-41000000D01*
X160836100Y-38683900D02*
X159856100Y-38683900D01*
X76500000Y-115700000D02*
X74949900Y-115700000D01*
X165520000Y-34000000D02*
X160836100Y-38683900D01*
%TO.N,/ESP_CONTROL.RD*%
X92160000Y-48479900D02*
X92200000Y-48519900D01*
X88420000Y-80949900D02*
X92939800Y-76430100D01*
X87160000Y-60069900D02*
X92200000Y-55029900D01*
X92160000Y-45620000D02*
X92160000Y-48479900D01*
X93500000Y-74880000D02*
X93500000Y-76430100D01*
X92939800Y-76430100D02*
X93500000Y-76430100D01*
X88420000Y-82500000D02*
X88420000Y-80949900D01*
X87160000Y-61620000D02*
X87160000Y-60069900D01*
X92200000Y-50120000D02*
X92200000Y-48519900D01*
X92200000Y-55029900D02*
X92200000Y-50120000D01*
%TO.N,/ESP_CONTROL.WR*%
X260189700Y-43182700D02*
X261707100Y-44700100D01*
X233880000Y-154120000D02*
X233880000Y-152569900D01*
X128050200Y-42857800D02*
X128050200Y-52459800D01*
X89660000Y-50120000D02*
X89660000Y-48519900D01*
X232610000Y-151246000D02*
X232610000Y-151299900D01*
X89660000Y-52409900D02*
X89660000Y-50120000D01*
X89620000Y-48479900D02*
X89660000Y-48519900D01*
X141475600Y-31220100D02*
X136408300Y-36287400D01*
X251883700Y-31220100D02*
X141475600Y-31220100D01*
X123960000Y-38767600D02*
X128050200Y-42857800D01*
X123960000Y-35880000D02*
X123960000Y-38767600D01*
X89700000Y-54000000D02*
X89700000Y-52449900D01*
X232610000Y-151299900D02*
X233880000Y-152569900D01*
X262018000Y-41354400D02*
X251883700Y-31220100D01*
X261707100Y-110320200D02*
X260425800Y-111601500D01*
X128050200Y-52459800D02*
X126050000Y-54460000D01*
X89620000Y-45620000D02*
X89620000Y-48479900D01*
X89700000Y-52449900D02*
X89660000Y-52409900D01*
X261707100Y-44700100D02*
X261707100Y-110320200D01*
%TO.N,/ESP_CONTROL.IORQ*%
X87120000Y-50120000D02*
X87120000Y-51720100D01*
X87160000Y-51760100D02*
X87120000Y-51720100D01*
X83340000Y-74987500D02*
X72751700Y-64399200D01*
X78260000Y-80949900D02*
X82779800Y-76430100D01*
X70368200Y-60962800D02*
X72385900Y-58945100D01*
X82779800Y-76430100D02*
X83340000Y-76430100D01*
X78260000Y-82500000D02*
X78260000Y-80949900D01*
X83340000Y-75655000D02*
X83340000Y-74987500D01*
X82214900Y-58945100D02*
X87160000Y-54000000D01*
X87080000Y-47170100D02*
X87120000Y-47210100D01*
X72385900Y-58945100D02*
X82214900Y-58945100D01*
X87120000Y-47210100D02*
X87120000Y-50120000D01*
X70368200Y-62313800D02*
X70368200Y-60962800D01*
X117161100Y-50861000D02*
X115367600Y-49067500D01*
X87080000Y-45620000D02*
X87080000Y-47170100D01*
X121617500Y-53779800D02*
X118698700Y-50861000D01*
X118698700Y-50861000D02*
X117161100Y-50861000D01*
X72751700Y-64399200D02*
X72453600Y-64399200D01*
X87160000Y-54000000D02*
X87160000Y-51760100D01*
X72453600Y-64399200D02*
X70368200Y-62313800D01*
X121617500Y-55382500D02*
X121617500Y-53779800D01*
X83340000Y-75655000D02*
X83340000Y-76430100D01*
X83340000Y-74880000D02*
X83340000Y-74987500D01*
X120000000Y-57000000D02*
X121617500Y-55382500D01*
%TO.N,/ESP_CONTROL.MEMRQ*%
X122653700Y-53378600D02*
X122653700Y-56886300D01*
X84620000Y-53472500D02*
X84620000Y-52449900D01*
X73180000Y-82500000D02*
X73180000Y-81724900D01*
X116171800Y-47817400D02*
X118215300Y-49860900D01*
X114849800Y-47817400D02*
X116171800Y-47817400D01*
X84620000Y-52449900D02*
X84580000Y-52409900D01*
X84620000Y-53472500D02*
X84620000Y-54000000D01*
X78260000Y-72967800D02*
X69315100Y-64022900D01*
X69315100Y-64022900D02*
X69315100Y-60560600D01*
X84580000Y-47210100D02*
X84580000Y-50120000D01*
X114117500Y-48549700D02*
X114849800Y-47817400D01*
X82226200Y-56393800D02*
X84620000Y-54000000D01*
X78260000Y-76644900D02*
X78260000Y-76430100D01*
X112187600Y-52115300D02*
X114117500Y-50185400D01*
X118215300Y-49860900D02*
X119136000Y-49860900D01*
X78260000Y-74880000D02*
X78260000Y-73329900D01*
X119136000Y-49860900D02*
X122653700Y-53378600D01*
X114117500Y-50185400D02*
X114117500Y-48549700D01*
X78260000Y-73329900D02*
X78260000Y-72967800D01*
X69315100Y-60560600D02*
X73481900Y-56393800D01*
X78260000Y-74880000D02*
X78260000Y-76430100D01*
X84540000Y-45620000D02*
X84540000Y-47170100D01*
X73180000Y-81724900D02*
X78260000Y-76644900D01*
X122653700Y-56886300D02*
X120000000Y-59540000D01*
X84580000Y-52409900D02*
X84580000Y-50120000D01*
X73481900Y-56393800D02*
X82226200Y-56393800D01*
X84540000Y-47170100D02*
X84580000Y-47210100D01*
%TO.N,/CORE_ESP32-WROVER/EX_MISO*%
X131969900Y-156950100D02*
X133920000Y-155000000D01*
X99680000Y-156950100D02*
X131969900Y-156950100D01*
X99680000Y-155000000D02*
X99680000Y-156950100D01*
%TO.N,/Z80_CONTROL.MEMRQ*%
X157884100Y-34015900D02*
X157639100Y-34015900D01*
X155997000Y-32373800D02*
X143333000Y-32373800D01*
X155790700Y-35864300D02*
X157639100Y-34015900D01*
X155055700Y-35864300D02*
X155790700Y-35864300D01*
X75720000Y-74880000D02*
X75720000Y-76430100D01*
X114466600Y-62080000D02*
X111926600Y-64620000D01*
X149920000Y-41000000D02*
X155055700Y-35864300D01*
X108359300Y-64620000D02*
X104507800Y-60768500D01*
X104507800Y-51340500D02*
X110205900Y-45642400D01*
X143333000Y-32373800D02*
X137527000Y-38179800D01*
X157900000Y-34000000D02*
X157884100Y-34015900D01*
X157639100Y-34015900D02*
X155997000Y-32373800D01*
X111926600Y-64620000D02*
X108359300Y-64620000D01*
X65029100Y-86763100D02*
X65029100Y-90687000D01*
X117460000Y-62080000D02*
X114466600Y-62080000D01*
X75791800Y-101449700D02*
X77709500Y-101449700D01*
X77709500Y-101449700D02*
X84120000Y-107860200D01*
X75362100Y-76430100D02*
X65029100Y-86763100D01*
X65029100Y-90687000D02*
X75791800Y-101449700D01*
X104507800Y-60768500D02*
X104507800Y-51340500D01*
X75720000Y-76430100D02*
X75362100Y-76430100D01*
X84120000Y-107860200D02*
X84120000Y-108080000D01*
%TO.N,/Z80_CONTROL.IORQ*%
X155360000Y-34000000D02*
X150319400Y-39040600D01*
X70072500Y-75722200D02*
X74074400Y-71720300D01*
X127282700Y-95918900D02*
X121988000Y-101213600D01*
X70072500Y-78184500D02*
X70072500Y-75722200D01*
X75244400Y-71720300D02*
X75244400Y-71720200D01*
X68253300Y-85308500D02*
X70278600Y-85308500D01*
X73729800Y-88759700D02*
X73729800Y-92837900D01*
X70278600Y-85308500D02*
X73729800Y-88759700D01*
X150319400Y-39040600D02*
X149339400Y-39040600D01*
X127282700Y-55146000D02*
X127282700Y-95918900D01*
X149339400Y-39040600D02*
X147380000Y-41000000D01*
X73729800Y-92837900D02*
X82578500Y-101686600D01*
X74074400Y-71720300D02*
X75244400Y-71720300D01*
X129641400Y-52024800D02*
X129641400Y-52787300D01*
X129641400Y-52787300D02*
X127282700Y-55146000D01*
%TO.N,/Z80_CONTROL.WR*%
X96741900Y-80698300D02*
X98544800Y-82501200D01*
X98544800Y-82501200D02*
X98544800Y-98735200D01*
X117460000Y-57000000D02*
X115859900Y-57000000D01*
X149774700Y-36065300D02*
X151036100Y-36065300D01*
X152820000Y-34281400D02*
X152820000Y-34000000D01*
X98544800Y-98735200D02*
X84120000Y-113160000D01*
X115859900Y-57779500D02*
X110330200Y-63309200D01*
X115859900Y-57000000D02*
X115859900Y-57779500D01*
X85880000Y-74880000D02*
X85880000Y-76870400D01*
X85880000Y-76870400D02*
X82052100Y-80698300D01*
X144840000Y-41000000D02*
X149774700Y-36065300D01*
X151036100Y-36065300D02*
X152820000Y-34281400D01*
%TO.N,/CORE_ESP32-WROVER/EX_SS*%
X125681600Y-150241500D02*
X123583400Y-150241500D01*
X123583400Y-150241500D02*
X112380000Y-139038100D01*
X112380000Y-139038100D02*
X112380000Y-130000000D01*
X128840000Y-153399900D02*
X125681600Y-150241500D01*
X128840000Y-155000000D02*
X128840000Y-153399900D01*
%TO.N,/Z80_CONTROL.RD*%
X99544900Y-100275100D02*
X99544900Y-75722300D01*
X150280000Y-34000000D02*
X148679900Y-34000000D01*
X84120000Y-115700000D02*
X99544900Y-100275100D01*
X115859900Y-54460000D02*
X107922000Y-62397900D01*
X97105300Y-73282700D02*
X92557300Y-73282700D01*
X99544900Y-75722300D02*
X97105300Y-73282700D01*
X142300000Y-41000000D02*
X142300000Y-39399900D01*
X143280000Y-39399900D02*
X142300000Y-39399900D01*
X148679900Y-34000000D02*
X143280000Y-39399900D01*
X92557300Y-73282700D02*
X90960000Y-74880000D01*
X117460000Y-54460000D02*
X115859900Y-54460000D01*
%TO.N,/LOCAL_CONTROL.MEMRQ*%
X78160000Y-90090000D02*
X78160000Y-86490100D01*
X75720000Y-82500000D02*
X75720000Y-84050100D01*
X78160000Y-86490100D02*
X75720000Y-84050100D01*
%TO.N,/LOCAL_CONTROL.IORQ*%
X80700000Y-90090000D02*
X80700000Y-88539900D01*
X80700000Y-88539900D02*
X80800000Y-88439900D01*
X113036600Y-75725100D02*
X112353000Y-76408700D01*
X80800000Y-88439900D02*
X80800000Y-82500000D01*
X112353000Y-76408700D02*
X112353000Y-85675700D01*
%TO.N,/LOCAL_CONTROL.WR*%
X108852600Y-86925800D02*
X108602500Y-86675700D01*
X108602500Y-78364200D02*
X112931300Y-74035400D01*
X112931300Y-74035400D02*
X113073900Y-74035400D01*
X108602500Y-86675700D02*
X108602500Y-78364200D01*
%TO.N,/LOCAL_CONTROL.RD*%
X107602400Y-88175900D02*
X107602400Y-74698800D01*
X90269800Y-84050100D02*
X90960000Y-84050100D01*
X107852500Y-88426000D02*
X107602400Y-88175900D01*
X85780000Y-88539900D02*
X90269800Y-84050100D01*
X107602400Y-74698800D02*
X109845100Y-72456100D01*
X115859900Y-69700000D02*
X112601300Y-69700000D01*
X112601300Y-69700000D02*
X111682900Y-70618400D01*
X85780000Y-90090000D02*
X85780000Y-88539900D01*
X90960000Y-82500000D02*
X90960000Y-84050100D01*
X117460000Y-69700000D02*
X115859900Y-69700000D01*
%TO.N,/CACHE_CONTROL.DATASTATUS+PERM_Z80_IORQ*%
X170602500Y-77314500D02*
X170602500Y-74568600D01*
X213163600Y-61956400D02*
X213163600Y-53387000D01*
X210500000Y-64620000D02*
X213163600Y-61956400D01*
X192514900Y-66276400D02*
X192514900Y-67678000D01*
X213163600Y-53387000D02*
X211605100Y-51828500D01*
X161380000Y-83320000D02*
X164344800Y-80355200D01*
X168063200Y-73219700D02*
X166617000Y-71773500D01*
X167561800Y-80355200D02*
X170602500Y-77314500D01*
X211605100Y-51828500D02*
X206336600Y-51828500D01*
X169253600Y-73219700D02*
X168063200Y-73219700D01*
X202373400Y-58933800D02*
X201373300Y-59933900D01*
X201373300Y-59933900D02*
X201373300Y-65490700D01*
X170602500Y-74568600D02*
X169253600Y-73219700D01*
X202373400Y-55791700D02*
X202373400Y-58933800D01*
X201373300Y-65490700D02*
X199906900Y-66957100D01*
X206336600Y-51828500D02*
X202373400Y-55791700D01*
X192514900Y-67678000D02*
X189404700Y-70788200D01*
X164344800Y-80355200D02*
X167561800Y-80355200D01*
%TO.N,/IORQ_FILTER_BIT*%
X72706200Y-32277000D02*
X65160500Y-39822700D01*
X65160500Y-39822700D02*
X65160500Y-56620500D01*
X128830400Y-32277000D02*
X72706200Y-32277000D01*
X65160500Y-56620500D02*
X66800000Y-58260000D01*
X141187300Y-44633900D02*
X128830400Y-32277000D01*
X169077700Y-44633900D02*
X141187300Y-44633900D01*
%TO.N,/Z80_BUS_CONTROL.Z80_ADD_OE*%
X196669900Y-55502100D02*
X192500000Y-59672000D01*
X192500000Y-59672000D02*
X192500000Y-59949900D01*
X192500000Y-61500000D02*
X192500000Y-59949900D01*
X198223200Y-51894200D02*
X196669900Y-53447500D01*
X196669900Y-53447500D02*
X196669900Y-55502100D01*
%TO.N,/Z80_BUS_CONTROL.Z80_ADD_DIR*%
X212132200Y-55367800D02*
X212132200Y-53784500D01*
X210500000Y-57000000D02*
X212132200Y-55367800D01*
X211192000Y-52844300D02*
X206798900Y-52844300D01*
X206798900Y-52844300D02*
X204419900Y-55223300D01*
X212132200Y-53784500D02*
X211192000Y-52844300D01*
X204419900Y-55223300D02*
X204419900Y-55581400D01*
%TO.N,/Z80_BUS_CONTROL.Z80_DATA_DIR*%
X228118300Y-68130800D02*
X228118300Y-111188200D01*
X233720000Y-118340000D02*
X233720000Y-116789900D01*
X228118300Y-111188200D02*
X233720000Y-116789900D01*
X226946400Y-66958900D02*
X228118300Y-68130800D01*
%TO.N,/CACHE_SEL_2*%
X152000000Y-97200000D02*
X153550100Y-97200000D01*
X154348100Y-94851800D02*
X154348100Y-96402000D01*
X158871200Y-90328800D02*
X154348200Y-94851800D01*
X154348200Y-94851800D02*
X154348100Y-94851800D01*
X154348100Y-96402000D02*
X153550100Y-97200000D01*
%TO.N,/CACHE_SEL_0*%
X172019600Y-98502800D02*
X181135800Y-107619000D01*
X172019600Y-93579600D02*
X172019600Y-98502800D01*
%TO.N,/Z80_BUS_CONTROL.Z80_DATA_OE*%
X241341600Y-117957900D02*
X239486900Y-119812600D01*
X255833200Y-105982300D02*
X255833200Y-116207000D01*
X236839900Y-126556400D02*
X236839900Y-124585600D01*
X239971700Y-126585700D02*
X239042100Y-127515300D01*
X237798800Y-127515300D02*
X236839900Y-126556400D01*
X239486900Y-120019600D02*
X239971700Y-120504400D01*
X239486900Y-119812600D02*
X239486900Y-120019600D01*
X255833200Y-116207000D02*
X250552400Y-121487800D01*
X249101100Y-121487800D02*
X247288200Y-119674900D01*
X239042100Y-127515300D02*
X237798800Y-127515300D01*
X255737400Y-105886500D02*
X255833200Y-105982300D01*
X246038000Y-117957900D02*
X241341600Y-117957900D01*
X236839900Y-124585600D02*
X237015600Y-124409900D01*
X239971700Y-120504400D02*
X239971700Y-126585700D01*
X247288200Y-119208100D02*
X246038000Y-117957900D01*
X250552400Y-121487800D02*
X249101100Y-121487800D01*
X247288200Y-119674900D02*
X247288200Y-119208100D01*
%TO.N,/LOCAL_A12*%
X179510900Y-86710900D02*
X181880000Y-89080000D01*
X189380000Y-120000000D02*
X189380000Y-118449900D01*
X187386400Y-104686300D02*
X186627300Y-103927200D01*
X184257000Y-91457000D02*
X181880000Y-89080000D01*
X187386400Y-116456300D02*
X187386400Y-104686300D01*
X189380000Y-118449900D02*
X187386400Y-116456300D01*
X180180000Y-67480100D02*
X179510900Y-68149200D01*
X186627300Y-95124800D02*
X184257000Y-92754500D01*
X184257000Y-92754500D02*
X184257000Y-91457000D01*
X179510900Y-68149200D02*
X179510900Y-86710900D01*
X180180000Y-65880000D02*
X180180000Y-67480100D01*
X179800000Y-63050100D02*
X180180000Y-63430100D01*
X180180000Y-63430100D02*
X180180000Y-65880000D01*
X186627300Y-103927200D02*
X186627300Y-95124800D01*
X179800000Y-61500000D02*
X179800000Y-63050100D01*
%TO.N,/LOCAL_A13*%
X181880000Y-91908800D02*
X181880000Y-91620000D01*
X186386300Y-117996200D02*
X186386300Y-105100600D01*
X177260000Y-63050100D02*
X177640000Y-63430100D01*
X186386300Y-105100600D02*
X185627200Y-104341500D01*
X185627200Y-104341500D02*
X185627200Y-95656000D01*
X186840000Y-120000000D02*
X186840000Y-118449900D01*
X177640000Y-67480100D02*
X178510800Y-68350900D01*
X185627200Y-95656000D02*
X181880000Y-91908800D01*
X177260000Y-61500000D02*
X177260000Y-63050100D01*
X186840000Y-118449900D02*
X186386300Y-117996200D01*
X178510800Y-88250800D02*
X181880000Y-91620000D01*
X178510800Y-68350900D02*
X178510800Y-88250800D01*
X177640000Y-65880000D02*
X177640000Y-67480100D01*
X177640000Y-63430100D02*
X177640000Y-65880000D01*
%TO.N,/LOCAL_A14*%
X184489800Y-96769800D02*
X181880000Y-94160000D01*
X177510700Y-69890800D02*
X177510700Y-89790700D01*
X175100000Y-67480100D02*
X177510700Y-69890800D01*
X184489800Y-104618500D02*
X184489800Y-96769800D01*
X174720000Y-61500000D02*
X174720000Y-63050100D01*
X177510700Y-89790700D02*
X181880000Y-94160000D01*
X174720000Y-63050100D02*
X175100000Y-63430100D01*
X185386200Y-105514900D02*
X184489800Y-104618500D01*
X175100000Y-63430100D02*
X175100000Y-65880000D01*
X184300000Y-120000000D02*
X184300000Y-118449900D01*
X185386200Y-117363700D02*
X185386200Y-105514900D01*
X184300000Y-118449900D02*
X185386200Y-117363700D01*
X175100000Y-65880000D02*
X175100000Y-67480100D01*
%TO.N,/LOCAL_A15*%
X172560000Y-63430100D02*
X172560000Y-65880000D01*
X172180000Y-61500000D02*
X172180000Y-63050100D01*
X184386100Y-105929200D02*
X183432200Y-104975300D01*
X183432200Y-98252200D02*
X181880000Y-96700000D01*
X172180000Y-63050100D02*
X172560000Y-63430100D01*
X176510600Y-91330600D02*
X181880000Y-96700000D01*
X181760000Y-120000000D02*
X181760000Y-118449900D01*
X172560000Y-67480100D02*
X176510600Y-71430700D01*
X184386100Y-115823800D02*
X184386100Y-105929200D01*
X172560000Y-65880000D02*
X172560000Y-67480100D01*
X176510600Y-71430700D02*
X176510600Y-91330600D01*
X181760000Y-118449900D02*
X184386100Y-115823800D01*
X183432200Y-104975300D02*
X183432200Y-98252200D01*
%TO.N,/Z80_A0*%
X239925100Y-81390000D02*
X241859800Y-79455300D01*
X66800000Y-39674100D02*
X66800000Y-55720000D01*
X128080100Y-33285600D02*
X73188500Y-33285600D01*
X144623700Y-49829200D02*
X128080100Y-33285600D01*
X193460000Y-34000000D02*
X185362800Y-42097200D01*
X73188500Y-33285600D02*
X66800000Y-39674100D01*
X185362800Y-42097200D02*
X184305300Y-42097200D01*
X241859800Y-79455300D02*
X241859800Y-53111200D01*
X241859800Y-53111200D02*
X241859900Y-53111200D01*
X144623700Y-51597800D02*
X144623700Y-49829200D01*
X238375000Y-81390000D02*
X239925100Y-81390000D01*
%TO.N,/Z80_A1*%
X227766300Y-44833800D02*
X232765500Y-49833000D01*
X227766300Y-44633200D02*
X227766300Y-44833800D01*
X184072900Y-40847100D02*
X183787500Y-40847100D01*
X232765500Y-49833000D02*
X232765500Y-73240500D01*
X232765500Y-73240500D02*
X238375000Y-78850000D01*
X183787500Y-40847100D02*
X172768800Y-51865800D01*
X172768800Y-51865800D02*
X153554200Y-51865800D01*
X190920000Y-34000000D02*
X184072900Y-40847100D01*
X153554200Y-51865800D02*
X150920000Y-54500000D01*
%TO.N,/Z80_A2*%
X232910500Y-48037900D02*
X233765600Y-48893000D01*
X171514300Y-50865700D02*
X152014300Y-50865700D01*
X152014300Y-50865700D02*
X148380000Y-54500000D01*
X233765600Y-71700600D02*
X238375000Y-76310000D01*
X188380000Y-34000000D02*
X171514300Y-50865700D01*
X233765600Y-48893000D02*
X233765600Y-71700600D01*
%TO.N,/Z80_A3*%
X198494700Y-46005500D02*
X198494700Y-50044000D01*
X185840000Y-34873000D02*
X185840000Y-34000000D01*
X185840000Y-34000000D02*
X185840000Y-34686400D01*
X185840000Y-34686400D02*
X184823300Y-35703100D01*
X153455900Y-46884100D02*
X173828900Y-46884100D01*
X145840000Y-54500000D02*
X153455900Y-46884100D01*
X173828900Y-46884100D02*
X185840000Y-34873000D01*
X198494700Y-50044000D02*
X199271900Y-50821200D01*
%TO.N,/CACHE_SEL_1*%
X189636700Y-109221600D02*
X190814800Y-108043500D01*
X189636700Y-111584200D02*
X189636700Y-109221600D01*
%TO.N,/Z80_A4*%
X152105500Y-45884000D02*
X170104300Y-45884000D01*
X173747000Y-45153100D02*
X183300000Y-35600100D01*
X143489500Y-54500000D02*
X152105500Y-45884000D01*
X170835200Y-45153100D02*
X173746900Y-45153100D01*
X143300000Y-54500000D02*
X143489500Y-54500000D01*
X170104300Y-45884000D02*
X170835200Y-45153100D01*
X173769400Y-45175600D02*
X173747000Y-45153100D01*
X183300000Y-34000000D02*
X183300000Y-35600100D01*
X173746900Y-45153100D02*
X173747000Y-45153100D01*
%TO.N,/Z80_HARDLOCK_SET*%
X221272600Y-100546600D02*
X221272600Y-107386900D01*
X202373400Y-61103100D02*
X203936500Y-59540000D01*
X196056500Y-70887400D02*
X196056500Y-87342800D01*
X196056500Y-87342800D02*
X197017400Y-88303700D01*
X221272600Y-107386900D02*
X221110800Y-107548700D01*
X200426900Y-68864100D02*
X202373400Y-66917600D01*
X197017400Y-88303700D02*
X197017400Y-88904800D01*
X202373400Y-66917600D02*
X202373400Y-61103100D01*
%TO.N,/Z80_HARDLOCK_RESET*%
X214756900Y-100306000D02*
X215175900Y-100725000D01*
X215175900Y-100725000D02*
X215175900Y-107531300D01*
X201533600Y-89471400D02*
X201533600Y-87607200D01*
X245110100Y-156333000D02*
X242460700Y-158982400D01*
X241412400Y-131124300D02*
X245110100Y-134822000D01*
X203472100Y-74538600D02*
X203472100Y-62197200D01*
X201533600Y-87607200D02*
X203033800Y-86107000D01*
X154393600Y-150738500D02*
X147945500Y-144290400D01*
X205329000Y-59631000D02*
X207960000Y-57000000D01*
X204163900Y-100306000D02*
X201577900Y-97720000D01*
X205329000Y-60340300D02*
X205329000Y-59631000D01*
X201577900Y-97720000D02*
X201577900Y-89515700D01*
X241412400Y-119743400D02*
X241412400Y-131124300D01*
X233915000Y-107030000D02*
X233915000Y-114274400D01*
X233915000Y-114274400D02*
X234557700Y-114917100D01*
X203033800Y-74976900D02*
X203472100Y-74538600D01*
X203472100Y-62197200D02*
X205329000Y-60340300D01*
X203033800Y-86107000D02*
X203033800Y-74976900D01*
X245110100Y-134822000D02*
X245110100Y-156333000D01*
X201577900Y-89515700D02*
X201533600Y-89471400D01*
%TO.N,/WAIT_IO*%
X204404200Y-98800400D02*
X204514700Y-98800400D01*
X203362000Y-87289200D02*
X203266000Y-87289200D01*
X204516600Y-65523400D02*
X204516600Y-74908500D01*
X206588300Y-100874000D02*
X206588300Y-119269900D01*
X202578000Y-90785500D02*
X202578000Y-96974200D01*
X203266000Y-87289200D02*
X202533700Y-88021500D01*
X203033800Y-89557200D02*
X203033800Y-90329700D01*
X202533700Y-89057100D02*
X203033800Y-89557200D01*
X204033900Y-86617300D02*
X203362000Y-87289200D01*
X202578000Y-96974200D02*
X204404200Y-98800400D01*
X232810600Y-121947900D02*
X236383000Y-118375500D01*
X236455000Y-107030000D02*
X236455000Y-108580100D01*
X204033900Y-75391200D02*
X204033900Y-86617300D01*
X204514700Y-98800400D02*
X206588300Y-100874000D01*
X207960000Y-62080000D02*
X204516600Y-65523400D01*
X206588300Y-119269900D02*
X209266300Y-121947900D01*
X209266300Y-121947900D02*
X232810600Y-121947900D01*
X236383000Y-108652100D02*
X236455000Y-108580100D01*
X236383000Y-118375500D02*
X236383000Y-108652100D01*
X204516600Y-74908500D02*
X204033900Y-75391200D01*
X202533700Y-88021500D02*
X202533700Y-89057100D01*
X203033800Y-90329700D02*
X202578000Y-90785500D01*
%TO.N,/Z80_A6*%
X250383100Y-67055200D02*
X250560700Y-66877600D01*
X169419300Y-32380900D02*
X176600900Y-32380900D01*
X176600900Y-32380900D02*
X178220000Y-34000000D01*
X169330000Y-32470200D02*
X169419300Y-32380900D01*
X250560700Y-66877600D02*
X250560700Y-37131300D01*
%TO.N,/Z80_A7*%
X172666200Y-43177400D02*
X172666200Y-38613900D01*
X172666200Y-38613900D02*
X175680000Y-35600100D01*
X235076400Y-66908600D02*
X235076400Y-67365400D01*
X238375000Y-63610000D02*
X235076400Y-66908600D01*
X175680000Y-34000000D02*
X175680000Y-35600100D01*
%TO.N,/Z80_D0*%
X232799500Y-37920600D02*
X230913400Y-37920600D01*
X234100000Y-36620100D02*
X239648200Y-36620100D01*
X230913400Y-37920600D02*
X225179000Y-43655000D01*
X234100000Y-34000000D02*
X234100000Y-35600100D01*
X239648200Y-36620100D02*
X248132800Y-45104700D01*
X234100000Y-35600100D02*
X234100000Y-36620100D01*
X225179000Y-74178800D02*
X225370200Y-74370000D01*
X225179000Y-43655000D02*
X225179000Y-74178800D01*
X234100000Y-36620100D02*
X232799500Y-37920600D01*
%TO.N,/Z80_D1*%
X227118200Y-80480700D02*
X227118200Y-115268100D01*
X223547500Y-76910000D02*
X227118200Y-80480700D01*
X224118500Y-76339000D02*
X223547500Y-76910000D01*
X231560000Y-35859600D02*
X224118500Y-43301100D01*
X227118200Y-115268100D02*
X228640000Y-116789900D01*
X222495000Y-76910000D02*
X223547500Y-76910000D01*
X224118500Y-43301100D02*
X224118500Y-76339000D01*
X228640000Y-118340000D02*
X228640000Y-116789900D01*
X231560000Y-34000000D02*
X231560000Y-35859600D01*
%TO.N,/Z80_D2*%
X229020000Y-34000000D02*
X229020000Y-35600100D01*
X226100000Y-118340000D02*
X226100000Y-116789900D01*
X222495000Y-79450000D02*
X220911300Y-77866300D01*
X226118100Y-83073100D02*
X226118100Y-116771800D01*
X221207700Y-43412400D02*
X229020000Y-35600100D01*
X220911300Y-77866300D02*
X220911300Y-70234500D01*
X220911300Y-70234500D02*
X221207700Y-69938100D01*
X221207700Y-69938100D02*
X221207700Y-43412400D01*
X222495000Y-79450000D02*
X226118100Y-83073100D01*
X226118100Y-116771800D02*
X226100000Y-116789900D01*
%TO.N,/Z80_D3*%
X220207600Y-69523800D02*
X220207600Y-41872500D01*
X223560000Y-118340000D02*
X220998300Y-120901700D01*
X222495000Y-81708500D02*
X219909100Y-79122600D01*
X208284400Y-119505900D02*
X208284400Y-116215200D01*
X220998300Y-120901700D02*
X209680200Y-120901700D01*
X217277200Y-85490400D02*
X216662800Y-84876000D01*
X209680200Y-120901700D02*
X208284400Y-119505900D01*
X220207600Y-41872500D02*
X226480000Y-35600100D01*
X219909100Y-79122600D02*
X219909100Y-69822300D01*
X226480000Y-34000000D02*
X226480000Y-35600100D01*
X222495000Y-81990000D02*
X222495000Y-81708500D01*
X216662800Y-84876000D02*
X216662800Y-83794000D01*
X208284400Y-116215200D02*
X217277200Y-107222400D01*
X217277200Y-107222400D02*
X217277200Y-85490400D01*
X219909100Y-69822300D02*
X220207600Y-69523800D01*
%TO.N,/Z80_D4*%
X222495000Y-84530000D02*
X225118000Y-87153000D01*
X220913200Y-82948200D02*
X220913200Y-82033200D01*
X219207500Y-69109500D02*
X219207500Y-40332600D01*
X225118000Y-112691900D02*
X221020000Y-116789900D01*
X219207500Y-40332600D02*
X223940000Y-35600100D01*
X220913200Y-82033200D02*
X220062300Y-81182300D01*
X221020000Y-118340000D02*
X221020000Y-116789900D01*
X225118000Y-87153000D02*
X225118000Y-112691900D01*
X222495000Y-84530000D02*
X220913200Y-82948200D01*
X220062300Y-81182300D02*
X220062300Y-80690200D01*
X223940000Y-34000000D02*
X223940000Y-35600100D01*
X218909000Y-79536900D02*
X218909000Y-69408000D01*
X218909000Y-69408000D02*
X219207500Y-69109500D01*
X220062300Y-80690200D02*
X218909000Y-79536900D01*
%TO.N,/Z80_D5*%
X219062200Y-81596600D02*
X219062200Y-81104500D01*
X219913100Y-82447500D02*
X219062200Y-81596600D01*
X222495000Y-87070000D02*
X220277500Y-84852500D01*
X224057700Y-88632700D02*
X222495000Y-87070000D01*
X221400000Y-36617100D02*
X221400000Y-35600100D01*
X217908900Y-40334700D02*
X217909000Y-40334600D01*
X217908900Y-65703700D02*
X217908900Y-40334700D01*
X218207400Y-66002200D02*
X217908900Y-65703700D01*
X217909000Y-40108100D02*
X221400000Y-36617100D01*
X217908900Y-68993700D02*
X218207400Y-68695200D01*
X220277500Y-84852500D02*
X220277500Y-84247500D01*
X218480000Y-116789900D02*
X224057700Y-111212200D01*
X219913100Y-83883100D02*
X219913100Y-82447500D01*
X224057700Y-111212200D02*
X224057700Y-88632700D01*
X217909000Y-40334600D02*
X217909000Y-40108100D01*
X218207400Y-68695200D02*
X218207400Y-66002200D01*
X218480000Y-118340000D02*
X218480000Y-116789900D01*
X219062200Y-81104500D02*
X217908900Y-79951200D01*
X217908900Y-79951200D02*
X217908900Y-68993700D01*
X220277500Y-84247500D02*
X219913100Y-83883100D01*
X221400000Y-34000000D02*
X221400000Y-35600100D01*
%TO.N,/Z80_D6*%
X217207300Y-68280900D02*
X217207300Y-66416500D01*
X217207300Y-66416500D02*
X216908800Y-66118000D01*
X216908800Y-80365500D02*
X216908800Y-68579400D01*
X220050100Y-93108900D02*
X220022500Y-93136500D01*
X218062100Y-82010900D02*
X218062100Y-81518800D01*
X215940000Y-111877200D02*
X215940000Y-113916900D01*
X218062100Y-81518800D02*
X216908800Y-80365500D01*
X216908800Y-66118000D02*
X216908800Y-39920400D01*
X216908800Y-39920400D02*
X216908900Y-39920300D01*
X219860700Y-107030900D02*
X219860700Y-107956500D01*
X220022500Y-101064400D02*
X220050100Y-101092000D01*
X220050100Y-106841500D02*
X219860700Y-107030900D01*
X222495000Y-89610000D02*
X219277400Y-86392400D01*
X217339900Y-37120200D02*
X218860000Y-35600100D01*
X220050100Y-101092000D02*
X220050100Y-106841500D01*
X219860700Y-107956500D02*
X215940000Y-111877200D01*
X219277400Y-84661800D02*
X218913000Y-84297400D01*
X216908900Y-39920300D02*
X216908900Y-39693800D01*
X219277400Y-86392400D02*
X219277400Y-84661800D01*
X218913000Y-82861800D02*
X218062100Y-82010900D01*
X216908800Y-68579400D02*
X217207300Y-68280900D01*
X217339900Y-39262800D02*
X217339900Y-37120200D01*
X216908900Y-39693800D02*
X217339900Y-39262800D01*
X220022500Y-93136500D02*
X220022500Y-101064400D01*
X218860000Y-34000000D02*
X218860000Y-35600100D01*
X218913000Y-84297400D02*
X218913000Y-82861800D01*
%TO.N,/Z80_D7*%
X218745800Y-91839700D02*
X218277300Y-91371200D01*
X215908700Y-66532300D02*
X215908700Y-39506100D01*
X217912900Y-83276100D02*
X217180700Y-82543900D01*
X215908700Y-68165100D02*
X216207200Y-67866600D01*
X216339800Y-35619900D02*
X216320000Y-35600100D01*
X218277300Y-91371200D02*
X218277300Y-85076100D01*
X215908800Y-39279500D02*
X216339800Y-38848500D01*
X217912900Y-84711700D02*
X217912900Y-83276100D01*
X222495000Y-92150000D02*
X220944900Y-92150000D01*
X209305700Y-116696900D02*
X209305700Y-119048200D01*
X217180700Y-82543900D02*
X217096700Y-82543900D01*
X216207200Y-67866600D02*
X216207200Y-66830800D01*
X209305700Y-119048200D02*
X210156800Y-119899300D01*
X215908700Y-39506100D02*
X215908800Y-39506000D01*
X211840700Y-119899300D02*
X213400000Y-118340000D01*
X216339800Y-38848500D02*
X216339800Y-35619900D01*
X220634600Y-91839700D02*
X218745800Y-91839700D01*
X216320000Y-34000000D02*
X216320000Y-35600100D01*
X218277300Y-85076100D02*
X217912900Y-84711700D01*
X217096700Y-82543900D02*
X215908700Y-81355900D01*
X215908700Y-81355900D02*
X215908700Y-68165100D01*
X218745800Y-91839700D02*
X218745800Y-107256800D01*
X220944900Y-92150000D02*
X220634600Y-91839700D01*
X218745800Y-107256800D02*
X209305700Y-116696900D01*
X215908800Y-39506000D02*
X215908800Y-39279500D01*
X216207200Y-66830800D02*
X215908700Y-66532300D01*
X210156800Y-119899300D02*
X211840700Y-119899300D01*
%TO.N,/Z80_A8*%
X197976900Y-44755400D02*
X197244600Y-45487700D01*
X202269700Y-44755400D02*
X197976900Y-44755400D01*
X197244600Y-47585300D02*
X192500000Y-52329900D01*
X208690100Y-37366400D02*
X208690100Y-38335000D01*
X213780000Y-34000000D02*
X211145900Y-36634100D01*
X197244600Y-45487700D02*
X197244600Y-47585300D01*
X192500000Y-53880000D02*
X192500000Y-52329900D01*
X208690100Y-38335000D02*
X202269700Y-44755400D01*
X211145900Y-36634100D02*
X209422400Y-36634100D01*
X209422400Y-36634100D02*
X208690100Y-37366400D01*
%TO.N,/Z80_A9*%
X201484700Y-43755300D02*
X197562600Y-43755300D01*
X209606000Y-35634000D02*
X209008100Y-35634000D01*
X197562600Y-43755300D02*
X196244500Y-45073400D01*
X209008100Y-35634000D02*
X203357900Y-41284200D01*
X189960000Y-53880000D02*
X189960000Y-52329900D01*
X203357900Y-41284200D02*
X203357900Y-41882100D01*
X196244500Y-46045400D02*
X189960000Y-52329900D01*
X203357900Y-41882100D02*
X201484700Y-43755300D01*
X196244500Y-45073400D02*
X196244500Y-46045400D01*
X211240000Y-34000000D02*
X209606000Y-35634000D01*
%TO.N,/Z80_A10*%
X251955600Y-36758200D02*
X251521200Y-36323800D01*
X199944800Y-42755200D02*
X197148300Y-42755200D01*
X208700000Y-34000000D02*
X199944800Y-42755200D01*
X251521200Y-36323800D02*
X251521200Y-33895700D01*
X187573700Y-52329800D02*
X187573700Y-52329900D01*
X251521200Y-33895700D02*
X249974500Y-32349000D01*
X187573700Y-52329900D02*
X187420000Y-52329900D01*
X197148300Y-42755200D02*
X187573700Y-52329800D01*
X249974500Y-32349000D02*
X210351000Y-32349000D01*
X253615000Y-76310000D02*
X251955600Y-74650600D01*
X187420000Y-53880000D02*
X187420000Y-52329900D01*
X251955600Y-74650600D02*
X251955600Y-36758200D01*
X210351000Y-32349000D02*
X208700000Y-34000000D01*
%TO.N,/Z80_A11*%
X196380200Y-41755100D02*
X194564800Y-43570500D01*
X236076500Y-53080700D02*
X236076500Y-55538600D01*
X242415800Y-51856200D02*
X237301000Y-51856200D01*
X248289400Y-69644300D02*
X248132900Y-69487800D01*
X185805400Y-52329900D02*
X184880000Y-52329900D01*
X248132900Y-57573300D02*
X242415800Y-51856200D01*
X194564800Y-43570500D02*
X185805400Y-52329900D01*
X184880000Y-53880000D02*
X184880000Y-52329900D01*
X198404900Y-41755100D02*
X196380200Y-41755100D01*
X206160000Y-34000000D02*
X198404900Y-41755100D01*
X248132900Y-69487800D02*
X248132900Y-57573300D01*
X237301000Y-51856200D02*
X236076500Y-53080700D01*
%TO.N,/Z80_A12*%
X238375000Y-61070000D02*
X234765700Y-57460700D01*
X182340000Y-53880000D02*
X182340000Y-52329900D01*
X194245600Y-42320400D02*
X194047000Y-42320400D01*
X190203100Y-46263600D02*
X188406300Y-46263600D01*
X234765700Y-57460700D02*
X234765700Y-44520700D01*
X193314700Y-43052700D02*
X193314700Y-43152000D01*
X196865000Y-40755000D02*
X195811000Y-40755000D01*
X195811000Y-40755000D02*
X194245600Y-42320400D01*
X194047000Y-42320400D02*
X193314700Y-43052700D01*
X193314700Y-43152000D02*
X190203100Y-46263600D01*
X203620000Y-34000000D02*
X196865000Y-40755000D01*
X188406300Y-46263600D02*
X182340000Y-52329900D01*
X234765700Y-44520700D02*
X230430900Y-40185900D01*
%TO.N,/Z80_A13*%
X200953000Y-34000000D02*
X189689500Y-45263500D01*
X179800000Y-53880000D02*
X179800000Y-52329900D01*
X189689500Y-45263500D02*
X186866400Y-45263500D01*
X201080000Y-34000000D02*
X200953000Y-34000000D01*
X186866400Y-45263500D02*
X179800000Y-52329900D01*
%TO.N,/Z80_A14*%
X177260000Y-53880000D02*
X177260000Y-52329900D01*
X188276600Y-44263400D02*
X198540000Y-34000000D01*
X177260000Y-52329900D02*
X185326500Y-44263400D01*
X185326500Y-44263400D02*
X188276600Y-44263400D01*
%TO.N,/Z80_A15*%
X174720000Y-53352500D02*
X174720000Y-53880000D01*
X174720000Y-52329900D02*
X175840600Y-52329900D01*
X174720000Y-53352500D02*
X174720000Y-52329900D01*
X186736700Y-43263300D02*
X196000000Y-34000000D01*
X184907200Y-43263300D02*
X186736700Y-43263300D01*
X176760000Y-55920000D02*
X181153700Y-55920000D01*
X175840600Y-52329900D02*
X184907200Y-43263300D01*
X174720000Y-53880000D02*
X176760000Y-55920000D01*
%TO.N,/RIO_CONTROL.A14*%
X259687200Y-95154900D02*
X260665200Y-96132900D01*
X213269500Y-105836700D02*
X213269500Y-97533300D01*
X206346700Y-94628500D02*
X206346700Y-76393300D01*
X206346700Y-76393300D02*
X207960000Y-74780000D01*
X232260200Y-102944900D02*
X229368400Y-105836700D01*
X208161400Y-96443200D02*
X206346700Y-94628500D01*
X240288900Y-60443900D02*
X240288900Y-79172500D01*
X253624500Y-102944900D02*
X232260200Y-102944900D01*
X260665200Y-100565300D02*
X258285600Y-102944900D01*
X238375000Y-58530000D02*
X240288900Y-60443900D01*
X260665200Y-96132900D02*
X260665200Y-100565300D01*
%TO.N,/RIO_CONTROL.A15*%
X197638600Y-69287100D02*
X197638600Y-65797000D01*
X197102500Y-65260900D02*
X197102500Y-63396700D01*
X197102500Y-63396700D02*
X197872100Y-62627100D01*
X198306700Y-75938800D02*
X198306700Y-69955200D01*
X209940200Y-41945400D02*
X209940200Y-37884200D01*
X197872100Y-62627100D02*
X197872100Y-54013500D01*
X198306700Y-69955200D02*
X197638600Y-69287100D01*
X197872100Y-54013500D02*
X209940200Y-41945400D01*
X198963200Y-76595300D02*
X198306700Y-75938800D01*
X197638600Y-65797000D02*
X197102500Y-65260900D01*
%TO.N,/RIO_CONTROL.OE*%
X200533500Y-87192900D02*
X200533500Y-89885700D01*
X200577800Y-82803700D02*
X200577800Y-87148600D01*
X200533500Y-89885700D02*
X200577800Y-89930000D01*
X231665200Y-73577400D02*
X231665200Y-70296200D01*
X200981500Y-82400000D02*
X200577800Y-82803700D01*
X243091100Y-81568400D02*
X243091100Y-89070700D01*
X231665200Y-70296200D02*
X231281200Y-69912200D01*
X257035500Y-74225100D02*
X257035500Y-110601000D01*
X250705500Y-73954000D02*
X243091100Y-81568400D01*
X236824800Y-92212900D02*
X236824800Y-78737000D01*
X257035500Y-110601000D02*
X257101100Y-110666600D01*
X200577800Y-109185900D02*
X204036100Y-112644200D01*
X236824800Y-78737000D02*
X231665200Y-73577400D01*
X237749900Y-93138000D02*
X236824800Y-92212900D01*
X200577800Y-89930000D02*
X200577800Y-109185900D01*
X239023800Y-93138000D02*
X237749900Y-93138000D01*
X243091100Y-89070700D02*
X239023800Y-93138000D01*
X200577800Y-87148600D02*
X200533500Y-87192900D01*
X257101100Y-74159500D02*
X257035500Y-74225100D01*
%TO.N,/RIO_CONTROL.WE*%
X198711900Y-66384200D02*
X198711900Y-65455900D01*
X198102600Y-64846600D02*
X198102600Y-63811000D01*
X198835000Y-63078700D02*
X199230000Y-62683700D01*
X199230000Y-62683700D02*
X199230000Y-54190300D01*
X198834900Y-63078700D02*
X198835000Y-63078700D01*
X201423000Y-80010300D02*
X201423000Y-71657100D01*
X201423000Y-71657100D02*
X198656800Y-68890900D01*
X198656800Y-66439300D02*
X198711900Y-66384200D01*
X199230000Y-54190300D02*
X214997100Y-38423200D01*
X198711900Y-65455900D02*
X198102600Y-64846600D01*
X198656800Y-68890900D02*
X198656800Y-66439300D01*
X198102600Y-63811000D02*
X198834900Y-63078700D01*
%TO.N,Net-(SPI-ESP_CONTROL.OUT1-QH')*%
X103602000Y-75374400D02*
X94880600Y-66653000D01*
X103602000Y-116622500D02*
X103602000Y-75374400D01*
X136920000Y-118120000D02*
X136920000Y-119670100D01*
X136920000Y-119670100D02*
X136668400Y-119921700D01*
X136668400Y-119921700D02*
X126708000Y-119921700D01*
X94880600Y-66653000D02*
X88789200Y-66653000D01*
X106716000Y-119736500D02*
X103602000Y-116622500D01*
%TO.N,Net-(SPI-ESP_CONTROL.OUT1-SER)*%
X183693200Y-148411500D02*
X183693200Y-142327000D01*
X102454200Y-75718000D02*
X102454200Y-125227100D01*
X84620000Y-61620000D02*
X84620000Y-64760700D01*
X102454200Y-125227100D02*
X102011100Y-125670200D01*
X84620000Y-64760700D02*
X89303500Y-69444200D01*
X96180400Y-69444200D02*
X102454200Y-75718000D01*
X183629500Y-148475200D02*
X183693200Y-148411500D01*
X89303500Y-69444200D02*
X96180400Y-69444200D01*
%TO.N,Net-(SPI-LOCAL_ADDR_L.IN1-~{Q7})*%
X203587900Y-119952100D02*
X203838000Y-119702000D01*
X200369000Y-135072100D02*
X203587900Y-131853200D01*
X203587900Y-131853200D02*
X203587900Y-119952100D01*
X192261200Y-130189600D02*
X196951800Y-134880200D01*
X189046800Y-130189600D02*
X192261200Y-130189600D01*
X205338100Y-117580400D02*
X205338100Y-103696900D01*
X205338100Y-103696900D02*
X202243500Y-100602300D01*
X122640800Y-121437800D02*
X125449800Y-124246800D01*
X125449800Y-138022700D02*
X126370200Y-138943100D01*
X136530500Y-138943100D02*
X140770500Y-134703100D01*
X132880000Y-97240000D02*
X122640800Y-107479200D01*
X122640800Y-107479200D02*
X122640800Y-121437800D01*
X126370200Y-138943100D02*
X136530500Y-138943100D01*
X125449800Y-124246800D02*
X125449800Y-138022700D01*
%TO.N,Net-(SPI-LOCAL_ADD_HIGH.OUT1-SER)*%
X134038100Y-129488200D02*
X134038100Y-129998400D01*
X124220000Y-119670100D02*
X134038100Y-129488200D01*
X124220000Y-118120000D02*
X124220000Y-119670100D01*
%TO.N,Net-(SPI-LOCAL_DATA.IN1-~{Q7})*%
X85670100Y-118240000D02*
X86965200Y-118240000D01*
X86965200Y-118240000D02*
X95965700Y-127240500D01*
X84120000Y-118240000D02*
X85670100Y-118240000D01*
%TO.N,Net-(D_PSUsafety1-K)*%
X244825000Y-121557200D02*
X244825000Y-124647100D01*
X244745000Y-121477200D02*
X244825000Y-121557200D01*
X244745000Y-119727100D02*
X244745000Y-121477200D01*
%TO.N,/CORE_ESP32-WROVER/ESP_SPI_INT.MR*%
X135307900Y-130582200D02*
X135307900Y-126667900D01*
X204770000Y-121698300D02*
X204838100Y-121630200D01*
X220636200Y-152004700D02*
X218595100Y-149963600D01*
X95096400Y-65402900D02*
X104602100Y-74908600D01*
X127000000Y-137340000D02*
X128550100Y-137340000D01*
X224144700Y-152004700D02*
X220636200Y-152004700D01*
X104602100Y-74908600D02*
X104602100Y-114220500D01*
X181760000Y-127620000D02*
X181760000Y-126069900D01*
X204770000Y-132022100D02*
X204770000Y-121698300D01*
X226260000Y-154120000D02*
X224144700Y-152004700D01*
X128550100Y-137340000D02*
X135307900Y-130582200D01*
X221272100Y-146713200D02*
X219461100Y-146713200D01*
X219461100Y-146713200D02*
X204770000Y-132022100D01*
X104602100Y-114220500D02*
X107150400Y-116768800D01*
X181760000Y-126069900D02*
X181186400Y-126069900D01*
X181186400Y-126069900D02*
X176746700Y-121630200D01*
X87539100Y-65402900D02*
X95096400Y-65402900D01*
X135307900Y-126667900D02*
X129872400Y-121232400D01*
X221527200Y-146968300D02*
X221272100Y-146713200D01*
%TO.N,/RIO-128K_ZXspectrum/ROM_D3*%
X230115000Y-84530000D02*
X232824300Y-87239300D01*
X251935000Y-91550000D02*
X244075000Y-99410000D01*
X232824300Y-91149800D02*
X237067300Y-95392800D01*
X253615000Y-91550000D02*
X251935000Y-91550000D01*
X232824300Y-87239300D02*
X232824300Y-91149800D01*
%TO.N,/RIO-128K_ZXspectrum/ROM_D4*%
X231824200Y-92496300D02*
X235674400Y-96346500D01*
X253615000Y-89010000D02*
X251935000Y-89010000D01*
X230115000Y-87070000D02*
X231824200Y-88779200D01*
X231824200Y-88779200D02*
X231824200Y-92496300D01*
X251935000Y-89010000D02*
X241535000Y-99410000D01*
%TO.N,/RIO-128K_ZXspectrum/ROM_D5*%
X244194700Y-86961000D02*
X244685700Y-86470000D01*
X244194700Y-89381500D02*
X244194700Y-86961000D01*
X234133500Y-89610000D02*
X234133500Y-91024400D01*
X253615000Y-86470000D02*
X251935000Y-86470000D01*
X237247200Y-94138100D02*
X239438100Y-94138100D01*
X239438100Y-94138100D02*
X244194700Y-89381500D01*
X234133500Y-91024400D02*
X237247200Y-94138100D01*
X251935000Y-86470000D02*
X238995000Y-99410000D01*
%TO.N,/RIO-128K_ZXspectrum/ROM_D6*%
X230717300Y-100991900D02*
X229824800Y-100099400D01*
X234873100Y-100991900D02*
X230717300Y-100991900D01*
X239726700Y-96138300D02*
X240266700Y-96138300D01*
X252064900Y-84340100D02*
X252064900Y-83930000D01*
X253615000Y-83930000D02*
X252064900Y-83930000D01*
X229824800Y-97478800D02*
X230785700Y-96517900D01*
X236455000Y-99410000D02*
X239726700Y-96138300D01*
X236455000Y-99410000D02*
X234873100Y-100991900D01*
X240266700Y-96138300D02*
X252064900Y-84340100D01*
X229824800Y-100099400D02*
X229824800Y-97478800D01*
%TO.N,/RIO-128K_ZXspectrum/ROM_D7*%
X239127000Y-95138200D02*
X239852400Y-95138200D01*
X231665100Y-94690000D02*
X231665100Y-95610000D01*
X231665100Y-95610000D02*
X233915000Y-97859900D01*
X233915000Y-99410000D02*
X233915000Y-97859900D01*
X233915000Y-99410000D02*
X235728400Y-97596600D01*
X230115000Y-94690000D02*
X231665100Y-94690000D01*
X235728400Y-97596600D02*
X236668600Y-97596600D01*
X245194800Y-89795800D02*
X245194800Y-88260100D01*
X239852400Y-95138200D02*
X245194800Y-89795800D01*
X236668600Y-97596600D02*
X239127000Y-95138200D01*
X253615000Y-81390000D02*
X252064900Y-81390000D01*
X245194800Y-88260100D02*
X252064900Y-81390000D01*
%TD*%
M02*
