%TF.GenerationSoftware,KiCad,Pcbnew,7.0.2*%
%TF.CreationDate,2023-05-21T12:10:29+01:00*%
%TF.ProjectId,FujiNet_Z80Bus_ReferenceDesign,46756a69-4e65-4745-9f5a-38304275735f,rev?*%
%TF.SameCoordinates,Original*%
%TF.FileFunction,Drillmap*%
%TF.FilePolarity,Positive*%
%FSLAX45Y45*%
G04 Gerber Fmt 4.5, Leading zero omitted, Abs format (unit mm)*
G04 Created by KiCad (PCBNEW 7.0.2) date 2023-05-21 12:10:29*
%MOMM*%
%LPD*%
G01*
G04 APERTURE LIST*
%ADD10C,0.050000*%
%ADD11C,0.200000*%
%ADD12C,0.080000*%
%ADD13C,0.090000*%
%ADD14C,0.100000*%
G04 APERTURE END LIST*
D10*
X6400000Y-3000000D02*
X26400000Y-3000000D01*
X26400000Y-16000000D01*
X6400000Y-16000000D01*
X6400000Y-3000000D01*
D11*
D10*
X6487830Y-13335400D02*
X6537830Y-13385400D01*
X6537830Y-13335400D02*
X6487830Y-13385400D01*
X6493580Y-13820710D02*
X6543580Y-13870710D01*
X6543580Y-13820710D02*
X6493580Y-13870710D01*
X6658000Y-9409160D02*
X6708000Y-9459160D01*
X6708000Y-9409160D02*
X6658000Y-9459160D01*
X6800330Y-8505850D02*
X6850330Y-8555850D01*
X6850330Y-8505850D02*
X6800330Y-8555850D01*
X6807550Y-6459110D02*
X6857550Y-6509110D01*
X6857550Y-6459110D02*
X6807550Y-6509110D01*
X6918650Y-13922540D02*
X6968650Y-13972540D01*
X6968650Y-13922540D02*
X6918650Y-13972540D01*
X6925890Y-8017960D02*
X6975890Y-8067960D01*
X6975890Y-8017960D02*
X6925890Y-8067960D01*
X6982250Y-7793450D02*
X7032250Y-7843450D01*
X7032250Y-7793450D02*
X6982250Y-7843450D01*
X7179600Y-10904490D02*
X7229600Y-10954490D01*
X7229600Y-10904490D02*
X7179600Y-10954490D01*
X7305270Y-11380280D02*
X7355270Y-11430280D01*
X7355270Y-11380280D02*
X7305270Y-11430280D01*
X7499440Y-7147020D02*
X7549440Y-7197020D01*
X7549440Y-7147020D02*
X7499440Y-7197020D01*
X8004480Y-14168500D02*
X8054480Y-14218500D01*
X8054480Y-14168500D02*
X8004480Y-14218500D01*
X8180210Y-8044830D02*
X8230210Y-8094830D01*
X8230210Y-8044830D02*
X8180210Y-8094830D01*
X8232850Y-10143660D02*
X8282850Y-10193660D01*
X8282850Y-10143660D02*
X8232850Y-10193660D01*
X8564000Y-6392620D02*
X8614000Y-6442620D01*
X8614000Y-6392620D02*
X8564000Y-6442620D01*
X8728910Y-6515290D02*
X8778910Y-6565290D01*
X8778910Y-6515290D02*
X8728910Y-6565290D01*
X8780180Y-5564630D02*
X8830180Y-5614630D01*
X8830180Y-5564630D02*
X8780180Y-5614630D01*
X8853920Y-6640300D02*
X8903920Y-6690300D01*
X8903920Y-6640300D02*
X8853920Y-6690300D01*
X8911970Y-3431840D02*
X8961970Y-3481840D01*
X8961970Y-3431840D02*
X8911970Y-3481840D01*
X9113180Y-15003830D02*
X9163180Y-15053830D01*
X9163180Y-15003830D02*
X9113180Y-15053830D01*
X9385100Y-10767740D02*
X9435100Y-10817740D01*
X9435100Y-10767740D02*
X9385100Y-10817740D01*
X9441740Y-5996080D02*
X9491740Y-6046080D01*
X9491740Y-5996080D02*
X9441740Y-6046080D01*
X9571570Y-12699050D02*
X9621570Y-12749050D01*
X9621570Y-12699050D02*
X9571570Y-12749050D01*
X9649190Y-8044830D02*
X9699190Y-8094830D01*
X9699190Y-8044830D02*
X9649190Y-8094830D01*
X9740790Y-15150700D02*
X9790790Y-15200700D01*
X9790790Y-15150700D02*
X9740790Y-15200700D01*
X9813670Y-12187490D02*
X9863670Y-12237490D01*
X9863670Y-12187490D02*
X9813670Y-12237490D01*
X9867950Y-10389100D02*
X9917950Y-10439100D01*
X9917950Y-10389100D02*
X9867950Y-10439100D01*
X10077720Y-9554560D02*
X10127720Y-9604560D01*
X10127720Y-9554560D02*
X10077720Y-9604560D01*
X10089340Y-10892080D02*
X10139340Y-10942080D01*
X10139340Y-10892080D02*
X10089340Y-10942080D01*
X10092520Y-12259260D02*
X10142520Y-12309260D01*
X10142520Y-12259260D02*
X10092520Y-12309260D01*
X10176110Y-12542020D02*
X10226110Y-12592020D01*
X10226110Y-12542020D02*
X10176110Y-12592020D01*
X10203300Y-14257690D02*
X10253300Y-14307690D01*
X10253300Y-14257690D02*
X10203300Y-14307690D01*
X10370130Y-12753620D02*
X10420130Y-12803620D01*
X10420130Y-12753620D02*
X10370130Y-12803620D01*
X10573030Y-6017410D02*
X10623030Y-6067410D01*
X10623030Y-6017410D02*
X10573030Y-6067410D01*
X10600360Y-13868930D02*
X10650360Y-13918930D01*
X10650360Y-13868930D02*
X10600360Y-13918930D01*
X10646600Y-11948650D02*
X10696600Y-11998650D01*
X10696600Y-11948650D02*
X10646600Y-11998650D01*
X10657040Y-5487000D02*
X10707040Y-5537000D01*
X10707040Y-5487000D02*
X10657040Y-5537000D01*
X10661850Y-10816800D02*
X10711850Y-10866800D01*
X10711850Y-10816800D02*
X10661850Y-10866800D01*
X10690040Y-11651880D02*
X10740040Y-11701880D01*
X10740040Y-11651880D02*
X10690040Y-11701880D01*
X10760250Y-8817600D02*
X10810250Y-8867600D01*
X10810250Y-8817600D02*
X10760250Y-8867600D01*
X10760900Y-8967620D02*
X10810900Y-9017620D01*
X10810900Y-8967620D02*
X10760900Y-9017620D01*
X10767200Y-6214790D02*
X10817200Y-6264790D01*
X10817200Y-6214790D02*
X10767200Y-6264790D01*
X10810260Y-11246820D02*
X10860260Y-11296820D01*
X10860260Y-11246820D02*
X10810260Y-11296820D01*
X10860260Y-8667580D02*
X10910260Y-8717580D01*
X10910260Y-8667580D02*
X10860260Y-8717580D01*
X10959510Y-7220610D02*
X11009510Y-7270610D01*
X11009510Y-7220610D02*
X10959510Y-7270610D01*
X10960270Y-8417550D02*
X11010270Y-8467550D01*
X11010270Y-8417550D02*
X10960270Y-8467550D01*
X10983590Y-9331770D02*
X11033590Y-9381770D01*
X11033590Y-9331770D02*
X10983590Y-9381770D01*
X10995590Y-4539240D02*
X11045590Y-4589240D01*
X11045590Y-4539240D02*
X10995590Y-4589240D01*
X11008020Y-6305920D02*
X11058020Y-6355920D01*
X11058020Y-6305920D02*
X11008020Y-6355920D01*
X11026520Y-10389100D02*
X11076520Y-10439100D01*
X11076520Y-10389100D02*
X11026520Y-10439100D01*
X11035560Y-8280670D02*
X11085560Y-8330670D01*
X11085560Y-8280670D02*
X11035560Y-8330670D01*
X11143290Y-7036840D02*
X11193290Y-7086840D01*
X11193290Y-7036840D02*
X11143290Y-7086840D01*
X11184520Y-8839310D02*
X11234520Y-8889310D01*
X11234520Y-8839310D02*
X11184520Y-8889310D01*
X11193760Y-5186530D02*
X11243760Y-5236530D01*
X11243760Y-5186530D02*
X11193760Y-5236530D01*
X11210300Y-8542570D02*
X11260300Y-8592570D01*
X11260300Y-8542570D02*
X11210300Y-8592570D01*
X11278660Y-7547510D02*
X11328660Y-7597510D01*
X11328660Y-7547510D02*
X11278660Y-7597510D01*
X11282390Y-7378540D02*
X11332390Y-7428540D01*
X11332390Y-7378540D02*
X11282390Y-7428540D01*
X11334350Y-9488020D02*
X11384350Y-9538020D01*
X11384350Y-9488020D02*
X11334350Y-9538020D01*
X11407800Y-7680860D02*
X11457800Y-7730860D01*
X11457800Y-7680860D02*
X11407800Y-7730860D01*
X11511760Y-4881750D02*
X11561760Y-4931750D01*
X11561760Y-4881750D02*
X11511760Y-4931750D01*
X11595720Y-12643920D02*
X11645720Y-12693920D01*
X11645720Y-12643920D02*
X11595720Y-12693920D01*
X11674280Y-9817940D02*
X11724280Y-9867940D01*
X11724280Y-9817940D02*
X11674280Y-9867940D01*
X11850390Y-4696710D02*
X11900390Y-4746710D01*
X11900390Y-4696710D02*
X11850390Y-4746710D01*
X12018410Y-12216350D02*
X12068410Y-12266350D01*
X12068410Y-12216350D02*
X12018410Y-12266350D01*
X12040860Y-14385860D02*
X12090860Y-14435860D01*
X12090860Y-14385860D02*
X12040860Y-14435860D01*
X12173800Y-10096360D02*
X12223800Y-10146360D01*
X12223800Y-10096360D02*
X12173800Y-10146360D01*
X12219260Y-14706800D02*
X12269260Y-14756800D01*
X12269260Y-14706800D02*
X12219260Y-14756800D01*
X12356410Y-7351770D02*
X12406410Y-7401770D01*
X12406410Y-7351770D02*
X12356410Y-7401770D01*
X12461210Y-15124160D02*
X12511210Y-15174160D01*
X12511210Y-15124160D02*
X12461210Y-15174160D01*
X12580000Y-5421000D02*
X12630000Y-5471000D01*
X12630000Y-5421000D02*
X12580000Y-5471000D01*
X12645800Y-11967170D02*
X12695800Y-12017170D01*
X12695800Y-11967170D02*
X12645800Y-12017170D01*
X12939140Y-5177480D02*
X12989140Y-5227480D01*
X12989140Y-5177480D02*
X12939140Y-5227480D01*
X12962240Y-12098240D02*
X13012240Y-12148240D01*
X13012240Y-12098240D02*
X12962240Y-12148240D01*
X13101900Y-6674060D02*
X13151900Y-6724060D01*
X13151900Y-6674060D02*
X13101900Y-6724060D01*
X13378810Y-12974840D02*
X13428810Y-13024840D01*
X13428810Y-12974840D02*
X13378810Y-13024840D01*
X13582000Y-8016520D02*
X13632000Y-8066520D01*
X13632000Y-8016520D02*
X13582000Y-8066520D01*
X13615830Y-3603740D02*
X13665830Y-3653740D01*
X13665830Y-3603740D02*
X13615830Y-3653740D01*
X13715130Y-8865870D02*
X13765130Y-8915870D01*
X13765130Y-8865870D02*
X13715130Y-8915870D01*
X13727700Y-3792980D02*
X13777700Y-3842980D01*
X13777700Y-3792980D02*
X13727700Y-3842980D01*
X14017460Y-7691090D02*
X14067460Y-7741090D01*
X14067460Y-7691090D02*
X14017460Y-7741090D01*
X14052050Y-13445310D02*
X14102050Y-13495310D01*
X14102050Y-13445310D02*
X14052050Y-13495310D01*
X14227760Y-14600710D02*
X14277760Y-14650710D01*
X14277760Y-14600710D02*
X14227760Y-14650710D01*
X14230900Y-7889310D02*
X14280900Y-7939310D01*
X14280900Y-7889310D02*
X14230900Y-7939310D01*
X14295320Y-4307310D02*
X14345320Y-4357310D01*
X14345320Y-4307310D02*
X14295320Y-4357310D01*
X14326900Y-13360330D02*
X14376900Y-13410330D01*
X14376900Y-13360330D02*
X14326900Y-13410330D01*
X14352570Y-8638700D02*
X14402570Y-8688700D01*
X14402570Y-8638700D02*
X14352570Y-8688700D01*
X14421760Y-14795730D02*
X14471760Y-14845730D01*
X14471760Y-14795730D02*
X14421760Y-14845730D01*
X14426910Y-13219890D02*
X14476910Y-13269890D01*
X14476910Y-13219890D02*
X14426910Y-13269890D01*
X14436000Y-6779330D02*
X14486000Y-6829330D01*
X14486000Y-6779330D02*
X14436000Y-6829330D01*
X14437370Y-5134780D02*
X14487370Y-5184780D01*
X14487370Y-5134780D02*
X14437370Y-5184780D01*
X14437470Y-11284820D02*
X14487470Y-11334820D01*
X14487470Y-11284820D02*
X14437470Y-11334820D01*
X14451800Y-14500700D02*
X14501800Y-14550700D01*
X14501800Y-14500700D02*
X14451800Y-14550700D01*
X14468400Y-10203000D02*
X14518400Y-10253000D01*
X14518400Y-10203000D02*
X14468400Y-10253000D01*
X14489550Y-12787570D02*
X14539550Y-12837570D01*
X14539550Y-12787570D02*
X14489550Y-12837570D01*
X14514560Y-13858100D02*
X14564560Y-13908100D01*
X14564560Y-13858100D02*
X14514560Y-13908100D01*
X14568410Y-10799830D02*
X14618410Y-10849830D01*
X14618410Y-10799830D02*
X14568410Y-10849830D01*
X14568410Y-11727000D02*
X14618410Y-11777000D01*
X14618410Y-11727000D02*
X14568410Y-11777000D01*
X14631280Y-15366060D02*
X14681280Y-15416060D01*
X14681280Y-15366060D02*
X14631280Y-15416060D01*
X14769550Y-14404040D02*
X14819550Y-14454040D01*
X14819550Y-14404040D02*
X14769550Y-14454040D01*
X14826250Y-15561030D02*
X14876250Y-15611030D01*
X14876250Y-15561030D02*
X14826250Y-15611030D01*
X14858550Y-9421450D02*
X14908550Y-9471450D01*
X14908550Y-9421450D02*
X14858550Y-9471450D01*
X14874500Y-7622840D02*
X14924500Y-7672840D01*
X14924500Y-7622840D02*
X14874500Y-7672840D01*
X15162370Y-15149000D02*
X15212370Y-15199000D01*
X15212370Y-15149000D02*
X15162370Y-15199000D01*
X15368770Y-15364300D02*
X15418770Y-15414300D01*
X15418770Y-15364300D02*
X15368770Y-15414300D01*
X15398550Y-7825700D02*
X15448550Y-7875700D01*
X15448550Y-7825700D02*
X15398550Y-7875700D01*
X15398550Y-14810270D02*
X15448550Y-14860270D01*
X15448550Y-14810270D02*
X15398550Y-14860270D01*
X15414360Y-15048850D02*
X15464360Y-15098850D01*
X15464360Y-15048850D02*
X15414360Y-15098850D01*
X15514360Y-8938220D02*
X15564360Y-8988220D01*
X15564360Y-8938220D02*
X15514360Y-8988220D01*
X15544530Y-9502290D02*
X15594530Y-9552290D01*
X15594530Y-9502290D02*
X15544530Y-9552290D01*
X15597680Y-12651070D02*
X15647680Y-12701070D01*
X15647680Y-12651070D02*
X15597680Y-12701070D01*
X15601500Y-13874230D02*
X15651500Y-13924230D01*
X15651500Y-13874230D02*
X15601500Y-13924230D01*
X15635720Y-14836130D02*
X15685720Y-14886130D01*
X15685720Y-14836130D02*
X15635720Y-14886130D01*
X15753340Y-15561030D02*
X15803340Y-15611030D01*
X15803340Y-15561030D02*
X15753340Y-15611030D01*
X15862070Y-5929300D02*
X15912070Y-5979300D01*
X15912070Y-5929300D02*
X15862070Y-5979300D01*
X15862120Y-9007880D02*
X15912120Y-9057880D01*
X15912120Y-9007880D02*
X15862120Y-9057880D01*
X15872310Y-14703320D02*
X15922310Y-14753320D01*
X15922310Y-14703320D02*
X15872310Y-14753320D01*
X15886850Y-12368270D02*
X15936850Y-12418270D01*
X15936850Y-12368270D02*
X15886850Y-12418270D01*
X16034720Y-8533370D02*
X16084720Y-8583370D01*
X16084720Y-8533370D02*
X16034720Y-8583370D01*
X16049840Y-8940960D02*
X16099840Y-8990960D01*
X16099840Y-8940960D02*
X16049840Y-8990960D01*
X16064190Y-13258240D02*
X16114190Y-13308240D01*
X16114190Y-13258240D02*
X16064190Y-13308240D01*
X16205850Y-15654970D02*
X16255850Y-15704970D01*
X16255850Y-15654970D02*
X16205850Y-15704970D01*
X16219130Y-14284000D02*
X16269130Y-14334000D01*
X16269130Y-14284000D02*
X16219130Y-14334000D01*
X16250250Y-8813210D02*
X16300250Y-8863210D01*
X16300250Y-8813210D02*
X16250250Y-8863210D01*
X16254880Y-8459970D02*
X16304880Y-8509970D01*
X16304880Y-8459970D02*
X16254880Y-8509970D01*
X16367000Y-6705860D02*
X16417000Y-6755860D01*
X16417000Y-6705860D02*
X16367000Y-6755860D01*
X16375150Y-13943600D02*
X16425150Y-13993600D01*
X16425150Y-13943600D02*
X16375150Y-13993600D01*
X16408300Y-11439440D02*
X16458300Y-11489440D01*
X16458300Y-11439440D02*
X16408300Y-11489440D01*
X16636700Y-7152350D02*
X16686700Y-7202350D01*
X16686700Y-7152350D02*
X16636700Y-7202350D01*
X16718100Y-7839070D02*
X16768100Y-7889070D01*
X16768100Y-7839070D02*
X16718100Y-7889070D01*
X16771050Y-8566570D02*
X16821050Y-8616570D01*
X16821050Y-8566570D02*
X16771050Y-8616570D01*
X16882770Y-4438390D02*
X16932770Y-4488390D01*
X16932770Y-4438390D02*
X16882770Y-4488390D01*
X16898640Y-6398280D02*
X16948640Y-6448280D01*
X16948640Y-6398280D02*
X16898640Y-6448280D01*
X16908000Y-3222020D02*
X16958000Y-3272020D01*
X16958000Y-3222020D02*
X16908000Y-3272020D01*
X17005660Y-13851480D02*
X17055660Y-13901480D01*
X17055660Y-13851480D02*
X17005660Y-13901480D01*
X17014330Y-8826640D02*
X17064330Y-8876640D01*
X17064330Y-8826640D02*
X17014330Y-8876640D01*
X17052240Y-11851230D02*
X17102240Y-11901230D01*
X17102240Y-11851230D02*
X17052240Y-11901230D01*
X17119740Y-7186970D02*
X17169740Y-7236970D01*
X17169740Y-7186970D02*
X17119740Y-7236970D01*
X17176960Y-9332960D02*
X17226960Y-9382960D01*
X17226960Y-9332960D02*
X17176960Y-9382960D01*
X17201610Y-12471400D02*
X17251610Y-12521400D01*
X17251610Y-12471400D02*
X17201610Y-12521400D01*
X17241620Y-4292740D02*
X17291620Y-4342740D01*
X17291620Y-4292740D02*
X17241620Y-4342740D01*
X17299690Y-14394210D02*
X17349690Y-14444210D01*
X17349690Y-14394210D02*
X17299690Y-14444210D01*
X17319140Y-9107030D02*
X17369140Y-9157030D01*
X17369140Y-9107030D02*
X17319140Y-9157030D01*
X17351940Y-4492560D02*
X17401940Y-4542560D01*
X17401940Y-4492560D02*
X17351940Y-4542560D01*
X17461250Y-12979580D02*
X17511250Y-13029580D01*
X17511250Y-12979580D02*
X17461250Y-13029580D01*
X17474400Y-12351940D02*
X17524400Y-12401940D01*
X17524400Y-12351940D02*
X17474400Y-12401940D01*
X17491250Y-15581080D02*
X17541250Y-15631080D01*
X17541250Y-15581080D02*
X17491250Y-15631080D01*
X17536000Y-11319800D02*
X17586000Y-11369800D01*
X17586000Y-11319800D02*
X17536000Y-11369800D01*
X17649670Y-12138020D02*
X17699670Y-12188020D01*
X17699670Y-12138020D02*
X17649670Y-12188020D01*
X17705710Y-12728990D02*
X17755710Y-12778990D01*
X17755710Y-12728990D02*
X17705710Y-12778990D01*
X17771000Y-14820890D02*
X17821000Y-14870890D01*
X17821000Y-14820890D02*
X17771000Y-14870890D01*
X17942430Y-11248810D02*
X17992430Y-11298810D01*
X17992430Y-11248810D02*
X17942430Y-11298810D01*
X18051100Y-7186970D02*
X18101100Y-7236970D01*
X18101100Y-7186970D02*
X18051100Y-7236970D01*
X18088580Y-10736900D02*
X18138580Y-10786900D01*
X18138580Y-10736900D02*
X18088580Y-10786900D01*
X18090370Y-5567000D02*
X18140370Y-5617000D01*
X18140370Y-5567000D02*
X18090370Y-5617000D01*
X18218760Y-13645690D02*
X18268760Y-13695690D01*
X18268760Y-13645690D02*
X18218760Y-13695690D01*
X18337950Y-14822520D02*
X18387950Y-14872520D01*
X18387950Y-14822520D02*
X18337950Y-14872520D01*
X18344320Y-14207700D02*
X18394320Y-14257700D01*
X18394320Y-14207700D02*
X18344320Y-14257700D01*
X18374640Y-8906410D02*
X18424640Y-8956410D01*
X18424640Y-8906410D02*
X18374640Y-8956410D01*
X18375180Y-13577670D02*
X18425180Y-13627670D01*
X18425180Y-13577670D02*
X18375180Y-13627670D01*
X18405530Y-4184720D02*
X18455530Y-4234720D01*
X18455530Y-4184720D02*
X18405530Y-4234720D01*
X18457330Y-3545310D02*
X18507330Y-3595310D01*
X18507330Y-3545310D02*
X18457330Y-3595310D01*
X18553930Y-9198670D02*
X18603930Y-9248670D01*
X18603930Y-9198670D02*
X18553930Y-9248670D01*
X18644280Y-8957800D02*
X18694280Y-9007800D01*
X18694280Y-8957800D02*
X18644280Y-9007800D01*
X18678580Y-15349300D02*
X18728580Y-15399300D01*
X18728580Y-15349300D02*
X18678580Y-15399300D01*
X18879680Y-12993960D02*
X18929680Y-13043960D01*
X18929680Y-12993960D02*
X18879680Y-13043960D01*
X18900370Y-7937980D02*
X18950370Y-7987980D01*
X18950370Y-7937980D02*
X18900370Y-7987980D01*
X18915470Y-7053820D02*
X18965470Y-7103820D01*
X18965470Y-7053820D02*
X18915470Y-7103820D01*
X18938670Y-11133420D02*
X18988670Y-11183420D01*
X18988670Y-11133420D02*
X18938670Y-11183420D01*
X19056480Y-10779350D02*
X19106480Y-10829350D01*
X19106480Y-10779350D02*
X19056480Y-10829350D01*
X19158520Y-9651720D02*
X19208520Y-9701720D01*
X19208520Y-9651720D02*
X19158520Y-9701720D01*
X19207100Y-8093940D02*
X19257100Y-8143940D01*
X19257100Y-8093940D02*
X19207100Y-8143940D01*
X19225330Y-10576240D02*
X19275330Y-10626240D01*
X19275330Y-10576240D02*
X19225330Y-10626240D01*
X19226210Y-14109540D02*
X19276210Y-14159540D01*
X19276210Y-14109540D02*
X19226210Y-14159540D01*
X19226490Y-6602640D02*
X19276490Y-6652640D01*
X19276490Y-6602640D02*
X19226490Y-6652640D01*
X19301640Y-9880670D02*
X19351640Y-9930670D01*
X19351640Y-9880670D02*
X19301640Y-9930670D01*
X19364770Y-8882600D02*
X19414770Y-8932600D01*
X19414770Y-8882600D02*
X19364770Y-8932600D01*
X19395680Y-9393820D02*
X19445680Y-9443820D01*
X19445680Y-9393820D02*
X19395680Y-9443820D01*
X19401640Y-11573850D02*
X19451640Y-11623850D01*
X19451640Y-11573850D02*
X19401640Y-11623850D01*
X19431480Y-4332050D02*
X19481480Y-4382050D01*
X19481480Y-4332050D02*
X19431480Y-4382050D01*
X19580650Y-7063740D02*
X19630650Y-7113740D01*
X19630650Y-7063740D02*
X19580650Y-7113740D01*
X19637190Y-5706800D02*
X19687190Y-5756800D01*
X19687190Y-5706800D02*
X19637190Y-5756800D01*
X19670180Y-13463020D02*
X19720180Y-13513020D01*
X19720180Y-13463020D02*
X19670180Y-13513020D01*
X19676740Y-8865480D02*
X19726740Y-8915480D01*
X19726740Y-8865480D02*
X19676740Y-8915480D01*
X19745300Y-15078920D02*
X19795300Y-15128920D01*
X19795300Y-15078920D02*
X19745300Y-15128920D01*
X19776500Y-13593330D02*
X19826500Y-13643330D01*
X19826500Y-13593330D02*
X19776500Y-13643330D01*
X19797320Y-5164420D02*
X19847320Y-5214420D01*
X19847320Y-5164420D02*
X19797320Y-5214420D01*
X19805250Y-8484480D02*
X19855250Y-8534480D01*
X19855250Y-8484480D02*
X19805250Y-8534480D01*
X19824470Y-4575550D02*
X19874470Y-4625550D01*
X19874470Y-4575550D02*
X19824470Y-4625550D01*
X19871320Y-7634530D02*
X19921320Y-7684530D01*
X19921320Y-7634530D02*
X19871320Y-7684530D01*
X19902190Y-5057120D02*
X19952190Y-5107120D01*
X19952190Y-5057120D02*
X19902190Y-5107120D01*
X19910270Y-6407880D02*
X19960270Y-6457880D01*
X19960270Y-6407880D02*
X19910270Y-6457880D01*
X19965690Y-6670710D02*
X20015690Y-6720710D01*
X20015690Y-6670710D02*
X19965690Y-6720710D01*
X20011900Y-13482210D02*
X20061900Y-13532210D01*
X20061900Y-13482210D02*
X20011900Y-13532210D01*
X20017690Y-6861410D02*
X20067690Y-6911410D01*
X20067690Y-6861410D02*
X20017690Y-6911410D01*
X20028290Y-14129980D02*
X20078290Y-14179980D01*
X20078290Y-14129980D02*
X20028290Y-14179980D01*
X20073090Y-12363050D02*
X20123090Y-12413050D01*
X20123090Y-12363050D02*
X20073090Y-12413050D01*
X20073150Y-8215000D02*
X20123150Y-8265000D01*
X20123150Y-8215000D02*
X20073150Y-8265000D01*
X20074010Y-14872500D02*
X20124010Y-14922500D01*
X20124010Y-14872500D02*
X20074010Y-14922500D01*
X20117300Y-7976030D02*
X20167300Y-8026030D01*
X20167300Y-7976030D02*
X20117300Y-8026030D01*
X20199350Y-10035230D02*
X20249350Y-10085230D01*
X20249350Y-10035230D02*
X20199350Y-10085230D01*
X20310790Y-4163210D02*
X20360790Y-4213210D01*
X20360790Y-4163210D02*
X20310790Y-4213210D01*
X20341050Y-11573850D02*
X20391050Y-11623850D01*
X20391050Y-11573850D02*
X20341050Y-11623850D01*
X20353380Y-8828930D02*
X20403380Y-8878930D01*
X20403380Y-8828930D02*
X20353380Y-8878930D01*
X20358800Y-11945200D02*
X20408800Y-11995200D01*
X20408800Y-11945200D02*
X20358800Y-11995200D01*
X20368650Y-5929000D02*
X20418650Y-5979000D01*
X20418650Y-5929000D02*
X20368650Y-5979000D01*
X20378610Y-11239420D02*
X20428610Y-11289420D01*
X20428610Y-11239420D02*
X20378610Y-11289420D01*
X20391390Y-10005600D02*
X20441390Y-10055600D01*
X20441390Y-10005600D02*
X20391390Y-10055600D01*
X20416990Y-5533140D02*
X20466990Y-5583140D01*
X20466990Y-5533140D02*
X20416990Y-5583140D01*
X20457830Y-9570930D02*
X20507830Y-9620930D01*
X20507830Y-9570930D02*
X20457830Y-9620930D01*
X20458810Y-12138020D02*
X20508810Y-12188020D01*
X20508810Y-12138020D02*
X20458810Y-12188020D01*
X20508810Y-11733040D02*
X20558810Y-11783040D01*
X20558810Y-11733040D02*
X20508810Y-11783040D01*
X20680590Y-12588070D02*
X20730590Y-12638070D01*
X20730590Y-12588070D02*
X20680590Y-12638070D01*
X20791140Y-9619320D02*
X20841140Y-9669320D01*
X20841140Y-9619320D02*
X20791140Y-9669320D01*
X20793660Y-10908390D02*
X20843660Y-10958390D01*
X20843660Y-10908390D02*
X20793660Y-10958390D01*
X20969020Y-3763420D02*
X21019020Y-3813420D01*
X21019020Y-3763420D02*
X20969020Y-3813420D01*
X20995510Y-9494310D02*
X21045510Y-9544310D01*
X21045510Y-9494310D02*
X20995510Y-9544310D01*
X21278240Y-7019510D02*
X21328240Y-7069510D01*
X21328240Y-7019510D02*
X21278240Y-7069510D01*
X21301950Y-9728330D02*
X21351950Y-9778330D01*
X21351950Y-9728330D02*
X21301950Y-9778330D01*
X21301950Y-10558670D02*
X21351950Y-10608670D01*
X21351950Y-10558670D02*
X21301950Y-10608670D01*
X21450690Y-10005600D02*
X21500690Y-10055600D01*
X21500690Y-10005600D02*
X21450690Y-10055600D01*
X21470710Y-6709870D02*
X21520710Y-6759870D01*
X21520710Y-6709870D02*
X21470710Y-6759870D01*
X21474710Y-3817320D02*
X21524710Y-3867320D01*
X21524710Y-3817320D02*
X21474710Y-3867320D01*
X21492590Y-10728130D02*
X21542590Y-10778130D01*
X21542590Y-10728130D02*
X21492590Y-10778130D01*
X21541750Y-8558470D02*
X21591750Y-8608470D01*
X21591750Y-8558470D02*
X21541750Y-8608470D01*
X21569000Y-11366690D02*
X21619000Y-11416690D01*
X21619000Y-11366690D02*
X21569000Y-11416690D01*
X21575540Y-9916260D02*
X21625540Y-9966260D01*
X21625540Y-9916260D02*
X21575540Y-9966260D01*
X21641280Y-8354400D02*
X21691280Y-8404400D01*
X21691280Y-8354400D02*
X21641280Y-8404400D01*
X21678860Y-14864110D02*
X21728860Y-14914110D01*
X21728860Y-14864110D02*
X21678860Y-14914110D01*
X21834510Y-14971360D02*
X21884510Y-15021360D01*
X21884510Y-14971360D02*
X21834510Y-15021360D01*
X21980010Y-9285890D02*
X22030010Y-9335890D01*
X22030010Y-9285890D02*
X21980010Y-9335890D01*
X22025540Y-14517430D02*
X22075540Y-14567430D01*
X22075540Y-14517430D02*
X22025540Y-14567430D01*
X22086080Y-10729870D02*
X22136080Y-10779870D01*
X22136080Y-10729870D02*
X22086080Y-10779870D01*
X22102260Y-10029660D02*
X22152260Y-10079660D01*
X22152260Y-10029660D02*
X22102260Y-10079660D01*
X22127720Y-14671830D02*
X22177720Y-14721830D01*
X22177720Y-14671830D02*
X22127720Y-14721830D01*
X22512020Y-7412000D02*
X22562020Y-7462000D01*
X22562020Y-7412000D02*
X22512020Y-7462000D01*
X22669640Y-6670890D02*
X22719640Y-6720890D01*
X22719640Y-6670890D02*
X22669640Y-6720890D01*
X22751630Y-4438320D02*
X22801630Y-4488320D01*
X22801630Y-4438320D02*
X22751630Y-4488320D01*
X22911840Y-10558670D02*
X22961840Y-10608670D01*
X22961840Y-10558670D02*
X22911840Y-10608670D01*
X23016380Y-4908500D02*
X23066380Y-4958500D01*
X23066380Y-4908500D02*
X23016380Y-4958500D01*
X23018090Y-3993590D02*
X23068090Y-4043590D01*
X23068090Y-3993590D02*
X23018090Y-4043590D01*
X23053570Y-9626790D02*
X23103570Y-9676790D01*
X23103570Y-9626790D02*
X23053570Y-9676790D01*
X23103120Y-6966220D02*
X23153120Y-7016220D01*
X23153120Y-6966220D02*
X23103120Y-7016220D01*
X23236000Y-15099600D02*
X23286000Y-15149600D01*
X23286000Y-15099600D02*
X23236000Y-15149600D01*
X23266050Y-4778790D02*
X23316050Y-4828790D01*
X23316050Y-4778790D02*
X23266050Y-4828790D01*
X23333420Y-14203320D02*
X23383420Y-14253320D01*
X23383420Y-14203320D02*
X23333420Y-14253320D01*
X23388350Y-8936000D02*
X23438350Y-8986000D01*
X23438350Y-8936000D02*
X23388350Y-8986000D01*
X23430770Y-11466710D02*
X23480770Y-11516710D01*
X23480770Y-11466710D02*
X23430770Y-11516710D01*
X23482640Y-6711540D02*
X23532640Y-6761540D01*
X23532640Y-6711540D02*
X23482640Y-6761540D01*
X23542440Y-9609650D02*
X23592440Y-9659650D01*
X23592440Y-9609650D02*
X23542440Y-9659650D01*
X23551540Y-14120310D02*
X23601540Y-14170310D01*
X23601540Y-14120310D02*
X23551540Y-14170310D01*
X23576580Y-4908500D02*
X23626580Y-4958500D01*
X23626580Y-4908500D02*
X23576580Y-4958500D01*
X23582650Y-5528860D02*
X23632650Y-5578860D01*
X23632650Y-5528860D02*
X23582650Y-5578860D01*
X23676560Y-12415990D02*
X23726560Y-12465990D01*
X23726560Y-12415990D02*
X23676560Y-12465990D01*
X23681730Y-9514280D02*
X23731730Y-9564280D01*
X23731730Y-9514280D02*
X23681730Y-9564280D01*
X24003890Y-7892250D02*
X24053890Y-7942250D01*
X24053890Y-7892250D02*
X24003890Y-7942250D01*
X24116240Y-11949340D02*
X24166240Y-11999340D01*
X24166240Y-11949340D02*
X24116240Y-11999340D01*
X24160990Y-5286120D02*
X24210990Y-5336120D01*
X24210990Y-5286120D02*
X24160990Y-5336120D01*
X24221070Y-15873240D02*
X24271070Y-15923240D01*
X24271070Y-15873240D02*
X24221070Y-15923240D01*
X24296810Y-15613230D02*
X24346810Y-15663230D01*
X24346810Y-15613230D02*
X24296810Y-15663230D01*
X24443570Y-8622000D02*
X24493570Y-8672000D01*
X24493570Y-8622000D02*
X24443570Y-8672000D01*
X24673210Y-15747000D02*
X24723210Y-15797000D01*
X24723210Y-15747000D02*
X24673210Y-15797000D01*
X24673240Y-4975710D02*
X24723240Y-5025710D01*
X24723240Y-4975710D02*
X24673240Y-5025710D01*
X24788280Y-4485470D02*
X24838280Y-4535470D01*
X24838280Y-4485470D02*
X24788280Y-4535470D01*
X24803940Y-6939430D02*
X24853940Y-6989430D01*
X24853940Y-6939430D02*
X24803940Y-6989430D01*
X25013310Y-6680520D02*
X25063310Y-6730520D01*
X25063310Y-6680520D02*
X25013310Y-6730520D01*
X25031070Y-3688130D02*
X25081070Y-3738130D01*
X25081070Y-3688130D02*
X25031070Y-3738130D01*
X25045550Y-7370400D02*
X25095550Y-7420400D01*
X25095550Y-7370400D02*
X25045550Y-7420400D01*
X25258200Y-3378400D02*
X25308200Y-3428400D01*
X25308200Y-3378400D02*
X25258200Y-3428400D01*
X25337450Y-10269490D02*
X25387450Y-10319490D01*
X25387450Y-10269490D02*
X25337450Y-10319490D01*
X25548740Y-10563650D02*
X25598740Y-10613650D01*
X25598740Y-10563650D02*
X25548740Y-10613650D01*
X25685110Y-7390950D02*
X25735110Y-7440950D01*
X25735110Y-7390950D02*
X25685110Y-7440950D01*
X25685110Y-11041660D02*
X25735110Y-11091660D01*
X25735110Y-11041660D02*
X25685110Y-11091660D01*
X25803560Y-10269490D02*
X25853560Y-10319490D01*
X25853560Y-10269490D02*
X25803560Y-10319490D01*
X25943720Y-9490490D02*
X25993720Y-9540490D01*
X25993720Y-9490490D02*
X25943720Y-9540490D01*
X25993970Y-4293270D02*
X26043970Y-4343270D01*
X26043970Y-4293270D02*
X25993970Y-4343270D01*
X26017580Y-11135150D02*
X26067580Y-11185150D01*
X26067580Y-11135150D02*
X26017580Y-11185150D01*
X26017580Y-12578450D02*
X26067580Y-12628450D01*
X26067580Y-12578450D02*
X26017580Y-12628450D01*
X26176800Y-4110440D02*
X26226800Y-4160440D01*
X26226800Y-4110440D02*
X26176800Y-4160440D01*
D12*
X6973000Y-13734000D02*
G75*
G03*
X6973000Y-13734000I-40000J0D01*
G01*
X6973000Y-14750000D02*
G75*
G03*
X6973000Y-14750000I-40000J0D01*
G01*
X7232000Y-5400000D02*
G75*
G03*
X7232000Y-5400000I-40000J0D01*
G01*
X7232000Y-6162000D02*
G75*
G03*
X7232000Y-6162000I-40000J0D01*
G01*
X7358000Y-7488000D02*
G75*
G03*
X7358000Y-7488000I-40000J0D01*
G01*
X7358000Y-8250000D02*
G75*
G03*
X7358000Y-8250000I-40000J0D01*
G01*
X7478000Y-4562000D02*
G75*
G03*
X7478000Y-4562000I-40000J0D01*
G01*
X7486000Y-5400000D02*
G75*
G03*
X7486000Y-5400000I-40000J0D01*
G01*
X7486000Y-6162000D02*
G75*
G03*
X7486000Y-6162000I-40000J0D01*
G01*
X7602000Y-9009000D02*
G75*
G03*
X7602000Y-9009000I-40000J0D01*
G01*
X7612000Y-7488000D02*
G75*
G03*
X7612000Y-7488000I-40000J0D01*
G01*
X7612000Y-8250000D02*
G75*
G03*
X7612000Y-8250000I-40000J0D01*
G01*
X7690000Y-10300000D02*
G75*
G03*
X7690000Y-10300000I-40000J0D01*
G01*
X7690000Y-10554000D02*
G75*
G03*
X7690000Y-10554000I-40000J0D01*
G01*
X7690000Y-10808000D02*
G75*
G03*
X7690000Y-10808000I-40000J0D01*
G01*
X7690000Y-11062000D02*
G75*
G03*
X7690000Y-11062000I-40000J0D01*
G01*
X7690000Y-11316000D02*
G75*
G03*
X7690000Y-11316000I-40000J0D01*
G01*
X7690000Y-11570000D02*
G75*
G03*
X7690000Y-11570000I-40000J0D01*
G01*
X7690000Y-11824000D02*
G75*
G03*
X7690000Y-11824000I-40000J0D01*
G01*
X7690000Y-12078000D02*
G75*
G03*
X7690000Y-12078000I-40000J0D01*
G01*
X7732000Y-4562000D02*
G75*
G03*
X7732000Y-4562000I-40000J0D01*
G01*
X7740000Y-5400000D02*
G75*
G03*
X7740000Y-5400000I-40000J0D01*
G01*
X7740000Y-6162000D02*
G75*
G03*
X7740000Y-6162000I-40000J0D01*
G01*
X7773000Y-13742000D02*
G75*
G03*
X7773000Y-13742000I-40000J0D01*
G01*
X7773000Y-14758000D02*
G75*
G03*
X7773000Y-14758000I-40000J0D01*
G01*
X7856000Y-9009000D02*
G75*
G03*
X7856000Y-9009000I-40000J0D01*
G01*
X7866000Y-7488000D02*
G75*
G03*
X7866000Y-7488000I-40000J0D01*
G01*
X7866000Y-8250000D02*
G75*
G03*
X7866000Y-8250000I-40000J0D01*
G01*
X7986000Y-4562000D02*
G75*
G03*
X7986000Y-4562000I-40000J0D01*
G01*
X7994000Y-5400000D02*
G75*
G03*
X7994000Y-5400000I-40000J0D01*
G01*
X7994000Y-6162000D02*
G75*
G03*
X7994000Y-6162000I-40000J0D01*
G01*
X8110000Y-9009000D02*
G75*
G03*
X8110000Y-9009000I-40000J0D01*
G01*
X8120000Y-7488000D02*
G75*
G03*
X8120000Y-7488000I-40000J0D01*
G01*
X8120000Y-8250000D02*
G75*
G03*
X8120000Y-8250000I-40000J0D01*
G01*
X8240000Y-4562000D02*
G75*
G03*
X8240000Y-4562000I-40000J0D01*
G01*
X8248000Y-5400000D02*
G75*
G03*
X8248000Y-5400000I-40000J0D01*
G01*
X8248000Y-6162000D02*
G75*
G03*
X8248000Y-6162000I-40000J0D01*
G01*
X8364000Y-9009000D02*
G75*
G03*
X8364000Y-9009000I-40000J0D01*
G01*
X8374000Y-7488000D02*
G75*
G03*
X8374000Y-7488000I-40000J0D01*
G01*
X8374000Y-8250000D02*
G75*
G03*
X8374000Y-8250000I-40000J0D01*
G01*
X8452000Y-10300000D02*
G75*
G03*
X8452000Y-10300000I-40000J0D01*
G01*
X8452000Y-10554000D02*
G75*
G03*
X8452000Y-10554000I-40000J0D01*
G01*
X8452000Y-10808000D02*
G75*
G03*
X8452000Y-10808000I-40000J0D01*
G01*
X8452000Y-11062000D02*
G75*
G03*
X8452000Y-11062000I-40000J0D01*
G01*
X8452000Y-11316000D02*
G75*
G03*
X8452000Y-11316000I-40000J0D01*
G01*
X8452000Y-11570000D02*
G75*
G03*
X8452000Y-11570000I-40000J0D01*
G01*
X8452000Y-11824000D02*
G75*
G03*
X8452000Y-11824000I-40000J0D01*
G01*
X8452000Y-12078000D02*
G75*
G03*
X8452000Y-12078000I-40000J0D01*
G01*
X8494000Y-4562000D02*
G75*
G03*
X8494000Y-4562000I-40000J0D01*
G01*
X8502000Y-5400000D02*
G75*
G03*
X8502000Y-5400000I-40000J0D01*
G01*
X8502000Y-6162000D02*
G75*
G03*
X8502000Y-6162000I-40000J0D01*
G01*
X8618000Y-9009000D02*
G75*
G03*
X8618000Y-9009000I-40000J0D01*
G01*
X8628000Y-7488000D02*
G75*
G03*
X8628000Y-7488000I-40000J0D01*
G01*
X8628000Y-8250000D02*
G75*
G03*
X8628000Y-8250000I-40000J0D01*
G01*
X8748000Y-4562000D02*
G75*
G03*
X8748000Y-4562000I-40000J0D01*
G01*
X8756000Y-5400000D02*
G75*
G03*
X8756000Y-5400000I-40000J0D01*
G01*
X8756000Y-6162000D02*
G75*
G03*
X8756000Y-6162000I-40000J0D01*
G01*
X8872000Y-9009000D02*
G75*
G03*
X8872000Y-9009000I-40000J0D01*
G01*
X8882000Y-7488000D02*
G75*
G03*
X8882000Y-7488000I-40000J0D01*
G01*
X8882000Y-8250000D02*
G75*
G03*
X8882000Y-8250000I-40000J0D01*
G01*
X9002000Y-4562000D02*
G75*
G03*
X9002000Y-4562000I-40000J0D01*
G01*
X9010000Y-5400000D02*
G75*
G03*
X9010000Y-5400000I-40000J0D01*
G01*
X9010000Y-6162000D02*
G75*
G03*
X9010000Y-6162000I-40000J0D01*
G01*
X9126000Y-9009000D02*
G75*
G03*
X9126000Y-9009000I-40000J0D01*
G01*
X9136000Y-7488000D02*
G75*
G03*
X9136000Y-7488000I-40000J0D01*
G01*
X9136000Y-8250000D02*
G75*
G03*
X9136000Y-8250000I-40000J0D01*
G01*
X9256000Y-4562000D02*
G75*
G03*
X9256000Y-4562000I-40000J0D01*
G01*
X9380000Y-9009000D02*
G75*
G03*
X9380000Y-9009000I-40000J0D01*
G01*
X9390000Y-7488000D02*
G75*
G03*
X9390000Y-7488000I-40000J0D01*
G01*
X9390000Y-8250000D02*
G75*
G03*
X9390000Y-8250000I-40000J0D01*
G01*
X9510000Y-4562000D02*
G75*
G03*
X9510000Y-4562000I-40000J0D01*
G01*
X9634000Y-9009000D02*
G75*
G03*
X9634000Y-9009000I-40000J0D01*
G01*
X9644000Y-7488000D02*
G75*
G03*
X9644000Y-7488000I-40000J0D01*
G01*
X9644000Y-8250000D02*
G75*
G03*
X9644000Y-8250000I-40000J0D01*
G01*
X11166000Y-3588000D02*
G75*
G03*
X11166000Y-3588000I-40000J0D01*
G01*
X11166000Y-4350000D02*
G75*
G03*
X11166000Y-4350000I-40000J0D01*
G01*
X11420000Y-3588000D02*
G75*
G03*
X11420000Y-3588000I-40000J0D01*
G01*
X11420000Y-4350000D02*
G75*
G03*
X11420000Y-4350000I-40000J0D01*
G01*
X11674000Y-3588000D02*
G75*
G03*
X11674000Y-3588000I-40000J0D01*
G01*
X11674000Y-4350000D02*
G75*
G03*
X11674000Y-4350000I-40000J0D01*
G01*
X11928000Y-3588000D02*
G75*
G03*
X11928000Y-3588000I-40000J0D01*
G01*
X11928000Y-4350000D02*
G75*
G03*
X11928000Y-4350000I-40000J0D01*
G01*
X12182000Y-3588000D02*
G75*
G03*
X12182000Y-3588000I-40000J0D01*
G01*
X12182000Y-4350000D02*
G75*
G03*
X12182000Y-4350000I-40000J0D01*
G01*
X12436000Y-3588000D02*
G75*
G03*
X12436000Y-3588000I-40000J0D01*
G01*
X12436000Y-4350000D02*
G75*
G03*
X12436000Y-4350000I-40000J0D01*
G01*
X12462000Y-11050000D02*
G75*
G03*
X12462000Y-11050000I-40000J0D01*
G01*
X12462000Y-11812000D02*
G75*
G03*
X12462000Y-11812000I-40000J0D01*
G01*
X12690000Y-3588000D02*
G75*
G03*
X12690000Y-3588000I-40000J0D01*
G01*
X12690000Y-4350000D02*
G75*
G03*
X12690000Y-4350000I-40000J0D01*
G01*
X12716000Y-11050000D02*
G75*
G03*
X12716000Y-11050000I-40000J0D01*
G01*
X12716000Y-11812000D02*
G75*
G03*
X12716000Y-11812000I-40000J0D01*
G01*
X12740000Y-13734000D02*
G75*
G03*
X12740000Y-13734000I-40000J0D01*
G01*
X12740000Y-14750000D02*
G75*
G03*
X12740000Y-14750000I-40000J0D01*
G01*
X12970000Y-11050000D02*
G75*
G03*
X12970000Y-11050000I-40000J0D01*
G01*
X12970000Y-11812000D02*
G75*
G03*
X12970000Y-11812000I-40000J0D01*
G01*
X13224000Y-11050000D02*
G75*
G03*
X13224000Y-11050000I-40000J0D01*
G01*
X13224000Y-11812000D02*
G75*
G03*
X13224000Y-11812000I-40000J0D01*
G01*
X13328000Y-8200000D02*
G75*
G03*
X13328000Y-8200000I-40000J0D01*
G01*
X13328000Y-8454000D02*
G75*
G03*
X13328000Y-8454000I-40000J0D01*
G01*
X13328000Y-8708000D02*
G75*
G03*
X13328000Y-8708000I-40000J0D01*
G01*
X13328000Y-8962000D02*
G75*
G03*
X13328000Y-8962000I-40000J0D01*
G01*
X13328000Y-9216000D02*
G75*
G03*
X13328000Y-9216000I-40000J0D01*
G01*
X13328000Y-9470000D02*
G75*
G03*
X13328000Y-9470000I-40000J0D01*
G01*
X13328000Y-9724000D02*
G75*
G03*
X13328000Y-9724000I-40000J0D01*
G01*
X13328000Y-9978000D02*
G75*
G03*
X13328000Y-9978000I-40000J0D01*
G01*
X13354000Y-5450000D02*
G75*
G03*
X13354000Y-5450000I-40000J0D01*
G01*
X13354000Y-6212000D02*
G75*
G03*
X13354000Y-6212000I-40000J0D01*
G01*
X13478000Y-11050000D02*
G75*
G03*
X13478000Y-11050000I-40000J0D01*
G01*
X13478000Y-11812000D02*
G75*
G03*
X13478000Y-11812000I-40000J0D01*
G01*
X13608000Y-5450000D02*
G75*
G03*
X13608000Y-5450000I-40000J0D01*
G01*
X13608000Y-6212000D02*
G75*
G03*
X13608000Y-6212000I-40000J0D01*
G01*
X13732000Y-11050000D02*
G75*
G03*
X13732000Y-11050000I-40000J0D01*
G01*
X13732000Y-11812000D02*
G75*
G03*
X13732000Y-11812000I-40000J0D01*
G01*
X13862000Y-5450000D02*
G75*
G03*
X13862000Y-5450000I-40000J0D01*
G01*
X13862000Y-6212000D02*
G75*
G03*
X13862000Y-6212000I-40000J0D01*
G01*
X13986000Y-11050000D02*
G75*
G03*
X13986000Y-11050000I-40000J0D01*
G01*
X13986000Y-11812000D02*
G75*
G03*
X13986000Y-11812000I-40000J0D01*
G01*
X14090000Y-8200000D02*
G75*
G03*
X14090000Y-8200000I-40000J0D01*
G01*
X14090000Y-8454000D02*
G75*
G03*
X14090000Y-8454000I-40000J0D01*
G01*
X14090000Y-8708000D02*
G75*
G03*
X14090000Y-8708000I-40000J0D01*
G01*
X14090000Y-8962000D02*
G75*
G03*
X14090000Y-8962000I-40000J0D01*
G01*
X14090000Y-9216000D02*
G75*
G03*
X14090000Y-9216000I-40000J0D01*
G01*
X14090000Y-9470000D02*
G75*
G03*
X14090000Y-9470000I-40000J0D01*
G01*
X14090000Y-9724000D02*
G75*
G03*
X14090000Y-9724000I-40000J0D01*
G01*
X14090000Y-9978000D02*
G75*
G03*
X14090000Y-9978000I-40000J0D01*
G01*
X14116000Y-5450000D02*
G75*
G03*
X14116000Y-5450000I-40000J0D01*
G01*
X14116000Y-6212000D02*
G75*
G03*
X14116000Y-6212000I-40000J0D01*
G01*
X14240000Y-11050000D02*
G75*
G03*
X14240000Y-11050000I-40000J0D01*
G01*
X14240000Y-11812000D02*
G75*
G03*
X14240000Y-11812000I-40000J0D01*
G01*
X14370000Y-5450000D02*
G75*
G03*
X14370000Y-5450000I-40000J0D01*
G01*
X14370000Y-6212000D02*
G75*
G03*
X14370000Y-6212000I-40000J0D01*
G01*
X14624000Y-5450000D02*
G75*
G03*
X14624000Y-5450000I-40000J0D01*
G01*
X14624000Y-6212000D02*
G75*
G03*
X14624000Y-6212000I-40000J0D01*
G01*
X14878000Y-5450000D02*
G75*
G03*
X14878000Y-5450000I-40000J0D01*
G01*
X14878000Y-6212000D02*
G75*
G03*
X14878000Y-6212000I-40000J0D01*
G01*
X15132000Y-5450000D02*
G75*
G03*
X15132000Y-5450000I-40000J0D01*
G01*
X15132000Y-6212000D02*
G75*
G03*
X15132000Y-6212000I-40000J0D01*
G01*
X15162000Y-7570000D02*
G75*
G03*
X15162000Y-7570000I-40000J0D01*
G01*
X15162000Y-8332000D02*
G75*
G03*
X15162000Y-8332000I-40000J0D01*
G01*
X15240000Y-9212000D02*
G75*
G03*
X15240000Y-9212000I-40000J0D01*
G01*
X15240000Y-9466000D02*
G75*
G03*
X15240000Y-9466000I-40000J0D01*
G01*
X15240000Y-9720000D02*
G75*
G03*
X15240000Y-9720000I-40000J0D01*
G01*
X15240000Y-9974000D02*
G75*
G03*
X15240000Y-9974000I-40000J0D01*
G01*
X15240000Y-10228000D02*
G75*
G03*
X15240000Y-10228000I-40000J0D01*
G01*
X15240000Y-10482000D02*
G75*
G03*
X15240000Y-10482000I-40000J0D01*
G01*
X15240000Y-10736000D02*
G75*
G03*
X15240000Y-10736000I-40000J0D01*
G01*
X15240000Y-10990000D02*
G75*
G03*
X15240000Y-10990000I-40000J0D01*
G01*
X15240000Y-11244000D02*
G75*
G03*
X15240000Y-11244000I-40000J0D01*
G01*
X15240000Y-11498000D02*
G75*
G03*
X15240000Y-11498000I-40000J0D01*
G01*
X15240000Y-11752000D02*
G75*
G03*
X15240000Y-11752000I-40000J0D01*
G01*
X15240000Y-12006000D02*
G75*
G03*
X15240000Y-12006000I-40000J0D01*
G01*
X15240000Y-12260000D02*
G75*
G03*
X15240000Y-12260000I-40000J0D01*
G01*
X15240000Y-12514000D02*
G75*
G03*
X15240000Y-12514000I-40000J0D01*
G01*
X15240000Y-12768000D02*
G75*
G03*
X15240000Y-12768000I-40000J0D01*
G01*
X15240000Y-13022000D02*
G75*
G03*
X15240000Y-13022000I-40000J0D01*
G01*
X15386000Y-5450000D02*
G75*
G03*
X15386000Y-5450000I-40000J0D01*
G01*
X15386000Y-6212000D02*
G75*
G03*
X15386000Y-6212000I-40000J0D01*
G01*
X15416000Y-7570000D02*
G75*
G03*
X15416000Y-7570000I-40000J0D01*
G01*
X15416000Y-8332000D02*
G75*
G03*
X15416000Y-8332000I-40000J0D01*
G01*
X15640000Y-5450000D02*
G75*
G03*
X15640000Y-5450000I-40000J0D01*
G01*
X15640000Y-6212000D02*
G75*
G03*
X15640000Y-6212000I-40000J0D01*
G01*
X15670000Y-7570000D02*
G75*
G03*
X15670000Y-7570000I-40000J0D01*
G01*
X15670000Y-8332000D02*
G75*
G03*
X15670000Y-8332000I-40000J0D01*
G01*
X15924000Y-7570000D02*
G75*
G03*
X15924000Y-7570000I-40000J0D01*
G01*
X15924000Y-8332000D02*
G75*
G03*
X15924000Y-8332000I-40000J0D01*
G01*
X16178000Y-7570000D02*
G75*
G03*
X16178000Y-7570000I-40000J0D01*
G01*
X16178000Y-8332000D02*
G75*
G03*
X16178000Y-8332000I-40000J0D01*
G01*
X16312000Y-14600000D02*
G75*
G03*
X16312000Y-14600000I-40000J0D01*
G01*
X16312000Y-15362000D02*
G75*
G03*
X16312000Y-15362000I-40000J0D01*
G01*
X16432000Y-7570000D02*
G75*
G03*
X16432000Y-7570000I-40000J0D01*
G01*
X16432000Y-8332000D02*
G75*
G03*
X16432000Y-8332000I-40000J0D01*
G01*
X16566000Y-14600000D02*
G75*
G03*
X16566000Y-14600000I-40000J0D01*
G01*
X16566000Y-15362000D02*
G75*
G03*
X16566000Y-15362000I-40000J0D01*
G01*
X16686000Y-7570000D02*
G75*
G03*
X16686000Y-7570000I-40000J0D01*
G01*
X16686000Y-8332000D02*
G75*
G03*
X16686000Y-8332000I-40000J0D01*
G01*
X16764000Y-9212000D02*
G75*
G03*
X16764000Y-9212000I-40000J0D01*
G01*
X16764000Y-9466000D02*
G75*
G03*
X16764000Y-9466000I-40000J0D01*
G01*
X16764000Y-9720000D02*
G75*
G03*
X16764000Y-9720000I-40000J0D01*
G01*
X16764000Y-9974000D02*
G75*
G03*
X16764000Y-9974000I-40000J0D01*
G01*
X16764000Y-10228000D02*
G75*
G03*
X16764000Y-10228000I-40000J0D01*
G01*
X16764000Y-10482000D02*
G75*
G03*
X16764000Y-10482000I-40000J0D01*
G01*
X16764000Y-10736000D02*
G75*
G03*
X16764000Y-10736000I-40000J0D01*
G01*
X16764000Y-10990000D02*
G75*
G03*
X16764000Y-10990000I-40000J0D01*
G01*
X16764000Y-11244000D02*
G75*
G03*
X16764000Y-11244000I-40000J0D01*
G01*
X16764000Y-11498000D02*
G75*
G03*
X16764000Y-11498000I-40000J0D01*
G01*
X16764000Y-11752000D02*
G75*
G03*
X16764000Y-11752000I-40000J0D01*
G01*
X16764000Y-12006000D02*
G75*
G03*
X16764000Y-12006000I-40000J0D01*
G01*
X16764000Y-12260000D02*
G75*
G03*
X16764000Y-12260000I-40000J0D01*
G01*
X16764000Y-12514000D02*
G75*
G03*
X16764000Y-12514000I-40000J0D01*
G01*
X16764000Y-12768000D02*
G75*
G03*
X16764000Y-12768000I-40000J0D01*
G01*
X16764000Y-13022000D02*
G75*
G03*
X16764000Y-13022000I-40000J0D01*
G01*
X16820000Y-14600000D02*
G75*
G03*
X16820000Y-14600000I-40000J0D01*
G01*
X16820000Y-15362000D02*
G75*
G03*
X16820000Y-15362000I-40000J0D01*
G01*
X16940000Y-7570000D02*
G75*
G03*
X16940000Y-7570000I-40000J0D01*
G01*
X16940000Y-8332000D02*
G75*
G03*
X16940000Y-8332000I-40000J0D01*
G01*
X17074000Y-14600000D02*
G75*
G03*
X17074000Y-14600000I-40000J0D01*
G01*
X17074000Y-15362000D02*
G75*
G03*
X17074000Y-15362000I-40000J0D01*
G01*
X17258000Y-5388000D02*
G75*
G03*
X17258000Y-5388000I-40000J0D01*
G01*
X17258000Y-6150000D02*
G75*
G03*
X17258000Y-6150000I-40000J0D01*
G01*
X17328000Y-14600000D02*
G75*
G03*
X17328000Y-14600000I-40000J0D01*
G01*
X17328000Y-15362000D02*
G75*
G03*
X17328000Y-15362000I-40000J0D01*
G01*
X17512000Y-5388000D02*
G75*
G03*
X17512000Y-5388000I-40000J0D01*
G01*
X17512000Y-6150000D02*
G75*
G03*
X17512000Y-6150000I-40000J0D01*
G01*
X17540000Y-10542000D02*
G75*
G03*
X17540000Y-10542000I-40000J0D01*
G01*
X17540000Y-11558000D02*
G75*
G03*
X17540000Y-11558000I-40000J0D01*
G01*
X17582000Y-14600000D02*
G75*
G03*
X17582000Y-14600000I-40000J0D01*
G01*
X17582000Y-15362000D02*
G75*
G03*
X17582000Y-15362000I-40000J0D01*
G01*
X17766000Y-5388000D02*
G75*
G03*
X17766000Y-5388000I-40000J0D01*
G01*
X17766000Y-6150000D02*
G75*
G03*
X17766000Y-6150000I-40000J0D01*
G01*
X17836000Y-14600000D02*
G75*
G03*
X17836000Y-14600000I-40000J0D01*
G01*
X17836000Y-15362000D02*
G75*
G03*
X17836000Y-15362000I-40000J0D01*
G01*
X17962000Y-12000000D02*
G75*
G03*
X17962000Y-12000000I-40000J0D01*
G01*
X17962000Y-12762000D02*
G75*
G03*
X17962000Y-12762000I-40000J0D01*
G01*
X18020000Y-5388000D02*
G75*
G03*
X18020000Y-5388000I-40000J0D01*
G01*
X18020000Y-6150000D02*
G75*
G03*
X18020000Y-6150000I-40000J0D01*
G01*
X18090000Y-14600000D02*
G75*
G03*
X18090000Y-14600000I-40000J0D01*
G01*
X18090000Y-15362000D02*
G75*
G03*
X18090000Y-15362000I-40000J0D01*
G01*
X18216000Y-12000000D02*
G75*
G03*
X18216000Y-12000000I-40000J0D01*
G01*
X18216000Y-12762000D02*
G75*
G03*
X18216000Y-12762000I-40000J0D01*
G01*
X18228000Y-8400000D02*
G75*
G03*
X18228000Y-8400000I-40000J0D01*
G01*
X18228000Y-8654000D02*
G75*
G03*
X18228000Y-8654000I-40000J0D01*
G01*
X18228000Y-8908000D02*
G75*
G03*
X18228000Y-8908000I-40000J0D01*
G01*
X18228000Y-9162000D02*
G75*
G03*
X18228000Y-9162000I-40000J0D01*
G01*
X18228000Y-9416000D02*
G75*
G03*
X18228000Y-9416000I-40000J0D01*
G01*
X18228000Y-9670000D02*
G75*
G03*
X18228000Y-9670000I-40000J0D01*
G01*
X18228000Y-9924000D02*
G75*
G03*
X18228000Y-9924000I-40000J0D01*
G01*
X18228000Y-10178000D02*
G75*
G03*
X18228000Y-10178000I-40000J0D01*
G01*
X18274000Y-5388000D02*
G75*
G03*
X18274000Y-5388000I-40000J0D01*
G01*
X18274000Y-6150000D02*
G75*
G03*
X18274000Y-6150000I-40000J0D01*
G01*
X18470000Y-12000000D02*
G75*
G03*
X18470000Y-12000000I-40000J0D01*
G01*
X18470000Y-12762000D02*
G75*
G03*
X18470000Y-12762000I-40000J0D01*
G01*
X18528000Y-5388000D02*
G75*
G03*
X18528000Y-5388000I-40000J0D01*
G01*
X18528000Y-6150000D02*
G75*
G03*
X18528000Y-6150000I-40000J0D01*
G01*
X18724000Y-12000000D02*
G75*
G03*
X18724000Y-12000000I-40000J0D01*
G01*
X18724000Y-12762000D02*
G75*
G03*
X18724000Y-12762000I-40000J0D01*
G01*
X18782000Y-5388000D02*
G75*
G03*
X18782000Y-5388000I-40000J0D01*
G01*
X18782000Y-6150000D02*
G75*
G03*
X18782000Y-6150000I-40000J0D01*
G01*
X18978000Y-12000000D02*
G75*
G03*
X18978000Y-12000000I-40000J0D01*
G01*
X18978000Y-12762000D02*
G75*
G03*
X18978000Y-12762000I-40000J0D01*
G01*
X18990000Y-8400000D02*
G75*
G03*
X18990000Y-8400000I-40000J0D01*
G01*
X18990000Y-8654000D02*
G75*
G03*
X18990000Y-8654000I-40000J0D01*
G01*
X18990000Y-8908000D02*
G75*
G03*
X18990000Y-8908000I-40000J0D01*
G01*
X18990000Y-9162000D02*
G75*
G03*
X18990000Y-9162000I-40000J0D01*
G01*
X18990000Y-9416000D02*
G75*
G03*
X18990000Y-9416000I-40000J0D01*
G01*
X18990000Y-9670000D02*
G75*
G03*
X18990000Y-9670000I-40000J0D01*
G01*
X18990000Y-9924000D02*
G75*
G03*
X18990000Y-9924000I-40000J0D01*
G01*
X18990000Y-10178000D02*
G75*
G03*
X18990000Y-10178000I-40000J0D01*
G01*
X19036000Y-5388000D02*
G75*
G03*
X19036000Y-5388000I-40000J0D01*
G01*
X19036000Y-6150000D02*
G75*
G03*
X19036000Y-6150000I-40000J0D01*
G01*
X19232000Y-12000000D02*
G75*
G03*
X19232000Y-12000000I-40000J0D01*
G01*
X19232000Y-12762000D02*
G75*
G03*
X19232000Y-12762000I-40000J0D01*
G01*
X19290000Y-5388000D02*
G75*
G03*
X19290000Y-5388000I-40000J0D01*
G01*
X19290000Y-6150000D02*
G75*
G03*
X19290000Y-6150000I-40000J0D01*
G01*
X19462000Y-14588000D02*
G75*
G03*
X19462000Y-14588000I-40000J0D01*
G01*
X19462000Y-15350000D02*
G75*
G03*
X19462000Y-15350000I-40000J0D01*
G01*
X19486000Y-12000000D02*
G75*
G03*
X19486000Y-12000000I-40000J0D01*
G01*
X19486000Y-12762000D02*
G75*
G03*
X19486000Y-12762000I-40000J0D01*
G01*
X19544000Y-5388000D02*
G75*
G03*
X19544000Y-5388000I-40000J0D01*
G01*
X19544000Y-6150000D02*
G75*
G03*
X19544000Y-6150000I-40000J0D01*
G01*
X19716000Y-14588000D02*
G75*
G03*
X19716000Y-14588000I-40000J0D01*
G01*
X19716000Y-15350000D02*
G75*
G03*
X19716000Y-15350000I-40000J0D01*
G01*
X19740000Y-12000000D02*
G75*
G03*
X19740000Y-12000000I-40000J0D01*
G01*
X19740000Y-12762000D02*
G75*
G03*
X19740000Y-12762000I-40000J0D01*
G01*
X19970000Y-14588000D02*
G75*
G03*
X19970000Y-14588000I-40000J0D01*
G01*
X19970000Y-15350000D02*
G75*
G03*
X19970000Y-15350000I-40000J0D01*
G01*
X20224000Y-14588000D02*
G75*
G03*
X20224000Y-14588000I-40000J0D01*
G01*
X20224000Y-15350000D02*
G75*
G03*
X20224000Y-15350000I-40000J0D01*
G01*
X20478000Y-14588000D02*
G75*
G03*
X20478000Y-14588000I-40000J0D01*
G01*
X20478000Y-15350000D02*
G75*
G03*
X20478000Y-15350000I-40000J0D01*
G01*
X20732000Y-14588000D02*
G75*
G03*
X20732000Y-14588000I-40000J0D01*
G01*
X20732000Y-15350000D02*
G75*
G03*
X20732000Y-15350000I-40000J0D01*
G01*
X20986000Y-14588000D02*
G75*
G03*
X20986000Y-14588000I-40000J0D01*
G01*
X20986000Y-15350000D02*
G75*
G03*
X20986000Y-15350000I-40000J0D01*
G01*
X21114500Y-13012000D02*
G75*
G03*
X21114500Y-13012000I-40000J0D01*
G01*
X21126000Y-11834000D02*
G75*
G03*
X21126000Y-11834000I-40000J0D01*
G01*
X21126000Y-12596000D02*
G75*
G03*
X21126000Y-12596000I-40000J0D01*
G01*
X21240000Y-14588000D02*
G75*
G03*
X21240000Y-14588000I-40000J0D01*
G01*
X21240000Y-15350000D02*
G75*
G03*
X21240000Y-15350000I-40000J0D01*
G01*
X21368500Y-13012000D02*
G75*
G03*
X21368500Y-13012000I-40000J0D01*
G01*
X21380000Y-11834000D02*
G75*
G03*
X21380000Y-11834000I-40000J0D01*
G01*
X21380000Y-12596000D02*
G75*
G03*
X21380000Y-12596000I-40000J0D01*
G01*
X21622500Y-13012000D02*
G75*
G03*
X21622500Y-13012000I-40000J0D01*
G01*
X21634000Y-11834000D02*
G75*
G03*
X21634000Y-11834000I-40000J0D01*
G01*
X21634000Y-12596000D02*
G75*
G03*
X21634000Y-12596000I-40000J0D01*
G01*
X21876500Y-13012000D02*
G75*
G03*
X21876500Y-13012000I-40000J0D01*
G01*
X21888000Y-11834000D02*
G75*
G03*
X21888000Y-11834000I-40000J0D01*
G01*
X21888000Y-12596000D02*
G75*
G03*
X21888000Y-12596000I-40000J0D01*
G01*
X22130500Y-13012000D02*
G75*
G03*
X22130500Y-13012000I-40000J0D01*
G01*
X22142000Y-11834000D02*
G75*
G03*
X22142000Y-11834000I-40000J0D01*
G01*
X22142000Y-12596000D02*
G75*
G03*
X22142000Y-12596000I-40000J0D01*
G01*
X22289500Y-7183000D02*
G75*
G03*
X22289500Y-7183000I-40000J0D01*
G01*
X22289500Y-7437000D02*
G75*
G03*
X22289500Y-7437000I-40000J0D01*
G01*
X22289500Y-7691000D02*
G75*
G03*
X22289500Y-7691000I-40000J0D01*
G01*
X22289500Y-7945000D02*
G75*
G03*
X22289500Y-7945000I-40000J0D01*
G01*
X22289500Y-8199000D02*
G75*
G03*
X22289500Y-8199000I-40000J0D01*
G01*
X22289500Y-8453000D02*
G75*
G03*
X22289500Y-8453000I-40000J0D01*
G01*
X22289500Y-8707000D02*
G75*
G03*
X22289500Y-8707000I-40000J0D01*
G01*
X22289500Y-8961000D02*
G75*
G03*
X22289500Y-8961000I-40000J0D01*
G01*
X22289500Y-9215000D02*
G75*
G03*
X22289500Y-9215000I-40000J0D01*
G01*
X22289500Y-9469000D02*
G75*
G03*
X22289500Y-9469000I-40000J0D01*
G01*
X22384500Y-13012000D02*
G75*
G03*
X22384500Y-13012000I-40000J0D01*
G01*
X22396000Y-11834000D02*
G75*
G03*
X22396000Y-11834000I-40000J0D01*
G01*
X22396000Y-12596000D02*
G75*
G03*
X22396000Y-12596000I-40000J0D01*
G01*
X22412000Y-14650000D02*
G75*
G03*
X22412000Y-14650000I-40000J0D01*
G01*
X22412000Y-15412000D02*
G75*
G03*
X22412000Y-15412000I-40000J0D01*
G01*
X22638500Y-13012000D02*
G75*
G03*
X22638500Y-13012000I-40000J0D01*
G01*
X22650000Y-11834000D02*
G75*
G03*
X22650000Y-11834000I-40000J0D01*
G01*
X22650000Y-12596000D02*
G75*
G03*
X22650000Y-12596000I-40000J0D01*
G01*
X22666000Y-14650000D02*
G75*
G03*
X22666000Y-14650000I-40000J0D01*
G01*
X22666000Y-15412000D02*
G75*
G03*
X22666000Y-15412000I-40000J0D01*
G01*
X22892500Y-13012000D02*
G75*
G03*
X22892500Y-13012000I-40000J0D01*
G01*
X22904000Y-11834000D02*
G75*
G03*
X22904000Y-11834000I-40000J0D01*
G01*
X22904000Y-12596000D02*
G75*
G03*
X22904000Y-12596000I-40000J0D01*
G01*
X22920000Y-14650000D02*
G75*
G03*
X22920000Y-14650000I-40000J0D01*
G01*
X22920000Y-15412000D02*
G75*
G03*
X22920000Y-15412000I-40000J0D01*
G01*
X23051500Y-7183000D02*
G75*
G03*
X23051500Y-7183000I-40000J0D01*
G01*
X23051500Y-7437000D02*
G75*
G03*
X23051500Y-7437000I-40000J0D01*
G01*
X23051500Y-7691000D02*
G75*
G03*
X23051500Y-7691000I-40000J0D01*
G01*
X23051500Y-7945000D02*
G75*
G03*
X23051500Y-7945000I-40000J0D01*
G01*
X23051500Y-8199000D02*
G75*
G03*
X23051500Y-8199000I-40000J0D01*
G01*
X23051500Y-8453000D02*
G75*
G03*
X23051500Y-8453000I-40000J0D01*
G01*
X23051500Y-8707000D02*
G75*
G03*
X23051500Y-8707000I-40000J0D01*
G01*
X23051500Y-8961000D02*
G75*
G03*
X23051500Y-8961000I-40000J0D01*
G01*
X23051500Y-9215000D02*
G75*
G03*
X23051500Y-9215000I-40000J0D01*
G01*
X23051500Y-9469000D02*
G75*
G03*
X23051500Y-9469000I-40000J0D01*
G01*
X23146500Y-13012000D02*
G75*
G03*
X23146500Y-13012000I-40000J0D01*
G01*
X23158000Y-11834000D02*
G75*
G03*
X23158000Y-11834000I-40000J0D01*
G01*
X23158000Y-12596000D02*
G75*
G03*
X23158000Y-12596000I-40000J0D01*
G01*
X23174000Y-14650000D02*
G75*
G03*
X23174000Y-14650000I-40000J0D01*
G01*
X23174000Y-15412000D02*
G75*
G03*
X23174000Y-15412000I-40000J0D01*
G01*
X23177500Y-9941000D02*
G75*
G03*
X23177500Y-9941000I-40000J0D01*
G01*
X23177500Y-10703000D02*
G75*
G03*
X23177500Y-10703000I-40000J0D01*
G01*
X23412000Y-11834000D02*
G75*
G03*
X23412000Y-11834000I-40000J0D01*
G01*
X23412000Y-12596000D02*
G75*
G03*
X23412000Y-12596000I-40000J0D01*
G01*
X23428000Y-14650000D02*
G75*
G03*
X23428000Y-14650000I-40000J0D01*
G01*
X23428000Y-15412000D02*
G75*
G03*
X23428000Y-15412000I-40000J0D01*
G01*
X23431500Y-9941000D02*
G75*
G03*
X23431500Y-9941000I-40000J0D01*
G01*
X23431500Y-10703000D02*
G75*
G03*
X23431500Y-10703000I-40000J0D01*
G01*
X23682000Y-14650000D02*
G75*
G03*
X23682000Y-14650000I-40000J0D01*
G01*
X23682000Y-15412000D02*
G75*
G03*
X23682000Y-15412000I-40000J0D01*
G01*
X23685500Y-9941000D02*
G75*
G03*
X23685500Y-9941000I-40000J0D01*
G01*
X23685500Y-10703000D02*
G75*
G03*
X23685500Y-10703000I-40000J0D01*
G01*
X23877500Y-5345000D02*
G75*
G03*
X23877500Y-5345000I-40000J0D01*
G01*
X23877500Y-5599000D02*
G75*
G03*
X23877500Y-5599000I-40000J0D01*
G01*
X23877500Y-5853000D02*
G75*
G03*
X23877500Y-5853000I-40000J0D01*
G01*
X23877500Y-6107000D02*
G75*
G03*
X23877500Y-6107000I-40000J0D01*
G01*
X23877500Y-6361000D02*
G75*
G03*
X23877500Y-6361000I-40000J0D01*
G01*
X23877500Y-6615000D02*
G75*
G03*
X23877500Y-6615000I-40000J0D01*
G01*
X23877500Y-6869000D02*
G75*
G03*
X23877500Y-6869000I-40000J0D01*
G01*
X23877500Y-7123000D02*
G75*
G03*
X23877500Y-7123000I-40000J0D01*
G01*
X23877500Y-7377000D02*
G75*
G03*
X23877500Y-7377000I-40000J0D01*
G01*
X23877500Y-7631000D02*
G75*
G03*
X23877500Y-7631000I-40000J0D01*
G01*
X23877500Y-7885000D02*
G75*
G03*
X23877500Y-7885000I-40000J0D01*
G01*
X23877500Y-8139000D02*
G75*
G03*
X23877500Y-8139000I-40000J0D01*
G01*
X23877500Y-8393000D02*
G75*
G03*
X23877500Y-8393000I-40000J0D01*
G01*
X23877500Y-8647000D02*
G75*
G03*
X23877500Y-8647000I-40000J0D01*
G01*
X23877500Y-8901000D02*
G75*
G03*
X23877500Y-8901000I-40000J0D01*
G01*
X23877500Y-9155000D02*
G75*
G03*
X23877500Y-9155000I-40000J0D01*
G01*
X23880000Y-12592000D02*
G75*
G03*
X23880000Y-12592000I-40000J0D01*
G01*
X23880000Y-13608000D02*
G75*
G03*
X23880000Y-13608000I-40000J0D01*
G01*
X23936000Y-14650000D02*
G75*
G03*
X23936000Y-14650000I-40000J0D01*
G01*
X23936000Y-15412000D02*
G75*
G03*
X23936000Y-15412000I-40000J0D01*
G01*
X23939500Y-9941000D02*
G75*
G03*
X23939500Y-9941000I-40000J0D01*
G01*
X23939500Y-10703000D02*
G75*
G03*
X23939500Y-10703000I-40000J0D01*
G01*
X24190000Y-14650000D02*
G75*
G03*
X24190000Y-14650000I-40000J0D01*
G01*
X24190000Y-15412000D02*
G75*
G03*
X24190000Y-15412000I-40000J0D01*
G01*
X24193500Y-9941000D02*
G75*
G03*
X24193500Y-9941000I-40000J0D01*
G01*
X24193500Y-10703000D02*
G75*
G03*
X24193500Y-10703000I-40000J0D01*
G01*
X24447500Y-9941000D02*
G75*
G03*
X24447500Y-9941000I-40000J0D01*
G01*
X24447500Y-10703000D02*
G75*
G03*
X24447500Y-10703000I-40000J0D01*
G01*
X24701500Y-9941000D02*
G75*
G03*
X24701500Y-9941000I-40000J0D01*
G01*
X24701500Y-10703000D02*
G75*
G03*
X24701500Y-10703000I-40000J0D01*
G01*
X24955500Y-9941000D02*
G75*
G03*
X24955500Y-9941000I-40000J0D01*
G01*
X24955500Y-10703000D02*
G75*
G03*
X24955500Y-10703000I-40000J0D01*
G01*
X25180270Y-13209730D02*
G75*
G03*
X25180270Y-13209730I-40000J0D01*
G01*
X25180270Y-14350000D02*
G75*
G03*
X25180270Y-14350000I-40000J0D01*
G01*
X25180270Y-15450000D02*
G75*
G03*
X25180270Y-15450000I-40000J0D01*
G01*
X25209500Y-9941000D02*
G75*
G03*
X25209500Y-9941000I-40000J0D01*
G01*
X25209500Y-10703000D02*
G75*
G03*
X25209500Y-10703000I-40000J0D01*
G01*
X25401500Y-5345000D02*
G75*
G03*
X25401500Y-5345000I-40000J0D01*
G01*
X25401500Y-5599000D02*
G75*
G03*
X25401500Y-5599000I-40000J0D01*
G01*
X25401500Y-5853000D02*
G75*
G03*
X25401500Y-5853000I-40000J0D01*
G01*
X25401500Y-6107000D02*
G75*
G03*
X25401500Y-6107000I-40000J0D01*
G01*
X25401500Y-6361000D02*
G75*
G03*
X25401500Y-6361000I-40000J0D01*
G01*
X25401500Y-6615000D02*
G75*
G03*
X25401500Y-6615000I-40000J0D01*
G01*
X25401500Y-6869000D02*
G75*
G03*
X25401500Y-6869000I-40000J0D01*
G01*
X25401500Y-7123000D02*
G75*
G03*
X25401500Y-7123000I-40000J0D01*
G01*
X25401500Y-7377000D02*
G75*
G03*
X25401500Y-7377000I-40000J0D01*
G01*
X25401500Y-7631000D02*
G75*
G03*
X25401500Y-7631000I-40000J0D01*
G01*
X25401500Y-7885000D02*
G75*
G03*
X25401500Y-7885000I-40000J0D01*
G01*
X25401500Y-8139000D02*
G75*
G03*
X25401500Y-8139000I-40000J0D01*
G01*
X25401500Y-8393000D02*
G75*
G03*
X25401500Y-8393000I-40000J0D01*
G01*
X25401500Y-8647000D02*
G75*
G03*
X25401500Y-8647000I-40000J0D01*
G01*
X25401500Y-8901000D02*
G75*
G03*
X25401500Y-8901000I-40000J0D01*
G01*
X25401500Y-9155000D02*
G75*
G03*
X25401500Y-9155000I-40000J0D01*
G01*
X25463500Y-9941000D02*
G75*
G03*
X25463500Y-9941000I-40000J0D01*
G01*
X25463500Y-10703000D02*
G75*
G03*
X25463500Y-10703000I-40000J0D01*
G01*
X25680270Y-13209730D02*
G75*
G03*
X25680270Y-13209730I-40000J0D01*
G01*
X25680270Y-14350000D02*
G75*
G03*
X25680270Y-14350000I-40000J0D01*
G01*
X25680270Y-15450000D02*
G75*
G03*
X25680270Y-15450000I-40000J0D01*
G01*
X25801500Y-4845000D02*
G75*
G03*
X25801500Y-4845000I-40000J0D01*
G01*
X25801500Y-5861000D02*
G75*
G03*
X25801500Y-5861000I-40000J0D01*
G01*
X25951500Y-9845000D02*
G75*
G03*
X25951500Y-9845000I-40000J0D01*
G01*
X25951500Y-10861000D02*
G75*
G03*
X25951500Y-10861000I-40000J0D01*
G01*
X26172500Y-12164710D02*
G75*
G03*
X26172500Y-12164710I-40000J0D01*
G01*
X26172500Y-13180710D02*
G75*
G03*
X26172500Y-13180710I-40000J0D01*
G01*
D13*
X25428500Y-12127710D02*
X25428500Y-12217710D01*
X25383500Y-12172710D02*
X25473500Y-12172710D01*
X25682500Y-12127710D02*
X25682500Y-12217710D01*
X25637500Y-12172710D02*
X25727500Y-12172710D01*
D14*
X6715356Y-5607356D02*
X6715356Y-5536644D01*
X6644644Y-5536644D01*
X6644644Y-5607356D01*
X6715356Y-5607356D01*
X6715356Y-5861356D02*
X6715356Y-5790644D01*
X6644644Y-5790644D01*
X6644644Y-5861356D01*
X6715356Y-5861356D01*
X6715356Y-6115356D02*
X6715356Y-6044644D01*
X6644644Y-6044644D01*
X6644644Y-6115356D01*
X6715356Y-6115356D01*
X6718356Y-9036356D02*
X6718356Y-8965644D01*
X6647644Y-8965644D01*
X6647644Y-9036356D01*
X6718356Y-9036356D01*
X6955356Y-13035356D02*
X6955356Y-12964644D01*
X6884644Y-12964644D01*
X6884644Y-13035356D01*
X6955356Y-13035356D01*
X6955356Y-15535356D02*
X6955356Y-15464644D01*
X6884644Y-15464644D01*
X6884644Y-15535356D01*
X6955356Y-15535356D01*
X7209356Y-13035356D02*
X7209356Y-12964644D01*
X7138644Y-12964644D01*
X7138644Y-13035356D01*
X7209356Y-13035356D01*
X7209356Y-15535356D02*
X7209356Y-15464644D01*
X7138644Y-15464644D01*
X7138644Y-15535356D01*
X7209356Y-15535356D01*
X7226356Y-9036356D02*
X7226356Y-8965644D01*
X7155644Y-8965644D01*
X7155644Y-9036356D01*
X7226356Y-9036356D01*
X7339356Y-3627356D02*
X7339356Y-3556644D01*
X7268644Y-3556644D01*
X7268644Y-3627356D01*
X7339356Y-3627356D01*
X7339356Y-4135356D02*
X7339356Y-4064644D01*
X7268644Y-4064644D01*
X7268644Y-4135356D01*
X7339356Y-4135356D01*
X7463356Y-13035356D02*
X7463356Y-12964644D01*
X7392644Y-12964644D01*
X7392644Y-13035356D01*
X7463356Y-13035356D01*
X7463356Y-15535356D02*
X7463356Y-15464644D01*
X7392644Y-15464644D01*
X7392644Y-15535356D01*
X7463356Y-15535356D01*
X7477356Y-5047356D02*
X7477356Y-4976644D01*
X7406644Y-4976644D01*
X7406644Y-5047356D01*
X7477356Y-5047356D01*
X7689356Y-3631356D02*
X7689356Y-3560644D01*
X7618644Y-3560644D01*
X7618644Y-3631356D01*
X7689356Y-3631356D01*
X7689356Y-4139356D02*
X7689356Y-4068644D01*
X7618644Y-4068644D01*
X7618644Y-4139356D01*
X7689356Y-4139356D01*
X7717356Y-13035356D02*
X7717356Y-12964644D01*
X7646644Y-12964644D01*
X7646644Y-13035356D01*
X7717356Y-13035356D01*
X7717356Y-15535356D02*
X7717356Y-15464644D01*
X7646644Y-15464644D01*
X7646644Y-15535356D01*
X7717356Y-15535356D01*
X7731356Y-5047356D02*
X7731356Y-4976644D01*
X7660644Y-4976644D01*
X7660644Y-5047356D01*
X7731356Y-5047356D01*
X7971356Y-13035356D02*
X7971356Y-12964644D01*
X7900644Y-12964644D01*
X7900644Y-13035356D01*
X7971356Y-13035356D01*
X7971356Y-15535356D02*
X7971356Y-15464644D01*
X7900644Y-15464644D01*
X7900644Y-15535356D01*
X7971356Y-15535356D01*
X7985356Y-5047356D02*
X7985356Y-4976644D01*
X7914644Y-4976644D01*
X7914644Y-5047356D01*
X7985356Y-5047356D01*
X8039356Y-3635356D02*
X8039356Y-3564644D01*
X7968644Y-3564644D01*
X7968644Y-3635356D01*
X8039356Y-3635356D01*
X8039356Y-4143356D02*
X8039356Y-4072644D01*
X7968644Y-4072644D01*
X7968644Y-4143356D01*
X8039356Y-4143356D01*
X8225356Y-13035356D02*
X8225356Y-12964644D01*
X8154644Y-12964644D01*
X8154644Y-13035356D01*
X8225356Y-13035356D01*
X8225356Y-15535356D02*
X8225356Y-15464644D01*
X8154644Y-15464644D01*
X8154644Y-15535356D01*
X8225356Y-15535356D01*
X8239356Y-5047356D02*
X8239356Y-4976644D01*
X8168644Y-4976644D01*
X8168644Y-5047356D01*
X8239356Y-5047356D01*
X8389356Y-3631356D02*
X8389356Y-3560644D01*
X8318644Y-3560644D01*
X8318644Y-3631356D01*
X8389356Y-3631356D01*
X8389356Y-4139356D02*
X8389356Y-4068644D01*
X8318644Y-4068644D01*
X8318644Y-4139356D01*
X8389356Y-4139356D01*
X8479356Y-13035356D02*
X8479356Y-12964644D01*
X8408644Y-12964644D01*
X8408644Y-13035356D01*
X8479356Y-13035356D01*
X8479356Y-15535356D02*
X8479356Y-15464644D01*
X8408644Y-15464644D01*
X8408644Y-15535356D01*
X8479356Y-15535356D01*
X8493356Y-5047356D02*
X8493356Y-4976644D01*
X8422644Y-4976644D01*
X8422644Y-5047356D01*
X8493356Y-5047356D01*
X8653356Y-14277356D02*
X8653356Y-14206644D01*
X8582644Y-14206644D01*
X8582644Y-14277356D01*
X8653356Y-14277356D01*
X8653356Y-14785356D02*
X8653356Y-14714644D01*
X8582644Y-14714644D01*
X8582644Y-14785356D01*
X8653356Y-14785356D01*
X8733356Y-13035356D02*
X8733356Y-12964644D01*
X8662644Y-12964644D01*
X8662644Y-13035356D01*
X8733356Y-13035356D01*
X8733356Y-15535356D02*
X8733356Y-15464644D01*
X8662644Y-15464644D01*
X8662644Y-15535356D01*
X8733356Y-15535356D01*
X8747356Y-5047356D02*
X8747356Y-4976644D01*
X8676644Y-4976644D01*
X8676644Y-5047356D01*
X8747356Y-5047356D01*
X8987356Y-13035356D02*
X8987356Y-12964644D01*
X8916644Y-12964644D01*
X8916644Y-13035356D01*
X8987356Y-13035356D01*
X8987356Y-15535356D02*
X8987356Y-15464644D01*
X8916644Y-15464644D01*
X8916644Y-15535356D01*
X8987356Y-15535356D01*
X9001356Y-5047356D02*
X9001356Y-4976644D01*
X8930644Y-4976644D01*
X8930644Y-5047356D01*
X9001356Y-5047356D01*
X9068356Y-14277356D02*
X9068356Y-14206644D01*
X8997644Y-14206644D01*
X8997644Y-14277356D01*
X9068356Y-14277356D01*
X9068356Y-14785356D02*
X9068356Y-14714644D01*
X8997644Y-14714644D01*
X8997644Y-14785356D01*
X9068356Y-14785356D01*
X9241356Y-13035356D02*
X9241356Y-12964644D01*
X9170644Y-12964644D01*
X9170644Y-13035356D01*
X9241356Y-13035356D01*
X9241356Y-15535356D02*
X9241356Y-15464644D01*
X9170644Y-15464644D01*
X9170644Y-15535356D01*
X9241356Y-15535356D01*
X9255356Y-5047356D02*
X9255356Y-4976644D01*
X9184644Y-4976644D01*
X9184644Y-5047356D01*
X9255356Y-5047356D01*
X9468356Y-14277356D02*
X9468356Y-14206644D01*
X9397644Y-14206644D01*
X9397644Y-14277356D01*
X9468356Y-14277356D01*
X9468356Y-14785356D02*
X9468356Y-14714644D01*
X9397644Y-14714644D01*
X9397644Y-14785356D01*
X9468356Y-14785356D01*
X9495356Y-13035356D02*
X9495356Y-12964644D01*
X9424644Y-12964644D01*
X9424644Y-13035356D01*
X9495356Y-13035356D01*
X9495356Y-15535356D02*
X9495356Y-15464644D01*
X9424644Y-15464644D01*
X9424644Y-15535356D01*
X9495356Y-15535356D01*
X9685356Y-5039356D02*
X9685356Y-4968644D01*
X9614644Y-4968644D01*
X9614644Y-5039356D01*
X9685356Y-5039356D01*
X9685356Y-5547356D02*
X9685356Y-5476644D01*
X9614644Y-5476644D01*
X9614644Y-5547356D01*
X9685356Y-5547356D01*
X9749356Y-13035356D02*
X9749356Y-12964644D01*
X9678644Y-12964644D01*
X9678644Y-13035356D01*
X9749356Y-13035356D01*
X9749356Y-15535356D02*
X9749356Y-15464644D01*
X9678644Y-15464644D01*
X9678644Y-15535356D01*
X9749356Y-15535356D01*
X10003356Y-13035356D02*
X10003356Y-12964644D01*
X9932644Y-12964644D01*
X9932644Y-13035356D01*
X10003356Y-13035356D01*
X10003356Y-15535356D02*
X10003356Y-15464644D01*
X9932644Y-15464644D01*
X9932644Y-15535356D01*
X10003356Y-15535356D01*
X10257356Y-13035356D02*
X10257356Y-12964644D01*
X10186644Y-12964644D01*
X10186644Y-13035356D01*
X10257356Y-13035356D01*
X10257356Y-15535356D02*
X10257356Y-15464644D01*
X10186644Y-15464644D01*
X10186644Y-15535356D01*
X10257356Y-15535356D01*
X10468356Y-13685356D02*
X10468356Y-13614644D01*
X10397644Y-13614644D01*
X10397644Y-13685356D01*
X10468356Y-13685356D01*
X10511356Y-13035356D02*
X10511356Y-12964644D01*
X10440644Y-12964644D01*
X10440644Y-13035356D01*
X10511356Y-13035356D01*
X10511356Y-15535356D02*
X10511356Y-15464644D01*
X10440644Y-15464644D01*
X10440644Y-15535356D01*
X10511356Y-15535356D01*
X10765356Y-13035356D02*
X10765356Y-12964644D01*
X10694644Y-12964644D01*
X10694644Y-13035356D01*
X10765356Y-13035356D01*
X10765356Y-15535356D02*
X10765356Y-15464644D01*
X10694644Y-15464644D01*
X10694644Y-15535356D01*
X10765356Y-15535356D01*
X10976356Y-13685356D02*
X10976356Y-13614644D01*
X10905644Y-13614644D01*
X10905644Y-13685356D01*
X10976356Y-13685356D01*
X11019356Y-13035356D02*
X11019356Y-12964644D01*
X10948644Y-12964644D01*
X10948644Y-13035356D01*
X11019356Y-13035356D01*
X11019356Y-15535356D02*
X11019356Y-15464644D01*
X10948644Y-15464644D01*
X10948644Y-15535356D01*
X11019356Y-15535356D01*
X11273356Y-13035356D02*
X11273356Y-12964644D01*
X11202644Y-12964644D01*
X11202644Y-13035356D01*
X11273356Y-13035356D01*
X11273356Y-15535356D02*
X11273356Y-15464644D01*
X11202644Y-15464644D01*
X11202644Y-15535356D01*
X11273356Y-15535356D01*
X11527356Y-13035356D02*
X11527356Y-12964644D01*
X11456644Y-12964644D01*
X11456644Y-13035356D01*
X11527356Y-13035356D01*
X11527356Y-15535356D02*
X11527356Y-15464644D01*
X11456644Y-15464644D01*
X11456644Y-15535356D01*
X11527356Y-15535356D01*
X11781356Y-5481356D02*
X11781356Y-5410644D01*
X11710644Y-5410644D01*
X11710644Y-5481356D01*
X11781356Y-5481356D01*
X11781356Y-5735356D02*
X11781356Y-5664644D01*
X11710644Y-5664644D01*
X11710644Y-5735356D01*
X11781356Y-5735356D01*
X11781356Y-5989356D02*
X11781356Y-5918644D01*
X11710644Y-5918644D01*
X11710644Y-5989356D01*
X11781356Y-5989356D01*
X11781356Y-6243356D02*
X11781356Y-6172644D01*
X11710644Y-6172644D01*
X11710644Y-6243356D01*
X11781356Y-6243356D01*
X11781356Y-6497356D02*
X11781356Y-6426644D01*
X11710644Y-6426644D01*
X11710644Y-6497356D01*
X11781356Y-6497356D01*
X11781356Y-6751356D02*
X11781356Y-6680644D01*
X11710644Y-6680644D01*
X11710644Y-6751356D01*
X11781356Y-6751356D01*
X11781356Y-7005356D02*
X11781356Y-6934644D01*
X11710644Y-6934644D01*
X11710644Y-7005356D01*
X11781356Y-7005356D01*
X11781356Y-7259356D02*
X11781356Y-7188644D01*
X11710644Y-7188644D01*
X11710644Y-7259356D01*
X11781356Y-7259356D01*
X11781356Y-7513356D02*
X11781356Y-7442644D01*
X11710644Y-7442644D01*
X11710644Y-7513356D01*
X11781356Y-7513356D01*
X11781356Y-7767356D02*
X11781356Y-7696644D01*
X11710644Y-7696644D01*
X11710644Y-7767356D01*
X11781356Y-7767356D01*
X11781356Y-8021356D02*
X11781356Y-7950644D01*
X11710644Y-7950644D01*
X11710644Y-8021356D01*
X11781356Y-8021356D01*
X11781356Y-8275356D02*
X11781356Y-8204644D01*
X11710644Y-8204644D01*
X11710644Y-8275356D01*
X11781356Y-8275356D01*
X11781356Y-8529356D02*
X11781356Y-8458644D01*
X11710644Y-8458644D01*
X11710644Y-8529356D01*
X11781356Y-8529356D01*
X11781356Y-8783356D02*
X11781356Y-8712644D01*
X11710644Y-8712644D01*
X11710644Y-8783356D01*
X11781356Y-8783356D01*
X11781356Y-9037356D02*
X11781356Y-8966644D01*
X11710644Y-8966644D01*
X11710644Y-9037356D01*
X11781356Y-9037356D01*
X11781356Y-9291356D02*
X11781356Y-9220644D01*
X11710644Y-9220644D01*
X11710644Y-9291356D01*
X11781356Y-9291356D01*
X11781356Y-13035356D02*
X11781356Y-12964644D01*
X11710644Y-12964644D01*
X11710644Y-13035356D01*
X11781356Y-13035356D01*
X11781356Y-15535356D02*
X11781356Y-15464644D01*
X11710644Y-15464644D01*
X11710644Y-15535356D01*
X11781356Y-15535356D01*
X12035356Y-5481356D02*
X12035356Y-5410644D01*
X11964644Y-5410644D01*
X11964644Y-5481356D01*
X12035356Y-5481356D01*
X12035356Y-5735356D02*
X12035356Y-5664644D01*
X11964644Y-5664644D01*
X11964644Y-5735356D01*
X12035356Y-5735356D01*
X12035356Y-5989356D02*
X12035356Y-5918644D01*
X11964644Y-5918644D01*
X11964644Y-5989356D01*
X12035356Y-5989356D01*
X12035356Y-6243356D02*
X12035356Y-6172644D01*
X11964644Y-6172644D01*
X11964644Y-6243356D01*
X12035356Y-6243356D01*
X12035356Y-6497356D02*
X12035356Y-6426644D01*
X11964644Y-6426644D01*
X11964644Y-6497356D01*
X12035356Y-6497356D01*
X12035356Y-6751356D02*
X12035356Y-6680644D01*
X11964644Y-6680644D01*
X11964644Y-6751356D01*
X12035356Y-6751356D01*
X12035356Y-7005356D02*
X12035356Y-6934644D01*
X11964644Y-6934644D01*
X11964644Y-7005356D01*
X12035356Y-7005356D01*
X12035356Y-7259356D02*
X12035356Y-7188644D01*
X11964644Y-7188644D01*
X11964644Y-7259356D01*
X12035356Y-7259356D01*
X12035356Y-7513356D02*
X12035356Y-7442644D01*
X11964644Y-7442644D01*
X11964644Y-7513356D01*
X12035356Y-7513356D01*
X12035356Y-7767356D02*
X12035356Y-7696644D01*
X11964644Y-7696644D01*
X11964644Y-7767356D01*
X12035356Y-7767356D01*
X12035356Y-8021356D02*
X12035356Y-7950644D01*
X11964644Y-7950644D01*
X11964644Y-8021356D01*
X12035356Y-8021356D01*
X12035356Y-8275356D02*
X12035356Y-8204644D01*
X11964644Y-8204644D01*
X11964644Y-8275356D01*
X12035356Y-8275356D01*
X12035356Y-8529356D02*
X12035356Y-8458644D01*
X11964644Y-8458644D01*
X11964644Y-8529356D01*
X12035356Y-8529356D01*
X12035356Y-8783356D02*
X12035356Y-8712644D01*
X11964644Y-8712644D01*
X11964644Y-8783356D01*
X12035356Y-8783356D01*
X12035356Y-9037356D02*
X12035356Y-8966644D01*
X11964644Y-8966644D01*
X11964644Y-9037356D01*
X12035356Y-9037356D01*
X12035356Y-9291356D02*
X12035356Y-9220644D01*
X11964644Y-9220644D01*
X11964644Y-9291356D01*
X12035356Y-9291356D01*
X12035356Y-13035356D02*
X12035356Y-12964644D01*
X11964644Y-12964644D01*
X11964644Y-13035356D01*
X12035356Y-13035356D01*
X12035356Y-15535356D02*
X12035356Y-15464644D01*
X11964644Y-15464644D01*
X11964644Y-15535356D01*
X12035356Y-15535356D01*
X12919356Y-15535356D02*
X12919356Y-15464644D01*
X12848644Y-15464644D01*
X12848644Y-15535356D01*
X12919356Y-15535356D01*
X13173356Y-15535356D02*
X13173356Y-15464644D01*
X13102644Y-15464644D01*
X13102644Y-15535356D01*
X13173356Y-15535356D01*
X13353356Y-6697356D02*
X13353356Y-6626644D01*
X13282644Y-6626644D01*
X13282644Y-6697356D01*
X13353356Y-6697356D01*
X13427356Y-15535356D02*
X13427356Y-15464644D01*
X13356644Y-15464644D01*
X13356644Y-15535356D01*
X13427356Y-15535356D01*
X13607356Y-6697356D02*
X13607356Y-6626644D01*
X13536644Y-6626644D01*
X13536644Y-6697356D01*
X13607356Y-6697356D01*
X13681356Y-15535356D02*
X13681356Y-15464644D01*
X13610644Y-15464644D01*
X13610644Y-15535356D01*
X13681356Y-15535356D01*
X13861356Y-6697356D02*
X13861356Y-6626644D01*
X13790644Y-6626644D01*
X13790644Y-6697356D01*
X13861356Y-6697356D01*
X13935356Y-15535356D02*
X13935356Y-15464644D01*
X13864644Y-15464644D01*
X13864644Y-15535356D01*
X13935356Y-15535356D01*
X14115356Y-6697356D02*
X14115356Y-6626644D01*
X14044644Y-6626644D01*
X14044644Y-6697356D01*
X14115356Y-6697356D01*
X14189356Y-15535356D02*
X14189356Y-15464644D01*
X14118644Y-15464644D01*
X14118644Y-15535356D01*
X14189356Y-15535356D01*
X14265356Y-4135356D02*
X14265356Y-4064644D01*
X14194644Y-4064644D01*
X14194644Y-4135356D01*
X14265356Y-4135356D01*
X14369356Y-6697356D02*
X14369356Y-6626644D01*
X14298644Y-6626644D01*
X14298644Y-6697356D01*
X14369356Y-6697356D01*
X14519356Y-4135356D02*
X14519356Y-4064644D01*
X14448644Y-4064644D01*
X14448644Y-4135356D01*
X14519356Y-4135356D01*
X14623356Y-6697356D02*
X14623356Y-6626644D01*
X14552644Y-6626644D01*
X14552644Y-6697356D01*
X14623356Y-6697356D01*
X14773356Y-4135356D02*
X14773356Y-4064644D01*
X14702644Y-4064644D01*
X14702644Y-4135356D01*
X14773356Y-4135356D01*
X14877356Y-6697356D02*
X14877356Y-6626644D01*
X14806644Y-6626644D01*
X14806644Y-6697356D01*
X14877356Y-6697356D01*
X15027356Y-4135356D02*
X15027356Y-4064644D01*
X14956644Y-4064644D01*
X14956644Y-4135356D01*
X15027356Y-4135356D01*
X15063356Y-3435356D02*
X15063356Y-3364644D01*
X14992644Y-3364644D01*
X14992644Y-3435356D01*
X15063356Y-3435356D01*
X15131356Y-6697356D02*
X15131356Y-6626644D01*
X15060644Y-6626644D01*
X15060644Y-6697356D01*
X15131356Y-6697356D01*
X15281356Y-4135356D02*
X15281356Y-4064644D01*
X15210644Y-4064644D01*
X15210644Y-4135356D01*
X15281356Y-4135356D01*
X15317356Y-3435356D02*
X15317356Y-3364644D01*
X15246644Y-3364644D01*
X15246644Y-3435356D01*
X15317356Y-3435356D01*
X15535356Y-4135356D02*
X15535356Y-4064644D01*
X15464644Y-4064644D01*
X15464644Y-4135356D01*
X15535356Y-4135356D01*
X15571356Y-3435356D02*
X15571356Y-3364644D01*
X15500644Y-3364644D01*
X15500644Y-3435356D01*
X15571356Y-3435356D01*
X15789356Y-4135356D02*
X15789356Y-4064644D01*
X15718644Y-4064644D01*
X15718644Y-4135356D01*
X15789356Y-4135356D01*
X15825356Y-3435356D02*
X15825356Y-3364644D01*
X15754644Y-3364644D01*
X15754644Y-3435356D01*
X15825356Y-3435356D01*
X16043356Y-4135356D02*
X16043356Y-4064644D01*
X15972644Y-4064644D01*
X15972644Y-4135356D01*
X16043356Y-4135356D01*
X16079356Y-3435356D02*
X16079356Y-3364644D01*
X16008644Y-3364644D01*
X16008644Y-3435356D01*
X16079356Y-3435356D01*
X16333356Y-3435356D02*
X16333356Y-3364644D01*
X16262644Y-3364644D01*
X16262644Y-3435356D01*
X16333356Y-3435356D01*
X16587356Y-3435356D02*
X16587356Y-3364644D01*
X16516644Y-3364644D01*
X16516644Y-3435356D01*
X16587356Y-3435356D01*
X16841356Y-3435356D02*
X16841356Y-3364644D01*
X16770644Y-3364644D01*
X16770644Y-3435356D01*
X16841356Y-3435356D01*
X17095356Y-3435356D02*
X17095356Y-3364644D01*
X17024644Y-3364644D01*
X17024644Y-3435356D01*
X17095356Y-3435356D01*
X17291356Y-6623356D02*
X17291356Y-6552644D01*
X17220644Y-6552644D01*
X17220644Y-6623356D01*
X17291356Y-6623356D01*
X17349356Y-3435356D02*
X17349356Y-3364644D01*
X17278644Y-3364644D01*
X17278644Y-3435356D01*
X17349356Y-3435356D01*
X17545356Y-6623356D02*
X17545356Y-6552644D01*
X17474644Y-6552644D01*
X17474644Y-6623356D01*
X17545356Y-6623356D01*
X17603356Y-3435356D02*
X17603356Y-3364644D01*
X17532644Y-3364644D01*
X17532644Y-3435356D01*
X17603356Y-3435356D01*
X17799356Y-6623356D02*
X17799356Y-6552644D01*
X17728644Y-6552644D01*
X17728644Y-6623356D01*
X17799356Y-6623356D01*
X17857356Y-3435356D02*
X17857356Y-3364644D01*
X17786644Y-3364644D01*
X17786644Y-3435356D01*
X17857356Y-3435356D01*
X18053356Y-6623356D02*
X18053356Y-6552644D01*
X17982644Y-6552644D01*
X17982644Y-6623356D01*
X18053356Y-6623356D01*
X18111356Y-3435356D02*
X18111356Y-3364644D01*
X18040644Y-3364644D01*
X18040644Y-3435356D01*
X18111356Y-3435356D01*
X18307356Y-6623356D02*
X18307356Y-6552644D01*
X18236644Y-6552644D01*
X18236644Y-6623356D01*
X18307356Y-6623356D01*
X18365356Y-3435356D02*
X18365356Y-3364644D01*
X18294644Y-3364644D01*
X18294644Y-3435356D01*
X18365356Y-3435356D01*
X18561356Y-6623356D02*
X18561356Y-6552644D01*
X18490644Y-6552644D01*
X18490644Y-6623356D01*
X18561356Y-6623356D01*
X18619356Y-3435356D02*
X18619356Y-3364644D01*
X18548644Y-3364644D01*
X18548644Y-3435356D01*
X18619356Y-3435356D01*
X18815356Y-6623356D02*
X18815356Y-6552644D01*
X18744644Y-6552644D01*
X18744644Y-6623356D01*
X18815356Y-6623356D01*
X18873356Y-3435356D02*
X18873356Y-3364644D01*
X18802644Y-3364644D01*
X18802644Y-3435356D01*
X18873356Y-3435356D01*
X19069356Y-6623356D02*
X19069356Y-6552644D01*
X18998644Y-6552644D01*
X18998644Y-6623356D01*
X19069356Y-6623356D01*
X19127356Y-3435356D02*
X19127356Y-3364644D01*
X19056644Y-3364644D01*
X19056644Y-3435356D01*
X19127356Y-3435356D01*
X19381356Y-3435356D02*
X19381356Y-3364644D01*
X19310644Y-3364644D01*
X19310644Y-3435356D01*
X19381356Y-3435356D01*
X19635356Y-3435356D02*
X19635356Y-3364644D01*
X19564644Y-3364644D01*
X19564644Y-3435356D01*
X19635356Y-3435356D01*
X19889356Y-3435356D02*
X19889356Y-3364644D01*
X19818644Y-3364644D01*
X19818644Y-3435356D01*
X19889356Y-3435356D01*
X20143356Y-3435356D02*
X20143356Y-3364644D01*
X20072644Y-3364644D01*
X20072644Y-3435356D01*
X20143356Y-3435356D01*
X20397356Y-3435356D02*
X20397356Y-3364644D01*
X20326644Y-3364644D01*
X20326644Y-3435356D01*
X20397356Y-3435356D01*
X20651356Y-3435356D02*
X20651356Y-3364644D01*
X20580644Y-3364644D01*
X20580644Y-3435356D01*
X20651356Y-3435356D01*
X20831356Y-5481356D02*
X20831356Y-5410644D01*
X20760644Y-5410644D01*
X20760644Y-5481356D01*
X20831356Y-5481356D01*
X20831356Y-5735356D02*
X20831356Y-5664644D01*
X20760644Y-5664644D01*
X20760644Y-5735356D01*
X20831356Y-5735356D01*
X20831356Y-5989356D02*
X20831356Y-5918644D01*
X20760644Y-5918644D01*
X20760644Y-5989356D01*
X20831356Y-5989356D01*
X20831356Y-6243356D02*
X20831356Y-6172644D01*
X20760644Y-6172644D01*
X20760644Y-6243356D01*
X20831356Y-6243356D01*
X20831356Y-6497356D02*
X20831356Y-6426644D01*
X20760644Y-6426644D01*
X20760644Y-6497356D01*
X20831356Y-6497356D01*
X20831356Y-6751356D02*
X20831356Y-6680644D01*
X20760644Y-6680644D01*
X20760644Y-6751356D01*
X20831356Y-6751356D01*
X20831356Y-7005356D02*
X20831356Y-6934644D01*
X20760644Y-6934644D01*
X20760644Y-7005356D01*
X20831356Y-7005356D01*
X20831356Y-7259356D02*
X20831356Y-7188644D01*
X20760644Y-7188644D01*
X20760644Y-7259356D01*
X20831356Y-7259356D01*
X20831356Y-7513356D02*
X20831356Y-7442644D01*
X20760644Y-7442644D01*
X20760644Y-7513356D01*
X20831356Y-7513356D01*
X20831356Y-7767356D02*
X20831356Y-7696644D01*
X20760644Y-7696644D01*
X20760644Y-7767356D01*
X20831356Y-7767356D01*
X20831356Y-8021356D02*
X20831356Y-7950644D01*
X20760644Y-7950644D01*
X20760644Y-8021356D01*
X20831356Y-8021356D01*
X20831356Y-8275356D02*
X20831356Y-8204644D01*
X20760644Y-8204644D01*
X20760644Y-8275356D01*
X20831356Y-8275356D01*
X20831356Y-8529356D02*
X20831356Y-8458644D01*
X20760644Y-8458644D01*
X20760644Y-8529356D01*
X20831356Y-8529356D01*
X20831356Y-8783356D02*
X20831356Y-8712644D01*
X20760644Y-8712644D01*
X20760644Y-8783356D01*
X20831356Y-8783356D01*
X20831356Y-9037356D02*
X20831356Y-8966644D01*
X20760644Y-8966644D01*
X20760644Y-9037356D01*
X20831356Y-9037356D01*
X20831356Y-9291356D02*
X20831356Y-9220644D01*
X20760644Y-9220644D01*
X20760644Y-9291356D01*
X20831356Y-9291356D01*
X20905356Y-3435356D02*
X20905356Y-3364644D01*
X20834644Y-3364644D01*
X20834644Y-3435356D01*
X20905356Y-3435356D01*
X21085356Y-5481356D02*
X21085356Y-5410644D01*
X21014644Y-5410644D01*
X21014644Y-5481356D01*
X21085356Y-5481356D01*
X21085356Y-5735356D02*
X21085356Y-5664644D01*
X21014644Y-5664644D01*
X21014644Y-5735356D01*
X21085356Y-5735356D01*
X21085356Y-5989356D02*
X21085356Y-5918644D01*
X21014644Y-5918644D01*
X21014644Y-5989356D01*
X21085356Y-5989356D01*
X21085356Y-6243356D02*
X21085356Y-6172644D01*
X21014644Y-6172644D01*
X21014644Y-6243356D01*
X21085356Y-6243356D01*
X21085356Y-6497356D02*
X21085356Y-6426644D01*
X21014644Y-6426644D01*
X21014644Y-6497356D01*
X21085356Y-6497356D01*
X21085356Y-6751356D02*
X21085356Y-6680644D01*
X21014644Y-6680644D01*
X21014644Y-6751356D01*
X21085356Y-6751356D01*
X21085356Y-7005356D02*
X21085356Y-6934644D01*
X21014644Y-6934644D01*
X21014644Y-7005356D01*
X21085356Y-7005356D01*
X21085356Y-7259356D02*
X21085356Y-7188644D01*
X21014644Y-7188644D01*
X21014644Y-7259356D01*
X21085356Y-7259356D01*
X21085356Y-7513356D02*
X21085356Y-7442644D01*
X21014644Y-7442644D01*
X21014644Y-7513356D01*
X21085356Y-7513356D01*
X21085356Y-7767356D02*
X21085356Y-7696644D01*
X21014644Y-7696644D01*
X21014644Y-7767356D01*
X21085356Y-7767356D01*
X21085356Y-8021356D02*
X21085356Y-7950644D01*
X21014644Y-7950644D01*
X21014644Y-8021356D01*
X21085356Y-8021356D01*
X21085356Y-8275356D02*
X21085356Y-8204644D01*
X21014644Y-8204644D01*
X21014644Y-8275356D01*
X21085356Y-8275356D01*
X21085356Y-8529356D02*
X21085356Y-8458644D01*
X21014644Y-8458644D01*
X21014644Y-8529356D01*
X21085356Y-8529356D01*
X21085356Y-8783356D02*
X21085356Y-8712644D01*
X21014644Y-8712644D01*
X21014644Y-8783356D01*
X21085356Y-8783356D01*
X21085356Y-9037356D02*
X21085356Y-8966644D01*
X21014644Y-8966644D01*
X21014644Y-9037356D01*
X21085356Y-9037356D01*
X21085356Y-9291356D02*
X21085356Y-9220644D01*
X21014644Y-9220644D01*
X21014644Y-9291356D01*
X21085356Y-9291356D01*
X21125356Y-13477356D02*
X21125356Y-13406644D01*
X21054644Y-13406644D01*
X21054644Y-13477356D01*
X21125356Y-13477356D01*
X21159356Y-3435356D02*
X21159356Y-3364644D01*
X21088644Y-3364644D01*
X21088644Y-3435356D01*
X21159356Y-3435356D01*
X21379356Y-13477356D02*
X21379356Y-13406644D01*
X21308644Y-13406644D01*
X21308644Y-13477356D01*
X21379356Y-13477356D01*
X21413356Y-3435356D02*
X21413356Y-3364644D01*
X21342644Y-3364644D01*
X21342644Y-3435356D01*
X21413356Y-3435356D01*
X21633356Y-13477356D02*
X21633356Y-13406644D01*
X21562644Y-13406644D01*
X21562644Y-13477356D01*
X21633356Y-13477356D01*
X21667356Y-3435356D02*
X21667356Y-3364644D01*
X21596644Y-3364644D01*
X21596644Y-3435356D01*
X21667356Y-3435356D01*
X21887356Y-13477356D02*
X21887356Y-13406644D01*
X21816644Y-13406644D01*
X21816644Y-13477356D01*
X21887356Y-13477356D01*
X21921356Y-3435356D02*
X21921356Y-3364644D01*
X21850644Y-3364644D01*
X21850644Y-3435356D01*
X21921356Y-3435356D01*
X22141356Y-13477356D02*
X22141356Y-13406644D01*
X22070644Y-13406644D01*
X22070644Y-13477356D01*
X22141356Y-13477356D01*
X22175356Y-3435356D02*
X22175356Y-3364644D01*
X22104644Y-3364644D01*
X22104644Y-3435356D01*
X22175356Y-3435356D01*
X22395356Y-13477356D02*
X22395356Y-13406644D01*
X22324644Y-13406644D01*
X22324644Y-13477356D01*
X22395356Y-13477356D01*
X22429356Y-3435356D02*
X22429356Y-3364644D01*
X22358644Y-3364644D01*
X22358644Y-3435356D01*
X22429356Y-3435356D01*
X22649356Y-13477356D02*
X22649356Y-13406644D01*
X22578644Y-13406644D01*
X22578644Y-13477356D01*
X22649356Y-13477356D01*
X22683356Y-3435356D02*
X22683356Y-3364644D01*
X22612644Y-3364644D01*
X22612644Y-3435356D01*
X22683356Y-3435356D01*
X22903356Y-13477356D02*
X22903356Y-13406644D01*
X22832644Y-13406644D01*
X22832644Y-13477356D01*
X22903356Y-13477356D01*
X22937356Y-3435356D02*
X22937356Y-3364644D01*
X22866644Y-3364644D01*
X22866644Y-3435356D01*
X22937356Y-3435356D01*
X23191356Y-3435356D02*
X23191356Y-3364644D01*
X23120644Y-3364644D01*
X23120644Y-3435356D01*
X23191356Y-3435356D01*
X23445356Y-3435356D02*
X23445356Y-3364644D01*
X23374644Y-3364644D01*
X23374644Y-3435356D01*
X23445356Y-3435356D01*
X23499356Y-12973356D02*
X23499356Y-12902644D01*
X23428644Y-12902644D01*
X23428644Y-12973356D01*
X23499356Y-12973356D01*
X23499356Y-13481356D02*
X23499356Y-13410644D01*
X23428644Y-13410644D01*
X23428644Y-13481356D01*
X23499356Y-13481356D01*
X23699356Y-3435356D02*
X23699356Y-3364644D01*
X23628644Y-3364644D01*
X23628644Y-3435356D01*
X23699356Y-3435356D01*
X23953356Y-3435356D02*
X23953356Y-3364644D01*
X23882644Y-3364644D01*
X23882644Y-3435356D01*
X23953356Y-3435356D01*
X24207356Y-3435356D02*
X24207356Y-3364644D01*
X24136644Y-3364644D01*
X24136644Y-3435356D01*
X24207356Y-3435356D01*
X24461356Y-3435356D02*
X24461356Y-3364644D01*
X24390644Y-3364644D01*
X24390644Y-3435356D01*
X24461356Y-3435356D01*
X24509856Y-12008066D02*
X24509856Y-11937354D01*
X24439144Y-11937354D01*
X24439144Y-12008066D01*
X24509856Y-12008066D01*
X24517856Y-12500066D02*
X24517856Y-12429354D01*
X24447144Y-12429354D01*
X24447144Y-12500066D01*
X24517856Y-12500066D01*
X24517856Y-12754066D02*
X24517856Y-12683354D01*
X24447144Y-12683354D01*
X24447144Y-12754066D01*
X24517856Y-12754066D01*
X24517856Y-13008066D02*
X24517856Y-12937354D01*
X24447144Y-12937354D01*
X24447144Y-13008066D01*
X24517856Y-13008066D01*
X24715356Y-3435356D02*
X24715356Y-3364644D01*
X24644644Y-3364644D01*
X24644644Y-3435356D01*
X24715356Y-3435356D01*
X24969356Y-3435356D02*
X24969356Y-3364644D01*
X24898644Y-3364644D01*
X24898644Y-3435356D01*
X24969356Y-3435356D01*
X25017856Y-12008066D02*
X25017856Y-11937354D01*
X24947144Y-11937354D01*
X24947144Y-12008066D01*
X25017856Y-12008066D01*
D11*
X6645119Y-16315024D02*
X6645119Y-16115024D01*
X6645119Y-16115024D02*
X6692738Y-16115024D01*
X6692738Y-16115024D02*
X6721309Y-16124548D01*
X6721309Y-16124548D02*
X6740357Y-16143595D01*
X6740357Y-16143595D02*
X6749881Y-16162643D01*
X6749881Y-16162643D02*
X6759405Y-16200738D01*
X6759405Y-16200738D02*
X6759405Y-16229309D01*
X6759405Y-16229309D02*
X6749881Y-16267405D01*
X6749881Y-16267405D02*
X6740357Y-16286452D01*
X6740357Y-16286452D02*
X6721309Y-16305500D01*
X6721309Y-16305500D02*
X6692738Y-16315024D01*
X6692738Y-16315024D02*
X6645119Y-16315024D01*
X6845119Y-16315024D02*
X6845119Y-16181690D01*
X6845119Y-16219786D02*
X6854643Y-16200738D01*
X6854643Y-16200738D02*
X6864167Y-16191214D01*
X6864167Y-16191214D02*
X6883214Y-16181690D01*
X6883214Y-16181690D02*
X6902262Y-16181690D01*
X6968928Y-16315024D02*
X6968928Y-16181690D01*
X6968928Y-16115024D02*
X6959405Y-16124548D01*
X6959405Y-16124548D02*
X6968928Y-16134071D01*
X6968928Y-16134071D02*
X6978452Y-16124548D01*
X6978452Y-16124548D02*
X6968928Y-16115024D01*
X6968928Y-16115024D02*
X6968928Y-16134071D01*
X7092738Y-16315024D02*
X7073690Y-16305500D01*
X7073690Y-16305500D02*
X7064167Y-16286452D01*
X7064167Y-16286452D02*
X7064167Y-16115024D01*
X7197500Y-16315024D02*
X7178452Y-16305500D01*
X7178452Y-16305500D02*
X7168928Y-16286452D01*
X7168928Y-16286452D02*
X7168928Y-16115024D01*
X7426071Y-16315024D02*
X7426071Y-16115024D01*
X7426071Y-16115024D02*
X7492738Y-16257881D01*
X7492738Y-16257881D02*
X7559405Y-16115024D01*
X7559405Y-16115024D02*
X7559405Y-16315024D01*
X7740357Y-16315024D02*
X7740357Y-16210262D01*
X7740357Y-16210262D02*
X7730833Y-16191214D01*
X7730833Y-16191214D02*
X7711786Y-16181690D01*
X7711786Y-16181690D02*
X7673690Y-16181690D01*
X7673690Y-16181690D02*
X7654643Y-16191214D01*
X7740357Y-16305500D02*
X7721309Y-16315024D01*
X7721309Y-16315024D02*
X7673690Y-16315024D01*
X7673690Y-16315024D02*
X7654643Y-16305500D01*
X7654643Y-16305500D02*
X7645119Y-16286452D01*
X7645119Y-16286452D02*
X7645119Y-16267405D01*
X7645119Y-16267405D02*
X7654643Y-16248357D01*
X7654643Y-16248357D02*
X7673690Y-16238833D01*
X7673690Y-16238833D02*
X7721309Y-16238833D01*
X7721309Y-16238833D02*
X7740357Y-16229309D01*
X7835595Y-16181690D02*
X7835595Y-16381690D01*
X7835595Y-16191214D02*
X7854643Y-16181690D01*
X7854643Y-16181690D02*
X7892738Y-16181690D01*
X7892738Y-16181690D02*
X7911786Y-16191214D01*
X7911786Y-16191214D02*
X7921309Y-16200738D01*
X7921309Y-16200738D02*
X7930833Y-16219786D01*
X7930833Y-16219786D02*
X7930833Y-16276928D01*
X7930833Y-16276928D02*
X7921309Y-16295976D01*
X7921309Y-16295976D02*
X7911786Y-16305500D01*
X7911786Y-16305500D02*
X7892738Y-16315024D01*
X7892738Y-16315024D02*
X7854643Y-16315024D01*
X7854643Y-16315024D02*
X7835595Y-16305500D01*
X8016548Y-16295976D02*
X8026071Y-16305500D01*
X8026071Y-16305500D02*
X8016548Y-16315024D01*
X8016548Y-16315024D02*
X8007024Y-16305500D01*
X8007024Y-16305500D02*
X8016548Y-16295976D01*
X8016548Y-16295976D02*
X8016548Y-16315024D01*
X8016548Y-16191214D02*
X8026071Y-16200738D01*
X8026071Y-16200738D02*
X8016548Y-16210262D01*
X8016548Y-16210262D02*
X8007024Y-16200738D01*
X8007024Y-16200738D02*
X8016548Y-16191214D01*
X8016548Y-16191214D02*
X8016548Y-16210262D01*
D10*
X6347500Y-16617500D02*
X6397500Y-16667500D01*
X6397500Y-16617500D02*
X6347500Y-16667500D01*
D11*
X6683214Y-16535024D02*
X6702262Y-16535024D01*
X6702262Y-16535024D02*
X6721309Y-16544548D01*
X6721309Y-16544548D02*
X6730833Y-16554071D01*
X6730833Y-16554071D02*
X6740357Y-16573119D01*
X6740357Y-16573119D02*
X6749881Y-16611214D01*
X6749881Y-16611214D02*
X6749881Y-16658833D01*
X6749881Y-16658833D02*
X6740357Y-16696928D01*
X6740357Y-16696928D02*
X6730833Y-16715976D01*
X6730833Y-16715976D02*
X6721309Y-16725500D01*
X6721309Y-16725500D02*
X6702262Y-16735024D01*
X6702262Y-16735024D02*
X6683214Y-16735024D01*
X6683214Y-16735024D02*
X6664167Y-16725500D01*
X6664167Y-16725500D02*
X6654643Y-16715976D01*
X6654643Y-16715976D02*
X6645119Y-16696928D01*
X6645119Y-16696928D02*
X6635595Y-16658833D01*
X6635595Y-16658833D02*
X6635595Y-16611214D01*
X6635595Y-16611214D02*
X6645119Y-16573119D01*
X6645119Y-16573119D02*
X6654643Y-16554071D01*
X6654643Y-16554071D02*
X6664167Y-16544548D01*
X6664167Y-16544548D02*
X6683214Y-16535024D01*
X6835595Y-16715976D02*
X6845119Y-16725500D01*
X6845119Y-16725500D02*
X6835595Y-16735024D01*
X6835595Y-16735024D02*
X6826071Y-16725500D01*
X6826071Y-16725500D02*
X6835595Y-16715976D01*
X6835595Y-16715976D02*
X6835595Y-16735024D01*
X7026071Y-16535024D02*
X6930833Y-16535024D01*
X6930833Y-16535024D02*
X6921309Y-16630262D01*
X6921309Y-16630262D02*
X6930833Y-16620738D01*
X6930833Y-16620738D02*
X6949881Y-16611214D01*
X6949881Y-16611214D02*
X6997500Y-16611214D01*
X6997500Y-16611214D02*
X7016548Y-16620738D01*
X7016548Y-16620738D02*
X7026071Y-16630262D01*
X7026071Y-16630262D02*
X7035595Y-16649309D01*
X7035595Y-16649309D02*
X7035595Y-16696928D01*
X7035595Y-16696928D02*
X7026071Y-16715976D01*
X7026071Y-16715976D02*
X7016548Y-16725500D01*
X7016548Y-16725500D02*
X6997500Y-16735024D01*
X6997500Y-16735024D02*
X6949881Y-16735024D01*
X6949881Y-16735024D02*
X6930833Y-16725500D01*
X6930833Y-16725500D02*
X6921309Y-16715976D01*
X7159405Y-16535024D02*
X7178452Y-16535024D01*
X7178452Y-16535024D02*
X7197500Y-16544548D01*
X7197500Y-16544548D02*
X7207024Y-16554071D01*
X7207024Y-16554071D02*
X7216548Y-16573119D01*
X7216548Y-16573119D02*
X7226071Y-16611214D01*
X7226071Y-16611214D02*
X7226071Y-16658833D01*
X7226071Y-16658833D02*
X7216548Y-16696928D01*
X7216548Y-16696928D02*
X7207024Y-16715976D01*
X7207024Y-16715976D02*
X7197500Y-16725500D01*
X7197500Y-16725500D02*
X7178452Y-16735024D01*
X7178452Y-16735024D02*
X7159405Y-16735024D01*
X7159405Y-16735024D02*
X7140357Y-16725500D01*
X7140357Y-16725500D02*
X7130833Y-16715976D01*
X7130833Y-16715976D02*
X7121309Y-16696928D01*
X7121309Y-16696928D02*
X7111786Y-16658833D01*
X7111786Y-16658833D02*
X7111786Y-16611214D01*
X7111786Y-16611214D02*
X7121309Y-16573119D01*
X7121309Y-16573119D02*
X7130833Y-16554071D01*
X7130833Y-16554071D02*
X7140357Y-16544548D01*
X7140357Y-16544548D02*
X7159405Y-16535024D01*
X7349881Y-16535024D02*
X7368929Y-16535024D01*
X7368929Y-16535024D02*
X7387976Y-16544548D01*
X7387976Y-16544548D02*
X7397500Y-16554071D01*
X7397500Y-16554071D02*
X7407024Y-16573119D01*
X7407024Y-16573119D02*
X7416548Y-16611214D01*
X7416548Y-16611214D02*
X7416548Y-16658833D01*
X7416548Y-16658833D02*
X7407024Y-16696928D01*
X7407024Y-16696928D02*
X7397500Y-16715976D01*
X7397500Y-16715976D02*
X7387976Y-16725500D01*
X7387976Y-16725500D02*
X7368929Y-16735024D01*
X7368929Y-16735024D02*
X7349881Y-16735024D01*
X7349881Y-16735024D02*
X7330833Y-16725500D01*
X7330833Y-16725500D02*
X7321309Y-16715976D01*
X7321309Y-16715976D02*
X7311786Y-16696928D01*
X7311786Y-16696928D02*
X7302262Y-16658833D01*
X7302262Y-16658833D02*
X7302262Y-16611214D01*
X7302262Y-16611214D02*
X7311786Y-16573119D01*
X7311786Y-16573119D02*
X7321309Y-16554071D01*
X7321309Y-16554071D02*
X7330833Y-16544548D01*
X7330833Y-16544548D02*
X7349881Y-16535024D01*
X7502262Y-16735024D02*
X7502262Y-16601690D01*
X7502262Y-16620738D02*
X7511786Y-16611214D01*
X7511786Y-16611214D02*
X7530833Y-16601690D01*
X7530833Y-16601690D02*
X7559405Y-16601690D01*
X7559405Y-16601690D02*
X7578452Y-16611214D01*
X7578452Y-16611214D02*
X7587976Y-16630262D01*
X7587976Y-16630262D02*
X7587976Y-16735024D01*
X7587976Y-16630262D02*
X7597500Y-16611214D01*
X7597500Y-16611214D02*
X7616548Y-16601690D01*
X7616548Y-16601690D02*
X7645119Y-16601690D01*
X7645119Y-16601690D02*
X7664167Y-16611214D01*
X7664167Y-16611214D02*
X7673690Y-16630262D01*
X7673690Y-16630262D02*
X7673690Y-16735024D01*
X7768929Y-16735024D02*
X7768929Y-16601690D01*
X7768929Y-16620738D02*
X7778452Y-16611214D01*
X7778452Y-16611214D02*
X7797500Y-16601690D01*
X7797500Y-16601690D02*
X7826071Y-16601690D01*
X7826071Y-16601690D02*
X7845119Y-16611214D01*
X7845119Y-16611214D02*
X7854643Y-16630262D01*
X7854643Y-16630262D02*
X7854643Y-16735024D01*
X7854643Y-16630262D02*
X7864167Y-16611214D01*
X7864167Y-16611214D02*
X7883214Y-16601690D01*
X7883214Y-16601690D02*
X7911786Y-16601690D01*
X7911786Y-16601690D02*
X7930833Y-16611214D01*
X7930833Y-16611214D02*
X7940357Y-16630262D01*
X7940357Y-16630262D02*
X7940357Y-16735024D01*
X8330833Y-16525500D02*
X8159405Y-16782643D01*
X8587976Y-16535024D02*
X8607024Y-16535024D01*
X8607024Y-16535024D02*
X8626072Y-16544548D01*
X8626072Y-16544548D02*
X8635595Y-16554071D01*
X8635595Y-16554071D02*
X8645119Y-16573119D01*
X8645119Y-16573119D02*
X8654643Y-16611214D01*
X8654643Y-16611214D02*
X8654643Y-16658833D01*
X8654643Y-16658833D02*
X8645119Y-16696928D01*
X8645119Y-16696928D02*
X8635595Y-16715976D01*
X8635595Y-16715976D02*
X8626072Y-16725500D01*
X8626072Y-16725500D02*
X8607024Y-16735024D01*
X8607024Y-16735024D02*
X8587976Y-16735024D01*
X8587976Y-16735024D02*
X8568929Y-16725500D01*
X8568929Y-16725500D02*
X8559405Y-16715976D01*
X8559405Y-16715976D02*
X8549881Y-16696928D01*
X8549881Y-16696928D02*
X8540357Y-16658833D01*
X8540357Y-16658833D02*
X8540357Y-16611214D01*
X8540357Y-16611214D02*
X8549881Y-16573119D01*
X8549881Y-16573119D02*
X8559405Y-16554071D01*
X8559405Y-16554071D02*
X8568929Y-16544548D01*
X8568929Y-16544548D02*
X8587976Y-16535024D01*
X8740357Y-16715976D02*
X8749881Y-16725500D01*
X8749881Y-16725500D02*
X8740357Y-16735024D01*
X8740357Y-16735024D02*
X8730834Y-16725500D01*
X8730834Y-16725500D02*
X8740357Y-16715976D01*
X8740357Y-16715976D02*
X8740357Y-16735024D01*
X8873691Y-16535024D02*
X8892738Y-16535024D01*
X8892738Y-16535024D02*
X8911786Y-16544548D01*
X8911786Y-16544548D02*
X8921310Y-16554071D01*
X8921310Y-16554071D02*
X8930834Y-16573119D01*
X8930834Y-16573119D02*
X8940357Y-16611214D01*
X8940357Y-16611214D02*
X8940357Y-16658833D01*
X8940357Y-16658833D02*
X8930834Y-16696928D01*
X8930834Y-16696928D02*
X8921310Y-16715976D01*
X8921310Y-16715976D02*
X8911786Y-16725500D01*
X8911786Y-16725500D02*
X8892738Y-16735024D01*
X8892738Y-16735024D02*
X8873691Y-16735024D01*
X8873691Y-16735024D02*
X8854643Y-16725500D01*
X8854643Y-16725500D02*
X8845119Y-16715976D01*
X8845119Y-16715976D02*
X8835595Y-16696928D01*
X8835595Y-16696928D02*
X8826072Y-16658833D01*
X8826072Y-16658833D02*
X8826072Y-16611214D01*
X8826072Y-16611214D02*
X8835595Y-16573119D01*
X8835595Y-16573119D02*
X8845119Y-16554071D01*
X8845119Y-16554071D02*
X8854643Y-16544548D01*
X8854643Y-16544548D02*
X8873691Y-16535024D01*
X9130834Y-16735024D02*
X9016548Y-16735024D01*
X9073691Y-16735024D02*
X9073691Y-16535024D01*
X9073691Y-16535024D02*
X9054643Y-16563595D01*
X9054643Y-16563595D02*
X9035595Y-16582643D01*
X9035595Y-16582643D02*
X9016548Y-16592167D01*
X9226072Y-16735024D02*
X9264167Y-16735024D01*
X9264167Y-16735024D02*
X9283215Y-16725500D01*
X9283215Y-16725500D02*
X9292738Y-16715976D01*
X9292738Y-16715976D02*
X9311786Y-16687405D01*
X9311786Y-16687405D02*
X9321310Y-16649309D01*
X9321310Y-16649309D02*
X9321310Y-16573119D01*
X9321310Y-16573119D02*
X9311786Y-16554071D01*
X9311786Y-16554071D02*
X9302262Y-16544548D01*
X9302262Y-16544548D02*
X9283215Y-16535024D01*
X9283215Y-16535024D02*
X9245119Y-16535024D01*
X9245119Y-16535024D02*
X9226072Y-16544548D01*
X9226072Y-16544548D02*
X9216548Y-16554071D01*
X9216548Y-16554071D02*
X9207024Y-16573119D01*
X9207024Y-16573119D02*
X9207024Y-16620738D01*
X9207024Y-16620738D02*
X9216548Y-16639786D01*
X9216548Y-16639786D02*
X9226072Y-16649309D01*
X9226072Y-16649309D02*
X9245119Y-16658833D01*
X9245119Y-16658833D02*
X9283215Y-16658833D01*
X9283215Y-16658833D02*
X9302262Y-16649309D01*
X9302262Y-16649309D02*
X9311786Y-16639786D01*
X9311786Y-16639786D02*
X9321310Y-16620738D01*
X9387976Y-16535024D02*
X9521310Y-16535024D01*
X9521310Y-16535024D02*
X9435595Y-16735024D01*
X9587976Y-16535024D02*
X9587976Y-16573119D01*
X9664167Y-16535024D02*
X9664167Y-16573119D01*
X9959405Y-16811214D02*
X9949881Y-16801690D01*
X9949881Y-16801690D02*
X9930834Y-16773119D01*
X9930834Y-16773119D02*
X9921310Y-16754071D01*
X9921310Y-16754071D02*
X9911786Y-16725500D01*
X9911786Y-16725500D02*
X9902262Y-16677881D01*
X9902262Y-16677881D02*
X9902262Y-16639786D01*
X9902262Y-16639786D02*
X9911786Y-16592167D01*
X9911786Y-16592167D02*
X9921310Y-16563595D01*
X9921310Y-16563595D02*
X9930834Y-16544548D01*
X9930834Y-16544548D02*
X9949881Y-16515976D01*
X9949881Y-16515976D02*
X9959405Y-16506452D01*
X10026072Y-16554071D02*
X10035596Y-16544548D01*
X10035596Y-16544548D02*
X10054643Y-16535024D01*
X10054643Y-16535024D02*
X10102262Y-16535024D01*
X10102262Y-16535024D02*
X10121310Y-16544548D01*
X10121310Y-16544548D02*
X10130834Y-16554071D01*
X10130834Y-16554071D02*
X10140357Y-16573119D01*
X10140357Y-16573119D02*
X10140357Y-16592167D01*
X10140357Y-16592167D02*
X10130834Y-16620738D01*
X10130834Y-16620738D02*
X10016548Y-16735024D01*
X10016548Y-16735024D02*
X10140357Y-16735024D01*
X10207024Y-16535024D02*
X10340357Y-16535024D01*
X10340357Y-16535024D02*
X10254643Y-16735024D01*
X10445119Y-16620738D02*
X10426072Y-16611214D01*
X10426072Y-16611214D02*
X10416548Y-16601690D01*
X10416548Y-16601690D02*
X10407024Y-16582643D01*
X10407024Y-16582643D02*
X10407024Y-16573119D01*
X10407024Y-16573119D02*
X10416548Y-16554071D01*
X10416548Y-16554071D02*
X10426072Y-16544548D01*
X10426072Y-16544548D02*
X10445119Y-16535024D01*
X10445119Y-16535024D02*
X10483215Y-16535024D01*
X10483215Y-16535024D02*
X10502262Y-16544548D01*
X10502262Y-16544548D02*
X10511786Y-16554071D01*
X10511786Y-16554071D02*
X10521310Y-16573119D01*
X10521310Y-16573119D02*
X10521310Y-16582643D01*
X10521310Y-16582643D02*
X10511786Y-16601690D01*
X10511786Y-16601690D02*
X10502262Y-16611214D01*
X10502262Y-16611214D02*
X10483215Y-16620738D01*
X10483215Y-16620738D02*
X10445119Y-16620738D01*
X10445119Y-16620738D02*
X10426072Y-16630262D01*
X10426072Y-16630262D02*
X10416548Y-16639786D01*
X10416548Y-16639786D02*
X10407024Y-16658833D01*
X10407024Y-16658833D02*
X10407024Y-16696928D01*
X10407024Y-16696928D02*
X10416548Y-16715976D01*
X10416548Y-16715976D02*
X10426072Y-16725500D01*
X10426072Y-16725500D02*
X10445119Y-16735024D01*
X10445119Y-16735024D02*
X10483215Y-16735024D01*
X10483215Y-16735024D02*
X10502262Y-16725500D01*
X10502262Y-16725500D02*
X10511786Y-16715976D01*
X10511786Y-16715976D02*
X10521310Y-16696928D01*
X10521310Y-16696928D02*
X10521310Y-16658833D01*
X10521310Y-16658833D02*
X10511786Y-16639786D01*
X10511786Y-16639786D02*
X10502262Y-16630262D01*
X10502262Y-16630262D02*
X10483215Y-16620738D01*
X10759405Y-16735024D02*
X10759405Y-16535024D01*
X10845119Y-16735024D02*
X10845119Y-16630262D01*
X10845119Y-16630262D02*
X10835596Y-16611214D01*
X10835596Y-16611214D02*
X10816548Y-16601690D01*
X10816548Y-16601690D02*
X10787977Y-16601690D01*
X10787977Y-16601690D02*
X10768929Y-16611214D01*
X10768929Y-16611214D02*
X10759405Y-16620738D01*
X10968929Y-16735024D02*
X10949881Y-16725500D01*
X10949881Y-16725500D02*
X10940358Y-16715976D01*
X10940358Y-16715976D02*
X10930834Y-16696928D01*
X10930834Y-16696928D02*
X10930834Y-16639786D01*
X10930834Y-16639786D02*
X10940358Y-16620738D01*
X10940358Y-16620738D02*
X10949881Y-16611214D01*
X10949881Y-16611214D02*
X10968929Y-16601690D01*
X10968929Y-16601690D02*
X10997500Y-16601690D01*
X10997500Y-16601690D02*
X11016548Y-16611214D01*
X11016548Y-16611214D02*
X11026072Y-16620738D01*
X11026072Y-16620738D02*
X11035596Y-16639786D01*
X11035596Y-16639786D02*
X11035596Y-16696928D01*
X11035596Y-16696928D02*
X11026072Y-16715976D01*
X11026072Y-16715976D02*
X11016548Y-16725500D01*
X11016548Y-16725500D02*
X10997500Y-16735024D01*
X10997500Y-16735024D02*
X10968929Y-16735024D01*
X11149881Y-16735024D02*
X11130834Y-16725500D01*
X11130834Y-16725500D02*
X11121310Y-16706452D01*
X11121310Y-16706452D02*
X11121310Y-16535024D01*
X11302262Y-16725500D02*
X11283215Y-16735024D01*
X11283215Y-16735024D02*
X11245119Y-16735024D01*
X11245119Y-16735024D02*
X11226072Y-16725500D01*
X11226072Y-16725500D02*
X11216548Y-16706452D01*
X11216548Y-16706452D02*
X11216548Y-16630262D01*
X11216548Y-16630262D02*
X11226072Y-16611214D01*
X11226072Y-16611214D02*
X11245119Y-16601690D01*
X11245119Y-16601690D02*
X11283215Y-16601690D01*
X11283215Y-16601690D02*
X11302262Y-16611214D01*
X11302262Y-16611214D02*
X11311786Y-16630262D01*
X11311786Y-16630262D02*
X11311786Y-16649309D01*
X11311786Y-16649309D02*
X11216548Y-16668357D01*
X11387977Y-16725500D02*
X11407024Y-16735024D01*
X11407024Y-16735024D02*
X11445119Y-16735024D01*
X11445119Y-16735024D02*
X11464167Y-16725500D01*
X11464167Y-16725500D02*
X11473691Y-16706452D01*
X11473691Y-16706452D02*
X11473691Y-16696928D01*
X11473691Y-16696928D02*
X11464167Y-16677881D01*
X11464167Y-16677881D02*
X11445119Y-16668357D01*
X11445119Y-16668357D02*
X11416548Y-16668357D01*
X11416548Y-16668357D02*
X11397500Y-16658833D01*
X11397500Y-16658833D02*
X11387977Y-16639786D01*
X11387977Y-16639786D02*
X11387977Y-16630262D01*
X11387977Y-16630262D02*
X11397500Y-16611214D01*
X11397500Y-16611214D02*
X11416548Y-16601690D01*
X11416548Y-16601690D02*
X11445119Y-16601690D01*
X11445119Y-16601690D02*
X11464167Y-16611214D01*
X11540358Y-16811214D02*
X11549881Y-16801690D01*
X11549881Y-16801690D02*
X11568929Y-16773119D01*
X11568929Y-16773119D02*
X11578453Y-16754071D01*
X11578453Y-16754071D02*
X11587977Y-16725500D01*
X11587977Y-16725500D02*
X11597500Y-16677881D01*
X11597500Y-16677881D02*
X11597500Y-16639786D01*
X11597500Y-16639786D02*
X11587977Y-16592167D01*
X11587977Y-16592167D02*
X11578453Y-16563595D01*
X11578453Y-16563595D02*
X11568929Y-16544548D01*
X11568929Y-16544548D02*
X11549881Y-16515976D01*
X11549881Y-16515976D02*
X11540358Y-16506452D01*
D12*
X6397500Y-16906500D02*
G75*
G03*
X6397500Y-16906500I-40000J0D01*
G01*
D11*
X6683214Y-16799024D02*
X6702262Y-16799024D01*
X6702262Y-16799024D02*
X6721309Y-16808548D01*
X6721309Y-16808548D02*
X6730833Y-16818071D01*
X6730833Y-16818071D02*
X6740357Y-16837119D01*
X6740357Y-16837119D02*
X6749881Y-16875214D01*
X6749881Y-16875214D02*
X6749881Y-16922833D01*
X6749881Y-16922833D02*
X6740357Y-16960929D01*
X6740357Y-16960929D02*
X6730833Y-16979976D01*
X6730833Y-16979976D02*
X6721309Y-16989500D01*
X6721309Y-16989500D02*
X6702262Y-16999024D01*
X6702262Y-16999024D02*
X6683214Y-16999024D01*
X6683214Y-16999024D02*
X6664167Y-16989500D01*
X6664167Y-16989500D02*
X6654643Y-16979976D01*
X6654643Y-16979976D02*
X6645119Y-16960929D01*
X6645119Y-16960929D02*
X6635595Y-16922833D01*
X6635595Y-16922833D02*
X6635595Y-16875214D01*
X6635595Y-16875214D02*
X6645119Y-16837119D01*
X6645119Y-16837119D02*
X6654643Y-16818071D01*
X6654643Y-16818071D02*
X6664167Y-16808548D01*
X6664167Y-16808548D02*
X6683214Y-16799024D01*
X6835595Y-16979976D02*
X6845119Y-16989500D01*
X6845119Y-16989500D02*
X6835595Y-16999024D01*
X6835595Y-16999024D02*
X6826071Y-16989500D01*
X6826071Y-16989500D02*
X6835595Y-16979976D01*
X6835595Y-16979976D02*
X6835595Y-16999024D01*
X6959405Y-16884738D02*
X6940357Y-16875214D01*
X6940357Y-16875214D02*
X6930833Y-16865690D01*
X6930833Y-16865690D02*
X6921309Y-16846643D01*
X6921309Y-16846643D02*
X6921309Y-16837119D01*
X6921309Y-16837119D02*
X6930833Y-16818071D01*
X6930833Y-16818071D02*
X6940357Y-16808548D01*
X6940357Y-16808548D02*
X6959405Y-16799024D01*
X6959405Y-16799024D02*
X6997500Y-16799024D01*
X6997500Y-16799024D02*
X7016548Y-16808548D01*
X7016548Y-16808548D02*
X7026071Y-16818071D01*
X7026071Y-16818071D02*
X7035595Y-16837119D01*
X7035595Y-16837119D02*
X7035595Y-16846643D01*
X7035595Y-16846643D02*
X7026071Y-16865690D01*
X7026071Y-16865690D02*
X7016548Y-16875214D01*
X7016548Y-16875214D02*
X6997500Y-16884738D01*
X6997500Y-16884738D02*
X6959405Y-16884738D01*
X6959405Y-16884738D02*
X6940357Y-16894262D01*
X6940357Y-16894262D02*
X6930833Y-16903786D01*
X6930833Y-16903786D02*
X6921309Y-16922833D01*
X6921309Y-16922833D02*
X6921309Y-16960929D01*
X6921309Y-16960929D02*
X6930833Y-16979976D01*
X6930833Y-16979976D02*
X6940357Y-16989500D01*
X6940357Y-16989500D02*
X6959405Y-16999024D01*
X6959405Y-16999024D02*
X6997500Y-16999024D01*
X6997500Y-16999024D02*
X7016548Y-16989500D01*
X7016548Y-16989500D02*
X7026071Y-16979976D01*
X7026071Y-16979976D02*
X7035595Y-16960929D01*
X7035595Y-16960929D02*
X7035595Y-16922833D01*
X7035595Y-16922833D02*
X7026071Y-16903786D01*
X7026071Y-16903786D02*
X7016548Y-16894262D01*
X7016548Y-16894262D02*
X6997500Y-16884738D01*
X7159405Y-16799024D02*
X7178452Y-16799024D01*
X7178452Y-16799024D02*
X7197500Y-16808548D01*
X7197500Y-16808548D02*
X7207024Y-16818071D01*
X7207024Y-16818071D02*
X7216548Y-16837119D01*
X7216548Y-16837119D02*
X7226071Y-16875214D01*
X7226071Y-16875214D02*
X7226071Y-16922833D01*
X7226071Y-16922833D02*
X7216548Y-16960929D01*
X7216548Y-16960929D02*
X7207024Y-16979976D01*
X7207024Y-16979976D02*
X7197500Y-16989500D01*
X7197500Y-16989500D02*
X7178452Y-16999024D01*
X7178452Y-16999024D02*
X7159405Y-16999024D01*
X7159405Y-16999024D02*
X7140357Y-16989500D01*
X7140357Y-16989500D02*
X7130833Y-16979976D01*
X7130833Y-16979976D02*
X7121309Y-16960929D01*
X7121309Y-16960929D02*
X7111786Y-16922833D01*
X7111786Y-16922833D02*
X7111786Y-16875214D01*
X7111786Y-16875214D02*
X7121309Y-16837119D01*
X7121309Y-16837119D02*
X7130833Y-16818071D01*
X7130833Y-16818071D02*
X7140357Y-16808548D01*
X7140357Y-16808548D02*
X7159405Y-16799024D01*
X7349881Y-16799024D02*
X7368929Y-16799024D01*
X7368929Y-16799024D02*
X7387976Y-16808548D01*
X7387976Y-16808548D02*
X7397500Y-16818071D01*
X7397500Y-16818071D02*
X7407024Y-16837119D01*
X7407024Y-16837119D02*
X7416548Y-16875214D01*
X7416548Y-16875214D02*
X7416548Y-16922833D01*
X7416548Y-16922833D02*
X7407024Y-16960929D01*
X7407024Y-16960929D02*
X7397500Y-16979976D01*
X7397500Y-16979976D02*
X7387976Y-16989500D01*
X7387976Y-16989500D02*
X7368929Y-16999024D01*
X7368929Y-16999024D02*
X7349881Y-16999024D01*
X7349881Y-16999024D02*
X7330833Y-16989500D01*
X7330833Y-16989500D02*
X7321309Y-16979976D01*
X7321309Y-16979976D02*
X7311786Y-16960929D01*
X7311786Y-16960929D02*
X7302262Y-16922833D01*
X7302262Y-16922833D02*
X7302262Y-16875214D01*
X7302262Y-16875214D02*
X7311786Y-16837119D01*
X7311786Y-16837119D02*
X7321309Y-16818071D01*
X7321309Y-16818071D02*
X7330833Y-16808548D01*
X7330833Y-16808548D02*
X7349881Y-16799024D01*
X7502262Y-16999024D02*
X7502262Y-16865690D01*
X7502262Y-16884738D02*
X7511786Y-16875214D01*
X7511786Y-16875214D02*
X7530833Y-16865690D01*
X7530833Y-16865690D02*
X7559405Y-16865690D01*
X7559405Y-16865690D02*
X7578452Y-16875214D01*
X7578452Y-16875214D02*
X7587976Y-16894262D01*
X7587976Y-16894262D02*
X7587976Y-16999024D01*
X7587976Y-16894262D02*
X7597500Y-16875214D01*
X7597500Y-16875214D02*
X7616548Y-16865690D01*
X7616548Y-16865690D02*
X7645119Y-16865690D01*
X7645119Y-16865690D02*
X7664167Y-16875214D01*
X7664167Y-16875214D02*
X7673690Y-16894262D01*
X7673690Y-16894262D02*
X7673690Y-16999024D01*
X7768929Y-16999024D02*
X7768929Y-16865690D01*
X7768929Y-16884738D02*
X7778452Y-16875214D01*
X7778452Y-16875214D02*
X7797500Y-16865690D01*
X7797500Y-16865690D02*
X7826071Y-16865690D01*
X7826071Y-16865690D02*
X7845119Y-16875214D01*
X7845119Y-16875214D02*
X7854643Y-16894262D01*
X7854643Y-16894262D02*
X7854643Y-16999024D01*
X7854643Y-16894262D02*
X7864167Y-16875214D01*
X7864167Y-16875214D02*
X7883214Y-16865690D01*
X7883214Y-16865690D02*
X7911786Y-16865690D01*
X7911786Y-16865690D02*
X7930833Y-16875214D01*
X7930833Y-16875214D02*
X7940357Y-16894262D01*
X7940357Y-16894262D02*
X7940357Y-16999024D01*
X8330833Y-16789500D02*
X8159405Y-17046643D01*
X8587976Y-16799024D02*
X8607024Y-16799024D01*
X8607024Y-16799024D02*
X8626072Y-16808548D01*
X8626072Y-16808548D02*
X8635595Y-16818071D01*
X8635595Y-16818071D02*
X8645119Y-16837119D01*
X8645119Y-16837119D02*
X8654643Y-16875214D01*
X8654643Y-16875214D02*
X8654643Y-16922833D01*
X8654643Y-16922833D02*
X8645119Y-16960929D01*
X8645119Y-16960929D02*
X8635595Y-16979976D01*
X8635595Y-16979976D02*
X8626072Y-16989500D01*
X8626072Y-16989500D02*
X8607024Y-16999024D01*
X8607024Y-16999024D02*
X8587976Y-16999024D01*
X8587976Y-16999024D02*
X8568929Y-16989500D01*
X8568929Y-16989500D02*
X8559405Y-16979976D01*
X8559405Y-16979976D02*
X8549881Y-16960929D01*
X8549881Y-16960929D02*
X8540357Y-16922833D01*
X8540357Y-16922833D02*
X8540357Y-16875214D01*
X8540357Y-16875214D02*
X8549881Y-16837119D01*
X8549881Y-16837119D02*
X8559405Y-16818071D01*
X8559405Y-16818071D02*
X8568929Y-16808548D01*
X8568929Y-16808548D02*
X8587976Y-16799024D01*
X8740357Y-16979976D02*
X8749881Y-16989500D01*
X8749881Y-16989500D02*
X8740357Y-16999024D01*
X8740357Y-16999024D02*
X8730834Y-16989500D01*
X8730834Y-16989500D02*
X8740357Y-16979976D01*
X8740357Y-16979976D02*
X8740357Y-16999024D01*
X8873691Y-16799024D02*
X8892738Y-16799024D01*
X8892738Y-16799024D02*
X8911786Y-16808548D01*
X8911786Y-16808548D02*
X8921310Y-16818071D01*
X8921310Y-16818071D02*
X8930834Y-16837119D01*
X8930834Y-16837119D02*
X8940357Y-16875214D01*
X8940357Y-16875214D02*
X8940357Y-16922833D01*
X8940357Y-16922833D02*
X8930834Y-16960929D01*
X8930834Y-16960929D02*
X8921310Y-16979976D01*
X8921310Y-16979976D02*
X8911786Y-16989500D01*
X8911786Y-16989500D02*
X8892738Y-16999024D01*
X8892738Y-16999024D02*
X8873691Y-16999024D01*
X8873691Y-16999024D02*
X8854643Y-16989500D01*
X8854643Y-16989500D02*
X8845119Y-16979976D01*
X8845119Y-16979976D02*
X8835595Y-16960929D01*
X8835595Y-16960929D02*
X8826072Y-16922833D01*
X8826072Y-16922833D02*
X8826072Y-16875214D01*
X8826072Y-16875214D02*
X8835595Y-16837119D01*
X8835595Y-16837119D02*
X8845119Y-16818071D01*
X8845119Y-16818071D02*
X8854643Y-16808548D01*
X8854643Y-16808548D02*
X8873691Y-16799024D01*
X9007024Y-16799024D02*
X9130834Y-16799024D01*
X9130834Y-16799024D02*
X9064167Y-16875214D01*
X9064167Y-16875214D02*
X9092738Y-16875214D01*
X9092738Y-16875214D02*
X9111786Y-16884738D01*
X9111786Y-16884738D02*
X9121310Y-16894262D01*
X9121310Y-16894262D02*
X9130834Y-16913310D01*
X9130834Y-16913310D02*
X9130834Y-16960929D01*
X9130834Y-16960929D02*
X9121310Y-16979976D01*
X9121310Y-16979976D02*
X9111786Y-16989500D01*
X9111786Y-16989500D02*
X9092738Y-16999024D01*
X9092738Y-16999024D02*
X9035595Y-16999024D01*
X9035595Y-16999024D02*
X9016548Y-16989500D01*
X9016548Y-16989500D02*
X9007024Y-16979976D01*
X9321310Y-16999024D02*
X9207024Y-16999024D01*
X9264167Y-16999024D02*
X9264167Y-16799024D01*
X9264167Y-16799024D02*
X9245119Y-16827595D01*
X9245119Y-16827595D02*
X9226072Y-16846643D01*
X9226072Y-16846643D02*
X9207024Y-16856167D01*
X9502262Y-16799024D02*
X9407024Y-16799024D01*
X9407024Y-16799024D02*
X9397500Y-16894262D01*
X9397500Y-16894262D02*
X9407024Y-16884738D01*
X9407024Y-16884738D02*
X9426072Y-16875214D01*
X9426072Y-16875214D02*
X9473691Y-16875214D01*
X9473691Y-16875214D02*
X9492738Y-16884738D01*
X9492738Y-16884738D02*
X9502262Y-16894262D01*
X9502262Y-16894262D02*
X9511786Y-16913310D01*
X9511786Y-16913310D02*
X9511786Y-16960929D01*
X9511786Y-16960929D02*
X9502262Y-16979976D01*
X9502262Y-16979976D02*
X9492738Y-16989500D01*
X9492738Y-16989500D02*
X9473691Y-16999024D01*
X9473691Y-16999024D02*
X9426072Y-16999024D01*
X9426072Y-16999024D02*
X9407024Y-16989500D01*
X9407024Y-16989500D02*
X9397500Y-16979976D01*
X9587976Y-16799024D02*
X9587976Y-16837119D01*
X9664167Y-16799024D02*
X9664167Y-16837119D01*
X9959405Y-17075214D02*
X9949881Y-17065690D01*
X9949881Y-17065690D02*
X9930834Y-17037119D01*
X9930834Y-17037119D02*
X9921310Y-17018071D01*
X9921310Y-17018071D02*
X9911786Y-16989500D01*
X9911786Y-16989500D02*
X9902262Y-16941881D01*
X9902262Y-16941881D02*
X9902262Y-16903786D01*
X9902262Y-16903786D02*
X9911786Y-16856167D01*
X9911786Y-16856167D02*
X9921310Y-16827595D01*
X9921310Y-16827595D02*
X9930834Y-16808548D01*
X9930834Y-16808548D02*
X9949881Y-16779976D01*
X9949881Y-16779976D02*
X9959405Y-16770452D01*
X10121310Y-16865690D02*
X10121310Y-16999024D01*
X10073691Y-16789500D02*
X10026072Y-16932357D01*
X10026072Y-16932357D02*
X10149881Y-16932357D01*
X10264167Y-16799024D02*
X10283215Y-16799024D01*
X10283215Y-16799024D02*
X10302262Y-16808548D01*
X10302262Y-16808548D02*
X10311786Y-16818071D01*
X10311786Y-16818071D02*
X10321310Y-16837119D01*
X10321310Y-16837119D02*
X10330834Y-16875214D01*
X10330834Y-16875214D02*
X10330834Y-16922833D01*
X10330834Y-16922833D02*
X10321310Y-16960929D01*
X10321310Y-16960929D02*
X10311786Y-16979976D01*
X10311786Y-16979976D02*
X10302262Y-16989500D01*
X10302262Y-16989500D02*
X10283215Y-16999024D01*
X10283215Y-16999024D02*
X10264167Y-16999024D01*
X10264167Y-16999024D02*
X10245119Y-16989500D01*
X10245119Y-16989500D02*
X10235596Y-16979976D01*
X10235596Y-16979976D02*
X10226072Y-16960929D01*
X10226072Y-16960929D02*
X10216548Y-16922833D01*
X10216548Y-16922833D02*
X10216548Y-16875214D01*
X10216548Y-16875214D02*
X10226072Y-16837119D01*
X10226072Y-16837119D02*
X10235596Y-16818071D01*
X10235596Y-16818071D02*
X10245119Y-16808548D01*
X10245119Y-16808548D02*
X10264167Y-16799024D01*
X10397500Y-16799024D02*
X10530834Y-16799024D01*
X10530834Y-16799024D02*
X10445119Y-16999024D01*
X10759405Y-16999024D02*
X10759405Y-16799024D01*
X10845119Y-16999024D02*
X10845119Y-16894262D01*
X10845119Y-16894262D02*
X10835596Y-16875214D01*
X10835596Y-16875214D02*
X10816548Y-16865690D01*
X10816548Y-16865690D02*
X10787977Y-16865690D01*
X10787977Y-16865690D02*
X10768929Y-16875214D01*
X10768929Y-16875214D02*
X10759405Y-16884738D01*
X10968929Y-16999024D02*
X10949881Y-16989500D01*
X10949881Y-16989500D02*
X10940358Y-16979976D01*
X10940358Y-16979976D02*
X10930834Y-16960929D01*
X10930834Y-16960929D02*
X10930834Y-16903786D01*
X10930834Y-16903786D02*
X10940358Y-16884738D01*
X10940358Y-16884738D02*
X10949881Y-16875214D01*
X10949881Y-16875214D02*
X10968929Y-16865690D01*
X10968929Y-16865690D02*
X10997500Y-16865690D01*
X10997500Y-16865690D02*
X11016548Y-16875214D01*
X11016548Y-16875214D02*
X11026072Y-16884738D01*
X11026072Y-16884738D02*
X11035596Y-16903786D01*
X11035596Y-16903786D02*
X11035596Y-16960929D01*
X11035596Y-16960929D02*
X11026072Y-16979976D01*
X11026072Y-16979976D02*
X11016548Y-16989500D01*
X11016548Y-16989500D02*
X10997500Y-16999024D01*
X10997500Y-16999024D02*
X10968929Y-16999024D01*
X11149881Y-16999024D02*
X11130834Y-16989500D01*
X11130834Y-16989500D02*
X11121310Y-16970452D01*
X11121310Y-16970452D02*
X11121310Y-16799024D01*
X11302262Y-16989500D02*
X11283215Y-16999024D01*
X11283215Y-16999024D02*
X11245119Y-16999024D01*
X11245119Y-16999024D02*
X11226072Y-16989500D01*
X11226072Y-16989500D02*
X11216548Y-16970452D01*
X11216548Y-16970452D02*
X11216548Y-16894262D01*
X11216548Y-16894262D02*
X11226072Y-16875214D01*
X11226072Y-16875214D02*
X11245119Y-16865690D01*
X11245119Y-16865690D02*
X11283215Y-16865690D01*
X11283215Y-16865690D02*
X11302262Y-16875214D01*
X11302262Y-16875214D02*
X11311786Y-16894262D01*
X11311786Y-16894262D02*
X11311786Y-16913310D01*
X11311786Y-16913310D02*
X11216548Y-16932357D01*
X11387977Y-16989500D02*
X11407024Y-16999024D01*
X11407024Y-16999024D02*
X11445119Y-16999024D01*
X11445119Y-16999024D02*
X11464167Y-16989500D01*
X11464167Y-16989500D02*
X11473691Y-16970452D01*
X11473691Y-16970452D02*
X11473691Y-16960929D01*
X11473691Y-16960929D02*
X11464167Y-16941881D01*
X11464167Y-16941881D02*
X11445119Y-16932357D01*
X11445119Y-16932357D02*
X11416548Y-16932357D01*
X11416548Y-16932357D02*
X11397500Y-16922833D01*
X11397500Y-16922833D02*
X11387977Y-16903786D01*
X11387977Y-16903786D02*
X11387977Y-16894262D01*
X11387977Y-16894262D02*
X11397500Y-16875214D01*
X11397500Y-16875214D02*
X11416548Y-16865690D01*
X11416548Y-16865690D02*
X11445119Y-16865690D01*
X11445119Y-16865690D02*
X11464167Y-16875214D01*
X11540358Y-17075214D02*
X11549881Y-17065690D01*
X11549881Y-17065690D02*
X11568929Y-17037119D01*
X11568929Y-17037119D02*
X11578453Y-17018071D01*
X11578453Y-17018071D02*
X11587977Y-16989500D01*
X11587977Y-16989500D02*
X11597500Y-16941881D01*
X11597500Y-16941881D02*
X11597500Y-16903786D01*
X11597500Y-16903786D02*
X11587977Y-16856167D01*
X11587977Y-16856167D02*
X11578453Y-16827595D01*
X11578453Y-16827595D02*
X11568929Y-16808548D01*
X11568929Y-16808548D02*
X11549881Y-16779976D01*
X11549881Y-16779976D02*
X11540358Y-16770452D01*
D13*
X6352500Y-17125500D02*
X6352500Y-17215500D01*
X6307500Y-17170500D02*
X6397500Y-17170500D01*
D11*
X6683214Y-17063024D02*
X6702262Y-17063024D01*
X6702262Y-17063024D02*
X6721309Y-17072548D01*
X6721309Y-17072548D02*
X6730833Y-17082071D01*
X6730833Y-17082071D02*
X6740357Y-17101119D01*
X6740357Y-17101119D02*
X6749881Y-17139214D01*
X6749881Y-17139214D02*
X6749881Y-17186833D01*
X6749881Y-17186833D02*
X6740357Y-17224929D01*
X6740357Y-17224929D02*
X6730833Y-17243976D01*
X6730833Y-17243976D02*
X6721309Y-17253500D01*
X6721309Y-17253500D02*
X6702262Y-17263024D01*
X6702262Y-17263024D02*
X6683214Y-17263024D01*
X6683214Y-17263024D02*
X6664167Y-17253500D01*
X6664167Y-17253500D02*
X6654643Y-17243976D01*
X6654643Y-17243976D02*
X6645119Y-17224929D01*
X6645119Y-17224929D02*
X6635595Y-17186833D01*
X6635595Y-17186833D02*
X6635595Y-17139214D01*
X6635595Y-17139214D02*
X6645119Y-17101119D01*
X6645119Y-17101119D02*
X6654643Y-17082071D01*
X6654643Y-17082071D02*
X6664167Y-17072548D01*
X6664167Y-17072548D02*
X6683214Y-17063024D01*
X6835595Y-17243976D02*
X6845119Y-17253500D01*
X6845119Y-17253500D02*
X6835595Y-17263024D01*
X6835595Y-17263024D02*
X6826071Y-17253500D01*
X6826071Y-17253500D02*
X6835595Y-17243976D01*
X6835595Y-17243976D02*
X6835595Y-17263024D01*
X6940357Y-17263024D02*
X6978452Y-17263024D01*
X6978452Y-17263024D02*
X6997500Y-17253500D01*
X6997500Y-17253500D02*
X7007024Y-17243976D01*
X7007024Y-17243976D02*
X7026071Y-17215405D01*
X7026071Y-17215405D02*
X7035595Y-17177310D01*
X7035595Y-17177310D02*
X7035595Y-17101119D01*
X7035595Y-17101119D02*
X7026071Y-17082071D01*
X7026071Y-17082071D02*
X7016548Y-17072548D01*
X7016548Y-17072548D02*
X6997500Y-17063024D01*
X6997500Y-17063024D02*
X6959405Y-17063024D01*
X6959405Y-17063024D02*
X6940357Y-17072548D01*
X6940357Y-17072548D02*
X6930833Y-17082071D01*
X6930833Y-17082071D02*
X6921309Y-17101119D01*
X6921309Y-17101119D02*
X6921309Y-17148738D01*
X6921309Y-17148738D02*
X6930833Y-17167786D01*
X6930833Y-17167786D02*
X6940357Y-17177310D01*
X6940357Y-17177310D02*
X6959405Y-17186833D01*
X6959405Y-17186833D02*
X6997500Y-17186833D01*
X6997500Y-17186833D02*
X7016548Y-17177310D01*
X7016548Y-17177310D02*
X7026071Y-17167786D01*
X7026071Y-17167786D02*
X7035595Y-17148738D01*
X7159405Y-17063024D02*
X7178452Y-17063024D01*
X7178452Y-17063024D02*
X7197500Y-17072548D01*
X7197500Y-17072548D02*
X7207024Y-17082071D01*
X7207024Y-17082071D02*
X7216548Y-17101119D01*
X7216548Y-17101119D02*
X7226071Y-17139214D01*
X7226071Y-17139214D02*
X7226071Y-17186833D01*
X7226071Y-17186833D02*
X7216548Y-17224929D01*
X7216548Y-17224929D02*
X7207024Y-17243976D01*
X7207024Y-17243976D02*
X7197500Y-17253500D01*
X7197500Y-17253500D02*
X7178452Y-17263024D01*
X7178452Y-17263024D02*
X7159405Y-17263024D01*
X7159405Y-17263024D02*
X7140357Y-17253500D01*
X7140357Y-17253500D02*
X7130833Y-17243976D01*
X7130833Y-17243976D02*
X7121309Y-17224929D01*
X7121309Y-17224929D02*
X7111786Y-17186833D01*
X7111786Y-17186833D02*
X7111786Y-17139214D01*
X7111786Y-17139214D02*
X7121309Y-17101119D01*
X7121309Y-17101119D02*
X7130833Y-17082071D01*
X7130833Y-17082071D02*
X7140357Y-17072548D01*
X7140357Y-17072548D02*
X7159405Y-17063024D01*
X7349881Y-17063024D02*
X7368929Y-17063024D01*
X7368929Y-17063024D02*
X7387976Y-17072548D01*
X7387976Y-17072548D02*
X7397500Y-17082071D01*
X7397500Y-17082071D02*
X7407024Y-17101119D01*
X7407024Y-17101119D02*
X7416548Y-17139214D01*
X7416548Y-17139214D02*
X7416548Y-17186833D01*
X7416548Y-17186833D02*
X7407024Y-17224929D01*
X7407024Y-17224929D02*
X7397500Y-17243976D01*
X7397500Y-17243976D02*
X7387976Y-17253500D01*
X7387976Y-17253500D02*
X7368929Y-17263024D01*
X7368929Y-17263024D02*
X7349881Y-17263024D01*
X7349881Y-17263024D02*
X7330833Y-17253500D01*
X7330833Y-17253500D02*
X7321309Y-17243976D01*
X7321309Y-17243976D02*
X7311786Y-17224929D01*
X7311786Y-17224929D02*
X7302262Y-17186833D01*
X7302262Y-17186833D02*
X7302262Y-17139214D01*
X7302262Y-17139214D02*
X7311786Y-17101119D01*
X7311786Y-17101119D02*
X7321309Y-17082071D01*
X7321309Y-17082071D02*
X7330833Y-17072548D01*
X7330833Y-17072548D02*
X7349881Y-17063024D01*
X7502262Y-17263024D02*
X7502262Y-17129690D01*
X7502262Y-17148738D02*
X7511786Y-17139214D01*
X7511786Y-17139214D02*
X7530833Y-17129690D01*
X7530833Y-17129690D02*
X7559405Y-17129690D01*
X7559405Y-17129690D02*
X7578452Y-17139214D01*
X7578452Y-17139214D02*
X7587976Y-17158262D01*
X7587976Y-17158262D02*
X7587976Y-17263024D01*
X7587976Y-17158262D02*
X7597500Y-17139214D01*
X7597500Y-17139214D02*
X7616548Y-17129690D01*
X7616548Y-17129690D02*
X7645119Y-17129690D01*
X7645119Y-17129690D02*
X7664167Y-17139214D01*
X7664167Y-17139214D02*
X7673690Y-17158262D01*
X7673690Y-17158262D02*
X7673690Y-17263024D01*
X7768929Y-17263024D02*
X7768929Y-17129690D01*
X7768929Y-17148738D02*
X7778452Y-17139214D01*
X7778452Y-17139214D02*
X7797500Y-17129690D01*
X7797500Y-17129690D02*
X7826071Y-17129690D01*
X7826071Y-17129690D02*
X7845119Y-17139214D01*
X7845119Y-17139214D02*
X7854643Y-17158262D01*
X7854643Y-17158262D02*
X7854643Y-17263024D01*
X7854643Y-17158262D02*
X7864167Y-17139214D01*
X7864167Y-17139214D02*
X7883214Y-17129690D01*
X7883214Y-17129690D02*
X7911786Y-17129690D01*
X7911786Y-17129690D02*
X7930833Y-17139214D01*
X7930833Y-17139214D02*
X7940357Y-17158262D01*
X7940357Y-17158262D02*
X7940357Y-17263024D01*
X8330833Y-17053500D02*
X8159405Y-17310643D01*
X8587976Y-17063024D02*
X8607024Y-17063024D01*
X8607024Y-17063024D02*
X8626072Y-17072548D01*
X8626072Y-17072548D02*
X8635595Y-17082071D01*
X8635595Y-17082071D02*
X8645119Y-17101119D01*
X8645119Y-17101119D02*
X8654643Y-17139214D01*
X8654643Y-17139214D02*
X8654643Y-17186833D01*
X8654643Y-17186833D02*
X8645119Y-17224929D01*
X8645119Y-17224929D02*
X8635595Y-17243976D01*
X8635595Y-17243976D02*
X8626072Y-17253500D01*
X8626072Y-17253500D02*
X8607024Y-17263024D01*
X8607024Y-17263024D02*
X8587976Y-17263024D01*
X8587976Y-17263024D02*
X8568929Y-17253500D01*
X8568929Y-17253500D02*
X8559405Y-17243976D01*
X8559405Y-17243976D02*
X8549881Y-17224929D01*
X8549881Y-17224929D02*
X8540357Y-17186833D01*
X8540357Y-17186833D02*
X8540357Y-17139214D01*
X8540357Y-17139214D02*
X8549881Y-17101119D01*
X8549881Y-17101119D02*
X8559405Y-17082071D01*
X8559405Y-17082071D02*
X8568929Y-17072548D01*
X8568929Y-17072548D02*
X8587976Y-17063024D01*
X8740357Y-17243976D02*
X8749881Y-17253500D01*
X8749881Y-17253500D02*
X8740357Y-17263024D01*
X8740357Y-17263024D02*
X8730834Y-17253500D01*
X8730834Y-17253500D02*
X8740357Y-17243976D01*
X8740357Y-17243976D02*
X8740357Y-17263024D01*
X8873691Y-17063024D02*
X8892738Y-17063024D01*
X8892738Y-17063024D02*
X8911786Y-17072548D01*
X8911786Y-17072548D02*
X8921310Y-17082071D01*
X8921310Y-17082071D02*
X8930834Y-17101119D01*
X8930834Y-17101119D02*
X8940357Y-17139214D01*
X8940357Y-17139214D02*
X8940357Y-17186833D01*
X8940357Y-17186833D02*
X8930834Y-17224929D01*
X8930834Y-17224929D02*
X8921310Y-17243976D01*
X8921310Y-17243976D02*
X8911786Y-17253500D01*
X8911786Y-17253500D02*
X8892738Y-17263024D01*
X8892738Y-17263024D02*
X8873691Y-17263024D01*
X8873691Y-17263024D02*
X8854643Y-17253500D01*
X8854643Y-17253500D02*
X8845119Y-17243976D01*
X8845119Y-17243976D02*
X8835595Y-17224929D01*
X8835595Y-17224929D02*
X8826072Y-17186833D01*
X8826072Y-17186833D02*
X8826072Y-17139214D01*
X8826072Y-17139214D02*
X8835595Y-17101119D01*
X8835595Y-17101119D02*
X8845119Y-17082071D01*
X8845119Y-17082071D02*
X8854643Y-17072548D01*
X8854643Y-17072548D02*
X8873691Y-17063024D01*
X9007024Y-17063024D02*
X9130834Y-17063024D01*
X9130834Y-17063024D02*
X9064167Y-17139214D01*
X9064167Y-17139214D02*
X9092738Y-17139214D01*
X9092738Y-17139214D02*
X9111786Y-17148738D01*
X9111786Y-17148738D02*
X9121310Y-17158262D01*
X9121310Y-17158262D02*
X9130834Y-17177310D01*
X9130834Y-17177310D02*
X9130834Y-17224929D01*
X9130834Y-17224929D02*
X9121310Y-17243976D01*
X9121310Y-17243976D02*
X9111786Y-17253500D01*
X9111786Y-17253500D02*
X9092738Y-17263024D01*
X9092738Y-17263024D02*
X9035595Y-17263024D01*
X9035595Y-17263024D02*
X9016548Y-17253500D01*
X9016548Y-17253500D02*
X9007024Y-17243976D01*
X9311786Y-17063024D02*
X9216548Y-17063024D01*
X9216548Y-17063024D02*
X9207024Y-17158262D01*
X9207024Y-17158262D02*
X9216548Y-17148738D01*
X9216548Y-17148738D02*
X9235595Y-17139214D01*
X9235595Y-17139214D02*
X9283215Y-17139214D01*
X9283215Y-17139214D02*
X9302262Y-17148738D01*
X9302262Y-17148738D02*
X9311786Y-17158262D01*
X9311786Y-17158262D02*
X9321310Y-17177310D01*
X9321310Y-17177310D02*
X9321310Y-17224929D01*
X9321310Y-17224929D02*
X9311786Y-17243976D01*
X9311786Y-17243976D02*
X9302262Y-17253500D01*
X9302262Y-17253500D02*
X9283215Y-17263024D01*
X9283215Y-17263024D02*
X9235595Y-17263024D01*
X9235595Y-17263024D02*
X9216548Y-17253500D01*
X9216548Y-17253500D02*
X9207024Y-17243976D01*
X9492738Y-17129690D02*
X9492738Y-17263024D01*
X9445119Y-17053500D02*
X9397500Y-17196357D01*
X9397500Y-17196357D02*
X9521310Y-17196357D01*
X9587976Y-17063024D02*
X9587976Y-17101119D01*
X9664167Y-17063024D02*
X9664167Y-17101119D01*
X9959405Y-17339214D02*
X9949881Y-17329690D01*
X9949881Y-17329690D02*
X9930834Y-17301119D01*
X9930834Y-17301119D02*
X9921310Y-17282071D01*
X9921310Y-17282071D02*
X9911786Y-17253500D01*
X9911786Y-17253500D02*
X9902262Y-17205881D01*
X9902262Y-17205881D02*
X9902262Y-17167786D01*
X9902262Y-17167786D02*
X9911786Y-17120167D01*
X9911786Y-17120167D02*
X9921310Y-17091595D01*
X9921310Y-17091595D02*
X9930834Y-17072548D01*
X9930834Y-17072548D02*
X9949881Y-17043976D01*
X9949881Y-17043976D02*
X9959405Y-17034452D01*
X10026072Y-17082071D02*
X10035596Y-17072548D01*
X10035596Y-17072548D02*
X10054643Y-17063024D01*
X10054643Y-17063024D02*
X10102262Y-17063024D01*
X10102262Y-17063024D02*
X10121310Y-17072548D01*
X10121310Y-17072548D02*
X10130834Y-17082071D01*
X10130834Y-17082071D02*
X10140357Y-17101119D01*
X10140357Y-17101119D02*
X10140357Y-17120167D01*
X10140357Y-17120167D02*
X10130834Y-17148738D01*
X10130834Y-17148738D02*
X10016548Y-17263024D01*
X10016548Y-17263024D02*
X10140357Y-17263024D01*
X10378453Y-17263024D02*
X10378453Y-17063024D01*
X10464167Y-17263024D02*
X10464167Y-17158262D01*
X10464167Y-17158262D02*
X10454643Y-17139214D01*
X10454643Y-17139214D02*
X10435596Y-17129690D01*
X10435596Y-17129690D02*
X10407024Y-17129690D01*
X10407024Y-17129690D02*
X10387977Y-17139214D01*
X10387977Y-17139214D02*
X10378453Y-17148738D01*
X10587977Y-17263024D02*
X10568929Y-17253500D01*
X10568929Y-17253500D02*
X10559405Y-17243976D01*
X10559405Y-17243976D02*
X10549881Y-17224929D01*
X10549881Y-17224929D02*
X10549881Y-17167786D01*
X10549881Y-17167786D02*
X10559405Y-17148738D01*
X10559405Y-17148738D02*
X10568929Y-17139214D01*
X10568929Y-17139214D02*
X10587977Y-17129690D01*
X10587977Y-17129690D02*
X10616548Y-17129690D01*
X10616548Y-17129690D02*
X10635596Y-17139214D01*
X10635596Y-17139214D02*
X10645119Y-17148738D01*
X10645119Y-17148738D02*
X10654643Y-17167786D01*
X10654643Y-17167786D02*
X10654643Y-17224929D01*
X10654643Y-17224929D02*
X10645119Y-17243976D01*
X10645119Y-17243976D02*
X10635596Y-17253500D01*
X10635596Y-17253500D02*
X10616548Y-17263024D01*
X10616548Y-17263024D02*
X10587977Y-17263024D01*
X10768929Y-17263024D02*
X10749881Y-17253500D01*
X10749881Y-17253500D02*
X10740358Y-17234452D01*
X10740358Y-17234452D02*
X10740358Y-17063024D01*
X10921310Y-17253500D02*
X10902262Y-17263024D01*
X10902262Y-17263024D02*
X10864167Y-17263024D01*
X10864167Y-17263024D02*
X10845119Y-17253500D01*
X10845119Y-17253500D02*
X10835596Y-17234452D01*
X10835596Y-17234452D02*
X10835596Y-17158262D01*
X10835596Y-17158262D02*
X10845119Y-17139214D01*
X10845119Y-17139214D02*
X10864167Y-17129690D01*
X10864167Y-17129690D02*
X10902262Y-17129690D01*
X10902262Y-17129690D02*
X10921310Y-17139214D01*
X10921310Y-17139214D02*
X10930834Y-17158262D01*
X10930834Y-17158262D02*
X10930834Y-17177310D01*
X10930834Y-17177310D02*
X10835596Y-17196357D01*
X11007024Y-17253500D02*
X11026072Y-17263024D01*
X11026072Y-17263024D02*
X11064167Y-17263024D01*
X11064167Y-17263024D02*
X11083215Y-17253500D01*
X11083215Y-17253500D02*
X11092739Y-17234452D01*
X11092739Y-17234452D02*
X11092739Y-17224929D01*
X11092739Y-17224929D02*
X11083215Y-17205881D01*
X11083215Y-17205881D02*
X11064167Y-17196357D01*
X11064167Y-17196357D02*
X11035596Y-17196357D01*
X11035596Y-17196357D02*
X11016548Y-17186833D01*
X11016548Y-17186833D02*
X11007024Y-17167786D01*
X11007024Y-17167786D02*
X11007024Y-17158262D01*
X11007024Y-17158262D02*
X11016548Y-17139214D01*
X11016548Y-17139214D02*
X11035596Y-17129690D01*
X11035596Y-17129690D02*
X11064167Y-17129690D01*
X11064167Y-17129690D02*
X11083215Y-17139214D01*
X11159405Y-17339214D02*
X11168929Y-17329690D01*
X11168929Y-17329690D02*
X11187977Y-17301119D01*
X11187977Y-17301119D02*
X11197500Y-17282071D01*
X11197500Y-17282071D02*
X11207024Y-17253500D01*
X11207024Y-17253500D02*
X11216548Y-17205881D01*
X11216548Y-17205881D02*
X11216548Y-17167786D01*
X11216548Y-17167786D02*
X11207024Y-17120167D01*
X11207024Y-17120167D02*
X11197500Y-17091595D01*
X11197500Y-17091595D02*
X11187977Y-17072548D01*
X11187977Y-17072548D02*
X11168929Y-17043976D01*
X11168929Y-17043976D02*
X11159405Y-17034452D01*
D14*
X6382856Y-17469856D02*
X6382856Y-17399144D01*
X6312144Y-17399144D01*
X6312144Y-17469856D01*
X6382856Y-17469856D01*
D11*
X6749881Y-17527024D02*
X6635595Y-17527024D01*
X6692738Y-17527024D02*
X6692738Y-17327024D01*
X6692738Y-17327024D02*
X6673690Y-17355595D01*
X6673690Y-17355595D02*
X6654643Y-17374643D01*
X6654643Y-17374643D02*
X6635595Y-17384167D01*
X6835595Y-17507976D02*
X6845119Y-17517500D01*
X6845119Y-17517500D02*
X6835595Y-17527024D01*
X6835595Y-17527024D02*
X6826071Y-17517500D01*
X6826071Y-17517500D02*
X6835595Y-17507976D01*
X6835595Y-17507976D02*
X6835595Y-17527024D01*
X6968928Y-17327024D02*
X6987976Y-17327024D01*
X6987976Y-17327024D02*
X7007024Y-17336548D01*
X7007024Y-17336548D02*
X7016548Y-17346071D01*
X7016548Y-17346071D02*
X7026071Y-17365119D01*
X7026071Y-17365119D02*
X7035595Y-17403214D01*
X7035595Y-17403214D02*
X7035595Y-17450833D01*
X7035595Y-17450833D02*
X7026071Y-17488929D01*
X7026071Y-17488929D02*
X7016548Y-17507976D01*
X7016548Y-17507976D02*
X7007024Y-17517500D01*
X7007024Y-17517500D02*
X6987976Y-17527024D01*
X6987976Y-17527024D02*
X6968928Y-17527024D01*
X6968928Y-17527024D02*
X6949881Y-17517500D01*
X6949881Y-17517500D02*
X6940357Y-17507976D01*
X6940357Y-17507976D02*
X6930833Y-17488929D01*
X6930833Y-17488929D02*
X6921309Y-17450833D01*
X6921309Y-17450833D02*
X6921309Y-17403214D01*
X6921309Y-17403214D02*
X6930833Y-17365119D01*
X6930833Y-17365119D02*
X6940357Y-17346071D01*
X6940357Y-17346071D02*
X6949881Y-17336548D01*
X6949881Y-17336548D02*
X6968928Y-17327024D01*
X7159405Y-17327024D02*
X7178452Y-17327024D01*
X7178452Y-17327024D02*
X7197500Y-17336548D01*
X7197500Y-17336548D02*
X7207024Y-17346071D01*
X7207024Y-17346071D02*
X7216548Y-17365119D01*
X7216548Y-17365119D02*
X7226071Y-17403214D01*
X7226071Y-17403214D02*
X7226071Y-17450833D01*
X7226071Y-17450833D02*
X7216548Y-17488929D01*
X7216548Y-17488929D02*
X7207024Y-17507976D01*
X7207024Y-17507976D02*
X7197500Y-17517500D01*
X7197500Y-17517500D02*
X7178452Y-17527024D01*
X7178452Y-17527024D02*
X7159405Y-17527024D01*
X7159405Y-17527024D02*
X7140357Y-17517500D01*
X7140357Y-17517500D02*
X7130833Y-17507976D01*
X7130833Y-17507976D02*
X7121309Y-17488929D01*
X7121309Y-17488929D02*
X7111786Y-17450833D01*
X7111786Y-17450833D02*
X7111786Y-17403214D01*
X7111786Y-17403214D02*
X7121309Y-17365119D01*
X7121309Y-17365119D02*
X7130833Y-17346071D01*
X7130833Y-17346071D02*
X7140357Y-17336548D01*
X7140357Y-17336548D02*
X7159405Y-17327024D01*
X7349881Y-17327024D02*
X7368929Y-17327024D01*
X7368929Y-17327024D02*
X7387976Y-17336548D01*
X7387976Y-17336548D02*
X7397500Y-17346071D01*
X7397500Y-17346071D02*
X7407024Y-17365119D01*
X7407024Y-17365119D02*
X7416548Y-17403214D01*
X7416548Y-17403214D02*
X7416548Y-17450833D01*
X7416548Y-17450833D02*
X7407024Y-17488929D01*
X7407024Y-17488929D02*
X7397500Y-17507976D01*
X7397500Y-17507976D02*
X7387976Y-17517500D01*
X7387976Y-17517500D02*
X7368929Y-17527024D01*
X7368929Y-17527024D02*
X7349881Y-17527024D01*
X7349881Y-17527024D02*
X7330833Y-17517500D01*
X7330833Y-17517500D02*
X7321309Y-17507976D01*
X7321309Y-17507976D02*
X7311786Y-17488929D01*
X7311786Y-17488929D02*
X7302262Y-17450833D01*
X7302262Y-17450833D02*
X7302262Y-17403214D01*
X7302262Y-17403214D02*
X7311786Y-17365119D01*
X7311786Y-17365119D02*
X7321309Y-17346071D01*
X7321309Y-17346071D02*
X7330833Y-17336548D01*
X7330833Y-17336548D02*
X7349881Y-17327024D01*
X7502262Y-17527024D02*
X7502262Y-17393690D01*
X7502262Y-17412738D02*
X7511786Y-17403214D01*
X7511786Y-17403214D02*
X7530833Y-17393690D01*
X7530833Y-17393690D02*
X7559405Y-17393690D01*
X7559405Y-17393690D02*
X7578452Y-17403214D01*
X7578452Y-17403214D02*
X7587976Y-17422262D01*
X7587976Y-17422262D02*
X7587976Y-17527024D01*
X7587976Y-17422262D02*
X7597500Y-17403214D01*
X7597500Y-17403214D02*
X7616548Y-17393690D01*
X7616548Y-17393690D02*
X7645119Y-17393690D01*
X7645119Y-17393690D02*
X7664167Y-17403214D01*
X7664167Y-17403214D02*
X7673690Y-17422262D01*
X7673690Y-17422262D02*
X7673690Y-17527024D01*
X7768929Y-17527024D02*
X7768929Y-17393690D01*
X7768929Y-17412738D02*
X7778452Y-17403214D01*
X7778452Y-17403214D02*
X7797500Y-17393690D01*
X7797500Y-17393690D02*
X7826071Y-17393690D01*
X7826071Y-17393690D02*
X7845119Y-17403214D01*
X7845119Y-17403214D02*
X7854643Y-17422262D01*
X7854643Y-17422262D02*
X7854643Y-17527024D01*
X7854643Y-17422262D02*
X7864167Y-17403214D01*
X7864167Y-17403214D02*
X7883214Y-17393690D01*
X7883214Y-17393690D02*
X7911786Y-17393690D01*
X7911786Y-17393690D02*
X7930833Y-17403214D01*
X7930833Y-17403214D02*
X7940357Y-17422262D01*
X7940357Y-17422262D02*
X7940357Y-17527024D01*
X8330833Y-17317500D02*
X8159405Y-17574643D01*
X8587976Y-17327024D02*
X8607024Y-17327024D01*
X8607024Y-17327024D02*
X8626072Y-17336548D01*
X8626072Y-17336548D02*
X8635595Y-17346071D01*
X8635595Y-17346071D02*
X8645119Y-17365119D01*
X8645119Y-17365119D02*
X8654643Y-17403214D01*
X8654643Y-17403214D02*
X8654643Y-17450833D01*
X8654643Y-17450833D02*
X8645119Y-17488929D01*
X8645119Y-17488929D02*
X8635595Y-17507976D01*
X8635595Y-17507976D02*
X8626072Y-17517500D01*
X8626072Y-17517500D02*
X8607024Y-17527024D01*
X8607024Y-17527024D02*
X8587976Y-17527024D01*
X8587976Y-17527024D02*
X8568929Y-17517500D01*
X8568929Y-17517500D02*
X8559405Y-17507976D01*
X8559405Y-17507976D02*
X8549881Y-17488929D01*
X8549881Y-17488929D02*
X8540357Y-17450833D01*
X8540357Y-17450833D02*
X8540357Y-17403214D01*
X8540357Y-17403214D02*
X8549881Y-17365119D01*
X8549881Y-17365119D02*
X8559405Y-17346071D01*
X8559405Y-17346071D02*
X8568929Y-17336548D01*
X8568929Y-17336548D02*
X8587976Y-17327024D01*
X8740357Y-17507976D02*
X8749881Y-17517500D01*
X8749881Y-17517500D02*
X8740357Y-17527024D01*
X8740357Y-17527024D02*
X8730834Y-17517500D01*
X8730834Y-17517500D02*
X8740357Y-17507976D01*
X8740357Y-17507976D02*
X8740357Y-17527024D01*
X8873691Y-17327024D02*
X8892738Y-17327024D01*
X8892738Y-17327024D02*
X8911786Y-17336548D01*
X8911786Y-17336548D02*
X8921310Y-17346071D01*
X8921310Y-17346071D02*
X8930834Y-17365119D01*
X8930834Y-17365119D02*
X8940357Y-17403214D01*
X8940357Y-17403214D02*
X8940357Y-17450833D01*
X8940357Y-17450833D02*
X8930834Y-17488929D01*
X8930834Y-17488929D02*
X8921310Y-17507976D01*
X8921310Y-17507976D02*
X8911786Y-17517500D01*
X8911786Y-17517500D02*
X8892738Y-17527024D01*
X8892738Y-17527024D02*
X8873691Y-17527024D01*
X8873691Y-17527024D02*
X8854643Y-17517500D01*
X8854643Y-17517500D02*
X8845119Y-17507976D01*
X8845119Y-17507976D02*
X8835595Y-17488929D01*
X8835595Y-17488929D02*
X8826072Y-17450833D01*
X8826072Y-17450833D02*
X8826072Y-17403214D01*
X8826072Y-17403214D02*
X8835595Y-17365119D01*
X8835595Y-17365119D02*
X8845119Y-17346071D01*
X8845119Y-17346071D02*
X8854643Y-17336548D01*
X8854643Y-17336548D02*
X8873691Y-17327024D01*
X9007024Y-17327024D02*
X9130834Y-17327024D01*
X9130834Y-17327024D02*
X9064167Y-17403214D01*
X9064167Y-17403214D02*
X9092738Y-17403214D01*
X9092738Y-17403214D02*
X9111786Y-17412738D01*
X9111786Y-17412738D02*
X9121310Y-17422262D01*
X9121310Y-17422262D02*
X9130834Y-17441310D01*
X9130834Y-17441310D02*
X9130834Y-17488929D01*
X9130834Y-17488929D02*
X9121310Y-17507976D01*
X9121310Y-17507976D02*
X9111786Y-17517500D01*
X9111786Y-17517500D02*
X9092738Y-17527024D01*
X9092738Y-17527024D02*
X9035595Y-17527024D01*
X9035595Y-17527024D02*
X9016548Y-17517500D01*
X9016548Y-17517500D02*
X9007024Y-17507976D01*
X9226072Y-17527024D02*
X9264167Y-17527024D01*
X9264167Y-17527024D02*
X9283215Y-17517500D01*
X9283215Y-17517500D02*
X9292738Y-17507976D01*
X9292738Y-17507976D02*
X9311786Y-17479405D01*
X9311786Y-17479405D02*
X9321310Y-17441310D01*
X9321310Y-17441310D02*
X9321310Y-17365119D01*
X9321310Y-17365119D02*
X9311786Y-17346071D01*
X9311786Y-17346071D02*
X9302262Y-17336548D01*
X9302262Y-17336548D02*
X9283215Y-17327024D01*
X9283215Y-17327024D02*
X9245119Y-17327024D01*
X9245119Y-17327024D02*
X9226072Y-17336548D01*
X9226072Y-17336548D02*
X9216548Y-17346071D01*
X9216548Y-17346071D02*
X9207024Y-17365119D01*
X9207024Y-17365119D02*
X9207024Y-17412738D01*
X9207024Y-17412738D02*
X9216548Y-17431786D01*
X9216548Y-17431786D02*
X9226072Y-17441310D01*
X9226072Y-17441310D02*
X9245119Y-17450833D01*
X9245119Y-17450833D02*
X9283215Y-17450833D01*
X9283215Y-17450833D02*
X9302262Y-17441310D01*
X9302262Y-17441310D02*
X9311786Y-17431786D01*
X9311786Y-17431786D02*
X9321310Y-17412738D01*
X9492738Y-17393690D02*
X9492738Y-17527024D01*
X9445119Y-17317500D02*
X9397500Y-17460357D01*
X9397500Y-17460357D02*
X9521310Y-17460357D01*
X9587976Y-17327024D02*
X9587976Y-17365119D01*
X9664167Y-17327024D02*
X9664167Y-17365119D01*
X9959405Y-17603214D02*
X9949881Y-17593690D01*
X9949881Y-17593690D02*
X9930834Y-17565119D01*
X9930834Y-17565119D02*
X9921310Y-17546071D01*
X9921310Y-17546071D02*
X9911786Y-17517500D01*
X9911786Y-17517500D02*
X9902262Y-17469881D01*
X9902262Y-17469881D02*
X9902262Y-17431786D01*
X9902262Y-17431786D02*
X9911786Y-17384167D01*
X9911786Y-17384167D02*
X9921310Y-17355595D01*
X9921310Y-17355595D02*
X9930834Y-17336548D01*
X9930834Y-17336548D02*
X9949881Y-17307976D01*
X9949881Y-17307976D02*
X9959405Y-17298452D01*
X10026072Y-17346071D02*
X10035596Y-17336548D01*
X10035596Y-17336548D02*
X10054643Y-17327024D01*
X10054643Y-17327024D02*
X10102262Y-17327024D01*
X10102262Y-17327024D02*
X10121310Y-17336548D01*
X10121310Y-17336548D02*
X10130834Y-17346071D01*
X10130834Y-17346071D02*
X10140357Y-17365119D01*
X10140357Y-17365119D02*
X10140357Y-17384167D01*
X10140357Y-17384167D02*
X10130834Y-17412738D01*
X10130834Y-17412738D02*
X10016548Y-17527024D01*
X10016548Y-17527024D02*
X10140357Y-17527024D01*
X10216548Y-17346071D02*
X10226072Y-17336548D01*
X10226072Y-17336548D02*
X10245119Y-17327024D01*
X10245119Y-17327024D02*
X10292738Y-17327024D01*
X10292738Y-17327024D02*
X10311786Y-17336548D01*
X10311786Y-17336548D02*
X10321310Y-17346071D01*
X10321310Y-17346071D02*
X10330834Y-17365119D01*
X10330834Y-17365119D02*
X10330834Y-17384167D01*
X10330834Y-17384167D02*
X10321310Y-17412738D01*
X10321310Y-17412738D02*
X10207024Y-17527024D01*
X10207024Y-17527024D02*
X10330834Y-17527024D01*
X10407024Y-17346071D02*
X10416548Y-17336548D01*
X10416548Y-17336548D02*
X10435596Y-17327024D01*
X10435596Y-17327024D02*
X10483215Y-17327024D01*
X10483215Y-17327024D02*
X10502262Y-17336548D01*
X10502262Y-17336548D02*
X10511786Y-17346071D01*
X10511786Y-17346071D02*
X10521310Y-17365119D01*
X10521310Y-17365119D02*
X10521310Y-17384167D01*
X10521310Y-17384167D02*
X10511786Y-17412738D01*
X10511786Y-17412738D02*
X10397500Y-17527024D01*
X10397500Y-17527024D02*
X10521310Y-17527024D01*
X10759405Y-17527024D02*
X10759405Y-17327024D01*
X10845119Y-17527024D02*
X10845119Y-17422262D01*
X10845119Y-17422262D02*
X10835596Y-17403214D01*
X10835596Y-17403214D02*
X10816548Y-17393690D01*
X10816548Y-17393690D02*
X10787977Y-17393690D01*
X10787977Y-17393690D02*
X10768929Y-17403214D01*
X10768929Y-17403214D02*
X10759405Y-17412738D01*
X10968929Y-17527024D02*
X10949881Y-17517500D01*
X10949881Y-17517500D02*
X10940358Y-17507976D01*
X10940358Y-17507976D02*
X10930834Y-17488929D01*
X10930834Y-17488929D02*
X10930834Y-17431786D01*
X10930834Y-17431786D02*
X10940358Y-17412738D01*
X10940358Y-17412738D02*
X10949881Y-17403214D01*
X10949881Y-17403214D02*
X10968929Y-17393690D01*
X10968929Y-17393690D02*
X10997500Y-17393690D01*
X10997500Y-17393690D02*
X11016548Y-17403214D01*
X11016548Y-17403214D02*
X11026072Y-17412738D01*
X11026072Y-17412738D02*
X11035596Y-17431786D01*
X11035596Y-17431786D02*
X11035596Y-17488929D01*
X11035596Y-17488929D02*
X11026072Y-17507976D01*
X11026072Y-17507976D02*
X11016548Y-17517500D01*
X11016548Y-17517500D02*
X10997500Y-17527024D01*
X10997500Y-17527024D02*
X10968929Y-17527024D01*
X11149881Y-17527024D02*
X11130834Y-17517500D01*
X11130834Y-17517500D02*
X11121310Y-17498452D01*
X11121310Y-17498452D02*
X11121310Y-17327024D01*
X11302262Y-17517500D02*
X11283215Y-17527024D01*
X11283215Y-17527024D02*
X11245119Y-17527024D01*
X11245119Y-17527024D02*
X11226072Y-17517500D01*
X11226072Y-17517500D02*
X11216548Y-17498452D01*
X11216548Y-17498452D02*
X11216548Y-17422262D01*
X11216548Y-17422262D02*
X11226072Y-17403214D01*
X11226072Y-17403214D02*
X11245119Y-17393690D01*
X11245119Y-17393690D02*
X11283215Y-17393690D01*
X11283215Y-17393690D02*
X11302262Y-17403214D01*
X11302262Y-17403214D02*
X11311786Y-17422262D01*
X11311786Y-17422262D02*
X11311786Y-17441310D01*
X11311786Y-17441310D02*
X11216548Y-17460357D01*
X11387977Y-17517500D02*
X11407024Y-17527024D01*
X11407024Y-17527024D02*
X11445119Y-17527024D01*
X11445119Y-17527024D02*
X11464167Y-17517500D01*
X11464167Y-17517500D02*
X11473691Y-17498452D01*
X11473691Y-17498452D02*
X11473691Y-17488929D01*
X11473691Y-17488929D02*
X11464167Y-17469881D01*
X11464167Y-17469881D02*
X11445119Y-17460357D01*
X11445119Y-17460357D02*
X11416548Y-17460357D01*
X11416548Y-17460357D02*
X11397500Y-17450833D01*
X11397500Y-17450833D02*
X11387977Y-17431786D01*
X11387977Y-17431786D02*
X11387977Y-17422262D01*
X11387977Y-17422262D02*
X11397500Y-17403214D01*
X11397500Y-17403214D02*
X11416548Y-17393690D01*
X11416548Y-17393690D02*
X11445119Y-17393690D01*
X11445119Y-17393690D02*
X11464167Y-17403214D01*
X11540358Y-17603214D02*
X11549881Y-17593690D01*
X11549881Y-17593690D02*
X11568929Y-17565119D01*
X11568929Y-17565119D02*
X11578453Y-17546071D01*
X11578453Y-17546071D02*
X11587977Y-17517500D01*
X11587977Y-17517500D02*
X11597500Y-17469881D01*
X11597500Y-17469881D02*
X11597500Y-17431786D01*
X11597500Y-17431786D02*
X11587977Y-17384167D01*
X11587977Y-17384167D02*
X11578453Y-17355595D01*
X11578453Y-17355595D02*
X11568929Y-17336548D01*
X11568929Y-17336548D02*
X11549881Y-17307976D01*
X11549881Y-17307976D02*
X11540358Y-17298452D01*
M02*
