<?xml version="1.0" standalone="no"?>
<!DOCTYPE svg PUBLIC "-//W3C//DTD SVG 1.1//EN"
"http://www.w3.org/Graphics/SVG/1.1/DTD/svg11.dtd">
<svg width="601.134" height="223.181" viewBox="0 0 12523.6 4649.61" version="1.1"
xmlns="http://www.w3.org/2000/svg"
xmlns:xlink="http://www.w3.org/1999/xlink">
<circle cx="159.449" cy="159.449" r="19.685" style=""/>
<circle cx="969.685" cy="954.567" r="19.685" style=""/>
<circle cx="948.898" cy="1619.84" r="19.685" style=""/>
<circle cx="1440.94" cy="1766.54" r="19.685" style=""/>
<circle cx="1785.83" cy="1526.61" r="19.685" style=""/>
<circle cx="827.795" cy="2213.46" r="19.685" style=""/>
<circle cx="719.685" cy="2114.72" r="19.685" style=""/>
<circle cx="2750.47" cy="2681.81" r="19.685" style=""/>
<circle cx="2805.51" cy="2427.01" r="19.685" style=""/>
<circle cx="2908.9" cy="2064.96" r="19.685" style=""/>
<circle cx="3664.72" cy="2915.12" r="19.685" style=""/>
<circle cx="3768.74" cy="3170.08" r="19.685" style=""/>
<circle cx="3942.2" cy="2705.75" r="19.685" style=""/>
<circle cx="3913.46" cy="2316.54" r="19.685" style=""/>
<circle cx="4370.16" cy="2280" r="19.685" style=""/>
<circle cx="4124.41" cy="1775.35" r="19.685" style=""/>
<circle cx="4310.31" cy="1124.49" r="19.685" style=""/>
<circle cx="5080.24" cy="544.488" r="19.685" style=""/>
<circle cx="5817.56" cy="592.441" r="19.685" style=""/>
<circle cx="6452.76" cy="804.646" r="19.685" style=""/>
<circle cx="6151.81" cy="1451.97" r="19.685" style=""/>
<circle cx="6212.83" cy="1751.5" r="19.685" style=""/>
<circle cx="5725.12" cy="1687.95" r="19.685" style=""/>
<circle cx="5042.83" cy="2218.5" r="19.685" style=""/>
<circle cx="4701.97" cy="2915.12" r="19.685" style=""/>
<circle cx="4907.72" cy="3148.19" r="19.685" style=""/>
<circle cx="4767.24" cy="3262.99" r="19.685" style=""/>
<circle cx="5112.52" cy="3131.1" r="19.685" style=""/>
<circle cx="5826.85" cy="3695.43" r="19.685" style=""/>
<circle cx="6043.86" cy="3774.17" r="19.685" style=""/>
<circle cx="6415.12" cy="3991.5" r="19.685" style=""/>
<circle cx="6849.76" cy="3274.49" r="19.685" style=""/>
<circle cx="7137.17" cy="3039.21" r="19.685" style=""/>
<circle cx="7353.07" cy="3424.72" r="19.685" style=""/>
<circle cx="7843.7" cy="3142.83" r="19.685" style=""/>
<circle cx="8239.37" cy="2788.5" r="19.685" style=""/>
<circle cx="8412.68" cy="2096.54" r="19.685" style=""/>
<circle cx="8665.12" cy="1692.76" r="19.685" style=""/>
<circle cx="9052.2" cy="1579.53" r="19.685" style=""/>
<circle cx="9241.42" cy="1214.57" r="19.685" style=""/>
<circle cx="9247.17" cy="972.835" r="19.685" style=""/>
<circle cx="9919.21" cy="1120.47" r="19.685" style=""/>
<circle cx="10654.1" cy="1546.69" r="19.685" style=""/>
<circle cx="10188.4" cy="2229.61" r="19.685" style=""/>
<circle cx="9467.56" cy="2891.73" r="19.685" style=""/>
<circle cx="9248.43" cy="2072.76" r="19.685" style=""/>
<circle cx="8507.48" cy="991.969" r="19.685" style=""/>
<circle cx="6557.64" cy="3260.31" r="19.685" style=""/>
<circle cx="2972.28" cy="2973.7" r="19.685" style=""/>
<circle cx="2874.72" cy="3905.2" r="19.685" style=""/>
<circle cx="11413.9" cy="1441.34" r="19.685" style=""/>
<circle cx="11541.4" cy="1128.9" r="19.685" style=""/>
<circle cx="11450.5" cy="1766.77" r="19.685" style=""/>
<circle cx="11643.1" cy="2008.03" r="19.685" style=""/>
<circle cx="11650.8" cy="2487.56" r="19.685" style=""/>
<circle cx="11620.6" cy="2810.55" r="19.685" style=""/>
<circle cx="1203.54" cy="740.551" r="31.4961" style=""/>
<circle cx="1403.54" cy="740.551" r="31.4961" style=""/>
<circle cx="1603.54" cy="740.551" r="31.4961" style=""/>
<circle cx="1803.54" cy="740.551" r="31.4961" style=""/>
<circle cx="2003.54" cy="740.551" r="31.4961" style=""/>
<circle cx="2203.54" cy="740.551" r="31.4961" style=""/>
<circle cx="2403.54" cy="740.551" r="31.4961" style=""/>
<circle cx="2603.54" cy="740.551" r="31.4961" style=""/>
<circle cx="2003.54" cy="1340.55" r="31.4961" style=""/>
<circle cx="2203.54" cy="1340.55" r="31.4961" style=""/>
<circle cx="2403.54" cy="1340.55" r="31.4961" style=""/>
<circle cx="2603.54" cy="1340.55" r="31.4961" style=""/>
<circle cx="2000.39" cy="1961.02" r="31.4961" style=""/>
<circle cx="1800.39" cy="1961.02" r="31.4961" style=""/>
<circle cx="1600.39" cy="1961.02" r="31.4961" style=""/>
<circle cx="1400.39" cy="1961.02" r="31.4961" style=""/>
<circle cx="1200.39" cy="1961.02" r="31.4961" style=""/>
<circle cx="1200.39" cy="2561.02" r="31.4961" style=""/>
<circle cx="1400.39" cy="2561.02" r="31.4961" style=""/>
<circle cx="1600.39" cy="2561.02" r="31.4961" style=""/>
<circle cx="1800.39" cy="2561.02" r="31.4961" style=""/>
<circle cx="2000.39" cy="2561.02" r="31.4961" style=""/>
<circle cx="2200.39" cy="2561.02" r="31.4961" style=""/>
<circle cx="2400.39" cy="2561.02" r="31.4961" style=""/>
<circle cx="2600.39" cy="2561.02" r="31.4961" style=""/>
<circle cx="2200.39" cy="1961.02" r="31.4961" style=""/>
<circle cx="2400.39" cy="1961.02" r="31.4961" style=""/>
<circle cx="2600.39" cy="1961.02" r="31.4961" style=""/>
<circle cx="3230.31" cy="1468.11" r="31.4961" style=""/>
<circle cx="3230.31" cy="1668.11" r="31.4961" style=""/>
<circle cx="3230.31" cy="1868.11" r="31.4961" style=""/>
<circle cx="3230.31" cy="2068.11" r="31.4961" style=""/>
<circle cx="3230.31" cy="2268.11" r="31.4961" style=""/>
<circle cx="3230.31" cy="2468.11" r="31.4961" style=""/>
<circle cx="2285.04" cy="3480.71" r="31.4961" style=""/>
<circle cx="2085.04" cy="3480.71" r="31.4961" style=""/>
<circle cx="1885.04" cy="3480.71" r="31.4961" style=""/>
<circle cx="1685.04" cy="3480.71" r="31.4961" style=""/>
<circle cx="1274.41" cy="3387.8" r="31.4961" style=""/>
<circle cx="1685.04" cy="4080.71" r="31.4961" style=""/>
<circle cx="1885.04" cy="4080.71" r="31.4961" style=""/>
<circle cx="2085.04" cy="4080.71" r="31.4961" style=""/>
<circle cx="2285.04" cy="4080.71" r="31.4961" style=""/>
<circle cx="2485.04" cy="4080.71" r="31.4961" style=""/>
<circle cx="2685.04" cy="4080.71" r="31.4961" style=""/>
<circle cx="2885.04" cy="4080.71" r="31.4961" style=""/>
<circle cx="2485.04" cy="3480.71" r="31.4961" style=""/>
<circle cx="2685.04" cy="3480.71" r="31.4961" style=""/>
<circle cx="2885.04" cy="3480.71" r="31.4961" style=""/>
<circle cx="4253.94" cy="2649.21" r="31.4961" style=""/>
<circle cx="4453.94" cy="2649.21" r="31.4961" style=""/>
<circle cx="4653.94" cy="2649.21" r="31.4961" style=""/>
<circle cx="4853.94" cy="2649.21" r="31.4961" style=""/>
<circle cx="5053.94" cy="2649.21" r="31.4961" style=""/>
<circle cx="5253.94" cy="2649.21" r="31.4961" style=""/>
<circle cx="5453.94" cy="2649.21" r="31.4961" style=""/>
<circle cx="5653.94" cy="2649.21" r="31.4961" style=""/>
<circle cx="5853.94" cy="2649.21" r="31.4961" style=""/>
<circle cx="6053.94" cy="2649.21" r="31.4961" style=""/>
<circle cx="5653.94" cy="2049.21" r="31.4961" style=""/>
<circle cx="5853.94" cy="2049.21" r="31.4961" style=""/>
<circle cx="6053.94" cy="2049.21" r="31.4961" style=""/>
<circle cx="5453.94" cy="2049.21" r="31.4961" style=""/>
<circle cx="5253.94" cy="2049.21" r="31.4961" style=""/>
<circle cx="5053.94" cy="2049.21" r="31.4961" style=""/>
<circle cx="4853.94" cy="2049.21" r="31.4961" style=""/>
<circle cx="4653.94" cy="2049.21" r="31.4961" style=""/>
<circle cx="4453.94" cy="2049.21" r="31.4961" style=""/>
<circle cx="4253.94" cy="2049.21" r="31.4961" style=""/>
<circle cx="4271.26" cy="1390.55" r="31.4961" style=""/>
<circle cx="4471.26" cy="1390.55" r="31.4961" style=""/>
<circle cx="4671.26" cy="1390.55" r="31.4961" style=""/>
<circle cx="4871.26" cy="1390.55" r="31.4961" style=""/>
<circle cx="5071.26" cy="1390.55" r="31.4961" style=""/>
<circle cx="5271.26" cy="1390.55" r="31.4961" style=""/>
<circle cx="5471.26" cy="1390.55" r="31.4961" style=""/>
<circle cx="5671.26" cy="1390.55" r="31.4961" style=""/>
<circle cx="5071.26" cy="790.551" r="31.4961" style=""/>
<circle cx="4871.26" cy="790.551" r="31.4961" style=""/>
<circle cx="4671.26" cy="790.551" r="31.4961" style=""/>
<circle cx="4471.26" cy="790.551" r="31.4961" style=""/>
<circle cx="4271.26" cy="790.551" r="31.4961" style=""/>
<circle cx="5271.26" cy="790.551" r="31.4961" style=""/>
<circle cx="5471.26" cy="790.551" r="31.4961" style=""/>
<circle cx="5671.26" cy="790.551" r="31.4961" style=""/>
<circle cx="6773.62" cy="868.11" r="31.4961" style=""/>
<circle cx="6773.62" cy="1068.11" r="31.4961" style=""/>
<circle cx="6773.62" cy="1268.11" r="31.4961" style=""/>
<circle cx="6773.62" cy="1468.11" r="31.4961" style=""/>
<circle cx="6773.62" cy="1668.11" r="31.4961" style=""/>
<circle cx="6773.62" cy="1868.11" r="31.4961" style=""/>
<circle cx="6773.62" cy="2068.11" r="31.4961" style=""/>
<circle cx="6773.62" cy="2268.11" r="31.4961" style=""/>
<circle cx="6773.62" cy="2468.11" r="31.4961" style=""/>
<circle cx="7735.83" cy="1921.65" r="31.4961" style=""/>
<circle cx="7935.83" cy="1921.65" r="31.4961" style=""/>
<circle cx="8135.83" cy="1921.65" r="31.4961" style=""/>
<circle cx="8335.83" cy="1921.65" r="31.4961" style=""/>
<circle cx="8535.83" cy="1921.65" r="31.4961" style=""/>
<circle cx="8735.83" cy="1921.65" r="31.4961" style=""/>
<circle cx="8935.83" cy="1921.65" r="31.4961" style=""/>
<circle cx="9135.83" cy="1921.65" r="31.4961" style=""/>
<circle cx="8735.83" cy="1340.55" r="31.4961" style=""/>
<circle cx="8935.83" cy="1340.55" r="31.4961" style=""/>
<circle cx="9135.83" cy="1340.55" r="31.4961" style=""/>
<circle cx="8535.83" cy="1340.55" r="31.4961" style=""/>
<circle cx="8335.83" cy="1340.55" r="31.4961" style=""/>
<circle cx="8135.83" cy="1340.55" r="31.4961" style=""/>
<circle cx="7935.83" cy="1340.55" r="31.4961" style=""/>
<circle cx="7735.83" cy="1340.55" r="31.4961" style=""/>
<circle cx="7735.83" cy="740.551" r="31.4961" style=""/>
<circle cx="7935.83" cy="740.551" r="31.4961" style=""/>
<circle cx="8135.83" cy="740.551" r="31.4961" style=""/>
<circle cx="8335.83" cy="740.551" r="31.4961" style=""/>
<circle cx="8535.83" cy="740.551" r="31.4961" style=""/>
<circle cx="8735.83" cy="740.551" r="31.4961" style=""/>
<circle cx="8935.83" cy="740.551" r="31.4961" style=""/>
<circle cx="9135.83" cy="740.551" r="31.4961" style=""/>
<circle cx="10098" cy="710.63" r="31.4961" style=""/>
<circle cx="10298" cy="710.63" r="31.4961" style=""/>
<circle cx="10498" cy="710.63" r="31.4961" style=""/>
<circle cx="10698" cy="710.63" r="31.4961" style=""/>
<circle cx="10898" cy="710.63" r="31.4961" style=""/>
<circle cx="11098" cy="710.63" r="31.4961" style=""/>
<circle cx="11298" cy="710.63" r="31.4961" style=""/>
<circle cx="11498" cy="710.63" r="31.4961" style=""/>
<circle cx="11098" cy="1310.63" r="31.4961" style=""/>
<circle cx="10898" cy="1310.63" r="31.4961" style=""/>
<circle cx="10698" cy="1310.63" r="31.4961" style=""/>
<circle cx="10498" cy="1310.63" r="31.4961" style=""/>
<circle cx="10298" cy="1310.63" r="31.4961" style=""/>
<circle cx="10098" cy="1310.63" r="31.4961" style=""/>
<circle cx="10098" cy="1921.65" r="31.4961" style=""/>
<circle cx="10298" cy="1921.65" r="31.4961" style=""/>
<circle cx="10498" cy="1921.65" r="31.4961" style=""/>
<circle cx="10698" cy="1921.65" r="31.4961" style=""/>
<circle cx="10898" cy="1921.65" r="31.4961" style=""/>
<circle cx="11098" cy="1921.65" r="31.4961" style=""/>
<circle cx="11298" cy="1921.65" r="31.4961" style=""/>
<circle cx="11498" cy="1921.65" r="31.4961" style=""/>
<circle cx="11098" cy="2521.65" r="31.4961" style=""/>
<circle cx="10898" cy="2521.65" r="31.4961" style=""/>
<circle cx="10698" cy="2521.65" r="31.4961" style=""/>
<circle cx="10498" cy="2521.65" r="31.4961" style=""/>
<circle cx="10298" cy="2521.65" r="31.4961" style=""/>
<circle cx="10098" cy="2521.65" r="31.4961" style=""/>
<circle cx="9819.29" cy="3466.54" r="31.4961" style=""/>
<circle cx="10019.3" cy="3466.54" r="31.4961" style=""/>
<circle cx="10219.3" cy="3466.54" r="31.4961" style=""/>
<circle cx="10419.3" cy="3466.54" r="31.4961" style=""/>
<circle cx="10619.3" cy="3466.54" r="31.4961" style=""/>
<circle cx="10819.3" cy="3466.54" r="31.4961" style=""/>
<circle cx="11019.3" cy="3466.54" r="31.4961" style=""/>
<circle cx="11219.3" cy="3466.54" r="31.4961" style=""/>
<circle cx="11419.3" cy="3466.54" r="31.4961" style=""/>
<circle cx="11298" cy="2521.65" r="31.4961" style=""/>
<circle cx="11498" cy="2521.65" r="31.4961" style=""/>
<circle cx="11298" cy="1310.63" r="31.4961" style=""/>
<circle cx="11498" cy="1310.63" r="31.4961" style=""/>
<circle cx="9135.83" cy="2521.65" r="31.4961" style=""/>
<circle cx="8935.83" cy="2521.65" r="31.4961" style=""/>
<circle cx="8735.83" cy="2521.65" r="31.4961" style=""/>
<circle cx="8535.83" cy="2521.65" r="31.4961" style=""/>
<circle cx="8335.83" cy="2521.65" r="31.4961" style=""/>
<circle cx="8135.83" cy="2521.65" r="31.4961" style=""/>
<circle cx="7935.83" cy="2521.65" r="31.4961" style=""/>
<circle cx="7735.83" cy="2521.65" r="31.4961" style=""/>
<circle cx="5671.26" cy="3388.98" r="31.4961" style=""/>
<circle cx="5471.26" cy="3388.98" r="31.4961" style=""/>
<circle cx="5271.26" cy="3388.98" r="31.4961" style=""/>
<circle cx="5071.26" cy="3388.98" r="31.4961" style=""/>
<circle cx="4871.26" cy="3388.98" r="31.4961" style=""/>
<circle cx="4671.26" cy="3388.98" r="31.4961" style=""/>
<circle cx="4471.26" cy="3388.98" r="31.4961" style=""/>
<circle cx="4271.26" cy="3388.98" r="31.4961" style=""/>
<circle cx="4271.26" cy="3988.98" r="31.4961" style=""/>
<circle cx="4471.26" cy="3988.98" r="31.4961" style=""/>
<circle cx="4671.26" cy="3988.98" r="31.4961" style=""/>
<circle cx="4871.26" cy="3988.98" r="31.4961" style=""/>
<circle cx="5071.26" cy="3988.98" r="31.4961" style=""/>
<circle cx="5271.26" cy="3988.98" r="31.4961" style=""/>
<circle cx="5471.26" cy="3988.98" r="31.4961" style=""/>
<circle cx="5671.26" cy="3988.98" r="31.4961" style=""/>
<circle cx="3230.31" cy="1268.11" r="31.4961" style=""/>
<circle cx="3230.31" cy="1068.11" r="31.4961" style=""/>
<circle cx="3230.31" cy="868.11" r="31.4961" style=""/>
<circle cx="1803.54" cy="1340.55" r="31.4961" style=""/>
<circle cx="1603.54" cy="1340.55" r="31.4961" style=""/>
<circle cx="1403.54" cy="1340.55" r="31.4961" style=""/>
<circle cx="1203.54" cy="1340.55" r="31.4961" style=""/>
<circle cx="474.409" cy="3387.8" r="31.4961" style=""/>
<circle cx="474.409" cy="1104.33" r="39.3701" style=""/>
<circle cx="474.409" cy="1304.33" r="39.3701" style=""/>
<circle cx="474.409" cy="1504.33" r="39.3701" style=""/>
<circle cx="474.409" cy="1704.33" r="39.3701" style=""/>
<circle cx="474.409" cy="1904.33" r="39.3701" style=""/>
<circle cx="474.409" cy="2104.33" r="39.3701" style=""/>
<circle cx="474.409" cy="2304.33" r="39.3701" style=""/>
<circle cx="474.409" cy="2504.33" r="39.3701" style=""/>
<circle cx="474.409" cy="4096.46" r="39.3701" style=""/>
<circle cx="674.409" cy="4096.46" r="39.3701" style=""/>
<circle cx="874.409" cy="4096.46" r="39.3701" style=""/>
<circle cx="1074.41" cy="4096.46" r="39.3701" style=""/>
<circle cx="3545.28" cy="1704.33" r="39.3701" style=""/>
<circle cx="3545.28" cy="1904.33" r="39.3701" style=""/>
<circle cx="3545.28" cy="2104.33" r="39.3701" style=""/>
<circle cx="3545.28" cy="2304.33" r="39.3701" style=""/>
<circle cx="3545.28" cy="2504.33" r="39.3701" style=""/>
<circle cx="3545.28" cy="1504.33" r="39.3701" style=""/>
<circle cx="3545.28" cy="1304.33" r="39.3701" style=""/>
<circle cx="3545.28" cy="1104.33" r="39.3701" style=""/>
<circle cx="3545.28" cy="789.37" r="39.3701" style=""/>
<circle cx="3945.28" cy="789.37" r="39.3701" style=""/>
<circle cx="7088.58" cy="789.37" r="39.3701" style=""/>
<circle cx="7088.58" cy="1104.33" r="39.3701" style=""/>
<circle cx="7088.58" cy="1304.33" r="39.3701" style=""/>
<circle cx="7088.58" cy="1504.33" r="39.3701" style=""/>
<circle cx="7088.58" cy="1704.33" r="39.3701" style=""/>
<circle cx="7088.58" cy="1904.33" r="39.3701" style=""/>
<circle cx="7088.58" cy="2104.33" r="39.3701" style=""/>
<circle cx="7088.58" cy="2304.33" r="39.3701" style=""/>
<circle cx="7088.58" cy="2504.33" r="39.3701" style=""/>
<circle cx="7797.24" cy="3309.06" r="39.3701" style=""/>
<circle cx="8112.2" cy="3309.06" r="39.3701" style=""/>
<circle cx="8427.17" cy="3302.76" r="39.3701" style=""/>
<circle cx="8742.13" cy="3302.76" r="39.3701" style=""/>
<circle cx="8427.17" cy="3702.76" r="39.3701" style=""/>
<circle cx="8742.13" cy="3702.76" r="39.3701" style=""/>
<circle cx="8488.58" cy="4096.46" r="39.3701" style=""/>
<circle cx="8688.58" cy="4096.46" r="39.3701" style=""/>
<circle cx="8888.58" cy="4096.46" r="39.3701" style=""/>
<circle cx="8288.58" cy="4096.46" r="39.3701" style=""/>
<circle cx="8088.58" cy="4096.46" r="39.3701" style=""/>
<circle cx="7888.58" cy="4096.46" r="39.3701" style=""/>
<circle cx="7688.58" cy="4096.46" r="39.3701" style=""/>
<circle cx="7488.58" cy="4096.46" r="39.3701" style=""/>
<circle cx="7288.58" cy="4096.46" r="39.3701" style=""/>
<circle cx="7088.58" cy="4096.46" r="39.3701" style=""/>
<circle cx="7797.24" cy="3709.06" r="39.3701" style=""/>
<circle cx="8112.2" cy="3709.06" r="39.3701" style=""/>
<circle cx="9608.27" cy="2304.33" r="39.3701" style=""/>
<circle cx="9608.27" cy="2104.33" r="39.3701" style=""/>
<circle cx="9608.27" cy="1904.33" r="39.3701" style=""/>
<circle cx="9608.27" cy="1704.33" r="39.3701" style=""/>
<circle cx="9608.27" cy="1504.33" r="39.3701" style=""/>
<circle cx="9608.27" cy="1304.33" r="39.3701" style=""/>
<circle cx="9608.27" cy="1104.33" r="39.3701" style=""/>
<circle cx="9608.27" cy="2504.33" r="39.3701" style=""/>
<circle cx="9608.27" cy="4096.46" r="39.3701" style=""/>
<circle cx="9808.27" cy="4096.46" r="39.3701" style=""/>
<circle cx="10008.3" cy="4096.46" r="39.3701" style=""/>
<circle cx="10208.3" cy="4096.46" r="39.3701" style=""/>
<circle cx="11455.5" cy="3860.24" r="39.3701" style=""/>
<circle cx="11855.5" cy="3860.24" r="39.3701" style=""/>
<circle cx="11970.5" cy="2504.33" r="39.3701" style=""/>
<circle cx="11970.5" cy="2304.33" r="39.3701" style=""/>
<circle cx="11970.5" cy="2104.33" r="39.3701" style=""/>
<circle cx="11970.5" cy="1904.33" r="39.3701" style=""/>
<circle cx="11970.5" cy="1704.33" r="39.3701" style=""/>
<circle cx="11970.5" cy="1504.33" r="39.3701" style=""/>
<circle cx="11970.5" cy="1304.33" r="39.3701" style=""/>
<circle cx="11970.5" cy="1104.33" r="39.3701" style=""/>
<circle cx="7488.58" cy="789.37" r="39.3701" style=""/>
</svg>
