M48
; DRILL file {KiCad 7.0.2} date Wed 10 May 2023 23:06:45 BST
; FORMAT={-:-/ absolute / metric / decimal}
; #@! TF.CreationDate,2023-05-10T23:06:45+01:00
; #@! TF.GenerationSoftware,Kicad,Pcbnew,7.0.2
; #@! TF.FileFunction,Plated,1,2,PTH
FMAT,2
METRIC
; #@! TA.AperFunction,Plated,PTH,ComponentDrill
T1C0.750
; #@! TA.AperFunction,Plated,PTH,ComponentDrill
T2C0.800
; #@! TA.AperFunction,Plated,PTH,ComponentDrill
T3C0.900
; #@! TA.AperFunction,Plated,PTH,ComponentDrill
T4C1.000
%
G90
G05
T1
X182.88Y-147.32
X184.15Y-146.05
X184.15Y-148.59
T2
X40.72Y-44.45
X41.91Y-68.58
X41.91Y-71.12
X41.91Y-73.66
X41.91Y-76.2
X41.91Y-78.74
X41.91Y-81.28
X41.91Y-83.82
X43.18Y-53.34
X43.18Y-60.96
X45.72Y-44.45
X45.72Y-53.34
X45.72Y-60.96
X46.99Y-92.71
X46.99Y-95.25
X46.99Y-97.79
X46.99Y-100.33
X46.99Y-102.87
X46.99Y-105.41
X46.99Y-107.95
X46.99Y-111.76
X46.99Y-114.3
X46.99Y-116.84
X46.99Y-119.38
X46.99Y-121.92
X46.99Y-124.46
X46.99Y-127.0
X47.0Y-132.07
X47.0Y-134.61
X47.0Y-137.15
X47.0Y-139.69
X47.0Y-142.23
X47.0Y-144.77
X47.0Y-147.31
X47.0Y-149.85
X48.26Y-53.34
X48.26Y-60.96
X49.525Y-40.64
X49.525Y-48.26
X49.53Y-68.58
X49.53Y-71.12
X49.53Y-73.66
X49.53Y-76.2
X49.53Y-78.74
X49.53Y-81.28
X49.53Y-83.82
X50.8Y-53.34
X50.8Y-60.96
X52.065Y-40.64
X52.065Y-48.26
X53.34Y-53.34
X53.34Y-60.96
X54.605Y-40.64
X54.605Y-48.26
X54.61Y-92.71
X54.61Y-95.25
X54.61Y-97.79
X54.61Y-100.33
X54.61Y-102.87
X54.61Y-105.41
X54.61Y-107.95
X54.61Y-111.76
X54.61Y-114.3
X54.61Y-116.84
X54.61Y-119.38
X54.61Y-121.92
X54.61Y-124.46
X54.61Y-127.0
X54.62Y-132.07
X54.62Y-134.61
X54.62Y-137.15
X54.62Y-139.69
X54.62Y-142.23
X54.62Y-144.77
X54.62Y-147.31
X54.62Y-149.85
X55.88Y-53.34
X55.88Y-60.96
X55.88Y-68.58
X55.88Y-71.12
X55.88Y-73.66
X55.88Y-76.2
X55.88Y-78.74
X55.88Y-81.28
X55.88Y-83.82
X55.88Y-86.36
X57.145Y-40.64
X57.145Y-48.26
X58.42Y-53.34
X58.42Y-60.96
X59.685Y-40.64
X59.685Y-48.26
X60.96Y-53.34
X60.96Y-60.96
X62.225Y-40.64
X62.225Y-48.26
X63.5Y-68.58
X63.5Y-71.12
X63.5Y-73.66
X63.5Y-76.2
X63.5Y-78.74
X63.5Y-81.28
X63.5Y-83.82
X63.5Y-86.36
X63.5Y-101.6
X63.5Y-109.22
X63.5Y-121.92
X63.5Y-129.54
X64.765Y-40.64
X64.765Y-48.26
X66.04Y-101.6
X66.04Y-109.22
X66.04Y-121.92
X66.04Y-129.54
X68.58Y-53.34
X68.58Y-60.96
X68.58Y-101.6
X68.58Y-109.22
X68.58Y-121.92
X68.58Y-129.54
X71.115Y-40.64
X71.115Y-48.26
X71.12Y-53.34
X71.12Y-60.96
X71.12Y-101.6
X71.12Y-109.22
X71.12Y-121.92
X71.12Y-129.54
X72.4Y-68.58
X72.4Y-71.12
X72.4Y-73.66
X72.4Y-76.2
X72.4Y-78.74
X72.4Y-81.28
X72.4Y-83.82
X72.4Y-86.36
X73.655Y-40.64
X73.655Y-48.26
X73.66Y-53.34
X73.66Y-60.96
X73.66Y-101.6
X73.66Y-109.22
X73.66Y-121.92
X73.66Y-129.54
X76.195Y-40.64
X76.195Y-48.26
X76.2Y-53.34
X76.2Y-60.96
X76.2Y-101.6
X76.2Y-109.22
X76.2Y-121.92
X76.2Y-129.54
X78.735Y-40.64
X78.735Y-48.26
X78.74Y-53.34
X78.74Y-60.96
X78.74Y-101.6
X78.74Y-109.22
X78.74Y-121.92
X78.74Y-129.54
X80.02Y-68.58
X80.02Y-71.12
X80.02Y-73.66
X80.02Y-76.2
X80.02Y-78.74
X80.02Y-81.28
X80.02Y-83.82
X80.02Y-86.36
X81.275Y-40.64
X81.275Y-48.26
X81.28Y-53.34
X81.28Y-60.96
X81.28Y-101.6
X81.28Y-109.22
X81.28Y-121.92
X81.28Y-129.54
X83.815Y-40.64
X83.815Y-48.26
X83.82Y-53.34
X83.82Y-60.96
X83.82Y-101.6
X83.82Y-109.22
X83.82Y-121.92
X83.82Y-129.54
X85.725Y-68.58
X85.725Y-78.74
X86.355Y-40.64
X86.355Y-48.26
X86.36Y-53.34
X86.36Y-60.96
X86.36Y-101.6
X86.36Y-109.22
X86.36Y-121.92
X86.36Y-129.54
X90.805Y-78.74
X90.805Y-93.98
X91.44Y-62.865
X91.44Y-70.485
X91.44Y-101.6
X91.44Y-111.76
X92.075Y-40.64
X92.075Y-43.18
X92.075Y-45.72
X92.075Y-48.26
X92.075Y-50.8
X92.075Y-53.34
X92.075Y-55.88
X93.345Y-78.74
X93.345Y-93.98
X93.98Y-62.865
X93.98Y-70.485
X95.885Y-78.74
X95.885Y-93.98
X96.52Y-62.865
X96.52Y-70.485
X98.425Y-78.74
X98.425Y-93.98
X99.06Y-62.865
X99.06Y-70.485
X99.06Y-132.08
X99.06Y-139.7
X99.695Y-40.64
X99.695Y-43.18
X99.695Y-45.72
X99.695Y-48.26
X99.695Y-50.8
X99.695Y-53.34
X99.695Y-55.88
X100.965Y-78.74
X100.965Y-93.98
X100.965Y-101.6
X100.965Y-109.22
X101.6Y-62.865
X101.6Y-70.485
X101.6Y-127.0
X101.6Y-132.08
X101.6Y-139.7
X103.505Y-78.74
X103.505Y-93.98
X103.505Y-101.6
X103.505Y-109.22
X104.14Y-62.865
X104.14Y-70.485
X104.14Y-127.0
X104.14Y-132.08
X104.14Y-139.7
X106.045Y-39.313
X106.045Y-44.313
X106.045Y-78.74
X106.045Y-93.98
X106.045Y-101.6
X106.045Y-109.22
X106.68Y-62.865
X106.68Y-70.485
X106.68Y-127.0
X106.68Y-132.08
X106.68Y-139.7
X108.585Y-78.74
X108.585Y-93.98
X108.585Y-101.6
X108.585Y-109.22
X109.22Y-127.0
X109.22Y-132.08
X109.22Y-139.7
X111.125Y-78.74
X111.125Y-93.98
X111.125Y-101.6
X111.125Y-109.22
X111.76Y-127.0
X111.76Y-132.08
X111.76Y-139.7
X113.665Y-47.625
X113.665Y-50.165
X113.665Y-52.705
X113.665Y-55.245
X113.665Y-57.785
X113.665Y-60.325
X113.665Y-62.865
X113.665Y-65.405
X113.665Y-67.945
X113.665Y-78.74
X113.665Y-93.98
X113.665Y-101.6
X113.665Y-109.22
X114.3Y-127.0
X114.3Y-132.08
X114.3Y-139.7
X116.205Y-78.74
X116.205Y-93.98
X116.205Y-101.6
X116.205Y-109.22
X116.84Y-127.0
X116.84Y-132.08
X116.84Y-139.7
X118.745Y-78.74
X118.745Y-93.98
X118.745Y-101.6
X118.745Y-109.22
X119.38Y-127.0
X119.38Y-132.08
X119.38Y-139.7
X119.965Y-45.095
X119.965Y-47.635
X119.965Y-50.175
X119.965Y-52.715
X119.965Y-55.255
X119.965Y-57.795
X119.965Y-60.335
X119.965Y-62.875
X119.965Y-65.415
X119.965Y-67.955
X121.285Y-78.74
X121.285Y-93.98
X121.92Y-127.0
X121.92Y-132.08
X121.92Y-139.7
X123.825Y-78.74
X123.825Y-93.98
X126.365Y-78.74
X126.365Y-93.98
X126.365Y-101.6
X126.365Y-109.22
X127.585Y-45.095
X127.585Y-47.635
X127.585Y-50.175
X127.585Y-52.715
X127.585Y-55.255
X127.585Y-57.795
X127.585Y-60.335
X127.585Y-62.875
X127.585Y-65.415
X127.585Y-67.955
X128.905Y-78.74
X128.905Y-93.98
X128.905Y-101.6
X128.905Y-109.22
X131.445Y-101.6
X131.445Y-109.22
X133.945Y-47.625
X133.945Y-50.165
X133.945Y-52.705
X133.945Y-55.245
X133.945Y-57.785
X133.945Y-60.325
X133.945Y-62.865
X133.945Y-65.405
X133.945Y-67.945
X133.985Y-101.6
X133.985Y-109.22
X136.525Y-101.6
X136.525Y-109.22
X137.16Y-116.84
X137.16Y-124.46
X137.16Y-132.08
X137.16Y-139.7
X137.795Y-77.47
X137.795Y-80.01
X137.795Y-82.55
X137.795Y-85.09
X137.795Y-87.63
X137.795Y-90.17
X137.795Y-92.71
X137.795Y-95.25
X139.065Y-101.6
X139.065Y-109.22
X139.7Y-116.84
X139.7Y-124.46
X139.7Y-132.08
X139.7Y-139.7
X141.605Y-101.6
X141.605Y-109.22
X142.24Y-116.84
X142.24Y-124.46
X142.24Y-132.08
X142.24Y-139.7
X142.875Y-42.545
X144.105Y-47.625
X144.105Y-50.165
X144.105Y-52.705
X144.105Y-55.245
X144.105Y-57.785
X144.105Y-60.325
X144.105Y-62.865
X144.105Y-65.405
X144.145Y-101.6
X144.145Y-109.22
X144.78Y-116.84
X144.78Y-124.46
X144.78Y-132.08
X144.78Y-139.7
X145.415Y-77.47
X145.415Y-80.01
X145.415Y-82.55
X145.415Y-85.09
X145.415Y-87.63
X145.415Y-90.17
X145.415Y-92.71
X145.415Y-95.25
X147.32Y-116.84
X147.32Y-124.46
X147.32Y-132.08
X147.32Y-139.7
X149.86Y-116.84
X149.86Y-124.46
X149.86Y-132.08
X149.86Y-139.7
X151.725Y-47.625
X151.725Y-50.165
X151.725Y-52.705
X151.725Y-55.245
X151.725Y-57.785
X151.725Y-60.325
X151.725Y-62.865
X151.725Y-65.405
X151.765Y-92.71
X151.765Y-95.25
X151.765Y-97.79
X151.765Y-100.33
X151.765Y-102.87
X151.765Y-105.41
X151.765Y-107.95
X151.765Y-110.49
X152.4Y-116.84
X152.4Y-124.46
X152.4Y-132.08
X152.4Y-139.7
X153.035Y-42.545
X154.94Y-116.84
X154.94Y-124.46
X154.94Y-132.08
X154.94Y-139.7
X157.48Y-116.84
X157.48Y-124.46
X157.48Y-132.08
X157.48Y-139.7
X158.75Y-73.025
X158.75Y-83.185
X159.385Y-92.71
X159.385Y-95.25
X159.385Y-97.79
X159.385Y-100.33
X159.385Y-102.87
X159.385Y-105.41
X159.385Y-107.95
X159.385Y-110.49
X160.02Y-116.84
X160.02Y-124.46
X160.02Y-132.08
X160.02Y-139.7
X165.1Y-73.66
X165.1Y-76.2
X165.1Y-78.74
X165.1Y-81.28
X165.1Y-83.82
X165.1Y-86.36
X165.1Y-88.9
X165.1Y-91.44
X165.1Y-93.98
X165.1Y-116.84
X165.1Y-127.0
X174.625Y-47.625
X175.26Y-73.66
X175.26Y-76.2
X175.26Y-78.74
X175.26Y-81.28
X175.26Y-83.82
X175.26Y-86.36
X175.26Y-88.9
X175.26Y-99.06
X175.26Y-101.6
X175.26Y-104.14
X175.26Y-106.68
X175.26Y-109.22
X175.26Y-111.76
X175.26Y-114.3
X175.26Y-116.84
X175.26Y-119.38
X175.26Y-121.92
X175.26Y-124.46
X175.26Y-127.0
X175.26Y-129.54
X175.26Y-132.08
X175.26Y-134.62
X175.26Y-137.16
X177.8Y-93.98
X180.34Y-142.24
X180.34Y-152.4
X182.88Y-73.66
X182.88Y-76.2
X182.88Y-78.74
X182.88Y-81.28
X182.88Y-83.82
X182.88Y-86.36
X182.88Y-88.9
X184.785Y-47.625
X187.96Y-93.98
X187.96Y-142.24
X187.96Y-152.4
X189.23Y-47.625
X190.5Y-73.665
X190.5Y-76.205
X190.5Y-78.745
X190.5Y-81.285
X190.5Y-83.825
X190.5Y-86.365
X190.5Y-88.905
X190.5Y-99.06
X190.5Y-101.6
X190.5Y-104.14
X190.5Y-106.68
X190.5Y-109.22
X190.5Y-111.76
X190.5Y-114.3
X190.5Y-116.84
X190.5Y-119.38
X190.5Y-121.92
X190.5Y-124.46
X190.5Y-127.0
X190.5Y-129.54
X190.5Y-132.08
X190.5Y-134.62
X190.5Y-137.16
X195.58Y-130.15
X195.58Y-139.7
X198.12Y-73.665
X198.12Y-76.205
X198.12Y-78.745
X198.12Y-81.285
X198.12Y-83.825
X198.12Y-86.365
X198.12Y-88.905
X199.39Y-47.625
X200.58Y-130.15
X200.58Y-139.7
X200.66Y-99.06
X200.66Y-101.6
X200.66Y-104.14
X200.66Y-106.68
X200.66Y-109.22
X200.66Y-111.76
X200.66Y-114.3
X200.66Y-116.84
X200.66Y-119.38
X200.66Y-121.92
X203.2Y-134.62
X205.74Y-73.66
X205.74Y-76.2
X205.74Y-78.74
X205.74Y-81.28
X205.74Y-83.82
X205.74Y-86.36
X205.74Y-88.9
X208.2Y-134.62
X208.28Y-99.06
X208.28Y-101.6
X208.28Y-104.14
X208.28Y-106.68
X208.28Y-109.22
X208.28Y-111.76
X208.28Y-114.3
X208.28Y-116.84
X208.28Y-119.38
X208.28Y-121.92
X213.36Y-73.66
X213.36Y-76.2
X213.36Y-78.74
X213.36Y-81.28
X213.36Y-83.82
X213.36Y-86.36
X213.36Y-88.9
X213.36Y-132.08
X213.36Y-142.24
T3
X210.82Y-149.86
X213.36Y-149.86
T4
X43.18Y-92.71
X43.18Y-95.25
X43.18Y-97.79
X62.23Y-135.89
X62.23Y-140.97
X62.23Y-146.05
X62.23Y-151.13
X63.5Y-96.52
X63.5Y-116.84
X66.04Y-96.52
X66.04Y-116.84
X67.31Y-135.89
X67.31Y-140.97
X67.31Y-146.05
X67.31Y-151.13
X68.58Y-96.52
X68.58Y-116.84
X71.12Y-96.52
X71.12Y-116.84
X73.66Y-96.52
X73.66Y-116.84
X73.66Y-152.4
X76.2Y-96.52
X76.2Y-116.84
X76.2Y-148.59
X76.2Y-152.4
X78.74Y-96.52
X78.74Y-116.84
X78.74Y-148.59
X78.74Y-152.4
X81.28Y-96.52
X81.28Y-116.84
X81.28Y-148.59
X81.28Y-152.4
X83.82Y-148.59
X83.82Y-152.4
X86.36Y-138.43
X86.36Y-143.51
X86.36Y-148.59
X86.36Y-152.4
X88.9Y-148.59
X88.9Y-152.4
X91.44Y-148.59
X91.44Y-152.4
X93.98Y-121.92
X93.98Y-127.0
X93.98Y-148.59
X93.98Y-152.4
X96.52Y-152.4
X99.06Y-121.92
X99.06Y-152.4
X101.6Y-121.92
X101.6Y-152.4
X104.14Y-121.92
X104.14Y-152.4
X106.68Y-49.53
X106.68Y-54.61
X106.68Y-121.92
X106.68Y-152.4
X109.22Y-121.92
X109.22Y-152.4
X111.76Y-121.92
X111.76Y-152.4
X112.395Y-41.275
X114.3Y-121.92
X114.3Y-152.4
X116.84Y-121.92
X116.84Y-152.4
X117.475Y-41.275
X119.38Y-152.4
X121.235Y-41.285
X121.92Y-152.4
X124.46Y-152.4
X126.315Y-41.285
X127.0Y-152.4
X129.54Y-152.4
X132.08Y-152.4
X133.945Y-42.545
X134.62Y-152.4
X137.16Y-152.4
X139.025Y-42.545
X139.025Y-47.625
X139.025Y-50.165
X139.025Y-52.705
X139.025Y-55.245
X139.025Y-57.785
X139.025Y-60.325
X139.025Y-62.865
X139.025Y-65.405
X139.7Y-152.4
X142.24Y-152.4
X144.78Y-152.4
X147.32Y-152.4
X149.86Y-152.4
X152.4Y-152.4
X154.94Y-152.4
X157.48Y-43.18
X157.48Y-45.72
X157.48Y-48.26
X157.48Y-50.8
X157.48Y-53.34
X157.48Y-55.88
X157.48Y-58.42
X157.48Y-60.96
X157.48Y-152.4
X160.02Y-152.4
X162.56Y-40.64
X162.56Y-65.64
X162.56Y-152.4
X165.1Y-40.64
X165.1Y-65.64
X165.1Y-99.06
X165.1Y-152.4
X167.64Y-40.64
X167.64Y-65.64
X167.64Y-152.4
X170.18Y-40.64
X170.18Y-65.64
X170.18Y-99.06
X170.18Y-152.4
X172.72Y-40.64
X172.72Y-65.64
X172.72Y-152.4
X175.26Y-40.64
X175.26Y-65.64
X177.8Y-40.64
X177.8Y-65.64
X179.07Y-53.34
X179.07Y-58.42
X180.34Y-40.64
X180.34Y-65.64
X182.88Y-40.64
X182.88Y-65.64
X185.42Y-40.64
X185.42Y-53.34
X185.42Y-58.42
X185.42Y-65.64
X187.96Y-40.64
X187.96Y-65.64
X190.5Y-40.64
X190.5Y-65.64
X191.77Y-53.34
X191.77Y-58.42
X193.04Y-40.64
X193.04Y-65.64
X195.58Y-40.64
X195.58Y-65.64
X198.12Y-40.64
X198.12Y-59.69
X198.12Y-65.64
X198.12Y-149.86
X200.66Y-40.64
X200.66Y-65.64
X200.66Y-149.86
X203.2Y-40.64
X203.2Y-59.69
X203.2Y-65.64
X203.2Y-149.86
X205.74Y-40.64
X205.74Y-65.64
X208.28Y-40.64
X208.28Y-65.64
X210.82Y-40.64
X210.82Y-65.64
X213.36Y-40.64
X213.36Y-65.64
T0
M30
