M48
; DRILL file {KiCad 7.0.2} date Wed 07 Jun 2023 18:29:06 BST
; FORMAT={-:-/ absolute / metric / decimal}
; #@! TF.CreationDate,2023-06-07T18:29:06+01:00
; #@! TF.GenerationSoftware,Kicad,Pcbnew,7.0.2
; #@! TF.FileFunction,Plated,1,2,PTH
FMAT,2
METRIC
; #@! TA.AperFunction,Plated,PTH,ViaDrill
T1C0.500
; #@! TA.AperFunction,Plated,PTH,ComponentDrill
T2C0.800
; #@! TA.AperFunction,Plated,PTH,ComponentDrill
T3C1.000
%
G90
G05
T1
X0.0Y0.0
X8.531Y-14.965
X9.756Y-18.075
X33.985Y-11.509
X35.876Y-37.901
X36.77Y-21.581
X39.057Y-18.479
X41.909Y-34.991
X42.964Y-30.857
X44.185Y-33.664
X44.606Y-31.224
X46.416Y-13.076
X49.44Y-6.651
X55.036Y-9.595
X55.942Y-39.002
X66.048Y-22.388
X68.947Y-18.737
X72.467Y-14.16
T2
X4.0Y-10.84
X4.0Y-21.0
X4.0Y-26.0
X4.0Y-36.16
X10.0Y-13.38
X10.0Y-21.0
X10.0Y-26.18
X10.0Y-33.8
X12.54Y-13.38
X12.54Y-21.0
X12.54Y-26.18
X12.54Y-33.8
X15.08Y-13.38
X15.08Y-21.0
X15.08Y-26.18
X15.08Y-33.8
X17.62Y-13.38
X17.62Y-21.0
X17.62Y-26.18
X17.62Y-33.8
X20.16Y-13.38
X20.16Y-21.0
X20.16Y-26.18
X20.16Y-33.8
X22.7Y-13.38
X22.7Y-21.0
X22.7Y-26.18
X22.7Y-33.8
X25.24Y-13.38
X25.24Y-21.0
X25.24Y-26.18
X25.24Y-33.8
X27.78Y-13.38
X27.78Y-21.0
X27.78Y-26.18
X27.78Y-33.8
X30.32Y-13.38
X30.32Y-21.0
X30.32Y-26.18
X30.32Y-33.8
X32.86Y-13.38
X32.86Y-21.0
X32.86Y-26.18
X32.86Y-33.8
X51.0Y-11.76
X51.0Y-15.76
X51.0Y-31.0
X53.54Y-15.76
X53.54Y-31.0
X56.08Y-15.76
X56.08Y-31.0
X58.62Y-15.76
X58.62Y-31.0
X61.16Y-11.76
X61.16Y-15.76
X61.16Y-31.0
X63.7Y-15.76
X63.7Y-31.0
X66.24Y-15.76
X66.24Y-31.0
X68.78Y-15.76
X68.78Y-31.0
X71.32Y-15.76
X71.32Y-31.0
X73.86Y-15.76
X73.86Y-31.0
X76.4Y-15.76
X76.4Y-31.0
X78.94Y-15.76
X78.94Y-31.0
X81.48Y-15.76
X81.48Y-31.0
X84.02Y-15.76
X84.02Y-31.0
X86.56Y-15.76
X86.56Y-31.0
X89.1Y-15.76
X89.1Y-31.0
T3
X4.0Y-4.0
X4.0Y-41.0
X6.54Y-4.0
X6.54Y-41.0
X9.08Y-4.0
X9.08Y-41.0
X11.62Y-4.0
X11.62Y-41.0
X14.16Y-4.0
X14.16Y-41.0
X16.7Y-4.0
X16.7Y-41.0
X19.24Y-4.0
X19.24Y-41.0
X21.78Y-4.0
X21.78Y-41.0
X24.32Y-4.0
X24.32Y-41.0
X26.86Y-4.0
X26.86Y-41.0
X29.4Y-4.0
X29.4Y-41.0
X31.94Y-4.0
X31.94Y-41.0
X34.48Y-4.0
X34.48Y-41.0
X37.02Y-4.0
X37.02Y-41.0
X39.56Y-4.0
X39.56Y-41.0
X42.1Y-4.0
X42.1Y-41.0
X44.64Y-4.0
X44.64Y-41.0
X47.18Y-4.0
X47.18Y-41.0
X49.72Y-41.0
X52.26Y-41.0
X54.8Y-41.0
X57.34Y-41.0
X59.88Y-41.0
X62.42Y-41.0
T0
M30
