<?xml version="1.0" standalone="no"?>
<!DOCTYPE svg PUBLIC "-//W3C//DTD SVG 1.1//EN"
"http://www.w3.org/Graphics/SVG/1.1/DTD/svg11.dtd">
<svg width="374.362" height="185.386" viewBox="0 0 7799.21 3862.2" version="1.1"
xmlns="http://www.w3.org/2000/svg"
xmlns:xlink="http://www.w3.org/1999/xlink">
<g fill-rule="evenodd"><path d="M 407.48,3389.37 L 408.766,3376.31 L 412.575,3363.76 L 418.76,3352.19 L 427.083,3342.04 L 437.226,3333.72 L 448.797,3327.54 L 461.352,3323.73 L 474.409,3322.44 L 487.467,3323.73 L 500.022,3327.54 L 511.593,3333.72 L 521.735,3342.04 L 530.059,3352.19 L 536.244,3363.76 L 540.053,3376.31 L 541.339,3389.37 L 540.053,3402.43 L 536.244,3414.98 L 530.059,3426.55 L 521.735,3436.7 L 511.593,3445.02 L 500.022,3451.2 L 487.467,3455.01 L 474.409,3456.3 L 461.352,3455.01 L 448.797,3451.2 L 437.226,3445.02 L 427.083,3436.7 L 418.76,3426.55 L 412.575,3414.98 L 408.766,3402.43 L 407.48,3389.37 z " style="fill-opacity:1.000000;fill:rgb(103,198,105);stroke:rgb(0,0,0);stroke-width:2"/></g>
<g fill-rule="evenodd"><path d="M 407.48,3189.37 L 408.766,3176.31 L 412.575,3163.76 L 418.76,3152.19 L 427.083,3142.04 L 437.226,3133.72 L 448.797,3127.54 L 461.352,3123.73 L 474.409,3122.44 L 487.467,3123.73 L 500.022,3127.54 L 511.593,3133.72 L 521.735,3142.04 L 530.059,3152.19 L 536.244,3163.76 L 540.053,3176.31 L 541.339,3189.37 L 540.053,3202.43 L 536.244,3214.98 L 530.059,3226.55 L 521.735,3236.7 L 511.593,3245.02 L 500.022,3251.2 L 487.467,3255.01 L 474.409,3256.3 L 461.352,3255.01 L 448.797,3251.2 L 437.226,3245.02 L 427.083,3236.7 L 418.76,3226.55 L 412.575,3214.98 L 408.766,3202.43 L 407.48,3189.37 z " style="fill-opacity:1.000000;fill:rgb(115,81,255);stroke:rgb(0,0,0);stroke-width:2"/></g>
<g fill-rule="evenodd"><path d="M 407.48,2989.37 L 408.766,2976.31 L 412.575,2963.76 L 418.76,2952.19 L 427.083,2942.04 L 437.226,2933.72 L 448.797,2927.54 L 461.352,2923.73 L 474.409,2922.44 L 487.467,2923.73 L 500.022,2927.54 L 511.593,2933.72 L 521.735,2942.04 L 530.059,2952.19 L 536.244,2963.76 L 539.236,2973.62 L 588.589,2973.62 L 588.589,2912.81 L 588.891,2909.74 L 589.788,2906.78 L 591.243,2904.06 L 593.201,2901.68 L 797.147,2697.73 L 799.026,2696.12 L 803.416,2693.89 L 808.283,2693.12 L 3314.22,2693.12 L 3317.29,2693.42 L 3320.25,2694.32 L 3322.97,2695.77 L 3325.35,2697.73 L 3497.45,2869.82 L 4981.34,2869.82 L 5549.99,2301.18 L 5549.99,1883.86 L 5550.29,1880.78 L 5551.19,1877.83 L 5552.64,1875.11 L 5554.6,1872.72 L 5687,1740.33 L 5687,1472.84 L 5687.3,1469.77 L 5688.2,1466.81 L 5689.65,1464.09 L 5691.61,1461.71 L 5774.66,1378.66 L 5770.54,1370.96 L 5766.96,1359.14 L 5765.75,1346.85 L 5766.96,1334.56 L 5770.54,1322.74 L 5776.36,1311.85 L 5784.2,1302.31 L 5793.74,1294.47 L 5804.63,1288.65 L 5816.45,1285.07 L 5828.74,1283.86 L 5841.03,1285.07 L 5852.85,1288.65 L 5863.74,1294.47 L 5873.28,1302.31 L 5881.12,1311.85 L 5886.94,1322.74 L 5890.52,1334.56 L 5891.73,1346.85 L 5890.52,1359.14 L 5886.94,1370.96 L 5881.12,1381.85 L 5873.28,1391.39 L 5863.74,1399.23 L 5852.85,1405.05 L 5841.03,1408.63 L 5828.74,1409.84 L 5816.45,1408.63 L 5804.63,1405.05 L 5796.93,1400.93 L 5718.49,1479.36 L 5718.49,1731.1 L 5768.01,1731.1 L 5770.54,1722.74 L 5776.36,1711.85 L 5784.2,1702.31 L 5793.74,1694.47 L 5804.63,1688.65 L 5816.45,1685.07 L 5828.74,1683.86 L 5841.03,1685.07 L 5852.85,1688.65 L 5863.74,1694.47 L 5873.28,1702.31 L 5881.12,1711.85 L 5886.94,1722.74 L 5890.52,1734.56 L 5891.73,1746.85 L 5890.52,1759.14 L 5886.94,1770.96 L 5882.82,1778.66 L 6452.46,2348.3 L 6454.42,2350.68 L 6455.87,2353.41 L 6456.77,2356.36 L 6457.07,2359.43 L 6457.07,2392.89 L 6525.05,2460.86 L 6609.85,2460.86 L 6777.61,2293.1 L 6777.61,2120.81 L 6777.92,2117.74 L 6778.81,2114.78 L 6780.27,2112.06 L 6782.23,2109.68 L 7113.24,1778.66 L 7109.13,1770.96 L 7105.54,1759.14 L 7104.33,1746.85 L 7105.54,1734.56 L 7109.13,1722.74 L 7114.95,1711.85 L 7122.78,1702.31 L 7132.33,1694.47 L 7143.22,1688.65 L 7155.03,1685.07 L 7167.32,1683.86 L 7179.61,1685.07 L 7191.43,1688.65 L 7202.32,1694.47 L 7211.86,1702.31 L 7219.7,1711.85 L 7225.52,1722.74 L 7229.1,1734.56 L 7230.31,1746.85 L 7229.1,1759.14 L 7225.52,1770.96 L 7219.7,1781.85 L 7211.86,1791.39 L 7202.32,1799.23 L 7191.43,1805.05 L 7179.61,1808.63 L 7167.32,1809.84 L 7155.03,1808.63 L 7143.22,1805.05 L 7135.51,1800.93 L 6809.11,2127.33 L 6809.11,2299.62 L 6808.81,2302.69 L 6807.91,2305.65 L 6806.45,2308.37 L 6804.5,2310.76 L 6627.5,2487.75 L 6623.52,2490.64 L 6621.24,2491.59 L 6616.37,2492.36 L 6518.53,2492.36 L 6513.66,2491.59 L 6511.38,2490.64 L 6507.39,2487.75 L 6430.19,2410.54 L 6428.23,2408.16 L 6426.77,2405.44 L 6425.88,2402.48 L 6425.57,2399.41 L 6425.57,2365.96 L 5860.55,1800.93 L 5852.85,1805.05 L 5841.03,1808.63 L 5828.74,1809.84 L 5816.45,1808.63 L 5804.63,1805.05 L 5793.74,1799.23 L 5784.2,1791.39 L 5776.36,1781.85 L 5770.54,1770.96 L 5768.01,1762.6 L 5709.27,1762.6 L 5581.49,1890.38 L 5581.49,2307.7 L 5581.18,2310.77 L 5580.29,2313.73 L 5578.83,2316.45 L 5576.87,2318.83 L 4999,2896.71 L 4995.01,2899.6 L 4990.33,2901.13 L 3490.93,2901.32 L 3487.86,2901.02 L 3484.9,2900.12 L 3482.18,2898.67 L 3479.79,2896.71 L 3307.7,2724.61 L 814.806,2724.61 L 620.085,2919.33 L 620.085,2989.37 L 619.782,2992.44 L 618.886,2995.4 L 617.431,2998.12 L 615.472,3000.5 L 613.086,3002.46 L 610.363,3003.92 L 607.409,3004.81 L 604.337,3005.12 L 539.237,3005.12 L 536.244,3014.98 L 530.059,3026.55 L 521.735,3036.7 L 511.593,3045.02 L 500.022,3051.2 L 487.467,3055.01 L 474.409,3056.3 L 461.352,3055.01 L 448.797,3051.2 L 437.226,3045.02 L 427.083,3036.7 L 418.76,3026.55 L 412.575,3014.98 L 408.766,3002.43 L 407.48,2989.37 z " style="fill-opacity:1.000000;fill:rgb(74,236,41);stroke:rgb(0,0,0);stroke-width:2"/></g>
<g fill-rule="evenodd"><path d="M 407.48,2789.37 L 408.766,2776.31 L 412.575,2763.76 L 418.76,2752.19 L 427.083,2742.04 L 437.226,2733.72 L 448.797,2727.54 L 461.352,2723.73 L 474.409,2722.44 L 487.467,2723.73 L 500.022,2727.54 L 511.593,2733.72 L 521.735,2742.04 L 530.059,2752.19 L 536.244,2763.76 L 540.053,2776.31 L 541.339,2789.37 L 540.053,2802.43 L 536.244,2814.98 L 530.059,2826.55 L 521.735,2836.7 L 511.593,2845.02 L 500.022,2851.2 L 487.467,2855.01 L 474.409,2856.3 L 461.352,2855.01 L 448.797,2851.2 L 437.226,2845.02 L 427.083,2836.7 L 418.76,2826.55 L 412.575,2814.98 L 408.766,2802.43 L 407.48,2789.37 z " style="fill-opacity:1.000000;fill:rgb(205,186,171);stroke:rgb(0,0,0);stroke-width:2"/></g>
<g fill-rule="evenodd"><path d="M 407.48,2589.37 L 408.766,2576.31 L 412.575,2563.76 L 418.76,2552.19 L 427.083,2542.04 L 437.226,2533.72 L 448.797,2527.54 L 461.352,2523.73 L 474.409,2522.44 L 487.467,2523.73 L 500.022,2527.54 L 511.593,2533.72 L 521.735,2542.04 L 530.059,2552.19 L 536.244,2563.76 L 539.236,2573.62 L 1480.71,2573.62 L 1480.71,2522.54 L 1472.35,2520.01 L 1461.46,2514.19 L 1451.91,2506.35 L 1444.08,2496.81 L 1438.26,2485.92 L 1434.67,2474.1 L 1433.46,2461.81 L 1434.67,2449.52 L 1438.26,2437.7 L 1444.08,2426.81 L 1451.91,2417.27 L 1461.46,2409.43 L 1472.35,2403.61 L 1484.17,2400.03 L 1496.46,2398.82 L 1508.75,2400.03 L 1520.56,2403.61 L 1531.45,2409.43 L 1541,2417.27 L 1548.83,2426.81 L 1554.65,2437.7 L 1558.24,2449.52 L 1559.45,2461.81 L 1558.24,2474.1 L 1554.65,2485.92 L 1548.83,2496.81 L 1541,2506.35 L 1531.45,2514.19 L 1520.56,2520.01 L 1512.2,2522.54 L 1512.2,2587.8 L 1511.9,2590.88 L 1511,2593.83 L 1509.55,2596.55 L 1507.59,2598.94 L 1503.64,2602.46 L 1500.92,2603.92 L 1497.96,2604.81 L 1494.89,2605.12 L 539.237,2605.12 L 536.244,2614.98 L 530.059,2626.55 L 521.735,2636.7 L 511.593,2645.02 L 500.022,2651.2 L 487.467,2655.01 L 474.409,2656.3 L 461.352,2655.01 L 448.797,2651.2 L 437.226,2645.02 L 427.083,2636.7 L 418.76,2626.55 L 412.575,2614.98 L 408.766,2602.43 L 407.48,2589.37 z " style="fill-opacity:1.000000;fill:rgb(242,251,227);stroke:rgb(0,0,0);stroke-width:2"/></g>
<g fill-rule="evenodd"><path d="M 407.48,2389.37 L 408.766,2376.31 L 412.575,2363.76 L 418.76,2352.19 L 427.083,2342.04 L 437.226,2333.72 L 448.797,2327.54 L 461.352,2323.73 L 474.409,2322.44 L 487.467,2323.73 L 500.022,2327.54 L 511.593,2333.72 L 521.735,2342.04 L 530.059,2352.19 L 536.244,2363.76 L 540.053,2376.31 L 541.339,2389.37 L 540.053,2402.43 L 536.244,2414.98 L 530.059,2426.55 L 521.735,2436.7 L 511.593,2445.02 L 500.022,2451.2 L 487.467,2455.01 L 474.409,2456.3 L 461.352,2455.01 L 448.797,2451.2 L 437.226,2445.02 L 427.083,2436.7 L 418.76,2426.55 L 412.575,2414.98 L 408.766,2402.43 L 407.48,2389.37 z " style="fill-opacity:1.000000;fill:rgb(70,124,194);stroke:rgb(0,0,0);stroke-width:2"/></g>
<g fill-rule="evenodd"><path d="M 407.48,2189.37 L 408.766,2176.31 L 412.575,2163.76 L 418.76,2152.19 L 427.083,2142.04 L 437.226,2133.72 L 448.797,2127.54 L 461.352,2123.73 L 474.409,2122.44 L 487.467,2123.73 L 500.022,2127.54 L 511.593,2133.72 L 521.735,2142.04 L 530.059,2152.19 L 536.244,2163.76 L 539.236,2173.62 L 588.589,2173.62 L 588.891,2166.11 L 589.788,2163.15 L 591.243,2160.43 L 593.201,2158.05 L 707.697,2043.55 L 711.683,2040.65 L 716.369,2039.13 L 1289.33,2038.94 L 1292.4,2039.24 L 1295.36,2040.14 L 1298.08,2041.59 L 1300.46,2043.55 L 1664.65,2407.73 L 1672.35,2403.61 L 1684.17,2400.03 L 1696.46,2398.82 L 1708.75,2400.03 L 1720.56,2403.61 L 1731.45,2409.43 L 1741,2417.27 L 1748.83,2426.81 L 1754.65,2437.7 L 1758.24,2449.52 L 1759.45,2461.81 L 1758.24,2474.1 L 1754.65,2485.92 L 1748.83,2496.81 L 1741,2506.35 L 1731.45,2514.19 L 1720.56,2520.01 L 1708.75,2523.59 L 1696.46,2524.8 L 1684.17,2523.59 L 1672.35,2520.01 L 1661.46,2514.19 L 1651.91,2506.35 L 1644.08,2496.81 L 1638.26,2485.92 L 1634.67,2474.1 L 1633.46,2461.81 L 1634.67,2449.52 L 1638.26,2437.7 L 1642.38,2430 L 1282.81,2070.43 L 725.356,2070.43 L 620.085,2175.7 L 620.085,2189.37 L 619.782,2192.44 L 618.886,2195.4 L 617.431,2198.12 L 615.472,2200.5 L 613.086,2202.46 L 610.363,2203.92 L 607.409,2204.81 L 604.337,2205.12 L 539.237,2205.12 L 536.244,2214.98 L 530.059,2226.55 L 521.735,2236.7 L 511.593,2245.02 L 500.022,2251.2 L 487.467,2255.01 L 474.409,2256.3 L 461.352,2255.01 L 448.797,2251.2 L 437.226,2245.02 L 427.083,2236.7 L 418.76,2226.55 L 412.575,2214.98 L 408.766,2202.43 L 407.48,2189.37 z " style="fill-opacity:1.000000;fill:rgb(84,248,27);stroke:rgb(0,0,0);stroke-width:2"/></g>
<g fill-rule="evenodd"><path d="M 407.48,1989.37 L 408.766,1976.31 L 412.575,1963.76 L 418.76,1952.19 L 427.083,1942.04 L 437.226,1933.72 L 448.797,1927.54 L 461.352,1923.73 L 474.409,1922.44 L 487.467,1923.73 L 500.022,1927.54 L 511.593,1933.72 L 521.735,1942.04 L 530.059,1952.19 L 536.244,1963.76 L 539.236,1973.62 L 597.814,1973.62 L 806.327,1765.11 L 810.313,1762.21 L 814.999,1760.69 L 3021.96,1760.49 L 3096.1,1686.36 L 3098.49,1684.4 L 3101.21,1682.95 L 3104.16,1682.05 L 3107.23,1681.75 L 4214.73,1681.75 L 5087.93,808.549 L 5090.31,806.591 L 5093.04,805.136 L 5095.99,804.239 L 5099.06,803.937 L 5369.91,803.937 L 5372.38,804.131 L 5377.06,805.653 L 5381.05,808.549 L 5573.27,1000.77 L 5579.92,998.756 L 5587.6,998 L 5595.28,998.756 L 5602.66,1001 L 5609.47,1004.64 L 5615.44,1009.53 L 5620.33,1015.5 L 5623.97,1022.3 L 5626.21,1029.69 L 5626.97,1037.37 L 5626.21,1045.05 L 5623.97,1052.44 L 5620.33,1059.24 L 5615.44,1065.21 L 5609.47,1070.11 L 5602.66,1073.74 L 5595.28,1075.98 L 5587.6,1076.74 L 5579.92,1075.98 L 5572.53,1073.74 L 5565.73,1070.11 L 5559.76,1065.21 L 5554.86,1059.24 L 5551.23,1052.44 L 5548.98,1045.05 L 5548.23,1037.37 L 5548.98,1029.69 L 5551,1023.04 L 5363.39,835.433 L 5105.59,835.433 L 4232.39,1708.63 L 4230,1710.59 L 4227.28,1712.04 L 4224.32,1712.94 L 4221.25,1713.24 L 3113.76,1713.24 L 3039.62,1787.38 L 3037.24,1789.34 L 3034.51,1790.79 L 3031.56,1791.69 L 3028.49,1791.99 L 823.986,1791.99 L 615.472,2000.5 L 611.486,2003.4 L 609.203,2004.35 L 604.337,2005.12 L 539.237,2005.12 L 536.244,2014.98 L 530.059,2026.55 L 521.735,2036.7 L 511.593,2045.02 L 500.022,2051.2 L 487.467,2055.01 L 474.409,2056.3 L 461.352,2055.01 L 448.797,2051.2 L 437.226,2045.02 L 427.083,2036.7 L 418.76,2026.55 L 412.575,2014.98 L 408.766,2002.43 L 407.48,1989.37 z " style="fill-opacity:1.000000;fill:rgb(232,231,141);stroke:rgb(0,0,0);stroke-width:2"/></g>
<g fill-rule="evenodd"><path d="M 407.48,1789.37 L 408.766,1776.31 L 412.575,1763.76 L 418.76,1752.19 L 427.083,1742.04 L 437.226,1733.72 L 448.797,1727.54 L 461.352,1723.73 L 474.409,1722.44 L 487.467,1723.73 L 500.022,1727.54 L 511.593,1733.72 L 521.735,1742.04 L 530.059,1752.19 L 536.244,1763.76 L 539.236,1773.62 L 597.814,1773.62 L 685.075,1686.36 L 689.061,1683.46 L 693.747,1681.94 L 696.211,1681.75 L 2950,1681.75 L 3255.07,1376.68 L 3257.45,1374.72 L 3260.18,1373.26 L 3263.13,1372.37 L 3266.2,1372.06 L 4316.97,1372.06 L 4959.23,729.801 L 4963.22,726.905 L 4967.91,725.383 L 5810.65,725.383 L 5815.34,726.905 L 5819.32,729.801 L 5967.25,877.729 L 5969.21,880.116 L 5970.67,882.838 L 5971.56,885.793 L 5971.86,888.865 L 5971.86,1419.47 L 5971.56,1422.54 L 5970.67,1425.5 L 5969.21,1428.22 L 5967.25,1430.61 L 5882.82,1515.04 L 5886.94,1522.74 L 5890.52,1534.56 L 5891.73,1546.85 L 5890.52,1559.14 L 5886.94,1570.96 L 5881.12,1581.85 L 5873.28,1591.39 L 5863.74,1599.23 L 5852.85,1605.05 L 5841.03,1608.63 L 5828.74,1609.84 L 5816.45,1608.63 L 5804.63,1605.05 L 5793.74,1599.23 L 5784.2,1591.39 L 5776.36,1581.85 L 5770.54,1570.96 L 5766.96,1559.14 L 5765.75,1546.85 L 5766.96,1534.56 L 5770.54,1522.74 L 5776.36,1511.85 L 5784.2,1502.31 L 5793.74,1494.47 L 5804.63,1488.65 L 5816.45,1485.07 L 5828.74,1483.86 L 5841.03,1485.07 L 5852.85,1488.65 L 5860.55,1492.77 L 5940.37,1412.95 L 5940.37,895.388 L 5801.67,756.685 L 4976.89,756.685 L 4334.63,1398.95 L 4330.64,1401.84 L 4325.96,1403.36 L 4323.49,1403.56 L 3272.73,1403.56 L 2967.65,1708.63 L 2965.27,1710.59 L 2962.55,1712.04 L 2959.59,1712.94 L 2956.52,1713.24 L 702.734,1713.24 L 613.593,1802.11 L 609.203,1804.35 L 604.337,1805.12 L 539.237,1805.12 L 536.244,1814.98 L 530.059,1826.55 L 521.735,1836.7 L 511.593,1845.02 L 500.022,1851.2 L 487.467,1855.01 L 474.409,1856.3 L 461.352,1855.01 L 448.797,1851.2 L 437.226,1845.02 L 427.083,1836.7 L 418.76,1826.55 L 412.575,1814.98 L 408.766,1802.43 L 407.48,1789.37 z " style="fill-opacity:1.000000;fill:rgb(118,90,46);stroke:rgb(0,0,0);stroke-width:2"/></g>
<g fill-rule="evenodd"><path d="M 407.48,1589.37 L 408.766,1576.31 L 412.575,1563.76 L 418.76,1552.19 L 427.083,1542.04 L 437.226,1533.72 L 448.797,1527.54 L 461.352,1523.73 L 474.409,1522.44 L 487.467,1523.73 L 500.022,1527.54 L 511.593,1533.72 L 521.735,1542.04 L 530.059,1552.19 L 536.244,1563.76 L 539.236,1573.62 L 2762.37,1573.62 L 3042.38,1293.62 L 3038.26,1285.92 L 3034.67,1274.1 L 3033.46,1261.81 L 3034.67,1249.52 L 3038.26,1237.7 L 3044.08,1226.81 L 3051.91,1217.27 L 3061.46,1209.43 L 3072.35,1203.61 L 3084.17,1200.03 L 3096.46,1198.82 L 3108.75,1200.03 L 3120.56,1203.61 L 3131.45,1209.43 L 3141,1217.27 L 3148.83,1226.81 L 3154.65,1237.7 L 3158.24,1249.52 L 3159.45,1261.81 L 3158.24,1274.1 L 3154.65,1285.92 L 3148.83,1296.81 L 3141,1306.35 L 3131.45,1314.19 L 3120.56,1320.01 L 3108.75,1323.59 L 3096.46,1324.8 L 3084.17,1323.59 L 3072.35,1320.01 L 3064.65,1315.89 L 2780.03,1600.5 L 2777.65,1602.46 L 2774.92,1603.92 L 2771.97,1604.81 L 2768.9,1605.12 L 539.237,1605.12 L 536.244,1614.98 L 530.059,1626.55 L 521.735,1636.7 L 511.593,1645.02 L 500.022,1651.2 L 487.467,1655.01 L 474.409,1656.3 L 461.352,1655.01 L 448.797,1651.2 L 437.226,1645.02 L 427.083,1636.7 L 418.76,1626.55 L 412.575,1614.98 L 408.766,1602.43 L 407.48,1589.37 z " style="fill-opacity:1.000000;fill:rgb(99,51,159);stroke:rgb(0,0,0);stroke-width:2"/></g>
<g fill-rule="evenodd"><path d="M 407.48,1389.37 L 408.766,1376.31 L 412.575,1363.76 L 418.76,1352.19 L 427.083,1342.04 L 437.226,1333.72 L 448.797,1327.54 L 461.352,1323.73 L 474.409,1322.44 L 487.467,1323.73 L 500.022,1327.54 L 511.593,1333.72 L 521.735,1342.04 L 530.059,1352.19 L 536.244,1363.76 L 539.236,1373.62 L 604.337,1373.62 L 609.203,1374.39 L 611.486,1375.34 L 615.472,1378.23 L 691.348,1454.11 L 2481.89,1454.11 L 2642.38,1293.62 L 2638.26,1285.92 L 2634.67,1274.1 L 2633.46,1261.81 L 2634.67,1249.52 L 2638.26,1237.7 L 2644.08,1226.81 L 2651.91,1217.27 L 2661.46,1209.43 L 2672.35,1203.61 L 2684.17,1200.03 L 2696.46,1198.82 L 2708.75,1200.03 L 2720.56,1203.61 L 2731.45,1209.43 L 2741,1217.27 L 2748.83,1226.81 L 2754.65,1237.7 L 2758.24,1249.52 L 2759.45,1261.81 L 2758.24,1274.1 L 2754.65,1285.92 L 2748.83,1296.81 L 2741,1306.35 L 2731.45,1314.19 L 2720.56,1320.01 L 2708.75,1323.59 L 2696.46,1324.8 L 2684.17,1323.59 L 2672.35,1320.01 L 2664.65,1315.89 L 2499.54,1480.99 L 2497.16,1482.95 L 2494.44,1484.41 L 2491.48,1485.3 L 2488.41,1485.6 L 684.825,1485.6 L 682.361,1485.41 L 677.675,1483.89 L 673.689,1480.99 L 597.814,1405.12 L 539.237,1405.12 L 536.244,1414.98 L 530.059,1426.55 L 521.735,1436.7 L 511.593,1445.02 L 500.022,1451.2 L 487.467,1455.01 L 474.409,1456.3 L 461.352,1455.01 L 448.797,1451.2 L 437.226,1445.02 L 427.083,1436.7 L 418.76,1426.55 L 412.575,1414.98 L 408.766,1402.43 L 407.48,1389.37 z " style="fill-opacity:1.000000;fill:rgb(201,154,102);stroke:rgb(0,0,0);stroke-width:2"/></g>
<g fill-rule="evenodd"><path d="M 407.48,1189.37 L 408.766,1176.31 L 412.575,1163.76 L 418.76,1152.19 L 427.083,1142.04 L 437.226,1133.72 L 448.797,1127.54 L 461.352,1123.73 L 474.409,1122.44 L 487.467,1123.73 L 500.022,1127.54 L 511.593,1133.72 L 521.735,1142.04 L 530.059,1152.19 L 536.244,1163.76 L 539.236,1173.62 L 604.337,1173.62 L 609.203,1174.39 L 611.486,1175.34 L 615.472,1178.23 L 812.554,1375.31 L 1560.68,1375.31 L 1642.38,1293.62 L 1638.26,1285.92 L 1634.67,1274.1 L 1633.46,1261.81 L 1634.67,1249.52 L 1638.26,1237.7 L 1644.08,1226.81 L 1651.91,1217.27 L 1661.46,1209.43 L 1672.35,1203.61 L 1684.17,1200.03 L 1696.46,1198.82 L 1708.75,1200.03 L 1720.56,1203.61 L 1731.45,1209.43 L 1741,1217.27 L 1748.83,1226.81 L 1754.65,1237.7 L 1758.24,1249.52 L 1759.45,1261.81 L 1758.24,1274.1 L 1754.65,1285.92 L 1748.83,1296.81 L 1741,1306.35 L 1731.45,1314.19 L 1720.56,1320.01 L 1708.75,1323.59 L 1696.46,1324.8 L 1684.17,1323.59 L 1672.35,1320.01 L 1664.65,1315.89 L 1578.34,1402.2 L 1575.95,1404.16 L 1573.23,1405.61 L 1570.28,1406.51 L 1567.2,1406.81 L 806.031,1406.81 L 801.164,1406.04 L 798.881,1405.09 L 794.895,1402.2 L 597.814,1205.12 L 539.237,1205.12 L 536.244,1214.98 L 530.059,1226.55 L 521.735,1236.7 L 511.593,1245.02 L 500.022,1251.2 L 487.467,1255.01 L 474.409,1256.3 L 461.352,1255.01 L 448.797,1251.2 L 437.226,1245.02 L 427.083,1236.7 L 418.76,1226.55 L 412.575,1214.98 L 408.766,1202.43 L 407.48,1189.37 z " style="fill-opacity:1.000000;fill:rgb(50,13,183);stroke:rgb(0,0,0);stroke-width:2"/></g>
<g fill-rule="evenodd"><path d="M 407.48,989.37 L 408.766,976.313 L 412.575,963.757 L 418.76,952.186 L 427.083,942.044 L 437.226,933.721 L 448.797,927.536 L 461.352,923.727 L 474.409,922.441 L 487.467,923.727 L 500.022,927.536 L 511.593,933.721 L 521.735,942.044 L 530.059,952.186 L 536.244,963.757 L 540.053,976.313 L 541.339,989.37 L 540.053,1002.43 L 536.244,1014.98 L 530.059,1026.55 L 521.735,1036.7 L 511.593,1045.02 L 500.022,1051.2 L 487.467,1055.01 L 474.409,1056.3 L 461.352,1055.01 L 448.797,1051.2 L 437.226,1045.02 L 427.083,1036.7 L 418.76,1026.55 L 412.575,1014.98 L 408.766,1002.43 L 407.48,989.37 z " style="fill-opacity:1.000000;fill:rgb(49,88,163);stroke:rgb(0,0,0);stroke-width:2"/></g>
<g fill-rule="evenodd"><path d="M 407.48,856.299 L 407.48,722.441 L 541.339,722.441 L 541.339,773.621 L 604.337,773.621 L 607.409,773.923 L 610.363,774.82 L 613.086,776.275 L 615.472,778.233 L 768.342,931.101 L 958.559,931.101 L 961.094,922.744 L 966.915,911.854 L 974.749,902.308 L 984.295,894.474 L 995.185,888.653 L 1007,885.069 L 1019.29,883.858 L 1031.58,885.069 L 1043.4,888.653 L 1054.29,894.474 L 1063.83,902.308 L 1071.67,911.854 L 1077.49,922.744 L 1080.02,931.101 L 1138.76,931.101 L 1655.05,414.809 L 1657.44,412.851 L 1660.16,411.396 L 1663.12,410.499 L 1666.19,410.197 L 6520.42,410.197 L 6522.89,410.391 L 6527.57,411.913 L 6531.56,414.809 L 7047.85,931.101 L 7106.59,931.101 L 7109.13,922.744 L 7114.95,911.854 L 7122.78,902.308 L 7132.33,894.474 L 7143.22,888.653 L 7155.03,885.069 L 7167.32,883.858 L 7179.61,885.069 L 7191.43,888.653 L 7202.32,894.474 L 7211.86,902.308 L 7219.7,911.854 L 7225.52,922.744 L 7229.1,934.561 L 7230.31,946.85 L 7229.1,959.14 L 7225.52,970.956 L 7219.7,981.847 L 7211.86,991.393 L 7202.32,999.226 L 7191.43,1005.05 L 7179.61,1008.63 L 7167.32,1009.84 L 7155.03,1008.63 L 7143.22,1005.05 L 7132.33,999.226 L 7122.78,991.393 L 7114.95,981.847 L 7109.13,970.956 L 7106.59,962.597 L 7041.33,962.597 L 7036.46,961.826 L 7032.07,959.589 L 6513.9,441.693 L 1672.71,441.693 L 1156.42,957.984 L 1154.03,959.943 L 1151.31,961.398 L 1148.36,962.294 L 1145.28,962.597 L 1080.02,962.597 L 1077.49,970.956 L 1071.67,981.847 L 1063.83,991.393 L 1054.29,999.226 L 1043.4,1005.05 L 1031.58,1008.63 L 1019.29,1009.84 L 1007,1008.63 L 995.185,1005.05 L 984.295,999.226 L 974.749,991.393 L 966.915,981.847 L 961.094,970.956 L 958.558,962.597 L 761.819,962.597 L 758.747,962.294 L 755.792,961.398 L 753.07,959.943 L 750.683,957.984 L 597.814,805.117 L 541.339,805.117 L 541.339,856.299 L 407.48,856.299 z " style="fill-opacity:1.000000;fill:rgb(90,37,93);stroke:rgb(0,0,0);stroke-width:2"/></g>
<g fill-rule="evenodd"><path d="M 725.213,2157.06 L 725.969,2149.37 L 728.209,2141.99 L 731.848,2135.18 L 736.744,2129.22 L 742.71,2124.32 L 749.516,2120.68 L 756.902,2118.44 L 764.583,2117.69 L 772.263,2118.44 L 779.649,2120.68 L 786.456,2124.32 L 792.422,2129.22 L 797.318,2135.18 L 800.956,2141.99 L 803.196,2149.37 L 803.953,2157.06 L 803.196,2164.74 L 801.18,2171.38 L 949.868,2320.07 L 1296.45,2320.07 L 1299.53,2320.37 L 1302.48,2321.27 L 1305.2,2322.72 L 1307.59,2324.68 L 1309.55,2327.07 L 1311,2329.79 L 1311.9,2332.75 L 1312.2,2335.82 L 1312.2,2401.08 L 1320.56,2403.61 L 1331.45,2409.43 L 1341,2417.27 L 1348.83,2426.81 L 1354.65,2437.7 L 1358.24,2449.52 L 1359.45,2461.81 L 1358.24,2474.1 L 1354.65,2485.92 L 1348.83,2496.81 L 1341,2506.35 L 1331.45,2514.19 L 1320.56,2520.01 L 1308.75,2523.59 L 1296.46,2524.8 L 1284.17,2523.59 L 1272.35,2520.01 L 1261.46,2514.19 L 1251.91,2506.35 L 1244.08,2496.81 L 1238.26,2485.92 L 1234.67,2474.1 L 1233.46,2461.81 L 1234.67,2449.52 L 1238.26,2437.7 L 1244.08,2426.81 L 1251.91,2417.27 L 1261.46,2409.43 L 1272.35,2403.61 L 1280.71,2401.08 L 1280.71,2351.57 L 943.345,2351.57 L 938.478,2350.8 L 936.195,2349.85 L 932.209,2346.95 L 778.907,2193.65 L 772.263,2195.67 L 764.583,2196.43 L 756.902,2195.67 L 749.516,2193.43 L 742.71,2189.79 L 736.744,2184.89 L 731.848,2178.93 L 728.209,2172.12 L 725.969,2164.74 L 725.213,2157.06 z " style="fill-opacity:1.000000;fill:rgb(5,23,88);stroke:rgb(0,0,0);stroke-width:2"/></g>
<g fill-rule="evenodd"><path d="M 730.78,2895.26 L 731.536,2887.58 L 733.776,2880.19 L 737.415,2873.39 L 742.311,2867.42 L 748.277,2862.52 L 755.083,2858.89 L 762.469,2856.65 L 770.15,2855.89 L 777.83,2856.65 L 784.475,2858.66 L 862.217,2780.92 L 864.096,2779.31 L 868.486,2777.08 L 873.353,2776.31 L 3265.76,2776.31 L 3268.84,2776.61 L 3271.79,2777.51 L 3274.51,2778.96 L 3276.9,2780.92 L 3444.55,2948.57 L 6698.18,2948.57 L 6703.05,2949.35 L 6705.33,2950.29 L 6709.32,2953.19 L 7086.95,3330.82 L 7096.04,3325.96 L 7108.6,3322.15 L 7121.65,3320.87 L 7134.71,3322.15 L 7147.27,3325.96 L 7158.84,3332.15 L 7168.98,3340.47 L 7177.3,3350.61 L 7183.49,3362.18 L 7187.3,3374.74 L 7188.58,3387.8 L 7187.3,3400.85 L 7183.49,3413.41 L 7177.3,3424.98 L 7168.98,3435.12 L 7158.84,3443.44 L 7147.27,3449.63 L 7134.71,3453.44 L 7121.65,3454.72 L 7108.6,3453.44 L 7096.04,3449.63 L 7084.47,3443.44 L 7074.33,3435.12 L 7066,3424.98 L 7059.82,3413.41 L 7056.01,3400.85 L 7054.72,3387.8 L 7056.01,3374.74 L 7059.82,3362.18 L 7064.68,3353.09 L 6691.66,2980.07 L 3438.03,2980.07 L 3434.96,2979.77 L 3432,2978.87 L 3429.28,2977.42 L 3426.9,2975.46 L 3259.24,2807.8 L 879.876,2807.8 L 806.747,2880.93 L 808.763,2887.58 L 809.52,2895.26 L 808.763,2902.94 L 806.523,2910.33 L 802.885,2917.13 L 797.988,2923.1 L 792.022,2927.99 L 785.216,2931.63 L 777.83,2933.87 L 770.15,2934.63 L 762.469,2933.87 L 755.083,2931.63 L 748.277,2927.99 L 742.311,2923.1 L 737.415,2917.13 L 733.776,2910.33 L 731.536,2902.94 L 730.78,2895.26 z " style="fill-opacity:1.000000;fill:rgb(233,94,212);stroke:rgb(0,0,0);stroke-width:2"/></g>
<g fill-rule="evenodd"><path d="M 1033.46,2524.8 L 1033.46,2398.82 L 1159.45,2398.82 L 1159.45,2524.8 L 1033.46,2524.8 z " style="fill-opacity:1.000000;fill:rgb(171,178,205);stroke:rgb(0,0,0);stroke-width:2"/></g>
<g fill-rule="evenodd"><path d="M 1033.46,1261.81 L 1034.67,1249.52 L 1038.26,1237.7 L 1044.08,1226.81 L 1051.91,1217.27 L 1061.46,1209.43 L 1072.35,1203.61 L 1084.17,1200.03 L 1096.46,1198.82 L 1108.75,1200.03 L 1120.56,1203.61 L 1131.45,1209.43 L 1141,1217.27 L 1148.83,1226.81 L 1154.65,1237.7 L 1158.24,1249.52 L 1159.45,1261.81 L 1158.24,1274.1 L 1154.65,1285.92 L 1148.83,1296.81 L 1141,1306.35 L 1131.45,1314.19 L 1120.56,1320.01 L 1108.75,1323.59 L 1096.46,1324.8 L 1084.17,1323.59 L 1072.35,1320.01 L 1061.46,1314.19 L 1051.91,1306.35 L 1044.08,1296.81 L 1038.26,1285.92 L 1034.67,1274.1 L 1033.46,1261.81 z " style="fill-opacity:1.000000;fill:rgb(198,155,180);stroke:rgb(0,0,0);stroke-width:2"/></g>
<g fill-rule="evenodd"><path d="M 1233.46,1261.81 L 1234.67,1249.52 L 1238.26,1237.7 L 1244.08,1226.81 L 1251.91,1217.27 L 1261.46,1209.43 L 1272.35,1203.61 L 1284.17,1200.03 L 1296.46,1198.82 L 1308.75,1200.03 L 1320.56,1203.61 L 1331.45,1209.43 L 1341,1217.27 L 1348.83,1226.81 L 1354.65,1237.7 L 1358.24,1249.52 L 1359.45,1261.81 L 1358.24,1274.1 L 1354.65,1285.92 L 1348.83,1296.81 L 1341,1306.35 L 1331.45,1314.19 L 1320.56,1320.01 L 1308.75,1323.59 L 1296.46,1324.8 L 1284.17,1323.59 L 1272.35,1320.01 L 1261.46,1314.19 L 1251.91,1306.35 L 1244.08,1296.81 L 1238.26,1285.92 L 1234.67,1274.1 L 1233.46,1261.81 z " style="fill-opacity:1.000000;fill:rgb(84,17,14);stroke:rgb(0,0,0);stroke-width:2"/></g>
<g fill-rule="evenodd"><path d="M 1433.46,1261.81 L 1434.67,1249.52 L 1438.26,1237.7 L 1444.08,1226.81 L 1451.91,1217.27 L 1461.46,1209.43 L 1472.35,1203.61 L 1484.17,1200.03 L 1496.46,1198.82 L 1508.75,1200.03 L 1520.56,1203.61 L 1528.26,1207.73 L 1762.47,973.526 L 1761.09,970.956 L 1757.51,959.14 L 1756.3,946.85 L 1757.51,934.561 L 1761.09,922.744 L 1766.92,911.854 L 1774.75,902.308 L 1784.29,894.474 L 1795.19,888.653 L 1807,885.069 L 1819.29,883.858 L 1831.58,885.069 L 1843.4,888.653 L 1854.29,894.474 L 1863.83,902.308 L 1871.67,911.854 L 1877.49,922.744 L 1881.07,934.561 L 1882.28,946.85 L 1881.07,959.14 L 1877.49,970.956 L 1871.67,981.847 L 1863.83,991.393 L 1854.29,999.226 L 1843.4,1005.05 L 1831.58,1008.63 L 1819.29,1009.84 L 1807,1008.63 L 1795.19,1005.05 L 1784.29,999.226 L 1782.66,997.881 L 1550.54,1230 L 1554.65,1237.7 L 1558.24,1249.52 L 1559.45,1261.81 L 1558.24,1274.1 L 1554.65,1285.92 L 1548.83,1296.81 L 1541,1306.35 L 1531.45,1314.19 L 1520.56,1320.01 L 1508.75,1323.59 L 1496.46,1324.8 L 1484.17,1323.59 L 1472.35,1320.01 L 1461.46,1314.19 L 1451.91,1306.35 L 1444.08,1296.81 L 1438.26,1285.92 L 1434.67,1274.1 L 1433.46,1261.81 z " style="fill-opacity:1.000000;fill:rgb(130,116,65);stroke:rgb(0,0,0);stroke-width:2"/></g>
<g fill-rule="evenodd"><path d="M 1798.82,2942.69 L 1799.58,2935 L 1801.82,2927.62 L 1805.45,2920.81 L 1810.35,2914.85 L 1816.32,2909.95 L 1823.12,2906.31 L 1830.51,2904.07 L 1838.19,2903.31 L 1845.87,2904.07 L 1852.52,2906.09 L 1898.94,2859.67 L 1901.32,2857.71 L 1904.04,2856.25 L 1907,2855.36 L 1910.07,2855.05 L 3193.78,2855.05 L 3196.85,2855.36 L 3199.81,2856.25 L 3202.53,2857.71 L 3204.91,2859.67 L 3372.57,3027.32 L 6579.39,3027.52 L 6584.08,3029.04 L 6588.06,3031.94 L 6886.95,3330.82 L 6896.04,3325.96 L 6908.6,3322.15 L 6921.65,3320.87 L 6934.71,3322.15 L 6947.27,3325.96 L 6958.84,3332.15 L 6968.98,3340.47 L 6977.3,3350.61 L 6983.49,3362.18 L 6987.3,3374.74 L 6988.58,3387.8 L 6987.3,3400.85 L 6983.49,3413.41 L 6977.3,3424.98 L 6968.98,3435.12 L 6958.84,3443.44 L 6947.27,3449.63 L 6934.71,3453.44 L 6921.65,3454.72 L 6908.6,3453.44 L 6896.04,3449.63 L 6884.47,3443.44 L 6874.33,3435.12 L 6866,3424.98 L 6859.82,3413.41 L 6856.01,3400.85 L 6854.72,3387.8 L 6856.01,3374.74 L 6859.82,3362.18 L 6864.68,3353.09 L 6570.41,3058.82 L 3366.05,3058.82 L 3362.97,3058.52 L 3360.02,3057.62 L 3357.3,3056.16 L 3354.91,3054.21 L 3187.26,2886.55 L 1916.59,2886.55 L 1874.79,2928.36 L 1876.8,2935 L 1877.56,2942.69 L 1876.8,2950.37 L 1874.56,2957.75 L 1870.92,2964.56 L 1866.03,2970.52 L 1860.06,2975.42 L 1853.26,2979.06 L 1845.87,2981.3 L 1838.19,2982.06 L 1830.51,2981.3 L 1823.12,2979.06 L 1816.32,2975.42 L 1810.35,2970.52 L 1805.45,2964.56 L 1801.82,2957.75 L 1799.58,2950.37 L 1798.82,2942.69 z " style="fill-opacity:1.000000;fill:rgb(33,61,220);stroke:rgb(0,0,0);stroke-width:2"/></g>
<g fill-rule="evenodd"><path d="M 1833.46,2461.81 L 1834.67,2449.52 L 1838.26,2437.7 L 1844.08,2426.81 L 1851.91,2417.27 L 1861.46,2409.43 L 1872.35,2403.61 L 1884.17,2400.03 L 1896.46,2398.82 L 1908.75,2400.03 L 1920.56,2403.61 L 1931.45,2409.43 L 1941,2417.27 L 1948.83,2426.81 L 1954.65,2437.7 L 1958.24,2449.52 L 1959.45,2461.81 L 1958.24,2474.1 L 1954.65,2485.92 L 1948.83,2496.81 L 1941,2506.35 L 1931.45,2514.19 L 1920.56,2520.01 L 1908.75,2523.59 L 1896.46,2524.8 L 1884.17,2523.59 L 1872.35,2520.01 L 1861.46,2514.19 L 1851.91,2506.35 L 1844.08,2496.81 L 1838.26,2485.92 L 1834.67,2474.1 L 1833.46,2461.81 z " style="fill-opacity:1.000000;fill:rgb(135,112,233);stroke:rgb(0,0,0);stroke-width:2"/></g>
<g fill-rule="evenodd"><path d="M 1833.46,1261.81 L 1834.67,1249.52 L 1838.26,1237.7 L 1844.08,1226.81 L 1851.91,1217.27 L 1861.46,1209.43 L 1872.35,1203.61 L 1884.17,1200.03 L 1896.46,1198.82 L 1908.75,1200.03 L 1920.56,1203.61 L 1931.45,1209.43 L 1941,1217.27 L 1948.83,1226.81 L 1954.65,1237.7 L 1958.24,1249.52 L 1959.45,1261.81 L 1958.24,1274.1 L 1954.65,1285.92 L 1948.83,1296.81 L 1941,1306.35 L 1931.45,1314.19 L 1920.56,1320.01 L 1908.75,1323.59 L 1896.46,1324.8 L 1884.17,1323.59 L 1872.35,1320.01 L 1861.46,1314.19 L 1851.91,1306.35 L 1844.08,1296.81 L 1838.26,1285.92 L 1834.67,1274.1 L 1833.46,1261.81 z " style="fill-opacity:1.000000;fill:rgb(62,161,65);stroke:rgb(0,0,0);stroke-width:2"/></g>
<g fill-rule="evenodd"><path d="M 2033.46,2461.81 L 2034.67,2449.52 L 2038.26,2437.7 L 2044.08,2426.81 L 2051.91,2417.27 L 2061.46,2409.43 L 2072.35,2403.61 L 2080.71,2401.08 L 2080.71,2335.82 L 2081.01,2332.75 L 2081.91,2329.79 L 2083.36,2327.07 L 2085.32,2324.68 L 2408.85,2001.16 L 2411.23,1999.2 L 2413.96,1997.74 L 2416.91,1996.85 L 2419.98,1996.54 L 3186.85,1996.54 L 3238.56,1944.83 L 3240.94,1942.87 L 3243.67,1941.42 L 3246.62,1940.52 L 3249.69,1940.22 L 5087.11,1940.22 L 5091.61,1935.71 L 5094,1933.75 L 5096.72,1932.3 L 5099.67,1931.4 L 5102.75,1931.1 L 5168.01,1931.1 L 5170.54,1922.74 L 5176.36,1911.85 L 5184.2,1902.31 L 5193.74,1894.47 L 5204.63,1888.65 L 5216.45,1885.07 L 5228.74,1883.86 L 5241.03,1885.07 L 5252.85,1888.65 L 5263.74,1894.47 L 5273.28,1902.31 L 5281.12,1911.85 L 5286.94,1922.74 L 5290.52,1934.56 L 5291.73,1946.85 L 5290.52,1959.14 L 5286.94,1970.96 L 5281.12,1981.85 L 5273.28,1991.39 L 5263.74,1999.23 L 5252.85,2005.05 L 5241.03,2008.63 L 5228.74,2009.84 L 5216.45,2008.63 L 5204.63,2005.05 L 5193.74,1999.23 L 5184.2,1991.39 L 5176.36,1981.85 L 5170.54,1970.96 L 5168.01,1962.6 L 5109.27,1962.6 L 5104.76,1967.1 L 5102.38,1969.06 L 5099.66,1970.52 L 5096.7,1971.41 L 5093.63,1971.71 L 3256.22,1971.71 L 3204.5,2023.43 L 3202.12,2025.38 L 3199.4,2026.84 L 3196.44,2027.74 L 3193.37,2028.04 L 2426.51,2028.04 L 2112.2,2342.34 L 2112.2,2401.08 L 2120.56,2403.61 L 2131.45,2409.43 L 2141,2417.27 L 2148.83,2426.81 L 2154.65,2437.7 L 2158.24,2449.52 L 2159.45,2461.81 L 2158.24,2474.1 L 2154.65,2485.92 L 2148.83,2496.81 L 2141,2506.35 L 2131.45,2514.19 L 2120.56,2520.01 L 2108.75,2523.59 L 2096.46,2524.8 L 2084.17,2523.59 L 2072.35,2520.01 L 2061.46,2514.19 L 2051.91,2506.35 L 2044.08,2496.81 L 2038.26,2485.92 L 2034.67,2474.1 L 2033.46,2461.81 z " style="fill-opacity:1.000000;fill:rgb(225,252,103);stroke:rgb(0,0,0);stroke-width:2"/></g>
<g fill-rule="evenodd"><path d="M 2033.46,1261.81 L 2034.67,1249.52 L 2038.26,1237.7 L 2044.08,1226.81 L 2051.91,1217.27 L 2061.46,1209.43 L 2072.35,1203.61 L 2080.71,1201.08 L 2080.71,1135.82 L 2080.9,1133.36 L 2082.42,1128.67 L 2085.32,1124.68 L 2716.45,493.557 L 2718.83,491.599 L 2721.55,490.144 L 2724.51,489.247 L 2727.58,488.945 L 6401.64,489.139 L 6406.32,490.661 L 6410.31,493.557 L 7047.85,1131.1 L 7106.59,1131.1 L 7109.13,1122.74 L 7114.95,1111.85 L 7122.78,1102.31 L 7132.33,1094.47 L 7143.22,1088.65 L 7155.03,1085.07 L 7167.32,1083.86 L 7179.61,1085.07 L 7191.43,1088.65 L 7202.32,1094.47 L 7211.86,1102.31 L 7219.7,1111.85 L 7225.52,1122.74 L 7229.1,1134.56 L 7230.31,1146.85 L 7229.1,1159.14 L 7225.52,1170.96 L 7221.4,1178.66 L 7304.61,1261.86 L 7306.56,1264.25 L 7308.02,1266.97 L 7308.92,1269.93 L 7309.22,1273 L 7309.22,2398.91 L 7308.92,2401.99 L 7308.02,2404.94 L 7306.56,2407.66 L 7304.61,2410.05 L 6937.5,2777.16 L 6933.51,2780.05 L 6931.23,2781 L 6926.36,2781.77 L 6324.66,2781.77 L 6321.39,2787.9 L 6316.49,2793.86 L 6310.53,2798.76 L 6303.72,2802.4 L 6296.33,2804.64 L 6288.65,2805.39 L 6280.97,2804.64 L 6273.59,2802.4 L 6266.78,2798.76 L 6260.81,2793.86 L 6255.92,2787.9 L 6252.28,2781.09 L 6250.04,2773.7 L 6249.28,2766.02 L 6250.04,2758.34 L 6252.28,2750.96 L 6255.92,2744.15 L 6260.81,2738.18 L 6266.78,2733.29 L 6273.59,2729.65 L 6280.97,2727.41 L 6288.65,2726.65 L 6296.33,2727.41 L 6303.72,2729.65 L 6310.53,2733.29 L 6316.49,2738.18 L 6321.39,2744.15 L 6324.66,2750.28 L 6919.84,2750.27 L 7277.72,2392.39 L 7277.72,1279.52 L 7199.13,1200.93 L 7191.43,1205.05 L 7179.61,1208.63 L 7167.32,1209.84 L 7155.03,1208.63 L 7143.22,1205.05 L 7132.33,1199.23 L 7122.78,1191.39 L 7114.95,1181.85 L 7109.13,1170.96 L 7106.59,1162.6 L 7041.33,1162.6 L 7038.87,1162.4 L 7034.18,1160.88 L 7030.19,1157.98 L 6392.65,520.441 L 2734.1,520.441 L 2112.2,1142.34 L 2112.2,1201.08 L 2120.56,1203.61 L 2131.45,1209.43 L 2141,1217.27 L 2148.83,1226.81 L 2154.65,1237.7 L 2158.24,1249.52 L 2159.45,1261.81 L 2158.24,1274.1 L 2154.65,1285.92 L 2148.83,1296.81 L 2141,1306.35 L 2131.45,1314.19 L 2120.56,1320.01 L 2108.75,1323.59 L 2096.46,1324.8 L 2084.17,1323.59 L 2072.35,1320.01 L 2061.46,1314.19 L 2051.91,1306.35 L 2044.08,1296.81 L 2038.26,1285.92 L 2034.67,1274.1 L 2033.46,1261.81 z " style="fill-opacity:1.000000;fill:rgb(62,1,126);stroke:rgb(0,0,0);stroke-width:2"/></g>
<g fill-rule="evenodd"><path d="M 2173.62,2973.2 L 2174.38,2965.52 L 2176.62,2958.14 L 2180.26,2951.33 L 2185.15,2945.37 L 2191.12,2940.47 L 2197.93,2936.83 L 2205.31,2934.59 L 2212.99,2933.83 L 2220.67,2934.59 L 2228.06,2936.83 L 2234.86,2940.47 L 2236.05,2941.44 L 3168.79,2941.44 L 3171.87,2941.74 L 3174.82,2942.64 L 3177.54,2944.09 L 3179.93,2946.05 L 3346.25,3112.38 L 6264.45,3112.57 L 6269.13,3114.09 L 6273.12,3116.99 L 6486.95,3330.82 L 6496.04,3325.96 L 6508.6,3322.15 L 6521.65,3320.87 L 6534.71,3322.15 L 6547.27,3325.96 L 6558.84,3332.15 L 6568.98,3340.47 L 6577.3,3350.61 L 6583.49,3362.18 L 6587.3,3374.74 L 6588.58,3387.8 L 6587.3,3400.85 L 6583.49,3413.41 L 6577.3,3424.98 L 6568.98,3435.12 L 6558.84,3443.44 L 6547.27,3449.63 L 6534.71,3453.44 L 6521.65,3454.72 L 6508.6,3453.44 L 6496.04,3449.63 L 6484.47,3443.44 L 6474.33,3435.12 L 6466,3424.98 L 6459.82,3413.41 L 6456.01,3400.85 L 6454.72,3387.8 L 6456.01,3374.74 L 6459.82,3362.18 L 6464.68,3353.09 L 6255.46,3143.87 L 3339.73,3143.87 L 3336.66,3143.57 L 3333.7,3142.67 L 3330.98,3141.22 L 3328.6,3139.26 L 3162.27,2972.94 L 2252.34,2972.94 L 2251.61,2980.89 L 2249.37,2988.27 L 2245.73,2995.08 L 2240.83,3001.04 L 2234.86,3005.94 L 2228.06,3009.58 L 2220.67,3011.82 L 2212.99,3012.57 L 2205.31,3011.82 L 2197.93,3009.58 L 2191.12,3005.94 L 2185.15,3001.04 L 2180.26,2995.08 L 2176.62,2988.27 L 2174.38,2980.89 L 2173.62,2973.2 z " style="fill-opacity:1.000000;fill:rgb(151,234,220);stroke:rgb(0,0,0);stroke-width:2"/></g>
<g fill-rule="evenodd"><path d="M 2233.46,2461.81 L 2234.67,2449.52 L 2238.26,2437.7 L 2244.08,2426.81 L 2251.91,2417.27 L 2261.46,2409.43 L 2272.35,2403.61 L 2284.17,2400.03 L 2296.46,2398.82 L 2308.75,2400.03 L 2320.56,2403.61 L 2328.26,2407.73 L 2577.34,2158.65 L 2579.73,2156.69 L 2582.45,2155.24 L 2585.41,2154.34 L 2588.48,2154.04 L 3252.07,2154.04 L 3303.79,2102.33 L 3306.17,2100.37 L 3308.89,2098.91 L 3311.85,2098.02 L 3314.92,2097.71 L 4837.37,2097.71 L 4840.44,2098.02 L 4843.4,2098.91 L 4846.12,2100.37 L 4848.5,2102.33 L 4916.23,2170.06 L 4922.88,2168.04 L 4930.56,2167.28 L 4938.24,2168.04 L 4945.63,2170.28 L 4952.43,2173.92 L 4958.4,2178.81 L 4963.29,2184.78 L 4966.93,2191.59 L 4969.17,2198.97 L 4969.93,2206.65 L 4969.17,2214.33 L 4966.93,2221.72 L 4963.29,2228.53 L 4958.4,2234.49 L 4952.43,2239.39 L 4945.63,2243.03 L 4938.24,2245.27 L 4930.56,2246.02 L 4922.88,2245.27 L 4915.49,2243.03 L 4908.69,2239.39 L 4902.72,2234.49 L 4897.82,2228.53 L 4894.19,2221.72 L 4891.95,2214.33 L 4891.19,2206.65 L 4891.95,2198.97 L 4893.96,2192.33 L 4830.85,2129.21 L 3321.44,2129.21 L 3269.73,2180.92 L 3267.35,2182.88 L 3264.62,2184.34 L 3261.67,2185.23 L 3258.6,2185.53 L 2595,2185.53 L 2350.54,2430 L 2354.65,2437.7 L 2358.24,2449.52 L 2359.45,2461.81 L 2358.24,2474.1 L 2354.65,2485.92 L 2348.83,2496.81 L 2341,2506.35 L 2331.45,2514.19 L 2320.56,2520.01 L 2308.75,2523.59 L 2296.46,2524.8 L 2284.17,2523.59 L 2272.35,2520.01 L 2261.46,2514.19 L 2251.91,2506.35 L 2244.08,2496.81 L 2238.26,2485.92 L 2234.67,2474.1 L 2233.46,2461.81 z " style="fill-opacity:1.000000;fill:rgb(107,150,143);stroke:rgb(0,0,0);stroke-width:2"/></g>
<g fill-rule="evenodd"><path d="M 2233.46,1261.81 L 2234.67,1249.52 L 2238.26,1237.7 L 2244.08,1226.81 L 2251.91,1217.27 L 2261.46,1209.43 L 2272.35,1203.61 L 2284.17,1200.03 L 2296.46,1198.82 L 2308.75,1200.03 L 2320.56,1203.61 L 2328.26,1207.73 L 2963.69,572.305 L 2966.08,570.347 L 2968.8,568.892 L 2971.75,567.995 L 2974.82,567.693 L 6080.38,567.887 L 6085.07,569.409 L 6089.06,572.305 L 6447.85,931.101 L 6504.33,931.101 L 6504.33,883.858 L 6630.31,883.858 L 6630.31,1009.84 L 6504.33,1009.84 L 6504.33,962.597 L 6441.33,962.597 L 6436.46,961.826 L 6432.07,959.589 L 6071.4,599.189 L 2981.35,599.189 L 2350.54,1230 L 2354.65,1237.7 L 2358.24,1249.52 L 2359.45,1261.81 L 2358.24,1274.1 L 2354.65,1285.92 L 2348.83,1296.81 L 2341,1306.35 L 2331.45,1314.19 L 2320.56,1320.01 L 2308.75,1323.59 L 2296.46,1324.8 L 2284.17,1323.59 L 2272.35,1320.01 L 2261.46,1314.19 L 2251.91,1306.35 L 2244.08,1296.81 L 2238.26,1285.92 L 2234.67,1274.1 L 2233.46,1261.81 z " style="fill-opacity:1.000000;fill:rgb(56,92,42);stroke:rgb(0,0,0);stroke-width:2"/></g>
<g fill-rule="evenodd"><path d="M 2393.13,2148.04 L 2393.88,2140.36 L 2396.12,2132.97 L 2399.76,2126.17 L 2404.66,2120.2 L 2410.62,2115.3 L 2417.43,2111.67 L 2424.82,2109.43 L 2432.5,2108.67 L 2440.18,2109.43 L 2446.82,2111.44 L 2478.36,2079.9 L 2480.75,2077.94 L 2483.47,2076.49 L 2486.42,2075.59 L 2489.49,2075.29 L 3219.46,2075.29 L 3271.17,2023.58 L 3273.56,2021.62 L 3276.28,2020.17 L 3279.23,2019.27 L 3282.31,2018.97 L 4990.61,2018.97 L 4993.08,2019.16 L 4997.76,2020.68 L 5001.75,2023.58 L 5109.27,2131.1 L 5168.01,2131.1 L 5170.54,2122.74 L 5176.36,2111.85 L 5184.2,2102.31 L 5193.74,2094.47 L 5204.63,2088.65 L 5216.45,2085.07 L 5228.74,2083.86 L 5241.03,2085.07 L 5252.85,2088.65 L 5263.74,2094.47 L 5273.28,2102.31 L 5281.12,2111.85 L 5286.94,2122.74 L 5290.52,2134.56 L 5291.73,2146.85 L 5290.52,2159.14 L 5286.94,2170.96 L 5281.12,2181.85 L 5273.28,2191.39 L 5263.74,2199.23 L 5252.85,2205.05 L 5241.03,2208.63 L 5228.74,2209.84 L 5216.45,2208.63 L 5204.63,2205.05 L 5193.74,2199.23 L 5184.2,2191.39 L 5176.36,2181.85 L 5170.54,2170.96 L 5168.01,2162.6 L 5102.75,2162.6 L 5097.88,2161.83 L 5093.49,2159.59 L 4984.09,2050.46 L 3288.83,2050.46 L 3237.12,2102.17 L 3234.73,2104.13 L 3232.01,2105.59 L 3229.06,2106.48 L 3225.98,2106.79 L 2496.02,2106.79 L 2469.09,2133.71 L 2471.11,2140.36 L 2471.87,2148.04 L 2471.11,2155.72 L 2468.87,2163.11 L 2465.23,2169.91 L 2460.33,2175.88 L 2454.37,2180.77 L 2447.56,2184.41 L 2440.18,2186.65 L 2432.5,2187.41 L 2424.82,2186.65 L 2417.43,2184.41 L 2410.62,2180.77 L 2404.66,2175.88 L 2399.76,2169.91 L 2396.12,2163.11 L 2393.88,2155.72 L 2393.13,2148.04 z " style="fill-opacity:1.000000;fill:rgb(236,176,59);stroke:rgb(0,0,0);stroke-width:2"/></g>
<g fill-rule="evenodd"><path d="M 2433.46,2461.81 L 2434.67,2449.52 L 2438.26,2437.7 L 2444.08,2426.81 L 2451.91,2417.27 L 2461.46,2409.43 L 2472.35,2403.61 L 2484.17,2400.03 L 2496.46,2398.82 L 2508.75,2400.03 L 2520.56,2403.61 L 2531.45,2409.43 L 2541,2417.27 L 2548.83,2426.81 L 2554.65,2437.7 L 2558.24,2449.52 L 2559.45,2461.81 L 2558.24,2474.1 L 2554.65,2485.92 L 2548.83,2496.81 L 2541,2506.35 L 2531.45,2514.19 L 2520.56,2520.01 L 2508.75,2523.59 L 2496.46,2524.8 L 2484.17,2523.59 L 2472.35,2520.01 L 2461.46,2514.19 L 2451.91,2506.35 L 2444.08,2496.81 L 2438.26,2485.92 L 2434.67,2474.1 L 2433.46,2461.81 z " style="fill-opacity:1.000000;fill:rgb(251,50,175);stroke:rgb(0,0,0);stroke-width:2"/></g>
<g fill-rule="evenodd"><path d="M 2433.46,1261.81 L 2434.67,1249.52 L 2438.26,1237.7 L 2444.08,1226.81 L 2451.91,1217.27 L 2461.46,1209.43 L 2472.35,1203.61 L 2484.17,1200.03 L 2496.46,1198.82 L 2508.75,1200.03 L 2520.56,1203.61 L 2531.45,1209.43 L 2541,1217.27 L 2548.83,1226.81 L 2554.65,1237.7 L 2558.24,1249.52 L 2559.45,1261.81 L 2558.24,1274.1 L 2554.65,1285.92 L 2548.83,1296.81 L 2541,1306.35 L 2531.45,1314.19 L 2520.56,1320.01 L 2508.75,1323.59 L 2496.46,1324.8 L 2484.17,1323.59 L 2472.35,1320.01 L 2461.46,1314.19 L 2451.91,1306.35 L 2444.08,1296.81 L 2438.26,1285.92 L 2434.67,1274.1 L 2433.46,1261.81 z " style="fill-opacity:1.000000;fill:rgb(60,84,236);stroke:rgb(0,0,0);stroke-width:2"/></g>
<g fill-rule="evenodd"><path d="M 2454.72,3454.72 L 2454.72,3320.87 L 2588.58,3320.87 L 2588.58,3454.72 L 2454.72,3454.72 z " style="fill-opacity:1.000000;fill:rgb(24,219,92);stroke:rgb(0,0,0);stroke-width:2"/></g>
<g fill-rule="evenodd"><path d="M 2633.46,2461.81 L 2634.67,2449.52 L 2638.26,2437.7 L 2644.08,2426.81 L 2651.91,2417.27 L 2661.46,2409.43 L 2672.35,2403.61 L 2684.17,2400.03 L 2696.46,2398.82 L 2708.75,2400.03 L 2720.56,2403.61 L 2728.26,2407.73 L 2898.6,2237.4 L 2900.98,2235.44 L 2903.7,2233.99 L 2906.66,2233.09 L 2909.73,2232.79 L 3284.69,2232.79 L 3312.05,2205.42 L 3314.44,2203.46 L 3317.16,2202.01 L 3320.12,2201.11 L 3323.19,2200.81 L 4684.52,2200.81 L 4687.79,2194.69 L 4692.69,2188.72 L 4698.65,2183.82 L 4705.46,2180.19 L 4712.85,2177.95 L 4720.53,2177.19 L 4728.21,2177.95 L 4735.59,2180.19 L 4742.4,2183.82 L 4748.37,2188.72 L 4753.26,2194.69 L 4756.9,2201.49 L 4759.14,2208.88 L 4759.9,2216.56 L 4759.14,2224.24 L 4756.9,2231.63 L 4753.26,2238.43 L 4748.37,2244.4 L 4742.4,2249.29 L 4735.59,2252.93 L 4728.21,2255.17 L 4720.53,2255.93 L 4712.85,2255.17 L 4705.46,2252.93 L 4698.65,2249.29 L 4692.69,2244.4 L 4687.79,2238.43 L 4684.52,2232.31 L 3329.71,2232.31 L 3302.35,2259.67 L 3299.96,2261.63 L 3297.24,2263.08 L 3294.28,2263.98 L 3291.21,2264.28 L 2916.25,2264.28 L 2750.54,2430 L 2754.65,2437.7 L 2758.24,2449.52 L 2759.45,2461.81 L 2758.24,2474.1 L 2754.65,2485.92 L 2748.83,2496.81 L 2741,2506.35 L 2731.45,2514.19 L 2720.56,2520.01 L 2708.75,2523.59 L 2696.46,2524.8 L 2684.17,2523.59 L 2672.35,2520.01 L 2661.46,2514.19 L 2651.91,2506.35 L 2644.08,2496.81 L 2638.26,2485.92 L 2634.67,2474.1 L 2633.46,2461.81 z " style="fill-opacity:1.000000;fill:rgb(2,26,254);stroke:rgb(0,0,0);stroke-width:2"/></g>
<g fill-rule="evenodd"><path d="M 2654.72,3387.8 L 2656.01,3374.74 L 2659.82,3362.18 L 2666,3350.61 L 2674.33,3340.47 L 2684.47,3332.15 L 2696.04,3325.96 L 2708.6,3322.15 L 2721.65,3320.87 L 2734.71,3322.15 L 2747.27,3325.96 L 2758.84,3332.15 L 2768.98,3340.47 L 2777.3,3350.61 L 2783.49,3362.18 L 2787.3,3374.74 L 2788.58,3387.8 L 2787.3,3400.85 L 2783.49,3413.41 L 2777.3,3424.98 L 2768.98,3435.12 L 2758.84,3443.44 L 2747.27,3449.63 L 2734.71,3453.44 L 2721.65,3454.72 L 2708.6,3453.44 L 2696.04,3449.63 L 2684.47,3443.44 L 2674.33,3435.12 L 2666,3424.98 L 2659.82,3413.41 L 2656.01,3400.85 L 2654.72,3387.8 z " style="fill-opacity:1.000000;fill:rgb(67,251,250);stroke:rgb(0,0,0);stroke-width:2"/></g>
<g fill-rule="evenodd"><path d="M 2796.57,3059.56 L 2797.33,3051.88 L 2799.57,3044.49 L 2803.21,3037.69 L 2808.11,3031.72 L 2814.07,3026.82 L 2820.88,3023.19 L 2828.26,3020.95 L 2835.94,3020.19 L 2843.63,3020.95 L 2851.01,3023.19 L 2857.82,3026.82 L 2863.78,3031.72 L 2868.68,3037.69 L 2872.32,3044.49 L 2874.56,3051.88 L 2875.31,3059.56 L 2874.56,3067.24 L 2872.54,3073.89 L 2989.79,3191.13 L 4140.74,3191.13 L 4143.81,3191.44 L 4146.77,3192.33 L 4149.49,3193.79 L 4151.87,3195.75 L 4286.95,3330.82 L 4296.04,3325.96 L 4308.6,3322.15 L 4321.65,3320.87 L 4334.71,3322.15 L 4347.27,3325.96 L 4358.84,3332.15 L 4368.98,3340.47 L 4377.3,3350.61 L 4383.49,3362.18 L 4387.3,3374.74 L 4388.58,3387.8 L 4387.3,3400.85 L 4383.49,3413.41 L 4377.3,3424.98 L 4368.98,3435.12 L 4358.84,3443.44 L 4347.27,3449.63 L 4334.71,3453.44 L 4321.65,3454.72 L 4308.6,3453.44 L 4296.04,3449.63 L 4284.47,3443.44 L 4274.33,3435.12 L 4266,3424.98 L 4259.82,3413.41 L 4256.01,3400.85 L 4254.72,3387.8 L 4256.01,3374.74 L 4259.82,3362.18 L 4264.68,3353.09 L 4134.22,3222.63 L 2983.27,3222.63 L 2980.19,3222.33 L 2977.24,3221.43 L 2974.52,3219.97 L 2972.13,3218.02 L 2850.27,3096.16 L 2843.63,3098.17 L 2835.94,3098.93 L 2828.26,3098.17 L 2820.88,3095.93 L 2814.07,3092.29 L 2808.11,3087.4 L 2803.21,3081.43 L 2799.57,3074.63 L 2797.33,3067.24 L 2796.57,3059.56 z " style="fill-opacity:1.000000;fill:rgb(170,58,251);stroke:rgb(0,0,0);stroke-width:2"/></g>
<g fill-rule="evenodd"><path d="M 2833.46,2461.81 L 2834.67,2449.52 L 2838.26,2437.7 L 2844.08,2426.81 L 2851.91,2417.27 L 2861.46,2409.43 L 2872.35,2403.61 L 2884.17,2400.03 L 2896.46,2398.82 L 2908.75,2400.03 L 2920.56,2403.61 L 2928.26,2407.73 L 3015.08,2320.92 L 3017.46,2318.96 L 3020.18,2317.51 L 3023.14,2316.61 L 3026.21,2316.31 L 4609.09,2316.31 L 4612.36,2310.18 L 4617.26,2304.22 L 4623.22,2299.32 L 4630.03,2295.68 L 4637.41,2293.44 L 4645.09,2292.69 L 4652.78,2293.44 L 4660.16,2295.68 L 4666.97,2299.32 L 4672.93,2304.22 L 4677.83,2310.18 L 4681.47,2316.99 L 4683.71,2324.37 L 4684.46,2332.06 L 4683.71,2339.74 L 4681.47,2347.12 L 4677.83,2353.93 L 4672.93,2359.89 L 4666.97,2364.79 L 4660.16,2368.43 L 4652.78,2370.67 L 4645.09,2371.43 L 4637.41,2370.67 L 4630.03,2368.43 L 4623.22,2364.79 L 4617.26,2359.89 L 4612.36,2353.93 L 4609.09,2347.8 L 3032.73,2347.8 L 2950.54,2430 L 2954.65,2437.7 L 2958.24,2449.52 L 2959.45,2461.81 L 2958.24,2474.1 L 2954.65,2485.92 L 2948.83,2496.81 L 2941,2506.35 L 2931.45,2514.19 L 2920.56,2520.01 L 2908.75,2523.59 L 2896.46,2524.8 L 2884.17,2523.59 L 2872.35,2520.01 L 2861.46,2514.19 L 2851.91,2506.35 L 2844.08,2496.81 L 2838.26,2485.92 L 2834.67,2474.1 L 2833.46,2461.81 z " style="fill-opacity:1.000000;fill:rgb(41,209,230);stroke:rgb(0,0,0);stroke-width:2"/></g>
<g fill-rule="evenodd"><path d="M 2833.46,1261.81 L 2834.67,1249.52 L 2838.26,1237.7 L 2844.08,1226.81 L 2851.91,1217.27 L 2861.46,1209.43 L 2872.35,1203.61 L 2884.17,1200.03 L 2896.46,1198.82 L 2908.75,1200.03 L 2920.56,1203.61 L 2928.26,1207.73 L 3484.94,651.051 L 3486.82,649.446 L 3491.21,647.21 L 3496.08,646.439 L 5941.53,646.633 L 5946.21,648.155 L 5950.2,651.051 L 6430.25,1131.1 L 6506.59,1131.1 L 6509.13,1122.74 L 6514.95,1111.85 L 6522.78,1102.31 L 6532.33,1094.47 L 6543.22,1088.65 L 6555.03,1085.07 L 6567.32,1083.86 L 6579.61,1085.07 L 6591.43,1088.65 L 6602.32,1094.47 L 6611.86,1102.31 L 6619.7,1111.85 L 6625.52,1122.74 L 6629.1,1134.56 L 6630.31,1146.85 L 6629.1,1159.14 L 6625.52,1170.96 L 6619.7,1181.85 L 6611.86,1191.39 L 6602.32,1199.23 L 6591.43,1205.05 L 6579.61,1208.63 L 6567.32,1209.84 L 6555.03,1208.63 L 6543.22,1205.05 L 6532.33,1199.23 L 6522.78,1191.39 L 6514.95,1181.85 L 6509.13,1170.96 L 6506.59,1162.6 L 6423.72,1162.6 L 6418.86,1161.83 L 6414.47,1159.59 L 5932.54,677.935 L 3502.6,677.935 L 2950.54,1230 L 2954.65,1237.7 L 2958.24,1249.52 L 2959.45,1261.81 L 2958.24,1274.1 L 2954.65,1285.92 L 2948.83,1296.81 L 2941,1306.35 L 2931.45,1314.19 L 2920.56,1320.01 L 2908.75,1323.59 L 2896.46,1324.8 L 2884.17,1323.59 L 2872.35,1320.01 L 2861.46,1314.19 L 2851.91,1306.35 L 2844.08,1296.81 L 2838.26,1285.92 L 2834.67,1274.1 L 2833.46,1261.81 z " style="fill-opacity:1.000000;fill:rgb(5,60,124);stroke:rgb(0,0,0);stroke-width:2"/></g>
<g fill-rule="evenodd"><path d="M 2854.72,3387.8 L 2856.01,3374.74 L 2859.82,3362.18 L 2866,3350.61 L 2874.33,3340.47 L 2884.47,3332.15 L 2896.04,3325.96 L 2908.6,3322.15 L 2921.65,3320.87 L 2934.71,3322.15 L 2947.27,3325.96 L 2958.84,3332.15 L 2968.98,3340.47 L 2977.3,3350.61 L 2983.49,3362.18 L 2987.3,3374.74 L 2988.58,3387.8 L 2987.3,3400.85 L 2983.49,3413.41 L 2977.3,3424.98 L 2968.98,3435.12 L 2958.84,3443.44 L 2947.27,3449.63 L 2934.71,3453.44 L 2921.65,3454.72 L 2908.6,3453.44 L 2896.04,3449.63 L 2884.47,3443.44 L 2874.33,3435.12 L 2866,3424.98 L 2859.82,3413.41 L 2856.01,3400.85 L 2854.72,3387.8 z " style="fill-opacity:1.000000;fill:rgb(148,117,216);stroke:rgb(0,0,0);stroke-width:2"/></g>
<g fill-rule="evenodd"><path d="M 2864.55,1908.6 L 2865.31,1900.92 L 2867.55,1893.53 L 2871.19,1886.73 L 2876.08,1880.76 L 2882.05,1875.86 L 2888.85,1872.23 L 2896.24,1869.98 L 2903.92,1869.23 L 2911.6,1869.98 L 2918.99,1872.23 L 2925.79,1875.86 L 2931.76,1880.76 L 2936.66,1886.73 L 2940.29,1893.53 L 2942.53,1900.92 L 2943.29,1908.6 L 2942.53,1916.28 L 2942.08,1917.79 L 3154.23,1917.79 L 3205.94,1866.08 L 3209.93,1863.19 L 3212.21,1862.24 L 3217.08,1861.47 L 4765.85,1861.47 L 5093.49,1534.11 L 5097.88,1531.87 L 5102.75,1531.1 L 5168.01,1531.1 L 5170.54,1522.74 L 5176.36,1511.85 L 5184.2,1502.31 L 5193.74,1494.47 L 5204.63,1488.65 L 5216.45,1485.07 L 5228.74,1483.86 L 5241.03,1485.07 L 5252.85,1488.65 L 5263.74,1494.47 L 5273.28,1502.31 L 5281.12,1511.85 L 5286.94,1522.74 L 5290.52,1534.56 L 5291.73,1546.85 L 5290.52,1559.14 L 5286.94,1570.96 L 5281.12,1581.85 L 5273.28,1591.39 L 5263.74,1599.23 L 5252.85,1605.05 L 5241.03,1608.63 L 5228.74,1609.84 L 5216.45,1608.63 L 5204.63,1605.05 L 5193.74,1599.23 L 5184.2,1591.39 L 5176.36,1581.85 L 5170.54,1570.96 L 5168.01,1562.6 L 5109.27,1562.6 L 4783.51,1888.35 L 4779.53,1891.25 L 4774.84,1892.77 L 3223.6,1892.97 L 3171.89,1944.68 L 3167.9,1947.57 L 3165.62,1948.52 L 3160.75,1949.29 L 2928.86,1949.29 L 2924,1948.52 L 2921.72,1947.57 L 2918.31,1945.18 L 2911.6,1947.21 L 2903.92,1947.97 L 2896.24,1947.21 L 2888.85,1944.97 L 2882.05,1941.33 L 2876.08,1936.44 L 2871.19,1930.47 L 2867.55,1923.66 L 2865.31,1916.28 L 2864.55,1908.6 z " style="fill-opacity:1.000000;fill:rgb(190,97,137);stroke:rgb(0,0,0);stroke-width:2"/></g>
<g fill-rule="evenodd"><path d="M 3033.46,2461.81 L 3034.67,2449.52 L 3038.26,2437.7 L 3044.08,2426.81 L 3051.91,2417.27 L 3061.46,2409.43 L 3072.35,2403.61 L 3084.17,2400.03 L 3096.46,2398.82 L 3108.75,2400.03 L 3120.56,2403.61 L 3131.45,2409.43 L 3141,2417.27 L 3148.83,2426.81 L 3154.65,2437.7 L 3158.24,2449.52 L 3159.45,2461.81 L 3158.24,2474.1 L 3154.65,2485.92 L 3148.83,2496.81 L 3141,2506.35 L 3131.45,2514.19 L 3120.56,2520.01 L 3108.75,2523.59 L 3096.46,2524.8 L 3084.17,2523.59 L 3072.35,2520.01 L 3061.46,2514.19 L 3051.91,2506.35 L 3044.08,2496.81 L 3038.26,2485.92 L 3034.67,2474.1 L 3033.46,2461.81 z " style="fill-opacity:1.000000;fill:rgb(249,92,187);stroke:rgb(0,0,0);stroke-width:2"/></g>
<g fill-rule="evenodd"><path d="M 3054.72,3387.8 L 3056.01,3374.74 L 3059.82,3362.18 L 3066,3350.61 L 3074.33,3340.47 L 3084.47,3332.15 L 3096.04,3325.96 L 3108.6,3322.15 L 3121.65,3320.87 L 3134.71,3322.15 L 3147.27,3325.96 L 3158.84,3332.15 L 3168.98,3340.47 L 3177.3,3350.61 L 3183.49,3362.18 L 3187.3,3374.74 L 3188.58,3387.8 L 3187.3,3400.85 L 3183.49,3413.41 L 3177.3,3424.98 L 3168.98,3435.12 L 3158.84,3443.44 L 3147.27,3449.63 L 3134.71,3453.44 L 3121.65,3454.72 L 3108.6,3453.44 L 3096.04,3449.63 L 3084.47,3443.44 L 3074.33,3435.12 L 3066,3424.98 L 3059.82,3413.41 L 3056.01,3400.85 L 3054.72,3387.8 z " style="fill-opacity:1.000000;fill:rgb(168,153,15);stroke:rgb(0,0,0);stroke-width:2"/></g>
<g fill-rule="evenodd"><path d="M 3078.98,1831.17 L 3079.73,1823.49 L 3081.97,1816.11 L 3085.61,1809.3 L 3090.51,1803.33 L 3096.47,1798.44 L 3103.28,1794.8 L 3110.67,1792.56 L 3118.35,1791.8 L 3126.03,1792.56 L 3132.67,1794.58 L 3140.63,1786.62 L 3143.01,1784.66 L 3145.74,1783.21 L 3148.69,1782.31 L 3151.76,1782.01 L 4245.32,1782.01 L 5091.61,935.713 L 5095.6,932.817 L 5100.28,931.295 L 5102.75,931.101 L 5165.75,931.101 L 5165.75,883.858 L 5291.73,883.858 L 5291.73,1009.84 L 5165.75,1009.84 L 5165.75,962.597 L 5109.27,962.597 L 4262.98,1808.89 L 4258.99,1811.79 L 4254.3,1813.31 L 4251.84,1813.5 L 3158.29,1813.5 L 3154.94,1816.84 L 3156.96,1823.49 L 3157.72,1831.17 L 3156.96,1838.85 L 3154.72,1846.24 L 3151.08,1853.05 L 3146.19,1859.01 L 3140.22,1863.91 L 3133.41,1867.55 L 3126.03,1869.79 L 3118.35,1870.54 L 3110.67,1869.79 L 3103.28,1867.55 L 3096.47,1863.91 L 3090.51,1859.01 L 3085.61,1853.05 L 3081.97,1846.24 L 3079.73,1838.85 L 3078.98,1831.17 z " style="fill-opacity:1.000000;fill:rgb(149,177,235);stroke:rgb(0,0,0);stroke-width:2"/></g>
<g fill-rule="evenodd"><path d="M 3233.46,2461.81 L 3234.67,2449.52 L 3238.26,2437.7 L 3244.08,2426.81 L 3251.91,2417.27 L 3261.46,2409.43 L 3272.35,2403.61 L 3284.17,2400.03 L 3296.46,2398.82 L 3308.75,2400.03 L 3320.56,2403.61 L 3331.45,2409.43 L 3341,2417.27 L 3348.83,2426.81 L 3354.65,2437.7 L 3358.24,2449.52 L 3359.45,2461.81 L 3358.24,2474.1 L 3354.65,2485.92 L 3350.54,2493.62 L 3624.36,2767.45 L 4508.49,2767.45 L 4511.76,2761.32 L 4516.66,2755.36 L 4522.62,2750.46 L 4529.43,2746.82 L 4536.82,2744.58 L 4544.5,2743.83 L 4552.18,2744.58 L 4559.56,2746.82 L 4566.37,2750.46 L 4572.33,2755.36 L 4577.23,2761.32 L 4580.5,2767.45 L 4968.54,2767.45 L 5381.6,2354.39 L 5381.6,1578.24 L 5381.9,1575.17 L 5382.8,1572.22 L 5384.25,1569.49 L 5386.21,1567.11 L 5774.66,1178.66 L 5770.54,1170.96 L 5766.96,1159.14 L 5765.75,1146.85 L 5766.96,1134.56 L 5770.54,1122.74 L 5776.36,1111.85 L 5784.2,1102.31 L 5793.74,1094.47 L 5804.63,1088.65 L 5816.45,1085.07 L 5828.74,1083.86 L 5841.03,1085.07 L 5852.85,1088.65 L 5863.74,1094.47 L 5873.28,1102.31 L 5881.12,1111.85 L 5886.94,1122.74 L 5890.52,1134.56 L 5891.73,1146.85 L 5890.52,1159.14 L 5886.94,1170.96 L 5881.12,1181.85 L 5873.28,1191.39 L 5863.74,1199.23 L 5852.85,1205.05 L 5841.03,1208.63 L 5828.74,1209.84 L 5816.45,1208.63 L 5804.63,1205.05 L 5796.93,1200.93 L 5413.09,1584.77 L 5413.09,2360.91 L 5412.79,2363.99 L 5411.89,2366.94 L 5410.44,2369.66 L 5408.48,2372.05 L 4986.2,2794.33 L 4982.21,2797.23 L 4977.53,2798.75 L 4975.06,2798.94 L 4580.5,2798.94 L 4577.23,2805.07 L 4572.33,2811.04 L 4566.37,2815.93 L 4559.56,2819.57 L 4552.18,2821.81 L 4544.5,2822.57 L 4536.82,2821.81 L 4529.43,2819.57 L 4522.62,2815.93 L 4516.66,2811.04 L 4511.76,2805.07 L 4508.49,2798.94 L 3617.84,2798.94 L 3614.77,2798.64 L 3611.81,2797.75 L 3609.09,2796.29 L 3606.71,2794.33 L 3328.26,2515.89 L 3320.56,2520.01 L 3308.75,2523.59 L 3296.46,2524.8 L 3284.17,2523.59 L 3272.35,2520.01 L 3261.46,2514.19 L 3251.91,2506.35 L 3244.08,2496.81 L 3238.26,2485.92 L 3234.67,2474.1 L 3233.46,2461.81 z " style="fill-opacity:1.000000;fill:rgb(241,179,5);stroke:rgb(0,0,0);stroke-width:2"/></g>
<g fill-rule="evenodd"><path d="M 3233.46,1261.81 L 3234.67,1249.52 L 3238.26,1237.7 L 3244.08,1226.81 L 3251.91,1217.27 L 3261.46,1209.43 L 3272.35,1203.61 L 3284.17,1200.03 L 3296.46,1198.82 L 3308.75,1200.03 L 3320.56,1203.61 L 3331.45,1209.43 L 3341,1217.27 L 3348.83,1226.81 L 3354.65,1237.7 L 3358.24,1249.52 L 3359.45,1261.81 L 3358.24,1274.1 L 3354.65,1285.92 L 3348.83,1296.81 L 3341,1306.35 L 3331.45,1314.19 L 3320.56,1320.01 L 3308.75,1323.59 L 3296.46,1324.8 L 3284.17,1323.59 L 3272.35,1320.01 L 3261.46,1314.19 L 3251.91,1306.35 L 3244.08,1296.81 L 3238.26,1285.92 L 3234.67,1274.1 L 3233.46,1261.81 z " style="fill-opacity:1.000000;fill:rgb(239,247,0);stroke:rgb(0,0,0);stroke-width:2"/></g>
<g fill-rule="evenodd"><path d="M 3254.72,3387.8 L 3256.01,3374.74 L 3259.82,3362.18 L 3266,3350.61 L 3274.33,3340.47 L 3284.47,3332.15 L 3296.04,3325.96 L 3308.6,3322.15 L 3321.65,3320.87 L 3334.71,3322.15 L 3347.27,3325.96 L 3358.84,3332.15 L 3368.98,3340.47 L 3377.3,3350.61 L 3383.49,3362.18 L 3387.3,3374.74 L 3388.58,3387.8 L 3387.3,3400.85 L 3383.49,3413.41 L 3377.3,3424.98 L 3368.98,3435.12 L 3358.84,3443.44 L 3347.27,3449.63 L 3334.71,3453.44 L 3321.65,3454.72 L 3308.6,3453.44 L 3296.04,3449.63 L 3284.47,3443.44 L 3274.33,3435.12 L 3266,3424.98 L 3259.82,3413.41 L 3256.01,3400.85 L 3254.72,3387.8 z " style="fill-opacity:1.000000;fill:rgb(233,161,58);stroke:rgb(0,0,0);stroke-width:2"/></g>
<g fill-rule="evenodd"><path d="M 3433.46,2461.81 L 3434.67,2449.52 L 3438.26,2437.7 L 3444.08,2426.81 L 3451.91,2417.27 L 3461.46,2409.43 L 3472.35,2403.61 L 3484.17,2400.03 L 3496.46,2398.82 L 3508.75,2400.03 L 3520.56,2403.61 L 3531.45,2409.43 L 3541,2417.27 L 3548.83,2426.81 L 3554.65,2437.7 L 3558.24,2449.52 L 3559.45,2461.81 L 3558.24,2474.1 L 3554.65,2485.92 L 3548.83,2496.81 L 3541,2506.35 L 3531.45,2514.19 L 3520.56,2520.01 L 3508.75,2523.59 L 3496.46,2524.8 L 3484.17,2523.59 L 3472.35,2520.01 L 3461.46,2514.19 L 3451.91,2506.35 L 3444.08,2496.81 L 3438.26,2485.92 L 3434.67,2474.1 L 3433.46,2461.81 z " style="fill-opacity:1.000000;fill:rgb(229,202,11);stroke:rgb(0,0,0);stroke-width:2"/></g>
<g fill-rule="evenodd"><path d="M 3433.46,1261.81 L 3434.67,1249.52 L 3438.26,1237.7 L 3444.08,1226.81 L 3451.91,1217.27 L 3461.46,1209.43 L 3472.35,1203.61 L 3484.17,1200.03 L 3496.46,1198.82 L 3508.75,1200.03 L 3520.56,1203.61 L 3531.45,1209.43 L 3541,1217.27 L 3548.83,1226.81 L 3554.65,1237.7 L 3558.24,1249.52 L 3559.45,1261.81 L 3558.24,1274.1 L 3554.65,1285.92 L 3548.83,1296.81 L 3541,1306.35 L 3531.45,1314.19 L 3520.56,1320.01 L 3508.75,1323.59 L 3496.46,1324.8 L 3484.17,1323.59 L 3472.35,1320.01 L 3461.46,1314.19 L 3451.91,1306.35 L 3444.08,1296.81 L 3438.26,1285.92 L 3434.67,1274.1 L 3433.46,1261.81 z " style="fill-opacity:1.000000;fill:rgb(203,208,72);stroke:rgb(0,0,0);stroke-width:2"/></g>
<g fill-rule="evenodd"><path d="M 3454.72,3387.8 L 3456.01,3374.74 L 3459.82,3362.18 L 3466,3350.61 L 3474.33,3340.47 L 3484.47,3332.15 L 3496.04,3325.96 L 3508.6,3322.15 L 3521.65,3320.87 L 3534.71,3322.15 L 3547.27,3325.96 L 3558.84,3332.15 L 3568.98,3340.47 L 3577.3,3350.61 L 3583.49,3362.18 L 3587.3,3374.74 L 3588.58,3387.8 L 3587.3,3400.85 L 3583.49,3413.41 L 3577.3,3424.98 L 3568.98,3435.12 L 3558.84,3443.44 L 3547.27,3449.63 L 3534.71,3453.44 L 3521.65,3454.72 L 3508.6,3453.44 L 3496.04,3449.63 L 3484.47,3443.44 L 3474.33,3435.12 L 3466,3424.98 L 3459.82,3413.41 L 3456.01,3400.85 L 3454.72,3387.8 z " style="fill-opacity:1.000000;fill:rgb(71,100,189);stroke:rgb(0,0,0);stroke-width:2"/></g>
<g fill-rule="evenodd"><path d="M 3633.46,2461.81 L 3634.67,2449.52 L 3638.26,2437.7 L 3644.08,2426.81 L 3651.91,2417.27 L 3661.46,2409.43 L 3672.35,2403.61 L 3684.17,2400.03 L 3696.46,2398.82 L 3708.75,2400.03 L 3720.56,2403.61 L 3731.45,2409.43 L 3741,2417.27 L 3748.83,2426.81 L 3754.65,2437.7 L 3758.24,2449.52 L 3759.45,2461.81 L 3758.24,2474.1 L 3754.65,2485.92 L 3748.83,2496.81 L 3741,2506.35 L 3731.45,2514.19 L 3720.56,2520.01 L 3708.75,2523.59 L 3696.46,2524.8 L 3684.17,2523.59 L 3672.35,2520.01 L 3661.46,2514.19 L 3651.91,2506.35 L 3644.08,2496.81 L 3638.26,2485.92 L 3634.67,2474.1 L 3633.46,2461.81 z " style="fill-opacity:1.000000;fill:rgb(31,35,30);stroke:rgb(0,0,0);stroke-width:2"/></g>
<g fill-rule="evenodd"><path d="M 3633.46,1261.81 L 3634.67,1249.52 L 3638.26,1237.7 L 3644.08,1226.81 L 3651.91,1217.27 L 3661.46,1209.43 L 3672.35,1203.61 L 3684.17,1200.03 L 3696.46,1198.82 L 3708.75,1200.03 L 3720.56,1203.61 L 3731.45,1209.43 L 3741,1217.27 L 3748.83,1226.81 L 3754.65,1237.7 L 3758.24,1249.52 L 3759.45,1261.81 L 3758.24,1274.1 L 3754.65,1285.92 L 3748.83,1296.81 L 3741,1306.35 L 3731.45,1314.19 L 3720.56,1320.01 L 3708.75,1323.59 L 3696.46,1324.8 L 3684.17,1323.59 L 3672.35,1320.01 L 3661.46,1314.19 L 3651.91,1306.35 L 3644.08,1296.81 L 3638.26,1285.92 L 3634.67,1274.1 L 3633.46,1261.81 z " style="fill-opacity:1.000000;fill:rgb(168,28,123);stroke:rgb(0,0,0);stroke-width:2"/></g>
<g fill-rule="evenodd"><path d="M 3654.72,3387.8 L 3656.01,3374.74 L 3659.82,3362.18 L 3666,3350.61 L 3674.33,3340.47 L 3684.47,3332.15 L 3696.04,3325.96 L 3708.6,3322.15 L 3721.65,3320.87 L 3734.71,3322.15 L 3747.27,3325.96 L 3758.84,3332.15 L 3768.98,3340.47 L 3777.3,3350.61 L 3783.49,3362.18 L 3787.3,3374.74 L 3788.58,3387.8 L 3787.3,3400.85 L 3783.49,3413.41 L 3777.3,3424.98 L 3768.98,3435.12 L 3758.84,3443.44 L 3747.27,3449.63 L 3734.71,3453.44 L 3721.65,3454.72 L 3708.6,3453.44 L 3696.04,3449.63 L 3684.47,3443.44 L 3674.33,3435.12 L 3666,3424.98 L 3659.82,3413.41 L 3656.01,3400.85 L 3654.72,3387.8 z " style="fill-opacity:1.000000;fill:rgb(100,197,20);stroke:rgb(0,0,0);stroke-width:2"/></g>
<g fill-rule="evenodd"><path d="M 3833.46,2461.81 L 3834.67,2449.52 L 3838.26,2437.7 L 3844.08,2426.81 L 3851.91,2417.27 L 3861.46,2409.43 L 3872.35,2403.61 L 3884.17,2400.03 L 3896.46,2398.82 L 3908.75,2400.03 L 3920.56,2403.61 L 3931.45,2409.43 L 3941,2417.27 L 3948.83,2426.81 L 3954.65,2437.7 L 3958.24,2449.52 L 3959.45,2461.81 L 3958.24,2474.1 L 3954.65,2485.92 L 3948.83,2496.81 L 3941,2506.35 L 3931.45,2514.19 L 3920.56,2520.01 L 3908.75,2523.59 L 3896.46,2524.8 L 3884.17,2523.59 L 3872.35,2520.01 L 3861.46,2514.19 L 3851.91,2506.35 L 3844.08,2496.81 L 3838.26,2485.92 L 3834.67,2474.1 L 3833.46,2461.81 z " style="fill-opacity:1.000000;fill:rgb(115,90,197);stroke:rgb(0,0,0);stroke-width:2"/></g>
<g fill-rule="evenodd"><path d="M 3833.46,1261.81 L 3834.67,1249.52 L 3838.26,1237.7 L 3844.08,1226.81 L 3851.91,1217.27 L 3861.46,1209.43 L 3872.35,1203.61 L 3884.17,1200.03 L 3896.46,1198.82 L 3908.75,1200.03 L 3920.56,1203.61 L 3931.45,1209.43 L 3941,1217.27 L 3948.83,1226.81 L 3954.65,1237.7 L 3958.24,1249.52 L 3959.45,1261.81 L 3958.24,1274.1 L 3954.65,1285.92 L 3948.83,1296.81 L 3941,1306.35 L 3931.45,1314.19 L 3920.56,1320.01 L 3908.75,1323.59 L 3896.46,1324.8 L 3884.17,1323.59 L 3872.35,1320.01 L 3861.46,1314.19 L 3851.91,1306.35 L 3844.08,1296.81 L 3838.26,1285.92 L 3834.67,1274.1 L 3833.46,1261.81 z " style="fill-opacity:1.000000;fill:rgb(94,75,121);stroke:rgb(0,0,0);stroke-width:2"/></g>
<g fill-rule="evenodd"><path d="M 3854.72,3387.8 L 3856.01,3374.74 L 3859.82,3362.18 L 3866,3350.61 L 3874.33,3340.47 L 3884.47,3332.15 L 3896.04,3325.96 L 3908.6,3322.15 L 3921.65,3320.87 L 3934.71,3322.15 L 3947.27,3325.96 L 3958.84,3332.15 L 3968.98,3340.47 L 3977.3,3350.61 L 3983.49,3362.18 L 3987.3,3374.74 L 3988.58,3387.8 L 3987.3,3400.85 L 3983.49,3413.41 L 3977.3,3424.98 L 3968.98,3435.12 L 3958.84,3443.44 L 3947.27,3449.63 L 3934.71,3453.44 L 3921.65,3454.72 L 3908.6,3453.44 L 3896.04,3449.63 L 3884.47,3443.44 L 3874.33,3435.12 L 3866,3424.98 L 3859.82,3413.41 L 3856.01,3400.85 L 3854.72,3387.8 z " style="fill-opacity:1.000000;fill:rgb(99,59,112);stroke:rgb(0,0,0);stroke-width:2"/></g>
<g fill-rule="evenodd"><path d="M 4033.46,2461.81 L 4034.67,2449.52 L 4038.26,2437.7 L 4044.08,2426.81 L 4051.91,2417.27 L 4061.46,2409.43 L 4072.35,2403.61 L 4084.17,2400.03 L 4096.46,2398.82 L 4108.75,2400.03 L 4120.56,2403.61 L 4131.45,2409.43 L 4141,2417.27 L 4148.83,2426.81 L 4154.65,2437.7 L 4157.19,2446.06 L 4981.26,2446.06 L 5093.49,2334.11 L 5097.88,2331.87 L 5102.75,2331.1 L 5168.01,2331.1 L 5170.54,2322.74 L 5176.36,2311.85 L 5184.2,2302.31 L 5193.74,2294.47 L 5204.63,2288.65 L 5216.45,2285.07 L 5228.74,2283.86 L 5241.03,2285.07 L 5252.85,2288.65 L 5263.74,2294.47 L 5273.28,2302.31 L 5281.12,2311.85 L 5286.94,2322.74 L 5290.52,2334.56 L 5291.73,2346.85 L 5290.52,2359.14 L 5286.94,2370.96 L 5281.12,2381.85 L 5273.28,2391.39 L 5263.74,2399.23 L 5252.85,2405.05 L 5241.03,2408.63 L 5228.74,2409.84 L 5216.45,2408.63 L 5204.63,2405.05 L 5193.74,2399.23 L 5184.2,2391.39 L 5176.36,2381.85 L 5170.54,2370.96 L 5168.01,2362.6 L 5109.27,2362.6 L 4998.92,2472.95 L 4994.94,2475.84 L 4990.25,2477.36 L 4157.19,2477.56 L 4154.65,2485.92 L 4148.83,2496.81 L 4141,2506.35 L 4131.45,2514.19 L 4120.56,2520.01 L 4108.75,2523.59 L 4096.46,2524.8 L 4084.17,2523.59 L 4072.35,2520.01 L 4061.46,2514.19 L 4051.91,2506.35 L 4044.08,2496.81 L 4038.26,2485.92 L 4034.67,2474.1 L 4033.46,2461.81 z " style="fill-opacity:1.000000;fill:rgb(100,36,17);stroke:rgb(0,0,0);stroke-width:2"/></g>
<g fill-rule="evenodd"><path d="M 4033.46,1261.81 L 4034.67,1249.52 L 4038.26,1237.7 L 4044.08,1226.81 L 4051.91,1217.27 L 4061.46,1209.43 L 4072.35,1203.61 L 4084.17,1200.03 L 4096.46,1198.82 L 4108.75,1200.03 L 4120.56,1203.61 L 4131.45,1209.43 L 4141,1217.27 L 4148.83,1226.81 L 4154.65,1237.7 L 4158.24,1249.52 L 4159.45,1261.81 L 4158.24,1274.1 L 4154.65,1285.92 L 4148.83,1296.81 L 4141,1306.35 L 4131.45,1314.19 L 4120.56,1320.01 L 4108.75,1323.59 L 4096.46,1324.8 L 4084.17,1323.59 L 4072.35,1320.01 L 4061.46,1314.19 L 4051.91,1306.35 L 4044.08,1296.81 L 4038.26,1285.92 L 4034.67,1274.1 L 4033.46,1261.81 z " style="fill-opacity:1.000000;fill:rgb(158,9,220);stroke:rgb(0,0,0);stroke-width:2"/></g>
<g fill-rule="evenodd"><path d="M 4054.72,3387.8 L 4056.01,3374.74 L 4059.82,3362.18 L 4066,3350.61 L 4074.33,3340.47 L 4084.47,3332.15 L 4096.04,3325.96 L 4108.6,3322.15 L 4121.65,3320.87 L 4134.71,3322.15 L 4147.27,3325.96 L 4158.84,3332.15 L 4168.98,3340.47 L 4177.3,3350.61 L 4183.49,3362.18 L 4187.3,3374.74 L 4188.58,3387.8 L 4187.3,3400.85 L 4183.49,3413.41 L 4177.3,3424.98 L 4168.98,3435.12 L 4158.84,3443.44 L 4147.27,3449.63 L 4134.71,3453.44 L 4121.65,3454.72 L 4108.6,3453.44 L 4096.04,3449.63 L 4084.47,3443.44 L 4074.33,3435.12 L 4066,3424.98 L 4059.82,3413.41 L 4056.01,3400.85 L 4054.72,3387.8 z " style="fill-opacity:1.000000;fill:rgb(170,212,172);stroke:rgb(0,0,0);stroke-width:2"/></g>
<g fill-rule="evenodd"><path d="M 4454.72,3387.8 L 4456.01,3374.74 L 4459.82,3362.18 L 4466,3350.61 L 4474.33,3340.47 L 4484.47,3332.15 L 4496.04,3325.96 L 4508.6,3322.15 L 4521.65,3320.87 L 4534.71,3322.15 L 4547.27,3325.96 L 4558.84,3332.15 L 4568.98,3340.47 L 4577.3,3350.61 L 4583.49,3362.18 L 4587.3,3374.74 L 4588.58,3387.8 L 4587.3,3400.85 L 4583.49,3413.41 L 4577.3,3424.98 L 4568.98,3435.12 L 4558.84,3443.44 L 4547.27,3449.63 L 4534.71,3453.44 L 4521.65,3454.72 L 4508.6,3453.44 L 4496.04,3449.63 L 4484.47,3443.44 L 4474.33,3435.12 L 4466,3424.98 L 4459.82,3413.41 L 4456.01,3400.85 L 4454.72,3387.8 z " style="fill-opacity:1.000000;fill:rgb(242,27,16);stroke:rgb(0,0,0);stroke-width:2"/></g>
<g fill-rule="evenodd"><path d="M 4654.72,3387.8 L 4656.01,3374.74 L 4659.82,3362.18 L 4666,3350.61 L 4674.33,3340.47 L 4684.47,3332.15 L 4696.04,3325.96 L 4708.6,3322.15 L 4721.65,3320.87 L 4734.71,3322.15 L 4747.27,3325.96 L 4758.84,3332.15 L 4768.98,3340.47 L 4777.3,3350.61 L 4783.49,3362.18 L 4787.3,3374.74 L 4788.58,3387.8 L 4787.3,3400.85 L 4783.49,3413.41 L 4777.3,3424.98 L 4768.98,3435.12 L 4758.84,3443.44 L 4747.27,3449.63 L 4734.71,3453.44 L 4721.65,3454.72 L 4708.6,3453.44 L 4696.04,3449.63 L 4684.47,3443.44 L 4674.33,3435.12 L 4666,3424.98 L 4659.82,3413.41 L 4656.01,3400.85 L 4654.72,3387.8 z " style="fill-opacity:1.000000;fill:rgb(175,59,51);stroke:rgb(0,0,0);stroke-width:2"/></g>
<g fill-rule="evenodd"><path d="M 4854.72,3387.8 L 4856.01,3374.74 L 4859.82,3362.18 L 4866,3350.61 L 4874.33,3340.47 L 4884.47,3332.15 L 4896.04,3325.96 L 4908.6,3322.15 L 4921.65,3320.87 L 4934.71,3322.15 L 4947.27,3325.96 L 4958.84,3332.15 L 4968.98,3340.47 L 4977.3,3350.61 L 4983.49,3362.18 L 4987.3,3374.74 L 4988.58,3387.8 L 4987.3,3400.85 L 4983.49,3413.41 L 4977.3,3424.98 L 4968.98,3435.12 L 4958.84,3443.44 L 4947.27,3449.63 L 4934.71,3453.44 L 4921.65,3454.72 L 4908.6,3453.44 L 4896.04,3449.63 L 4884.47,3443.44 L 4874.33,3435.12 L 4866,3424.98 L 4859.82,3413.41 L 4856.01,3400.85 L 4854.72,3387.8 z " style="fill-opacity:1.000000;fill:rgb(205,227,80);stroke:rgb(0,0,0);stroke-width:2"/></g>
<g fill-rule="evenodd"><path d="M 5054.72,3387.8 L 5056.01,3374.74 L 5059.82,3362.18 L 5066,3350.61 L 5074.33,3340.47 L 5084.47,3332.15 L 5096.04,3325.96 L 5108.6,3322.15 L 5121.65,3320.87 L 5134.71,3322.15 L 5147.27,3325.96 L 5158.84,3332.15 L 5168.98,3340.47 L 5177.3,3350.61 L 5183.49,3362.18 L 5187.3,3374.74 L 5188.58,3387.8 L 5187.3,3400.85 L 5183.49,3413.41 L 5177.3,3424.98 L 5168.98,3435.12 L 5158.84,3443.44 L 5147.27,3449.63 L 5134.71,3453.44 L 5121.65,3454.72 L 5108.6,3453.44 L 5096.04,3449.63 L 5084.47,3443.44 L 5074.33,3435.12 L 5066,3424.98 L 5059.82,3413.41 L 5056.01,3400.85 L 5054.72,3387.8 z " style="fill-opacity:1.000000;fill:rgb(72,71,21);stroke:rgb(0,0,0);stroke-width:2"/></g>
<g fill-rule="evenodd"><path d="M 5165.75,1746.85 L 5166.96,1734.56 L 5170.54,1722.74 L 5176.36,1711.85 L 5184.2,1702.31 L 5193.74,1694.47 L 5204.63,1688.65 L 5216.45,1685.07 L 5228.74,1683.86 L 5241.03,1685.07 L 5252.85,1688.65 L 5263.74,1694.47 L 5273.28,1702.31 L 5281.12,1711.85 L 5286.94,1722.74 L 5290.52,1734.56 L 5291.73,1746.85 L 5290.52,1759.14 L 5286.94,1770.96 L 5281.12,1781.85 L 5273.28,1791.39 L 5263.74,1799.23 L 5252.85,1805.05 L 5241.03,1808.63 L 5228.74,1809.84 L 5216.45,1808.63 L 5204.63,1805.05 L 5193.74,1799.23 L 5184.2,1791.39 L 5176.36,1781.85 L 5170.54,1770.96 L 5166.96,1759.14 L 5165.75,1746.85 z " style="fill-opacity:1.000000;fill:rgb(92,187,111);stroke:rgb(0,0,0);stroke-width:2"/></g>
<g fill-rule="evenodd"><path d="M 5165.75,1346.85 L 5166.96,1334.56 L 5170.54,1322.74 L 5176.36,1311.85 L 5184.2,1302.31 L 5193.74,1294.47 L 5204.63,1288.65 L 5216.45,1285.07 L 5228.74,1283.86 L 5241.03,1285.07 L 5252.85,1288.65 L 5263.74,1294.47 L 5273.28,1302.31 L 5281.12,1311.85 L 5286.94,1322.74 L 5290.52,1334.56 L 5291.73,1346.85 L 5290.52,1359.14 L 5286.94,1370.96 L 5281.12,1381.85 L 5273.28,1391.39 L 5263.74,1399.23 L 5252.85,1405.05 L 5241.03,1408.63 L 5228.74,1409.84 L 5216.45,1408.63 L 5204.63,1405.05 L 5193.74,1399.23 L 5184.2,1391.39 L 5176.36,1381.85 L 5170.54,1370.96 L 5166.96,1359.14 L 5165.75,1346.85 z " style="fill-opacity:1.000000;fill:rgb(34,25,186);stroke:rgb(0,0,0);stroke-width:2"/></g>
<g fill-rule="evenodd"><path d="M 5165.75,1146.85 L 5166.96,1134.56 L 5170.54,1122.74 L 5176.36,1111.85 L 5184.2,1102.31 L 5193.74,1094.47 L 5204.63,1088.65 L 5216.45,1085.07 L 5228.74,1083.86 L 5241.03,1085.07 L 5252.85,1088.65 L 5263.74,1094.47 L 5273.28,1102.31 L 5281.12,1111.85 L 5286.94,1122.74 L 5290.52,1134.56 L 5291.73,1146.85 L 5290.52,1159.14 L 5286.94,1170.96 L 5281.12,1181.85 L 5273.28,1191.39 L 5263.74,1199.23 L 5252.85,1205.05 L 5241.03,1208.63 L 5228.74,1209.84 L 5216.45,1208.63 L 5204.63,1205.05 L 5193.74,1199.23 L 5184.2,1191.39 L 5176.36,1181.85 L 5170.54,1170.96 L 5166.96,1159.14 L 5165.75,1146.85 z " style="fill-opacity:1.000000;fill:rgb(155,125,245);stroke:rgb(0,0,0);stroke-width:2"/></g>
<g fill-rule="evenodd"><path d="M 5254.72,3387.8 L 5256.01,3374.74 L 5259.82,3362.18 L 5266,3350.61 L 5274.33,3340.47 L 5284.47,3332.15 L 5296.04,3325.96 L 5308.6,3322.15 L 5321.65,3320.87 L 5334.71,3322.15 L 5347.27,3325.96 L 5358.84,3332.15 L 5368.98,3340.47 L 5377.3,3350.61 L 5383.49,3362.18 L 5387.3,3374.74 L 5388.58,3387.8 L 5387.3,3400.85 L 5383.49,3413.41 L 5377.3,3424.98 L 5368.98,3435.12 L 5358.84,3443.44 L 5347.27,3449.63 L 5334.71,3453.44 L 5321.65,3454.72 L 5308.6,3453.44 L 5296.04,3449.63 L 5284.47,3443.44 L 5274.33,3435.12 L 5266,3424.98 L 5259.82,3413.41 L 5256.01,3400.85 L 5254.72,3387.8 z " style="fill-opacity:1.000000;fill:rgb(11,225,26);stroke:rgb(0,0,0);stroke-width:2"/></g>
<g fill-rule="evenodd"><path d="M 5454.72,3387.8 L 5456.01,3374.74 L 5459.82,3362.18 L 5466,3350.61 L 5474.33,3340.47 L 5484.47,3332.15 L 5496.04,3325.96 L 5508.6,3322.15 L 5521.65,3320.87 L 5534.71,3322.15 L 5547.27,3325.96 L 5558.84,3332.15 L 5568.98,3340.47 L 5577.3,3350.61 L 5583.49,3362.18 L 5587.3,3374.74 L 5588.58,3387.8 L 5587.3,3400.85 L 5583.49,3413.41 L 5577.3,3424.98 L 5568.98,3435.12 L 5558.84,3443.44 L 5547.27,3449.63 L 5534.71,3453.44 L 5521.65,3454.72 L 5508.6,3453.44 L 5496.04,3449.63 L 5484.47,3443.44 L 5474.33,3435.12 L 5466,3424.98 L 5459.82,3413.41 L 5456.01,3400.85 L 5454.72,3387.8 z " style="fill-opacity:1.000000;fill:rgb(28,127,35);stroke:rgb(0,0,0);stroke-width:2"/></g>
<g fill-rule="evenodd"><path d="M 5654.72,3387.8 L 5656.01,3374.74 L 5659.82,3362.18 L 5666,3350.61 L 5674.33,3340.47 L 5684.47,3332.15 L 5696.04,3325.96 L 5708.6,3322.15 L 5721.65,3320.87 L 5734.71,3322.15 L 5747.27,3325.96 L 5758.84,3332.15 L 5768.98,3340.47 L 5777.3,3350.61 L 5783.49,3362.18 L 5787.3,3374.74 L 5788.58,3387.8 L 5787.3,3400.85 L 5783.49,3413.41 L 5777.3,3424.98 L 5768.98,3435.12 L 5758.84,3443.44 L 5747.27,3449.63 L 5734.71,3453.44 L 5721.65,3454.72 L 5708.6,3453.44 L 5696.04,3449.63 L 5684.47,3443.44 L 5674.33,3435.12 L 5666,3424.98 L 5659.82,3413.41 L 5656.01,3400.85 L 5654.72,3387.8 z " style="fill-opacity:1.000000;fill:rgb(248,41,248);stroke:rgb(0,0,0);stroke-width:2"/></g>
<g fill-rule="evenodd"><path d="M 5683.86,2275.97 L 5684.17,2272.9 L 5685.06,2269.95 L 5686.52,2267.23 L 5688.48,2264.84 L 5774.66,2178.66 L 5770.54,2170.96 L 5766.96,2159.14 L 5765.75,2146.85 L 5766.96,2134.56 L 5770.54,2122.74 L 5776.36,2111.85 L 5784.2,2102.31 L 5793.74,2094.47 L 5804.63,2088.65 L 5816.45,2085.07 L 5828.74,2083.86 L 5841.03,2085.07 L 5852.85,2088.65 L 5863.74,2094.47 L 5873.28,2102.31 L 5881.12,2111.85 L 5886.94,2122.74 L 5890.52,2134.56 L 5891.73,2146.85 L 5890.52,2159.14 L 5886.94,2170.96 L 5881.12,2181.85 L 5873.28,2191.39 L 5863.74,2199.23 L 5852.85,2205.05 L 5841.03,2208.63 L 5828.74,2209.84 L 5816.45,2208.63 L 5804.63,2205.05 L 5796.93,2200.93 L 5715.36,2282.5 L 5715.36,2389.91 L 5943.83,2618.38 L 6675.7,2618.38 L 7114,2180.08 L 7109.13,2170.96 L 7105.54,2159.14 L 7104.33,2146.85 L 7105.54,2134.56 L 7109.13,2122.74 L 7114.95,2111.85 L 7122.78,2102.31 L 7132.33,2094.47 L 7143.22,2088.65 L 7155.03,2085.07 L 7167.32,2083.86 L 7179.61,2085.07 L 7191.43,2088.65 L 7202.32,2094.47 L 7211.86,2102.31 L 7219.7,2111.85 L 7225.52,2122.74 L 7229.1,2134.56 L 7230.31,2146.85 L 7229.1,2159.14 L 7225.52,2170.96 L 7219.7,2181.85 L 7211.86,2191.39 L 7202.32,2199.23 L 7191.43,2205.05 L 7179.61,2208.63 L 7167.32,2209.84 L 7155.03,2208.63 L 7143.22,2205.05 L 7136.94,2201.69 L 6693.36,2645.26 L 6690.98,2647.22 L 6688.25,2648.67 L 6685.3,2649.57 L 6682.23,2649.87 L 5937.31,2649.87 L 5934.23,2649.57 L 5931.28,2648.67 L 5928.56,2647.22 L 5926.17,2645.26 L 5688.48,2407.57 L 5685.58,2403.58 L 5684.06,2398.9 L 5683.86,2275.97 z " style="fill-opacity:1.000000;fill:rgb(164,27,19);stroke:rgb(0,0,0);stroke-width:2"/></g>
<g fill-rule="evenodd"><path d="M 5765.75,2346.85 L 5766.96,2334.56 L 5770.54,2322.74 L 5776.36,2311.85 L 5784.2,2302.31 L 5793.74,2294.47 L 5804.63,2288.65 L 5816.45,2285.07 L 5828.74,2283.86 L 5841.03,2285.07 L 5852.85,2288.65 L 5863.74,2294.47 L 5873.28,2302.31 L 5881.12,2311.85 L 5886.94,2322.74 L 5889.47,2331.1 L 5954.73,2331.1 L 5959.6,2331.87 L 5961.88,2332.82 L 5965.87,2335.71 L 6169.77,2539.62 L 6643.08,2539.62 L 6882.69,2300.01 L 6882.69,2215.73 L 6883,2212.66 L 6883.89,2209.7 L 6885.35,2206.98 L 6887.31,2204.6 L 7113.24,1978.66 L 7109.13,1970.96 L 7105.54,1959.14 L 7104.33,1946.85 L 7105.54,1934.56 L 7109.13,1922.74 L 7114.95,1911.85 L 7122.78,1902.31 L 7132.33,1894.47 L 7143.22,1888.65 L 7155.03,1885.07 L 7167.32,1883.86 L 7179.61,1885.07 L 7191.43,1888.65 L 7202.32,1894.47 L 7211.86,1902.31 L 7219.7,1911.85 L 7225.52,1922.74 L 7229.1,1934.56 L 7230.31,1946.85 L 7229.1,1959.14 L 7225.52,1970.96 L 7219.7,1981.85 L 7211.86,1991.39 L 7202.32,1999.23 L 7191.43,2005.05 L 7179.61,2008.63 L 7167.32,2009.84 L 7155.03,2008.63 L 7143.22,2005.05 L 7135.51,2000.93 L 6914.19,2222.25 L 6914.19,2306.53 L 6913.42,2311.4 L 6911.18,2315.79 L 6660.74,2566.5 L 6658.35,2568.46 L 6655.63,2569.92 L 6652.68,2570.81 L 6649.6,2571.12 L 6160.79,2570.92 L 6156.1,2569.4 L 6152.12,2566.5 L 5948.21,2362.6 L 5889.47,2362.6 L 5886.94,2370.96 L 5881.12,2381.85 L 5873.28,2391.39 L 5863.74,2399.23 L 5852.85,2405.05 L 5841.03,2408.63 L 5828.74,2409.84 L 5816.45,2408.63 L 5804.63,2405.05 L 5793.74,2399.23 L 5784.2,2391.39 L 5776.36,2381.85 L 5770.54,2370.96 L 5766.96,2359.14 L 5765.75,2346.85 z " style="fill-opacity:1.000000;fill:rgb(181,202,78);stroke:rgb(0,0,0);stroke-width:2"/></g>
<g fill-rule="evenodd"><path d="M 5765.75,1946.85 L 5766.96,1934.56 L 5770.54,1922.74 L 5776.36,1911.85 L 5784.2,1902.31 L 5793.74,1894.47 L 5804.63,1888.65 L 5816.45,1885.07 L 5828.74,1883.86 L 5841.03,1885.07 L 5852.85,1888.65 L 5863.74,1894.47 L 5873.28,1902.31 L 5881.12,1911.85 L 5886.94,1922.74 L 5890.52,1934.56 L 5891.73,1946.85 L 5890.52,1959.14 L 5886.94,1970.96 L 5881.12,1981.85 L 5873.28,1991.39 L 5863.74,1999.23 L 5852.85,2005.05 L 5841.03,2008.63 L 5828.74,2009.84 L 5816.45,2008.63 L 5804.63,2005.05 L 5793.74,1999.23 L 5784.2,1991.39 L 5776.36,1981.85 L 5770.54,1970.96 L 5766.96,1959.14 L 5765.75,1946.85 z " style="fill-opacity:1.000000;fill:rgb(232,152,50);stroke:rgb(0,0,0);stroke-width:2"/></g>
<g fill-rule="evenodd"><path d="M 5765.75,946.85 L 5766.96,934.561 L 5770.54,922.744 L 5776.36,911.854 L 5784.2,902.308 L 5793.74,894.474 L 5804.63,888.653 L 5816.45,885.069 L 5828.74,883.858 L 5841.03,885.069 L 5852.85,888.653 L 5863.74,894.474 L 5873.28,902.308 L 5881.12,911.854 L 5886.94,922.744 L 5890.52,934.561 L 5891.73,946.85 L 5890.52,959.14 L 5886.94,970.956 L 5881.12,981.847 L 5873.28,991.393 L 5863.74,999.226 L 5852.85,1005.05 L 5841.03,1008.63 L 5828.74,1009.84 L 5816.45,1008.63 L 5804.63,1005.05 L 5793.74,999.226 L 5784.2,991.393 L 5776.36,981.847 L 5770.54,970.956 L 5766.96,959.14 L 5765.75,946.85 z " style="fill-opacity:1.000000;fill:rgb(56,224,121);stroke:rgb(0,0,0);stroke-width:2"/></g>
<g fill-rule="evenodd"><path d="M 5854.72,3387.8 L 5856.01,3374.74 L 5859.82,3362.18 L 5866,3350.61 L 5874.33,3340.47 L 5884.47,3332.15 L 5896.04,3325.96 L 5908.6,3322.15 L 5921.65,3320.87 L 5934.71,3322.15 L 5947.27,3325.96 L 5958.84,3332.15 L 5968.98,3340.47 L 5977.3,3350.61 L 5983.49,3362.18 L 5987.3,3374.74 L 5988.58,3387.8 L 5987.3,3400.85 L 5983.49,3413.41 L 5977.3,3424.98 L 5968.98,3435.12 L 5958.84,3443.44 L 5947.27,3449.63 L 5934.71,3453.44 L 5921.65,3454.72 L 5908.6,3453.44 L 5896.04,3449.63 L 5884.47,3443.44 L 5874.33,3435.12 L 5866,3424.98 L 5859.82,3413.41 L 5856.01,3400.85 L 5854.72,3387.8 z " style="fill-opacity:1.000000;fill:rgb(77,61,52);stroke:rgb(0,0,0);stroke-width:2"/></g>
<g fill-rule="evenodd"><path d="M 6054.72,3387.8 L 6056.01,3374.74 L 6059.82,3362.18 L 6066,3350.61 L 6074.33,3340.47 L 6084.47,3332.15 L 6096.04,3325.96 L 6108.6,3322.15 L 6121.65,3320.87 L 6134.71,3322.15 L 6147.27,3325.96 L 6158.84,3332.15 L 6168.98,3340.47 L 6177.3,3350.61 L 6183.49,3362.18 L 6187.3,3374.74 L 6188.58,3387.8 L 6187.3,3400.85 L 6183.49,3413.41 L 6177.3,3424.98 L 6168.98,3435.12 L 6158.84,3443.44 L 6147.27,3449.63 L 6134.71,3453.44 L 6121.65,3454.72 L 6108.6,3453.44 L 6096.04,3449.63 L 6084.47,3443.44 L 6074.33,3435.12 L 6066,3424.98 L 6059.82,3413.41 L 6056.01,3400.85 L 6054.72,3387.8 z " style="fill-opacity:1.000000;fill:rgb(188,95,78);stroke:rgb(0,0,0);stroke-width:2"/></g>
<g fill-rule="evenodd"><path d="M 6254.72,3387.8 L 6256.01,3374.74 L 6259.82,3362.18 L 6266,3350.61 L 6274.33,3340.47 L 6284.47,3332.15 L 6296.04,3325.96 L 6308.6,3322.15 L 6321.65,3320.87 L 6334.71,3322.15 L 6347.27,3325.96 L 6358.84,3332.15 L 6368.98,3340.47 L 6377.3,3350.61 L 6383.49,3362.18 L 6387.3,3374.74 L 6388.58,3387.8 L 6387.3,3400.85 L 6383.49,3413.41 L 6377.3,3424.98 L 6368.98,3435.12 L 6358.84,3443.44 L 6347.27,3449.63 L 6334.71,3453.44 L 6321.65,3454.72 L 6308.6,3453.44 L 6296.04,3449.63 L 6284.47,3443.44 L 6274.33,3435.12 L 6266,3424.98 L 6259.82,3413.41 L 6256.01,3400.85 L 6254.72,3387.8 z " style="fill-opacity:1.000000;fill:rgb(119,250,203);stroke:rgb(0,0,0);stroke-width:2"/></g>
<g fill-rule="evenodd"><path d="M 6504.33,2346.85 L 6505.54,2334.56 L 6509.13,2322.74 L 6514.95,2311.85 L 6522.78,2302.31 L 6532.33,2294.47 L 6543.22,2288.65 L 6555.03,2285.07 L 6567.32,2283.86 L 6579.61,2285.07 L 6591.43,2288.65 L 6602.32,2294.47 L 6611.86,2302.31 L 6619.7,2311.85 L 6625.52,2322.74 L 6629.1,2334.56 L 6630.31,2346.85 L 6629.1,2359.14 L 6625.52,2370.96 L 6619.7,2381.85 L 6611.86,2391.39 L 6602.32,2399.23 L 6591.43,2405.05 L 6579.61,2408.63 L 6567.32,2409.84 L 6555.03,2408.63 L 6543.22,2405.05 L 6532.33,2399.23 L 6522.78,2391.39 L 6514.95,2381.85 L 6509.13,2370.96 L 6505.54,2359.14 L 6504.33,2346.85 z " style="fill-opacity:1.000000;fill:rgb(108,5,172);stroke:rgb(0,0,0);stroke-width:2"/></g>
<g fill-rule="evenodd"><path d="M 6504.33,2146.85 L 6505.54,2134.56 L 6509.13,2122.74 L 6514.95,2111.85 L 6522.78,2102.31 L 6532.33,2094.47 L 6543.22,2088.65 L 6555.03,2085.07 L 6567.32,2083.86 L 6579.61,2085.07 L 6591.43,2088.65 L 6602.32,2094.47 L 6611.86,2102.31 L 6619.7,2111.85 L 6625.52,2122.74 L 6629.1,2134.56 L 6630.31,2146.85 L 6629.1,2159.14 L 6625.52,2170.96 L 6619.7,2181.85 L 6611.86,2191.39 L 6602.32,2199.23 L 6591.43,2205.05 L 6579.61,2208.63 L 6567.32,2209.84 L 6555.03,2208.63 L 6543.22,2205.05 L 6532.33,2199.23 L 6522.78,2191.39 L 6514.95,2181.85 L 6509.13,2170.96 L 6505.54,2159.14 L 6504.33,2146.85 z " style="fill-opacity:1.000000;fill:rgb(134,33,43);stroke:rgb(0,0,0);stroke-width:2"/></g>
<g fill-rule="evenodd"><path d="M 6504.33,1946.85 L 6505.54,1934.56 L 6509.13,1922.74 L 6514.95,1911.85 L 6522.78,1902.31 L 6532.33,1894.47 L 6543.22,1888.65 L 6555.03,1885.07 L 6567.32,1883.86 L 6579.61,1885.07 L 6591.43,1888.65 L 6602.32,1894.47 L 6611.86,1902.31 L 6619.7,1911.85 L 6625.52,1922.74 L 6629.1,1934.56 L 6630.31,1946.85 L 6629.1,1959.14 L 6625.52,1970.96 L 6619.7,1981.85 L 6611.86,1991.39 L 6602.32,1999.23 L 6591.43,2005.05 L 6579.61,2008.63 L 6567.32,2009.84 L 6555.03,2008.63 L 6543.22,2005.05 L 6532.33,1999.23 L 6522.78,1991.39 L 6514.95,1981.85 L 6509.13,1970.96 L 6505.54,1959.14 L 6504.33,1946.85 z " style="fill-opacity:1.000000;fill:rgb(170,26,85);stroke:rgb(0,0,0);stroke-width:2"/></g>
<g fill-rule="evenodd"><path d="M 6504.33,1746.85 L 6505.54,1734.56 L 6509.13,1722.74 L 6514.95,1711.85 L 6522.78,1702.31 L 6532.33,1694.47 L 6543.22,1688.65 L 6555.03,1685.07 L 6567.32,1683.86 L 6579.61,1685.07 L 6591.43,1688.65 L 6602.32,1694.47 L 6611.86,1702.31 L 6619.7,1711.85 L 6625.52,1722.74 L 6629.1,1734.56 L 6630.31,1746.85 L 6629.1,1759.14 L 6625.52,1770.96 L 6619.7,1781.85 L 6611.86,1791.39 L 6602.32,1799.23 L 6591.43,1805.05 L 6579.61,1808.63 L 6567.32,1809.84 L 6555.03,1808.63 L 6543.22,1805.05 L 6532.33,1799.23 L 6522.78,1791.39 L 6514.95,1781.85 L 6509.13,1770.96 L 6505.54,1759.14 L 6504.33,1746.85 z " style="fill-opacity:1.000000;fill:rgb(162,190,112);stroke:rgb(0,0,0);stroke-width:2"/></g>
<g fill-rule="evenodd"><path d="M 6504.33,1546.85 L 6505.54,1534.56 L 6509.13,1522.74 L 6514.95,1511.85 L 6522.78,1502.31 L 6532.33,1494.47 L 6543.22,1488.65 L 6555.03,1485.07 L 6567.32,1483.86 L 6579.61,1485.07 L 6591.43,1488.65 L 6602.32,1494.47 L 6611.86,1502.31 L 6619.7,1511.85 L 6625.52,1522.74 L 6629.1,1534.56 L 6630.31,1546.85 L 6629.1,1559.14 L 6625.52,1570.96 L 6619.7,1581.85 L 6611.86,1591.39 L 6602.32,1599.23 L 6591.43,1605.05 L 6579.61,1608.63 L 6567.32,1609.84 L 6555.03,1608.63 L 6543.22,1605.05 L 6532.33,1599.23 L 6522.78,1591.39 L 6514.95,1581.85 L 6509.13,1570.96 L 6505.54,1559.14 L 6504.33,1546.85 z " style="fill-opacity:1.000000;fill:rgb(181,115,59);stroke:rgb(0,0,0);stroke-width:2"/></g>
<g fill-rule="evenodd"><path d="M 6504.33,1346.85 L 6505.54,1334.56 L 6509.13,1322.74 L 6514.95,1311.85 L 6522.78,1302.31 L 6532.33,1294.47 L 6543.22,1288.65 L 6555.03,1285.07 L 6567.32,1283.86 L 6579.61,1285.07 L 6591.43,1288.65 L 6602.32,1294.47 L 6611.86,1302.31 L 6619.7,1311.85 L 6625.52,1322.74 L 6629.1,1334.56 L 6630.31,1346.85 L 6629.1,1359.14 L 6625.52,1370.96 L 6619.7,1381.85 L 6611.86,1391.39 L 6602.32,1399.23 L 6591.43,1405.05 L 6579.61,1408.63 L 6567.32,1409.84 L 6555.03,1408.63 L 6543.22,1405.05 L 6532.33,1399.23 L 6522.78,1391.39 L 6514.95,1381.85 L 6509.13,1370.96 L 6505.54,1359.14 L 6504.33,1346.85 z " style="fill-opacity:1.000000;fill:rgb(4,92,211);stroke:rgb(0,0,0);stroke-width:2"/></g>
<g fill-rule="evenodd"><path d="M 6654.72,3387.8 L 6656.01,3374.74 L 6659.82,3362.18 L 6666,3350.61 L 6674.33,3340.47 L 6684.47,3332.15 L 6696.04,3325.96 L 6708.6,3322.15 L 6721.65,3320.87 L 6734.71,3322.15 L 6747.27,3325.96 L 6758.84,3332.15 L 6768.98,3340.47 L 6777.3,3350.61 L 6783.49,3362.18 L 6787.3,3374.74 L 6788.58,3387.8 L 6787.3,3400.85 L 6783.49,3413.41 L 6777.3,3424.98 L 6768.98,3435.12 L 6758.84,3443.44 L 6747.27,3449.63 L 6734.71,3453.44 L 6721.65,3454.72 L 6708.6,3453.44 L 6696.04,3449.63 L 6684.47,3443.44 L 6674.33,3435.12 L 6666,3424.98 L 6659.82,3413.41 L 6656.01,3400.85 L 6654.72,3387.8 z " style="fill-opacity:1.000000;fill:rgb(54,148,179);stroke:rgb(0,0,0);stroke-width:2"/></g>
<g fill-rule="evenodd"><path d="M 7104.33,2346.85 L 7105.54,2334.56 L 7109.13,2322.74 L 7114.95,2311.85 L 7122.78,2302.31 L 7132.33,2294.47 L 7143.22,2288.65 L 7155.03,2285.07 L 7167.32,2283.86 L 7179.61,2285.07 L 7191.43,2288.65 L 7202.32,2294.47 L 7211.86,2302.31 L 7219.7,2311.85 L 7225.52,2322.74 L 7229.1,2334.56 L 7230.31,2346.85 L 7229.1,2359.14 L 7225.52,2370.96 L 7219.7,2381.85 L 7211.86,2391.39 L 7202.32,2399.23 L 7191.43,2405.05 L 7179.61,2408.63 L 7167.32,2409.84 L 7155.03,2408.63 L 7143.22,2405.05 L 7132.33,2399.23 L 7122.78,2391.39 L 7114.95,2381.85 L 7109.13,2370.96 L 7105.54,2359.14 L 7104.33,2346.85 z " style="fill-opacity:1.000000;fill:rgb(175,226,240);stroke:rgb(0,0,0);stroke-width:2"/></g>
<g fill-rule="evenodd"><path d="M 7104.33,1546.85 L 7105.54,1534.56 L 7109.13,1522.74 L 7114.95,1511.85 L 7122.78,1502.31 L 7132.33,1494.47 L 7143.22,1488.65 L 7155.03,1485.07 L 7167.32,1483.86 L 7179.61,1485.07 L 7191.43,1488.65 L 7202.32,1494.47 L 7211.86,1502.31 L 7219.7,1511.85 L 7225.52,1522.74 L 7229.1,1534.56 L 7230.31,1546.85 L 7229.1,1559.14 L 7225.52,1570.96 L 7219.7,1581.85 L 7211.86,1591.39 L 7202.32,1599.23 L 7191.43,1605.05 L 7179.61,1608.63 L 7167.32,1609.84 L 7155.03,1608.63 L 7143.22,1605.05 L 7132.33,1599.23 L 7122.78,1591.39 L 7114.95,1581.85 L 7109.13,1570.96 L 7105.54,1559.14 L 7104.33,1546.85 z " style="fill-opacity:1.000000;fill:rgb(228,158,79);stroke:rgb(0,0,0);stroke-width:2"/></g>
<g fill-rule="evenodd"><path d="M 7104.33,1346.85 L 7105.54,1334.56 L 7109.13,1322.74 L 7114.95,1311.85 L 7122.78,1302.31 L 7132.33,1294.47 L 7143.22,1288.65 L 7155.03,1285.07 L 7167.32,1283.86 L 7179.61,1285.07 L 7191.43,1288.65 L 7202.32,1294.47 L 7211.86,1302.31 L 7219.7,1311.85 L 7225.52,1322.74 L 7229.1,1334.56 L 7230.31,1346.85 L 7229.1,1359.14 L 7225.52,1370.96 L 7219.7,1381.85 L 7211.86,1391.39 L 7202.32,1399.23 L 7191.43,1405.05 L 7179.61,1408.63 L 7167.32,1409.84 L 7155.03,1408.63 L 7143.22,1405.05 L 7132.33,1399.23 L 7122.78,1391.39 L 7114.95,1381.85 L 7109.13,1370.96 L 7105.54,1359.14 L 7104.33,1346.85 z " style="fill-opacity:1.000000;fill:rgb(50,21,73);stroke:rgb(0,0,0);stroke-width:2"/></g>
</svg>
