%TF.GenerationSoftware,KiCad,Pcbnew,7.0.2*%
%TF.CreationDate,2023-05-21T12:10:29+01:00*%
%TF.ProjectId,FujiNet_Z80Bus_ReferenceDesign,46756a69-4e65-4745-9f5a-38304275735f,rev?*%
%TF.SameCoordinates,Original*%
%TF.FileFunction,Drillmap*%
%TF.FilePolarity,Positive*%
%FSLAX45Y45*%
G04 Gerber Fmt 4.5, Leading zero omitted, Abs format (unit mm)*
G04 Created by KiCad (PCBNEW 7.0.2) date 2023-05-21 12:10:29*
%MOMM*%
%LPD*%
G01*
G04 APERTURE LIST*
%ADD10C,0.050000*%
%ADD11C,0.200000*%
G04 APERTURE END LIST*
D10*
X6400000Y-3000000D02*
X26400000Y-3000000D01*
X26400000Y-16000000D01*
X6400000Y-16000000D01*
X6400000Y-3000000D01*
D11*
X6645119Y-16315024D02*
X6645119Y-16115024D01*
X6645119Y-16115024D02*
X6692738Y-16115024D01*
X6692738Y-16115024D02*
X6721309Y-16124548D01*
X6721309Y-16124548D02*
X6740357Y-16143595D01*
X6740357Y-16143595D02*
X6749881Y-16162643D01*
X6749881Y-16162643D02*
X6759405Y-16200738D01*
X6759405Y-16200738D02*
X6759405Y-16229309D01*
X6759405Y-16229309D02*
X6749881Y-16267405D01*
X6749881Y-16267405D02*
X6740357Y-16286452D01*
X6740357Y-16286452D02*
X6721309Y-16305500D01*
X6721309Y-16305500D02*
X6692738Y-16315024D01*
X6692738Y-16315024D02*
X6645119Y-16315024D01*
X6845119Y-16315024D02*
X6845119Y-16181690D01*
X6845119Y-16219786D02*
X6854643Y-16200738D01*
X6854643Y-16200738D02*
X6864167Y-16191214D01*
X6864167Y-16191214D02*
X6883214Y-16181690D01*
X6883214Y-16181690D02*
X6902262Y-16181690D01*
X6968928Y-16315024D02*
X6968928Y-16181690D01*
X6968928Y-16115024D02*
X6959405Y-16124548D01*
X6959405Y-16124548D02*
X6968928Y-16134071D01*
X6968928Y-16134071D02*
X6978452Y-16124548D01*
X6978452Y-16124548D02*
X6968928Y-16115024D01*
X6968928Y-16115024D02*
X6968928Y-16134071D01*
X7092738Y-16315024D02*
X7073690Y-16305500D01*
X7073690Y-16305500D02*
X7064167Y-16286452D01*
X7064167Y-16286452D02*
X7064167Y-16115024D01*
X7197500Y-16315024D02*
X7178452Y-16305500D01*
X7178452Y-16305500D02*
X7168928Y-16286452D01*
X7168928Y-16286452D02*
X7168928Y-16115024D01*
X7426071Y-16315024D02*
X7426071Y-16115024D01*
X7426071Y-16115024D02*
X7492738Y-16257881D01*
X7492738Y-16257881D02*
X7559405Y-16115024D01*
X7559405Y-16115024D02*
X7559405Y-16315024D01*
X7740357Y-16315024D02*
X7740357Y-16210262D01*
X7740357Y-16210262D02*
X7730833Y-16191214D01*
X7730833Y-16191214D02*
X7711786Y-16181690D01*
X7711786Y-16181690D02*
X7673690Y-16181690D01*
X7673690Y-16181690D02*
X7654643Y-16191214D01*
X7740357Y-16305500D02*
X7721309Y-16315024D01*
X7721309Y-16315024D02*
X7673690Y-16315024D01*
X7673690Y-16315024D02*
X7654643Y-16305500D01*
X7654643Y-16305500D02*
X7645119Y-16286452D01*
X7645119Y-16286452D02*
X7645119Y-16267405D01*
X7645119Y-16267405D02*
X7654643Y-16248357D01*
X7654643Y-16248357D02*
X7673690Y-16238833D01*
X7673690Y-16238833D02*
X7721309Y-16238833D01*
X7721309Y-16238833D02*
X7740357Y-16229309D01*
X7835595Y-16181690D02*
X7835595Y-16381690D01*
X7835595Y-16191214D02*
X7854643Y-16181690D01*
X7854643Y-16181690D02*
X7892738Y-16181690D01*
X7892738Y-16181690D02*
X7911786Y-16191214D01*
X7911786Y-16191214D02*
X7921309Y-16200738D01*
X7921309Y-16200738D02*
X7930833Y-16219786D01*
X7930833Y-16219786D02*
X7930833Y-16276928D01*
X7930833Y-16276928D02*
X7921309Y-16295976D01*
X7921309Y-16295976D02*
X7911786Y-16305500D01*
X7911786Y-16305500D02*
X7892738Y-16315024D01*
X7892738Y-16315024D02*
X7854643Y-16315024D01*
X7854643Y-16315024D02*
X7835595Y-16305500D01*
X8016548Y-16295976D02*
X8026071Y-16305500D01*
X8026071Y-16305500D02*
X8016548Y-16315024D01*
X8016548Y-16315024D02*
X8007024Y-16305500D01*
X8007024Y-16305500D02*
X8016548Y-16295976D01*
X8016548Y-16295976D02*
X8016548Y-16315024D01*
X8016548Y-16191214D02*
X8026071Y-16200738D01*
X8026071Y-16200738D02*
X8016548Y-16210262D01*
X8016548Y-16210262D02*
X8007024Y-16200738D01*
X8007024Y-16200738D02*
X8016548Y-16191214D01*
X8016548Y-16191214D02*
X8016548Y-16210262D01*
M02*
