%TF.GenerationSoftware,KiCad,Pcbnew,7.0.2*%
%TF.CreationDate,2023-06-28T00:57:01+01:00*%
%TF.ProjectId,SPI-Z80-BUS_ZXspectrum_impl,5350492d-5a38-4302-9d42-55535f5a5873,rev?*%
%TF.SameCoordinates,PX3473bc0PY19bfcc0*%
%TF.FileFunction,Copper,L2,Bot*%
%TF.FilePolarity,Positive*%
%FSLAX46Y46*%
G04 Gerber Fmt 4.6, Leading zero omitted, Abs format (unit mm)*
G04 Created by KiCad (PCBNEW 7.0.2) date 2023-06-28 00:57:01*
%MOMM*%
%LPD*%
G01*
G04 APERTURE LIST*
%TA.AperFunction,ComponentPad*%
%ADD10R,1.700000X1.700000*%
%TD*%
%TA.AperFunction,ComponentPad*%
%ADD11O,1.700000X1.700000*%
%TD*%
%TA.AperFunction,ComponentPad*%
%ADD12R,1.600000X1.600000*%
%TD*%
%TA.AperFunction,ComponentPad*%
%ADD13O,1.600000X1.600000*%
%TD*%
%TA.AperFunction,ComponentPad*%
%ADD14R,2.000000X2.000000*%
%TD*%
%TA.AperFunction,ComponentPad*%
%ADD15O,2.000000X2.000000*%
%TD*%
%TA.AperFunction,ComponentPad*%
%ADD16C,1.600000*%
%TD*%
%TA.AperFunction,ViaPad*%
%ADD17C,1.000000*%
%TD*%
%TA.AperFunction,Conductor*%
%ADD18C,0.400000*%
%TD*%
G04 APERTURE END LIST*
D10*
%TO.P,LOCAL_CONTROL1,1,Pin_1*%
%TO.N,/SPI-Z80-BUS/LOCAL_CONTROL.RD*%
X120000000Y-50000000D03*
D11*
%TO.P,LOCAL_CONTROL1,2,Pin_2*%
%TO.N,/SPI-Z80-BUS/LOCAL_CONTROL.WR*%
X122540000Y-50000000D03*
%TO.P,LOCAL_CONTROL1,3,Pin_3*%
%TO.N,/SPI-Z80-BUS/LOCAL_CONTROL.IORQ*%
X125080000Y-50000000D03*
%TO.P,LOCAL_CONTROL1,4,Pin_4*%
%TO.N,/SPI-Z80-BUS/LOCAL_CONTROL.MEMRQ*%
X127620000Y-50000000D03*
%TD*%
D12*
%TO.P,ZX80_CONTROL.RD1,1,~{PL}*%
%TO.N,/SPI-Z80-BUS/ESP_SPI_INT.PL*%
X52220000Y-48635000D03*
D13*
%TO.P,ZX80_CONTROL.RD1,2,CP*%
%TO.N,/SPI-Z80-BUS/ESP_SPI_INT.SCK*%
X54760000Y-48635000D03*
%TO.P,ZX80_CONTROL.RD1,3,D4*%
%TO.N,/SPI-Z80-BUS/Z80_CONTROL.BUSRQ*%
X57300000Y-48635000D03*
%TO.P,ZX80_CONTROL.RD1,4,D5*%
%TO.N,/SPI-Z80-BUS/Z80_CONTROL.WAIT*%
X59840000Y-48635000D03*
%TO.P,ZX80_CONTROL.RD1,5,D6*%
%TO.N,/SPI-Z80-BUS/Z80_CONTROL.BUSACK*%
X62380000Y-48635000D03*
%TO.P,ZX80_CONTROL.RD1,6,D7*%
%TO.N,/SPI-Z80-BUS/Z80_CONTROL.NMI*%
X64920000Y-48635000D03*
%TO.P,ZX80_CONTROL.RD1,7,~{Q7}*%
%TO.N,Net-(LOCAL_A-L.RD1-DS)*%
X67460000Y-48635000D03*
%TO.P,ZX80_CONTROL.RD1,8,GND*%
%TO.N,GND*%
X70000000Y-48635000D03*
%TO.P,ZX80_CONTROL.RD1,9,Q7*%
%TO.N,unconnected-(ZX80_CONTROL.RD1-Q7-Pad9)*%
X70000000Y-41015000D03*
%TO.P,ZX80_CONTROL.RD1,10,DS*%
%TO.N,Net-(LOCAL_D.RD1-~{Q7})*%
X67460000Y-41015000D03*
%TO.P,ZX80_CONTROL.RD1,11,D0*%
%TO.N,/SPI-Z80-BUS/Z80_CONTROL.RD*%
X64920000Y-41015000D03*
%TO.P,ZX80_CONTROL.RD1,12,D1*%
%TO.N,/SPI-Z80-BUS/Z80_CONTROL.WR*%
X62380000Y-41015000D03*
%TO.P,ZX80_CONTROL.RD1,13,D2*%
%TO.N,/SPI-Z80-BUS/Z80_CONTROL.IORQ*%
X59840000Y-41015000D03*
%TO.P,ZX80_CONTROL.RD1,14,D3*%
%TO.N,/SPI-Z80-BUS/Z80_CONTROL.MEMRQ*%
X57300000Y-41015000D03*
%TO.P,ZX80_CONTROL.RD1,15,~{CE}*%
%TO.N,/SPI-Z80-BUS/ESP_SPI_INT.CE*%
X54760000Y-41015000D03*
%TO.P,ZX80_CONTROL.RD1,16,VCC*%
%TO.N,+5V*%
X52220000Y-41015000D03*
%TD*%
D14*
%TO.P,D5,1,K*%
%TO.N,/SPI-Z80-BUS/ESP_CONTROL.ROMCS*%
X105000000Y-39920000D03*
D15*
%TO.P,D5,2,A*%
%TO.N,/SPI-Z80-BUS/Z80_CONTROL.ROMCS*%
X105000000Y-45000000D03*
%TD*%
D12*
%TO.P,IC1,1*%
%TO.N,/SPI-Z80-BUS/ESP_PULSE*%
X19375000Y-49800000D03*
D13*
%TO.P,IC1,2*%
%TO.N,/SPI-Z80-BUS/ESP_CONTROL.WR*%
X21915000Y-49800000D03*
%TO.P,IC1,3*%
%TO.N,Net-(CONTROL.SELECT1-1A1)*%
X24455000Y-49800000D03*
%TO.P,IC1,4*%
%TO.N,GND*%
X26995000Y-49800000D03*
%TO.P,IC1,5*%
X29535000Y-49800000D03*
%TO.P,IC1,6*%
%TO.N,unconnected-(IC1-Pad6)*%
X32075000Y-49800000D03*
%TO.P,IC1,7,GND*%
%TO.N,GND*%
X34615000Y-49800000D03*
%TO.P,IC1,8*%
%TO.N,unconnected-(IC1-Pad8)*%
X34615000Y-42180000D03*
%TO.P,IC1,9*%
%TO.N,GND*%
X32075000Y-42180000D03*
%TO.P,IC1,10*%
X29535000Y-42180000D03*
%TO.P,IC1,11*%
%TO.N,unconnected-(IC1-Pad11)*%
X26995000Y-42180000D03*
%TO.P,IC1,12*%
%TO.N,GND*%
X24455000Y-42180000D03*
%TO.P,IC1,13*%
X21915000Y-42180000D03*
%TO.P,IC1,14,VCC*%
%TO.N,+5V*%
X19375000Y-42180000D03*
%TD*%
D10*
%TO.P,J6,1,Pin_1*%
%TO.N,/SPI-Z80-BUS/LOCAL_A0*%
X120000000Y-12000000D03*
D11*
%TO.P,J6,2,Pin_2*%
%TO.N,/SPI-Z80-BUS/LOCAL_A1*%
X120000000Y-14540000D03*
%TO.P,J6,3,Pin_3*%
%TO.N,/SPI-Z80-BUS/LOCAL_A2*%
X120000000Y-17080000D03*
%TO.P,J6,4,Pin_4*%
%TO.N,/SPI-Z80-BUS/LOCAL_A3*%
X120000000Y-19620000D03*
%TO.P,J6,5,Pin_5*%
%TO.N,/SPI-Z80-BUS/LOCAL_A4*%
X120000000Y-22160000D03*
%TO.P,J6,6,Pin_6*%
%TO.N,/SPI-Z80-BUS/LOCAL_A5*%
X120000000Y-24700000D03*
%TO.P,J6,7,Pin_7*%
%TO.N,/SPI-Z80-BUS/LOCAL_A6*%
X120000000Y-27240000D03*
%TO.P,J6,8,Pin_8*%
%TO.N,/SPI-Z80-BUS/LOCAL_A7*%
X120000000Y-29780000D03*
%TD*%
D14*
%TO.P,D3,1,K*%
%TO.N,/SPI-Z80-BUS/ESP_CONTROL.BUSRQ*%
X97000000Y-40000000D03*
D15*
%TO.P,D3,2,A*%
%TO.N,/SPI-Z80-BUS/Z80_CONTROL.BUSRQ*%
X97000000Y-45080000D03*
%TD*%
D12*
%TO.P,RN1,1,common*%
%TO.N,Net-(D7-K)*%
X143000000Y-42000000D03*
D13*
%TO.P,RN1,2,R1*%
%TO.N,/SPI-Z80-BUS/LOCAL_CONTROL.MEMRQ*%
X140460000Y-42000000D03*
%TO.P,RN1,3,R2*%
%TO.N,/SPI-Z80-BUS/LOCAL_CONTROL.IORQ*%
X137920000Y-42000000D03*
%TO.P,RN1,4,R3*%
%TO.N,/SPI-Z80-BUS/LOCAL_CONTROL.WR*%
X135380000Y-42000000D03*
%TO.P,RN1,5,R4*%
%TO.N,/SPI-Z80-BUS/LOCAL_CONTROL.RD*%
X132840000Y-42000000D03*
%TO.P,RN1,6,R5*%
%TO.N,unconnected-(RN1-R5-Pad6)*%
X130300000Y-42000000D03*
%TO.P,RN1,7,R6*%
%TO.N,unconnected-(RN1-R6-Pad7)*%
X127760000Y-42000000D03*
%TO.P,RN1,8,R7*%
%TO.N,unconnected-(RN1-R7-Pad8)*%
X125220000Y-42000000D03*
%TO.P,RN1,9,R8*%
%TO.N,unconnected-(RN1-R8-Pad9)*%
X122680000Y-42000000D03*
%TD*%
D14*
%TO.P,D7,1,K*%
%TO.N,Net-(D7-K)*%
X143460000Y-47000000D03*
D15*
%TO.P,D7,2,A*%
%TO.N,+5V*%
X148540000Y-47000000D03*
%TD*%
D14*
%TO.P,D1,1,K*%
%TO.N,Net-(D1-K)*%
X88000000Y-8000000D03*
D15*
%TO.P,D1,2,A*%
%TO.N,+5V*%
X93080000Y-8000000D03*
%TD*%
D12*
%TO.P,LOCAL_D.WR1,1,QB*%
%TO.N,/SPI-Z80-BUS/LOCAL_D1*%
X13260000Y-15000000D03*
D13*
%TO.P,LOCAL_D.WR1,2,QC*%
%TO.N,/SPI-Z80-BUS/LOCAL_D2*%
X15800000Y-15000000D03*
%TO.P,LOCAL_D.WR1,3,QD*%
%TO.N,/SPI-Z80-BUS/LOCAL_D3*%
X18340000Y-15000000D03*
%TO.P,LOCAL_D.WR1,4,QE*%
%TO.N,/SPI-Z80-BUS/LOCAL_D4*%
X20880000Y-15000000D03*
%TO.P,LOCAL_D.WR1,5,QF*%
%TO.N,/SPI-Z80-BUS/LOCAL_D5*%
X23420000Y-15000000D03*
%TO.P,LOCAL_D.WR1,6,QG*%
%TO.N,/SPI-Z80-BUS/LOCAL_D6*%
X25960000Y-15000000D03*
%TO.P,LOCAL_D.WR1,7,QH*%
%TO.N,/SPI-Z80-BUS/LOCAL_D7*%
X28500000Y-15000000D03*
%TO.P,LOCAL_D.WR1,8,GND*%
%TO.N,GND*%
X31040000Y-15000000D03*
%TO.P,LOCAL_D.WR1,9,QH'*%
%TO.N,Net-(ESP_CONTROL.WR1-SER)*%
X31040000Y-7380000D03*
%TO.P,LOCAL_D.WR1,10,~{SRCLR}*%
%TO.N,/SPI-Z80-BUS/ESP_SPI_INT.MR*%
X28500000Y-7380000D03*
%TO.P,LOCAL_D.WR1,11,SRCLK*%
%TO.N,/SPI-Z80-BUS/ESP_SPI_INT.SCK*%
X25960000Y-7380000D03*
%TO.P,LOCAL_D.WR1,12,RCLK*%
%TO.N,/SPI-Z80-BUS/ESP_SPI_INT.STC*%
X23420000Y-7380000D03*
%TO.P,LOCAL_D.WR1,13,~{OE}*%
%TO.N,/SPI-Z80-BUS/ESP_CONTROL.WR*%
X20880000Y-7380000D03*
%TO.P,LOCAL_D.WR1,14,SER*%
%TO.N,/SPI-Z80-BUS/ESP_SPI_INT.MOSI*%
X18340000Y-7380000D03*
%TO.P,LOCAL_D.WR1,15,QA*%
%TO.N,/SPI-Z80-BUS/LOCAL_D0*%
X15800000Y-7380000D03*
%TO.P,LOCAL_D.WR1,16,VCC*%
%TO.N,+5V*%
X13260000Y-7380000D03*
%TD*%
D12*
%TO.P,LOCAL_D.RD1,1,~{PL}*%
%TO.N,/SPI-Z80-BUS/ESP_SPI_INT.PL*%
X13220000Y-30500000D03*
D13*
%TO.P,LOCAL_D.RD1,2,CP*%
%TO.N,/SPI-Z80-BUS/ESP_SPI_INT.SCK*%
X15760000Y-30500000D03*
%TO.P,LOCAL_D.RD1,3,D4*%
%TO.N,/SPI-Z80-BUS/LOCAL_D4*%
X18300000Y-30500000D03*
%TO.P,LOCAL_D.RD1,4,D5*%
%TO.N,/SPI-Z80-BUS/LOCAL_D5*%
X20840000Y-30500000D03*
%TO.P,LOCAL_D.RD1,5,D6*%
%TO.N,/SPI-Z80-BUS/LOCAL_D6*%
X23380000Y-30500000D03*
%TO.P,LOCAL_D.RD1,6,D7*%
%TO.N,/SPI-Z80-BUS/LOCAL_D7*%
X25920000Y-30500000D03*
%TO.P,LOCAL_D.RD1,7,~{Q7}*%
%TO.N,Net-(LOCAL_D.RD1-~{Q7})*%
X28460000Y-30500000D03*
%TO.P,LOCAL_D.RD1,8,GND*%
%TO.N,GND*%
X31000000Y-30500000D03*
%TO.P,LOCAL_D.RD1,9,Q7*%
%TO.N,unconnected-(LOCAL_D.RD1-Q7-Pad9)*%
X31000000Y-22880000D03*
%TO.P,LOCAL_D.RD1,10,DS*%
%TO.N,GND*%
X28460000Y-22880000D03*
%TO.P,LOCAL_D.RD1,11,D0*%
%TO.N,/SPI-Z80-BUS/LOCAL_D0*%
X25920000Y-22880000D03*
%TO.P,LOCAL_D.RD1,12,D1*%
%TO.N,/SPI-Z80-BUS/LOCAL_D1*%
X23380000Y-22880000D03*
%TO.P,LOCAL_D.RD1,13,D2*%
%TO.N,/SPI-Z80-BUS/LOCAL_D2*%
X20840000Y-22880000D03*
%TO.P,LOCAL_D.RD1,14,D3*%
%TO.N,/SPI-Z80-BUS/LOCAL_D3*%
X18300000Y-22880000D03*
%TO.P,LOCAL_D.RD1,15,~{CE}*%
%TO.N,/SPI-Z80-BUS/ESP_SPI_INT.CE*%
X15760000Y-22880000D03*
%TO.P,LOCAL_D.RD1,16,VCC*%
%TO.N,+5V*%
X13220000Y-22880000D03*
%TD*%
D12*
%TO.P,ESP_CONTROL.WR1,1,QB*%
%TO.N,/SPI-Z80-BUS/ESP_CONTROL.WR*%
X52220000Y-15635000D03*
D13*
%TO.P,ESP_CONTROL.WR1,2,QC*%
%TO.N,/SPI-Z80-BUS/ESP_CONTROL.IORQ*%
X54760000Y-15635000D03*
%TO.P,ESP_CONTROL.WR1,3,QD*%
%TO.N,/SPI-Z80-BUS/ESP_CONTROL.MEMRQ*%
X57300000Y-15635000D03*
%TO.P,ESP_CONTROL.WR1,4,QE*%
%TO.N,/SPI-Z80-BUS/ESP_CONTROL.BUSRQ*%
X59840000Y-15635000D03*
%TO.P,ESP_CONTROL.WR1,5,QF*%
%TO.N,/SPI-Z80-BUS/ESP_CONTROL.WAIT*%
X62380000Y-15635000D03*
%TO.P,ESP_CONTROL.WR1,6,QG*%
%TO.N,/SPI-Z80-BUS/ESP_CONTROL.ROMCS*%
X64920000Y-15635000D03*
%TO.P,ESP_CONTROL.WR1,7,QH*%
%TO.N,/SPI-Z80-BUS/ESP_CONTROL.NMI*%
X67460000Y-15635000D03*
%TO.P,ESP_CONTROL.WR1,8,GND*%
%TO.N,GND*%
X70000000Y-15635000D03*
%TO.P,ESP_CONTROL.WR1,9,QH'*%
%TO.N,Net-(ESP_CONTROL.WR1-QH')*%
X70000000Y-8015000D03*
%TO.P,ESP_CONTROL.WR1,10,~{SRCLR}*%
%TO.N,/SPI-Z80-BUS/ESP_SPI_INT.MR*%
X67460000Y-8015000D03*
%TO.P,ESP_CONTROL.WR1,11,SRCLK*%
%TO.N,/SPI-Z80-BUS/ESP_SPI_INT.SCK*%
X64920000Y-8015000D03*
%TO.P,ESP_CONTROL.WR1,12,RCLK*%
%TO.N,/SPI-Z80-BUS/ESP_SPI_INT.STC*%
X62380000Y-8015000D03*
%TO.P,ESP_CONTROL.WR1,13,~{OE}*%
%TO.N,/SPI-Z80-BUS/ESP_SPI_INT.OE*%
X59840000Y-8015000D03*
%TO.P,ESP_CONTROL.WR1,14,SER*%
%TO.N,Net-(ESP_CONTROL.WR1-SER)*%
X57300000Y-8015000D03*
%TO.P,ESP_CONTROL.WR1,15,QA*%
%TO.N,/SPI-Z80-BUS/ESP_CONTROL.RD*%
X54760000Y-8015000D03*
%TO.P,ESP_CONTROL.WR1,16,VCC*%
%TO.N,+5V*%
X52220000Y-8015000D03*
%TD*%
D10*
%TO.P,J3,1,Pin_1*%
%TO.N,/SPI-Z80-BUS/ESP_SPI_INT.MOSI*%
X4000000Y-12000000D03*
D11*
%TO.P,J3,2,Pin_2*%
%TO.N,/SPI-Z80-BUS/ESP_SPI_INT.MISO*%
X4000000Y-14540000D03*
%TO.P,J3,3,Pin_3*%
%TO.N,/SPI-Z80-BUS/ESP_SPI_INT.SCK*%
X4000000Y-17080000D03*
%TO.P,J3,4,Pin_4*%
%TO.N,/SPI-Z80-BUS/ESP_SPI_INT.STC*%
X4000000Y-19620000D03*
%TO.P,J3,5,Pin_5*%
%TO.N,/SPI-Z80-BUS/ESP_SPI_INT.PL*%
X4000000Y-22160000D03*
%TO.P,J3,6,Pin_6*%
%TO.N,/SPI-Z80-BUS/ESP_SPI_INT.CE*%
X4000000Y-24700000D03*
%TO.P,J3,7,Pin_7*%
%TO.N,/SPI-Z80-BUS/ESP_SPI_INT.OE*%
X4000000Y-27240000D03*
%TO.P,J3,8,Pin_8*%
%TO.N,/SPI-Z80-BUS/ESP_SPI_INT.MR*%
X4000000Y-29780000D03*
%TD*%
D12*
%TO.P,CONTROL.SELECT1,1,1OE*%
%TO.N,/SPI-Z80-BUS/!ESP_HARDLOCK*%
X52000000Y-31620000D03*
D13*
%TO.P,CONTROL.SELECT1,2,1A0*%
%TO.N,/SPI-Z80-BUS/ESP_CONTROL.RD*%
X54540000Y-31620000D03*
%TO.P,CONTROL.SELECT1,3,2Y0*%
%TO.N,/SPI-Z80-BUS/Z80_CONTROL.RD*%
X57080000Y-31620000D03*
%TO.P,CONTROL.SELECT1,4,1A1*%
%TO.N,Net-(CONTROL.SELECT1-1A1)*%
X59620000Y-31620000D03*
%TO.P,CONTROL.SELECT1,5,2Y1*%
%TO.N,/SPI-Z80-BUS/Z80_CONTROL.WR*%
X62160000Y-31620000D03*
%TO.P,CONTROL.SELECT1,6,1A2*%
%TO.N,/SPI-Z80-BUS/ESP_CONTROL.IORQ*%
X64700000Y-31620000D03*
%TO.P,CONTROL.SELECT1,7,2Y2*%
%TO.N,/SPI-Z80-BUS/Z80_CONTROL.IORQ*%
X67240000Y-31620000D03*
%TO.P,CONTROL.SELECT1,8,1A3*%
%TO.N,/SPI-Z80-BUS/ESP_CONTROL.MEMRQ*%
X69780000Y-31620000D03*
%TO.P,CONTROL.SELECT1,9,2Y3*%
%TO.N,/SPI-Z80-BUS/Z80_CONTROL.MEMRQ*%
X72320000Y-31620000D03*
%TO.P,CONTROL.SELECT1,10,GND*%
%TO.N,GND*%
X74860000Y-31620000D03*
%TO.P,CONTROL.SELECT1,11,2A3*%
%TO.N,/SPI-Z80-BUS/ESP_CONTROL.MEMRQ*%
X74860000Y-24000000D03*
%TO.P,CONTROL.SELECT1,12,1Y3*%
%TO.N,/SPI-Z80-BUS/LOCAL_CONTROL.MEMRQ*%
X72320000Y-24000000D03*
%TO.P,CONTROL.SELECT1,13,2A2*%
%TO.N,/SPI-Z80-BUS/ESP_CONTROL.IORQ*%
X69780000Y-24000000D03*
%TO.P,CONTROL.SELECT1,14,1Y2*%
%TO.N,/SPI-Z80-BUS/LOCAL_CONTROL.IORQ*%
X67240000Y-24000000D03*
%TO.P,CONTROL.SELECT1,15,2A1*%
%TO.N,Net-(CONTROL.SELECT1-1A1)*%
X64700000Y-24000000D03*
%TO.P,CONTROL.SELECT1,16,1Y1*%
%TO.N,/SPI-Z80-BUS/LOCAL_CONTROL.WR*%
X62160000Y-24000000D03*
%TO.P,CONTROL.SELECT1,17,2A0*%
%TO.N,/SPI-Z80-BUS/ESP_CONTROL.RD*%
X59620000Y-24000000D03*
%TO.P,CONTROL.SELECT1,18,1Y0*%
%TO.N,/SPI-Z80-BUS/LOCAL_CONTROL.RD*%
X57080000Y-24000000D03*
%TO.P,CONTROL.SELECT1,19,2OE*%
%TO.N,/SPI-Z80-BUS/ESP_CONTROL.BUSRQ*%
X54540000Y-24000000D03*
%TO.P,CONTROL.SELECT1,20,VCC*%
%TO.N,+5V*%
X52000000Y-24000000D03*
%TD*%
D14*
%TO.P,D4,1,K*%
%TO.N,/SPI-Z80-BUS/ESP_CONTROL.WAIT*%
X101000000Y-40000000D03*
D15*
%TO.P,D4,2,A*%
%TO.N,/SPI-Z80-BUS/Z80_CONTROL.WAIT*%
X101000000Y-45080000D03*
%TD*%
D10*
%TO.P,J1,1,Pin_1*%
%TO.N,+5V*%
X4000000Y-50000000D03*
D11*
%TO.P,J1,2,Pin_2*%
%TO.N,/SPI-Z80-BUS/ESP_PULSE*%
X6540000Y-50000000D03*
%TO.P,J1,3,Pin_3*%
%TO.N,/SPI-Z80-BUS/!ESP_HARDLOCK*%
X9080000Y-50000000D03*
%TO.P,J1,4,Pin_4*%
%TO.N,GND*%
X11620000Y-50000000D03*
%TD*%
D10*
%TO.P,J7,1,Pin_1*%
%TO.N,/SPI-Z80-BUS/LOCAL_A8*%
X150000000Y-12000000D03*
D11*
%TO.P,J7,2,Pin_2*%
%TO.N,/SPI-Z80-BUS/LOCAL_A9*%
X150000000Y-14540000D03*
%TO.P,J7,3,Pin_3*%
%TO.N,/SPI-Z80-BUS/LOCAL_A10*%
X150000000Y-17080000D03*
%TO.P,J7,4,Pin_4*%
%TO.N,/SPI-Z80-BUS/LOCAL_A11*%
X150000000Y-19620000D03*
%TO.P,J7,5,Pin_5*%
%TO.N,/SPI-Z80-BUS/LOCAL_A12*%
X150000000Y-22160000D03*
%TO.P,J7,6,Pin_6*%
%TO.N,/SPI-Z80-BUS/LOCAL_A13*%
X150000000Y-24700000D03*
%TO.P,J7,7,Pin_7*%
%TO.N,/SPI-Z80-BUS/LOCAL_A14*%
X150000000Y-27240000D03*
%TO.P,J7,8,Pin_8*%
%TO.N,/SPI-Z80-BUS/LOCAL_A15*%
X150000000Y-29780000D03*
%TD*%
D12*
%TO.P,LOCAL_ADDR-H.WR1,1,QB*%
%TO.N,/SPI-Z80-BUS/LOCAL_A9*%
X126220000Y-14620000D03*
D13*
%TO.P,LOCAL_ADDR-H.WR1,2,QC*%
%TO.N,/SPI-Z80-BUS/LOCAL_A10*%
X128760000Y-14620000D03*
%TO.P,LOCAL_ADDR-H.WR1,3,QD*%
%TO.N,/SPI-Z80-BUS/LOCAL_A11*%
X131300000Y-14620000D03*
%TO.P,LOCAL_ADDR-H.WR1,4,QE*%
%TO.N,/SPI-Z80-BUS/LOCAL_A12*%
X133840000Y-14620000D03*
%TO.P,LOCAL_ADDR-H.WR1,5,QF*%
%TO.N,/SPI-Z80-BUS/LOCAL_A13*%
X136380000Y-14620000D03*
%TO.P,LOCAL_ADDR-H.WR1,6,QG*%
%TO.N,/SPI-Z80-BUS/LOCAL_A14*%
X138920000Y-14620000D03*
%TO.P,LOCAL_ADDR-H.WR1,7,QH*%
%TO.N,/SPI-Z80-BUS/LOCAL_A15*%
X141460000Y-14620000D03*
%TO.P,LOCAL_ADDR-H.WR1,8,GND*%
%TO.N,GND*%
X144000000Y-14620000D03*
%TO.P,LOCAL_ADDR-H.WR1,9,QH'*%
%TO.N,unconnected-(LOCAL_ADDR-H.WR1-QH'-Pad9)*%
X144000000Y-7000000D03*
%TO.P,LOCAL_ADDR-H.WR1,10,~{SRCLR}*%
%TO.N,/SPI-Z80-BUS/ESP_SPI_INT.MR*%
X141460000Y-7000000D03*
%TO.P,LOCAL_ADDR-H.WR1,11,SRCLK*%
%TO.N,/SPI-Z80-BUS/ESP_SPI_INT.SCK*%
X138920000Y-7000000D03*
%TO.P,LOCAL_ADDR-H.WR1,12,RCLK*%
%TO.N,/SPI-Z80-BUS/ESP_SPI_INT.STC*%
X136380000Y-7000000D03*
%TO.P,LOCAL_ADDR-H.WR1,13,~{OE}*%
%TO.N,/SPI-Z80-BUS/ESP_SPI_INT.OE*%
X133840000Y-7000000D03*
%TO.P,LOCAL_ADDR-H.WR1,14,SER*%
%TO.N,Net-(LOCAL_ADDR-H.WR1-SER)*%
X131300000Y-7000000D03*
%TO.P,LOCAL_ADDR-H.WR1,15,QA*%
%TO.N,/SPI-Z80-BUS/LOCAL_A8*%
X128760000Y-7000000D03*
%TO.P,LOCAL_ADDR-H.WR1,16,VCC*%
%TO.N,+5V*%
X126220000Y-7000000D03*
%TD*%
D12*
%TO.P,LOCAL_ADDR-L.WR1,1,QB*%
%TO.N,/SPI-Z80-BUS/LOCAL_A1*%
X96220000Y-15000000D03*
D13*
%TO.P,LOCAL_ADDR-L.WR1,2,QC*%
%TO.N,/SPI-Z80-BUS/LOCAL_A2*%
X98760000Y-15000000D03*
%TO.P,LOCAL_ADDR-L.WR1,3,QD*%
%TO.N,/SPI-Z80-BUS/LOCAL_A3*%
X101300000Y-15000000D03*
%TO.P,LOCAL_ADDR-L.WR1,4,QE*%
%TO.N,/SPI-Z80-BUS/LOCAL_A4*%
X103840000Y-15000000D03*
%TO.P,LOCAL_ADDR-L.WR1,5,QF*%
%TO.N,/SPI-Z80-BUS/LOCAL_A5*%
X106380000Y-15000000D03*
%TO.P,LOCAL_ADDR-L.WR1,6,QG*%
%TO.N,/SPI-Z80-BUS/LOCAL_A6*%
X108920000Y-15000000D03*
%TO.P,LOCAL_ADDR-L.WR1,7,QH*%
%TO.N,/SPI-Z80-BUS/LOCAL_A7*%
X111460000Y-15000000D03*
%TO.P,LOCAL_ADDR-L.WR1,8,GND*%
%TO.N,GND*%
X114000000Y-15000000D03*
%TO.P,LOCAL_ADDR-L.WR1,9,QH'*%
%TO.N,Net-(LOCAL_ADDR-H.WR1-SER)*%
X114000000Y-7380000D03*
%TO.P,LOCAL_ADDR-L.WR1,10,~{SRCLR}*%
%TO.N,/SPI-Z80-BUS/ESP_SPI_INT.MR*%
X111460000Y-7380000D03*
%TO.P,LOCAL_ADDR-L.WR1,11,SRCLK*%
%TO.N,/SPI-Z80-BUS/ESP_SPI_INT.SCK*%
X108920000Y-7380000D03*
%TO.P,LOCAL_ADDR-L.WR1,12,RCLK*%
%TO.N,/SPI-Z80-BUS/ESP_SPI_INT.STC*%
X106380000Y-7380000D03*
%TO.P,LOCAL_ADDR-L.WR1,13,~{OE}*%
%TO.N,/SPI-Z80-BUS/ESP_SPI_INT.OE*%
X103840000Y-7380000D03*
%TO.P,LOCAL_ADDR-L.WR1,14,SER*%
%TO.N,Net-(ESP_CONTROL.WR1-QH')*%
X101300000Y-7380000D03*
%TO.P,LOCAL_ADDR-L.WR1,15,QA*%
%TO.N,/SPI-Z80-BUS/LOCAL_A0*%
X98760000Y-7380000D03*
%TO.P,LOCAL_ADDR-L.WR1,16,VCC*%
%TO.N,+5V*%
X96220000Y-7380000D03*
%TD*%
D14*
%TO.P,D6,1,K*%
%TO.N,/SPI-Z80-BUS/ESP_CONTROL.NMI*%
X109000000Y-39920000D03*
D15*
%TO.P,D6,2,A*%
%TO.N,/SPI-Z80-BUS/Z80_CONTROL.NMI*%
X109000000Y-45000000D03*
%TD*%
D12*
%TO.P,LOCAL_A-H.RD1,1,~{PL}*%
%TO.N,/SPI-Z80-BUS/ESP_SPI_INT.PL*%
X126220000Y-30000000D03*
D13*
%TO.P,LOCAL_A-H.RD1,2,CP*%
%TO.N,/SPI-Z80-BUS/ESP_SPI_INT.SCK*%
X128760000Y-30000000D03*
%TO.P,LOCAL_A-H.RD1,3,D4*%
%TO.N,/SPI-Z80-BUS/LOCAL_A12*%
X131300000Y-30000000D03*
%TO.P,LOCAL_A-H.RD1,4,D5*%
%TO.N,/SPI-Z80-BUS/LOCAL_A13*%
X133840000Y-30000000D03*
%TO.P,LOCAL_A-H.RD1,5,D6*%
%TO.N,/SPI-Z80-BUS/LOCAL_A14*%
X136380000Y-30000000D03*
%TO.P,LOCAL_A-H.RD1,6,D7*%
%TO.N,/SPI-Z80-BUS/LOCAL_A15*%
X138920000Y-30000000D03*
%TO.P,LOCAL_A-H.RD1,7,~{Q7}*%
%TO.N,/SPI-Z80-BUS/ESP_SPI_INT.MISO*%
X141460000Y-30000000D03*
%TO.P,LOCAL_A-H.RD1,8,GND*%
%TO.N,GND*%
X144000000Y-30000000D03*
%TO.P,LOCAL_A-H.RD1,9,Q7*%
%TO.N,unconnected-(LOCAL_A-H.RD1-Q7-Pad9)*%
X144000000Y-22380000D03*
%TO.P,LOCAL_A-H.RD1,10,DS*%
%TO.N,Net-(LOCAL_A-H.RD1-DS)*%
X141460000Y-22380000D03*
%TO.P,LOCAL_A-H.RD1,11,D0*%
%TO.N,/SPI-Z80-BUS/LOCAL_A8*%
X138920000Y-22380000D03*
%TO.P,LOCAL_A-H.RD1,12,D1*%
%TO.N,/SPI-Z80-BUS/LOCAL_A9*%
X136380000Y-22380000D03*
%TO.P,LOCAL_A-H.RD1,13,D2*%
%TO.N,/SPI-Z80-BUS/LOCAL_A10*%
X133840000Y-22380000D03*
%TO.P,LOCAL_A-H.RD1,14,D3*%
%TO.N,/SPI-Z80-BUS/LOCAL_A11*%
X131300000Y-22380000D03*
%TO.P,LOCAL_A-H.RD1,15,~{CE}*%
%TO.N,/SPI-Z80-BUS/ESP_SPI_INT.CE*%
X128760000Y-22380000D03*
%TO.P,LOCAL_A-H.RD1,16,VCC*%
%TO.N,+5V*%
X126220000Y-22380000D03*
%TD*%
D12*
%TO.P,ESP_CONTROL.Bias1,1,common*%
%TO.N,Net-(D1-K)*%
X84000000Y-9000000D03*
D13*
%TO.P,ESP_CONTROL.Bias1,2,R1*%
%TO.N,/SPI-Z80-BUS/ESP_CONTROL.RD*%
X84000000Y-11540000D03*
%TO.P,ESP_CONTROL.Bias1,3,R2*%
%TO.N,/SPI-Z80-BUS/ESP_CONTROL.WR*%
X84000000Y-14080000D03*
%TO.P,ESP_CONTROL.Bias1,4,R3*%
%TO.N,/SPI-Z80-BUS/ESP_CONTROL.IORQ*%
X84000000Y-16620000D03*
%TO.P,ESP_CONTROL.Bias1,5,R4*%
%TO.N,/SPI-Z80-BUS/ESP_CONTROL.MEMRQ*%
X84000000Y-19160000D03*
%TO.P,ESP_CONTROL.Bias1,6,R5*%
%TO.N,/SPI-Z80-BUS/ESP_CONTROL.BUSRQ*%
X84000000Y-21700000D03*
%TO.P,ESP_CONTROL.Bias1,7,R6*%
%TO.N,/SPI-Z80-BUS/ESP_CONTROL.WAIT*%
X84000000Y-24240000D03*
%TO.P,ESP_CONTROL.Bias1,8,R7*%
%TO.N,/SPI-Z80-BUS/ESP_CONTROL.ROMCS*%
X84000000Y-26780000D03*
%TO.P,ESP_CONTROL.Bias1,9,R8*%
%TO.N,/SPI-Z80-BUS/ESP_CONTROL.NMI*%
X84000000Y-29320000D03*
%TD*%
D14*
%TO.P,D2,1,K*%
%TO.N,Net-(D2-K)*%
X43000000Y-8000000D03*
D15*
%TO.P,D2,2,A*%
%TO.N,+5V*%
X48080000Y-8000000D03*
%TD*%
D12*
%TO.P,LOCAL_A-L.RD1,1,~{PL}*%
%TO.N,/SPI-Z80-BUS/ESP_SPI_INT.PL*%
X96220000Y-30000000D03*
D13*
%TO.P,LOCAL_A-L.RD1,2,CP*%
%TO.N,/SPI-Z80-BUS/ESP_SPI_INT.SCK*%
X98760000Y-30000000D03*
%TO.P,LOCAL_A-L.RD1,3,D4*%
%TO.N,/SPI-Z80-BUS/LOCAL_A4*%
X101300000Y-30000000D03*
%TO.P,LOCAL_A-L.RD1,4,D5*%
%TO.N,/SPI-Z80-BUS/LOCAL_A5*%
X103840000Y-30000000D03*
%TO.P,LOCAL_A-L.RD1,5,D6*%
%TO.N,/SPI-Z80-BUS/LOCAL_A6*%
X106380000Y-30000000D03*
%TO.P,LOCAL_A-L.RD1,6,D7*%
%TO.N,/SPI-Z80-BUS/LOCAL_A7*%
X108920000Y-30000000D03*
%TO.P,LOCAL_A-L.RD1,7,~{Q7}*%
%TO.N,Net-(LOCAL_A-H.RD1-DS)*%
X111460000Y-30000000D03*
%TO.P,LOCAL_A-L.RD1,8,GND*%
%TO.N,GND*%
X114000000Y-30000000D03*
%TO.P,LOCAL_A-L.RD1,9,Q7*%
%TO.N,unconnected-(LOCAL_A-L.RD1-Q7-Pad9)*%
X114000000Y-22380000D03*
%TO.P,LOCAL_A-L.RD1,10,DS*%
%TO.N,Net-(LOCAL_A-L.RD1-DS)*%
X111460000Y-22380000D03*
%TO.P,LOCAL_A-L.RD1,11,D0*%
%TO.N,/SPI-Z80-BUS/LOCAL_A0*%
X108920000Y-22380000D03*
%TO.P,LOCAL_A-L.RD1,12,D1*%
%TO.N,/SPI-Z80-BUS/LOCAL_A1*%
X106380000Y-22380000D03*
%TO.P,LOCAL_A-L.RD1,13,D2*%
%TO.N,/SPI-Z80-BUS/LOCAL_A2*%
X103840000Y-22380000D03*
%TO.P,LOCAL_A-L.RD1,14,D3*%
%TO.N,/SPI-Z80-BUS/LOCAL_A3*%
X101300000Y-22380000D03*
%TO.P,LOCAL_A-L.RD1,15,~{CE}*%
%TO.N,/SPI-Z80-BUS/ESP_SPI_INT.CE*%
X98760000Y-22380000D03*
%TO.P,LOCAL_A-L.RD1,16,VCC*%
%TO.N,+5V*%
X96220000Y-22380000D03*
%TD*%
D10*
%TO.P,J2,1,Pin_1*%
%TO.N,/SPI-Z80-BUS/LOCAL_D0*%
X43000000Y-12000000D03*
D11*
%TO.P,J2,2,Pin_2*%
%TO.N,/SPI-Z80-BUS/LOCAL_D1*%
X43000000Y-14540000D03*
%TO.P,J2,3,Pin_3*%
%TO.N,/SPI-Z80-BUS/LOCAL_D2*%
X43000000Y-17080000D03*
%TO.P,J2,4,Pin_4*%
%TO.N,/SPI-Z80-BUS/LOCAL_D3*%
X43000000Y-19620000D03*
%TO.P,J2,5,Pin_5*%
%TO.N,/SPI-Z80-BUS/LOCAL_D4*%
X43000000Y-22160000D03*
%TO.P,J2,6,Pin_6*%
%TO.N,/SPI-Z80-BUS/LOCAL_D5*%
X43000000Y-24700000D03*
%TO.P,J2,7,Pin_7*%
%TO.N,/SPI-Z80-BUS/LOCAL_D6*%
X43000000Y-27240000D03*
%TO.P,J2,8,Pin_8*%
%TO.N,/SPI-Z80-BUS/LOCAL_D7*%
X43000000Y-29780000D03*
%TD*%
D10*
%TO.P,J5,1,Pin_1*%
%TO.N,/SPI-Z80-BUS/Z80_CONTROL.RD*%
X88000000Y-50000000D03*
D11*
%TO.P,J5,2,Pin_2*%
%TO.N,/SPI-Z80-BUS/Z80_CONTROL.WR*%
X90540000Y-50000000D03*
%TO.P,J5,3,Pin_3*%
%TO.N,/SPI-Z80-BUS/Z80_CONTROL.IORQ*%
X93080000Y-50000000D03*
%TO.P,J5,4,Pin_4*%
%TO.N,/SPI-Z80-BUS/Z80_CONTROL.MEMRQ*%
X95620000Y-50000000D03*
%TO.P,J5,5,Pin_5*%
%TO.N,/SPI-Z80-BUS/Z80_CONTROL.BUSRQ*%
X98160000Y-50000000D03*
%TO.P,J5,6,Pin_6*%
%TO.N,/SPI-Z80-BUS/Z80_CONTROL.WAIT*%
X100700000Y-50000000D03*
%TO.P,J5,7,Pin_7*%
%TO.N,/SPI-Z80-BUS/Z80_CONTROL.ROMCS*%
X103240000Y-50000000D03*
%TO.P,J5,8,Pin_8*%
%TO.N,/SPI-Z80-BUS/Z80_CONTROL.BUSACK*%
X105780000Y-50000000D03*
%TO.P,J5,9,Pin_9*%
%TO.N,/SPI-Z80-BUS/Z80_CONTROL.NMI*%
X108320000Y-50000000D03*
%TO.P,J5,10,Pin_10*%
%TO.N,/SPI-Z80-BUS/Z80_CONTROL.RESET*%
X110860000Y-50000000D03*
%TD*%
D16*
%TO.P,R1,1*%
%TO.N,/SPI-Z80-BUS/ESP_SPI_INT.MR*%
X4000000Y-41000000D03*
D13*
%TO.P,R1,2*%
%TO.N,+5V*%
X14160000Y-41000000D03*
%TD*%
D12*
%TO.P,LOCAL_D.Bias1,1,common*%
%TO.N,Net-(D2-K)*%
X39000000Y-9000000D03*
D13*
%TO.P,LOCAL_D.Bias1,2,R1*%
%TO.N,/SPI-Z80-BUS/LOCAL_D0*%
X39000000Y-11540000D03*
%TO.P,LOCAL_D.Bias1,3,R2*%
%TO.N,/SPI-Z80-BUS/LOCAL_D1*%
X39000000Y-14080000D03*
%TO.P,LOCAL_D.Bias1,4,R3*%
%TO.N,/SPI-Z80-BUS/LOCAL_D2*%
X39000000Y-16620000D03*
%TO.P,LOCAL_D.Bias1,5,R4*%
%TO.N,/SPI-Z80-BUS/LOCAL_D3*%
X39000000Y-19160000D03*
%TO.P,LOCAL_D.Bias1,6,R5*%
%TO.N,/SPI-Z80-BUS/LOCAL_D4*%
X39000000Y-21700000D03*
%TO.P,LOCAL_D.Bias1,7,R6*%
%TO.N,/SPI-Z80-BUS/LOCAL_D5*%
X39000000Y-24240000D03*
%TO.P,LOCAL_D.Bias1,8,R7*%
%TO.N,/SPI-Z80-BUS/LOCAL_D6*%
X39000000Y-26780000D03*
%TO.P,LOCAL_D.Bias1,9,R8*%
%TO.N,/SPI-Z80-BUS/LOCAL_D7*%
X39000000Y-29320000D03*
%TD*%
D10*
%TO.P,J4,1,Pin_1*%
%TO.N,/SPI-Z80-BUS/ESP_CONTROL.RD*%
X88000000Y-12000000D03*
D11*
%TO.P,J4,2,Pin_2*%
%TO.N,/SPI-Z80-BUS/ESP_CONTROL.WR*%
X88000000Y-14540000D03*
%TO.P,J4,3,Pin_3*%
%TO.N,/SPI-Z80-BUS/ESP_CONTROL.IORQ*%
X88000000Y-17080000D03*
%TO.P,J4,4,Pin_4*%
%TO.N,/SPI-Z80-BUS/ESP_CONTROL.MEMRQ*%
X88000000Y-19620000D03*
%TO.P,J4,5,Pin_5*%
%TO.N,/SPI-Z80-BUS/ESP_CONTROL.BUSRQ*%
X88000000Y-22160000D03*
%TO.P,J4,6,Pin_6*%
%TO.N,/SPI-Z80-BUS/ESP_CONTROL.WAIT*%
X88000000Y-24700000D03*
%TO.P,J4,7,Pin_7*%
%TO.N,/SPI-Z80-BUS/ESP_CONTROL.ROMCS*%
X88000000Y-27240000D03*
%TO.P,J4,8,Pin_8*%
%TO.N,/SPI-Z80-BUS/ESP_CONTROL.NMI*%
X88000000Y-29780000D03*
%TD*%
D17*
%TO.N,Net-(CONTROL.SELECT1-1A1)*%
X51042600Y-35385800D03*
%TO.N,/SPI-Z80-BUS/Z80_CONTROL.WR*%
X65856100Y-37538900D03*
%TO.N,GND*%
X73881000Y-41119200D03*
X33437300Y-35261200D03*
X31858300Y-18204300D03*
%TO.N,/SPI-Z80-BUS/LOCAL_CONTROL.MEMRQ*%
X92834000Y-41483000D03*
%TO.N,/SPI-Z80-BUS/LOCAL_CONTROL.IORQ*%
X90883500Y-41468900D03*
%TO.N,/SPI-Z80-BUS/LOCAL_CONTROL.WR*%
X85300200Y-37627000D03*
%TO.N,/SPI-Z80-BUS/LOCAL_CONTROL.RD*%
X85099200Y-39264700D03*
%TO.N,+5V*%
X50689600Y-33489300D03*
%TO.N,/SPI-Z80-BUS/ESP_CONTROL.NMI*%
X91719700Y-38065900D03*
%TO.N,/SPI-Z80-BUS/ESP_CONTROL.WR*%
X40885100Y-35323500D03*
%TO.N,/SPI-Z80-BUS/ESP_SPI_INT.MR*%
X34853900Y-4836500D03*
%TO.N,/SPI-Z80-BUS/ESP_SPI_INT.SCK*%
X145695200Y-33949900D03*
X63914000Y-4307800D03*
X45400700Y-41574700D03*
%TO.N,/SPI-Z80-BUS/ESP_SPI_INT.OE*%
X12831400Y-33594400D03*
%TO.N,/SPI-Z80-BUS/LOCAL_D2*%
X18924400Y-19161800D03*
%TO.N,/SPI-Z80-BUS/LOCAL_A0*%
X100304300Y-17528600D03*
%TO.N,/SPI-Z80-BUS/LOCAL_A13*%
X141354500Y-24368400D03*
%TO.N,/SPI-Z80-BUS/LOCAL_A14*%
X143568100Y-25797100D03*
%TO.N,/SPI-Z80-BUS/LOCAL_A15*%
X147931800Y-22565600D03*
%TO.N,/SPI-Z80-BUS/ESP_SPI_INT.MISO*%
X8800300Y-33220900D03*
X9360600Y-17995700D03*
%TO.N,/SPI-Z80-BUS/ESP_SPI_INT.PL*%
X94460000Y-32967400D03*
%TO.N,/SPI-Z80-BUS/ESP_SPI_INT.CE*%
X22624300Y-34515600D03*
X125167200Y-33170600D03*
X11500000Y-28790600D03*
%TO.N,Net-(LOCAL_A-L.RD1-DS)*%
X93296100Y-28023700D03*
X75949000Y-42154300D03*
%TO.N,Net-(LOCAL_D.RD1-~{Q7})*%
X62226900Y-36393800D03*
%TD*%
D18*
%TO.N,/SPI-Z80-BUS/ESP_CONTROL.BUSRQ*%
X59704800Y-17235100D02*
X54540000Y-22399900D01*
X97000000Y-40000000D02*
X97000000Y-38199900D01*
X54540000Y-24000000D02*
X54540000Y-22399900D01*
X59840000Y-17235100D02*
X59704800Y-17235100D01*
X90933100Y-25093100D02*
X88000000Y-22160000D01*
X96381300Y-38199900D02*
X90933100Y-32751700D01*
X59840000Y-15635000D02*
X59840000Y-17235100D01*
X97000000Y-38199900D02*
X96381300Y-38199900D01*
X90933100Y-32751700D02*
X90933100Y-25093100D01*
%TO.N,/SPI-Z80-BUS/ESP_CONTROL.RD*%
X53147800Y-6402800D02*
X54760000Y-8015000D01*
X59620000Y-24000000D02*
X66297600Y-17322400D01*
X49563500Y-25043400D02*
X49563500Y-11913200D01*
X66297600Y-17322400D02*
X76617500Y-17322400D01*
X50114300Y-7839400D02*
X51550900Y-6402800D01*
X84000000Y-11540000D02*
X82399900Y-11540000D01*
X76617500Y-17322400D02*
X82399900Y-11540000D01*
X54540000Y-30019900D02*
X49563500Y-25043400D01*
X50114300Y-11362400D02*
X50114300Y-7839400D01*
X51550900Y-6402800D02*
X53147800Y-6402800D01*
X54540000Y-31620000D02*
X54540000Y-30019900D01*
X49563500Y-11913200D02*
X50114300Y-11362400D01*
%TO.N,/SPI-Z80-BUS/Z80_CONTROL.RD*%
X72444300Y-40713100D02*
X72444300Y-40925400D01*
X73345000Y-39812400D02*
X72444300Y-40713100D01*
X64920000Y-41015000D02*
X57125100Y-33220100D01*
X85638900Y-50000000D02*
X75451300Y-39812400D01*
X70754600Y-42615100D02*
X66520100Y-42615100D01*
X88000000Y-50000000D02*
X85638900Y-50000000D01*
X75451300Y-39812400D02*
X73345000Y-39812400D01*
X57080000Y-31620000D02*
X57080000Y-33220100D01*
X72444300Y-40925400D02*
X70754600Y-42615100D01*
X66520100Y-42615100D02*
X64920000Y-41015000D01*
X57125100Y-33220100D02*
X57080000Y-33220100D01*
%TO.N,Net-(CONTROL.SELECT1-1A1)*%
X46014600Y-35385800D02*
X33464700Y-47935700D01*
X33464700Y-47935700D02*
X26319300Y-47935700D01*
X26319300Y-47935700D02*
X24455000Y-49800000D01*
X51042600Y-35385800D02*
X46014600Y-35385800D01*
%TO.N,/SPI-Z80-BUS/Z80_CONTROL.WR*%
X90540000Y-49683400D02*
X87517400Y-46660800D01*
X65856100Y-36916200D02*
X62160000Y-33220100D01*
X90540000Y-50000000D02*
X90540000Y-49683400D01*
X62160000Y-31620000D02*
X62160000Y-33220100D01*
X65856100Y-37538900D02*
X65856100Y-36916200D01*
X84714100Y-46660800D02*
X75592200Y-37538900D01*
X75592200Y-37538900D02*
X65856100Y-37538900D01*
X87517400Y-46660800D02*
X84714100Y-46660800D01*
%TO.N,/SPI-Z80-BUS/ESP_CONTROL.IORQ*%
X71727700Y-22052300D02*
X75217100Y-22052300D01*
X69780000Y-24000000D02*
X71727700Y-22052300D01*
X80649400Y-16620000D02*
X84000000Y-16620000D01*
X75217100Y-22052300D02*
X80649400Y-16620000D01*
%TO.N,/SPI-Z80-BUS/Z80_CONTROL.IORQ*%
X67240000Y-31620000D02*
X68840200Y-33220200D01*
X68840200Y-33220200D02*
X72688000Y-33220200D01*
X83112300Y-43644500D02*
X86724500Y-43644500D01*
X86724500Y-43644500D02*
X93080000Y-50000000D01*
X72688000Y-33220200D02*
X83112300Y-43644500D01*
%TO.N,/SPI-Z80-BUS/ESP_CONTROL.MEMRQ*%
X77559900Y-24000000D02*
X82399900Y-19160000D01*
X84000000Y-19160000D02*
X82399900Y-19160000D01*
X74860000Y-24000000D02*
X77559900Y-24000000D01*
%TO.N,/SPI-Z80-BUS/Z80_CONTROL.MEMRQ*%
X87902800Y-42282800D02*
X83250400Y-42282800D01*
X83250400Y-42282800D02*
X72587600Y-31620000D01*
X95620000Y-50000000D02*
X87902800Y-42282800D01*
X72587600Y-31620000D02*
X72320000Y-31620000D01*
%TO.N,GND*%
X36215100Y-48902700D02*
X44882200Y-40235600D01*
X31040000Y-17386000D02*
X31040000Y-16600100D01*
X31040000Y-15000000D02*
X31040000Y-16600100D01*
X70000000Y-48635000D02*
X70000000Y-47034900D01*
X24455000Y-42180000D02*
X23515100Y-42180000D01*
X144000000Y-28399900D02*
X146600400Y-25799500D01*
X32075000Y-42180000D02*
X31135100Y-42180000D01*
X144000000Y-30000000D02*
X144000000Y-28399900D01*
X36215100Y-49800000D02*
X36215100Y-48902700D01*
X105259800Y-42800300D02*
X106800200Y-41259900D01*
X144000000Y-14620000D02*
X144000000Y-16220100D01*
X29535000Y-49800000D02*
X27934900Y-49800000D01*
X114000000Y-15000000D02*
X114000000Y-16600100D01*
X32075000Y-42180000D02*
X32075000Y-40579900D01*
X67559600Y-44516500D02*
X68391400Y-45348300D01*
X31858300Y-18204300D02*
X31040000Y-17386000D01*
X146600400Y-18820500D02*
X144000000Y-16220100D01*
X47038800Y-40235600D02*
X51319700Y-44516500D01*
X26061200Y-40573800D02*
X24455000Y-42180000D01*
X68391400Y-45348300D02*
X68429800Y-45348300D01*
X114000000Y-29507800D02*
X114000000Y-30000000D01*
X68429800Y-45348300D02*
X69040900Y-45959300D01*
X146600400Y-25799500D02*
X146600400Y-18820500D01*
X89834900Y-42800300D02*
X105259800Y-42800300D01*
X114000000Y-30000000D02*
X114000000Y-31600100D01*
X83847500Y-40607500D02*
X87642100Y-40607500D01*
X21915000Y-42180000D02*
X23515100Y-42180000D01*
X28460000Y-24480100D02*
X28460000Y-26359900D01*
X28460000Y-22880000D02*
X28460000Y-24480100D01*
X114000000Y-29507800D02*
X114000000Y-28399900D01*
X106800200Y-38799900D02*
X114000000Y-31600100D01*
X73881000Y-41119200D02*
X69040900Y-45959300D01*
X51319700Y-44516500D02*
X67559600Y-44516500D01*
X14095000Y-50000000D02*
X11620000Y-50000000D01*
X32075000Y-40579900D02*
X33437300Y-39217600D01*
X114000000Y-28399900D02*
X116655000Y-25744900D01*
X116655000Y-25744900D02*
X116655000Y-19255100D01*
X21915000Y-42180000D02*
X14095000Y-50000000D01*
X106800200Y-41259900D02*
X106800200Y-38799900D01*
X29535000Y-42180000D02*
X27928800Y-40573800D01*
X87642100Y-40607500D02*
X89834900Y-42800300D01*
X27928800Y-40573800D02*
X26061200Y-40573800D01*
X26995000Y-49800000D02*
X27934900Y-49800000D01*
X29535000Y-42180000D02*
X31135100Y-42180000D01*
X70000000Y-46918500D02*
X69040900Y-45959300D01*
X31000000Y-30500000D02*
X31000000Y-28899900D01*
X116655000Y-19255100D02*
X114000000Y-16600100D01*
X28460000Y-26359900D02*
X31000000Y-28899900D01*
X74860000Y-31620000D02*
X83847500Y-40607500D01*
X70000000Y-47034900D02*
X70000000Y-46918500D01*
X33437300Y-39217600D02*
X33437300Y-35261200D01*
X44882200Y-40235600D02*
X47038800Y-40235600D01*
X34615000Y-49800000D02*
X36215100Y-49800000D01*
%TO.N,/SPI-Z80-BUS/LOCAL_CONTROL.MEMRQ*%
X72320000Y-24000000D02*
X74491400Y-26171400D01*
X74491400Y-26171400D02*
X77522400Y-26171400D01*
X132460000Y-50000000D02*
X127620000Y-50000000D01*
X77522400Y-26171400D02*
X92834000Y-41483000D01*
X140460000Y-42000000D02*
X132460000Y-50000000D01*
%TO.N,/SPI-Z80-BUS/LOCAL_CONTROL.IORQ*%
X137920000Y-42000000D02*
X131584400Y-48335600D01*
X126744400Y-48335600D02*
X125080000Y-50000000D01*
X131584400Y-48335600D02*
X126744400Y-48335600D01*
X67240000Y-24000000D02*
X70606700Y-27366700D01*
X76889600Y-27366700D02*
X90883500Y-41360600D01*
X90883500Y-41360600D02*
X90883500Y-41468900D01*
X70606700Y-27366700D02*
X76889600Y-27366700D01*
%TO.N,/SPI-Z80-BUS/LOCAL_CONTROL.WR*%
X135380000Y-42000000D02*
X130395400Y-46984600D01*
X125555400Y-46984600D02*
X122540000Y-50000000D01*
X76322800Y-28649600D02*
X66809600Y-28649600D01*
X85300200Y-37627000D02*
X76322800Y-28649600D01*
X66809600Y-28649600D02*
X62160000Y-24000000D01*
X130395400Y-46984600D02*
X125555400Y-46984600D01*
%TO.N,/SPI-Z80-BUS/LOCAL_CONTROL.RD*%
X75484200Y-29649700D02*
X85099200Y-39264700D01*
X120000000Y-50000000D02*
X126135700Y-43864300D01*
X126135700Y-43864300D02*
X130975700Y-43864300D01*
X57080000Y-24000000D02*
X62729700Y-29649700D01*
X62729700Y-29649700D02*
X75484200Y-29649700D01*
X130975700Y-43864300D02*
X132840000Y-42000000D01*
%TO.N,/SPI-Z80-BUS/!ESP_HARDLOCK*%
X52000000Y-31620000D02*
X45275100Y-31620000D01*
X25764300Y-33315700D02*
X9080000Y-50000000D01*
X43934100Y-32961000D02*
X32484600Y-32961000D01*
X45275100Y-31620000D02*
X43934100Y-32961000D01*
X32129900Y-33315700D02*
X25764300Y-33315700D01*
X32484600Y-32961000D02*
X32129900Y-33315700D01*
%TO.N,+5V*%
X126220000Y-23980100D02*
X123564200Y-26635900D01*
X52220000Y-9634600D02*
X77672500Y-9634600D01*
X10125400Y-38565500D02*
X12559900Y-41000000D01*
X93080000Y-8900000D02*
X93080000Y-8000000D01*
X10125400Y-27574700D02*
X10125400Y-38565500D01*
X124619800Y-19179700D02*
X124619800Y-9255900D01*
X52342700Y-39292200D02*
X52342700Y-34847200D01*
X50619800Y-13610200D02*
X52220000Y-12010000D01*
X50984800Y-33489300D02*
X50689600Y-33489300D01*
X126220000Y-7000000D02*
X126220000Y-8600100D01*
X99833300Y-10993300D02*
X96220000Y-7380000D01*
X96220000Y-21579900D02*
X96220000Y-22380000D01*
X125275600Y-8600100D02*
X126220000Y-8600100D01*
X32898800Y-33961100D02*
X32533900Y-34326000D01*
X93080000Y-8000000D02*
X91279900Y-8000000D01*
X81107300Y-6199800D02*
X89479700Y-6199800D01*
X96220000Y-21579900D02*
X96220000Y-20779900D01*
X5210000Y-48349900D02*
X4000000Y-48349900D01*
X50217800Y-33961100D02*
X32898800Y-33961100D01*
X13220000Y-22880000D02*
X13220000Y-24480100D01*
X27229000Y-34326000D02*
X19375000Y-42180000D01*
X52000000Y-24000000D02*
X52000000Y-22399900D01*
X148540000Y-44799100D02*
X148540000Y-47000000D01*
X124619800Y-9255900D02*
X125275600Y-8600100D01*
X50689600Y-33489300D02*
X50217800Y-33961100D01*
X52342700Y-34847200D02*
X50984800Y-33489300D01*
X124619800Y-9255900D02*
X117816800Y-9255900D01*
X127119500Y-36961500D02*
X140702400Y-36961500D01*
X50619800Y-21019700D02*
X50619800Y-13610200D01*
X117816800Y-9255900D02*
X116079400Y-10993300D01*
X52220000Y-39414900D02*
X52342700Y-39292200D01*
X126220000Y-20779900D02*
X124619800Y-19179700D01*
X89479700Y-6199800D02*
X91279900Y-8000000D01*
X52220000Y-12010000D02*
X52220000Y-9634600D01*
X13220000Y-24480100D02*
X10125400Y-27574700D01*
X12559900Y-41000000D02*
X5210000Y-48349900D01*
X123564200Y-33406200D02*
X127119500Y-36961500D01*
X126220000Y-22380000D02*
X126220000Y-20779900D01*
X93080000Y-8900000D02*
X93080000Y-9800100D01*
X123564200Y-26635900D02*
X123564200Y-33406200D01*
X116079400Y-10993300D02*
X99833300Y-10993300D01*
X52220000Y-9634600D02*
X52220000Y-8015000D01*
X4000000Y-50000000D02*
X4000000Y-48349900D01*
X52000000Y-22399900D02*
X50619800Y-21019700D01*
X93080000Y-17639900D02*
X93080000Y-9800100D01*
X140702400Y-36961500D02*
X148540000Y-44799100D01*
X126220000Y-22380000D02*
X126220000Y-23980100D01*
X96220000Y-20779900D02*
X93080000Y-17639900D01*
X52220000Y-41015000D02*
X52220000Y-39414900D01*
X14160000Y-41000000D02*
X12559900Y-41000000D01*
X77672500Y-9634600D02*
X81107300Y-6199800D01*
X32533900Y-34326000D02*
X27229000Y-34326000D01*
%TO.N,Net-(D7-K)*%
X143460000Y-47000000D02*
X143460000Y-45199900D01*
X143000000Y-44739900D02*
X143460000Y-45199900D01*
X143000000Y-42000000D02*
X143000000Y-44739900D01*
%TO.N,/SPI-Z80-BUS/Z80_CONTROL.BUSRQ*%
X98160000Y-50000000D02*
X98160000Y-48040100D01*
X97000000Y-45080000D02*
X97000000Y-46880100D01*
X98160000Y-48040100D02*
X97000000Y-46880100D01*
%TO.N,/SPI-Z80-BUS/ESP_CONTROL.WAIT*%
X76624900Y-13596700D02*
X64418300Y-13596700D01*
X91964700Y-32344100D02*
X91964700Y-13129100D01*
X84000000Y-24240000D02*
X85600200Y-24240000D01*
X85889900Y-24240000D02*
X86349900Y-24700000D01*
X85168700Y-7399800D02*
X82821800Y-7399800D01*
X99199900Y-38975800D02*
X95123500Y-34899400D01*
X101000000Y-40000000D02*
X99199900Y-40000000D01*
X89101500Y-10265900D02*
X85600200Y-10265900D01*
X88000000Y-24700000D02*
X86349900Y-24700000D01*
X85600200Y-10265900D02*
X85600200Y-7831300D01*
X82821800Y-7399800D02*
X76624900Y-13596700D01*
X99199900Y-40000000D02*
X99199900Y-38975800D01*
X85600200Y-24240000D02*
X85600200Y-10265900D01*
X94520000Y-34899400D02*
X91964700Y-32344100D01*
X85600200Y-7831300D02*
X85168700Y-7399800D01*
X64418300Y-13596700D02*
X62380000Y-15635000D01*
X95123500Y-34899400D02*
X94520000Y-34899400D01*
X85600200Y-24240000D02*
X85889900Y-24240000D01*
X91964700Y-13129100D02*
X89101500Y-10265900D01*
%TO.N,/SPI-Z80-BUS/Z80_CONTROL.WAIT*%
X100700000Y-47180100D02*
X101000000Y-46880100D01*
X101000000Y-45080000D02*
X101000000Y-46880100D01*
X100700000Y-50000000D02*
X100700000Y-47180100D01*
%TO.N,/SPI-Z80-BUS/ESP_CONTROL.ROMCS*%
X95610900Y-41800200D02*
X102332300Y-41800200D01*
X89932900Y-33302900D02*
X94134200Y-37504200D01*
X94134200Y-40323500D02*
X95610900Y-41800200D01*
X102332300Y-41800200D02*
X103199900Y-40932600D01*
X94134200Y-37504200D02*
X94134200Y-40323500D01*
X105000000Y-39920000D02*
X103199900Y-39920000D01*
X103199900Y-40932600D02*
X103199900Y-39920000D01*
X89932900Y-29172900D02*
X89932900Y-33302900D01*
X88000000Y-27240000D02*
X89932900Y-29172900D01*
%TO.N,/SPI-Z80-BUS/Z80_CONTROL.ROMCS*%
X103240000Y-50000000D02*
X103240000Y-48349900D01*
X103450200Y-48349900D02*
X105000000Y-46800100D01*
X103240000Y-48349900D02*
X103450200Y-48349900D01*
X105000000Y-45000000D02*
X105000000Y-46800100D01*
%TO.N,/SPI-Z80-BUS/ESP_CONTROL.NMI*%
X88000000Y-29780000D02*
X88000000Y-31430100D01*
X88000000Y-34346200D02*
X91719700Y-38065900D01*
X88000000Y-31430100D02*
X88000000Y-34346200D01*
%TO.N,/SPI-Z80-BUS/Z80_CONTROL.NMI*%
X109000000Y-45000000D02*
X109000000Y-46800100D01*
X67956200Y-51671200D02*
X64920000Y-48635000D01*
X106648800Y-51671200D02*
X67956200Y-51671200D01*
X109000000Y-46800100D02*
X108320000Y-47480100D01*
X108320000Y-47480100D02*
X108320000Y-50000000D01*
X108320000Y-50000000D02*
X106648800Y-51671200D01*
%TO.N,/SPI-Z80-BUS/ESP_CONTROL.WR*%
X27908000Y-43807000D02*
X35260400Y-43807000D01*
X35260400Y-43807000D02*
X40885100Y-38182300D01*
X40885100Y-38182300D02*
X40885100Y-35323500D01*
X21915000Y-49800000D02*
X27908000Y-43807000D01*
%TO.N,Net-(ESP_CONTROL.WR1-QH')*%
X101300000Y-7380000D02*
X99099800Y-5179800D01*
X70000000Y-8015000D02*
X71600100Y-8015000D01*
X99099800Y-5179800D02*
X74435300Y-5179800D01*
X74435300Y-5179800D02*
X71600100Y-8015000D01*
%TO.N,/SPI-Z80-BUS/ESP_SPI_INT.MR*%
X6159400Y-19354300D02*
X15138100Y-10375600D01*
X67460000Y-6414900D02*
X67460000Y-6015100D01*
X69327000Y-4148100D02*
X109828200Y-4148100D01*
X137840200Y-3380200D02*
X113859700Y-3380200D01*
X64452600Y-3007700D02*
X36682700Y-3007700D01*
X67460000Y-6015100D02*
X64452600Y-3007700D01*
X15138100Y-10375600D02*
X25504400Y-10375600D01*
X109828200Y-4148100D02*
X111460000Y-5779900D01*
X6159400Y-27620600D02*
X6159400Y-19354300D01*
X111460000Y-7380000D02*
X111460000Y-5779900D01*
X141460000Y-7000000D02*
X137840200Y-3380200D01*
X36682700Y-3007700D02*
X34853900Y-4836500D01*
X4000000Y-41000000D02*
X4000000Y-29780000D01*
X25504400Y-10375600D02*
X28500000Y-7380000D01*
X67460000Y-8015000D02*
X67460000Y-6414900D01*
X4000000Y-29780000D02*
X6159400Y-27620600D01*
X67460000Y-6015100D02*
X69327000Y-4148100D01*
X113859700Y-3380200D02*
X111460000Y-5779900D01*
%TO.N,/SPI-Z80-BUS/ESP_SPI_INT.SCK*%
X63914000Y-4307800D02*
X64920000Y-5313800D01*
X50860900Y-47034900D02*
X54760000Y-47034900D01*
X128760000Y-30000000D02*
X132709900Y-33949900D01*
X54760000Y-48635000D02*
X54760000Y-47034900D01*
X45400700Y-41574700D02*
X50860900Y-47034900D01*
X64920000Y-5313800D02*
X64920000Y-8015000D01*
X132709900Y-33949900D02*
X145695200Y-33949900D01*
%TO.N,/SPI-Z80-BUS/ESP_SPI_INT.STC*%
X58751900Y-4386900D02*
X39902600Y-4386900D01*
X38147200Y-6142300D02*
X33847100Y-6142300D01*
X114660600Y-8986600D02*
X119255800Y-4391400D01*
X107986600Y-8986600D02*
X114660600Y-8986600D01*
X33847100Y-6142300D02*
X33484000Y-5779200D01*
X25020800Y-5779200D02*
X23420000Y-7380000D01*
X33484000Y-5779200D02*
X25020800Y-5779200D01*
X21708200Y-9091800D02*
X23420000Y-7380000D01*
X119255800Y-4391400D02*
X133771400Y-4391400D01*
X62380000Y-8015000D02*
X58751900Y-4386900D01*
X133771400Y-4391400D02*
X136380000Y-7000000D01*
X14528200Y-9091800D02*
X21708200Y-9091800D01*
X106380000Y-7380000D02*
X107986600Y-8986600D01*
X4000000Y-19620000D02*
X14528200Y-9091800D01*
X39902600Y-4386900D02*
X38147200Y-6142300D01*
%TO.N,/SPI-Z80-BUS/ESP_SPI_INT.OE*%
X119666000Y-5395700D02*
X132235700Y-5395700D01*
X32070400Y-31960900D02*
X31715800Y-32315500D01*
X57212100Y-5387100D02*
X48114800Y-5387100D01*
X45784500Y-7717400D02*
X45784500Y-29329300D01*
X115068600Y-9993100D02*
X119666000Y-5395700D01*
X132235700Y-5395700D02*
X133840000Y-7000000D01*
X45784500Y-29329300D02*
X43152900Y-31960900D01*
X59840000Y-8015000D02*
X57212100Y-5387100D01*
X14110300Y-32315500D02*
X12831400Y-33594400D01*
X106453100Y-9993100D02*
X115068600Y-9993100D01*
X48114800Y-5387100D02*
X45784500Y-7717400D01*
X31715800Y-32315500D02*
X14110300Y-32315500D01*
X43152900Y-31960900D02*
X32070400Y-31960900D01*
X103840000Y-7380000D02*
X106453100Y-9993100D01*
%TO.N,/SPI-Z80-BUS/LOCAL_D0*%
X40975000Y-12000000D02*
X40600100Y-11625100D01*
X43000000Y-12000000D02*
X41349900Y-12000000D01*
X33381200Y-22980200D02*
X31672700Y-21271700D01*
X39639700Y-30960800D02*
X38373900Y-30960800D01*
X38373900Y-30960800D02*
X33381200Y-25968100D01*
X33381200Y-25968100D02*
X33381200Y-22980200D01*
X39000000Y-11540000D02*
X40600100Y-11540000D01*
X41349900Y-12000000D02*
X40975000Y-12000000D01*
X27528300Y-21271700D02*
X25920000Y-22880000D01*
X31672700Y-21271700D02*
X27528300Y-21271700D01*
X40975000Y-12000000D02*
X40975000Y-29625500D01*
X40600100Y-11625100D02*
X40600100Y-11540000D01*
X40975000Y-29625500D02*
X39639700Y-30960800D01*
%TO.N,/SPI-Z80-BUS/LOCAL_D2*%
X18924400Y-19161800D02*
X20840000Y-21077400D01*
X20840000Y-21077400D02*
X20840000Y-22880000D01*
%TO.N,/SPI-Z80-BUS/LOCAL_D3*%
X18340000Y-15000000D02*
X18340000Y-16600100D01*
X17624300Y-17315800D02*
X17624300Y-20604200D01*
X18300000Y-22880000D02*
X18300000Y-21279900D01*
X18340000Y-16600100D02*
X17624300Y-17315800D01*
X17624300Y-20604200D02*
X18300000Y-21279900D01*
%TO.N,/SPI-Z80-BUS/LOCAL_D5*%
X32132700Y-12395500D02*
X26024500Y-12395500D01*
X39000000Y-24240000D02*
X36517900Y-21757900D01*
X26024500Y-12395500D02*
X23420000Y-15000000D01*
X36517900Y-16780700D02*
X32132700Y-12395500D01*
X36517900Y-21757900D02*
X36517900Y-16780700D01*
%TO.N,/SPI-Z80-BUS/LOCAL_D6*%
X35756300Y-23536300D02*
X35756300Y-22526700D01*
X35756300Y-22526700D02*
X35517800Y-22288200D01*
X31720400Y-13397700D02*
X27562300Y-13397700D01*
X39000000Y-26780000D02*
X35756300Y-23536300D01*
X35517800Y-22288200D02*
X35517800Y-17195100D01*
X27562300Y-13397700D02*
X25960000Y-15000000D01*
X35517800Y-17195100D02*
X31720400Y-13397700D01*
%TO.N,/SPI-Z80-BUS/LOCAL_D7*%
X28500100Y-16684800D02*
X28500000Y-16684800D01*
X28500000Y-16684800D02*
X28500000Y-15000000D01*
X39000000Y-29320000D02*
X34756200Y-25076200D01*
X34756200Y-25076200D02*
X34756200Y-22940900D01*
X34756200Y-22940900D02*
X28500100Y-16684800D01*
%TO.N,/SPI-Z80-BUS/LOCAL_A0*%
X108920000Y-22380000D02*
X104068600Y-17528600D01*
X104068600Y-17528600D02*
X100304300Y-17528600D01*
%TO.N,/SPI-Z80-BUS/LOCAL_A1*%
X99774400Y-18879600D02*
X102879600Y-18879600D01*
X102879600Y-18879600D02*
X106380000Y-22380000D01*
X96220000Y-15325200D02*
X99774400Y-18879600D01*
X96220000Y-15000000D02*
X96220000Y-15325200D01*
%TO.N,/SPI-Z80-BUS/LOCAL_A2*%
X98760000Y-13399900D02*
X95055600Y-13399900D01*
X95055600Y-13399900D02*
X94619800Y-13835700D01*
X98816000Y-20328900D02*
X101788900Y-20328900D01*
X98760000Y-15000000D02*
X98760000Y-13399900D01*
X94619800Y-16132700D02*
X98816000Y-20328900D01*
X101788900Y-20328900D02*
X103840000Y-22380000D01*
X94619800Y-13835700D02*
X94619800Y-16132700D01*
%TO.N,/SPI-Z80-BUS/LOCAL_A5*%
X121678100Y-10810200D02*
X121167700Y-10299800D01*
X109386600Y-11993400D02*
X106380000Y-15000000D01*
X121167700Y-10299800D02*
X118783800Y-10299800D01*
X118783800Y-10299800D02*
X117090200Y-11993400D01*
X117090200Y-11993400D02*
X109386600Y-11993400D01*
X121678100Y-23021900D02*
X121678100Y-10810200D01*
X120000000Y-24700000D02*
X121678100Y-23021900D01*
%TO.N,/SPI-Z80-BUS/LOCAL_A6*%
X114643300Y-13379000D02*
X117907200Y-16642900D01*
X108920000Y-15000000D02*
X110541000Y-13379000D01*
X110541000Y-13379000D02*
X114643300Y-13379000D01*
X117907200Y-16642900D02*
X117907200Y-25147200D01*
X117907200Y-25147200D02*
X120000000Y-27240000D01*
%TO.N,/SPI-Z80-BUS/LOCAL_A7*%
X115645600Y-20785700D02*
X115645600Y-23080800D01*
X110326500Y-28399900D02*
X108920000Y-28399900D01*
X111460000Y-16600100D02*
X115645600Y-20785700D01*
X108920000Y-30000000D02*
X108920000Y-28399900D01*
X115645600Y-23080800D02*
X110326500Y-28399900D01*
X111460000Y-15000000D02*
X111460000Y-16600100D01*
%TO.N,/SPI-Z80-BUS/LOCAL_A9*%
X128862400Y-11977600D02*
X126220000Y-14620000D01*
X148349900Y-14540000D02*
X145787500Y-11977600D01*
X150000000Y-14540000D02*
X148349900Y-14540000D01*
X145787500Y-11977600D02*
X128862400Y-11977600D01*
%TO.N,/SPI-Z80-BUS/LOCAL_A11*%
X147083000Y-15404000D02*
X144692200Y-13013200D01*
X131300000Y-22380000D02*
X131300000Y-20779900D01*
X144692200Y-13013200D02*
X132906800Y-13013200D01*
X131300000Y-14620000D02*
X131300000Y-16220100D01*
X147083000Y-16703000D02*
X147083000Y-15404000D01*
X150000000Y-19620000D02*
X147083000Y-16703000D01*
X132906800Y-13013200D02*
X131300000Y-14620000D01*
X131300000Y-16220100D02*
X131300000Y-20779900D01*
%TO.N,/SPI-Z80-BUS/LOCAL_A12*%
X150000000Y-22160000D02*
X151672200Y-23832200D01*
X151672200Y-23832200D02*
X151672200Y-30471000D01*
X151672200Y-30471000D02*
X149524700Y-32618500D01*
X133918500Y-32618500D02*
X131300000Y-30000000D01*
X149524700Y-32618500D02*
X133918500Y-32618500D01*
%TO.N,/SPI-Z80-BUS/LOCAL_A13*%
X139471600Y-24368400D02*
X133840000Y-30000000D01*
X141354500Y-24368400D02*
X139471600Y-24368400D01*
%TO.N,/SPI-Z80-BUS/LOCAL_A14*%
X145600200Y-23765000D02*
X143568100Y-25797100D01*
X140168700Y-16220100D02*
X145600200Y-21651600D01*
X140582900Y-25797100D02*
X143568100Y-25797100D01*
X145600200Y-21651600D02*
X145600200Y-23765000D01*
X138920000Y-16220100D02*
X140168700Y-16220100D01*
X136380000Y-30000000D02*
X140582900Y-25797100D01*
X138920000Y-14620000D02*
X138920000Y-16220100D01*
%TO.N,/SPI-Z80-BUS/LOCAL_A15*%
X138920000Y-30000000D02*
X140522900Y-31602900D01*
X147975600Y-29780000D02*
X147975600Y-22609400D01*
X140522900Y-31602900D02*
X146152700Y-31602900D01*
X150000000Y-29780000D02*
X148349900Y-29780000D01*
X146152700Y-31602900D02*
X147975600Y-29780000D01*
X147975600Y-29780000D02*
X148349900Y-29780000D01*
X147975600Y-22609400D02*
X147931800Y-22565600D01*
%TO.N,/SPI-Z80-BUS/ESP_SPI_INT.MOSI*%
X5650100Y-12000000D02*
X11898300Y-5751800D01*
X16711800Y-5751800D02*
X18340000Y-7380000D01*
X4000000Y-12000000D02*
X5650100Y-12000000D01*
X11898300Y-5751800D02*
X16711800Y-5751800D01*
%TO.N,/SPI-Z80-BUS/ESP_SPI_INT.MISO*%
X8800300Y-18556000D02*
X9360600Y-17995700D01*
X8800300Y-33220900D02*
X8800300Y-18556000D01*
%TO.N,/SPI-Z80-BUS/ESP_SPI_INT.PL*%
X94460000Y-32967400D02*
X94619900Y-32807500D01*
X96220000Y-30000000D02*
X94619900Y-30000000D01*
X94619900Y-32807500D02*
X94619900Y-30000000D01*
%TO.N,/SPI-Z80-BUS/ESP_SPI_INT.CE*%
X124619800Y-32623200D02*
X125167200Y-33170600D01*
X128760000Y-22380000D02*
X128760000Y-24678000D01*
X124619800Y-28818200D02*
X124619800Y-32623200D01*
X11500000Y-34149900D02*
X12248400Y-34898300D01*
X128760000Y-24678000D02*
X124619800Y-28818200D01*
X22241600Y-34898300D02*
X22624300Y-34515600D01*
X15760000Y-24530600D02*
X11500000Y-28790600D01*
X11500000Y-28790600D02*
X11500000Y-34149900D01*
X12248400Y-34898300D02*
X22241600Y-34898300D01*
X15760000Y-22880000D02*
X15760000Y-24480100D01*
X15760000Y-24480100D02*
X15760000Y-24530600D01*
%TO.N,Net-(LOCAL_A-L.RD1-DS)*%
X75949000Y-44969700D02*
X70658900Y-50259800D01*
X70658900Y-50259800D02*
X69084800Y-50259800D01*
X111460000Y-22380000D02*
X105816300Y-28023700D01*
X75949000Y-42154300D02*
X75949000Y-44969700D01*
X105816300Y-28023700D02*
X93296100Y-28023700D01*
X69084800Y-50259800D02*
X67460000Y-48635000D01*
%TO.N,Net-(LOCAL_D.RD1-~{Q7})*%
X62226900Y-36393800D02*
X62838800Y-36393800D01*
X62838800Y-36393800D02*
X67460000Y-41015000D01*
%TD*%
M02*
