%TF.GenerationSoftware,KiCad,Pcbnew,7.0.2*%
%TF.CreationDate,2023-06-28T00:57:01+01:00*%
%TF.ProjectId,SPI-Z80-BUS_ZXspectrum_impl,5350492d-5a38-4302-9d42-55535f5a5873,rev?*%
%TF.SameCoordinates,PX3473bc0PY19bfcc0*%
%TF.FileFunction,Copper,L1,Top*%
%TF.FilePolarity,Positive*%
%FSLAX46Y46*%
G04 Gerber Fmt 4.6, Leading zero omitted, Abs format (unit mm)*
G04 Created by KiCad (PCBNEW 7.0.2) date 2023-06-28 00:57:01*
%MOMM*%
%LPD*%
G01*
G04 APERTURE LIST*
%TA.AperFunction,ComponentPad*%
%ADD10R,1.700000X1.700000*%
%TD*%
%TA.AperFunction,ComponentPad*%
%ADD11O,1.700000X1.700000*%
%TD*%
%TA.AperFunction,ComponentPad*%
%ADD12R,1.600000X1.600000*%
%TD*%
%TA.AperFunction,ComponentPad*%
%ADD13O,1.600000X1.600000*%
%TD*%
%TA.AperFunction,ComponentPad*%
%ADD14R,2.000000X2.000000*%
%TD*%
%TA.AperFunction,ComponentPad*%
%ADD15O,2.000000X2.000000*%
%TD*%
%TA.AperFunction,ComponentPad*%
%ADD16C,1.600000*%
%TD*%
%TA.AperFunction,ViaPad*%
%ADD17C,1.000000*%
%TD*%
%TA.AperFunction,Conductor*%
%ADD18C,0.400000*%
%TD*%
G04 APERTURE END LIST*
D10*
%TO.P,LOCAL_CONTROL1,1,Pin_1*%
%TO.N,/SPI-Z80-BUS/LOCAL_CONTROL.RD*%
X120000000Y-50000000D03*
D11*
%TO.P,LOCAL_CONTROL1,2,Pin_2*%
%TO.N,/SPI-Z80-BUS/LOCAL_CONTROL.WR*%
X122540000Y-50000000D03*
%TO.P,LOCAL_CONTROL1,3,Pin_3*%
%TO.N,/SPI-Z80-BUS/LOCAL_CONTROL.IORQ*%
X125080000Y-50000000D03*
%TO.P,LOCAL_CONTROL1,4,Pin_4*%
%TO.N,/SPI-Z80-BUS/LOCAL_CONTROL.MEMRQ*%
X127620000Y-50000000D03*
%TD*%
D12*
%TO.P,ZX80_CONTROL.RD1,1,~{PL}*%
%TO.N,/SPI-Z80-BUS/ESP_SPI_INT.PL*%
X52220000Y-48635000D03*
D13*
%TO.P,ZX80_CONTROL.RD1,2,CP*%
%TO.N,/SPI-Z80-BUS/ESP_SPI_INT.SCK*%
X54760000Y-48635000D03*
%TO.P,ZX80_CONTROL.RD1,3,D4*%
%TO.N,/SPI-Z80-BUS/Z80_CONTROL.BUSRQ*%
X57300000Y-48635000D03*
%TO.P,ZX80_CONTROL.RD1,4,D5*%
%TO.N,/SPI-Z80-BUS/Z80_CONTROL.WAIT*%
X59840000Y-48635000D03*
%TO.P,ZX80_CONTROL.RD1,5,D6*%
%TO.N,/SPI-Z80-BUS/Z80_CONTROL.BUSACK*%
X62380000Y-48635000D03*
%TO.P,ZX80_CONTROL.RD1,6,D7*%
%TO.N,/SPI-Z80-BUS/Z80_CONTROL.NMI*%
X64920000Y-48635000D03*
%TO.P,ZX80_CONTROL.RD1,7,~{Q7}*%
%TO.N,Net-(LOCAL_A-L.RD1-DS)*%
X67460000Y-48635000D03*
%TO.P,ZX80_CONTROL.RD1,8,GND*%
%TO.N,GND*%
X70000000Y-48635000D03*
%TO.P,ZX80_CONTROL.RD1,9,Q7*%
%TO.N,unconnected-(ZX80_CONTROL.RD1-Q7-Pad9)*%
X70000000Y-41015000D03*
%TO.P,ZX80_CONTROL.RD1,10,DS*%
%TO.N,Net-(LOCAL_D.RD1-~{Q7})*%
X67460000Y-41015000D03*
%TO.P,ZX80_CONTROL.RD1,11,D0*%
%TO.N,/SPI-Z80-BUS/Z80_CONTROL.RD*%
X64920000Y-41015000D03*
%TO.P,ZX80_CONTROL.RD1,12,D1*%
%TO.N,/SPI-Z80-BUS/Z80_CONTROL.WR*%
X62380000Y-41015000D03*
%TO.P,ZX80_CONTROL.RD1,13,D2*%
%TO.N,/SPI-Z80-BUS/Z80_CONTROL.IORQ*%
X59840000Y-41015000D03*
%TO.P,ZX80_CONTROL.RD1,14,D3*%
%TO.N,/SPI-Z80-BUS/Z80_CONTROL.MEMRQ*%
X57300000Y-41015000D03*
%TO.P,ZX80_CONTROL.RD1,15,~{CE}*%
%TO.N,/SPI-Z80-BUS/ESP_SPI_INT.CE*%
X54760000Y-41015000D03*
%TO.P,ZX80_CONTROL.RD1,16,VCC*%
%TO.N,+5V*%
X52220000Y-41015000D03*
%TD*%
D14*
%TO.P,D5,1,K*%
%TO.N,/SPI-Z80-BUS/ESP_CONTROL.ROMCS*%
X105000000Y-39920000D03*
D15*
%TO.P,D5,2,A*%
%TO.N,/SPI-Z80-BUS/Z80_CONTROL.ROMCS*%
X105000000Y-45000000D03*
%TD*%
D12*
%TO.P,IC1,1*%
%TO.N,/SPI-Z80-BUS/ESP_PULSE*%
X19375000Y-49800000D03*
D13*
%TO.P,IC1,2*%
%TO.N,/SPI-Z80-BUS/ESP_CONTROL.WR*%
X21915000Y-49800000D03*
%TO.P,IC1,3*%
%TO.N,Net-(CONTROL.SELECT1-1A1)*%
X24455000Y-49800000D03*
%TO.P,IC1,4*%
%TO.N,GND*%
X26995000Y-49800000D03*
%TO.P,IC1,5*%
X29535000Y-49800000D03*
%TO.P,IC1,6*%
%TO.N,unconnected-(IC1-Pad6)*%
X32075000Y-49800000D03*
%TO.P,IC1,7,GND*%
%TO.N,GND*%
X34615000Y-49800000D03*
%TO.P,IC1,8*%
%TO.N,unconnected-(IC1-Pad8)*%
X34615000Y-42180000D03*
%TO.P,IC1,9*%
%TO.N,GND*%
X32075000Y-42180000D03*
%TO.P,IC1,10*%
X29535000Y-42180000D03*
%TO.P,IC1,11*%
%TO.N,unconnected-(IC1-Pad11)*%
X26995000Y-42180000D03*
%TO.P,IC1,12*%
%TO.N,GND*%
X24455000Y-42180000D03*
%TO.P,IC1,13*%
X21915000Y-42180000D03*
%TO.P,IC1,14,VCC*%
%TO.N,+5V*%
X19375000Y-42180000D03*
%TD*%
D10*
%TO.P,J6,1,Pin_1*%
%TO.N,/SPI-Z80-BUS/LOCAL_A0*%
X120000000Y-12000000D03*
D11*
%TO.P,J6,2,Pin_2*%
%TO.N,/SPI-Z80-BUS/LOCAL_A1*%
X120000000Y-14540000D03*
%TO.P,J6,3,Pin_3*%
%TO.N,/SPI-Z80-BUS/LOCAL_A2*%
X120000000Y-17080000D03*
%TO.P,J6,4,Pin_4*%
%TO.N,/SPI-Z80-BUS/LOCAL_A3*%
X120000000Y-19620000D03*
%TO.P,J6,5,Pin_5*%
%TO.N,/SPI-Z80-BUS/LOCAL_A4*%
X120000000Y-22160000D03*
%TO.P,J6,6,Pin_6*%
%TO.N,/SPI-Z80-BUS/LOCAL_A5*%
X120000000Y-24700000D03*
%TO.P,J6,7,Pin_7*%
%TO.N,/SPI-Z80-BUS/LOCAL_A6*%
X120000000Y-27240000D03*
%TO.P,J6,8,Pin_8*%
%TO.N,/SPI-Z80-BUS/LOCAL_A7*%
X120000000Y-29780000D03*
%TD*%
D14*
%TO.P,D3,1,K*%
%TO.N,/SPI-Z80-BUS/ESP_CONTROL.BUSRQ*%
X97000000Y-40000000D03*
D15*
%TO.P,D3,2,A*%
%TO.N,/SPI-Z80-BUS/Z80_CONTROL.BUSRQ*%
X97000000Y-45080000D03*
%TD*%
D12*
%TO.P,RN1,1,common*%
%TO.N,Net-(D7-K)*%
X143000000Y-42000000D03*
D13*
%TO.P,RN1,2,R1*%
%TO.N,/SPI-Z80-BUS/LOCAL_CONTROL.MEMRQ*%
X140460000Y-42000000D03*
%TO.P,RN1,3,R2*%
%TO.N,/SPI-Z80-BUS/LOCAL_CONTROL.IORQ*%
X137920000Y-42000000D03*
%TO.P,RN1,4,R3*%
%TO.N,/SPI-Z80-BUS/LOCAL_CONTROL.WR*%
X135380000Y-42000000D03*
%TO.P,RN1,5,R4*%
%TO.N,/SPI-Z80-BUS/LOCAL_CONTROL.RD*%
X132840000Y-42000000D03*
%TO.P,RN1,6,R5*%
%TO.N,unconnected-(RN1-R5-Pad6)*%
X130300000Y-42000000D03*
%TO.P,RN1,7,R6*%
%TO.N,unconnected-(RN1-R6-Pad7)*%
X127760000Y-42000000D03*
%TO.P,RN1,8,R7*%
%TO.N,unconnected-(RN1-R7-Pad8)*%
X125220000Y-42000000D03*
%TO.P,RN1,9,R8*%
%TO.N,unconnected-(RN1-R8-Pad9)*%
X122680000Y-42000000D03*
%TD*%
D14*
%TO.P,D7,1,K*%
%TO.N,Net-(D7-K)*%
X143460000Y-47000000D03*
D15*
%TO.P,D7,2,A*%
%TO.N,+5V*%
X148540000Y-47000000D03*
%TD*%
D14*
%TO.P,D1,1,K*%
%TO.N,Net-(D1-K)*%
X88000000Y-8000000D03*
D15*
%TO.P,D1,2,A*%
%TO.N,+5V*%
X93080000Y-8000000D03*
%TD*%
D12*
%TO.P,LOCAL_D.WR1,1,QB*%
%TO.N,/SPI-Z80-BUS/LOCAL_D1*%
X13260000Y-15000000D03*
D13*
%TO.P,LOCAL_D.WR1,2,QC*%
%TO.N,/SPI-Z80-BUS/LOCAL_D2*%
X15800000Y-15000000D03*
%TO.P,LOCAL_D.WR1,3,QD*%
%TO.N,/SPI-Z80-BUS/LOCAL_D3*%
X18340000Y-15000000D03*
%TO.P,LOCAL_D.WR1,4,QE*%
%TO.N,/SPI-Z80-BUS/LOCAL_D4*%
X20880000Y-15000000D03*
%TO.P,LOCAL_D.WR1,5,QF*%
%TO.N,/SPI-Z80-BUS/LOCAL_D5*%
X23420000Y-15000000D03*
%TO.P,LOCAL_D.WR1,6,QG*%
%TO.N,/SPI-Z80-BUS/LOCAL_D6*%
X25960000Y-15000000D03*
%TO.P,LOCAL_D.WR1,7,QH*%
%TO.N,/SPI-Z80-BUS/LOCAL_D7*%
X28500000Y-15000000D03*
%TO.P,LOCAL_D.WR1,8,GND*%
%TO.N,GND*%
X31040000Y-15000000D03*
%TO.P,LOCAL_D.WR1,9,QH'*%
%TO.N,Net-(ESP_CONTROL.WR1-SER)*%
X31040000Y-7380000D03*
%TO.P,LOCAL_D.WR1,10,~{SRCLR}*%
%TO.N,/SPI-Z80-BUS/ESP_SPI_INT.MR*%
X28500000Y-7380000D03*
%TO.P,LOCAL_D.WR1,11,SRCLK*%
%TO.N,/SPI-Z80-BUS/ESP_SPI_INT.SCK*%
X25960000Y-7380000D03*
%TO.P,LOCAL_D.WR1,12,RCLK*%
%TO.N,/SPI-Z80-BUS/ESP_SPI_INT.STC*%
X23420000Y-7380000D03*
%TO.P,LOCAL_D.WR1,13,~{OE}*%
%TO.N,/SPI-Z80-BUS/ESP_CONTROL.WR*%
X20880000Y-7380000D03*
%TO.P,LOCAL_D.WR1,14,SER*%
%TO.N,/SPI-Z80-BUS/ESP_SPI_INT.MOSI*%
X18340000Y-7380000D03*
%TO.P,LOCAL_D.WR1,15,QA*%
%TO.N,/SPI-Z80-BUS/LOCAL_D0*%
X15800000Y-7380000D03*
%TO.P,LOCAL_D.WR1,16,VCC*%
%TO.N,+5V*%
X13260000Y-7380000D03*
%TD*%
D12*
%TO.P,LOCAL_D.RD1,1,~{PL}*%
%TO.N,/SPI-Z80-BUS/ESP_SPI_INT.PL*%
X13220000Y-30500000D03*
D13*
%TO.P,LOCAL_D.RD1,2,CP*%
%TO.N,/SPI-Z80-BUS/ESP_SPI_INT.SCK*%
X15760000Y-30500000D03*
%TO.P,LOCAL_D.RD1,3,D4*%
%TO.N,/SPI-Z80-BUS/LOCAL_D4*%
X18300000Y-30500000D03*
%TO.P,LOCAL_D.RD1,4,D5*%
%TO.N,/SPI-Z80-BUS/LOCAL_D5*%
X20840000Y-30500000D03*
%TO.P,LOCAL_D.RD1,5,D6*%
%TO.N,/SPI-Z80-BUS/LOCAL_D6*%
X23380000Y-30500000D03*
%TO.P,LOCAL_D.RD1,6,D7*%
%TO.N,/SPI-Z80-BUS/LOCAL_D7*%
X25920000Y-30500000D03*
%TO.P,LOCAL_D.RD1,7,~{Q7}*%
%TO.N,Net-(LOCAL_D.RD1-~{Q7})*%
X28460000Y-30500000D03*
%TO.P,LOCAL_D.RD1,8,GND*%
%TO.N,GND*%
X31000000Y-30500000D03*
%TO.P,LOCAL_D.RD1,9,Q7*%
%TO.N,unconnected-(LOCAL_D.RD1-Q7-Pad9)*%
X31000000Y-22880000D03*
%TO.P,LOCAL_D.RD1,10,DS*%
%TO.N,GND*%
X28460000Y-22880000D03*
%TO.P,LOCAL_D.RD1,11,D0*%
%TO.N,/SPI-Z80-BUS/LOCAL_D0*%
X25920000Y-22880000D03*
%TO.P,LOCAL_D.RD1,12,D1*%
%TO.N,/SPI-Z80-BUS/LOCAL_D1*%
X23380000Y-22880000D03*
%TO.P,LOCAL_D.RD1,13,D2*%
%TO.N,/SPI-Z80-BUS/LOCAL_D2*%
X20840000Y-22880000D03*
%TO.P,LOCAL_D.RD1,14,D3*%
%TO.N,/SPI-Z80-BUS/LOCAL_D3*%
X18300000Y-22880000D03*
%TO.P,LOCAL_D.RD1,15,~{CE}*%
%TO.N,/SPI-Z80-BUS/ESP_SPI_INT.CE*%
X15760000Y-22880000D03*
%TO.P,LOCAL_D.RD1,16,VCC*%
%TO.N,+5V*%
X13220000Y-22880000D03*
%TD*%
D12*
%TO.P,ESP_CONTROL.WR1,1,QB*%
%TO.N,/SPI-Z80-BUS/ESP_CONTROL.WR*%
X52220000Y-15635000D03*
D13*
%TO.P,ESP_CONTROL.WR1,2,QC*%
%TO.N,/SPI-Z80-BUS/ESP_CONTROL.IORQ*%
X54760000Y-15635000D03*
%TO.P,ESP_CONTROL.WR1,3,QD*%
%TO.N,/SPI-Z80-BUS/ESP_CONTROL.MEMRQ*%
X57300000Y-15635000D03*
%TO.P,ESP_CONTROL.WR1,4,QE*%
%TO.N,/SPI-Z80-BUS/ESP_CONTROL.BUSRQ*%
X59840000Y-15635000D03*
%TO.P,ESP_CONTROL.WR1,5,QF*%
%TO.N,/SPI-Z80-BUS/ESP_CONTROL.WAIT*%
X62380000Y-15635000D03*
%TO.P,ESP_CONTROL.WR1,6,QG*%
%TO.N,/SPI-Z80-BUS/ESP_CONTROL.ROMCS*%
X64920000Y-15635000D03*
%TO.P,ESP_CONTROL.WR1,7,QH*%
%TO.N,/SPI-Z80-BUS/ESP_CONTROL.NMI*%
X67460000Y-15635000D03*
%TO.P,ESP_CONTROL.WR1,8,GND*%
%TO.N,GND*%
X70000000Y-15635000D03*
%TO.P,ESP_CONTROL.WR1,9,QH'*%
%TO.N,Net-(ESP_CONTROL.WR1-QH')*%
X70000000Y-8015000D03*
%TO.P,ESP_CONTROL.WR1,10,~{SRCLR}*%
%TO.N,/SPI-Z80-BUS/ESP_SPI_INT.MR*%
X67460000Y-8015000D03*
%TO.P,ESP_CONTROL.WR1,11,SRCLK*%
%TO.N,/SPI-Z80-BUS/ESP_SPI_INT.SCK*%
X64920000Y-8015000D03*
%TO.P,ESP_CONTROL.WR1,12,RCLK*%
%TO.N,/SPI-Z80-BUS/ESP_SPI_INT.STC*%
X62380000Y-8015000D03*
%TO.P,ESP_CONTROL.WR1,13,~{OE}*%
%TO.N,/SPI-Z80-BUS/ESP_SPI_INT.OE*%
X59840000Y-8015000D03*
%TO.P,ESP_CONTROL.WR1,14,SER*%
%TO.N,Net-(ESP_CONTROL.WR1-SER)*%
X57300000Y-8015000D03*
%TO.P,ESP_CONTROL.WR1,15,QA*%
%TO.N,/SPI-Z80-BUS/ESP_CONTROL.RD*%
X54760000Y-8015000D03*
%TO.P,ESP_CONTROL.WR1,16,VCC*%
%TO.N,+5V*%
X52220000Y-8015000D03*
%TD*%
D10*
%TO.P,J3,1,Pin_1*%
%TO.N,/SPI-Z80-BUS/ESP_SPI_INT.MOSI*%
X4000000Y-12000000D03*
D11*
%TO.P,J3,2,Pin_2*%
%TO.N,/SPI-Z80-BUS/ESP_SPI_INT.MISO*%
X4000000Y-14540000D03*
%TO.P,J3,3,Pin_3*%
%TO.N,/SPI-Z80-BUS/ESP_SPI_INT.SCK*%
X4000000Y-17080000D03*
%TO.P,J3,4,Pin_4*%
%TO.N,/SPI-Z80-BUS/ESP_SPI_INT.STC*%
X4000000Y-19620000D03*
%TO.P,J3,5,Pin_5*%
%TO.N,/SPI-Z80-BUS/ESP_SPI_INT.PL*%
X4000000Y-22160000D03*
%TO.P,J3,6,Pin_6*%
%TO.N,/SPI-Z80-BUS/ESP_SPI_INT.CE*%
X4000000Y-24700000D03*
%TO.P,J3,7,Pin_7*%
%TO.N,/SPI-Z80-BUS/ESP_SPI_INT.OE*%
X4000000Y-27240000D03*
%TO.P,J3,8,Pin_8*%
%TO.N,/SPI-Z80-BUS/ESP_SPI_INT.MR*%
X4000000Y-29780000D03*
%TD*%
D12*
%TO.P,CONTROL.SELECT1,1,1OE*%
%TO.N,/SPI-Z80-BUS/!ESP_HARDLOCK*%
X52000000Y-31620000D03*
D13*
%TO.P,CONTROL.SELECT1,2,1A0*%
%TO.N,/SPI-Z80-BUS/ESP_CONTROL.RD*%
X54540000Y-31620000D03*
%TO.P,CONTROL.SELECT1,3,2Y0*%
%TO.N,/SPI-Z80-BUS/Z80_CONTROL.RD*%
X57080000Y-31620000D03*
%TO.P,CONTROL.SELECT1,4,1A1*%
%TO.N,Net-(CONTROL.SELECT1-1A1)*%
X59620000Y-31620000D03*
%TO.P,CONTROL.SELECT1,5,2Y1*%
%TO.N,/SPI-Z80-BUS/Z80_CONTROL.WR*%
X62160000Y-31620000D03*
%TO.P,CONTROL.SELECT1,6,1A2*%
%TO.N,/SPI-Z80-BUS/ESP_CONTROL.IORQ*%
X64700000Y-31620000D03*
%TO.P,CONTROL.SELECT1,7,2Y2*%
%TO.N,/SPI-Z80-BUS/Z80_CONTROL.IORQ*%
X67240000Y-31620000D03*
%TO.P,CONTROL.SELECT1,8,1A3*%
%TO.N,/SPI-Z80-BUS/ESP_CONTROL.MEMRQ*%
X69780000Y-31620000D03*
%TO.P,CONTROL.SELECT1,9,2Y3*%
%TO.N,/SPI-Z80-BUS/Z80_CONTROL.MEMRQ*%
X72320000Y-31620000D03*
%TO.P,CONTROL.SELECT1,10,GND*%
%TO.N,GND*%
X74860000Y-31620000D03*
%TO.P,CONTROL.SELECT1,11,2A3*%
%TO.N,/SPI-Z80-BUS/ESP_CONTROL.MEMRQ*%
X74860000Y-24000000D03*
%TO.P,CONTROL.SELECT1,12,1Y3*%
%TO.N,/SPI-Z80-BUS/LOCAL_CONTROL.MEMRQ*%
X72320000Y-24000000D03*
%TO.P,CONTROL.SELECT1,13,2A2*%
%TO.N,/SPI-Z80-BUS/ESP_CONTROL.IORQ*%
X69780000Y-24000000D03*
%TO.P,CONTROL.SELECT1,14,1Y2*%
%TO.N,/SPI-Z80-BUS/LOCAL_CONTROL.IORQ*%
X67240000Y-24000000D03*
%TO.P,CONTROL.SELECT1,15,2A1*%
%TO.N,Net-(CONTROL.SELECT1-1A1)*%
X64700000Y-24000000D03*
%TO.P,CONTROL.SELECT1,16,1Y1*%
%TO.N,/SPI-Z80-BUS/LOCAL_CONTROL.WR*%
X62160000Y-24000000D03*
%TO.P,CONTROL.SELECT1,17,2A0*%
%TO.N,/SPI-Z80-BUS/ESP_CONTROL.RD*%
X59620000Y-24000000D03*
%TO.P,CONTROL.SELECT1,18,1Y0*%
%TO.N,/SPI-Z80-BUS/LOCAL_CONTROL.RD*%
X57080000Y-24000000D03*
%TO.P,CONTROL.SELECT1,19,2OE*%
%TO.N,/SPI-Z80-BUS/ESP_CONTROL.BUSRQ*%
X54540000Y-24000000D03*
%TO.P,CONTROL.SELECT1,20,VCC*%
%TO.N,+5V*%
X52000000Y-24000000D03*
%TD*%
D14*
%TO.P,D4,1,K*%
%TO.N,/SPI-Z80-BUS/ESP_CONTROL.WAIT*%
X101000000Y-40000000D03*
D15*
%TO.P,D4,2,A*%
%TO.N,/SPI-Z80-BUS/Z80_CONTROL.WAIT*%
X101000000Y-45080000D03*
%TD*%
D10*
%TO.P,J1,1,Pin_1*%
%TO.N,+5V*%
X4000000Y-50000000D03*
D11*
%TO.P,J1,2,Pin_2*%
%TO.N,/SPI-Z80-BUS/ESP_PULSE*%
X6540000Y-50000000D03*
%TO.P,J1,3,Pin_3*%
%TO.N,/SPI-Z80-BUS/!ESP_HARDLOCK*%
X9080000Y-50000000D03*
%TO.P,J1,4,Pin_4*%
%TO.N,GND*%
X11620000Y-50000000D03*
%TD*%
D10*
%TO.P,J7,1,Pin_1*%
%TO.N,/SPI-Z80-BUS/LOCAL_A8*%
X150000000Y-12000000D03*
D11*
%TO.P,J7,2,Pin_2*%
%TO.N,/SPI-Z80-BUS/LOCAL_A9*%
X150000000Y-14540000D03*
%TO.P,J7,3,Pin_3*%
%TO.N,/SPI-Z80-BUS/LOCAL_A10*%
X150000000Y-17080000D03*
%TO.P,J7,4,Pin_4*%
%TO.N,/SPI-Z80-BUS/LOCAL_A11*%
X150000000Y-19620000D03*
%TO.P,J7,5,Pin_5*%
%TO.N,/SPI-Z80-BUS/LOCAL_A12*%
X150000000Y-22160000D03*
%TO.P,J7,6,Pin_6*%
%TO.N,/SPI-Z80-BUS/LOCAL_A13*%
X150000000Y-24700000D03*
%TO.P,J7,7,Pin_7*%
%TO.N,/SPI-Z80-BUS/LOCAL_A14*%
X150000000Y-27240000D03*
%TO.P,J7,8,Pin_8*%
%TO.N,/SPI-Z80-BUS/LOCAL_A15*%
X150000000Y-29780000D03*
%TD*%
D12*
%TO.P,LOCAL_ADDR-H.WR1,1,QB*%
%TO.N,/SPI-Z80-BUS/LOCAL_A9*%
X126220000Y-14620000D03*
D13*
%TO.P,LOCAL_ADDR-H.WR1,2,QC*%
%TO.N,/SPI-Z80-BUS/LOCAL_A10*%
X128760000Y-14620000D03*
%TO.P,LOCAL_ADDR-H.WR1,3,QD*%
%TO.N,/SPI-Z80-BUS/LOCAL_A11*%
X131300000Y-14620000D03*
%TO.P,LOCAL_ADDR-H.WR1,4,QE*%
%TO.N,/SPI-Z80-BUS/LOCAL_A12*%
X133840000Y-14620000D03*
%TO.P,LOCAL_ADDR-H.WR1,5,QF*%
%TO.N,/SPI-Z80-BUS/LOCAL_A13*%
X136380000Y-14620000D03*
%TO.P,LOCAL_ADDR-H.WR1,6,QG*%
%TO.N,/SPI-Z80-BUS/LOCAL_A14*%
X138920000Y-14620000D03*
%TO.P,LOCAL_ADDR-H.WR1,7,QH*%
%TO.N,/SPI-Z80-BUS/LOCAL_A15*%
X141460000Y-14620000D03*
%TO.P,LOCAL_ADDR-H.WR1,8,GND*%
%TO.N,GND*%
X144000000Y-14620000D03*
%TO.P,LOCAL_ADDR-H.WR1,9,QH'*%
%TO.N,unconnected-(LOCAL_ADDR-H.WR1-QH'-Pad9)*%
X144000000Y-7000000D03*
%TO.P,LOCAL_ADDR-H.WR1,10,~{SRCLR}*%
%TO.N,/SPI-Z80-BUS/ESP_SPI_INT.MR*%
X141460000Y-7000000D03*
%TO.P,LOCAL_ADDR-H.WR1,11,SRCLK*%
%TO.N,/SPI-Z80-BUS/ESP_SPI_INT.SCK*%
X138920000Y-7000000D03*
%TO.P,LOCAL_ADDR-H.WR1,12,RCLK*%
%TO.N,/SPI-Z80-BUS/ESP_SPI_INT.STC*%
X136380000Y-7000000D03*
%TO.P,LOCAL_ADDR-H.WR1,13,~{OE}*%
%TO.N,/SPI-Z80-BUS/ESP_SPI_INT.OE*%
X133840000Y-7000000D03*
%TO.P,LOCAL_ADDR-H.WR1,14,SER*%
%TO.N,Net-(LOCAL_ADDR-H.WR1-SER)*%
X131300000Y-7000000D03*
%TO.P,LOCAL_ADDR-H.WR1,15,QA*%
%TO.N,/SPI-Z80-BUS/LOCAL_A8*%
X128760000Y-7000000D03*
%TO.P,LOCAL_ADDR-H.WR1,16,VCC*%
%TO.N,+5V*%
X126220000Y-7000000D03*
%TD*%
D12*
%TO.P,LOCAL_ADDR-L.WR1,1,QB*%
%TO.N,/SPI-Z80-BUS/LOCAL_A1*%
X96220000Y-15000000D03*
D13*
%TO.P,LOCAL_ADDR-L.WR1,2,QC*%
%TO.N,/SPI-Z80-BUS/LOCAL_A2*%
X98760000Y-15000000D03*
%TO.P,LOCAL_ADDR-L.WR1,3,QD*%
%TO.N,/SPI-Z80-BUS/LOCAL_A3*%
X101300000Y-15000000D03*
%TO.P,LOCAL_ADDR-L.WR1,4,QE*%
%TO.N,/SPI-Z80-BUS/LOCAL_A4*%
X103840000Y-15000000D03*
%TO.P,LOCAL_ADDR-L.WR1,5,QF*%
%TO.N,/SPI-Z80-BUS/LOCAL_A5*%
X106380000Y-15000000D03*
%TO.P,LOCAL_ADDR-L.WR1,6,QG*%
%TO.N,/SPI-Z80-BUS/LOCAL_A6*%
X108920000Y-15000000D03*
%TO.P,LOCAL_ADDR-L.WR1,7,QH*%
%TO.N,/SPI-Z80-BUS/LOCAL_A7*%
X111460000Y-15000000D03*
%TO.P,LOCAL_ADDR-L.WR1,8,GND*%
%TO.N,GND*%
X114000000Y-15000000D03*
%TO.P,LOCAL_ADDR-L.WR1,9,QH'*%
%TO.N,Net-(LOCAL_ADDR-H.WR1-SER)*%
X114000000Y-7380000D03*
%TO.P,LOCAL_ADDR-L.WR1,10,~{SRCLR}*%
%TO.N,/SPI-Z80-BUS/ESP_SPI_INT.MR*%
X111460000Y-7380000D03*
%TO.P,LOCAL_ADDR-L.WR1,11,SRCLK*%
%TO.N,/SPI-Z80-BUS/ESP_SPI_INT.SCK*%
X108920000Y-7380000D03*
%TO.P,LOCAL_ADDR-L.WR1,12,RCLK*%
%TO.N,/SPI-Z80-BUS/ESP_SPI_INT.STC*%
X106380000Y-7380000D03*
%TO.P,LOCAL_ADDR-L.WR1,13,~{OE}*%
%TO.N,/SPI-Z80-BUS/ESP_SPI_INT.OE*%
X103840000Y-7380000D03*
%TO.P,LOCAL_ADDR-L.WR1,14,SER*%
%TO.N,Net-(ESP_CONTROL.WR1-QH')*%
X101300000Y-7380000D03*
%TO.P,LOCAL_ADDR-L.WR1,15,QA*%
%TO.N,/SPI-Z80-BUS/LOCAL_A0*%
X98760000Y-7380000D03*
%TO.P,LOCAL_ADDR-L.WR1,16,VCC*%
%TO.N,+5V*%
X96220000Y-7380000D03*
%TD*%
D14*
%TO.P,D6,1,K*%
%TO.N,/SPI-Z80-BUS/ESP_CONTROL.NMI*%
X109000000Y-39920000D03*
D15*
%TO.P,D6,2,A*%
%TO.N,/SPI-Z80-BUS/Z80_CONTROL.NMI*%
X109000000Y-45000000D03*
%TD*%
D12*
%TO.P,LOCAL_A-H.RD1,1,~{PL}*%
%TO.N,/SPI-Z80-BUS/ESP_SPI_INT.PL*%
X126220000Y-30000000D03*
D13*
%TO.P,LOCAL_A-H.RD1,2,CP*%
%TO.N,/SPI-Z80-BUS/ESP_SPI_INT.SCK*%
X128760000Y-30000000D03*
%TO.P,LOCAL_A-H.RD1,3,D4*%
%TO.N,/SPI-Z80-BUS/LOCAL_A12*%
X131300000Y-30000000D03*
%TO.P,LOCAL_A-H.RD1,4,D5*%
%TO.N,/SPI-Z80-BUS/LOCAL_A13*%
X133840000Y-30000000D03*
%TO.P,LOCAL_A-H.RD1,5,D6*%
%TO.N,/SPI-Z80-BUS/LOCAL_A14*%
X136380000Y-30000000D03*
%TO.P,LOCAL_A-H.RD1,6,D7*%
%TO.N,/SPI-Z80-BUS/LOCAL_A15*%
X138920000Y-30000000D03*
%TO.P,LOCAL_A-H.RD1,7,~{Q7}*%
%TO.N,/SPI-Z80-BUS/ESP_SPI_INT.MISO*%
X141460000Y-30000000D03*
%TO.P,LOCAL_A-H.RD1,8,GND*%
%TO.N,GND*%
X144000000Y-30000000D03*
%TO.P,LOCAL_A-H.RD1,9,Q7*%
%TO.N,unconnected-(LOCAL_A-H.RD1-Q7-Pad9)*%
X144000000Y-22380000D03*
%TO.P,LOCAL_A-H.RD1,10,DS*%
%TO.N,Net-(LOCAL_A-H.RD1-DS)*%
X141460000Y-22380000D03*
%TO.P,LOCAL_A-H.RD1,11,D0*%
%TO.N,/SPI-Z80-BUS/LOCAL_A8*%
X138920000Y-22380000D03*
%TO.P,LOCAL_A-H.RD1,12,D1*%
%TO.N,/SPI-Z80-BUS/LOCAL_A9*%
X136380000Y-22380000D03*
%TO.P,LOCAL_A-H.RD1,13,D2*%
%TO.N,/SPI-Z80-BUS/LOCAL_A10*%
X133840000Y-22380000D03*
%TO.P,LOCAL_A-H.RD1,14,D3*%
%TO.N,/SPI-Z80-BUS/LOCAL_A11*%
X131300000Y-22380000D03*
%TO.P,LOCAL_A-H.RD1,15,~{CE}*%
%TO.N,/SPI-Z80-BUS/ESP_SPI_INT.CE*%
X128760000Y-22380000D03*
%TO.P,LOCAL_A-H.RD1,16,VCC*%
%TO.N,+5V*%
X126220000Y-22380000D03*
%TD*%
D12*
%TO.P,ESP_CONTROL.Bias1,1,common*%
%TO.N,Net-(D1-K)*%
X84000000Y-9000000D03*
D13*
%TO.P,ESP_CONTROL.Bias1,2,R1*%
%TO.N,/SPI-Z80-BUS/ESP_CONTROL.RD*%
X84000000Y-11540000D03*
%TO.P,ESP_CONTROL.Bias1,3,R2*%
%TO.N,/SPI-Z80-BUS/ESP_CONTROL.WR*%
X84000000Y-14080000D03*
%TO.P,ESP_CONTROL.Bias1,4,R3*%
%TO.N,/SPI-Z80-BUS/ESP_CONTROL.IORQ*%
X84000000Y-16620000D03*
%TO.P,ESP_CONTROL.Bias1,5,R4*%
%TO.N,/SPI-Z80-BUS/ESP_CONTROL.MEMRQ*%
X84000000Y-19160000D03*
%TO.P,ESP_CONTROL.Bias1,6,R5*%
%TO.N,/SPI-Z80-BUS/ESP_CONTROL.BUSRQ*%
X84000000Y-21700000D03*
%TO.P,ESP_CONTROL.Bias1,7,R6*%
%TO.N,/SPI-Z80-BUS/ESP_CONTROL.WAIT*%
X84000000Y-24240000D03*
%TO.P,ESP_CONTROL.Bias1,8,R7*%
%TO.N,/SPI-Z80-BUS/ESP_CONTROL.ROMCS*%
X84000000Y-26780000D03*
%TO.P,ESP_CONTROL.Bias1,9,R8*%
%TO.N,/SPI-Z80-BUS/ESP_CONTROL.NMI*%
X84000000Y-29320000D03*
%TD*%
D14*
%TO.P,D2,1,K*%
%TO.N,Net-(D2-K)*%
X43000000Y-8000000D03*
D15*
%TO.P,D2,2,A*%
%TO.N,+5V*%
X48080000Y-8000000D03*
%TD*%
D12*
%TO.P,LOCAL_A-L.RD1,1,~{PL}*%
%TO.N,/SPI-Z80-BUS/ESP_SPI_INT.PL*%
X96220000Y-30000000D03*
D13*
%TO.P,LOCAL_A-L.RD1,2,CP*%
%TO.N,/SPI-Z80-BUS/ESP_SPI_INT.SCK*%
X98760000Y-30000000D03*
%TO.P,LOCAL_A-L.RD1,3,D4*%
%TO.N,/SPI-Z80-BUS/LOCAL_A4*%
X101300000Y-30000000D03*
%TO.P,LOCAL_A-L.RD1,4,D5*%
%TO.N,/SPI-Z80-BUS/LOCAL_A5*%
X103840000Y-30000000D03*
%TO.P,LOCAL_A-L.RD1,5,D6*%
%TO.N,/SPI-Z80-BUS/LOCAL_A6*%
X106380000Y-30000000D03*
%TO.P,LOCAL_A-L.RD1,6,D7*%
%TO.N,/SPI-Z80-BUS/LOCAL_A7*%
X108920000Y-30000000D03*
%TO.P,LOCAL_A-L.RD1,7,~{Q7}*%
%TO.N,Net-(LOCAL_A-H.RD1-DS)*%
X111460000Y-30000000D03*
%TO.P,LOCAL_A-L.RD1,8,GND*%
%TO.N,GND*%
X114000000Y-30000000D03*
%TO.P,LOCAL_A-L.RD1,9,Q7*%
%TO.N,unconnected-(LOCAL_A-L.RD1-Q7-Pad9)*%
X114000000Y-22380000D03*
%TO.P,LOCAL_A-L.RD1,10,DS*%
%TO.N,Net-(LOCAL_A-L.RD1-DS)*%
X111460000Y-22380000D03*
%TO.P,LOCAL_A-L.RD1,11,D0*%
%TO.N,/SPI-Z80-BUS/LOCAL_A0*%
X108920000Y-22380000D03*
%TO.P,LOCAL_A-L.RD1,12,D1*%
%TO.N,/SPI-Z80-BUS/LOCAL_A1*%
X106380000Y-22380000D03*
%TO.P,LOCAL_A-L.RD1,13,D2*%
%TO.N,/SPI-Z80-BUS/LOCAL_A2*%
X103840000Y-22380000D03*
%TO.P,LOCAL_A-L.RD1,14,D3*%
%TO.N,/SPI-Z80-BUS/LOCAL_A3*%
X101300000Y-22380000D03*
%TO.P,LOCAL_A-L.RD1,15,~{CE}*%
%TO.N,/SPI-Z80-BUS/ESP_SPI_INT.CE*%
X98760000Y-22380000D03*
%TO.P,LOCAL_A-L.RD1,16,VCC*%
%TO.N,+5V*%
X96220000Y-22380000D03*
%TD*%
D10*
%TO.P,J2,1,Pin_1*%
%TO.N,/SPI-Z80-BUS/LOCAL_D0*%
X43000000Y-12000000D03*
D11*
%TO.P,J2,2,Pin_2*%
%TO.N,/SPI-Z80-BUS/LOCAL_D1*%
X43000000Y-14540000D03*
%TO.P,J2,3,Pin_3*%
%TO.N,/SPI-Z80-BUS/LOCAL_D2*%
X43000000Y-17080000D03*
%TO.P,J2,4,Pin_4*%
%TO.N,/SPI-Z80-BUS/LOCAL_D3*%
X43000000Y-19620000D03*
%TO.P,J2,5,Pin_5*%
%TO.N,/SPI-Z80-BUS/LOCAL_D4*%
X43000000Y-22160000D03*
%TO.P,J2,6,Pin_6*%
%TO.N,/SPI-Z80-BUS/LOCAL_D5*%
X43000000Y-24700000D03*
%TO.P,J2,7,Pin_7*%
%TO.N,/SPI-Z80-BUS/LOCAL_D6*%
X43000000Y-27240000D03*
%TO.P,J2,8,Pin_8*%
%TO.N,/SPI-Z80-BUS/LOCAL_D7*%
X43000000Y-29780000D03*
%TD*%
D10*
%TO.P,J5,1,Pin_1*%
%TO.N,/SPI-Z80-BUS/Z80_CONTROL.RD*%
X88000000Y-50000000D03*
D11*
%TO.P,J5,2,Pin_2*%
%TO.N,/SPI-Z80-BUS/Z80_CONTROL.WR*%
X90540000Y-50000000D03*
%TO.P,J5,3,Pin_3*%
%TO.N,/SPI-Z80-BUS/Z80_CONTROL.IORQ*%
X93080000Y-50000000D03*
%TO.P,J5,4,Pin_4*%
%TO.N,/SPI-Z80-BUS/Z80_CONTROL.MEMRQ*%
X95620000Y-50000000D03*
%TO.P,J5,5,Pin_5*%
%TO.N,/SPI-Z80-BUS/Z80_CONTROL.BUSRQ*%
X98160000Y-50000000D03*
%TO.P,J5,6,Pin_6*%
%TO.N,/SPI-Z80-BUS/Z80_CONTROL.WAIT*%
X100700000Y-50000000D03*
%TO.P,J5,7,Pin_7*%
%TO.N,/SPI-Z80-BUS/Z80_CONTROL.ROMCS*%
X103240000Y-50000000D03*
%TO.P,J5,8,Pin_8*%
%TO.N,/SPI-Z80-BUS/Z80_CONTROL.BUSACK*%
X105780000Y-50000000D03*
%TO.P,J5,9,Pin_9*%
%TO.N,/SPI-Z80-BUS/Z80_CONTROL.NMI*%
X108320000Y-50000000D03*
%TO.P,J5,10,Pin_10*%
%TO.N,/SPI-Z80-BUS/Z80_CONTROL.RESET*%
X110860000Y-50000000D03*
%TD*%
D16*
%TO.P,R1,1*%
%TO.N,/SPI-Z80-BUS/ESP_SPI_INT.MR*%
X4000000Y-41000000D03*
D13*
%TO.P,R1,2*%
%TO.N,+5V*%
X14160000Y-41000000D03*
%TD*%
D12*
%TO.P,LOCAL_D.Bias1,1,common*%
%TO.N,Net-(D2-K)*%
X39000000Y-9000000D03*
D13*
%TO.P,LOCAL_D.Bias1,2,R1*%
%TO.N,/SPI-Z80-BUS/LOCAL_D0*%
X39000000Y-11540000D03*
%TO.P,LOCAL_D.Bias1,3,R2*%
%TO.N,/SPI-Z80-BUS/LOCAL_D1*%
X39000000Y-14080000D03*
%TO.P,LOCAL_D.Bias1,4,R3*%
%TO.N,/SPI-Z80-BUS/LOCAL_D2*%
X39000000Y-16620000D03*
%TO.P,LOCAL_D.Bias1,5,R4*%
%TO.N,/SPI-Z80-BUS/LOCAL_D3*%
X39000000Y-19160000D03*
%TO.P,LOCAL_D.Bias1,6,R5*%
%TO.N,/SPI-Z80-BUS/LOCAL_D4*%
X39000000Y-21700000D03*
%TO.P,LOCAL_D.Bias1,7,R6*%
%TO.N,/SPI-Z80-BUS/LOCAL_D5*%
X39000000Y-24240000D03*
%TO.P,LOCAL_D.Bias1,8,R7*%
%TO.N,/SPI-Z80-BUS/LOCAL_D6*%
X39000000Y-26780000D03*
%TO.P,LOCAL_D.Bias1,9,R8*%
%TO.N,/SPI-Z80-BUS/LOCAL_D7*%
X39000000Y-29320000D03*
%TD*%
D10*
%TO.P,J4,1,Pin_1*%
%TO.N,/SPI-Z80-BUS/ESP_CONTROL.RD*%
X88000000Y-12000000D03*
D11*
%TO.P,J4,2,Pin_2*%
%TO.N,/SPI-Z80-BUS/ESP_CONTROL.WR*%
X88000000Y-14540000D03*
%TO.P,J4,3,Pin_3*%
%TO.N,/SPI-Z80-BUS/ESP_CONTROL.IORQ*%
X88000000Y-17080000D03*
%TO.P,J4,4,Pin_4*%
%TO.N,/SPI-Z80-BUS/ESP_CONTROL.MEMRQ*%
X88000000Y-19620000D03*
%TO.P,J4,5,Pin_5*%
%TO.N,/SPI-Z80-BUS/ESP_CONTROL.BUSRQ*%
X88000000Y-22160000D03*
%TO.P,J4,6,Pin_6*%
%TO.N,/SPI-Z80-BUS/ESP_CONTROL.WAIT*%
X88000000Y-24700000D03*
%TO.P,J4,7,Pin_7*%
%TO.N,/SPI-Z80-BUS/ESP_CONTROL.ROMCS*%
X88000000Y-27240000D03*
%TO.P,J4,8,Pin_8*%
%TO.N,/SPI-Z80-BUS/ESP_CONTROL.NMI*%
X88000000Y-29780000D03*
%TD*%
D17*
%TO.N,Net-(CONTROL.SELECT1-1A1)*%
X51042600Y-35385800D03*
%TO.N,/SPI-Z80-BUS/Z80_CONTROL.WR*%
X65856100Y-37538900D03*
%TO.N,GND*%
X73881000Y-41119200D03*
X33437300Y-35261200D03*
X31858300Y-18204300D03*
%TO.N,/SPI-Z80-BUS/LOCAL_CONTROL.MEMRQ*%
X92834000Y-41483000D03*
%TO.N,/SPI-Z80-BUS/LOCAL_CONTROL.IORQ*%
X90883500Y-41468900D03*
%TO.N,/SPI-Z80-BUS/LOCAL_CONTROL.WR*%
X85300200Y-37627000D03*
%TO.N,/SPI-Z80-BUS/LOCAL_CONTROL.RD*%
X85099200Y-39264700D03*
%TO.N,+5V*%
X50689600Y-33489300D03*
%TO.N,/SPI-Z80-BUS/ESP_CONTROL.NMI*%
X91719700Y-38065900D03*
%TO.N,/SPI-Z80-BUS/ESP_CONTROL.WR*%
X40885100Y-35323500D03*
%TO.N,/SPI-Z80-BUS/ESP_SPI_INT.MR*%
X34853900Y-4836500D03*
%TO.N,/SPI-Z80-BUS/ESP_SPI_INT.SCK*%
X145695200Y-33949900D03*
X63914000Y-4307800D03*
X45400700Y-41574700D03*
%TO.N,/SPI-Z80-BUS/ESP_SPI_INT.OE*%
X12831400Y-33594400D03*
%TO.N,/SPI-Z80-BUS/LOCAL_D2*%
X18924400Y-19161800D03*
%TO.N,/SPI-Z80-BUS/LOCAL_A0*%
X100304300Y-17528600D03*
%TO.N,/SPI-Z80-BUS/LOCAL_A13*%
X141354500Y-24368400D03*
%TO.N,/SPI-Z80-BUS/LOCAL_A14*%
X143568100Y-25797100D03*
%TO.N,/SPI-Z80-BUS/LOCAL_A15*%
X147931800Y-22565600D03*
%TO.N,/SPI-Z80-BUS/ESP_SPI_INT.MISO*%
X8800300Y-33220900D03*
X9360600Y-17995700D03*
%TO.N,/SPI-Z80-BUS/ESP_SPI_INT.PL*%
X94460000Y-32967400D03*
%TO.N,/SPI-Z80-BUS/ESP_SPI_INT.CE*%
X22624300Y-34515600D03*
X125167200Y-33170600D03*
X11500000Y-28790600D03*
%TO.N,Net-(LOCAL_A-L.RD1-DS)*%
X93296100Y-28023700D03*
X75949000Y-42154300D03*
%TO.N,Net-(LOCAL_D.RD1-~{Q7})*%
X62226900Y-36393800D03*
%TD*%
D18*
%TO.N,/SPI-Z80-BUS/ESP_CONTROL.BUSRQ*%
X88000000Y-22160000D02*
X86349900Y-22160000D01*
X72713400Y-12013500D02*
X63461500Y-12013500D01*
X63461500Y-12013500D02*
X59840000Y-15635000D01*
X82399900Y-21700000D02*
X72713400Y-12013500D01*
X85889900Y-21700000D02*
X84000000Y-21700000D01*
X86349900Y-22160000D02*
X85889900Y-21700000D01*
X84000000Y-21700000D02*
X82399900Y-21700000D01*
%TO.N,/SPI-Z80-BUS/ESP_CONTROL.RD*%
X59620000Y-24000000D02*
X59620000Y-25600100D01*
X86349900Y-12000000D02*
X85889900Y-11540000D01*
X59620000Y-25600100D02*
X55200200Y-30019900D01*
X55200200Y-30019900D02*
X54540000Y-30019900D01*
X54540000Y-31620000D02*
X54540000Y-30019900D01*
X88000000Y-12000000D02*
X86349900Y-12000000D01*
X85889900Y-11540000D02*
X84000000Y-11540000D01*
%TO.N,Net-(CONTROL.SELECT1-1A1)*%
X64700000Y-25600100D02*
X64039800Y-25600100D01*
X59620000Y-31620000D02*
X55854300Y-35385700D01*
X64039800Y-25600100D02*
X59620000Y-30019900D01*
X64700000Y-24000000D02*
X64700000Y-25600100D01*
X55854300Y-35385700D02*
X51042600Y-35385700D01*
X59620000Y-31620000D02*
X59620000Y-30019900D01*
X51042600Y-35385700D02*
X51042600Y-35385800D01*
%TO.N,/SPI-Z80-BUS/Z80_CONTROL.WR*%
X65856100Y-37538900D02*
X62380000Y-41015000D01*
%TO.N,/SPI-Z80-BUS/ESP_CONTROL.IORQ*%
X65360200Y-30019900D02*
X64700000Y-30019900D01*
X84000000Y-16620000D02*
X85889900Y-16620000D01*
X54760000Y-15635000D02*
X60552100Y-21427100D01*
X88000000Y-17080000D02*
X86349900Y-17080000D01*
X85889900Y-16620000D02*
X86349900Y-17080000D01*
X60552100Y-21427100D02*
X67207100Y-21427100D01*
X67207100Y-21427100D02*
X69780000Y-24000000D01*
X64700000Y-31620000D02*
X64700000Y-30019900D01*
X69780000Y-24492100D02*
X69780000Y-24000000D01*
X69780000Y-25600100D02*
X65360200Y-30019900D01*
X69780000Y-24492100D02*
X69780000Y-25600100D01*
%TO.N,/SPI-Z80-BUS/Z80_CONTROL.IORQ*%
X67240000Y-33263600D02*
X61088700Y-39414900D01*
X59840000Y-41015000D02*
X59840000Y-39414900D01*
X67240000Y-31620000D02*
X67240000Y-33263600D01*
X61088700Y-39414900D02*
X59840000Y-39414900D01*
%TO.N,/SPI-Z80-BUS/ESP_CONTROL.MEMRQ*%
X69780000Y-31620000D02*
X69780000Y-30019900D01*
X70440200Y-30019900D02*
X69780000Y-30019900D01*
X59164300Y-17499300D02*
X57300000Y-15635000D01*
X88000000Y-19620000D02*
X86349900Y-19620000D01*
X85889900Y-19160000D02*
X86349900Y-19620000D01*
X74860000Y-24492100D02*
X74860000Y-24000000D01*
X68359300Y-17499300D02*
X59164300Y-17499300D01*
X74860000Y-24000000D02*
X68359300Y-17499300D01*
X84000000Y-19160000D02*
X85889900Y-19160000D01*
X74860000Y-24492100D02*
X74860000Y-25600100D01*
X74860000Y-25600100D02*
X70440200Y-30019900D01*
%TO.N,/SPI-Z80-BUS/Z80_CONTROL.MEMRQ*%
X72320000Y-31620000D02*
X72320000Y-40964700D01*
X58903900Y-42618900D02*
X57300000Y-41015000D01*
X72320000Y-40964700D02*
X70665800Y-42618900D01*
X70665800Y-42618900D02*
X58903900Y-42618900D01*
%TO.N,GND*%
X28460000Y-22880000D02*
X28460000Y-21279900D01*
X29887200Y-48199900D02*
X29535000Y-48199900D01*
X121128200Y-32450300D02*
X122832000Y-30746500D01*
X122832000Y-29226300D02*
X124713900Y-27344400D01*
X31000000Y-30500000D02*
X31000000Y-32100100D01*
X115600100Y-30000000D02*
X118050400Y-32450300D01*
X29535000Y-49800000D02*
X29535000Y-48199900D01*
X76460100Y-28419800D02*
X76460100Y-23337200D01*
X34615000Y-49800000D02*
X34615000Y-48199900D01*
X74860000Y-31620000D02*
X74860000Y-30019900D01*
X28460000Y-21279900D02*
X28782700Y-21279900D01*
X32075000Y-43780100D02*
X32075000Y-46012100D01*
X33437300Y-34537400D02*
X33437300Y-35261200D01*
X74860000Y-32420000D02*
X74860000Y-33220100D01*
X73881000Y-34199100D02*
X73881000Y-41119200D01*
X32075000Y-46012100D02*
X29887200Y-48199900D01*
X141344400Y-27344400D02*
X144000000Y-30000000D01*
X74860000Y-30019900D02*
X76460100Y-28419800D01*
X34262800Y-48199900D02*
X32075000Y-46012100D01*
X34615000Y-48199900D02*
X34262800Y-48199900D01*
X124713900Y-27344400D02*
X141344400Y-27344400D01*
X70358000Y-17235100D02*
X70000000Y-17235100D01*
X114000000Y-30000000D02*
X115600100Y-30000000D01*
X70000000Y-15635000D02*
X70000000Y-17235100D01*
X31000000Y-32100100D02*
X33437300Y-34537400D01*
X76460100Y-23337200D02*
X70358000Y-17235100D01*
X74860000Y-33220100D02*
X73881000Y-34199100D01*
X118050400Y-32450300D02*
X121128200Y-32450300D01*
X28782700Y-21279900D02*
X31858300Y-18204300D01*
X32075000Y-42180000D02*
X32075000Y-43780100D01*
X74860000Y-32420000D02*
X74860000Y-31620000D01*
X122832000Y-30746500D02*
X122832000Y-29226300D01*
%TO.N,/SPI-Z80-BUS/LOCAL_CONTROL.MEMRQ*%
X127620000Y-50000000D02*
X119535700Y-41915700D01*
X119535700Y-41915700D02*
X93266700Y-41915700D01*
X93266700Y-41915700D02*
X92834000Y-41483000D01*
%TO.N,/SPI-Z80-BUS/LOCAL_CONTROL.IORQ*%
X118244000Y-43164000D02*
X92578600Y-43164000D01*
X125080000Y-50000000D02*
X118244000Y-43164000D01*
X92578600Y-43164000D02*
X90883500Y-41468900D01*
%TO.N,/SPI-Z80-BUS/LOCAL_CONTROL.WR*%
X86214900Y-36712300D02*
X89819800Y-36712300D01*
X89819800Y-36712300D02*
X90828500Y-35703600D01*
X115944000Y-36450700D02*
X129830700Y-36450700D01*
X115196900Y-35703600D02*
X115944000Y-36450700D01*
X85300200Y-37627000D02*
X86214900Y-36712300D01*
X90828500Y-35703600D02*
X115196900Y-35703600D01*
X129830700Y-36450700D02*
X135380000Y-42000000D01*
%TO.N,/SPI-Z80-BUS/LOCAL_CONTROL.RD*%
X85646000Y-39264700D02*
X85099200Y-39264700D01*
X132840000Y-42000000D02*
X128290800Y-37450800D01*
X87198300Y-37712400D02*
X85646000Y-39264700D01*
X128290800Y-37450800D02*
X115529800Y-37450800D01*
X114782700Y-36703700D02*
X91242700Y-36703700D01*
X91242700Y-36703700D02*
X90234000Y-37712400D01*
X115529800Y-37450800D02*
X114782700Y-36703700D01*
X90234000Y-37712400D02*
X87198300Y-37712400D01*
%TO.N,+5V*%
X50399800Y-33199500D02*
X50689600Y-33489300D01*
X48080000Y-8000000D02*
X49880100Y-8000000D01*
X19375000Y-42180000D02*
X17774900Y-42180000D01*
X52000000Y-24000000D02*
X52000000Y-25600100D01*
X52220000Y-8015000D02*
X49895100Y-8015000D01*
X52000000Y-25600100D02*
X50399800Y-27200300D01*
X16940100Y-42180000D02*
X17774900Y-42180000D01*
X94880100Y-7919900D02*
X95420000Y-7380000D01*
X50399800Y-27200300D02*
X50399800Y-33199500D01*
X13220000Y-18602100D02*
X11659800Y-17041900D01*
X94880100Y-8000000D02*
X94880100Y-7919900D01*
X93980100Y-8000000D02*
X93080000Y-8000000D01*
X13220000Y-22880000D02*
X13220000Y-21279900D01*
X11659800Y-17041900D02*
X11659800Y-10580300D01*
X49895100Y-8015000D02*
X49880100Y-8000000D01*
X11659800Y-10580300D02*
X13260000Y-8980100D01*
X13220000Y-21279900D02*
X13220000Y-18602100D01*
X14160000Y-41000000D02*
X15760100Y-41000000D01*
X13260000Y-7380000D02*
X13260000Y-8980100D01*
X15760100Y-41000000D02*
X16940100Y-42180000D01*
X96220000Y-7380000D02*
X95420000Y-7380000D01*
X93980100Y-8000000D02*
X94880100Y-8000000D01*
%TO.N,Net-(D1-K)*%
X84000000Y-9000000D02*
X85600100Y-9000000D01*
X88000000Y-8000000D02*
X86199900Y-8000000D01*
X86199900Y-8400200D02*
X86199900Y-8000000D01*
X85600100Y-9000000D02*
X86199900Y-8400200D01*
%TO.N,Net-(D2-K)*%
X39000000Y-9000000D02*
X40600100Y-9000000D01*
X40600100Y-8599800D02*
X41199900Y-8000000D01*
X43000000Y-8000000D02*
X41199900Y-8000000D01*
X40600100Y-9000000D02*
X40600100Y-8599800D01*
%TO.N,/SPI-Z80-BUS/Z80_CONTROL.BUSRQ*%
X95199900Y-45080000D02*
X94454000Y-45825900D01*
X94454000Y-45825900D02*
X60109100Y-45825900D01*
X97000000Y-45080000D02*
X95199900Y-45080000D01*
X60109100Y-45825900D02*
X57300000Y-48635000D01*
%TO.N,/SPI-Z80-BUS/Z80_CONTROL.WAIT*%
X99049800Y-48349800D02*
X76689800Y-48349800D01*
X76689800Y-48349800D02*
X74798900Y-50240700D01*
X74798900Y-50240700D02*
X61445700Y-50240700D01*
X100700000Y-50000000D02*
X99049800Y-48349800D01*
X61445700Y-50240700D02*
X59840000Y-48635000D01*
%TO.N,/SPI-Z80-BUS/ESP_CONTROL.ROMCS*%
X85600100Y-26780000D02*
X86060100Y-27240000D01*
X86060100Y-27240000D02*
X88000000Y-27240000D01*
X67541400Y-13013600D02*
X71144800Y-13013600D01*
X64920000Y-15635000D02*
X67541400Y-13013600D01*
X84000000Y-26780000D02*
X85600100Y-26780000D01*
X82009800Y-23878600D02*
X82009800Y-24789800D01*
X82009800Y-24789800D02*
X84000000Y-26780000D01*
X71144800Y-13013600D02*
X82009800Y-23878600D01*
%TO.N,/SPI-Z80-BUS/ESP_CONTROL.NMI*%
X84000000Y-29320000D02*
X75638100Y-20958100D01*
X106358400Y-38065900D02*
X107199900Y-38907400D01*
X70655700Y-14027600D02*
X69067400Y-14027600D01*
X85889900Y-29320000D02*
X84000000Y-29320000D01*
X75638100Y-20958100D02*
X75638100Y-19010000D01*
X88000000Y-29780000D02*
X86349900Y-29780000D01*
X91719700Y-38065900D02*
X106358400Y-38065900D01*
X69067400Y-14027600D02*
X67460000Y-15635000D01*
X107199900Y-38907400D02*
X107199900Y-39920000D01*
X75638100Y-19010000D02*
X70655700Y-14027600D01*
X109000000Y-39920000D02*
X107199900Y-39920000D01*
X86349900Y-29780000D02*
X85889900Y-29320000D01*
%TO.N,/SPI-Z80-BUS/ESP_CONTROL.WR*%
X52220000Y-11003000D02*
X52220000Y-14034900D01*
X44421300Y-6199800D02*
X38911000Y-6199800D01*
X88000000Y-14540000D02*
X86349900Y-14540000D01*
X45186300Y-7729900D02*
X45186300Y-6964800D01*
X52220000Y-15635000D02*
X52220000Y-14034900D01*
X40885100Y-35323500D02*
X47814200Y-28394400D01*
X47814200Y-21640900D02*
X52220000Y-17235100D01*
X48459400Y-11003000D02*
X45186300Y-7729900D01*
X36083100Y-9027700D02*
X22527700Y-9027700D01*
X79322900Y-11003000D02*
X52220000Y-11003000D01*
X45186300Y-6964800D02*
X44421300Y-6199800D01*
X85889900Y-14080000D02*
X84000000Y-14080000D01*
X82399900Y-14080000D02*
X79322900Y-11003000D01*
X47814200Y-28394400D02*
X47814200Y-21640900D01*
X52220000Y-15635000D02*
X52220000Y-17235100D01*
X84000000Y-14080000D02*
X82399900Y-14080000D01*
X38911000Y-6199800D02*
X36083100Y-9027700D01*
X22527700Y-9027700D02*
X20880000Y-7380000D01*
X86349900Y-14540000D02*
X85889900Y-14080000D01*
X52220000Y-11003000D02*
X48459400Y-11003000D01*
%TO.N,/SPI-Z80-BUS/ESP_SPI_INT.MR*%
X28500000Y-7380000D02*
X31043500Y-4836500D01*
X31043500Y-4836500D02*
X34853900Y-4836500D01*
%TO.N,/SPI-Z80-BUS/ESP_SPI_INT.SCK*%
X110307500Y-4392400D02*
X137912500Y-4392400D01*
X12556700Y-5779900D02*
X10609300Y-7727300D01*
X138920000Y-7000000D02*
X138920000Y-5399900D01*
X108920000Y-5779900D02*
X106909800Y-3769700D01*
X106909800Y-3769700D02*
X64452100Y-3769700D01*
X148177100Y-33949900D02*
X145695200Y-33949900D01*
X28208900Y-3531000D02*
X25960000Y-5779900D01*
X137912500Y-4392400D02*
X138920000Y-5399900D01*
X39556700Y-41574700D02*
X45400700Y-41574700D01*
X10455200Y-19295800D02*
X10455200Y-23535200D01*
X117186600Y-33450400D02*
X121542400Y-33450400D01*
X23821600Y-38561600D02*
X36543600Y-38561600D01*
X25960000Y-7380000D02*
X25960000Y-5779900D01*
X10609300Y-17405700D02*
X10660700Y-17457100D01*
X10660700Y-17457100D02*
X10660700Y-19090300D01*
X98760000Y-30000000D02*
X101237800Y-32477800D01*
X116214000Y-32477800D02*
X117186600Y-33450400D01*
X10660700Y-19090300D02*
X10455200Y-19295800D01*
X10609300Y-7727300D02*
X10609300Y-17405700D01*
X63914000Y-4307800D02*
X63137200Y-3531000D01*
X4000000Y-17080000D02*
X5650100Y-17080000D01*
X128760000Y-30000000D02*
X128760000Y-28399900D01*
X108920000Y-5779900D02*
X110307500Y-4392400D01*
X146261300Y-5399900D02*
X151655800Y-10794400D01*
X151655800Y-10794400D02*
X151655800Y-30471200D01*
X108920000Y-7380000D02*
X108920000Y-5779900D01*
X7865900Y-19295800D02*
X10455200Y-19295800D01*
X10455200Y-23535200D02*
X15760000Y-28840000D01*
X36543600Y-38561600D02*
X39556700Y-41574700D01*
X124204700Y-29274300D02*
X125079100Y-28399900D01*
X121542400Y-33450400D02*
X124204700Y-30788100D01*
X15760000Y-30500000D02*
X23821600Y-38561600D01*
X15760000Y-28840000D02*
X15760000Y-30500000D01*
X151655800Y-30471200D02*
X148177100Y-33949900D01*
X125079100Y-28399900D02*
X128760000Y-28399900D01*
X138920000Y-5399900D02*
X146261300Y-5399900D01*
X101237800Y-32477800D02*
X116214000Y-32477800D01*
X124204700Y-30788100D02*
X124204700Y-29274300D01*
X5650100Y-17080000D02*
X7865900Y-19295800D01*
X63137200Y-3531000D02*
X28208900Y-3531000D01*
X25960000Y-5779900D02*
X12556700Y-5779900D01*
X64452100Y-3769700D02*
X63914000Y-4307800D01*
%TO.N,/SPI-Z80-BUS/ESP_SPI_INT.STC*%
X103769800Y-4769800D02*
X65625200Y-4769800D01*
X65625200Y-4769800D02*
X62380000Y-8015000D01*
X106380000Y-7380000D02*
X103769800Y-4769800D01*
%TO.N,/SPI-Z80-BUS/ESP_SPI_INT.OE*%
X6477000Y-27240000D02*
X5650100Y-27240000D01*
X75960300Y-9630100D02*
X79815500Y-5774900D01*
X102234900Y-5774900D02*
X103840000Y-7380000D01*
X59840000Y-8015000D02*
X61455100Y-9630100D01*
X12831400Y-33594400D02*
X6477000Y-27240000D01*
X79815500Y-5774900D02*
X102234900Y-5774900D01*
X61455100Y-9630100D02*
X75960300Y-9630100D01*
X4000000Y-27240000D02*
X5650100Y-27240000D01*
%TO.N,Net-(ESP_CONTROL.WR1-SER)*%
X32640100Y-7380000D02*
X34149100Y-7380000D01*
X54437100Y-5152100D02*
X57300000Y-8015000D01*
X31040000Y-7380000D02*
X32640100Y-7380000D01*
X34149100Y-7380000D02*
X36377000Y-5152100D01*
X36377000Y-5152100D02*
X54437100Y-5152100D01*
%TO.N,/SPI-Z80-BUS/ESP_PULSE*%
X8239300Y-51699300D02*
X6540000Y-50000000D01*
X17774900Y-49800000D02*
X15875600Y-51699300D01*
X15875600Y-51699300D02*
X8239300Y-51699300D01*
X19375000Y-49800000D02*
X17774900Y-49800000D01*
%TO.N,/SPI-Z80-BUS/LOCAL_D0*%
X18800300Y-10380300D02*
X15800000Y-7380000D01*
X36240200Y-10380300D02*
X18800300Y-10380300D01*
X39000000Y-11540000D02*
X37399900Y-11540000D01*
X37399900Y-11540000D02*
X36240200Y-10380300D01*
%TO.N,/SPI-Z80-BUS/LOCAL_D1*%
X17416100Y-20756200D02*
X21256200Y-20756200D01*
X40889900Y-14080000D02*
X39000000Y-14080000D01*
X13260000Y-16600100D02*
X17416100Y-20756200D01*
X21256200Y-20756200D02*
X23380000Y-22880000D01*
X16875800Y-11384200D02*
X13260000Y-15000000D01*
X13260000Y-15000000D02*
X13260000Y-16600100D01*
X37399900Y-14080000D02*
X34704100Y-11384200D01*
X43000000Y-14540000D02*
X41349900Y-14540000D01*
X41349900Y-14540000D02*
X40889900Y-14080000D01*
X39000000Y-14080000D02*
X37399900Y-14080000D01*
X34704100Y-11384200D02*
X16875800Y-11384200D01*
%TO.N,/SPI-Z80-BUS/LOCAL_D2*%
X39000000Y-16620000D02*
X37399900Y-16620000D01*
X33168000Y-12388100D02*
X18411900Y-12388100D01*
X18411900Y-12388100D02*
X15800000Y-15000000D01*
X15800000Y-16600100D02*
X16362700Y-16600100D01*
X37399900Y-16620000D02*
X33168000Y-12388100D01*
X40889900Y-16620000D02*
X39000000Y-16620000D01*
X15800000Y-15000000D02*
X15800000Y-16600100D01*
X16362700Y-16600100D02*
X18924400Y-19161800D01*
X41349900Y-17080000D02*
X40889900Y-16620000D01*
X43000000Y-17080000D02*
X41349900Y-17080000D01*
%TO.N,/SPI-Z80-BUS/LOCAL_D3*%
X43000000Y-19620000D02*
X41349900Y-19620000D01*
X39000000Y-19160000D02*
X37399900Y-19160000D01*
X37399900Y-19160000D02*
X37399900Y-19023200D01*
X40889900Y-19160000D02*
X39000000Y-19160000D01*
X19946000Y-13394000D02*
X18340000Y-15000000D01*
X37399900Y-19023200D02*
X31770700Y-13394000D01*
X41349900Y-19620000D02*
X40889900Y-19160000D01*
X31770700Y-13394000D02*
X19946000Y-13394000D01*
%TO.N,/SPI-Z80-BUS/LOCAL_D4*%
X39000000Y-21700000D02*
X37194200Y-21700000D01*
X37194200Y-21700000D02*
X35826300Y-20332000D01*
X24178400Y-24621600D02*
X31536700Y-24621600D01*
X18300000Y-30500000D02*
X24178400Y-24621600D01*
X41349900Y-22160000D02*
X40889900Y-21700000D01*
X40889900Y-21700000D02*
X39000000Y-21700000D01*
X43000000Y-22160000D02*
X41349900Y-22160000D01*
X35826300Y-20332000D02*
X32349600Y-16855400D01*
X32349600Y-16855400D02*
X22735400Y-16855400D01*
X31536700Y-24621600D02*
X35826300Y-20332000D01*
X22735400Y-16855400D02*
X20880000Y-15000000D01*
%TO.N,/SPI-Z80-BUS/LOCAL_D5*%
X40889900Y-24240000D02*
X39000000Y-24240000D01*
X37399900Y-24240000D02*
X35799800Y-25840100D01*
X25499900Y-25840100D02*
X20840000Y-30500000D01*
X35799800Y-25840100D02*
X25499900Y-25840100D01*
X39000000Y-24240000D02*
X37399900Y-24240000D01*
X43000000Y-24700000D02*
X41349900Y-24700000D01*
X41349900Y-24700000D02*
X40889900Y-24240000D01*
%TO.N,/SPI-Z80-BUS/LOCAL_D6*%
X27039700Y-26840300D02*
X23380000Y-30500000D01*
X43000000Y-27240000D02*
X41349900Y-27240000D01*
X39000000Y-26780000D02*
X37399900Y-26780000D01*
X37339600Y-26840300D02*
X27039700Y-26840300D01*
X41349900Y-27240000D02*
X40889900Y-26780000D01*
X37399900Y-26780000D02*
X37339600Y-26840300D01*
X40889900Y-26780000D02*
X39000000Y-26780000D01*
%TO.N,/SPI-Z80-BUS/LOCAL_D7*%
X37399900Y-29320000D02*
X36963700Y-28883800D01*
X39000000Y-29320000D02*
X37399900Y-29320000D01*
X27536200Y-28883800D02*
X25920000Y-30500000D01*
X40889900Y-29320000D02*
X39000000Y-29320000D01*
X36963700Y-28883800D02*
X27536200Y-28883800D01*
X43000000Y-29780000D02*
X41349900Y-29780000D01*
X41349900Y-29780000D02*
X40889900Y-29320000D01*
%TO.N,/SPI-Z80-BUS/LOCAL_A0*%
X95975400Y-17528600D02*
X100304300Y-17528600D01*
X98760000Y-8980100D02*
X94612600Y-13127500D01*
X94612600Y-13127500D02*
X94612600Y-16165800D01*
X94612600Y-16165800D02*
X95975400Y-17528600D01*
X120000000Y-12000000D02*
X116980100Y-8980100D01*
X116980100Y-8980100D02*
X98760000Y-8980100D01*
X98760000Y-7380000D02*
X98760000Y-8980100D01*
%TO.N,/SPI-Z80-BUS/LOCAL_A1*%
X99843100Y-11376900D02*
X96220000Y-15000000D01*
X116520300Y-11376900D02*
X99843100Y-11376900D01*
X120000000Y-14540000D02*
X119683400Y-14540000D01*
X119683400Y-14540000D02*
X116520300Y-11376900D01*
%TO.N,/SPI-Z80-BUS/LOCAL_A2*%
X115299300Y-12379300D02*
X101380700Y-12379300D01*
X120000000Y-17080000D02*
X115299300Y-12379300D01*
X101380700Y-12379300D02*
X98760000Y-15000000D01*
%TO.N,/SPI-Z80-BUS/LOCAL_A3*%
X102910400Y-13389600D02*
X101300000Y-15000000D01*
X101300000Y-22380000D02*
X101300000Y-20779900D01*
X114754400Y-13389600D02*
X102910400Y-13389600D01*
X118106600Y-16741800D02*
X114754400Y-13389600D01*
X101300000Y-16600100D02*
X101626800Y-16926900D01*
X101300000Y-15000000D02*
X101300000Y-16600100D01*
X101626800Y-20453100D02*
X101300000Y-20779900D01*
X120000000Y-19620000D02*
X118106600Y-17726600D01*
X101626800Y-16926900D02*
X101626800Y-20453100D01*
X118106600Y-17726600D02*
X118106600Y-16741800D01*
%TO.N,/SPI-Z80-BUS/LOCAL_A4*%
X114474100Y-24239700D02*
X107060300Y-24239700D01*
X109349900Y-20509900D02*
X103840000Y-15000000D01*
X118099100Y-22410800D02*
X118349900Y-22160000D01*
X114402100Y-20509900D02*
X109349900Y-20509900D01*
X116303000Y-22410800D02*
X114402100Y-20509900D01*
X116303000Y-22410800D02*
X118099100Y-22410800D01*
X107060300Y-24239700D02*
X101300000Y-30000000D01*
X120000000Y-22160000D02*
X118349900Y-22160000D01*
X116303000Y-22410800D02*
X114474100Y-24239700D01*
%TO.N,/SPI-Z80-BUS/LOCAL_A5*%
X117716100Y-25333800D02*
X108506200Y-25333800D01*
X118349900Y-24700000D02*
X117716100Y-25333800D01*
X120000000Y-24700000D02*
X118349900Y-24700000D01*
X108506200Y-25333800D02*
X103840000Y-30000000D01*
%TO.N,/SPI-Z80-BUS/LOCAL_A6*%
X110015100Y-26364900D02*
X106380000Y-30000000D01*
X117474800Y-26364900D02*
X110015100Y-26364900D01*
X120000000Y-27240000D02*
X118349900Y-27240000D01*
X118349900Y-27240000D02*
X117474800Y-26364900D01*
%TO.N,/SPI-Z80-BUS/LOCAL_A7*%
X115934900Y-27365000D02*
X111555000Y-27365000D01*
X118349900Y-29780000D02*
X115934900Y-27365000D01*
X120000000Y-29780000D02*
X118349900Y-29780000D01*
X111555000Y-27365000D02*
X108920000Y-30000000D01*
%TO.N,/SPI-Z80-BUS/LOCAL_A8*%
X146159800Y-9809900D02*
X128760000Y-9809900D01*
X123584500Y-14466200D02*
X128240800Y-9809900D01*
X138920000Y-22380000D02*
X136319400Y-24980600D01*
X148349900Y-12000000D02*
X146159800Y-9809900D01*
X125073800Y-24980600D02*
X123584500Y-23491300D01*
X123584500Y-23491300D02*
X123584500Y-14466200D01*
X128240800Y-9809900D02*
X128760000Y-9809900D01*
X128760000Y-9809900D02*
X128760000Y-8600100D01*
X150000000Y-12000000D02*
X148349900Y-12000000D01*
X136319400Y-24980600D02*
X125073800Y-24980600D01*
X128760000Y-7000000D02*
X128760000Y-8600100D01*
%TO.N,/SPI-Z80-BUS/LOCAL_A9*%
X134779800Y-23980200D02*
X136380000Y-22380000D01*
X124598400Y-17841700D02*
X124598400Y-23021800D01*
X124598400Y-23021800D02*
X125556800Y-23980200D01*
X125556800Y-23980200D02*
X134779800Y-23980200D01*
X126220000Y-16220100D02*
X124598400Y-17841700D01*
X126220000Y-14620000D02*
X126220000Y-16220100D01*
%TO.N,/SPI-Z80-BUS/LOCAL_A10*%
X128760000Y-14620000D02*
X128760000Y-16220100D01*
X133840000Y-22380000D02*
X133840000Y-20779900D01*
X145040000Y-11980900D02*
X131399100Y-11980900D01*
X131399100Y-11980900D02*
X128760000Y-14620000D01*
X150000000Y-17080000D02*
X150000000Y-16940900D01*
X129280200Y-16220100D02*
X128760000Y-16220100D01*
X150000000Y-16940900D02*
X145040000Y-11980900D01*
X133840000Y-20779900D02*
X129280200Y-16220100D01*
%TO.N,/SPI-Z80-BUS/LOCAL_A12*%
X150000000Y-22160000D02*
X146475900Y-18635900D01*
X135440100Y-13019900D02*
X133840000Y-14620000D01*
X146475900Y-18635900D02*
X146475900Y-14831300D01*
X144664500Y-13019900D02*
X135440100Y-13019900D01*
X146475900Y-14831300D02*
X144664500Y-13019900D01*
%TO.N,/SPI-Z80-BUS/LOCAL_A13*%
X145604400Y-23980000D02*
X145216000Y-24368400D01*
X145604400Y-21711700D02*
X145604400Y-23980000D01*
X140533500Y-16640800D02*
X145604400Y-21711700D01*
X138400800Y-16640800D02*
X140533500Y-16640800D01*
X136380000Y-14620000D02*
X138400800Y-16640800D01*
X145604400Y-23980000D02*
X146324400Y-24700000D01*
X146324400Y-24700000D02*
X149587500Y-24700000D01*
X145216000Y-24368400D02*
X141354500Y-24368400D01*
X150000000Y-24700000D02*
X149587500Y-24700000D01*
%TO.N,/SPI-Z80-BUS/LOCAL_A14*%
X150000000Y-27240000D02*
X148349900Y-27240000D01*
X146907000Y-25797100D02*
X148349900Y-27240000D01*
X143568100Y-25797100D02*
X146907000Y-25797100D01*
%TO.N,/SPI-Z80-BUS/LOCAL_A15*%
X147931800Y-22565600D02*
X141460000Y-16093800D01*
X141460000Y-16093800D02*
X141460000Y-14620000D01*
%TO.N,/SPI-Z80-BUS/Z80_CONTROL.BUSACK*%
X63980200Y-47034800D02*
X62380000Y-48635000D01*
X105780000Y-50000000D02*
X102814800Y-47034800D01*
X102814800Y-47034800D02*
X63980200Y-47034800D01*
%TO.N,/SPI-Z80-BUS/ESP_SPI_INT.MISO*%
X16876700Y-40561800D02*
X9535800Y-33220900D01*
X35282300Y-40561800D02*
X16876700Y-40561800D01*
X141460000Y-30000000D02*
X141460000Y-31600100D01*
X142400200Y-44496500D02*
X135202400Y-51694300D01*
X144600200Y-34740300D02*
X144600200Y-43138800D01*
X5904900Y-14540000D02*
X9360600Y-17995700D01*
X141460000Y-31600100D02*
X144600200Y-34740300D01*
X9535800Y-33220900D02*
X8800300Y-33220900D01*
X135202400Y-51694300D02*
X46414800Y-51694300D01*
X46414800Y-51694300D02*
X35282300Y-40561800D01*
X4000000Y-14540000D02*
X5904900Y-14540000D01*
X144600200Y-43138800D02*
X143242500Y-44496500D01*
X143242500Y-44496500D02*
X142400200Y-44496500D01*
%TO.N,/SPI-Z80-BUS/ESP_SPI_INT.PL*%
X78249200Y-42828900D02*
X85365900Y-35712200D01*
X50619900Y-48635000D02*
X45202700Y-48635000D01*
X78249200Y-43107100D02*
X78249200Y-42828900D01*
X52220000Y-48635000D02*
X56232100Y-44622900D01*
X92150300Y-32967400D02*
X94460000Y-32967400D01*
X96220000Y-30000000D02*
X99697900Y-33477900D01*
X20681600Y-39561700D02*
X13220000Y-32100100D01*
X124807000Y-31600100D02*
X126220000Y-31600100D01*
X5650100Y-22160000D02*
X6720800Y-22160000D01*
X116772400Y-34450500D02*
X121956600Y-34450500D01*
X89405500Y-35712200D02*
X92150300Y-32967400D01*
X36129400Y-39561700D02*
X20681600Y-39561700D01*
X99697900Y-33477900D02*
X115799800Y-33477900D01*
X13220000Y-30099900D02*
X13220000Y-28899900D01*
X115799800Y-33477900D02*
X116772400Y-34450500D01*
X56232100Y-44622900D02*
X76733400Y-44622900D01*
X76733400Y-44622900D02*
X78249200Y-43107100D01*
X126220000Y-30000000D02*
X126220000Y-31600100D01*
X13220000Y-30099900D02*
X13220000Y-30500000D01*
X4000000Y-22160000D02*
X5650100Y-22160000D01*
X52220000Y-48635000D02*
X50619900Y-48635000D01*
X85365900Y-35712200D02*
X89405500Y-35712200D01*
X45202700Y-48635000D02*
X36129400Y-39561700D01*
X6720800Y-22160000D02*
X13220000Y-28659200D01*
X13220000Y-30500000D02*
X13220000Y-32100100D01*
X121956600Y-34450500D02*
X124807000Y-31600100D01*
X13220000Y-28659200D02*
X13220000Y-28899900D01*
%TO.N,/SPI-Z80-BUS/ESP_SPI_INT.CE*%
X98760000Y-24398500D02*
X98760000Y-23980100D01*
X115385600Y-34478000D02*
X116358200Y-35450600D01*
X84906600Y-34712100D02*
X88284400Y-34712100D01*
X11500000Y-28790600D02*
X9740700Y-28790600D01*
X97809300Y-34478000D02*
X115385600Y-34478000D01*
X9740700Y-28790600D02*
X5650100Y-24700000D01*
X57367800Y-43622800D02*
X76319200Y-43622800D01*
X77249100Y-42692900D02*
X77249100Y-42369600D01*
X54760000Y-41015000D02*
X57367800Y-43622800D01*
X94570300Y-31667300D02*
X94998600Y-31667300D01*
X94998600Y-31667300D02*
X97809300Y-34478000D01*
X22624300Y-34515600D02*
X25670200Y-37561500D01*
X122887200Y-35450600D02*
X125167200Y-33170600D01*
X52078900Y-38333900D02*
X54760000Y-41015000D01*
X77249100Y-42369600D02*
X84906600Y-34712100D01*
X98760000Y-22380000D02*
X98760000Y-23980100D01*
X116358200Y-35450600D02*
X122887200Y-35450600D01*
X37730200Y-38333900D02*
X52078900Y-38333900D01*
X76319200Y-43622800D02*
X77249100Y-42692900D01*
X25670200Y-37561500D02*
X36957800Y-37561500D01*
X36957800Y-37561500D02*
X37730200Y-38333900D01*
X91329200Y-31667300D02*
X94570300Y-31667300D01*
X94570300Y-28588200D02*
X98760000Y-24398500D01*
X94570300Y-31667300D02*
X94570300Y-28588200D01*
X88284400Y-34712100D02*
X91329200Y-31667300D01*
X4000000Y-24700000D02*
X5650100Y-24700000D01*
%TO.N,Net-(LOCAL_A-H.RD1-DS)*%
X120714000Y-31450200D02*
X121650200Y-30514000D01*
X124438000Y-26162500D02*
X137677500Y-26162500D01*
X111460000Y-30000000D02*
X113062200Y-28397800D01*
X113062200Y-28397800D02*
X115462500Y-28397800D01*
X118514900Y-31450200D02*
X120714000Y-31450200D01*
X121650200Y-28950300D02*
X124438000Y-26162500D01*
X137677500Y-26162500D02*
X141460000Y-22380000D01*
X121650200Y-30514000D02*
X121650200Y-28950300D01*
X115462500Y-28397800D02*
X118514900Y-31450200D01*
%TO.N,Net-(LOCAL_A-L.RD1-DS)*%
X88107800Y-33212000D02*
X93296100Y-28023700D01*
X75949000Y-42154300D02*
X84891300Y-33212000D01*
X84891300Y-33212000D02*
X88107800Y-33212000D01*
%TO.N,Net-(LOCAL_ADDR-H.WR1-SER)*%
X115600100Y-7380000D02*
X117583900Y-5396200D01*
X117583900Y-5396200D02*
X129696200Y-5396200D01*
X114000000Y-7380000D02*
X115600100Y-7380000D01*
X129696200Y-5396200D02*
X131300000Y-7000000D01*
%TO.N,Net-(LOCAL_D.RD1-~{Q7})*%
X28460000Y-32223000D02*
X32798400Y-36561400D01*
X32798400Y-36561400D02*
X37372000Y-36561400D01*
X28460000Y-30500000D02*
X28460000Y-32100100D01*
X61934800Y-36685900D02*
X62226900Y-36393800D01*
X28460000Y-32100100D02*
X28460000Y-32223000D01*
X37372000Y-36561400D02*
X37496500Y-36685900D01*
X37496500Y-36685900D02*
X61934800Y-36685900D01*
%TD*%
M02*
