<?xml version="1.0" standalone="no"?>
<!DOCTYPE svg PUBLIC "-//W3C//DTD SVG 1.1//EN"
"http://www.w3.org/Graphics/SVG/1.1/DTD/svg11.dtd">
<svg width="601.134" height="223.181" viewBox="0 0 12523.6 4649.61" version="1.1"
xmlns="http://www.w3.org/2000/svg"
xmlns:xlink="http://www.w3.org/1999/xlink">
<g fill-rule="evenodd"><path d="M -3.12639e-13,4649.61 L -3.12639e-13,-3.12639e-13 L 12523.6,-3.12639e-13 L 12523.6,4649.61 L -3.12639e-13,4649.61 z " style="fill-opacity:0.200000;fill:rgb(103,198,105);"/></g>
<polyline points="76.7728,4490.16 78.3608,4506.28 83.0668,4521.79 90.7068,4536.09 100.989,4548.62 113.517,4558.9 127.811,4566.54 143.321,4571.24 159.449,4572.83 12364.2,4572.83 12380.3,4571.24 12395.8,4566.54 12410.1,4558.9 12422.6,4548.62 12432.9,4536.09 12440.6,4521.79 12445.3,4506.28 12446.8,4490.16 12446.8,159.449 12445.3,143.321 12440.6,127.811 12432.9,113.517 12422.6,100.989 12410.1,90.7068 12395.8,83.0668 12380.3,78.3608 12364.2,76.7728 159.449,76.7728 143.321,78.3608 127.811,83.0668 113.517,90.7068 100.989,100.989 90.7068,113.517 83.0668,127.811 78.3608,143.321 76.7728,159.449 76.7728,4490.16" style="stroke:rgb(103,198,105);stroke-width:157.480315;fill:none;stroke-opacity:0.5;stroke-linecap:round;stroke-linejoin:round;;fill:none"/>
<polyline points="76.7728,4490.16 78.3608,4506.28 83.0668,4521.79 90.7068,4536.09 100.989,4548.62 113.517,4558.9 127.811,4566.54 143.321,4571.24 159.449,4572.83 12364.2,4572.83 12380.3,4571.24 12395.8,4566.54 12410.1,4558.9 12422.6,4548.62 12432.9,4536.09 12440.6,4521.79 12445.3,4506.28 12446.8,4490.16 12446.8,159.449 12445.3,143.321 12440.6,127.811 12432.9,113.517 12422.6,100.989 12410.1,90.7068 12395.8,83.0668 12380.3,78.3608 12364.2,76.7728 159.449,76.7728 143.321,78.3608 127.811,83.0668 113.517,90.7068 100.989,100.989 90.7068,113.517 83.0668,127.811 78.3608,143.321 76.7728,159.449 76.7728,4490.16" style="stroke:rgb(0,0,0);stroke-width:1px;fill:none;stroke-opacity:1;stroke-linecap:round;stroke-linejoin:round;;fill:none"/>
<g fill-rule="evenodd"><path d="M 159.449,4490.16 L 159.449,159.449 L 12364.2,159.449 L 12364.2,4490.16 L 159.449,4490.16 z " style="fill-opacity:1.000000;fill:rgb(103,198,105);stroke:rgb(0,0,0);stroke-width:2"/></g>
</svg>
