%TF.GenerationSoftware,KiCad,Pcbnew,7.0.2*%
%TF.CreationDate,2023-06-27T23:28:24+01:00*%
%TF.ProjectId,IOCACHE-128K_ZXspectrum_impl_narrow,494f4341-4348-4452-9d31-32384b5f5a58,rev?*%
%TF.SameCoordinates,PX4c4b400PY53ec600*%
%TF.FileFunction,Copper,L1,Top*%
%TF.FilePolarity,Positive*%
%FSLAX46Y46*%
G04 Gerber Fmt 4.6, Leading zero omitted, Abs format (unit mm)*
G04 Created by KiCad (PCBNEW 7.0.2) date 2023-06-27 23:28:24*
%MOMM*%
%LPD*%
G01*
G04 APERTURE LIST*
%TA.AperFunction,ComponentPad*%
%ADD10R,1.700000X1.700000*%
%TD*%
%TA.AperFunction,ComponentPad*%
%ADD11O,1.700000X1.700000*%
%TD*%
%TA.AperFunction,ComponentPad*%
%ADD12R,1.600000X1.600000*%
%TD*%
%TA.AperFunction,ComponentPad*%
%ADD13O,1.600000X1.600000*%
%TD*%
%TA.AperFunction,ComponentPad*%
%ADD14C,1.600000*%
%TD*%
%TA.AperFunction,ViaPad*%
%ADD15C,1.000000*%
%TD*%
%TA.AperFunction,Conductor*%
%ADD16C,0.400000*%
%TD*%
G04 APERTURE END LIST*
D10*
%TO.P,CACHE2,1,Pin_1*%
%TO.N,/IOCACHE-128K_ZXspectrum/LOCAL_D0*%
X30000000Y-41000000D03*
D11*
%TO.P,CACHE2,2,Pin_2*%
%TO.N,/IOCACHE-128K_ZXspectrum/LOCAL_D1*%
X32540000Y-41000000D03*
%TO.P,CACHE2,3,Pin_3*%
%TO.N,/IOCACHE-128K_ZXspectrum/LOCAL_D2*%
X35080000Y-41000000D03*
%TO.P,CACHE2,4,Pin_4*%
%TO.N,/IOCACHE-128K_ZXspectrum/LOCAL_D3*%
X37620000Y-41000000D03*
%TO.P,CACHE2,5,Pin_5*%
%TO.N,/IOCACHE-128K_ZXspectrum/LOCAL_D4*%
X40160000Y-41000000D03*
%TO.P,CACHE2,6,Pin_6*%
%TO.N,/IOCACHE-128K_ZXspectrum/LOCAL_D5*%
X42700000Y-41000000D03*
%TO.P,CACHE2,7,Pin_7*%
%TO.N,/IOCACHE-128K_ZXspectrum/LOCAL_D6*%
X45240000Y-41000000D03*
%TO.P,CACHE2,8,Pin_8*%
%TO.N,/IOCACHE-128K_ZXspectrum/LOCAL_D7*%
X47780000Y-41000000D03*
%TO.P,CACHE2,9,Pin_9*%
%TO.N,/IOCACHE-128K_ZXspectrum/LOCAL_A0*%
X50320000Y-41000000D03*
%TO.P,CACHE2,10,Pin_10*%
%TO.N,/IOCACHE-128K_ZXspectrum/LOCAL_A1*%
X52860000Y-41000000D03*
%TO.P,CACHE2,11,Pin_11*%
%TO.N,/IOCACHE-128K_ZXspectrum/LOCAL_A2*%
X55400000Y-41000000D03*
%TO.P,CACHE2,12,Pin_12*%
%TO.N,/IOCACHE-128K_ZXspectrum/LOCAL_A3*%
X57940000Y-41000000D03*
%TO.P,CACHE2,13,Pin_13*%
%TO.N,/IOCACHE-128K_ZXspectrum/LOCAL_A4*%
X60480000Y-41000000D03*
%TO.P,CACHE2,14,Pin_14*%
%TO.N,/IOCACHE-128K_ZXspectrum/LOCAL_A5*%
X63020000Y-41000000D03*
%TO.P,CACHE2,15,Pin_15*%
%TO.N,/IOCACHE-128K_ZXspectrum/LOCAL_A6*%
X65560000Y-41000000D03*
%TO.P,CACHE2,16,Pin_16*%
%TO.N,/IOCACHE-128K_ZXspectrum/LOCAL_A7*%
X68100000Y-41000000D03*
%TO.P,CACHE2,17,Pin_17*%
%TO.N,/IOCACHE-128K_ZXspectrum/LOCAL_A8*%
X70640000Y-41000000D03*
%TO.P,CACHE2,18,Pin_18*%
%TO.N,/IOCACHE-128K_ZXspectrum/LOCAL_A9*%
X73180000Y-41000000D03*
%TO.P,CACHE2,19,Pin_19*%
%TO.N,/IOCACHE-128K_ZXspectrum/LOCAL_A10*%
X75720000Y-41000000D03*
%TO.P,CACHE2,20,Pin_20*%
%TO.N,/IOCACHE-128K_ZXspectrum/LOCAL_A11*%
X78260000Y-41000000D03*
%TO.P,CACHE2,21,Pin_21*%
%TO.N,/IOCACHE-128K_ZXspectrum/LOCAL_A12*%
X80800000Y-41000000D03*
%TO.P,CACHE2,22,Pin_22*%
%TO.N,/IOCACHE-128K_ZXspectrum/LOCAL_A13*%
X83340000Y-41000000D03*
%TO.P,CACHE2,23,Pin_23*%
%TO.N,/IOCACHE-128K_ZXspectrum/LOCAL_A14*%
X85880000Y-41000000D03*
%TO.P,CACHE2,24,Pin_24*%
%TO.N,/IOCACHE-128K_ZXspectrum/LOCAL_A15*%
X88420000Y-41000000D03*
%TD*%
D12*
%TO.P,IC1,1,Q1*%
%TO.N,/IOCACHE-128K_ZXspectrum/LOCAL_A1*%
X64380000Y-10000000D03*
D13*
%TO.P,IC1,2,Q2*%
%TO.N,/IOCACHE-128K_ZXspectrum/LOCAL_A2*%
X64380000Y-12540000D03*
%TO.P,IC1,3,Q3*%
%TO.N,/IOCACHE-128K_ZXspectrum/LOCAL_A3*%
X64380000Y-15080000D03*
%TO.P,IC1,4,Q4*%
%TO.N,/IOCACHE-128K_ZXspectrum/LOCAL_A4*%
X64380000Y-17620000D03*
%TO.P,IC1,5,Q5*%
%TO.N,/IOCACHE-128K_ZXspectrum/LOCAL_A5*%
X64380000Y-20160000D03*
%TO.P,IC1,6,Q6*%
%TO.N,/IOCACHE-128K_ZXspectrum/LOCAL_A6*%
X64380000Y-22700000D03*
%TO.P,IC1,7,Q7*%
%TO.N,/IOCACHE-128K_ZXspectrum/LOCAL_A7*%
X64380000Y-25240000D03*
%TO.P,IC1,8,GND*%
%TO.N,GND*%
X64380000Y-27780000D03*
%TO.P,IC1,9,~{RCO}*%
%TO.N,Net-(IC1-~{RCO})*%
X72000000Y-27780000D03*
%TO.P,IC1,10,~{MRC}*%
%TO.N,/IOCACHE-128K_ZXspectrum/Z80_HARDLOCK*%
X72000000Y-25240000D03*
%TO.P,IC1,11,CPC*%
%TO.N,/IOCACHE-128K_ZXspectrum/CACHE_CONTROL.DATASTATUS+PERM_Z80_IORQ*%
X72000000Y-22700000D03*
%TO.P,IC1,12,~{CE}*%
%TO.N,/IOCACHE-128K_ZXspectrum/CACHE_DATASTATUS*%
X72000000Y-20160000D03*
%TO.P,IC1,13,CPR*%
%TO.N,/IOCACHE-128K_ZXspectrum/CACHE_CONTROL.DATASTATUS+PERM_Z80_IORQ*%
X72000000Y-17620000D03*
%TO.P,IC1,14,~{OE}*%
%TO.N,/IOCACHE-128K_ZXspectrum/CACHE_DATASTATUS*%
X72000000Y-15080000D03*
%TO.P,IC1,15,Q0*%
%TO.N,/IOCACHE-128K_ZXspectrum/LOCAL_A0*%
X72000000Y-12540000D03*
%TO.P,IC1,16,VCC*%
%TO.N,+5V*%
X72000000Y-10000000D03*
%TD*%
D12*
%TO.P,IC2,1,Q1*%
%TO.N,/IOCACHE-128K_ZXspectrum/LOCAL_A9*%
X81380000Y-10000000D03*
D13*
%TO.P,IC2,2,Q2*%
%TO.N,/IOCACHE-128K_ZXspectrum/LOCAL_A10*%
X81380000Y-12540000D03*
%TO.P,IC2,3,Q3*%
%TO.N,/IOCACHE-128K_ZXspectrum/LOCAL_A11*%
X81380000Y-15080000D03*
%TO.P,IC2,4,Q4*%
%TO.N,unconnected-(IC2-Q4-Pad4)*%
X81380000Y-17620000D03*
%TO.P,IC2,5,Q5*%
%TO.N,unconnected-(IC2-Q5-Pad5)*%
X81380000Y-20160000D03*
%TO.P,IC2,6,Q6*%
%TO.N,unconnected-(IC2-Q6-Pad6)*%
X81380000Y-22700000D03*
%TO.P,IC2,7,Q7*%
%TO.N,unconnected-(IC2-Q7-Pad7)*%
X81380000Y-25240000D03*
%TO.P,IC2,8,GND*%
%TO.N,GND*%
X81380000Y-27780000D03*
%TO.P,IC2,9,~{RCO}*%
%TO.N,unconnected-(IC2-~{RCO}-Pad9)*%
X89000000Y-27780000D03*
%TO.P,IC2,10,~{MRC}*%
%TO.N,/IOCACHE-128K_ZXspectrum/Z80_HARDLOCK*%
X89000000Y-25240000D03*
%TO.P,IC2,11,CPC*%
%TO.N,Net-(IC1-~{RCO})*%
X89000000Y-22700000D03*
%TO.P,IC2,12,~{CE}*%
%TO.N,/IOCACHE-128K_ZXspectrum/CACHE_DATASTATUS*%
X89000000Y-20160000D03*
%TO.P,IC2,13,CPR*%
%TO.N,Net-(IC1-~{RCO})*%
X89000000Y-17620000D03*
%TO.P,IC2,14,~{OE}*%
%TO.N,/IOCACHE-128K_ZXspectrum/CACHE_DATASTATUS*%
X89000000Y-15080000D03*
%TO.P,IC2,15,Q0*%
%TO.N,/IOCACHE-128K_ZXspectrum/LOCAL_A8*%
X89000000Y-12540000D03*
%TO.P,IC2,16,VCC*%
%TO.N,+5V*%
X89000000Y-10000000D03*
%TD*%
D10*
%TO.P,CACHE3,1,Pin_1*%
%TO.N,+5V*%
X4000000Y-8000000D03*
D11*
%TO.P,CACHE3,2,Pin_2*%
%TO.N,/IOCACHE-128K_ZXspectrum/CACHE_CONTROL.A16*%
X4000000Y-10540000D03*
%TO.P,CACHE3,3,Pin_3*%
%TO.N,/IOCACHE-128K_ZXspectrum/CACHE_CONTROL.WE*%
X4000000Y-13080000D03*
%TO.P,CACHE3,4,Pin_4*%
%TO.N,/IOCACHE-128K_ZXspectrum/CACHE_CONTROL.OE*%
X4000000Y-15620000D03*
%TO.P,CACHE3,5,Pin_5*%
%TO.N,/IOCACHE-128K_ZXspectrum/CACHE_CONTROL.CS*%
X4000000Y-18160000D03*
%TO.P,CACHE3,6,Pin_6*%
%TO.N,/IOCACHE-128K_ZXspectrum/CACHE_CONTROL.DATASTATUS+PERM_Z80_IORQ*%
X4000000Y-20700000D03*
%TO.P,CACHE3,7,Pin_7*%
%TO.N,/IOCACHE-128K_ZXspectrum/Z80_HARDLOCK*%
X4000000Y-23240000D03*
%TO.P,CACHE3,8,Pin_8*%
%TO.N,/IOCACHE-128K_ZXspectrum/LOCAL_A12*%
X4000000Y-25780000D03*
%TO.P,CACHE3,9,Pin_9*%
%TO.N,/IOCACHE-128K_ZXspectrum/LOCAL_A13*%
X4000000Y-28320000D03*
%TO.P,CACHE3,10,Pin_10*%
%TO.N,/IOCACHE-128K_ZXspectrum/LOCAL_A14*%
X4000000Y-30860000D03*
%TO.P,CACHE3,11,Pin_11*%
%TO.N,/IOCACHE-128K_ZXspectrum/LOCAL_A15*%
X4000000Y-33400000D03*
%TO.P,CACHE3,12,Pin_12*%
%TO.N,/IOCACHE-128K_ZXspectrum/CACHE_DATASTATUS*%
X4000000Y-35940000D03*
%TO.P,CACHE3,13,Pin_13*%
%TO.N,unconnected-(CACHE3-Pin_13-Pad13)*%
X4000000Y-38480000D03*
%TO.P,CACHE3,14,Pin_14*%
%TO.N,GND*%
X4000000Y-41020000D03*
%TD*%
D12*
%TO.P,CACHE1,1,NC*%
%TO.N,unconnected-(CACHE1-NC-Pad1)*%
X11900000Y-29240000D03*
D13*
%TO.P,CACHE1,2,A16*%
%TO.N,/IOCACHE-128K_ZXspectrum/CACHE_CONTROL.A16*%
X14440000Y-29240000D03*
%TO.P,CACHE1,3,A14*%
%TO.N,/IOCACHE-128K_ZXspectrum/LOCAL_A14*%
X16980000Y-29240000D03*
%TO.P,CACHE1,4,A12*%
%TO.N,/IOCACHE-128K_ZXspectrum/LOCAL_A12*%
X19520000Y-29240000D03*
%TO.P,CACHE1,5,A7*%
%TO.N,/IOCACHE-128K_ZXspectrum/LOCAL_A7*%
X22060000Y-29240000D03*
%TO.P,CACHE1,6,A6*%
%TO.N,/IOCACHE-128K_ZXspectrum/LOCAL_A6*%
X24600000Y-29240000D03*
%TO.P,CACHE1,7,A5*%
%TO.N,/IOCACHE-128K_ZXspectrum/LOCAL_A5*%
X27140000Y-29240000D03*
%TO.P,CACHE1,8,A4*%
%TO.N,/IOCACHE-128K_ZXspectrum/LOCAL_A4*%
X29680000Y-29240000D03*
%TO.P,CACHE1,9,A3*%
%TO.N,/IOCACHE-128K_ZXspectrum/LOCAL_A3*%
X32220000Y-29240000D03*
%TO.P,CACHE1,10,A2*%
%TO.N,/IOCACHE-128K_ZXspectrum/LOCAL_A2*%
X34760000Y-29240000D03*
%TO.P,CACHE1,11,A1*%
%TO.N,/IOCACHE-128K_ZXspectrum/LOCAL_A1*%
X37300000Y-29240000D03*
%TO.P,CACHE1,12,A0*%
%TO.N,/IOCACHE-128K_ZXspectrum/LOCAL_A0*%
X39840000Y-29240000D03*
%TO.P,CACHE1,13,DQ0*%
%TO.N,/IOCACHE-128K_ZXspectrum/LOCAL_D0*%
X42380000Y-29240000D03*
%TO.P,CACHE1,14,DQ1*%
%TO.N,/IOCACHE-128K_ZXspectrum/LOCAL_D1*%
X44920000Y-29240000D03*
%TO.P,CACHE1,15,DQ2*%
%TO.N,/IOCACHE-128K_ZXspectrum/LOCAL_D2*%
X47460000Y-29240000D03*
%TO.P,CACHE1,16,VSS*%
%TO.N,GND*%
X50000000Y-29240000D03*
%TO.P,CACHE1,17,DQ3*%
%TO.N,/IOCACHE-128K_ZXspectrum/LOCAL_D3*%
X50000000Y-14000000D03*
%TO.P,CACHE1,18,DQ4*%
%TO.N,/IOCACHE-128K_ZXspectrum/LOCAL_D4*%
X47460000Y-14000000D03*
%TO.P,CACHE1,19,DQ5*%
%TO.N,/IOCACHE-128K_ZXspectrum/LOCAL_D5*%
X44920000Y-14000000D03*
%TO.P,CACHE1,20,DQ6*%
%TO.N,/IOCACHE-128K_ZXspectrum/LOCAL_D6*%
X42380000Y-14000000D03*
%TO.P,CACHE1,21,DQ7*%
%TO.N,/IOCACHE-128K_ZXspectrum/LOCAL_D7*%
X39840000Y-14000000D03*
%TO.P,CACHE1,22,CE#*%
%TO.N,/IOCACHE-128K_ZXspectrum/CACHE_CONTROL.CS*%
X37300000Y-14000000D03*
%TO.P,CACHE1,23,A10*%
%TO.N,/IOCACHE-128K_ZXspectrum/LOCAL_A10*%
X34760000Y-14000000D03*
%TO.P,CACHE1,24,OE#*%
%TO.N,/IOCACHE-128K_ZXspectrum/CACHE_CONTROL.OE*%
X32220000Y-14000000D03*
%TO.P,CACHE1,25,A11*%
%TO.N,/IOCACHE-128K_ZXspectrum/LOCAL_A11*%
X29680000Y-14000000D03*
%TO.P,CACHE1,26,A9*%
%TO.N,/IOCACHE-128K_ZXspectrum/LOCAL_A9*%
X27140000Y-14000000D03*
%TO.P,CACHE1,27,A8*%
%TO.N,/IOCACHE-128K_ZXspectrum/LOCAL_A8*%
X24600000Y-14000000D03*
%TO.P,CACHE1,28,A13*%
%TO.N,/IOCACHE-128K_ZXspectrum/LOCAL_A13*%
X22060000Y-14000000D03*
%TO.P,CACHE1,29,WE#*%
%TO.N,/IOCACHE-128K_ZXspectrum/CACHE_CONTROL.WE*%
X19520000Y-14000000D03*
%TO.P,CACHE1,30,CE2#*%
%TO.N,/IOCACHE-128K_ZXspectrum/CACHE_CE2*%
X16980000Y-14000000D03*
%TO.P,CACHE1,31,A15*%
%TO.N,/IOCACHE-128K_ZXspectrum/LOCAL_A15*%
X14440000Y-14000000D03*
%TO.P,CACHE1,32,VCC*%
%TO.N,+5V*%
X11900000Y-14000000D03*
%TD*%
D14*
%TO.P,R1,1*%
%TO.N,/IOCACHE-128K_ZXspectrum/CACHE_CE2*%
X21080000Y-10000000D03*
D13*
%TO.P,R1,2*%
%TO.N,+5V*%
X10920000Y-10000000D03*
%TD*%
D15*
%TO.N,/IOCACHE-128K_ZXspectrum/CACHE_CONTROL.A16*%
X7685200Y-25369600D03*
%TO.N,/IOCACHE-128K_ZXspectrum/LOCAL_A7*%
X28867700Y-25255100D03*
%TO.N,/IOCACHE-128K_ZXspectrum/LOCAL_A5*%
X60593100Y-25999500D03*
%TO.N,/IOCACHE-128K_ZXspectrum/LOCAL_A4*%
X34854800Y-22214200D03*
%TO.N,/IOCACHE-128K_ZXspectrum/LOCAL_A3*%
X57925700Y-26125300D03*
%TO.N,/IOCACHE-128K_ZXspectrum/LOCAL_A2*%
X56967700Y-27592100D03*
%TO.N,/IOCACHE-128K_ZXspectrum/LOCAL_A1*%
X37578000Y-21230900D03*
X33991500Y-36831400D03*
%TO.N,/IOCACHE-128K_ZXspectrum/LOCAL_A0*%
X55690100Y-33321600D03*
%TO.N,/IOCACHE-128K_ZXspectrum/LOCAL_A8*%
X77840900Y-33103500D03*
%TO.N,/IOCACHE-128K_ZXspectrum/Z80_HARDLOCK*%
X68937500Y-11149600D03*
%TO.N,/IOCACHE-128K_ZXspectrum/LOCAL_A12*%
X26080000Y-35734700D03*
%TO.N,/IOCACHE-128K_ZXspectrum/LOCAL_A14*%
X21320000Y-35347100D03*
%TO.N,/IOCACHE-128K_ZXspectrum/LOCAL_A15*%
X7755900Y-34744800D03*
%TD*%
D16*
%TO.N,/IOCACHE-128K_ZXspectrum/CACHE_CONTROL.A16*%
X9955500Y-27639900D02*
X7685200Y-25369600D01*
X14440000Y-29240000D02*
X14440000Y-27639900D01*
X14440000Y-27639900D02*
X9955500Y-27639900D01*
%TO.N,/IOCACHE-128K_ZXspectrum/LOCAL_A7*%
X38945000Y-24531200D02*
X29591600Y-24531200D01*
X64380000Y-25240000D02*
X62779900Y-25240000D01*
X62779900Y-25240000D02*
X61355800Y-23815900D01*
X39660300Y-23815900D02*
X38945000Y-24531200D01*
X61355800Y-23815900D02*
X39660300Y-23815900D01*
X29591600Y-24531200D02*
X28867700Y-25255100D01*
%TO.N,/IOCACHE-128K_ZXspectrum/LOCAL_A6*%
X64380000Y-22700000D02*
X62779900Y-22700000D01*
X24600000Y-27639900D02*
X28708800Y-23531100D01*
X28708800Y-23531100D02*
X38530800Y-23531100D01*
X62664100Y-22815800D02*
X62779900Y-22700000D01*
X38530800Y-23531100D02*
X39246100Y-22815800D01*
X24600000Y-29240000D02*
X24600000Y-27639900D01*
X39246100Y-22815800D02*
X62664100Y-22815800D01*
%TO.N,/IOCACHE-128K_ZXspectrum/LOCAL_A5*%
X39359200Y-25531300D02*
X40074500Y-24816000D01*
X30848700Y-25531300D02*
X39359200Y-25531300D01*
X27140000Y-29240000D02*
X30848700Y-25531300D01*
X59409600Y-24816000D02*
X60593100Y-25999500D01*
X40074500Y-24816000D02*
X59409600Y-24816000D01*
%TO.N,/IOCACHE-128K_ZXspectrum/LOCAL_A4*%
X34854800Y-22214200D02*
X35171600Y-22531000D01*
X64380000Y-17620000D02*
X62779900Y-17620000D01*
X35171600Y-22531000D02*
X38116600Y-22531000D01*
X38116600Y-22531000D02*
X38831900Y-21815700D01*
X58584200Y-21815700D02*
X62779900Y-17620000D01*
X38831900Y-21815700D02*
X58584200Y-21815700D01*
%TO.N,/IOCACHE-128K_ZXspectrum/LOCAL_A3*%
X39773400Y-26531400D02*
X40179500Y-26125300D01*
X40179500Y-26125300D02*
X57925700Y-26125300D01*
X32220000Y-29240000D02*
X34928600Y-26531400D01*
X34928600Y-26531400D02*
X39773400Y-26531400D01*
%TO.N,/IOCACHE-128K_ZXspectrum/LOCAL_A2*%
X34760000Y-29240000D02*
X36407900Y-27592100D01*
X36407900Y-27592100D02*
X56967700Y-27592100D01*
%TO.N,/IOCACHE-128K_ZXspectrum/LOCAL_A1*%
X38002400Y-20806500D02*
X37578000Y-21230900D01*
X51973400Y-20806500D02*
X38002400Y-20806500D01*
X64380000Y-10000000D02*
X62779900Y-10000000D01*
X35862500Y-38702400D02*
X50562400Y-38702400D01*
X33991500Y-36831400D02*
X35862500Y-38702400D01*
X62779900Y-10000000D02*
X51973400Y-20806500D01*
X50562400Y-38702400D02*
X52860000Y-41000000D01*
%TO.N,/IOCACHE-128K_ZXspectrum/LOCAL_A0*%
X66521300Y-18018700D02*
X66521300Y-27958600D01*
X72000000Y-12540000D02*
X66521300Y-18018700D01*
X61158300Y-33321600D02*
X55690100Y-33321600D01*
X39840000Y-29240000D02*
X43921600Y-33321600D01*
X43921600Y-33321600D02*
X55690100Y-33321600D01*
X66521300Y-27958600D02*
X61158300Y-33321600D01*
%TO.N,GND*%
X61319900Y-29240000D02*
X50000000Y-29240000D01*
X64380000Y-27780000D02*
X62779900Y-27780000D01*
X62779900Y-27780000D02*
X61319900Y-29240000D01*
%TO.N,/IOCACHE-128K_ZXspectrum/CACHE_CONTROL.CS*%
X4000000Y-18160000D02*
X5650100Y-18160000D01*
X33140000Y-18160000D02*
X5650100Y-18160000D01*
X37300000Y-14000000D02*
X33140000Y-18160000D01*
%TO.N,/IOCACHE-128K_ZXspectrum/LOCAL_A10*%
X42375200Y-6384800D02*
X34760000Y-14000000D01*
X81380000Y-12540000D02*
X79556300Y-12540000D01*
X79556300Y-12540000D02*
X73401100Y-6384800D01*
X73401100Y-6384800D02*
X42375200Y-6384800D01*
%TO.N,/IOCACHE-128K_ZXspectrum/CACHE_CONTROL.OE*%
X6672300Y-16642200D02*
X5650100Y-15620000D01*
X32220000Y-14000000D02*
X29577800Y-16642200D01*
X29577800Y-16642200D02*
X6672300Y-16642200D01*
X4000000Y-15620000D02*
X5650100Y-15620000D01*
%TO.N,/IOCACHE-128K_ZXspectrum/LOCAL_A9*%
X75164600Y-5384700D02*
X35755300Y-5384700D01*
X79779900Y-10000000D02*
X75164600Y-5384700D01*
X35755300Y-5384700D02*
X27140000Y-14000000D01*
X81380000Y-10000000D02*
X79779900Y-10000000D01*
%TO.N,/IOCACHE-128K_ZXspectrum/LOCAL_A8*%
X90602100Y-28441200D02*
X85939800Y-33103500D01*
X88789600Y-12540000D02*
X87399900Y-12540000D01*
X90602100Y-14142100D02*
X90602100Y-28441200D01*
X79244500Y-4384600D02*
X32615300Y-4384600D01*
X88789600Y-12540000D02*
X89000000Y-12540000D01*
X89000000Y-12540000D02*
X90602100Y-14142100D01*
X85939800Y-33103500D02*
X77840900Y-33103500D01*
X24600000Y-14000000D02*
X24600000Y-12399900D01*
X32615300Y-4384600D02*
X24600000Y-12399900D01*
X87399900Y-12540000D02*
X79244500Y-4384600D01*
%TO.N,/IOCACHE-128K_ZXspectrum/CACHE_CONTROL.WE*%
X4000000Y-13080000D02*
X5650100Y-13080000D01*
X8211600Y-15641500D02*
X5650100Y-13080000D01*
X19520000Y-14000000D02*
X17878500Y-15641500D01*
X17878500Y-15641500D02*
X8211600Y-15641500D01*
%TO.N,/IOCACHE-128K_ZXspectrum/CACHE_CE2*%
X21080000Y-10000000D02*
X20980000Y-10000000D01*
X20980000Y-10000000D02*
X16980000Y-14000000D01*
%TO.N,+5V*%
X4000000Y-8000000D02*
X5650100Y-8000000D01*
X87399900Y-10000000D02*
X80784400Y-3384500D01*
X89000000Y-10000000D02*
X87399900Y-10000000D01*
X80784400Y-3384500D02*
X19135600Y-3384500D01*
X7650100Y-10000000D02*
X10920000Y-10000000D01*
X19135600Y-3384500D02*
X12520100Y-10000000D01*
X10920000Y-10000000D02*
X12520100Y-10000000D01*
X5650100Y-8000000D02*
X7650100Y-10000000D01*
%TO.N,Net-(IC1-~{RCO})*%
X85585200Y-26114800D02*
X85585200Y-27268000D01*
X82425000Y-30428200D02*
X76248300Y-30428200D01*
X89000000Y-22700000D02*
X85585200Y-26114800D01*
X76248300Y-30428200D02*
X73600100Y-27780000D01*
X72000000Y-27780000D02*
X73600100Y-27780000D01*
X85585200Y-27268000D02*
X82425000Y-30428200D01*
%TO.N,/IOCACHE-128K_ZXspectrum/Z80_HARDLOCK*%
X4000000Y-23240000D02*
X5650100Y-23240000D01*
X36436800Y-20533300D02*
X37436900Y-19533200D01*
X5650100Y-23240000D02*
X8356800Y-20533300D01*
X62733100Y-8385000D02*
X66172900Y-8385000D01*
X89000000Y-25267700D02*
X82839300Y-31428400D01*
X82839300Y-31428400D02*
X73378800Y-31428400D01*
X89000000Y-25240000D02*
X89000000Y-25267700D01*
X37436900Y-19533200D02*
X51584900Y-19533200D01*
X70360100Y-26879900D02*
X72000000Y-25240000D01*
X66172900Y-8385000D02*
X68937500Y-11149600D01*
X70360100Y-28409700D02*
X70360100Y-26879900D01*
X51584900Y-19533200D02*
X62733100Y-8385000D01*
X8356800Y-20533300D02*
X36436800Y-20533300D01*
X73378800Y-31428400D02*
X70360100Y-28409700D01*
%TO.N,/IOCACHE-128K_ZXspectrum/CACHE_CONTROL.DATASTATUS+PERM_Z80_IORQ*%
X4000000Y-20700000D02*
X5650100Y-20700000D01*
X71739000Y-7384900D02*
X61098700Y-7384900D01*
X61098700Y-7384900D02*
X52883400Y-15600200D01*
X6816900Y-19533200D02*
X5650100Y-20700000D01*
X72000000Y-17620000D02*
X73617700Y-16002300D01*
X52883400Y-15600200D02*
X39455800Y-15600200D01*
X73617700Y-9263600D02*
X71739000Y-7384900D01*
X35522800Y-19533200D02*
X6816900Y-19533200D01*
X39455800Y-15600200D02*
X35522800Y-19533200D01*
X73617700Y-16002300D02*
X73617700Y-9263600D01*
%TO.N,/IOCACHE-128K_ZXspectrum/CACHE_DATASTATUS*%
X68659900Y-21900000D02*
X68659900Y-27282800D01*
X72000000Y-20160000D02*
X70399900Y-20160000D01*
X5650100Y-34967700D02*
X5650100Y-35940000D01*
X61320900Y-34621800D02*
X42309800Y-34621800D01*
X82002900Y-29428000D02*
X80760300Y-29428000D01*
X84250700Y-27180200D02*
X82002900Y-29428000D01*
X70399900Y-16680100D02*
X72000000Y-15080000D01*
X89000000Y-20160000D02*
X84250700Y-24909300D01*
X40065600Y-32377600D02*
X8240200Y-32377600D01*
X79779800Y-27939800D02*
X72000000Y-20160000D01*
X68659900Y-27282800D02*
X61320900Y-34621800D01*
X8240200Y-32377600D02*
X5650100Y-34967700D01*
X84250700Y-24909300D02*
X84250700Y-27180200D01*
X42309800Y-34621800D02*
X40065600Y-32377600D01*
X70399900Y-20160000D02*
X70399900Y-16680100D01*
X80760300Y-29428000D02*
X79779800Y-28447500D01*
X70399900Y-20160000D02*
X68659900Y-21900000D01*
X79779800Y-28447500D02*
X79779800Y-27939800D01*
X4000000Y-35940000D02*
X5650100Y-35940000D01*
%TO.N,/IOCACHE-128K_ZXspectrum/LOCAL_A12*%
X77502200Y-37702200D02*
X40389600Y-37702200D01*
X7104200Y-24069500D02*
X5650100Y-25523600D01*
X26283400Y-35531300D02*
X26080000Y-35734700D01*
X19520000Y-29240000D02*
X14349500Y-24069500D01*
X14349500Y-24069500D02*
X7104200Y-24069500D01*
X5650100Y-25523600D02*
X5650100Y-25780000D01*
X80800000Y-41000000D02*
X77502200Y-37702200D01*
X4000000Y-25780000D02*
X5650100Y-25780000D01*
X40389600Y-37702200D02*
X38218700Y-35531300D01*
X38218700Y-35531300D02*
X26283400Y-35531300D01*
%TO.N,/IOCACHE-128K_ZXspectrum/LOCAL_A14*%
X4000000Y-30860000D02*
X5650100Y-30860000D01*
X21320000Y-35347100D02*
X22232900Y-34434200D01*
X5650100Y-30860000D02*
X16960100Y-30860000D01*
X38536000Y-34434200D02*
X40723800Y-36622000D01*
X22232900Y-34434200D02*
X38536000Y-34434200D01*
X16980000Y-29240000D02*
X16980000Y-30840100D01*
X40723800Y-36622000D02*
X81502000Y-36622000D01*
X81502000Y-36622000D02*
X85880000Y-41000000D01*
X16960100Y-30860000D02*
X16980000Y-30840100D01*
%TO.N,/IOCACHE-128K_ZXspectrum/LOCAL_A15*%
X41638000Y-35621900D02*
X39450200Y-33434100D01*
X39450200Y-33434100D02*
X9066600Y-33434100D01*
X88420000Y-41000000D02*
X83041900Y-35621900D01*
X9066600Y-33434100D02*
X7755900Y-34744800D01*
X83041900Y-35621900D02*
X41638000Y-35621900D01*
%TD*%
M02*
