M48
; DRILL file {KiCad 7.0.2} date Tue 27 Jun 2023 23:28:22 BST
; FORMAT={-:-/ absolute / metric / decimal}
; #@! TF.CreationDate,2023-06-27T23:28:22+01:00
; #@! TF.GenerationSoftware,Kicad,Pcbnew,7.0.2
; #@! TF.FileFunction,Plated,1,2,PTH
FMAT,2
METRIC
; #@! TA.AperFunction,Plated,PTH,ViaDrill
T1C0.500
; #@! TA.AperFunction,Plated,PTH,ComponentDrill
T2C0.800
; #@! TA.AperFunction,Plated,PTH,ComponentDrill
T3C1.000
%
G90
G05
T1
X7.685Y-25.37
X7.756Y-34.745
X21.32Y-35.347
X26.08Y-35.735
X28.868Y-25.255
X33.991Y-36.831
X34.855Y-22.214
X37.578Y-21.231
X55.69Y-33.322
X56.968Y-27.592
X57.926Y-26.125
X60.593Y-25.999
X68.938Y-11.15
X77.841Y-33.103
T2
X10.92Y-10.0
X11.9Y-14.0
X11.9Y-29.24
X14.44Y-14.0
X14.44Y-29.24
X16.98Y-14.0
X16.98Y-29.24
X19.52Y-14.0
X19.52Y-29.24
X21.08Y-10.0
X22.06Y-14.0
X22.06Y-29.24
X24.6Y-14.0
X24.6Y-29.24
X27.14Y-14.0
X27.14Y-29.24
X29.68Y-14.0
X29.68Y-29.24
X32.22Y-14.0
X32.22Y-29.24
X34.76Y-14.0
X34.76Y-29.24
X37.3Y-14.0
X37.3Y-29.24
X39.84Y-14.0
X39.84Y-29.24
X42.38Y-14.0
X42.38Y-29.24
X44.92Y-14.0
X44.92Y-29.24
X47.46Y-14.0
X47.46Y-29.24
X50.0Y-14.0
X50.0Y-29.24
X64.38Y-10.0
X64.38Y-12.54
X64.38Y-15.08
X64.38Y-17.62
X64.38Y-20.16
X64.38Y-22.7
X64.38Y-25.24
X64.38Y-27.78
X72.0Y-10.0
X72.0Y-12.54
X72.0Y-15.08
X72.0Y-17.62
X72.0Y-20.16
X72.0Y-22.7
X72.0Y-25.24
X72.0Y-27.78
X81.38Y-10.0
X81.38Y-12.54
X81.38Y-15.08
X81.38Y-17.62
X81.38Y-20.16
X81.38Y-22.7
X81.38Y-25.24
X81.38Y-27.78
X89.0Y-10.0
X89.0Y-12.54
X89.0Y-15.08
X89.0Y-17.62
X89.0Y-20.16
X89.0Y-22.7
X89.0Y-25.24
X89.0Y-27.78
T3
X4.0Y-8.0
X4.0Y-10.54
X4.0Y-13.08
X4.0Y-15.62
X4.0Y-18.16
X4.0Y-20.7
X4.0Y-23.24
X4.0Y-25.78
X4.0Y-28.32
X4.0Y-30.86
X4.0Y-33.4
X4.0Y-35.94
X4.0Y-38.48
X4.0Y-41.02
X30.0Y-41.0
X32.54Y-41.0
X35.08Y-41.0
X37.62Y-41.0
X40.16Y-41.0
X42.7Y-41.0
X45.24Y-41.0
X47.78Y-41.0
X50.32Y-41.0
X52.86Y-41.0
X55.4Y-41.0
X57.94Y-41.0
X60.48Y-41.0
X63.02Y-41.0
X65.56Y-41.0
X68.1Y-41.0
X70.64Y-41.0
X73.18Y-41.0
X75.72Y-41.0
X78.26Y-41.0
X80.8Y-41.0
X83.34Y-41.0
X85.88Y-41.0
X88.42Y-41.0
T0
M30
