<?xml version="1.0" standalone="no"?>
<!DOCTYPE svg PUBLIC "-//W3C//DTD SVG 1.1//EN"
"http://www.w3.org/Graphics/SVG/1.1/DTD/svg11.dtd">
<svg width="374.362" height="185.386" viewBox="0 0 7799.21 3862.2" version="1.1"
xmlns="http://www.w3.org/2000/svg"
xmlns:xlink="http://www.w3.org/1999/xlink">
<circle cx="764.567" cy="2157.09" r="19.685" style=""/>
<circle cx="770.157" cy="2895.28" r="19.685" style=""/>
<circle cx="1838.19" cy="2942.68" r="19.685" style=""/>
<circle cx="2212.99" cy="2973.23" r="19.685" style=""/>
<circle cx="2835.91" cy="3059.53" r="19.685" style=""/>
<circle cx="2432.52" cy="2148.03" r="19.685" style=""/>
<circle cx="2903.94" cy="1908.58" r="19.685" style=""/>
<circle cx="3118.35" cy="1831.18" r="19.685" style=""/>
<circle cx="4544.49" cy="2783.23" r="19.685" style=""/>
<circle cx="4645.12" cy="2332.05" r="19.685" style=""/>
<circle cx="4720.55" cy="2216.54" r="19.685" style=""/>
<circle cx="4930.55" cy="2206.61" r="19.685" style=""/>
<circle cx="5587.64" cy="1037.4" r="19.685" style=""/>
<circle cx="6288.66" cy="2765.98" r="19.685" style=""/>
<circle cx="1019.29" cy="946.85" r="31.4961" style=""/>
<circle cx="1096.46" cy="1261.81" r="31.4961" style=""/>
<circle cx="1296.46" cy="1261.81" r="31.4961" style=""/>
<circle cx="1496.46" cy="1261.81" r="31.4961" style=""/>
<circle cx="1696.46" cy="1261.81" r="31.4961" style=""/>
<circle cx="1896.46" cy="1261.81" r="31.4961" style=""/>
<circle cx="2096.46" cy="1261.81" r="31.4961" style=""/>
<circle cx="2296.46" cy="1261.81" r="31.4961" style=""/>
<circle cx="2496.46" cy="1261.81" r="31.4961" style=""/>
<circle cx="2696.46" cy="1261.81" r="31.4961" style=""/>
<circle cx="2896.46" cy="1261.81" r="31.4961" style=""/>
<circle cx="3096.46" cy="1261.81" r="31.4961" style=""/>
<circle cx="3296.46" cy="1261.81" r="31.4961" style=""/>
<circle cx="3496.46" cy="1261.81" r="31.4961" style=""/>
<circle cx="3696.46" cy="1261.81" r="31.4961" style=""/>
<circle cx="3896.46" cy="1261.81" r="31.4961" style=""/>
<circle cx="4096.46" cy="1261.81" r="31.4961" style=""/>
<circle cx="5228.74" cy="946.85" r="31.4961" style=""/>
<circle cx="5228.74" cy="1146.85" r="31.4961" style=""/>
<circle cx="5228.74" cy="1346.85" r="31.4961" style=""/>
<circle cx="5228.74" cy="1546.85" r="31.4961" style=""/>
<circle cx="5228.74" cy="1746.85" r="31.4961" style=""/>
<circle cx="5228.74" cy="1946.85" r="31.4961" style=""/>
<circle cx="5228.74" cy="2146.85" r="31.4961" style=""/>
<circle cx="5228.74" cy="2346.85" r="31.4961" style=""/>
<circle cx="5828.74" cy="1746.85" r="31.4961" style=""/>
<circle cx="5828.74" cy="1946.85" r="31.4961" style=""/>
<circle cx="5828.74" cy="2146.85" r="31.4961" style=""/>
<circle cx="5828.74" cy="2346.85" r="31.4961" style=""/>
<circle cx="6567.32" cy="1746.85" r="31.4961" style=""/>
<circle cx="6567.32" cy="1946.85" r="31.4961" style=""/>
<circle cx="6567.32" cy="2146.85" r="31.4961" style=""/>
<circle cx="6567.32" cy="2346.85" r="31.4961" style=""/>
<circle cx="7167.32" cy="1946.85" r="31.4961" style=""/>
<circle cx="7167.32" cy="1746.85" r="31.4961" style=""/>
<circle cx="7167.32" cy="1546.85" r="31.4961" style=""/>
<circle cx="7167.32" cy="1346.85" r="31.4961" style=""/>
<circle cx="7167.32" cy="1146.85" r="31.4961" style=""/>
<circle cx="7167.32" cy="946.85" r="31.4961" style=""/>
<circle cx="6567.32" cy="946.85" r="31.4961" style=""/>
<circle cx="6567.32" cy="1146.85" r="31.4961" style=""/>
<circle cx="6567.32" cy="1346.85" r="31.4961" style=""/>
<circle cx="6567.32" cy="1546.85" r="31.4961" style=""/>
<circle cx="7167.32" cy="2146.85" r="31.4961" style=""/>
<circle cx="7167.32" cy="2346.85" r="31.4961" style=""/>
<circle cx="5828.74" cy="1146.85" r="31.4961" style=""/>
<circle cx="5828.74" cy="946.85" r="31.4961" style=""/>
<circle cx="5828.74" cy="1346.85" r="31.4961" style=""/>
<circle cx="5828.74" cy="1546.85" r="31.4961" style=""/>
<circle cx="4096.46" cy="2461.81" r="31.4961" style=""/>
<circle cx="3896.46" cy="2461.81" r="31.4961" style=""/>
<circle cx="3696.46" cy="2461.81" r="31.4961" style=""/>
<circle cx="3496.46" cy="2461.81" r="31.4961" style=""/>
<circle cx="3296.46" cy="2461.81" r="31.4961" style=""/>
<circle cx="3096.46" cy="2461.81" r="31.4961" style=""/>
<circle cx="2896.46" cy="2461.81" r="31.4961" style=""/>
<circle cx="2696.46" cy="2461.81" r="31.4961" style=""/>
<circle cx="2496.46" cy="2461.81" r="31.4961" style=""/>
<circle cx="2296.46" cy="2461.81" r="31.4961" style=""/>
<circle cx="2096.46" cy="2461.81" r="31.4961" style=""/>
<circle cx="1896.46" cy="2461.81" r="31.4961" style=""/>
<circle cx="1696.46" cy="2461.81" r="31.4961" style=""/>
<circle cx="1496.46" cy="2461.81" r="31.4961" style=""/>
<circle cx="1296.46" cy="2461.81" r="31.4961" style=""/>
<circle cx="1096.46" cy="2461.81" r="31.4961" style=""/>
<circle cx="1819.29" cy="946.85" r="31.4961" style=""/>
<circle cx="474.409" cy="789.37" r="39.3701" style=""/>
<circle cx="474.409" cy="989.37" r="39.3701" style=""/>
<circle cx="474.409" cy="1189.37" r="39.3701" style=""/>
<circle cx="474.409" cy="1389.37" r="39.3701" style=""/>
<circle cx="474.409" cy="1589.37" r="39.3701" style=""/>
<circle cx="474.409" cy="1789.37" r="39.3701" style=""/>
<circle cx="474.409" cy="1989.37" r="39.3701" style=""/>
<circle cx="474.409" cy="2189.37" r="39.3701" style=""/>
<circle cx="474.409" cy="2389.37" r="39.3701" style=""/>
<circle cx="474.409" cy="2589.37" r="39.3701" style=""/>
<circle cx="474.409" cy="2789.37" r="39.3701" style=""/>
<circle cx="474.409" cy="2989.37" r="39.3701" style=""/>
<circle cx="474.409" cy="3189.37" r="39.3701" style=""/>
<circle cx="474.409" cy="3389.37" r="39.3701" style=""/>
<circle cx="2521.65" cy="3387.8" r="39.3701" style=""/>
<circle cx="2721.65" cy="3387.8" r="39.3701" style=""/>
<circle cx="2921.65" cy="3387.8" r="39.3701" style=""/>
<circle cx="3121.65" cy="3387.8" r="39.3701" style=""/>
<circle cx="3321.65" cy="3387.8" r="39.3701" style=""/>
<circle cx="3521.65" cy="3387.8" r="39.3701" style=""/>
<circle cx="3721.65" cy="3387.8" r="39.3701" style=""/>
<circle cx="3921.65" cy="3387.8" r="39.3701" style=""/>
<circle cx="4121.65" cy="3387.8" r="39.3701" style=""/>
<circle cx="4321.65" cy="3387.8" r="39.3701" style=""/>
<circle cx="4521.65" cy="3387.8" r="39.3701" style=""/>
<circle cx="4721.65" cy="3387.8" r="39.3701" style=""/>
<circle cx="4921.65" cy="3387.8" r="39.3701" style=""/>
<circle cx="5121.65" cy="3387.8" r="39.3701" style=""/>
<circle cx="5321.65" cy="3387.8" r="39.3701" style=""/>
<circle cx="5521.65" cy="3387.8" r="39.3701" style=""/>
<circle cx="5721.65" cy="3387.8" r="39.3701" style=""/>
<circle cx="5921.65" cy="3387.8" r="39.3701" style=""/>
<circle cx="6121.65" cy="3387.8" r="39.3701" style=""/>
<circle cx="6321.65" cy="3387.8" r="39.3701" style=""/>
<circle cx="6521.65" cy="3387.8" r="39.3701" style=""/>
<circle cx="6721.65" cy="3387.8" r="39.3701" style=""/>
<circle cx="6921.65" cy="3387.8" r="39.3701" style=""/>
<circle cx="7121.65" cy="3387.8" r="39.3701" style=""/>
</svg>
